<?xml version="1.0" standalone="no"?>
 <!DOCTYPE svg PUBLIC "-//W3C//DTD SVG 1.1//EN" 
 "http://www.w3.org/Graphics/SVG/1.1/DTD/svg11.dtd"> 
<svg
  xmlns:svg="http://www.w3.org/2000/svg"
  xmlns="http://www.w3.org/2000/svg"
  xmlns:xlink="http://www.w3.org/1999/xlink"
  xmlns:inkscape="http://www.inkscape.org/namespaces/inkscape"
  version="1.1"
  width="133.1214mm" height="91.5924mm" viewBox="0.0000 0.0000 133.1214 91.5924">
<title>SVG Image created as choc_switchplates.svg date 2026-05-07T02:25:53 </title>
  <desc>Image generated by PCBNEW </desc>
<g style="fill:#000000; fill-opacity:1.0000;stroke:#000000; stroke-opacity:1.0000;
stroke-linecap:round; stroke-linejoin:round;"
 transform="translate(0 0) scale(1 1)">
</g>
<g style="fill:none; 
stroke:#000000; stroke-width:0.2000; stroke-opacity:1; 
stroke-linecap:round; stroke-linejoin:round;">
<path d="M0.1000 7.6000
L0.1000 62.8500
" />
<path d="M0.1000,62.8500 C0.1000,63.1200 0.3200,63.3500 0.6000,63.3500" />
<path d="M0.6000,7.1000 C0.3200,7.1000 0.1000,7.3200 0.1000,7.6000" />
<path d="M0.6000 63.3500
L11.4800 63.3500
" />
</g>
<g style="fill:none; 
stroke:#000000; stroke-width:0.2646; stroke-opacity:1; 
stroke-linecap:round; stroke-linejoin:round;">
<path d="M2.1700 23.2100
L2.1700 9.3100
" />
<path d="M2.1700 42.2100
L2.1700 28.3100
" />
<path d="M2.1700 61.2100
L2.1700 47.3100
" />
<path d="M2.1700 9.3100
L16.0700 9.3100
" />
<path d="M2.1700 28.3100
L16.0700 28.3100
" />
<path d="M2.1700 47.3100
L16.0700 47.3100
" />
<path d="M16.0700 23.2100
L2.1700 23.2100
" />
<path d="M16.0700 42.2100
L2.1700 42.2100
" />
<path d="M16.0700 61.2100
L2.1700 61.2100
" />
<path d="M16.0700 9.3100
L16.0700 23.2100
" />
<path d="M16.0700 28.3100
L16.0700 42.2100
" />
<path d="M16.0700 47.3100
L16.0700 61.2100
" />
<path d="M17.4900 25.8300
L17.4900 25.7700
" />
<path d="M17.4900 44.5800
L17.4900 44.5200
" />
<path d="M17.4900 25.7700
L17.4900 25.7100
" />
<path d="M17.4900 25.8800
L17.4900 25.8300
" />
<path d="M17.4900 44.5200
L17.4900 44.4600
" />
<path d="M17.4900 44.6300
L17.4900 44.5800
" />
<path d="M17.4900 25.7100
L17.5000 25.6600
" />
<path d="M17.4900 25.9400
L17.4900 25.8800
" />
<path d="M17.4900 44.4600
L17.5000 44.4100
" />
<path d="M17.4900 44.6900
L17.4900 44.6300
" />
<path d="M17.5000 25.6600
L17.5100 25.6100
" />
<path d="M17.5000 25.9900
L17.4900 25.9400
" />
<path d="M17.5000 44.4100
L17.5100 44.3600
" />
<path d="M17.5000 44.7400
L17.4900 44.6900
" />
<path d="M17.5100 25.6100
L17.5200 25.5500
" />
<path d="M17.5100 26.0500
L17.5000 25.9900
" />
<path d="M17.5100 44.3600
L17.5200 44.3000
" />
<path d="M17.5100 44.8000
L17.5000 44.7400
" />
<path d="M17.5200 25.5500
L17.5400 25.5000
" />
<path d="M17.5200 26.1000
L17.5100 26.0500
" />
<path d="M17.5200 44.3000
L17.5400 44.2500
" />
<path d="M17.5200 44.8500
L17.5100 44.8000
" />
<path d="M17.5400 25.5000
L17.5500 25.4500
" />
<path d="M17.5400 26.1500
L17.5200 26.1000
" />
<path d="M17.5400 44.2500
L17.5500 44.2000
" />
<path d="M17.5400 44.9000
L17.5200 44.8500
" />
<path d="M17.5500 25.4500
L17.5700 25.4000
" />
<path d="M17.5500 26.2100
L17.5400 26.1500
" />
<path d="M17.5500 44.2000
L17.5700 44.1500
" />
<path d="M17.5500 44.9600
L17.5400 44.9000
" />
<path d="M17.5700 25.4000
L17.6000 25.3500
" />
<path d="M17.5700 26.2600
L17.5500 26.2100
" />
<path d="M17.5700 44.1500
L17.6000 44.1000
" />
<path d="M17.5700 45.0100
L17.5500 44.9600
" />
<path d="M17.6000 25.3500
L17.6200 25.3000
" />
<path d="M17.6000 26.3000
L17.5700 26.2600
" />
<path d="M17.6000 44.1000
L17.6200 44.0500
" />
<path d="M17.6000 45.0500
L17.5700 45.0100
" />
<path d="M17.6200 25.3000
L17.6500 25.2600
" />
<path d="M17.6200 26.3500
L17.6000 26.3000
" />
<path d="M17.6200 44.0500
L17.6500 44.0100
" />
<path d="M17.6200 45.1000
L17.6000 45.0500
" />
<path d="M17.6500 25.2600
L17.6800 25.2100
" />
<path d="M17.6500 26.4000
L17.6200 26.3500
" />
<path d="M17.6500 44.0100
L17.6800 43.9600
" />
<path d="M17.6500 45.1500
L17.6200 45.1000
" />
<path d="M17.6800 25.2100
L17.7100 25.1700
" />
<path d="M17.6800 26.4400
L17.6500 26.4000
" />
<path d="M17.6800 43.9600
L17.7100 43.9200
" />
<path d="M17.6800 45.1900
L17.6500 45.1500
" />
<path d="M17.7100 25.1700
L17.7400 25.1300
" />
<path d="M17.7100 26.4900
L17.6800 26.4400
" />
<path d="M17.7100 43.9200
L17.7400 43.8800
" />
<path d="M17.7100 45.2400
L17.6800 45.1900
" />
<path d="M17.7400 25.1300
L17.7700 25.0900
" />
<path d="M17.7400 26.5300
L17.7100 26.4900
" />
<path d="M17.7400 43.8800
L17.7700 43.8400
" />
<path d="M17.7400 45.2800
L17.7100 45.2400
" />
<path d="M17.7700 25.0900
L17.8100 25.0500
" />
<path d="M17.7700 26.5700
L17.7400 26.5300
" />
<path d="M17.7700 43.8400
L17.8100 43.8000
" />
<path d="M17.7700 45.3200
L17.7400 45.2800
" />
<path d="M17.8100 25.0500
L17.8500 25.0100
" />
<path d="M17.8100 26.6100
L17.7700 26.5700
" />
<path d="M17.8100 43.8000
L17.8500 43.7600
" />
<path d="M17.8100 45.3600
L17.7700 45.3200
" />
<path d="M17.8500 25.0100
L17.8900 24.9800
" />
<path d="M17.8500 26.6400
L17.8100 26.6100
" />
<path d="M17.8500 43.7600
L17.8900 43.7300
" />
<path d="M17.8500 45.3900
L17.8100 45.3600
" />
<path d="M17.8900 24.9800
L17.9300 24.9500
" />
<path d="M17.8900 26.6800
L17.8500 26.6400
" />
<path d="M17.8900 43.7300
L17.9300 43.7000
" />
<path d="M17.8900 45.4300
L17.8500 45.3900
" />
<path d="M17.9300 24.9500
L17.9700 24.9200
" />
<path d="M17.9300 26.7100
L17.8900 26.6800
" />
<path d="M17.9300 43.7000
L17.9700 43.6700
" />
<path d="M17.9300 45.4600
L17.8900 45.4300
" />
<path d="M17.9700 24.9200
L18.0200 24.8900
" />
<path d="M17.9700 26.7400
L17.9300 26.7100
" />
<path d="M17.9700 43.6700
L18.0200 43.6400
" />
<path d="M17.9700 45.4900
L17.9300 45.4600
" />
<path d="M18.0200 24.8900
L18.0600 24.8600
" />
<path d="M18.0200 26.7700
L17.9700 26.7400
" />
<path d="M18.0200 43.6400
L18.0600 43.6100
" />
<path d="M18.0200 45.5200
L17.9700 45.4900
" />
<path d="M18.0600 24.8600
L18.1100 24.8400
" />
<path d="M18.0600 26.7900
L18.0200 26.7700
" />
<path d="M18.0600 43.6100
L18.1100 43.5900
" />
<path d="M18.0600 45.5400
L18.0200 45.5200
" />
<path d="M18.1100 24.8400
L18.1600 24.8100
" />
<path d="M18.1100 26.8200
L18.0600 26.7900
" />
<path d="M18.1100 43.5900
L18.1600 43.5600
" />
<path d="M18.1100 45.5700
L18.0600 45.5400
" />
<path d="M18.1600 24.8100
L18.2100 24.7900
" />
<path d="M18.1600 26.8400
L18.1100 26.8200
" />
<path d="M18.1600 43.5600
L18.2100 43.5400
" />
<path d="M18.1600 45.5900
L18.1100 45.5700
" />
<path d="M18.2100 24.7900
L18.2600 24.7800
" />
<path d="M18.2100 26.8600
L18.1600 26.8400
" />
<path d="M18.2100 43.5400
L18.2600 43.5300
" />
<path d="M18.2100 45.6100
L18.1600 45.5900
" />
<path d="M18.2600 24.7800
L18.3100 24.7600
" />
<path d="M18.2600 26.8800
L18.2100 26.8600
" />
<path d="M18.2600 43.5300
L18.3100 43.5100
" />
<path d="M18.2600 45.6300
L18.2100 45.6100
" />
<path d="M18.3100 24.7600
L18.3700 24.7500
" />
<path d="M18.3100 26.8900
L18.2600 26.8800
" />
<path d="M18.3100 43.5100
L18.3700 43.5000
" />
<path d="M18.3100 45.6400
L18.2600 45.6300
" />
<path d="M18.3700 24.7500
L18.4200 24.7400
" />
<path d="M18.3700 26.9100
L18.3100 26.8900
" />
<path d="M18.3700 43.5000
L18.4200 43.4900
" />
<path d="M18.3700 45.6500
L18.3100 45.6400
" />
<path d="M18.4200 24.7400
L18.4700 24.7300
" />
<path d="M18.4200 26.9100
L18.3700 26.9100
" />
<path d="M18.4200 43.4900
L18.4700 43.4800
" />
<path d="M18.4200 45.6600
L18.3700 45.6500
" />
<path d="M18.4700 24.7300
L18.5300 24.7300
" />
<path d="M18.4700 26.9200
L18.4200 26.9100
" />
<path d="M18.4700 43.4800
L18.5300 43.4800
" />
<path d="M18.4700 45.6700
L18.4200 45.6600
" />
<path d="M18.5300 24.7300
L18.5900 24.7300
" />
<path d="M18.5300 26.9300
L18.4700 26.9200
" />
<path d="M18.5300 43.4800
L18.5900 43.4800
" />
<path d="M18.5300 45.6800
L18.4700 45.6700
" />
<path d="M18.5900 24.7300
L18.6400 24.7300
" />
<path d="M18.5900 26.9300
L18.5300 26.9300
" />
<path d="M18.5900 43.4800
L18.6400 43.4800
" />
<path d="M18.5900 45.6800
L18.5300 45.6800
" />
<path d="M18.6400 24.7300
L18.7000 24.7300
" />
<path d="M18.6400 26.9300
L18.5900 26.9300
" />
<path d="M18.6400 43.4800
L18.7000 43.4800
" />
<path d="M18.6400 45.6800
L18.5900 45.6800
" />
<path d="M18.7000 24.7300
L18.7500 24.7400
" />
<path d="M18.7000 26.9200
L18.6400 26.9300
" />
<path d="M18.7000 43.4800
L18.7500 43.4900
" />
<path d="M18.7000 45.6700
L18.6400 45.6800
" />
<path d="M18.7500 24.7400
L18.8100 24.7500
" />
<path d="M18.7500 26.9100
L18.7000 26.9200
" />
<path d="M18.7500 43.4900
L18.8100 43.5000
" />
<path d="M18.7500 45.6600
L18.7000 45.6700
" />
<path d="M18.8100 24.7500
L18.8600 24.7600
" />
<path d="M18.8100 26.9100
L18.7500 26.9100
" />
<path d="M18.8100 43.5000
L18.8600 43.5100
" />
<path d="M18.8100 45.6500
L18.7500 45.6600
" />
<path d="M18.8600 24.7600
L18.9100 24.7800
" />
<path d="M18.8600 26.8900
L18.8100 26.9100
" />
<path d="M18.8600 43.5100
L18.9100 43.5300
" />
<path d="M18.8600 45.6400
L18.8100 45.6500
" />
<path d="M18.9100 24.7800
L18.9700 24.7900
" />
<path d="M18.9100 26.8800
L18.8600 26.8900
" />
<path d="M18.9100 43.5300
L18.9700 43.5400
" />
<path d="M18.9100 45.6300
L18.8600 45.6400
" />
<path d="M18.9700 24.7900
L19.0200 24.8100
" />
<path d="M18.9700 26.8600
L18.9100 26.8800
" />
<path d="M18.9700 43.5400
L19.0200 43.5600
" />
<path d="M18.9700 45.6100
L18.9100 45.6300
" />
<path d="M19.0200 24.8100
L19.0600 24.8400
" />
<path d="M19.0200 26.8400
L18.9700 26.8600
" />
<path d="M19.0200 43.5600
L19.0600 43.5900
" />
<path d="M19.0200 45.5900
L18.9700 45.6100
" />
<path d="M19.0600 24.8400
L19.1100 24.8600
" />
<path d="M19.0600 26.8200
L19.0200 26.8400
" />
<path d="M19.0600 43.5900
L19.1100 43.6100
" />
<path d="M19.0600 45.5700
L19.0200 45.5900
" />
<path d="M19.1100 24.8600
L19.1600 24.8900
" />
<path d="M19.1100 26.7900
L19.0600 26.8200
" />
<path d="M19.1100 43.6100
L19.1600 43.6400
" />
<path d="M19.1100 45.5400
L19.0600 45.5700
" />
<path d="M19.1600 24.8900
L19.2000 24.9200
" />
<path d="M19.1600 26.7700
L19.1100 26.7900
" />
<path d="M19.1600 43.6400
L19.2000 43.6700
" />
<path d="M19.1600 45.5200
L19.1100 45.5400
" />
<path d="M19.2000 24.9200
L19.2500 24.9500
" />
<path d="M19.2000 26.7400
L19.1600 26.7700
" />
<path d="M19.2000 43.6700
L19.2500 43.7000
" />
<path d="M19.2000 45.4900
L19.1600 45.5200
" />
<path d="M19.2500 24.9500
L19.2900 24.9800
" />
<path d="M19.2500 26.7100
L19.2000 26.7400
" />
<path d="M19.2500 43.7000
L19.2900 43.7300
" />
<path d="M19.2500 45.4600
L19.2000 45.4900
" />
<path d="M19.2900 24.9800
L19.3300 25.0100
" />
<path d="M19.2900 26.6800
L19.2500 26.7100
" />
<path d="M19.2900 43.7300
L19.3300 43.7600
" />
<path d="M19.2900 45.4300
L19.2500 45.4600
" />
<path d="M19.3300 25.0100
L19.3700 25.0500
" />
<path d="M19.3300 26.6400
L19.2900 26.6800
" />
<path d="M19.3300 43.7600
L19.3700 43.8000
" />
<path d="M19.3300 45.3900
L19.2900 45.4300
" />
<path d="M19.3700 25.0500
L19.4000 25.0900
" />
<path d="M19.3700 26.6100
L19.3300 26.6400
" />
<path d="M19.3700 43.8000
L19.4000 43.8400
" />
<path d="M19.3700 45.3600
L19.3300 45.3900
" />
<path d="M19.4000 25.0900
L19.4400 25.1300
" />
<path d="M19.4000 26.5700
L19.3700 26.6100
" />
<path d="M19.4000 43.8400
L19.4400 43.8800
" />
<path d="M19.4000 45.3200
L19.3700 45.3600
" />
<path d="M19.4400 25.1300
L19.4700 25.1700
" />
<path d="M19.4400 26.5300
L19.4000 26.5700
" />
<path d="M19.4400 43.8800
L19.4700 43.9200
" />
<path d="M19.4400 45.2800
L19.4000 45.3200
" />
<path d="M19.4700 25.1700
L19.5000 25.2100
" />
<path d="M19.4700 26.4900
L19.4400 26.5300
" />
<path d="M19.4700 43.9200
L19.5000 43.9600
" />
<path d="M19.4700 45.2400
L19.4400 45.2800
" />
<path d="M19.5000 25.2100
L19.5300 25.2600
" />
<path d="M19.5000 26.4400
L19.4700 26.4900
" />
<path d="M19.5000 43.9600
L19.5300 44.0100
" />
<path d="M19.5000 45.1900
L19.4700 45.2400
" />
<path d="M19.5300 25.2600
L19.5500 25.3000
" />
<path d="M19.5300 26.4000
L19.5000 26.4400
" />
<path d="M19.5300 44.0100
L19.5500 44.0500
" />
<path d="M19.5300 45.1500
L19.5000 45.1900
" />
<path d="M19.5500 25.3000
L19.5800 25.3500
" />
<path d="M19.5500 26.3500
L19.5300 26.4000
" />
<path d="M19.5500 44.0500
L19.5800 44.1000
" />
<path d="M19.5500 45.1000
L19.5300 45.1500
" />
<path d="M19.5800 25.3500
L19.6000 25.4000
" />
<path d="M19.5800 26.3000
L19.5500 26.3500
" />
<path d="M19.5800 44.1000
L19.6000 44.1500
" />
<path d="M19.5800 45.0500
L19.5500 45.1000
" />
<path d="M19.6000 25.4000
L19.6200 25.4500
" />
<path d="M19.6000 26.2600
L19.5800 26.3000
" />
<path d="M19.6000 44.1500
L19.6200 44.2000
" />
<path d="M19.6000 45.0100
L19.5800 45.0500
" />
<path d="M19.6200 25.4500
L19.6400 25.5000
" />
<path d="M19.6200 26.2100
L19.6000 26.2600
" />
<path d="M19.6200 44.2000
L19.6400 44.2500
" />
<path d="M19.6200 44.9600
L19.6000 45.0100
" />
<path d="M19.6400 25.5000
L19.6500 25.5500
" />
<path d="M19.6400 26.1500
L19.6200 26.2100
" />
<path d="M19.6400 44.2500
L19.6500 44.3000
" />
<path d="M19.6400 44.9000
L19.6200 44.9600
" />
<path d="M19.6500 25.5500
L19.6600 25.6100
" />
<path d="M19.6500 26.1000
L19.6400 26.1500
" />
<path d="M19.6500 44.3000
L19.6600 44.3600
" />
<path d="M19.6500 44.8500
L19.6400 44.9000
" />
<path d="M19.6600 25.6100
L19.6700 25.6600
" />
<path d="M19.6600 26.0500
L19.6500 26.1000
" />
<path d="M19.6600 44.3600
L19.6700 44.4100
" />
<path d="M19.6600 44.8000
L19.6500 44.8500
" />
<path d="M19.6700 25.6600
L19.6800 25.7100
" />
<path d="M19.6700 25.9900
L19.6600 26.0500
" />
<path d="M19.6700 44.4100
L19.6800 44.4600
" />
<path d="M19.6700 44.7400
L19.6600 44.8000
" />
<path d="M19.6800 25.7100
L19.6900 25.7700
" />
<path d="M19.6800 25.9400
L19.6700 25.9900
" />
<path d="M19.6800 44.4600
L19.6900 44.5200
" />
<path d="M19.6800 44.6900
L19.6700 44.7400
" />
<path d="M19.6900 25.7700
L19.6900 25.8300
" />
<path d="M19.6900 25.8800
L19.6800 25.9400
" />
<path d="M19.6900 44.5200
L19.6900 44.5800
" />
<path d="M19.6900 44.6300
L19.6800 44.6900
" />
<path d="M19.6900 25.8300
L19.6900 25.8800
" />
<path d="M19.6900 44.5800
L19.6900 44.6300
" />
<path d="M21.1700 23.2100
L21.1700 9.3100
" />
<path d="M21.1700 42.2100
L21.1700 28.3100
" />
<path d="M21.1700 61.2100
L21.1700 47.3100
" />
<path d="M21.1700 9.3100
L35.0700 9.3100
" />
<path d="M21.1700 28.3100
L35.0700 28.3100
" />
<path d="M21.1700 47.3100
L35.0700 47.3100
" />
</g>
<g style="fill:none; 
stroke:#000000; stroke-width:0.2000; stroke-opacity:1; 
stroke-linecap:round; stroke-linejoin:round;">
<path d="M33.4700 63.3500
L11.4800 63.3500
" />
</g>
<g style="fill:none; 
stroke:#000000; stroke-width:0.2646; stroke-opacity:1; 
stroke-linecap:round; stroke-linejoin:round;">
<path d="M35.0700 23.2100
L21.1700 23.2100
" />
<path d="M35.0700 42.2100
L21.1700 42.2100
" />
<path d="M35.0700 61.2100
L21.1700 61.2100
" />
<path d="M35.0700 9.3100
L35.0700 23.2100
" />
<path d="M35.0700 28.3100
L35.0700 42.2100
" />
<path d="M35.0700 47.3100
L35.0700 61.2100
" />
</g>
<g style="fill:none; 
stroke:#000000; stroke-width:0.2000; stroke-opacity:1; 
stroke-linecap:round; stroke-linejoin:round;">
<path d="M37.0600 63.3500
L33.4700 63.3500
" />
<path d="M37.4100,63.4900 C37.3200,63.4000 37.1900,63.3500 37.0600,63.3500" />
<path d="M37.4100 63.4900
L47.6000 77.8100
" />
<path d="M37.6000 7.1000
L0.6000 7.1000
" />
<path d="M37.6000,7.1000 C37.8800,7.1000 38.1000,6.8700 38.1000,6.6000" />
<path d="M38.1000 2.8500
L38.1000 6.6000
" />
<path d="M38.6000,2.3500 C38.3200,2.3500 38.1000,2.5700 38.1000,2.8500" />
<path d="M38.6000 2.3500
L49.5700 2.3500
" />
</g>
<g style="fill:none; 
stroke:#000000; stroke-width:0.2646; stroke-opacity:1; 
stroke-linecap:round; stroke-linejoin:round;">
<path d="M40.1700 18.4600
L40.1700 4.5600
" />
<path d="M40.1700 37.4600
L40.1700 23.5600
" />
<path d="M40.1700 56.4600
L40.1700 42.5600
" />
<path d="M40.1700 4.5600
L54.0700 4.5600
" />
<path d="M40.1700 23.5600
L54.0700 23.5600
" />
<path d="M40.1700 42.5600
L54.0700 42.5600
" />
<path d="M41.4900 63.5200
L41.4900 63.4700
" />
<path d="M41.4900 63.4700
L41.5000 63.4100
" />
<path d="M41.4900 63.5800
L41.4900 63.5200
" />
<path d="M41.5000 63.4100
L41.5100 63.3600
" />
<path d="M41.5000 63.6400
L41.4900 63.5800
" />
<path d="M41.5100 63.3600
L41.5200 63.3000
" />
<path d="M41.5100 63.6900
L41.5000 63.6400
" />
<path d="M41.5200 63.3000
L41.5300 63.2500
" />
<path d="M41.5200 63.7500
L41.5100 63.6900
" />
<path d="M41.5300 63.2500
L41.5400 63.2000
" />
<path d="M41.5300 63.8000
L41.5200 63.7500
" />
<path d="M41.5400 63.2000
L41.5600 63.1500
" />
<path d="M41.5400 63.8500
L41.5300 63.8000
" />
<path d="M41.5600 63.1500
L41.5800 63.1000
" />
<path d="M41.5600 63.9000
L41.5400 63.8500
" />
<path d="M41.5800 63.1000
L41.6000 63.0500
" />
<path d="M41.5800 63.9500
L41.5600 63.9000
" />
<path d="M41.6000 63.0500
L41.6300 63.0000
" />
<path d="M41.6000 64.0000
L41.5800 63.9500
" />
<path d="M41.6300 63.0000
L41.6500 62.9500
" />
<path d="M41.6300 64.0500
L41.6000 64.0000
" />
<path d="M41.6500 62.9500
L41.6800 62.9100
" />
<path d="M41.6500 64.0900
L41.6300 64.0500
" />
<path d="M41.6800 62.9100
L41.7100 62.8700
" />
<path d="M41.6800 64.1400
L41.6500 64.0900
" />
<path d="M41.7100 62.8700
L41.7400 62.8200
" />
<path d="M41.7100 64.1800
L41.6800 64.1400
" />
<path d="M41.7400 62.8200
L41.7800 62.7800
" />
<path d="M41.7400 64.2200
L41.7100 64.1800
" />
<path d="M41.7800 62.7800
L41.8200 62.7500
" />
<path d="M41.7800 64.2600
L41.7400 64.2200
" />
<path d="M41.8200 62.7500
L41.8500 62.7100
" />
<path d="M41.8200 64.3000
L41.7800 64.2600
" />
<path d="M41.8500 62.7100
L41.8900 62.6800
" />
<path d="M41.8500 64.3400
L41.8200 64.3000
" />
<path d="M41.8900 62.6800
L41.9400 62.6400
" />
<path d="M41.8900 64.3700
L41.8500 64.3400
" />
<path d="M41.9400 62.6400
L41.9800 62.6100
" />
<path d="M41.9400 64.4100
L41.8900 64.3700
" />
<path d="M41.9800 62.6100
L42.0200 62.5800
" />
<path d="M41.9800 64.4400
L41.9400 64.4100
" />
<path d="M42.0200 62.5800
L42.0700 62.5600
" />
<path d="M42.0200 64.4600
L41.9800 64.4400
" />
<path d="M42.0700 62.5600
L42.1200 62.5300
" />
<path d="M42.0700 64.4900
L42.0200 64.4600
" />
<path d="M42.1200 62.5300
L42.1700 62.5100
" />
<path d="M42.1200 64.5200
L42.0700 64.4900
" />
<path d="M42.1700 62.5100
L42.2200 62.4900
" />
<path d="M42.1700 64.5400
L42.1200 64.5200
" />
<path d="M42.2200 62.4900
L42.2700 62.4700
" />
<path d="M42.2200 64.5600
L42.1700 64.5400
" />
<path d="M42.2700 62.4700
L42.3200 62.4600
" />
<path d="M42.2700 64.5700
L42.2200 64.5600
" />
<path d="M42.3200 62.4600
L42.3700 62.4500
" />
<path d="M42.3200 64.5900
L42.2700 64.5700
" />
<path d="M42.3700 62.4500
L42.4300 62.4400
" />
<path d="M42.3700 64.6000
L42.3200 64.5900
" />
<path d="M42.4300 62.4400
L42.4800 62.4300
" />
<path d="M42.4300 64.6100
L42.3700 64.6000
" />
<path d="M42.4800 62.4300
L42.5400 62.4300
" />
<path d="M42.4800 64.6200
L42.4300 64.6100
" />
<path d="M42.5400 62.4300
L42.5900 62.4200
" />
<path d="M42.5400 64.6200
L42.4800 64.6200
" />
<path d="M42.5900 62.4200
L42.6500 62.4300
" />
<path d="M42.5900 64.6200
L42.5400 64.6200
" />
<path d="M42.6500 62.4300
L42.7100 62.4300
" />
<path d="M42.6500 64.6200
L42.5900 64.6200
" />
<path d="M42.7100 62.4300
L42.7600 62.4400
" />
<path d="M42.7100 64.6200
L42.6500 64.6200
" />
<path d="M42.7600 62.4400
L42.8200 62.4500
" />
<path d="M42.7600 64.6100
L42.7100 64.6200
" />
<path d="M42.8200 62.4500
L42.8700 62.4600
" />
<path d="M42.8200 64.6000
L42.7600 64.6100
" />
<path d="M42.8700 62.4600
L42.9200 62.4700
" />
<path d="M42.8700 64.5900
L42.8200 64.6000
" />
<path d="M42.9200 62.4700
L42.9700 62.4900
" />
<path d="M42.9200 64.5700
L42.8700 64.5900
" />
<path d="M42.9700 62.4900
L43.0200 62.5100
" />
<path d="M42.9700 64.5600
L42.9200 64.5700
" />
<path d="M43.0200 62.5100
L43.0700 62.5300
" />
<path d="M43.0200 64.5400
L42.9700 64.5600
" />
<path d="M43.0700 62.5300
L43.1200 62.5600
" />
<path d="M43.0700 64.5200
L43.0200 64.5400
" />
<path d="M43.1200 62.5600
L43.1600 62.5800
" />
<path d="M43.1200 64.4900
L43.0700 64.5200
" />
<path d="M43.1600 62.5800
L43.2100 62.6100
" />
<path d="M43.1600 64.4600
L43.1200 64.4900
" />
<path d="M43.2100 62.6100
L43.2500 62.6400
" />
<path d="M43.2100 64.4400
L43.1600 64.4600
" />
<path d="M43.2500 62.6400
L43.2900 62.6800
" />
<path d="M43.2500 64.4100
L43.2100 64.4400
" />
<path d="M43.2900 62.6800
L43.3300 62.7100
" />
<path d="M43.2900 64.3700
L43.2500 64.4100
" />
<path d="M43.3300 62.7100
L43.3700 62.7500
" />
<path d="M43.3300 64.3400
L43.2900 64.3700
" />
<path d="M43.3700 62.7500
L43.4100 62.7800
" />
<path d="M43.3700 64.3000
L43.3300 64.3400
" />
<path d="M43.4100 62.7800
L43.4400 62.8200
" />
<path d="M43.4100 64.2600
L43.3700 64.3000
" />
<path d="M43.4400 62.8200
L43.4700 62.8700
" />
<path d="M43.4400 64.2200
L43.4100 64.2600
" />
<path d="M43.4700 62.8700
L43.5100 62.9100
" />
<path d="M43.4700 64.1800
L43.4400 64.2200
" />
<path d="M43.5100 62.9100
L43.5300 62.9500
" />
<path d="M43.5100 64.1400
L43.4700 64.1800
" />
<path d="M43.5300 62.9500
L43.5600 63.0000
" />
<path d="M43.5300 64.0900
L43.5100 64.1400
" />
<path d="M43.5600 63.0000
L43.5800 63.0500
" />
<path d="M43.5600 64.0500
L43.5300 64.0900
" />
<path d="M43.5800 63.0500
L43.6100 63.1000
" />
<path d="M43.5800 64.0000
L43.5600 64.0500
" />
<path d="M43.6100 63.1000
L43.6300 63.1500
" />
<path d="M43.6100 63.9500
L43.5800 64.0000
" />
<path d="M43.6300 63.1500
L43.6400 63.2000
" />
<path d="M43.6300 63.9000
L43.6100 63.9500
" />
<path d="M43.6400 63.2000
L43.6600 63.2500
" />
<path d="M43.6400 63.8500
L43.6300 63.9000
" />
<path d="M43.6600 63.2500
L43.6700 63.3000
" />
<path d="M43.6600 63.8000
L43.6400 63.8500
" />
<path d="M43.6700 63.3000
L43.6800 63.3600
" />
<path d="M43.6700 63.7500
L43.6600 63.8000
" />
<path d="M43.6800 63.3600
L43.6900 63.4100
" />
<path d="M43.6800 63.6900
L43.6700 63.7500
" />
<path d="M43.6900 63.4100
L43.6900 63.4700
" />
<path d="M43.6900 63.6400
L43.6800 63.6900
" />
<path d="M43.6900 63.4700
L43.6900 63.5200
" />
<path d="M43.6900 63.5800
L43.6900 63.6400
" />
<path d="M43.6900 63.5200
L43.6900 63.5800
" />
</g>
<g style="fill:none; 
stroke:#000000; stroke-width:0.2000; stroke-opacity:1; 
stroke-linecap:round; stroke-linejoin:round;">
<path d="M47.6000,77.8100 C47.7000,77.9000 47.8200,77.9500 47.9600,77.9500" />
<path d="M47.9600 77.9500
L54.0200 77.9500
" />
</g>
<g style="fill:none; 
stroke:#000000; stroke-width:0.2646; stroke-opacity:1; 
stroke-linecap:round; stroke-linejoin:round;">
<path d="M49.1700 75.8800
L49.1700 61.9800
" />
<path d="M49.1700 61.9800
L63.0700 61.9800
" />
</g>
<g style="fill:none; 
stroke:#000000; stroke-width:0.2000; stroke-opacity:1; 
stroke-linecap:round; stroke-linejoin:round;">
<path d="M54.0200 77.9500
L66.5000 77.9500
" />
</g>
<g style="fill:none; 
stroke:#000000; stroke-width:0.2646; stroke-opacity:1; 
stroke-linecap:round; stroke-linejoin:round;">
<path d="M54.0700 18.4600
L40.1700 18.4600
" />
<path d="M54.0700 37.4600
L40.1700 37.4600
" />
<path d="M54.0700 56.4600
L40.1700 56.4600
" />
<path d="M54.0700 4.5600
L54.0700 18.4600
" />
<path d="M54.0700 23.5600
L54.0700 37.4600
" />
<path d="M54.0700 42.5600
L54.0700 56.4600
" />
</g>
<g style="fill:none; 
stroke:#000000; stroke-width:0.2000; stroke-opacity:1; 
stroke-linecap:round; stroke-linejoin:round;">
<path d="M56.6000 2.3500
L49.5700 2.3500
" />
<path d="M56.6000,2.3500 C56.8800,2.3500 57.1000,2.1200 57.1000,1.8500" />
<path d="M57.1000 0.6000
L57.1000 1.8500
" />
<path d="M57.6000,0.1000 C57.3200,0.1000 57.1000,0.3200 57.1000,0.6000" />
</g>
<g style="fill:none; 
stroke:#000000; stroke-width:0.2646; stroke-opacity:1; 
stroke-linecap:round; stroke-linejoin:round;">
<path d="M59.1700 16.0800
L59.1700 2.1800
" />
<path d="M59.1700 35.0800
L59.1700 21.1800
" />
<path d="M59.1700 54.0800
L59.1700 40.1800
" />
<path d="M59.1700 2.1800
L73.0700 2.1800
" />
<path d="M59.1700 21.1800
L73.0700 21.1800
" />
<path d="M59.1700 40.1800
L73.0700 40.1800
" />
<path d="M63.0700 75.8800
L49.1700 75.8800
" />
<path d="M63.0700 61.9800
L63.0700 75.8800
" />
</g>
<g style="fill:none; 
stroke:#000000; stroke-width:0.2000; stroke-opacity:1; 
stroke-linecap:round; stroke-linejoin:round;">
<path d="M66.5000 77.9500
L103.5200 82.8700
" />
</g>
<g style="fill:none; 
stroke:#000000; stroke-width:0.2646; stroke-opacity:1; 
stroke-linecap:round; stroke-linejoin:round;">
<path d="M68.6900 76.1200
L68.6900 62.2200
" />
<path d="M68.6900 62.2200
L82.5900 62.2200
" />
<path d="M73.0700 16.0800
L59.1700 16.0800
" />
<path d="M73.0700 35.0800
L59.1700 35.0800
" />
<path d="M73.0700 54.0800
L59.1700 54.0800
" />
<path d="M73.0700 2.1800
L73.0700 16.0800
" />
<path d="M73.0700 21.1800
L73.0700 35.0800
" />
<path d="M73.0700 40.1800
L73.0700 54.0800
" />
</g>
<g style="fill:none; 
stroke:#000000; stroke-width:0.2000; stroke-opacity:1; 
stroke-linecap:round; stroke-linejoin:round;">
<path d="M74.6000 0.1000
L57.6000 0.1000
" />
<path d="M75.1000 1.8500
L75.1000 0.6000
" />
<path d="M75.1000,0.6000 C75.1000,0.3200 74.8800,0.1000 74.6000,0.1000" />
<path d="M75.1000,1.8500 C75.1000,2.1200 75.3200,2.3500 75.6000,2.3500" />
<path d="M75.6000 2.3500
L87.4800 2.3500
" />
</g>
<g style="fill:none; 
stroke:#000000; stroke-width:0.2646; stroke-opacity:1; 
stroke-linecap:round; stroke-linejoin:round;">
<path d="M78.1700 18.4600
L78.1700 4.5600
" />
<path d="M78.1700 37.4600
L78.1700 23.5600
" />
<path d="M78.1700 56.4600
L78.1700 42.5600
" />
<path d="M78.1700 4.5600
L92.0700 4.5600
" />
<path d="M78.1700 23.5600
L92.0700 23.5600
" />
<path d="M78.1700 42.5600
L92.0700 42.5600
" />
<path d="M82.5900 76.1200
L68.6900 76.1200
" />
<path d="M82.5900 62.2200
L82.5900 76.1200
" />
<path d="M88.0300 76.8300
L91.6600 63.3000
" />
<path d="M91.6600 63.3000
L105.1800 66.9300
" />
<path d="M92.0700 18.4600
L78.1700 18.4600
" />
<path d="M92.0700 37.4600
L78.1700 37.4600
" />
<path d="M92.0700 56.4600
L78.1700 56.4600
" />
<path d="M92.0700 4.5600
L92.0700 18.4600
" />
<path d="M92.0700 23.5600
L92.0700 37.4600
" />
<path d="M92.0700 42.5600
L92.0700 56.4600
" />
<path d="M93.4900 21.3300
L93.4900 21.2700
" />
<path d="M93.4900 21.2700
L93.4900 21.2100
" />
<path d="M93.4900 21.3800
L93.4900 21.3300
" />
<path d="M93.4900 21.2100
L93.5000 21.1600
" />
<path d="M93.4900 21.4400
L93.4900 21.3800
" />
<path d="M93.5000 21.1600
L93.5100 21.1100
" />
<path d="M93.5000 21.5000
L93.4900 21.4400
" />
<path d="M93.5100 21.1100
L93.5200 21.0500
" />
<path d="M93.5100 21.5500
L93.5000 21.5000
" />
<path d="M93.5200 21.0500
L93.5400 21.0000
" />
<path d="M93.5200 21.6000
L93.5100 21.5500
" />
<path d="M93.5400 21.0000
L93.5500 20.9500
" />
<path d="M93.5400 21.6500
L93.5200 21.6000
" />
<path d="M93.5500 20.9500
L93.5700 20.9000
" />
<path d="M93.5500 21.7100
L93.5400 21.6500
" />
<path d="M93.5700 20.9000
L93.6000 20.8500
" />
<path d="M93.5700 21.7600
L93.5500 21.7100
" />
<path d="M93.6000 20.8500
L93.6200 20.8000
" />
<path d="M93.6000 21.8000
L93.5700 21.7600
" />
</g>
<g style="fill:none; 
stroke:#000000; stroke-width:0.2000; stroke-opacity:1; 
stroke-linecap:round; stroke-linejoin:round;">
<path d="M93.6000 2.3500
L87.4800 2.3500
" />
</g>
<g style="fill:none; 
stroke:#000000; stroke-width:0.2646; stroke-opacity:1; 
stroke-linecap:round; stroke-linejoin:round;">
<path d="M93.6200 20.8000
L93.6500 20.7600
" />
<path d="M93.6200 21.8500
L93.6000 21.8000
" />
<path d="M93.6500 20.7600
L93.6800 20.7100
" />
<path d="M93.6500 21.9000
L93.6200 21.8500
" />
<path d="M93.6800 20.7100
L93.7100 20.6700
" />
<path d="M93.6800 21.9400
L93.6500 21.9000
" />
<path d="M93.7100 20.6700
L93.7400 20.6300
" />
<path d="M93.7100 21.9900
L93.6800 21.9400
" />
<path d="M93.7400 20.6300
L93.7700 20.5900
" />
<path d="M93.7400 22.0300
L93.7100 21.9900
" />
<path d="M93.7700 20.5900
L93.8100 20.5500
" />
<path d="M93.7700 22.0700
L93.7400 22.0300
" />
<path d="M93.8100 20.5500
L93.8500 20.5100
" />
<path d="M93.8100 22.1100
L93.7700 22.0700
" />
<path d="M93.8500 20.5100
L93.8900 20.4800
" />
<path d="M93.8500 22.1400
L93.8100 22.1100
" />
<path d="M93.8900 20.4800
L93.9300 20.4500
" />
<path d="M93.8900 22.1800
L93.8500 22.1400
" />
<path d="M93.9300 20.4500
L93.9700 20.4200
" />
<path d="M93.9300 22.2100
L93.8900 22.1800
" />
<path d="M93.9700 20.4200
L94.0200 20.3900
" />
<path d="M93.9700 22.2400
L93.9300 22.2100
" />
<path d="M94.0200 20.3900
L94.0600 20.3600
" />
<path d="M94.0200 22.2700
L93.9700 22.2400
" />
<path d="M94.0600 20.3600
L94.1100 20.3400
" />
<path d="M94.0600 22.2900
L94.0200 22.2700
" />
</g>
<g style="fill:none; 
stroke:#000000; stroke-width:0.2000; stroke-opacity:1; 
stroke-linecap:round; stroke-linejoin:round;">
<path d="M94.1000 4.3500
L94.1000 2.8500
" />
<path d="M94.1000,2.8500 C94.1000,2.5700 93.8800,2.3500 93.6000,2.3500" />
<path d="M94.1000,4.3500 C94.1000,4.6200 94.3200,4.8500 94.6000,4.8500" />
</g>
<g style="fill:none; 
stroke:#000000; stroke-width:0.2646; stroke-opacity:1; 
stroke-linecap:round; stroke-linejoin:round;">
<path d="M94.1100 20.3400
L94.1600 20.3100
" />
<path d="M94.1100 22.3200
L94.0600 22.2900
" />
<path d="M94.1600 20.3100
L94.2100 20.2900
" />
<path d="M94.1600 22.3400
L94.1100 22.3200
" />
<path d="M94.2100 20.2900
L94.2600 20.2800
" />
<path d="M94.2100 22.3600
L94.1600 22.3400
" />
<path d="M94.2600 20.2800
L94.3100 20.2600
" />
<path d="M94.2600 22.3800
L94.2100 22.3600
" />
<path d="M94.3100 20.2600
L94.3700 20.2500
" />
<path d="M94.3100 22.3900
L94.2600 22.3800
" />
<path d="M94.3700 20.2500
L94.4200 20.2400
" />
<path d="M94.3700 22.4100
L94.3100 22.3900
" />
<path d="M94.4200 20.2400
L94.4700 20.2300
" />
<path d="M94.4200 22.4100
L94.3700 22.4100
" />
<path d="M94.4700 20.2300
L94.5300 20.2300
" />
<path d="M94.4700 22.4200
L94.4200 22.4100
" />
<path d="M94.5300 20.2300
L94.5900 20.2300
" />
<path d="M94.5300 22.4300
L94.4700 22.4200
" />
<path d="M94.5900 20.2300
L94.6400 20.2300
" />
<path d="M94.5900 22.4300
L94.5300 22.4300
" />
<path d="M94.6400 20.2300
L94.7000 20.2300
" />
<path d="M94.6400 22.4300
L94.5900 22.4300
" />
<path d="M94.7000 20.2300
L94.7500 20.2400
" />
<path d="M94.7000 22.4200
L94.6400 22.4300
" />
<path d="M94.7500 20.2400
L94.8100 20.2500
" />
<path d="M94.7500 22.4100
L94.7000 22.4200
" />
<path d="M94.8100 20.2500
L94.8600 20.2600
" />
<path d="M94.8100 22.4100
L94.7500 22.4100
" />
<path d="M94.8600 20.2600
L94.9100 20.2800
" />
<path d="M94.8600 22.3900
L94.8100 22.4100
" />
<path d="M94.9100 20.2800
L94.9700 20.2900
" />
<path d="M94.9100 22.3800
L94.8600 22.3900
" />
<path d="M94.9700 20.2900
L95.0200 20.3100
" />
<path d="M94.9700 22.3600
L94.9100 22.3800
" />
<path d="M95.0200 20.3100
L95.0600 20.3400
" />
<path d="M95.0200 22.3400
L94.9700 22.3600
" />
<path d="M95.0600 20.3400
L95.1100 20.3600
" />
<path d="M95.0600 22.3200
L95.0200 22.3400
" />
<path d="M95.1100 20.3600
L95.1600 20.3900
" />
<path d="M95.1100 22.2900
L95.0600 22.3200
" />
<path d="M95.1600 20.3900
L95.2000 20.4200
" />
<path d="M95.1600 22.2700
L95.1100 22.2900
" />
<path d="M95.2000 20.4200
L95.2500 20.4500
" />
<path d="M95.2000 22.2400
L95.1600 22.2700
" />
<path d="M95.2500 20.4500
L95.2900 20.4800
" />
<path d="M95.2500 22.2100
L95.2000 22.2400
" />
<path d="M95.2900 20.4800
L95.3300 20.5100
" />
<path d="M95.2900 22.1800
L95.2500 22.2100
" />
<path d="M95.3300 20.5100
L95.3700 20.5500
" />
<path d="M95.3300 22.1400
L95.2900 22.1800
" />
<path d="M95.3700 20.5500
L95.4000 20.5900
" />
<path d="M95.3700 22.1100
L95.3300 22.1400
" />
<path d="M95.4000 20.5900
L95.4400 20.6300
" />
<path d="M95.4000 22.0700
L95.3700 22.1100
" />
<path d="M95.4400 20.6300
L95.4700 20.6700
" />
<path d="M95.4400 22.0300
L95.4000 22.0700
" />
<path d="M95.4700 20.6700
L95.5000 20.7100
" />
<path d="M95.4700 21.9900
L95.4400 22.0300
" />
<path d="M95.5000 20.7100
L95.5300 20.7600
" />
<path d="M95.5000 21.9400
L95.4700 21.9900
" />
<path d="M95.5300 20.7600
L95.5500 20.8000
" />
<path d="M95.5300 21.9000
L95.5000 21.9400
" />
<path d="M95.5500 20.8000
L95.5800 20.8500
" />
<path d="M95.5500 21.8500
L95.5300 21.9000
" />
<path d="M95.5800 20.8500
L95.6000 20.9000
" />
<path d="M95.5800 21.8000
L95.5500 21.8500
" />
<path d="M95.6000 20.9000
L95.6200 20.9500
" />
<path d="M95.6000 21.7600
L95.5800 21.8000
" />
<path d="M95.6200 20.9500
L95.6400 21.0000
" />
<path d="M95.6200 21.7100
L95.6000 21.7600
" />
<path d="M95.6400 21.0000
L95.6500 21.0500
" />
<path d="M95.6400 21.6500
L95.6200 21.7100
" />
<path d="M95.6500 21.0500
L95.6600 21.1100
" />
<path d="M95.6500 21.6000
L95.6400 21.6500
" />
<path d="M95.6600 21.1100
L95.6700 21.1600
" />
<path d="M95.6600 21.5500
L95.6500 21.6000
" />
<path d="M95.6700 21.1600
L95.6800 21.2100
" />
<path d="M95.6700 21.5000
L95.6600 21.5500
" />
<path d="M95.6800 21.2100
L95.6900 21.2700
" />
<path d="M95.6800 21.4400
L95.6700 21.5000
" />
<path d="M95.6900 21.2700
L95.6900 21.3300
" />
<path d="M95.6900 21.3800
L95.6800 21.4400
" />
<path d="M95.6900 21.3300
L95.6900 21.3800
" />
<path d="M97.1800 20.8400
L97.1800 6.9400
" />
<path d="M97.1800 39.8400
L97.1800 25.9400
" />
<path d="M97.1800 58.8400
L97.1800 44.9400
" />
<path d="M97.1800 6.9400
L111.0800 6.9400
" />
<path d="M97.1800 25.9400
L111.0800 25.9400
" />
<path d="M97.1800 44.9400
L111.0800 44.9400
" />
<path d="M101.5500 80.4500
L88.0300 76.8300
" />
</g>
<g style="fill:none; 
stroke:#000000; stroke-width:0.2000; stroke-opacity:1; 
stroke-linecap:round; stroke-linejoin:round;">
<path d="M104.1800,83.0000 C103.9600,82.9300 103.7400,82.8900 103.5200,82.8700" />
<path d="M104.1800 83.0000
L118.4700 91.2600
" />
</g>
<g style="fill:none; 
stroke:#000000; stroke-width:0.2646; stroke-opacity:1; 
stroke-linecap:round; stroke-linejoin:round;">
<path d="M105.1800 66.9300
L101.5500 80.4500
" />
<path d="M107.2400 69.8300
L107.2400 69.7700
" />
<path d="M107.2400 69.7700
L107.2400 69.7100
" />
<path d="M107.2400 69.8800
L107.2400 69.8300
" />
<path d="M107.2400 69.7100
L107.2500 69.6600
" />
<path d="M107.2400 69.9400
L107.2400 69.8800
" />
<path d="M107.2500 69.6600
L107.2600 69.6100
" />
<path d="M107.2500 69.9900
L107.2400 69.9400
" />
<path d="M107.2600 69.6100
L107.2700 69.5500
" />
<path d="M107.2600 70.0500
L107.2500 69.9900
" />
<path d="M107.2700 69.5500
L107.2900 69.5000
" />
<path d="M107.2700 70.1000
L107.2600 70.0500
" />
<path d="M107.2900 69.5000
L107.3000 69.4500
" />
<path d="M107.2900 70.1500
L107.2700 70.1000
" />
<path d="M107.3000 69.4500
L107.3200 69.4000
" />
<path d="M107.3000 70.2100
L107.2900 70.1500
" />
<path d="M107.3200 69.4000
L107.3500 69.3500
" />
<path d="M107.3200 70.2600
L107.3000 70.2100
" />
<path d="M107.3500 69.3500
L107.3700 69.3000
" />
<path d="M107.3500 70.3000
L107.3200 70.2600
" />
<path d="M107.3700 69.3000
L107.4000 69.2600
" />
<path d="M107.3700 70.3500
L107.3500 70.3000
" />
<path d="M107.4000 69.2600
L107.4300 69.2100
" />
<path d="M107.4000 70.4000
L107.3700 70.3500
" />
<path d="M107.4300 69.2100
L107.4600 69.1700
" />
<path d="M107.4300 70.4400
L107.4000 70.4000
" />
<path d="M107.4600 69.1700
L107.4900 69.1300
" />
<path d="M107.4600 70.4900
L107.4300 70.4400
" />
<path d="M107.4900 69.1300
L107.5200 69.0900
" />
<path d="M107.4900 70.5300
L107.4600 70.4900
" />
<path d="M107.5200 69.0900
L107.5600 69.0500
" />
<path d="M107.5200 70.5700
L107.4900 70.5300
" />
<path d="M107.5600 69.0500
L107.6000 69.0100
" />
<path d="M107.5600 70.6100
L107.5200 70.5700
" />
<path d="M107.6000 69.0100
L107.6400 68.9800
" />
<path d="M107.6000 70.6400
L107.5600 70.6100
" />
<path d="M107.6400 68.9800
L107.6800 68.9500
" />
<path d="M107.6400 70.6800
L107.6000 70.6400
" />
<path d="M107.6800 68.9500
L107.7200 68.9200
" />
<path d="M107.6800 70.7100
L107.6400 70.6800
" />
<path d="M107.7200 68.9200
L107.7700 68.8900
" />
<path d="M107.7200 70.7400
L107.6800 70.7100
" />
<path d="M107.7700 68.8900
L107.8100 68.8600
" />
<path d="M107.7700 70.7700
L107.7200 70.7400
" />
<path d="M107.8100 68.8600
L107.8600 68.8400
" />
<path d="M107.8100 70.7900
L107.7700 70.7700
" />
<path d="M107.8600 68.8400
L107.9100 68.8100
" />
<path d="M107.8600 70.8200
L107.8100 70.7900
" />
<path d="M107.9100 68.8100
L107.9600 68.7900
" />
<path d="M107.9100 70.8400
L107.8600 70.8200
" />
<path d="M107.9600 68.7900
L108.0100 68.7800
" />
<path d="M107.9600 70.8600
L107.9100 70.8400
" />
<path d="M108.0100 68.7800
L108.0600 68.7600
" />
<path d="M108.0100 70.8800
L107.9600 70.8600
" />
<path d="M108.0600 68.7600
L108.1200 68.7500
" />
<path d="M108.0600 70.8900
L108.0100 70.8800
" />
<path d="M108.1200 68.7500
L108.1700 68.7400
" />
<path d="M108.1200 70.9000
L108.0600 70.8900
" />
<path d="M108.1700 68.7400
L108.2200 68.7300
" />
<path d="M108.1700 70.9100
L108.1200 70.9000
" />
<path d="M108.2200 68.7300
L108.2800 68.7300
" />
<path d="M108.2200 70.9200
L108.1700 70.9100
" />
<path d="M108.2800 68.7300
L108.3400 68.7300
" />
<path d="M108.2800 70.9300
L108.2200 70.9200
" />
<path d="M108.3400 68.7300
L108.3900 68.7300
" />
<path d="M108.3400 70.9300
L108.2800 70.9300
" />
<path d="M108.3900 68.7300
L108.4500 68.7300
" />
<path d="M108.3900 70.9300
L108.3400 70.9300
" />
<path d="M108.4500 68.7300
L108.5000 68.7400
" />
<path d="M108.4500 70.9200
L108.3900 70.9300
" />
<path d="M108.5000 68.7400
L108.5600 68.7500
" />
<path d="M108.5000 70.9100
L108.4500 70.9200
" />
<path d="M108.5600 68.7500
L108.6100 68.7600
" />
<path d="M108.5600 70.9000
L108.5000 70.9100
" />
<path d="M108.6100 68.7600
L108.6600 68.7800
" />
<path d="M108.6100 70.8900
L108.5600 70.9000
" />
<path d="M108.6600 68.7800
L108.7200 68.7900
" />
<path d="M108.6600 70.8800
L108.6100 70.8900
" />
<path d="M108.7200 68.7900
L108.7700 68.8100
" />
<path d="M108.7200 70.8600
L108.6600 70.8800
" />
<path d="M108.7700 68.8100
L108.8100 68.8400
" />
<path d="M108.7700 70.8400
L108.7200 70.8600
" />
<path d="M108.8100 68.8400
L108.8600 68.8600
" />
<path d="M108.8100 70.8200
L108.7700 70.8400
" />
<path d="M108.8600 68.8600
L108.9100 68.8900
" />
<path d="M108.8600 70.7900
L108.8100 70.8200
" />
<path d="M108.9100 68.8900
L108.9500 68.9200
" />
<path d="M108.9100 70.7700
L108.8600 70.7900
" />
<path d="M108.9500 68.9200
L109.0000 68.9500
" />
<path d="M108.9500 70.7400
L108.9100 70.7700
" />
<path d="M109.0000 68.9500
L109.0400 68.9800
" />
<path d="M109.0000 70.7100
L108.9500 70.7400
" />
<path d="M109.0400 68.9800
L109.0800 69.0100
" />
<path d="M109.0400 70.6800
L109.0000 70.7100
" />
<path d="M109.0800 69.0100
L109.1200 69.0500
" />
<path d="M109.0800 70.6400
L109.0400 70.6800
" />
<path d="M109.1200 69.0500
L109.1500 69.0900
" />
<path d="M109.1200 70.6100
L109.0800 70.6400
" />
<path d="M109.1500 69.0900
L109.1900 69.1300
" />
<path d="M109.1500 70.5700
L109.1200 70.6100
" />
<path d="M109.1900 69.1300
L109.2200 69.1700
" />
<path d="M109.1900 70.5300
L109.1500 70.5700
" />
<path d="M109.2200 69.1700
L109.2500 69.2100
" />
<path d="M109.2200 70.4900
L109.1900 70.5300
" />
<path d="M109.2500 69.2100
L109.2800 69.2600
" />
<path d="M109.2500 70.4400
L109.2200 70.4900
" />
<path d="M109.2800 69.2600
L109.3000 69.3000
" />
<path d="M109.2800 70.4000
L109.2500 70.4400
" />
<path d="M109.3000 78.1800
L116.3000 66.0500
" />
<path d="M109.3000 69.3000
L109.3300 69.3500
" />
<path d="M109.3000 70.3500
L109.2800 70.4000
" />
<path d="M109.3300 69.3500
L109.3500 69.4000
" />
<path d="M109.3300 70.3000
L109.3000 70.3500
" />
<path d="M109.3500 69.4000
L109.3700 69.4500
" />
<path d="M109.3500 70.2600
L109.3300 70.3000
" />
<path d="M109.3700 69.4500
L109.3900 69.5000
" />
<path d="M109.3700 70.2100
L109.3500 70.2600
" />
<path d="M109.3900 69.5000
L109.4000 69.5500
" />
<path d="M109.3900 70.1500
L109.3700 70.2100
" />
<path d="M109.4000 69.5500
L109.4200 69.6100
" />
<path d="M109.4000 70.1000
L109.3900 70.1500
" />
<path d="M109.4200 69.6100
L109.4200 69.6600
" />
<path d="M109.4200 70.0500
L109.4000 70.1000
" />
<path d="M109.4200 69.6600
L109.4300 69.7100
" />
<path d="M109.4200 69.9900
L109.4200 70.0500
" />
<path d="M109.4300 69.7100
L109.4400 69.7700
" />
<path d="M109.4300 69.9400
L109.4200 69.9900
" />
<path d="M109.4400 69.7700
L109.4400 69.8300
" />
<path d="M109.4400 69.8800
L109.4300 69.9400
" />
<path d="M109.4400 69.8300
L109.4400 69.8800
" />
<path d="M111.0800 20.8400
L97.1800 20.8400
" />
<path d="M111.0800 39.8400
L97.1800 39.8400
" />
<path d="M111.0800 58.8400
L97.1800 58.8400
" />
<path d="M111.0800 6.9400
L111.0800 20.8400
" />
<path d="M111.0800 25.9400
L111.0800 39.8400
" />
<path d="M111.0800 44.9400
L111.0800 58.8400
" />
</g>
<g style="fill:none; 
stroke:#000000; stroke-width:0.2000; stroke-opacity:1; 
stroke-linecap:round; stroke-linejoin:round;">
<path d="M112.6000 4.8500
L94.6000 4.8500
" />
</g>
<g style="fill:none; 
stroke:#000000; stroke-width:0.2646; stroke-opacity:1; 
stroke-linecap:round; stroke-linejoin:round;">
<path d="M112.6100 4.8800
L94.6100 4.8800
" />
<path d="M112.6400 4.8900
L112.6100 4.8800
" />
<path d="M112.6600 4.8900
L112.6400 4.8900
" />
<path d="M112.6900 4.8900
L112.6600 4.8900
" />
<path d="M112.7100 4.9000
L112.6900 4.8900
" />
<path d="M112.7400 4.9000
L112.7100 4.9000
" />
<path d="M112.7600 4.9100
L112.7400 4.9000
" />
<path d="M112.7900 4.9200
L112.7600 4.9100
" />
<path d="M112.8100 4.9300
L112.7900 4.9200
" />
<path d="M112.8300 4.9400
L112.8100 4.9300
" />
<path d="M112.8500 4.9500
L112.8300 4.9400
" />
<path d="M112.8700 4.9600
L112.8500 4.9500
" />
<path d="M112.8900 4.9700
L112.8700 4.9600
" />
<path d="M112.9100 4.9900
L112.8900 4.9700
" />
<path d="M112.9300 5.0000
L112.9100 4.9900
" />
<path d="M112.9500 5.0200
L112.9300 5.0000
" />
<path d="M112.9700 5.0300
L112.9500 5.0200
" />
<path d="M112.9800 5.0500
L112.9700 5.0300
" />
<path d="M113.0000 5.0700
L112.9800 5.0500
" />
<path d="M113.0100 5.0900
L113.0000 5.0700
" />
<path d="M113.0300 5.1100
L113.0100 5.0900
" />
<path d="M113.0400 5.1300
L113.0300 5.1100
" />
<path d="M113.0500 5.1500
L113.0400 5.1300
" />
<path d="M113.0600 5.1700
L113.0500 5.1500
" />
<path d="M113.0700 5.1900
L113.0600 5.1700
" />
<path d="M113.0800 5.2200
L113.0700 5.1900
" />
<path d="M113.0900 5.2400
L113.0800 5.2200
" />
<path d="M113.0900 34.8800
L113.1100 55.9500
" />
</g>
<g style="fill:none; 
stroke:#000000; stroke-width:0.2000; stroke-opacity:1; 
stroke-linecap:round; stroke-linejoin:round;">
<path d="M113.1000 5.3500
L113.1000 6.6000
" />
</g>
<g style="fill:none; 
stroke:#000000; stroke-width:0.2646; stroke-opacity:1; 
stroke-linecap:round; stroke-linejoin:round;">
<path d="M113.1000 5.2600
L113.0900 5.2400
" />
</g>
<g style="fill:none; 
stroke:#000000; stroke-width:0.2000; stroke-opacity:1; 
stroke-linecap:round; stroke-linejoin:round;">
<path d="M113.1000,5.3500 C113.1000,5.0700 112.8800,4.8500 112.6000,4.8500" />
</g>
<g style="fill:none; 
stroke:#000000; stroke-width:0.2646; stroke-opacity:1; 
stroke-linecap:round; stroke-linejoin:round;">
<path d="M113.1000 5.2900
L113.1000 5.2600
" />
<path d="M113.1100 5.3100
L113.1000 5.2900
" />
<path d="M113.1100 5.3400
L113.1100 5.3100
" />
<path d="M113.1100 55.9500
L113.1100 56.0000
" />
<path d="M113.1100 5.3900
L113.0900 34.8800
" />
<path d="M113.1100 5.3600
L113.1100 5.3400
" />
<path d="M113.1100 5.3900
L113.1100 5.3600
" />
<path d="M113.1100 56.0000
L113.1200 56.0500
" />
<path d="M113.1200 56.0500
L113.1300 56.0900
" />
<path d="M113.1300 56.0900
L113.1400 56.1400
" />
<path d="M113.1400 56.1400
L113.1500 56.1900
" />
<path d="M113.1500 56.1900
L113.1700 56.2300
" />
<path d="M113.1700 56.2300
L113.1900 56.2800
" />
<path d="M113.1900 56.2800
L113.2100 56.3200
" />
<path d="M113.2100 56.3200
L113.2300 56.3600
" />
<path d="M113.2300 56.3600
L113.2600 56.4000
" />
<path d="M113.2600 56.4000
L113.2900 56.4400
" />
<path d="M113.2900 56.4400
L113.3200 56.4800
" />
<path d="M113.3200 56.4800
L113.3500 56.5200
" />
<path d="M113.3500 56.5200
L113.3900 56.5500
" />
<path d="M113.3900 56.5500
L113.4200 56.5800
" />
<path d="M113.4200 56.5800
L113.4600 56.6100
" />
<path d="M116.3000 66.0500
L128.4300 73.0500
" />
</g>
<g style="fill:none; 
stroke:#000000; stroke-width:0.2000; stroke-opacity:1; 
stroke-linecap:round; stroke-linejoin:round;">
<path d="M118.4700,91.2600 C119.1000,91.6900 119.9700,91.5200 120.3900,90.8800" />
<path d="M120.3900,90.8800 C120.4000,90.8800 120.4000,90.8800 120.4100,90.9000" />
</g>
<g style="fill:none; 
stroke:#000000; stroke-width:0.2646; stroke-opacity:1; 
stroke-linecap:round; stroke-linejoin:round;">
<path d="M120.4100 90.9000
L132.7600 69.4600
" />
<path d="M121.4300 85.1800
L109.3000 78.1800
" />
<path d="M128.4300 73.0500
L121.4300 85.1800
" />
<path d="M132.3800 67.5300
L113.4600 56.6100
" />
<path d="M132.3900 67.5300
L132.3800 67.5300
" />
<path d="M132.3900 67.5400
L132.3900 67.5300
" />
<path d="M132.4500 67.5800
L132.3900 67.5400
" />
<path d="M132.5000 67.6200
L132.4500 67.5800
" />
<path d="M132.5600 67.6700
L132.5000 67.6200
" />
<path d="M132.6100 67.7200
L132.5600 67.6700
" />
<path d="M132.6500 67.7700
L132.6100 67.7200
" />
<path d="M132.7000 67.8200
L132.6500 67.7700
" />
<path d="M132.7400 67.8700
L132.7000 67.8200
" />
<path d="M132.7600 69.4600
L132.8000 69.4000
" />
<path d="M132.7800 67.9300
L132.7400 67.8700
" />
<path d="M132.8000 69.4000
L132.8400 69.3400
" />
<path d="M132.8100 67.9900
L132.7800 67.9300
" />
<path d="M132.8400 69.3400
L132.8700 69.2800
" />
<path d="M132.8400 68.0500
L132.8100 67.9900
" />
<path d="M132.8700 69.2800
L132.9000 69.2100
" />
<path d="M132.8700 68.1100
L132.8400 68.0500
" />
<path d="M132.9000 69.2100
L132.9200 69.1500
" />
<path d="M132.9000 68.1700
L132.8700 68.1100
" />
<path d="M132.9200 69.1500
L132.9400 69.0900
" />
<path d="M132.9200 68.2300
L132.9000 68.1700
" />
<path d="M132.9400 69.0900
L132.9600 69.0200
" />
<path d="M132.9400 68.2900
L132.9200 68.2300
" />
<path d="M132.9600 69.0200
L132.9800 68.9500
" />
<path d="M132.9600 68.3600
L132.9400 68.2900
" />
<path d="M132.9800 68.4200
L132.9600 68.3600
" />
<path d="M132.9800 68.9500
L132.9900 68.8900
" />
<path d="M132.9900 68.4900
L132.9800 68.4200
" />
<path d="M132.9900 68.8900
L132.9900 68.8200
" />
<path d="M132.9900 68.5500
L132.9900 68.4900
" />
<path d="M132.9900 68.8200
L133.0000 68.7500
" />
<path d="M133.0000 68.6200
L132.9900 68.5500
" />
<path d="M133.0000 68.7500
L133.0000 68.6900
" />
<path d="M133.0000 68.6900
L133.0000 68.6200
" />
</g>
<g style="fill:none; 
stroke:#000000; stroke-width:0.0500; stroke-opacity:1; 
stroke-linecap:round; stroke-linejoin:round;">
<path d="M94.6100 4.8800
L94.6100 6.6000
" />
<path d="M94.6100 6.6000
L113.1000 6.6000
" />
</g> 
</svg>
