<?xml version="1.0" standalone="no"?>
 <!DOCTYPE svg PUBLIC "-//W3C//DTD SVG 1.1//EN" 
 "http://www.w3.org/Graphics/SVG/1.1/DTD/svg11.dtd"> 
<svg
  xmlns:svg="http://www.w3.org/2000/svg"
  xmlns="http://www.w3.org/2000/svg"
  xmlns:xlink="http://www.w3.org/1999/xlink"
  xmlns:inkscape="http://www.inkscape.org/namespaces/inkscape"
  version="1.1"
  width="133.1214mm" height="91.5924mm" viewBox="0.0000 0.0000 133.1214 91.5924">
<title>SVG Image created as choc_switchplates.svg date 2026-05-07T01:13:52 </title>
  <desc>Image generated by PCBNEW </desc>
<g style="fill:#000000; fill-opacity:1.0000;stroke:#000000; stroke-opacity:1.0000;
stroke-linecap:round; stroke-linejoin:round;"
 transform="translate(0 0) scale(1 1)">
</g>
<g style="fill:none; 
stroke:#000000; stroke-width:0.2000; stroke-opacity:1; 
stroke-linecap:round; stroke-linejoin:round;">
<path d="M0.1018,7.6019 C0.1018,7.6019 0.1018,7.6019 0.1018,7.6019" />
<path d="M0.1018 7.6019
L0.1000 62.8506
" />
<path d="M0.1018,62.8519 C0.1018,63.1281 0.3258,63.3519 0.6019,63.3518" />
<path d="M0.6019,63.3518 C0.6019,63.3518 0.6019,63.3518 0.6019,63.3518" />
<path d="M0.6019,7.1020 C0.3258,7.1019 0.1018,7.3257 0.1018,7.6019" />
<path d="M0.6019 63.3518
L11.4789 63.3520
" />
</g>
<g style="fill:none; 
stroke:#000000; stroke-width:0.2646; stroke-opacity:1; 
stroke-linecap:round; stroke-linejoin:round;">
<path d="M2.1242 23.1620
L2.1242 9.3620
" />
<path d="M2.1242 42.1619
L2.1242 28.3619
" />
<path d="M2.1242 61.1618
L2.1242 47.3618
" />
<path d="M2.2242 9.2620
L16.0242 9.2620
" />
<path d="M2.2242 28.2619
L16.0242 28.2619
" />
<path d="M2.2242 47.2618
L16.0242 47.2618
" />
<path d="M16.0242 23.2620
L2.2242 23.2620
" />
<path d="M16.0242 42.2619
L2.2242 42.2619
" />
<path d="M16.0242 61.2618
L2.2242 61.2618
" />
<path d="M16.1241 9.3620
L16.1241 23.1620
" />
<path d="M16.1241 28.3619
L16.1241 42.1619
" />
<path d="M16.1241 47.3618
L16.1241 61.1618
" />
<path d="M17.4888 25.8309
L17.4902 25.7743
" />
<path d="M17.4888 44.5808
L17.4902 44.5242
" />
<path d="M17.4902 25.7743
L17.4945 25.7184
" />
<path d="M17.4902 25.8875
L17.4888 25.8309
" />
<path d="M17.4902 44.5242
L17.4945 44.4684
" />
<path d="M17.4902 44.6374
L17.4888 44.5808
" />
<path d="M17.4945 25.7184
L17.5015 25.6634
" />
<path d="M17.4945 25.9434
L17.4902 25.8875
" />
<path d="M17.4945 44.4684
L17.5015 44.4133
" />
<path d="M17.4945 44.6933
L17.4902 44.6374
" />
<path d="M17.5015 25.6634
L17.5112 25.6092
" />
<path d="M17.5015 25.9984
L17.4945 25.9434
" />
<path d="M17.5015 44.4133
L17.5112 44.3592
" />
<path d="M17.5015 44.7483
L17.4945 44.6933
" />
<path d="M17.5112 25.6092
L17.5234 25.5560
" />
<path d="M17.5112 26.0526
L17.5015 25.9984
" />
<path d="M17.5112 44.3592
L17.5234 44.3059
" />
<path d="M17.5112 44.8025
L17.5015 44.7483
" />
<path d="M17.5234 25.5560
L17.5383 25.5038
" />
<path d="M17.5234 26.1058
L17.5112 26.0526
" />
<path d="M17.5234 44.3059
L17.5383 44.2537
" />
<path d="M17.5234 44.8557
L17.5112 44.8025
" />
<path d="M17.5383 25.5038
L17.5556 25.4527
" />
<path d="M17.5383 26.1580
L17.5234 26.1058
" />
<path d="M17.5383 44.2537
L17.5556 44.2026
" />
<path d="M17.5383 44.9079
L17.5234 44.8557
" />
<path d="M17.5556 25.4527
L17.5752 25.4027
" />
<path d="M17.5556 26.2091
L17.5383 26.1580
" />
<path d="M17.5556 44.2026
L17.5752 44.1527
" />
<path d="M17.5556 44.9590
L17.5383 44.9079
" />
<path d="M17.5752 25.4027
L17.5973 25.3540
" />
<path d="M17.5752 26.2591
L17.5556 26.2091
" />
<path d="M17.5752 44.1527
L17.5973 44.1040
" />
<path d="M17.5752 45.0090
L17.5556 44.9590
" />
<path d="M17.5973 25.3540
L17.6216 25.3066
" />
<path d="M17.5973 26.3078
L17.5752 26.2591
" />
<path d="M17.5973 44.1040
L17.6216 44.0565
" />
<path d="M17.5973 45.0577
L17.5752 45.0090
" />
<path d="M17.6216 25.3066
L17.6481 25.2605
" />
<path d="M17.6216 26.3552
L17.5973 26.3078
" />
<path d="M17.6216 44.0565
L17.6481 44.0105
" />
<path d="M17.6216 45.1051
L17.5973 45.0577
" />
<path d="M17.6481 25.2605
L17.6767 25.2159
" />
<path d="M17.6481 26.4013
L17.6216 26.3552
" />
<path d="M17.6481 44.0105
L17.6767 43.9658
" />
<path d="M17.6481 45.1512
L17.6216 45.1051
" />
<path d="M17.6767 25.2159
L17.7073 25.1728
" />
<path d="M17.6767 26.4459
L17.6481 26.4013
" />
<path d="M17.6767 43.9658
L17.7073 43.9227
" />
<path d="M17.6767 45.1958
L17.6481 45.1512
" />
<path d="M17.7073 25.1728
L17.7400 25.1312
" />
<path d="M17.7073 26.4890
L17.6767 26.4459
" />
<path d="M17.7073 43.9227
L17.7400 43.8812
" />
<path d="M17.7073 45.2390
L17.6767 45.1958
" />
<path d="M17.7400 25.1312
L17.7746 25.0913
" />
<path d="M17.7400 26.5306
L17.7073 26.4890
" />
<path d="M17.7400 43.8812
L17.7746 43.8412
" />
<path d="M17.7400 45.2805
L17.7073 45.2390
" />
<path d="M17.7746 25.0913
L17.8110 25.0531
" />
<path d="M17.7746 26.5705
L17.7400 26.5306
" />
<path d="M17.7746 43.8412
L17.8110 43.8030
" />
<path d="M17.7746 45.3204
L17.7400 45.2805
" />
<path d="M17.8110 25.0531
L17.8492 25.0167
" />
<path d="M17.8110 26.6087
L17.7746 26.5705
" />
<path d="M17.8110 43.8030
L17.8492 43.7666
" />
<path d="M17.8110 45.3586
L17.7746 45.3204
" />
<path d="M17.8492 25.0167
L17.8891 24.9821
" />
<path d="M17.8492 26.6451
L17.8110 26.6087
" />
<path d="M17.8492 43.7666
L17.8891 43.7321
" />
<path d="M17.8492 45.3950
L17.8110 45.3586
" />
<path d="M17.8891 24.9821
L17.9306 24.9495
" />
<path d="M17.8891 26.6797
L17.8492 26.6451
" />
<path d="M17.8891 43.7321
L17.9306 43.6994
" />
<path d="M17.8891 45.4296
L17.8492 45.3950
" />
<path d="M17.9306 24.9495
L17.9738 24.9188
" />
<path d="M17.9306 26.7123
L17.8891 26.6797
" />
<path d="M17.9306 43.6994
L17.9738 43.6687
" />
<path d="M17.9306 45.4623
L17.8891 45.4296
" />
<path d="M17.9738 24.9188
L18.0184 24.8902
" />
<path d="M17.9738 26.7430
L17.9306 26.7123
" />
<path d="M17.9738 43.6687
L18.0184 43.6401
" />
<path d="M17.9738 45.4929
L17.9306 45.4623
" />
<path d="M18.0184 24.8902
L18.0645 24.8637
" />
<path d="M18.0184 26.7716
L17.9738 26.7430
" />
<path d="M18.0184 43.6401
L18.0645 43.6136
" />
<path d="M18.0184 45.5216
L17.9738 45.4929
" />
<path d="M18.0645 24.8637
L18.1119 24.8394
" />
<path d="M18.0645 26.7981
L18.0184 26.7716
" />
<path d="M18.0645 43.6136
L18.1119 43.5893
" />
<path d="M18.0645 45.5480
L18.0184 45.5216
" />
<path d="M18.1119 24.8394
L18.1606 24.8174
" />
<path d="M18.1119 26.8224
L18.0645 26.7981
" />
<path d="M18.1119 43.5893
L18.1606 43.5673
" />
<path d="M18.1119 45.5723
L18.0645 45.5480
" />
<path d="M18.1606 24.8174
L18.2106 24.7977
" />
<path d="M18.1606 26.8444
L18.1119 26.8224
" />
<path d="M18.1606 43.5673
L18.2106 43.5476
" />
<path d="M18.1606 45.5944
L18.1119 45.5723
" />
<path d="M18.2106 24.7977
L18.2617 24.7804
" />
<path d="M18.2106 26.8641
L18.1606 26.8444
" />
<path d="M18.2106 43.5476
L18.2617 43.5303
" />
<path d="M18.2106 45.6141
L18.1606 45.5944
" />
<path d="M18.2617 24.7804
L18.3139 24.7656
" />
<path d="M18.2617 26.8814
L18.2106 26.8641
" />
<path d="M18.2617 43.5303
L18.3139 43.5155
" />
<path d="M18.2617 45.6313
L18.2106 45.6141
" />
<path d="M18.3139 24.7656
L18.3671 24.7533
" />
<path d="M18.3139 26.8962
L18.2617 26.8814
" />
<path d="M18.3139 43.5155
L18.3671 43.5032
" />
<path d="M18.3139 45.6462
L18.2617 45.6313
" />
<path d="M18.3671 24.7533
L18.4213 24.7436
" />
<path d="M18.3671 26.9085
L18.3139 26.8962
" />
<path d="M18.3671 43.5032
L18.4213 43.4935
" />
<path d="M18.3671 45.6585
L18.3139 45.6462
" />
<path d="M18.4213 24.7436
L18.4763 24.7366
" />
<path d="M18.4213 26.9182
L18.3671 26.9085
" />
<path d="M18.4213 43.4935
L18.4763 43.4866
" />
<path d="M18.4213 45.6681
L18.3671 45.6585
" />
<path d="M18.4763 24.7366
L18.5322 24.7324
" />
<path d="M18.4763 26.9252
L18.4213 26.9182
" />
<path d="M18.4763 43.4866
L18.5322 43.4823
" />
<path d="M18.4763 45.6751
L18.4213 45.6681
" />
<path d="M18.5322 24.7324
L18.5888 24.7309
" />
<path d="M18.5322 26.9294
L18.4763 26.9252
" />
<path d="M18.5322 43.4823
L18.5888 43.4809
" />
<path d="M18.5322 45.6794
L18.4763 45.6751
" />
<path d="M18.5888 24.7309
L18.6454 24.7324
" />
<path d="M18.5888 26.9309
L18.5322 26.9294
" />
<path d="M18.5888 43.4809
L18.6454 43.4823
" />
<path d="M18.5888 45.6808
L18.5322 45.6794
" />
<path d="M18.6454 24.7324
L18.7012 24.7366
" />
<path d="M18.6454 26.9294
L18.5888 26.9309
" />
<path d="M18.6454 43.4823
L18.7012 43.4866
" />
<path d="M18.6454 45.6794
L18.5888 45.6808
" />
<path d="M18.7012 24.7366
L18.7563 24.7436
" />
<path d="M18.7012 26.9252
L18.6454 26.9294
" />
<path d="M18.7012 43.4866
L18.7563 43.4935
" />
<path d="M18.7012 45.6751
L18.6454 45.6794
" />
<path d="M18.7563 24.7436
L18.8104 24.7533
" />
<path d="M18.7563 26.9182
L18.7012 26.9252
" />
<path d="M18.7563 43.4935
L18.8104 43.5032
" />
<path d="M18.7563 45.6681
L18.7012 45.6751
" />
<path d="M18.8104 24.7533
L18.8637 24.7656
" />
<path d="M18.8104 26.9085
L18.7563 26.9182
" />
<path d="M18.8104 43.5032
L18.8637 43.5155
" />
<path d="M18.8104 45.6585
L18.7563 45.6681
" />
<path d="M18.8637 24.7656
L18.9159 24.7804
" />
<path d="M18.8637 26.8962
L18.8104 26.9085
" />
<path d="M18.8637 43.5155
L18.9159 43.5303
" />
<path d="M18.8637 45.6462
L18.8104 45.6585
" />
<path d="M18.9159 24.7804
L18.9670 24.7977
" />
<path d="M18.9159 26.8814
L18.8637 26.8962
" />
<path d="M18.9159 43.5303
L18.9670 43.5476
" />
<path d="M18.9159 45.6313
L18.8637 45.6462
" />
<path d="M18.9670 24.7977
L19.0169 24.8174
" />
<path d="M18.9670 26.8641
L18.9159 26.8814
" />
<path d="M18.9670 43.5476
L19.0169 43.5673
" />
<path d="M18.9670 45.6141
L18.9159 45.6313
" />
<path d="M19.0169 24.8174
L19.0656 24.8394
" />
<path d="M19.0169 26.8444
L18.9670 26.8641
" />
<path d="M19.0169 43.5673
L19.0656 43.5893
" />
<path d="M19.0169 45.5944
L18.9670 45.6141
" />
<path d="M19.0656 24.8394
L19.1131 24.8637
" />
<path d="M19.0656 26.8224
L19.0169 26.8444
" />
<path d="M19.0656 43.5893
L19.1131 43.6136
" />
<path d="M19.0656 45.5723
L19.0169 45.5944
" />
<path d="M19.1131 24.8637
L19.1591 24.8902
" />
<path d="M19.1131 26.7981
L19.0656 26.8224
" />
<path d="M19.1131 43.6136
L19.1591 43.6401
" />
<path d="M19.1131 45.5480
L19.0656 45.5723
" />
<path d="M19.1591 24.8902
L19.2038 24.9188
" />
<path d="M19.1591 26.7716
L19.1131 26.7981
" />
<path d="M19.1591 43.6401
L19.2038 43.6687
" />
<path d="M19.1591 45.5216
L19.1131 45.5480
" />
<path d="M19.2038 24.9188
L19.2469 24.9495
" />
<path d="M19.2038 26.7430
L19.1591 26.7716
" />
<path d="M19.2038 43.6687
L19.2469 43.6994
" />
<path d="M19.2038 45.4929
L19.1591 45.5216
" />
<path d="M19.2469 24.9495
L19.2884 24.9821
" />
<path d="M19.2469 26.7123
L19.2038 26.7430
" />
<path d="M19.2469 43.6994
L19.2884 43.7321
" />
<path d="M19.2469 45.4623
L19.2038 45.4929
" />
<path d="M19.2884 24.9821
L19.3284 25.0167
" />
<path d="M19.2884 26.6797
L19.2469 26.7123
" />
<path d="M19.2884 43.7321
L19.3284 43.7666
" />
<path d="M19.2884 45.4296
L19.2469 45.4623
" />
<path d="M19.3284 25.0167
L19.3666 25.0531
" />
<path d="M19.3284 26.6451
L19.2884 26.6797
" />
<path d="M19.3284 43.7666
L19.3666 43.8030
" />
<path d="M19.3284 45.3950
L19.2884 45.4296
" />
<path d="M19.3666 25.0531
L19.4030 25.0913
" />
<path d="M19.3666 26.6087
L19.3284 26.6451
" />
<path d="M19.3666 43.8030
L19.4030 43.8412
" />
<path d="M19.3666 45.3586
L19.3284 45.3950
" />
<path d="M19.4030 25.0913
L19.4375 25.1312
" />
<path d="M19.4030 26.5705
L19.3666 26.6087
" />
<path d="M19.4030 43.8412
L19.4375 43.8812
" />
<path d="M19.4030 45.3204
L19.3666 45.3586
" />
<path d="M19.4375 25.1312
L19.4702 25.1728
" />
<path d="M19.4375 26.5306
L19.4030 26.5705
" />
<path d="M19.4375 43.8812
L19.4702 43.9227
" />
<path d="M19.4375 45.2805
L19.4030 45.3204
" />
<path d="M19.4702 25.1728
L19.5009 25.2159
" />
<path d="M19.4702 26.4890
L19.4375 26.5306
" />
<path d="M19.4702 43.9227
L19.5009 43.9658
" />
<path d="M19.4702 45.2390
L19.4375 45.2805
" />
<path d="M19.5009 25.2159
L19.5295 25.2605
" />
<path d="M19.5009 26.4459
L19.4702 26.4890
" />
<path d="M19.5009 43.9658
L19.5295 44.0105
" />
<path d="M19.5009 45.1958
L19.4702 45.2390
" />
<path d="M19.5295 25.2605
L19.5560 25.3066
" />
<path d="M19.5295 26.4013
L19.5009 26.4459
" />
<path d="M19.5295 44.0105
L19.5560 44.0565
" />
<path d="M19.5295 45.1512
L19.5009 45.1958
" />
<path d="M19.5560 25.3066
L19.5803 25.3540
" />
<path d="M19.5560 26.3552
L19.5295 26.4013
" />
<path d="M19.5560 44.0565
L19.5803 44.1040
" />
<path d="M19.5560 45.1051
L19.5295 45.1512
" />
<path d="M19.5803 25.3540
L19.6023 25.4027
" />
<path d="M19.5803 26.3078
L19.5560 26.3552
" />
<path d="M19.5803 44.1040
L19.6023 44.1527
" />
<path d="M19.5803 45.0577
L19.5560 45.1051
" />
<path d="M19.6023 25.4027
L19.6220 25.4527
" />
<path d="M19.6023 26.2591
L19.5803 26.3078
" />
<path d="M19.6023 44.1527
L19.6220 44.2026
" />
<path d="M19.6023 45.0090
L19.5803 45.0577
" />
<path d="M19.6220 25.4527
L19.6393 25.5038
" />
<path d="M19.6220 26.2091
L19.6023 26.2591
" />
<path d="M19.6220 44.2026
L19.6393 44.2537
" />
<path d="M19.6220 44.9590
L19.6023 45.0090
" />
<path d="M19.6393 25.5038
L19.6541 25.5560
" />
<path d="M19.6393 26.1580
L19.6220 26.2091
" />
<path d="M19.6393 44.2537
L19.6541 44.3059
" />
<path d="M19.6393 44.9079
L19.6220 44.9590
" />
<path d="M19.6541 25.5560
L19.6664 25.6092
" />
<path d="M19.6541 26.1058
L19.6393 26.1580
" />
<path d="M19.6541 44.3059
L19.6664 44.3592
" />
<path d="M19.6541 44.8557
L19.6393 44.9079
" />
<path d="M19.6664 25.6092
L19.6761 25.6634
" />
<path d="M19.6664 26.0526
L19.6541 26.1058
" />
<path d="M19.6664 44.3592
L19.6761 44.4133
" />
<path d="M19.6664 44.8025
L19.6541 44.8557
" />
<path d="M19.6761 25.6634
L19.6830 25.7184
" />
<path d="M19.6761 25.9984
L19.6664 26.0526
" />
<path d="M19.6761 44.4133
L19.6830 44.4684
" />
<path d="M19.6761 44.7483
L19.6664 44.8025
" />
<path d="M19.6830 25.7184
L19.6873 25.7743
" />
<path d="M19.6830 25.9434
L19.6761 25.9984
" />
<path d="M19.6830 44.4684
L19.6873 44.5242
" />
<path d="M19.6830 44.6933
L19.6761 44.7483
" />
<path d="M19.6873 25.7743
L19.6887 25.8309
" />
<path d="M19.6873 25.8875
L19.6830 25.9434
" />
<path d="M19.6873 44.5242
L19.6887 44.5808
" />
<path d="M19.6873 44.6374
L19.6830 44.6933
" />
<path d="M19.6887 25.8309
L19.6873 25.8875
" />
<path d="M19.6887 44.5808
L19.6873 44.6374
" />
<path d="M21.1223 23.1613
L21.1223 9.3613
" />
<path d="M21.1223 42.1612
L21.1223 28.3612
" />
<path d="M21.1223 61.1611
L21.1223 47.3611
" />
<path d="M21.2223 9.2613
L35.0223 9.2613
" />
<path d="M21.2223 28.2612
L35.0223 28.2612
" />
<path d="M21.2223 47.2611
L35.0223 47.2611
" />
</g>
<g style="fill:none; 
stroke:#000000; stroke-width:0.2000; stroke-opacity:1; 
stroke-linecap:round; stroke-linejoin:round;">
<path d="M33.4689 63.3528
L11.4789 63.3520
" />
</g>
<g style="fill:none; 
stroke:#000000; stroke-width:0.2646; stroke-opacity:1; 
stroke-linecap:round; stroke-linejoin:round;">
<path d="M35.0223 23.2613
L21.2223 23.2613
" />
<path d="M35.0223 42.2612
L21.2223 42.2612
" />
<path d="M35.0223 61.2611
L21.2223 61.2611
" />
<path d="M35.1223 9.3613
L35.1223 23.1613
" />
<path d="M35.1223 28.3612
L35.1223 42.1612
" />
<path d="M35.1223 47.3611
L35.1223 61.1611
" />
</g>
<g style="fill:none; 
stroke:#000000; stroke-width:0.2000; stroke-opacity:1; 
stroke-linecap:round; stroke-linejoin:round;">
<path d="M37.0617 63.3518
L33.4689 63.3528
" />
<path d="M37.4153,63.4983 C37.3216,63.4045 37.1944,63.3518 37.0617,63.3518" />
<path d="M37.4153 63.4983
L47.6048 77.8089
" />
<path d="M37.6005 7.1002
L0.6019 7.1020
" />
<path d="M37.6018,7.1020 C37.8779,7.1021 38.1018,6.8783 38.1019,6.6021" />
<path d="M38.1009 2.8508
L38.1009 6.5999
" />
<path d="M38.1019,6.6021 C38.1019,6.6021 38.1019,6.6020 38.1019,6.6019" />
<path d="M38.6018,2.3520 C38.3257,2.3520 38.1020,2.5758 38.1019,2.8518" />
<path d="M38.6018 2.3520
L49.6589 2.3520
" />
</g>
<g style="fill:none; 
stroke:#000000; stroke-width:0.2646; stroke-opacity:1; 
stroke-linecap:round; stroke-linejoin:round;">
<path d="M40.1225 18.4162
L40.1225 4.6162
" />
<path d="M40.1225 37.4165
L40.1225 23.6165
" />
<path d="M40.1225 56.4162
L40.1225 42.6162
" />
<path d="M40.2225 4.5161
L54.0225 4.5161
" />
<path d="M40.2225 23.5163
L54.0225 23.5163
" />
<path d="M40.2225 42.5162
L54.0225 42.5162
" />
<path d="M41.4949 63.5273
L41.4963 63.4707
" />
<path d="M41.4963 63.4707
L41.5006 63.4148
" />
<path d="M41.4963 63.5839
L41.4949 63.5273
" />
<path d="M41.5006 63.4148
L41.5076 63.3598
" />
<path d="M41.5006 63.6398
L41.4963 63.5839
" />
<path d="M41.5076 63.3598
L41.5172 63.3056
" />
<path d="M41.5076 63.6948
L41.5006 63.6398
" />
<path d="M41.5172 63.3056
L41.5295 63.2524
" />
<path d="M41.5172 63.7490
L41.5076 63.6948
" />
<path d="M41.5295 63.2524
L41.5443 63.2002
" />
<path d="M41.5295 63.8022
L41.5172 63.7490
" />
<path d="M41.5443 63.2002
L41.5616 63.1491
" />
<path d="M41.5443 63.8544
L41.5295 63.8022
" />
<path d="M41.5616 63.1491
L41.5813 63.0992
" />
<path d="M41.5616 63.9055
L41.5443 63.8544
" />
<path d="M41.5813 63.0992
L41.6034 63.0504
" />
<path d="M41.5813 63.9555
L41.5616 63.9055
" />
<path d="M41.6034 63.0504
L41.6276 63.0030
" />
<path d="M41.6034 64.0042
L41.5813 63.9555
" />
<path d="M41.6276 63.0030
L41.6541 62.9569
" />
<path d="M41.6276 64.0516
L41.6034 64.0042
" />
<path d="M41.6541 62.9569
L41.6827 62.9123
" />
<path d="M41.6541 64.0977
L41.6276 64.0516
" />
<path d="M41.6827 62.9123
L41.7134 62.8692
" />
<path d="M41.6827 64.1423
L41.6541 64.0977
" />
<path d="M41.7134 62.8692
L41.7461 62.8276
" />
<path d="M41.7134 64.1854
L41.6827 64.1423
" />
<path d="M41.7461 62.8276
L41.7806 62.7877
" />
<path d="M41.7461 64.2270
L41.7134 64.1854
" />
<path d="M41.7806 62.7877
L41.8171 62.7495
" />
<path d="M41.7806 64.2669
L41.7461 64.2270
" />
<path d="M41.8171 62.7495
L41.8553 62.7131
" />
<path d="M41.8171 64.3051
L41.7806 64.2669
" />
<path d="M41.8553 62.7131
L41.8952 62.6785
" />
<path d="M41.8553 64.3415
L41.8171 64.3051
" />
<path d="M41.8952 62.6785
L41.9367 62.6459
" />
<path d="M41.8952 64.3761
L41.8553 64.3415
" />
<path d="M41.9367 62.6459
L41.9798 62.6152
" />
<path d="M41.9367 64.4087
L41.8952 64.3761
" />
<path d="M41.9798 62.6152
L42.0245 62.5866
" />
<path d="M41.9798 64.4394
L41.9367 64.4087
" />
<path d="M42.0245 62.5866
L42.0705 62.5601
" />
<path d="M42.0245 64.4680
L41.9798 64.4394
" />
<path d="M42.0705 62.5601
L42.1180 62.5358
" />
<path d="M42.0705 64.4945
L42.0245 64.4680
" />
<path d="M42.1180 62.5358
L42.1667 62.5138
" />
<path d="M42.1180 64.5188
L42.0705 64.4945
" />
<path d="M42.1667 62.5138
L42.2166 62.4941
" />
<path d="M42.1667 64.5408
L42.1180 64.5188
" />
<path d="M42.2166 62.4941
L42.2678 62.4768
" />
<path d="M42.2166 64.5605
L42.1667 64.5408
" />
<path d="M42.2678 62.4768
L42.3199 62.4620
" />
<path d="M42.2678 64.5778
L42.2166 64.5605
" />
<path d="M42.3199 62.4620
L42.3732 62.4497
" />
<path d="M42.3199 64.5926
L42.2678 64.5778
" />
<path d="M42.3732 62.4497
L42.4273 62.4400
" />
<path d="M42.3732 64.6049
L42.3199 64.5926
" />
<path d="M42.4273 62.4400
L42.4824 62.4330
" />
<path d="M42.4273 64.6146
L42.3732 64.6049
" />
<path d="M42.4824 62.4330
L42.5382 62.4288
" />
<path d="M42.4824 64.6216
L42.4273 64.6146
" />
<path d="M42.5382 62.4288
L42.5948 62.4274
" />
<path d="M42.5382 64.6258
L42.4824 64.6216
" />
<path d="M42.5948 62.4274
L42.6514 62.4288
" />
<path d="M42.5948 64.6273
L42.5382 64.6258
" />
<path d="M42.6514 62.4288
L42.7073 62.4330
" />
<path d="M42.6514 64.6258
L42.5948 64.6273
" />
<path d="M42.7073 62.4330
L42.7624 62.4400
" />
<path d="M42.7073 64.6216
L42.6514 64.6258
" />
<path d="M42.7624 62.4400
L42.8165 62.4497
" />
<path d="M42.7624 64.6146
L42.7073 64.6216
" />
<path d="M42.8165 62.4497
L42.8697 62.4620
" />
<path d="M42.8165 64.6049
L42.7624 64.6146
" />
<path d="M42.8697 62.4620
L42.9219 62.4768
" />
<path d="M42.8697 64.5926
L42.8165 64.6049
" />
<path d="M42.9219 62.4768
L42.9730 62.4941
" />
<path d="M42.9219 64.5778
L42.8697 64.5926
" />
<path d="M42.9730 62.4941
L43.0230 62.5138
" />
<path d="M42.9730 64.5605
L42.9219 64.5778
" />
<path d="M43.0230 62.5138
L43.0717 62.5358
" />
<path d="M43.0230 64.5408
L42.9730 64.5605
" />
<path d="M43.0717 62.5358
L43.1191 62.5601
" />
<path d="M43.0717 64.5188
L43.0230 64.5408
" />
<path d="M43.1191 62.5601
L43.1652 62.5866
" />
<path d="M43.1191 64.4945
L43.0717 64.5188
" />
<path d="M43.1652 62.5866
L43.2098 62.6152
" />
<path d="M43.1652 64.4680
L43.1191 64.4945
" />
<path d="M43.2098 62.6152
L43.2530 62.6459
" />
<path d="M43.2098 64.4394
L43.1652 64.4680
" />
<path d="M43.2530 62.6459
L43.2945 62.6785
" />
<path d="M43.2530 64.4087
L43.2098 64.4394
" />
<path d="M43.2945 62.6785
L43.3344 62.7131
" />
<path d="M43.2945 64.3761
L43.2530 64.4087
" />
<path d="M43.3344 62.7131
L43.3726 62.7495
" />
<path d="M43.3344 64.3415
L43.2945 64.3761
" />
<path d="M43.3726 62.7495
L43.4091 62.7877
" />
<path d="M43.3726 64.3051
L43.3344 64.3415
" />
<path d="M43.4091 62.7877
L43.4436 62.8276
" />
<path d="M43.4091 64.2669
L43.3726 64.3051
" />
<path d="M43.4436 62.8276
L43.4763 62.8692
" />
<path d="M43.4436 64.2270
L43.4091 64.2669
" />
<path d="M43.4763 62.8692
L43.5069 62.9123
" />
<path d="M43.4763 64.1854
L43.4436 64.2270
" />
<path d="M43.5069 62.9123
L43.5356 62.9569
" />
<path d="M43.5069 64.1423
L43.4763 64.1854
" />
<path d="M43.5356 62.9569
L43.5620 63.0030
" />
<path d="M43.5356 64.0977
L43.5069 64.1423
" />
<path d="M43.5620 63.0030
L43.5863 63.0504
" />
<path d="M43.5620 64.0516
L43.5356 64.0977
" />
<path d="M43.5863 63.0504
L43.6084 63.0992
" />
<path d="M43.5863 64.0042
L43.5620 64.0516
" />
<path d="M43.6084 63.0992
L43.6281 63.1491
" />
<path d="M43.6084 63.9555
L43.5863 64.0042
" />
<path d="M43.6281 63.1491
L43.6454 63.2002
" />
<path d="M43.6281 63.9055
L43.6084 63.9555
" />
<path d="M43.6454 63.2002
L43.6602 63.2524
" />
<path d="M43.6454 63.8544
L43.6281 63.9055
" />
<path d="M43.6602 63.2524
L43.6725 63.3056
" />
<path d="M43.6602 63.8022
L43.6454 63.8544
" />
<path d="M43.6725 63.3056
L43.6821 63.3598
" />
<path d="M43.6725 63.7490
L43.6602 63.8022
" />
<path d="M43.6821 63.3598
L43.6891 63.4148
" />
<path d="M43.6821 63.6948
L43.6725 63.7490
" />
<path d="M43.6891 63.4148
L43.6934 63.4707
" />
<path d="M43.6891 63.6398
L43.6821 63.6948
" />
<path d="M43.6934 63.4707
L43.6948 63.5273
" />
<path d="M43.6934 63.5839
L43.6891 63.6398
" />
<path d="M43.6948 63.5273
L43.6934 63.5839
" />
</g>
<g style="fill:none; 
stroke:#000000; stroke-width:0.2000; stroke-opacity:1; 
stroke-linecap:round; stroke-linejoin:round;">
<path d="M47.6048,77.8089 C47.6985,77.9028 47.8257,77.9555 47.9583,77.9555" />
<path d="M47.9583 77.9555
L54.0189 77.9555
" />
</g>
<g style="fill:none; 
stroke:#000000; stroke-width:0.2646; stroke-opacity:1; 
stroke-linecap:round; stroke-linejoin:round;">
<path d="M49.1206 75.8300
L49.1206 62.0300
" />
<path d="M49.2207 61.9299
L63.0207 61.9299
" />
</g>
<g style="fill:none; 
stroke:#000000; stroke-width:0.2000; stroke-opacity:1; 
stroke-linecap:round; stroke-linejoin:round;">
<path d="M54.0189 77.9555
L66.4983 77.9555
" />
</g>
<g style="fill:none; 
stroke:#000000; stroke-width:0.2646; stroke-opacity:1; 
stroke-linecap:round; stroke-linejoin:round;">
<path d="M54.0225 18.5164
L40.2225 18.5164
" />
<path d="M54.0225 37.5166
L40.2225 37.5166
" />
<path d="M54.0225 56.5162
L40.2225 56.5162
" />
<path d="M54.1225 4.6162
L54.1225 18.4162
" />
<path d="M54.1225 23.6165
L54.1225 37.4165
" />
<path d="M54.1225 42.6162
L54.1225 56.4162
" />
</g>
<g style="fill:none; 
stroke:#000000; stroke-width:0.2000; stroke-opacity:1; 
stroke-linecap:round; stroke-linejoin:round;">
<path d="M56.5997 2.3504
L49.4889 2.3504
" />
<path d="M56.6017,2.3520 C56.8779,2.3520 57.1018,2.1282 57.1019,1.8521" />
<path d="M57.1019,0.6019 C57.1019,0.6019 57.1019,0.6019 57.1019,0.6019" />
<path d="M57.1019 0.6019
L57.1001 1.8501
" />
<path d="M57.1019,1.8521 C57.1019,1.8520 57.1019,1.8519 57.1019,1.8518" />
<path d="M57.6017,0.1018 C57.3256,0.1018 57.1018,0.3258 57.1019,0.6019" />
</g>
<g style="fill:none; 
stroke:#000000; stroke-width:0.2646; stroke-opacity:1; 
stroke-linecap:round; stroke-linejoin:round;">
<path d="M59.1246 16.0375
L59.1246 2.2375
" />
<path d="M59.1246 35.0375
L59.1246 21.2375
" />
<path d="M59.1246 54.0374
L59.1246 40.2374
" />
<path d="M59.2246 2.1373
L73.0246 2.1373
" />
<path d="M59.2246 21.1375
L73.0246 21.1375
" />
<path d="M59.2246 40.1374
L73.0246 40.1374
" />
<path d="M63.0207 75.9302
L49.2207 75.9302
" />
<path d="M63.1209 62.0300
L63.1209 75.8300
" />
</g>
<g style="fill:none; 
stroke:#000000; stroke-width:0.2000; stroke-opacity:1; 
stroke-linecap:round; stroke-linejoin:round;">
<path d="M66.4983 77.9555
L103.5223 82.8722
" />
</g>
<g style="fill:none; 
stroke:#000000; stroke-width:0.2646; stroke-opacity:1; 
stroke-linecap:round; stroke-linejoin:round;">
<path d="M68.6439 76.0700
L68.6439 62.2700
" />
<path d="M68.7441 62.1698
L82.5441 62.1698
" />
<path d="M73.0246 16.1376
L59.2246 16.1376
" />
<path d="M73.0246 35.1375
L59.2246 35.1375
" />
<path d="M73.0246 54.1374
L59.2246 54.1374
" />
<path d="M73.1246 2.2375
L73.1246 16.0375
" />
<path d="M73.1246 21.2375
L73.1246 35.0375
" />
<path d="M73.1246 40.2374
L73.1246 54.0374
" />
</g>
<g style="fill:none; 
stroke:#000000; stroke-width:0.2000; stroke-opacity:1; 
stroke-linecap:round; stroke-linejoin:round;">
<path d="M74.6007 0.1000
L57.6005 0.1000
" />
<path d="M74.6019,0.1018 C74.6019,0.1018 74.6019,0.1018 74.6019,0.1018" />
<path d="M75.1010 1.8501
L75.1010 0.6004
" />
<path d="M75.1018,0.6019 C75.1019,0.3258 74.8781,0.1018 74.6019,0.1018" />
<path d="M75.1018,1.8518 C75.1017,2.1280 75.3255,2.3519 75.6017,2.3520" />
<path d="M75.6017,2.3520 C75.6018,2.3520 75.6019,2.3520 75.6019,2.3520" />
<path d="M75.6019 2.3520
L87.4789 2.3504
" />
</g>
<g style="fill:none; 
stroke:#000000; stroke-width:0.2646; stroke-opacity:1; 
stroke-linecap:round; stroke-linejoin:round;">
<path d="M78.1255 18.4122
L78.1255 4.6122
" />
<path d="M78.1255 37.4121
L78.1255 23.6121
" />
<path d="M78.1255 56.4120
L78.1255 42.6120
" />
<path d="M78.2257 4.5122
L92.0257 4.5122
" />
<path d="M78.2257 23.5121
L92.0257 23.5121
" />
<path d="M78.2257 42.5120
L92.0257 42.5120
" />
<path d="M82.5441 76.1701
L68.7441 76.1701
" />
<path d="M82.6443 62.2700
L82.6443 76.0700
" />
<path d="M88.0333 76.8301
L91.6567 63.3071
" />
<path d="M91.6567 63.3071
L105.1797 66.9305
" />
<path d="M92.0257 18.5122
L78.2257 18.5122
" />
<path d="M92.0257 37.5121
L78.2257 37.5121
" />
<path d="M92.0257 56.5120
L78.2257 56.5120
" />
<path d="M92.1259 4.6122
L92.1259 18.4122
" />
<path d="M92.1259 23.6121
L92.1259 37.4121
" />
<path d="M92.1259 42.6120
L92.1259 56.4120
" />
<path d="M93.4888 21.3309
L93.4902 21.2743
" />
<path d="M93.4902 21.2743
L93.4945 21.2185
" />
<path d="M93.4902 21.3876
L93.4888 21.3309
" />
<path d="M93.4945 21.2185
L93.5015 21.1634
" />
<path d="M93.4945 21.4434
L93.4902 21.3876
" />
<path d="M93.5015 21.1634
L93.5112 21.1092
" />
<path d="M93.5015 21.4985
L93.4945 21.4434
" />
<path d="M93.5112 21.1092
L93.5234 21.0560
" />
<path d="M93.5112 21.5527
L93.5015 21.4985
" />
<path d="M93.5234 21.0560
L93.5383 21.0038
" />
<path d="M93.5234 21.6059
L93.5112 21.5527
" />
<path d="M93.5383 21.0038
L93.5556 20.9527
" />
<path d="M93.5383 21.6581
L93.5234 21.6059
" />
<path d="M93.5556 20.9527
L93.5753 20.9028
" />
<path d="M93.5556 21.7093
L93.5383 21.6581
" />
<path d="M93.5753 20.9028
L93.5973 20.8540
" />
<path d="M93.5753 21.7592
L93.5556 21.7093
" />
<path d="M93.5973 20.8540
L93.6216 20.8066
" />
<path d="M93.5973 21.8079
L93.5753 21.7592
" />
</g>
<g style="fill:none; 
stroke:#000000; stroke-width:0.2000; stroke-opacity:1; 
stroke-linecap:round; stroke-linejoin:round;">
<path d="M93.5998 2.3504
L87.4789 2.3504
" />
</g>
<g style="fill:none; 
stroke:#000000; stroke-width:0.2646; stroke-opacity:1; 
stroke-linecap:round; stroke-linejoin:round;">
<path d="M93.6216 20.8066
L93.6481 20.7606
" />
<path d="M93.6216 21.8554
L93.5973 21.8079
" />
<path d="M93.6481 20.7606
L93.6767 20.7159
" />
<path d="M93.6481 21.9014
L93.6216 21.8554
" />
<path d="M93.6767 20.7159
L93.7073 20.6728
" />
<path d="M93.6767 21.9461
L93.6481 21.9014
" />
<path d="M93.7073 20.6728
L93.7400 20.6312
" />
<path d="M93.7073 21.9892
L93.6767 21.9461
" />
<path d="M93.7400 20.6312
L93.7746 20.5913
" />
<path d="M93.7400 22.0307
L93.7073 21.9892
" />
<path d="M93.7746 20.5913
L93.8110 20.5531
" />
<path d="M93.7746 22.0706
L93.7400 22.0307
" />
<path d="M93.8110 20.5531
L93.8492 20.5167
" />
<path d="M93.8110 22.1088
L93.7746 22.0706
" />
<path d="M93.8492 20.5167
L93.8891 20.4821
" />
<path d="M93.8492 22.1453
L93.8110 22.1088
" />
<path d="M93.8891 20.4821
L93.9307 20.4495
" />
<path d="M93.8891 22.1798
L93.8492 22.1453
" />
<path d="M93.9307 20.4495
L93.9738 20.4188
" />
<path d="M93.9307 22.2125
L93.8891 22.1798
" />
<path d="M93.9738 20.4188
L94.0184 20.3902
" />
<path d="M93.9738 22.2431
L93.9307 22.2125
" />
<path d="M94.0184 20.3902
L94.0645 20.3637
" />
<path d="M94.0184 22.2717
L93.9738 22.2431
" />
<path d="M94.0645 20.3637
L94.1119 20.3394
" />
<path d="M94.0645 22.2982
L94.0184 22.2717
" />
</g>
<g style="fill:none; 
stroke:#000000; stroke-width:0.2000; stroke-opacity:1; 
stroke-linecap:round; stroke-linejoin:round;">
<path d="M94.1002 4.3494
L94.1002 2.8508
" />
<path d="M94.1018,2.8518 C94.1017,2.5758 93.8779,2.3520 93.6019,2.3520" />
<path d="M94.1018,4.3520 C94.1018,4.6281 94.3257,4.8519 94.6019,4.8518" />
</g>
<g style="fill:none; 
stroke:#000000; stroke-width:0.2646; stroke-opacity:1; 
stroke-linecap:round; stroke-linejoin:round;">
<path d="M94.1119 20.3394
L94.1606 20.3174
" />
<path d="M94.1119 22.3225
L94.0645 22.2982
" />
<path d="M94.1606 20.3174
L94.2106 20.2977
" />
<path d="M94.1606 22.3445
L94.1119 22.3225
" />
<path d="M94.2106 20.2977
L94.2617 20.2804
" />
<path d="M94.2106 22.3642
L94.1606 22.3445
" />
<path d="M94.2617 20.2804
L94.3139 20.2656
" />
<path d="M94.2617 22.3815
L94.2106 22.3642
" />
<path d="M94.3139 20.2656
L94.3671 20.2533
" />
<path d="M94.3139 22.3963
L94.2617 22.3815
" />
<path d="M94.3671 20.2533
L94.4213 20.2436
" />
<path d="M94.3671 22.4085
L94.3139 22.3963
" />
<path d="M94.4213 20.2436
L94.4763 20.2366
" />
<path d="M94.4213 22.4182
L94.3671 22.4085
" />
<path d="M94.4763 20.2366
L94.5322 20.2324
" />
<path d="M94.4763 22.4252
L94.4213 22.4182
" />
<path d="M94.5322 20.2324
L94.5888 20.2310
" />
<path d="M94.5322 22.4295
L94.4763 22.4252
" />
<path d="M94.5888 20.2310
L94.6454 20.2324
" />
<path d="M94.5888 22.4309
L94.5322 22.4295
" />
<path d="M94.6454 20.2324
L94.7012 20.2366
" />
<path d="M94.6454 22.4295
L94.5888 22.4309
" />
<path d="M94.7012 20.2366
L94.7563 20.2436
" />
<path d="M94.7012 22.4252
L94.6454 22.4295
" />
<path d="M94.7563 20.2436
L94.8104 20.2533
" />
<path d="M94.7563 22.4182
L94.7012 22.4252
" />
<path d="M94.8104 20.2533
L94.8637 20.2656
" />
<path d="M94.8104 22.4085
L94.7563 22.4182
" />
<path d="M94.8637 20.2656
L94.9159 20.2804
" />
<path d="M94.8637 22.3963
L94.8104 22.4085
" />
<path d="M94.9159 20.2804
L94.9670 20.2977
" />
<path d="M94.9159 22.3815
L94.8637 22.3963
" />
<path d="M94.9670 20.2977
L95.0169 20.3174
" />
<path d="M94.9670 22.3642
L94.9159 22.3815
" />
<path d="M95.0169 20.3174
L95.0656 20.3394
" />
<path d="M95.0169 22.3445
L94.9670 22.3642
" />
<path d="M95.0656 20.3394
L95.1131 20.3637
" />
<path d="M95.0656 22.3225
L95.0169 22.3445
" />
<path d="M95.1131 20.3637
L95.1591 20.3902
" />
<path d="M95.1131 22.2982
L95.0656 22.3225
" />
<path d="M95.1591 20.3902
L95.2038 20.4188
" />
<path d="M95.1591 22.2717
L95.1131 22.2982
" />
<path d="M95.2038 20.4188
L95.2469 20.4495
" />
<path d="M95.2038 22.2431
L95.1591 22.2717
" />
<path d="M95.2469 20.4495
L95.2884 20.4821
" />
<path d="M95.2469 22.2125
L95.2038 22.2431
" />
<path d="M95.2884 20.4821
L95.3284 20.5167
" />
<path d="M95.2884 22.1798
L95.2469 22.2125
" />
<path d="M95.3284 20.5167
L95.3666 20.5531
" />
<path d="M95.3284 22.1453
L95.2884 22.1798
" />
<path d="M95.3666 20.5531
L95.4030 20.5913
" />
<path d="M95.3666 22.1088
L95.3284 22.1453
" />
<path d="M95.4030 20.5913
L95.4376 20.6312
" />
<path d="M95.4030 22.0706
L95.3666 22.1088
" />
<path d="M95.4376 20.6312
L95.4702 20.6728
" />
<path d="M95.4376 22.0307
L95.4030 22.0706
" />
<path d="M95.4702 20.6728
L95.5009 20.7159
" />
<path d="M95.4702 21.9892
L95.4376 22.0307
" />
<path d="M95.5009 20.7159
L95.5295 20.7606
" />
<path d="M95.5009 21.9461
L95.4702 21.9892
" />
<path d="M95.5295 20.7606
L95.5560 20.8066
" />
<path d="M95.5295 21.9014
L95.5009 21.9461
" />
<path d="M95.5560 20.8066
L95.5803 20.8540
" />
<path d="M95.5560 21.8554
L95.5295 21.9014
" />
<path d="M95.5803 20.8540
L95.6023 20.9028
" />
<path d="M95.5803 21.8079
L95.5560 21.8554
" />
<path d="M95.6023 20.9028
L95.6220 20.9527
" />
<path d="M95.6023 21.7592
L95.5803 21.8079
" />
<path d="M95.6220 20.9527
L95.6393 21.0038
" />
<path d="M95.6220 21.7093
L95.6023 21.7592
" />
<path d="M95.6393 21.0038
L95.6541 21.0560
" />
<path d="M95.6393 21.6581
L95.6220 21.7093
" />
<path d="M95.6541 21.0560
L95.6664 21.1092
" />
<path d="M95.6541 21.6059
L95.6393 21.6581
" />
<path d="M95.6664 21.1092
L95.6761 21.1634
" />
<path d="M95.6664 21.5527
L95.6541 21.6059
" />
<path d="M95.6761 21.1634
L95.6831 21.2185
" />
<path d="M95.6761 21.4985
L95.6664 21.5527
" />
<path d="M95.6831 21.2185
L95.6873 21.2743
" />
<path d="M95.6831 21.4434
L95.6761 21.4985
" />
<path d="M95.6873 21.2743
L95.6887 21.3309
" />
<path d="M95.6873 21.3876
L95.6831 21.4434
" />
<path d="M95.6887 21.3309
L95.6873 21.3876
" />
<path d="M97.1272 20.7968
L97.1272 6.9968
" />
<path d="M97.1272 39.7970
L97.1272 25.9970
" />
<path d="M97.1272 58.7967
L97.1272 44.9967
" />
<path d="M97.2274 6.8966
L111.0274 6.8966
" />
<path d="M97.2274 25.8968
L111.0274 25.8968
" />
<path d="M97.2274 44.8968
L111.0274 44.8968
" />
<path d="M101.5564 80.4535
L88.0333 76.8301
" />
</g>
<g style="fill:none; 
stroke:#000000; stroke-width:0.2000; stroke-opacity:1; 
stroke-linecap:round; stroke-linejoin:round;">
<path d="M104.1769,83.0017 C103.9635,82.9373 103.7442,82.8939 103.5223,82.8722" />
<path d="M104.1769 83.0017
L118.4710 91.2628
" />
</g>
<g style="fill:none; 
stroke:#000000; stroke-width:0.2646; stroke-opacity:1; 
stroke-linecap:round; stroke-linejoin:round;">
<path d="M105.1797 66.9305
L101.5564 80.4535
" />
<path d="M107.2389 69.8308
L107.2403 69.7743
" />
<path d="M107.2403 69.7743
L107.2445 69.7184
" />
<path d="M107.2403 69.8875
L107.2389 69.8308
" />
<path d="M107.2445 69.7184
L107.2515 69.6634
" />
<path d="M107.2445 69.9434
L107.2403 69.8875
" />
<path d="M107.2515 69.6634
L107.2612 69.6093
" />
<path d="M107.2515 69.9984
L107.2445 69.9434
" />
<path d="M107.2612 69.6093
L107.2735 69.5561
" />
<path d="M107.2612 70.0526
L107.2515 69.9984
" />
<path d="M107.2735 69.5561
L107.2883 69.5039
" />
<path d="M107.2735 70.1059
L107.2612 70.0526
" />
<path d="M107.2883 69.5039
L107.3056 69.4528
" />
<path d="M107.2883 70.1581
L107.2735 70.1059
" />
<path d="M107.3056 69.4528
L107.3253 69.4029
" />
<path d="M107.3056 70.2092
L107.2883 70.1581
" />
<path d="M107.3253 69.4029
L107.3473 69.3542
" />
<path d="M107.3253 70.2591
L107.3056 70.2092
" />
<path d="M107.3473 69.3542
L107.3716 69.3068
" />
<path d="M107.3473 70.3079
L107.3253 70.2591
" />
<path d="M107.3716 69.3068
L107.3981 69.2607
" />
<path d="M107.3716 70.3553
L107.3473 70.3079
" />
<path d="M107.3981 69.2607
L107.4267 69.2161
" />
<path d="M107.3981 70.4014
L107.3716 70.3553
" />
<path d="M107.4267 69.2161
L107.4574 69.1730
" />
<path d="M107.4267 70.4460
L107.3981 70.4014
" />
<path d="M107.4574 69.1730
L107.4900 69.1315
" />
<path d="M107.4574 70.4891
L107.4267 70.4460
" />
<path d="M107.4900 69.1315
L107.5246 69.0916
" />
<path d="M107.4900 70.5307
L107.4574 70.4891
" />
<path d="M107.5246 69.0916
L107.5610 69.0534
" />
<path d="M107.5246 70.5706
L107.4900 70.5307
" />
<path d="M107.5610 69.0534
L107.5992 69.0170
" />
<path d="M107.5610 70.6088
L107.5246 70.5706
" />
<path d="M107.5992 69.0170
L107.6391 68.9824
" />
<path d="M107.5992 70.6452
L107.5610 70.6088
" />
<path d="M107.6391 68.9824
L107.6807 68.9497
" />
<path d="M107.6391 70.6797
L107.5992 70.6452
" />
<path d="M107.6807 68.9497
L107.7238 68.9191
" />
<path d="M107.6807 70.7124
L107.6391 70.6797
" />
<path d="M107.7238 68.9191
L107.7685 68.8905
" />
<path d="M107.7238 70.7430
L107.6807 70.7124
" />
<path d="M107.7685 68.8905
L107.8145 68.8640
" />
<path d="M107.7685 70.7716
L107.7238 70.7430
" />
<path d="M107.8145 68.8640
L107.8619 68.8397
" />
<path d="M107.8145 70.7981
L107.7685 70.7716
" />
<path d="M107.8619 68.8397
L107.9107 68.8177
" />
<path d="M107.8619 70.8224
L107.8145 70.7981
" />
<path d="M107.9107 68.8177
L107.9606 68.7980
" />
<path d="M107.9107 70.8444
L107.8619 70.8224
" />
<path d="M107.9606 68.7980
L108.0117 68.7807
" />
<path d="M107.9606 70.8641
L107.9107 70.8444
" />
<path d="M108.0117 68.7807
L108.0639 68.7659
" />
<path d="M108.0117 70.8814
L107.9606 70.8641
" />
<path d="M108.0639 68.7659
L108.1171 68.7536
" />
<path d="M108.0639 70.8962
L108.0117 70.8814
" />
<path d="M108.1171 68.7536
L108.1713 68.7439
" />
<path d="M108.1171 70.9085
L108.0639 70.8962
" />
<path d="M108.1713 68.7439
L108.2264 68.7369
" />
<path d="M108.1713 70.9181
L108.1171 70.9085
" />
<path d="M108.2264 68.7369
L108.2822 68.7327
" />
<path d="M108.2264 70.9251
L108.1713 70.9181
" />
<path d="M108.2822 68.7327
L108.3388 68.7312
" />
<path d="M108.2822 70.9294
L108.2264 70.9251
" />
<path d="M108.3388 68.7312
L108.3954 68.7327
" />
<path d="M108.3388 70.9308
L108.2822 70.9294
" />
<path d="M108.3954 68.7327
L108.4513 68.7369
" />
<path d="M108.3954 70.9294
L108.3388 70.9308
" />
<path d="M108.4513 68.7369
L108.5063 68.7439
" />
<path d="M108.4513 70.9251
L108.3954 70.9294
" />
<path d="M108.5063 68.7439
L108.5605 68.7536
" />
<path d="M108.5063 70.9181
L108.4513 70.9251
" />
<path d="M108.5605 68.7536
L108.6137 68.7659
" />
<path d="M108.5605 70.9085
L108.5063 70.9181
" />
<path d="M108.6137 68.7659
L108.6659 68.7807
" />
<path d="M108.6137 70.8962
L108.5605 70.9085
" />
<path d="M108.6659 68.7807
L108.7170 68.7980
" />
<path d="M108.6659 70.8814
L108.6137 70.8962
" />
<path d="M108.7170 68.7980
L108.7670 68.8177
" />
<path d="M108.7170 70.8641
L108.6659 70.8814
" />
<path d="M108.7670 68.8177
L108.8157 68.8397
" />
<path d="M108.7670 70.8444
L108.7170 70.8641
" />
<path d="M108.8157 68.8397
L108.8631 68.8640
" />
<path d="M108.8157 70.8224
L108.7670 70.8444
" />
<path d="M108.8631 68.8640
L108.9092 68.8905
" />
<path d="M108.8631 70.7981
L108.8157 70.8224
" />
<path d="M108.9092 68.8905
L108.9538 68.9191
" />
<path d="M108.9092 70.7716
L108.8631 70.7981
" />
<path d="M108.9538 68.9191
L108.9969 68.9497
" />
<path d="M108.9538 70.7430
L108.9092 70.7716
" />
<path d="M108.9969 68.9497
L109.0385 68.9824
" />
<path d="M108.9969 70.7124
L108.9538 70.7430
" />
<path d="M109.0385 68.9824
L109.0784 69.0170
" />
<path d="M109.0385 70.6797
L108.9969 70.7124
" />
<path d="M109.0784 69.0170
L109.1166 69.0534
" />
<path d="M109.0784 70.6452
L109.0385 70.6797
" />
<path d="M109.1166 69.0534
L109.1530 69.0916
" />
<path d="M109.1166 70.6088
L109.0784 70.6452
" />
<path d="M109.1530 69.0916
L109.1876 69.1315
" />
<path d="M109.1530 70.5706
L109.1166 70.6088
" />
<path d="M109.1876 69.1315
L109.2202 69.1730
" />
<path d="M109.1876 70.5307
L109.1530 70.5706
" />
<path d="M109.2202 69.1730
L109.2509 69.2161
" />
<path d="M109.2202 70.4891
L109.1876 70.5307
" />
<path d="M109.2509 69.2161
L109.2795 69.2607
" />
<path d="M109.2509 70.4460
L109.2202 70.4891
" />
<path d="M109.2795 69.2607
L109.3060 69.3068
" />
<path d="M109.2795 70.4014
L109.2509 70.4460
" />
<path d="M109.3028 78.1824
L116.3026 66.0581
" />
<path d="M109.3060 69.3068
L109.3303 69.3542
" />
<path d="M109.3060 70.3553
L109.2795 70.4014
" />
<path d="M109.3303 69.3542
L109.3523 69.4029
" />
<path d="M109.3303 70.3079
L109.3060 70.3553
" />
<path d="M109.3523 69.4029
L109.3720 69.4528
" />
<path d="M109.3523 70.2591
L109.3303 70.3079
" />
<path d="M109.3720 69.4528
L109.3893 69.5039
" />
<path d="M109.3720 70.2092
L109.3523 70.2591
" />
<path d="M109.3893 69.5039
L109.4041 69.5561
" />
<path d="M109.3893 70.1581
L109.3720 70.2092
" />
<path d="M109.4041 69.5561
L109.4164 69.6093
" />
<path d="M109.4041 70.1059
L109.3893 70.1581
" />
<path d="M109.4164 69.6093
L109.4261 69.6634
" />
<path d="M109.4164 70.0526
L109.4041 70.1059
" />
<path d="M109.4261 69.6634
L109.4331 69.7184
" />
<path d="M109.4261 69.9984
L109.4164 70.0526
" />
<path d="M109.4331 69.7184
L109.4373 69.7743
" />
<path d="M109.4331 69.9434
L109.4261 69.9984
" />
<path d="M109.4373 69.7743
L109.4388 69.8308
" />
<path d="M109.4373 69.8875
L109.4331 69.9434
" />
<path d="M109.4388 69.8308
L109.4373 69.8875
" />
<path d="M111.0274 20.8969
L97.2274 20.8969
" />
<path d="M111.0274 39.8972
L97.2274 39.8972
" />
<path d="M111.0274 58.8967
L97.2274 58.8967
" />
<path d="M111.1275 6.9968
L111.1275 20.7968
" />
<path d="M111.1275 25.9970
L111.1275 39.7970
" />
<path d="M111.1275 44.9967
L111.1275 58.7967
" />
</g>
<g style="fill:none; 
stroke:#000000; stroke-width:0.2000; stroke-opacity:1; 
stroke-linecap:round; stroke-linejoin:round;">
<path d="M112.6016 4.8498
L94.6006 4.8498
" />
</g>
<g style="fill:none; 
stroke:#000000; stroke-width:0.2646; stroke-opacity:1; 
stroke-linecap:round; stroke-linejoin:round;">
<path d="M112.6152 4.8884
L94.6143 4.8884
" />
<path d="M112.6409 4.8911
L112.6151 4.8905
" />
<path d="M112.6663 4.8930
L112.6409 4.8911
" />
<path d="M112.6913 4.8962
L112.6663 4.8930
" />
<path d="M112.7159 4.9006
L112.6913 4.8962
" />
<path d="M112.7401 4.9062
L112.7159 4.9006
" />
<path d="M112.7639 4.9130
L112.7401 4.9062
" />
<path d="M112.7871 4.9208
L112.7639 4.9130
" />
<path d="M112.8098 4.9298
L112.7871 4.9208
" />
<path d="M112.8320 4.9398
L112.8098 4.9298
" />
<path d="M112.8536 4.9508
L112.8320 4.9398
" />
<path d="M112.8745 4.9629
L112.8536 4.9508
" />
<path d="M112.8948 4.9759
L112.8745 4.9629
" />
<path d="M112.9144 4.9898
L112.8948 4.9759
" />
<path d="M112.9333 5.0047
L112.9144 4.9898
" />
<path d="M112.9514 5.0204
L112.9333 5.0047
" />
<path d="M112.9688 5.0370
L112.9514 5.0204
" />
<path d="M112.9854 5.0543
L112.9688 5.0370
" />
<path d="M113.0011 5.0725
L112.9854 5.0543
" />
<path d="M113.0159 5.0913
L113.0011 5.0725
" />
<path d="M113.0299 5.1109
L113.0159 5.0913
" />
<path d="M113.0429 5.1312
L113.0299 5.1109
" />
<path d="M113.0549 5.1522
L113.0429 5.1312
" />
<path d="M113.0659 5.1737
L113.0549 5.1522
" />
<path d="M113.0759 5.1959
L113.0659 5.1737
" />
<path d="M113.0849 5.2186
L113.0759 5.1959
" />
<path d="M113.0927 5.2418
L113.0849 5.2186
" />
<path d="M113.0945 34.8830
L113.1126 55.9506
" />
</g>
<g style="fill:none; 
stroke:#000000; stroke-width:0.2000; stroke-opacity:1; 
stroke-linecap:round; stroke-linejoin:round;">
<path d="M113.0994 5.3502
L113.1017 6.6019
" />
</g>
<g style="fill:none; 
stroke:#000000; stroke-width:0.2646; stroke-opacity:1; 
stroke-linecap:round; stroke-linejoin:round;">
<path d="M113.0994 5.2655
L113.0927 5.2418
" />
</g>
<g style="fill:none; 
stroke:#000000; stroke-width:0.2000; stroke-opacity:1; 
stroke-linecap:round; stroke-linejoin:round;">
<path d="M113.1017,5.3519 C113.1017,5.0758 112.8780,4.8519 112.6018,4.8518" />
</g>
<g style="fill:none; 
stroke:#000000; stroke-width:0.2646; stroke-opacity:1; 
stroke-linecap:round; stroke-linejoin:round;">
<path d="M113.1050 5.2897
L113.0994 5.2655
" />
<path d="M113.1093 5.3143
L113.1050 5.2897
" />
<path d="M113.1125 5.3393
L113.1093 5.3143
" />
<path d="M113.1126 55.9506
L113.1155 56.0000
" />
<path d="M113.1130 5.3886
L113.0945 34.8830
" />
<path d="M113.1144 5.3646
L113.1125 5.3393
" />
<path d="M113.1150 5.3903
L113.1144 5.3646
" />
<path d="M113.1155 56.0000
L113.1212 56.0488
" />
<path d="M113.1212 56.0488
L113.1297 56.0969
" />
<path d="M113.1297 56.0969
L113.1408 56.1443
" />
<path d="M113.1408 56.1443
L113.1547 56.1909
" />
<path d="M113.1547 56.1909
L113.1711 56.2364
" />
<path d="M113.1711 56.2364
L113.1900 56.2809
" />
<path d="M113.1900 56.2809
L113.2114 56.3242
" />
<path d="M113.2114 56.3242
L113.2353 56.3663
" />
<path d="M113.2353 56.3663
L113.2615 56.4069
" />
<path d="M113.2615 56.4069
L113.2900 56.4460
" />
<path d="M113.2900 56.4460
L113.3207 56.4836
" />
<path d="M113.3207 56.4836
L113.3537 56.5194
" />
<path d="M113.3537 56.5194
L113.3887 56.5534
" />
<path d="M113.3887 56.5534
L113.4259 56.5855
" />
<path d="M113.4259 56.5855
L113.4650 56.6156
" />
<path d="M116.3026 66.0581
L128.4268 73.0583
" />
</g>
<g style="fill:none; 
stroke:#000000; stroke-width:0.2000; stroke-opacity:1; 
stroke-linecap:round; stroke-linejoin:round;">
<path d="M118.4710,91.2628 C119.1061,91.6909 119.9679,91.5230 120.3960,90.8879" />
<path d="M120.3960,90.8879 C120.3970,90.8864 120.3981,90.8849 120.3991,90.8833" />
</g>
<g style="fill:none; 
stroke:#000000; stroke-width:0.2646; stroke-opacity:1; 
stroke-linecap:round; stroke-linejoin:round;">
<path d="M120.4104 90.9207
L132.7650 69.4655
" />
<path d="M121.4270 85.1826
L109.3028 78.1824
" />
<path d="M128.4268 73.0583
L121.4270 85.1826
" />
<path d="M132.3838 67.5347
L113.4633 56.6155
" />
<path d="M132.3865 67.5378
L132.3859 67.5374
" />
<path d="M132.3872 67.5382
L132.3865 67.5378
" />
<path d="M132.3878 67.5386
L132.3872 67.5382
" />
<path d="M132.3883 67.5390
L132.3878 67.5386
" />
<path d="M132.3889 67.5394
L132.3883 67.5390
" />
<path d="M132.3894 67.5398
L132.3889 67.5394
" />
<path d="M132.3905 67.5406
L132.3894 67.5398
" />
<path d="M132.4486 67.5819
L132.3905 67.5406
" />
<path d="M132.5040 67.6257
L132.4486 67.5819
" />
<path d="M132.5566 67.6718
L132.5040 67.6257
" />
<path d="M132.6065 67.7201
L132.5566 67.6718
" />
<path d="M132.6534 67.7704
L132.6065 67.7201
" />
<path d="M132.6976 67.8227
L132.6534 67.7704
" />
<path d="M132.7388 67.8768
L132.6976 67.8227
" />
<path d="M132.7655 69.4653
L132.8038 69.4052
" />
<path d="M132.7771 67.9325
L132.7388 67.8768
" />
<path d="M132.8038 69.4052
L132.8388 69.3438
" />
<path d="M132.8126 67.9899
L132.7771 67.9325
" />
<path d="M132.8388 69.3438
L132.8702 69.2813
" />
<path d="M132.8450 68.0487
L132.8126 67.9899
" />
<path d="M132.8702 69.2813
L132.8983 69.2179
" />
<path d="M132.8745 68.1088
L132.8450 68.0487
" />
<path d="M132.8983 69.2179
L132.9229 69.1536
" />
<path d="M132.9010 68.1702
L132.8745 68.1088
" />
<path d="M132.9229 69.1536
L132.9442 69.0886
" />
<path d="M132.9245 68.2326
L132.9010 68.1702
" />
<path d="M132.9442 69.0886
L132.9621 69.0230
" />
<path d="M132.9449 68.2960
L132.9245 68.2326
" />
<path d="M132.9621 69.0230
L132.9767 68.9569
" />
<path d="M132.9623 68.3603
L132.9449 68.2960
" />
<path d="M132.9766 68.4253
L132.9623 68.3603
" />
<path d="M132.9767 68.9569
L132.9880 68.8904
" />
<path d="M132.9877 68.4909
L132.9766 68.4253
" />
<path d="M132.9880 68.8904
L132.9960 68.8237
" />
<path d="M132.9958 68.5570
L132.9877 68.4909
" />
<path d="M132.9960 68.8237
L133.0008 68.7569
" />
<path d="M133.0006 68.6234
L132.9958 68.5570
" />
<path d="M133.0008 68.7569
L133.0023 68.6901
" />
<path d="M133.0023 68.6901
L133.0006 68.6234
" />
</g> 
</svg>
