<?xml version="1.0" standalone="no"?>
 <!DOCTYPE svg PUBLIC "-//W3C//DTD SVG 1.1//EN" 
 "http://www.w3.org/Graphics/SVG/1.1/DTD/svg11.dtd"> 
<svg
  xmlns:svg="http://www.w3.org/2000/svg"
  xmlns="http://www.w3.org/2000/svg"
  xmlns:xlink="http://www.w3.org/1999/xlink"
  xmlns:inkscape="http://www.inkscape.org/namespaces/inkscape"
  version="1.1"
  width="19.7104mm" height="59.7408mm" viewBox="0.0000 0.0000 19.7104 59.7408">
<title>SVG Image created as screen_cover.svg date 2026-05-07T01:13:54 </title>
  <desc>Image generated by PCBNEW </desc>
<g style="fill:#000000; fill-opacity:1.0000;stroke:#000000; stroke-opacity:1.0000;
stroke-linecap:round; stroke-linejoin:round;"
 transform="translate(0 0) scale(1 1)">
</g>
<g style="fill:none; 
stroke:#000000; stroke-width:0.2646; stroke-opacity:1; 
stroke-linecap:round; stroke-linejoin:round;">
<path d="M0.0000 0.5027
L0.0006 0.4770
" />
<path d="M0.0000 29.2778
L0.0000 0.5027
" />
<path d="M0.0000 29.2778
L0.0000 48.4505
" />
<path d="M0.0003 48.4672
L0.0000 48.4505
" />
<path d="M0.0006 0.4770
L0.0026 0.4516
" />
<path d="M0.0011 48.4839
L0.0003 48.4672
" />
<path d="M0.0025 48.5004
L0.0011 48.4839
" />
<path d="M0.0026 0.4516
L0.0058 0.4265
" />
<path d="M0.0044 48.5168
L0.0025 48.5004
" />
<path d="M0.0058 0.4265
L0.0101 0.4019
" />
<path d="M0.0068 48.5331
L0.0044 48.5168
" />
<path d="M0.0098 48.5492
L0.0068 48.5331
" />
<path d="M0.0101 0.4019
L0.0157 0.3777
" />
<path d="M0.0133 48.5652
L0.0098 48.5492
" />
<path d="M0.0157 0.3777
L0.0225 0.3540
" />
<path d="M0.0173 48.5811
L0.0133 48.5652
" />
<path d="M0.0218 48.5968
L0.0173 48.5811
" />
<path d="M0.0225 0.3540
L0.0303 0.3307
" />
<path d="M0.0268 48.6122
L0.0218 48.5968
" />
<path d="M0.0303 0.3307
L0.0393 0.3080
" />
<path d="M0.0323 48.6275
L0.0268 48.6122
" />
<path d="M0.0383 48.6426
L0.0323 48.6275
" />
<path d="M0.0393 0.3080
L0.0493 0.2859
" />
<path d="M0.0448 48.6575
L0.0383 48.6426
" />
<path d="M0.0493 0.2859
L0.0603 0.2643
" />
<path d="M0.0517 48.6721
L0.0448 48.6575
" />
<path d="M0.0591 48.6865
L0.0517 48.6721
" />
<path d="M0.0603 0.2643
L0.0723 0.2433
" />
<path d="M0.0670 48.7007
L0.0591 48.6865
" />
<path d="M0.0723 0.2433
L0.0853 0.2230
" />
<path d="M0.0753 48.7145
L0.0670 48.7007
" />
<path d="M0.0840 48.7281
L0.0753 48.7145
" />
<path d="M0.0853 0.2230
L0.0993 0.2034
" />
<path d="M0.0932 48.7415
L0.0840 48.7281
" />
<path d="M0.0993 0.2034
L0.1141 0.1845
" />
<path d="M0.1029 48.7545
L0.0932 48.7415
" />
<path d="M0.1129 48.7672
L0.1029 48.7545
" />
<path d="M0.1141 0.1845
L0.1298 0.1664
" />
<path d="M0.1234 48.7796
L0.1129 48.7672
" />
<path d="M0.1298 0.1664
L0.1464 0.1490
" />
<path d="M0.1343 48.7917
L0.1234 48.7796
" />
<path d="M0.1456 48.8034
L0.1343 48.7917
" />
<path d="M0.1464 0.1490
L0.1637 0.1324
" />
<path d="M0.1573 48.8147
L0.1456 48.8034
" />
<path d="M0.1637 0.1324
L0.1819 0.1167
" />
<path d="M0.1694 48.8257
L0.1573 48.8147
" />
<path d="M0.1818 48.8363
L0.1694 48.8257
" />
<path d="M0.1819 0.1167
L0.2007 0.1019
" />
<path d="M0.1947 48.8466
L0.1818 48.8363
" />
<path d="M0.2007 0.1019
L0.2203 0.0879
" />
<path d="M0.2079 48.8564
L0.1947 48.8466
" />
<path d="M0.2203 0.0879
L0.2406 0.0749
" />
<path d="M0.2215 48.8658
L0.2079 48.8564
" />
<path d="M0.2355 48.8748
L0.2215 48.8658
" />
<path d="M0.2406 0.0749
L0.2616 0.0629
" />
<path d="M0.2498 48.8834
L0.2355 48.8748
" />
<path d="M0.2616 0.0629
L0.2831 0.0518
" />
<path d="M0.2831 0.0518
L0.3053 0.0418
" />
<path d="M0.3053 0.0418
L0.3280 0.0328
" />
<path d="M0.3280 0.0328
L0.3512 0.0250
" />
<path d="M0.3512 0.0250
L0.3749 0.0182
" />
<path d="M0.3749 0.0182
L0.3991 0.0126
" />
<path d="M0.3991 0.0126
L0.4237 0.0082
" />
<path d="M0.4237 0.0082
L0.4488 0.0051
" />
<path d="M0.4488 0.0051
L0.4742 0.0031
" />
<path d="M0.4742 0.0031
L0.4999 0.0025
" />
<path d="M0.4999 0.0025
L19.2187 0.0000
" />
<path d="M1.5485 47.4844
L1.5500 47.4278
" />
<path d="M1.5500 47.4278
L1.5542 47.3720
" />
<path d="M1.5500 47.5411
L1.5485 47.4844
" />
<path d="M1.5542 47.3720
L1.5612 47.3169
" />
<path d="M1.5542 47.5970
L1.5500 47.5411
" />
<path d="M1.5612 47.3169
L1.5709 47.2628
" />
<path d="M1.5612 47.6520
L1.5542 47.5970
" />
<path d="M1.5709 47.2628
L1.5831 47.2096
" />
<path d="M1.5709 47.7062
L1.5612 47.6520
" />
<path d="M1.5831 47.2096
L1.5979 47.1574
" />
<path d="M1.5831 47.7595
L1.5709 47.7062
" />
<path d="M1.5979 47.1574
L1.6152 47.1062
" />
<path d="M1.5979 47.8117
L1.5831 47.7595
" />
<path d="M1.6152 47.1062
L1.6349 47.0563
" />
<path d="M1.6152 47.8628
L1.5979 47.8117
" />
<path d="M1.6349 47.0563
L1.6569 47.0076
" />
<path d="M1.6349 47.9127
L1.6152 47.8628
" />
<path d="M1.6569 47.0076
L1.6812 46.9601
" />
<path d="M1.6569 47.9615
L1.6349 47.9127
" />
<path d="M1.6812 46.9601
L1.7077 46.9141
" />
<path d="M1.6812 48.0089
L1.6569 47.9615
" />
<path d="M1.7077 46.9141
L1.7363 46.8695
" />
<path d="M1.7077 48.0550
L1.6812 48.0089
" />
<path d="M1.7363 46.8695
L1.7669 46.8263
" />
<path d="M1.7363 48.0996
L1.7077 48.0550
" />
<path d="M1.7669 46.8263
L1.7996 46.7848
" />
<path d="M1.7669 48.1427
L1.7363 48.0996
" />
<path d="M1.7996 46.7848
L1.8342 46.7449
" />
<path d="M1.7996 48.1843
L1.7669 48.1427
" />
<path d="M1.8342 46.7449
L1.8706 46.7067
" />
<path d="M1.8342 48.2242
L1.7996 48.1843
" />
<path d="M1.8706 46.7067
L1.9088 46.6702
" />
<path d="M1.8706 48.2624
L1.8342 48.2242
" />
<path d="M1.9088 46.6702
L1.9487 46.6357
" />
<path d="M1.9088 48.2988
L1.8706 48.2624
" />
<path d="M1.9487 46.6357
L1.9902 46.6030
" />
<path d="M1.9487 48.3333
L1.9088 48.2988
" />
<path d="M1.9902 46.6030
L2.0333 46.5723
" />
<path d="M1.9902 48.3660
L1.9487 48.3333
" />
<path d="M2.0333 46.5723
L2.0780 46.5437
" />
<path d="M2.0333 48.3966
L1.9902 48.3660
" />
<path d="M2.0780 46.5437
L2.1240 46.5172
" />
<path d="M2.0780 48.4252
L2.0333 48.3966
" />
<path d="M2.1240 46.5172
L2.1715 46.4930
" />
<path d="M2.1240 48.4517
L2.0780 48.4252
" />
<path d="M2.1715 46.4930
L2.2202 46.4709
" />
<path d="M2.1715 48.4760
L2.1240 48.4517
" />
<path d="M2.2202 46.4709
L2.2701 46.4512
" />
<path d="M2.2202 48.4980
L2.1715 48.4760
" />
<path d="M2.2701 46.4512
L2.3213 46.4339
" />
<path d="M2.2701 48.5177
L2.2202 48.4980
" />
<path d="M2.3213 46.4339
L2.3735 46.4191
" />
<path d="M2.3213 48.5350
L2.2701 48.5177
" />
<path d="M2.3735 46.4191
L2.4267 46.4068
" />
<path d="M2.3735 48.5498
L2.3213 48.5350
" />
<path d="M2.4267 46.4068
L2.4809 46.3972
" />
<path d="M2.4267 48.5621
L2.3735 48.5498
" />
<path d="M2.4809 46.3972
L2.5359 46.3902
" />
<path d="M2.4809 48.5717
L2.4267 48.5621
" />
<path d="M2.5359 46.3902
L2.5918 46.3859
" />
<path d="M2.5359 48.5787
L2.4809 48.5717
" />
<path d="M2.5918 46.3859
L2.6485 46.3845
" />
<path d="M2.5918 48.5830
L2.5359 48.5787
" />
<path d="M2.6485 46.3845
L2.7051 46.3859
" />
<path d="M2.6485 48.5844
L2.5918 48.5830
" />
<path d="M2.7051 46.3859
L2.7609 46.3902
" />
<path d="M2.7051 48.5830
L2.6485 48.5844
" />
<path d="M2.7609 46.3902
L2.8160 46.3972
" />
<path d="M2.7609 48.5787
L2.7051 48.5830
" />
<path d="M2.8160 46.3972
L2.8702 46.4068
" />
<path d="M2.8160 48.5717
L2.7609 48.5787
" />
<path d="M2.8702 46.4068
L2.9234 46.4191
" />
<path d="M2.8702 48.5621
L2.8160 48.5717
" />
<path d="M2.9234 46.4191
L2.9756 46.4339
" />
<path d="M2.9234 48.5498
L2.8702 48.5621
" />
<path d="M2.9756 46.4339
L3.0267 46.4512
" />
<path d="M2.9756 48.5350
L2.9234 48.5498
" />
<path d="M3.0267 46.4512
L3.0766 46.4709
" />
<path d="M3.0267 48.5177
L2.9756 48.5350
" />
<path d="M3.0766 46.4709
L3.1254 46.4930
" />
<path d="M3.0766 48.4980
L3.0267 48.5177
" />
<path d="M3.1254 46.4930
L3.1728 46.5172
" />
<path d="M3.1254 48.4760
L3.0766 48.4980
" />
<path d="M3.1728 46.5172
L3.2189 46.5437
" />
<path d="M3.1728 48.4517
L3.1254 48.4760
" />
<path d="M3.2189 46.5437
L3.2635 46.5723
" />
<path d="M3.2189 48.4252
L3.1728 48.4517
" />
<path d="M3.2635 46.5723
L3.3066 46.6030
" />
<path d="M3.2635 48.3966
L3.2189 48.4252
" />
<path d="M3.3066 46.6030
L3.3482 46.6357
" />
<path d="M3.3066 48.3660
L3.2635 48.3966
" />
<path d="M3.3482 46.6357
L3.3881 46.6702
" />
<path d="M3.3482 48.3333
L3.3066 48.3660
" />
<path d="M3.3881 46.6702
L3.4263 46.7067
" />
<path d="M3.3881 48.2988
L3.3482 48.3333
" />
<path d="M3.4263 46.7067
L3.4627 46.7449
" />
<path d="M3.4263 48.2624
L3.3881 48.2988
" />
<path d="M3.4627 46.7449
L3.4973 46.7848
" />
<path d="M3.4627 48.2242
L3.4263 48.2624
" />
<path d="M3.4973 46.7848
L3.5299 46.8263
" />
<path d="M3.4973 48.1843
L3.4627 48.2242
" />
<path d="M3.5299 46.8263
L3.5606 46.8695
" />
<path d="M3.5299 48.1427
L3.4973 48.1843
" />
<path d="M3.5606 46.8695
L3.5892 46.9141
" />
<path d="M3.5606 48.0996
L3.5299 48.1427
" />
<path d="M3.5892 46.9141
L3.6157 46.9601
" />
<path d="M3.5892 48.0550
L3.5606 48.0996
" />
<path d="M3.6157 46.9601
L3.6400 47.0076
" />
<path d="M3.6157 48.0089
L3.5892 48.0550
" />
<path d="M3.6400 47.0076
L3.6620 47.0563
" />
<path d="M3.6400 47.9615
L3.6157 48.0089
" />
<path d="M3.6620 47.0563
L3.6817 47.1062
" />
<path d="M3.6620 47.9127
L3.6400 47.9615
" />
<path d="M3.6817 47.1062
L3.6990 47.1574
" />
<path d="M3.6817 47.8628
L3.6620 47.9127
" />
<path d="M3.6990 47.1574
L3.7138 47.2096
" />
<path d="M3.6990 47.8117
L3.6817 47.8628
" />
<path d="M3.7138 47.2096
L3.7261 47.2628
" />
<path d="M3.7138 47.7595
L3.6990 47.8117
" />
<path d="M3.7261 47.2628
L3.7358 47.3169
" />
<path d="M3.7261 47.7062
L3.7138 47.7595
" />
<path d="M3.7358 47.3169
L3.7428 47.3720
" />
<path d="M3.7358 47.6520
L3.7261 47.7062
" />
<path d="M3.7428 47.3720
L3.7470 47.4278
" />
<path d="M3.7428 47.5970
L3.7358 47.6520
" />
<path d="M3.7470 47.4278
L3.7484 47.4844
" />
<path d="M3.7470 47.5411
L3.7428 47.5970
" />
<path d="M3.7484 47.4844
L3.7470 47.5411
" />
<path d="M15.9803 56.0055
L15.9818 55.9489
" />
<path d="M15.9818 55.9489
L15.9860 55.8930
" />
<path d="M15.9818 56.0621
L15.9803 56.0055
" />
<path d="M15.9860 55.8930
L15.9930 55.8379
" />
<path d="M15.9860 56.1180
L15.9818 56.0621
" />
<path d="M15.9930 55.8379
L16.0027 55.7838
" />
<path d="M15.9930 56.1730
L15.9860 56.1180
" />
<path d="M16.0027 55.7838
L16.0150 55.7305
" />
<path d="M16.0027 56.2272
L15.9930 56.1730
" />
<path d="M16.0150 55.7305
L16.0298 55.6783
" />
<path d="M16.0150 56.2804
L16.0027 56.2272
" />
<path d="M16.0298 55.6783
L16.0471 55.6272
" />
<path d="M16.0298 56.3326
L16.0150 56.2804
" />
<path d="M16.0471 55.6272
L16.0668 55.5772
" />
<path d="M16.0471 56.3837
L16.0298 56.3326
" />
<path d="M16.0668 55.5772
L16.0888 55.5285
" />
<path d="M16.0668 56.4337
L16.0471 56.3837
" />
<path d="M16.0888 55.5285
L16.1131 55.4811
" />
<path d="M16.0888 56.4824
L16.0668 56.4337
" />
<path d="M16.1131 55.4811
L16.1396 55.4350
" />
<path d="M16.1131 56.5298
L16.0888 56.4824
" />
<path d="M16.1396 55.4350
L16.1682 55.3904
" />
<path d="M16.1396 56.5759
L16.1131 56.5298
" />
<path d="M16.1682 55.3904
L16.1989 55.3473
" />
<path d="M16.1682 56.6205
L16.1396 56.5759
" />
<path d="M16.1989 55.3473
L16.2315 55.3057
" />
<path d="M16.1989 56.6637
L16.1682 56.6205
" />
<path d="M16.2315 55.3057
L16.2661 55.2658
" />
<path d="M16.2315 56.7052
L16.1989 56.6637
" />
<path d="M16.2661 55.2658
L16.3025 55.2276
" />
<path d="M16.2661 56.7451
L16.2315 56.7052
" />
<path d="M16.3025 55.2276
L16.3407 55.1912
" />
<path d="M16.3025 56.7833
L16.2661 56.7451
" />
<path d="M16.3407 55.1912
L16.3806 55.1566
" />
<path d="M16.3407 56.8197
L16.3025 56.7833
" />
<path d="M16.3806 55.1566
L16.4222 55.1240
" />
<path d="M16.3806 56.8543
L16.3407 56.8197
" />
<path d="M16.4222 55.1240
L16.4653 55.0933
" />
<path d="M16.4222 56.8870
L16.3806 56.8543
" />
<path d="M16.4653 55.0933
L16.5100 55.0647
" />
<path d="M16.4653 56.9176
L16.4222 56.8870
" />
<path d="M16.5100 55.0647
L16.5560 55.0383
" />
<path d="M16.5100 56.9462
L16.4653 56.9176
" />
<path d="M16.5560 55.0383
L16.6034 55.0140
" />
<path d="M16.5560 56.9727
L16.5100 56.9462
" />
<path d="M16.6034 55.0140
L16.6522 54.9920
" />
<path d="M16.6034 56.9970
L16.5560 56.9727
" />
<path d="M16.6522 54.9920
L16.7021 54.9723
" />
<path d="M16.6522 57.0191
L16.6034 56.9970
" />
<path d="M16.7021 54.9723
L16.7532 54.9550
" />
<path d="M16.7021 57.0387
L16.6522 57.0191
" />
<path d="M16.7532 54.9550
L16.8054 54.9402
" />
<path d="M16.7532 57.0560
L16.7021 57.0387
" />
<path d="M16.8054 54.9402
L16.8586 54.9279
" />
<path d="M16.8054 57.0709
L16.7532 57.0560
" />
<path d="M16.8586 54.9279
L16.9128 54.9182
" />
<path d="M16.8586 57.0831
L16.8054 57.0709
" />
<path d="M16.9128 54.9182
L16.9679 54.9112
" />
<path d="M16.9128 57.0928
L16.8586 57.0831
" />
<path d="M16.9679 54.9112
L17.0237 54.9070
" />
<path d="M16.9679 57.0998
L16.9128 57.0928
" />
<path d="M17.0237 54.9070
L17.0803 54.9056
" />
<path d="M17.0237 57.1041
L16.9679 57.0998
" />
<path d="M17.0803 54.9056
L17.1369 54.9070
" />
<path d="M17.0803 57.1055
L17.0237 57.1041
" />
<path d="M17.1369 54.9070
L17.1928 54.9112
" />
<path d="M17.1369 57.1041
L17.0803 57.1055
" />
<path d="M17.1928 54.9112
L17.2478 54.9182
" />
<path d="M17.1928 57.0998
L17.1369 57.1041
" />
<path d="M17.2478 54.9182
L17.3020 54.9279
" />
<path d="M17.2478 57.0928
L17.1928 57.0998
" />
<path d="M17.3020 54.9279
L17.3552 54.9402
" />
<path d="M17.3020 57.0831
L17.2478 57.0928
" />
<path d="M17.3552 54.9402
L17.4074 54.9550
" />
<path d="M17.3552 57.0709
L17.3020 57.0831
" />
<path d="M17.4074 54.9550
L17.4585 54.9723
" />
<path d="M17.4074 57.0560
L17.3552 57.0709
" />
<path d="M17.4585 54.9723
L17.5085 54.9920
" />
<path d="M17.4585 57.0387
L17.4074 57.0560
" />
<path d="M17.5085 54.9920
L17.5572 55.0140
" />
<path d="M17.5085 57.0191
L17.4585 57.0387
" />
<path d="M17.5572 55.0140
L17.6046 55.0383
" />
<path d="M17.5572 56.9970
L17.5085 57.0191
" />
<path d="M17.6046 55.0383
L17.6507 55.0647
" />
<path d="M17.6046 56.9727
L17.5572 56.9970
" />
<path d="M17.6507 55.0647
L17.6953 55.0933
" />
<path d="M17.6507 56.9462
L17.6046 56.9727
" />
<path d="M17.6953 55.0933
L17.7384 55.1240
" />
<path d="M17.6953 56.9176
L17.6507 56.9462
" />
<path d="M17.7384 55.1240
L17.7800 55.1566
" />
<path d="M17.7384 56.8870
L17.6953 56.9176
" />
<path d="M17.7800 55.1566
L17.8199 55.1912
" />
<path d="M17.7800 56.8543
L17.7384 56.8870
" />
<path d="M17.8199 55.1912
L17.8581 55.2276
" />
<path d="M17.8199 56.8197
L17.7800 56.8543
" />
<path d="M17.8581 55.2276
L17.8945 55.2658
" />
<path d="M17.8581 56.7833
L17.8199 56.8197
" />
<path d="M17.8945 55.2658
L17.9291 55.3057
" />
<path d="M17.8945 56.7451
L17.8581 56.7833
" />
<path d="M17.9291 55.3057
L17.9618 55.3473
" />
<path d="M17.9291 56.7052
L17.8945 56.7451
" />
<path d="M17.9618 55.3473
L17.9924 55.3904
" />
<path d="M17.9618 56.6637
L17.9291 56.7052
" />
<path d="M17.9924 55.3904
L18.0210 55.4350
" />
<path d="M17.9924 56.6205
L17.9618 56.6637
" />
<path d="M18.0210 55.4350
L18.0475 55.4811
" />
<path d="M18.0210 56.5759
L17.9924 56.6205
" />
<path d="M18.0475 55.4811
L18.0718 55.5285
" />
<path d="M18.0475 56.5298
L18.0210 56.5759
" />
<path d="M18.0718 55.5285
L18.0939 55.5772
" />
<path d="M18.0718 56.4824
L18.0475 56.5298
" />
<path d="M18.0939 55.5772
L18.1136 55.6272
" />
<path d="M18.0939 56.4337
L18.0718 56.4824
" />
<path d="M18.1136 55.6272
L18.1308 55.6783
" />
<path d="M18.1136 56.3837
L18.0939 56.4337
" />
<path d="M18.1308 55.6783
L18.1457 55.7305
" />
<path d="M18.1308 56.3326
L18.1136 56.3837
" />
<path d="M18.1457 55.7305
L18.1579 55.7838
" />
<path d="M18.1457 56.2804
L18.1308 56.3326
" />
<path d="M18.1579 55.7838
L18.1676 55.8379
" />
<path d="M18.1579 56.2272
L18.1457 56.2804
" />
<path d="M18.1676 55.8379
L18.1746 55.8930
" />
<path d="M18.1676 56.1730
L18.1579 56.2272
" />
<path d="M18.1746 55.8930
L18.1789 55.9489
" />
<path d="M18.1746 56.1180
L18.1676 56.1730
" />
<path d="M18.1789 55.9489
L18.1803 56.0055
" />
<path d="M18.1789 56.0621
L18.1746 56.1180
" />
<path d="M18.1803 56.0055
L18.1789 56.0621
" />
<path d="M18.9689 59.6865
L0.2498 48.8834
" />
<path d="M19.0004 59.7032
L18.9689 59.6865
" />
<path d="M19.0322 59.7175
L19.0004 59.7032
" />
<path d="M19.0644 59.7294
L19.0322 59.7175
" />
<path d="M19.0968 59.7389
L19.0644 59.7294
" />
<path d="M19.1293 59.7460
L19.0968 59.7389
" />
<path d="M19.1619 59.7509
L19.1293 59.7460
" />
<path d="M19.1944 59.7536
L19.1619 59.7509
" />
<path d="M19.2187 0.0000
L19.2444 0.0007
" />
<path d="M19.2267 59.7541
L19.1944 59.7536
" />
<path d="M19.2444 0.0007
L19.2698 0.0026
" />
<path d="M19.2588 59.7525
L19.2267 59.7541
" />
<path d="M19.2698 0.0026
L19.2948 0.0058
" />
<path d="M19.2905 59.7488
L19.2588 59.7525
" />
<path d="M19.2948 0.0058
L19.3195 0.0102
" />
<path d="M19.3195 0.0102
L19.3437 0.0158
" />
<path d="M19.3219 59.7431
L19.2905 59.7488
" />
<path d="M19.3437 0.0158
L19.3674 0.0225
" />
<path d="M19.3527 59.7355
L19.3219 59.7431
" />
<path d="M19.3674 0.0225
L19.3906 0.0304
" />
<path d="M19.3829 59.7259
L19.3527 59.7355
" />
<path d="M19.3906 0.0304
L19.4133 0.0393
" />
<path d="M19.4124 59.7146
L19.3829 59.7259
" />
<path d="M19.4133 0.0393
L19.4355 0.0493
" />
<path d="M19.4355 0.0493
L19.4571 0.0604
" />
<path d="M19.4411 59.7014
L19.4124 59.7146
" />
<path d="M19.4571 0.0604
L19.4780 0.0724
" />
<path d="M19.4689 59.6865
L19.4411 59.7014
" />
<path d="M19.4780 0.0724
L19.4983 0.0854
" />
<path d="M19.4957 59.6699
L19.4689 59.6865
" />
<path d="M19.4983 0.0854
L19.5179 0.0994
" />
<path d="M19.5179 0.0994
L19.5368 0.1142
" />
<path d="M19.5215 59.6516
L19.4957 59.6699
" />
<path d="M19.5368 0.1142
L19.5550 0.1300
" />
<path d="M19.5461 59.6318
L19.5215 59.6516
" />
<path d="M19.5550 0.1300
L19.5723 0.1465
" />
<path d="M19.5695 59.6104
L19.5461 59.6318
" />
<path d="M19.5723 0.1465
L19.5889 0.1639
" />
<path d="M19.5889 0.1639
L19.6046 0.1821
" />
<path d="M19.5915 59.5876
L19.5695 59.6104
" />
<path d="M19.6046 0.1821
L19.6195 0.2010
" />
<path d="M19.6121 59.5633
L19.5915 59.5876
" />
<path d="M19.6195 0.2010
L19.6334 0.2206
" />
<path d="M19.6311 59.5376
L19.6121 59.5633
" />
<path d="M19.6334 0.2206
L19.6464 0.2409
" />
<path d="M19.6464 0.2409
L19.6585 0.2618
" />
<path d="M19.6486 59.5107
L19.6311 59.5376
" />
<path d="M19.6585 0.2618
L19.6695 0.2834
" />
<path d="M19.6643 59.4824
L19.6486 59.5107
" />
<path d="M19.6695 0.2834
L19.6796 0.3055
" />
<path d="M19.6782 59.4530
L19.6643 59.4824
" />
<path d="M19.6796 0.3055
L19.6885 0.3283
" />
<path d="M19.6885 0.3283
L19.6964 0.3515
" />
<path d="M19.6903 59.4223
L19.6782 59.4530
" />
<path d="M19.6964 0.3515
L19.7031 0.3752
" />
<path d="M19.7003 59.3906
L19.6903 59.4223
" />
<path d="M19.7031 0.3752
L19.7087 0.3994
" />
<path d="M19.7083 59.3578
L19.7003 59.3906
" />
<path d="M19.7087 0.3994
L19.7131 0.4241
" />
<path d="M19.7131 0.4241
L19.7163 0.4491
" />
<path d="M19.7141 59.3240
L19.7083 59.3578
" />
<path d="M19.7163 0.4491
L19.7182 0.4745
" />
<path d="M19.7177 59.2893
L19.7141 59.3240
" />
<path d="M19.7182 0.4745
L19.7189 0.5002
" />
<path d="M19.7189 0.5002
L19.7259 29.2937
" />
<path d="M19.7189 59.2536
L19.7177 59.2893
" />
<path d="M19.7259 29.2937
L19.7189 59.2536
" />
</g> 
</svg>
