  0
SECTION
  2
HEADER
  9
$ACADVER
  1
AC1027
  9
$ACADMAINTVER
 70
105
  9
$DWGCODEPAGE
  3
ANSI_1252
  9
$LASTSAVEDBY
  1
ezdxf
  9
$REQUIREDVERSIONS
160
0
  9
$INSBASE
 10
0.0
 20
0.0
 30
0.0
  9
$EXTMIN
 10
1e+20
 20
1e+20
 30
1e+20
  9
$EXTMAX
 10
-1e+20
 20
-1e+20
 30
-1e+20
  9
$LIMMIN
 10
0.0
 20
0.0
  9
$LIMMAX
 10
420.0
 20
297.0
  9
$ORTHOMODE
 70
0
  9
$REGENMODE
 70
1
  9
$FILLMODE
 70
1
  9
$QTEXTMODE
 70
0
  9
$MIRRTEXT
 70
1
  9
$LTSCALE
 40
1.0
  9
$ATTMODE
 70
1
  9
$TEXTSIZE
 40
2.5
  9
$TRACEWID
 40
1.0
  9
$TEXTSTYLE
  7
Standard
  9
$CLAYER
  8
0
  9
$CELTYPE
  6
ByLayer
  9
$CECOLOR
 62
256
  9
$CELTSCALE
 40
1.0
  9
$DISPSILH
 70
0
  9
$DIMSCALE
 40
1.0
  9
$DIMASZ
 40
2.5
  9
$DIMEXO
 40
0.625
  9
$DIMDLI
 40
3.75
  9
$DIMRND
 40
0.0
  9
$DIMDLE
 40
0.0
  9
$DIMEXE
 40
1.25
  9
$DIMTP
 40
0.0
  9
$DIMTM
 40
0.0
  9
$DIMTXT
 40
2.5
  9
$DIMCEN
 40
2.5
  9
$DIMTSZ
 40
0.0
  9
$DIMTOL
 70
0
  9
$DIMLIM
 70
0
  9
$DIMTIH
 70
0
  9
$DIMTOH
 70
0
  9
$DIMSE1
 70
0
  9
$DIMSE2
 70
0
  9
$DIMTAD
 70
1
  9
$DIMZIN
 70
8
  9
$DIMBLK
  1

  9
$DIMASO
 70
1
  9
$DIMSHO
 70
1
  9
$DIMPOST
  1

  9
$DIMAPOST
  1

  9
$DIMALT
 70
0
  9
$DIMALTD
 70
3
  9
$DIMALTF
 40
0.03937007874
  9
$DIMLFAC
 40
1.0
  9
$DIMTOFL
 70
1
  9
$DIMTVP
 40
0.0
  9
$DIMTIX
 70
0
  9
$DIMSOXD
 70
0
  9
$DIMSAH
 70
0
  9
$DIMBLK1
  1

  9
$DIMBLK2
  1

  9
$DIMSTYLE
  2
ISO-25
  9
$DIMCLRD
 70
0
  9
$DIMCLRE
 70
0
  9
$DIMCLRT
 70
0
  9
$DIMTFAC
 40
1.0
  9
$DIMGAP
 40
0.625
  9
$DIMJUST
 70
0
  9
$DIMSD1
 70
0
  9
$DIMSD2
 70
0
  9
$DIMTOLJ
 70
0
  9
$DIMTZIN
 70
8
  9
$DIMALTZ
 70
0
  9
$DIMALTTZ
 70
0
  9
$DIMUPT
 70
0
  9
$DIMDEC
 70
2
  9
$DIMTDEC
 70
2
  9
$DIMALTU
 70
2
  9
$DIMALTTD
 70
3
  9
$DIMTXSTY
  7
Standard
  9
$DIMAUNIT
 70
0
  9
$DIMADEC
 70
0
  9
$DIMALTRND
 40
0.0
  9
$DIMAZIN
 70
0
  9
$DIMDSEP
 70
44
  9
$DIMATFIT
 70
3
  9
$DIMFRAC
 70
0
  9
$DIMLDRBLK
  1

  9
$DIMLUNIT
 70
2
  9
$DIMLWD
 70
-2
  9
$DIMLWE
 70
-2
  9
$DIMTMOVE
 70
0
  9
$DIMFXL
 40
1.0
  9
$DIMFXLON
 70
0
  9
$DIMJOGANG
 40
0.785398163397
  9
$DIMTFILL
 70
0
  9
$DIMTFILLCLR
 70
0
  9
$DIMARCSYM
 70
0
  9
$DIMLTYPE
  6

  9
$DIMLTEX1
  6

  9
$DIMLTEX2
  6

  9
$DIMTXTDIRECTION
 70
0
  9
$LUNITS
 70
2
  9
$LUPREC
 70
4
  9
$SKETCHINC
 40
1.0
  9
$FILLETRAD
 40
10.0
  9
$AUNITS
 70
0
  9
$AUPREC
 70
2
  9
$MENU
  1
.
  9
$ELEVATION
 40
0.0
  9
$PELEVATION
 40
0.0
  9
$THICKNESS
 40
0.0
  9
$LIMCHECK
 70
0
  9
$CHAMFERA
 40
0.0
  9
$CHAMFERB
 40
0.0
  9
$CHAMFERC
 40
0.0
  9
$CHAMFERD
 40
0.0
  9
$SKPOLY
 70
0
  9
$TDCREATE
 40
2461168.1013194444
  9
$TDUCREATE
 40
2458532.153996898
  9
$TDUPDATE
 40
2461168.1013194444
  9
$TDUUPDATE
 40
2458532.1544311
  9
$TDINDWG
 40
0.0
  9
$TDUSRTIMER
 40
0.0
  9
$USRTIMER
 70
1
  9
$ANGBASE
 50
0.0
  9
$ANGDIR
 70
0
  9
$PDMODE
 70
0
  9
$PDSIZE
 40
0.0
  9
$PLINEWID
 40
0.0
  9
$SPLFRAME
 70
0
  9
$SPLINETYPE
 70
6
  9
$SPLINESEGS
 70
8
  9
$HANDSEED
  5
1C1
  9
$SURFTAB1
 70
6
  9
$SURFTAB2
 70
6
  9
$SURFTYPE
 70
6
  9
$SURFU
 70
6
  9
$SURFV
 70
6
  9
$UCSBASE
  2

  9
$UCSNAME
  2

  9
$UCSORG
 10
0.0
 20
0.0
 30
0.0
  9
$UCSXDIR
 10
1.0
 20
0.0
 30
0.0
  9
$UCSYDIR
 10
0.0
 20
1.0
 30
0.0
  9
$UCSORTHOREF
  2

  9
$UCSORTHOVIEW
 70
0
  9
$UCSORGTOP
 10
0.0
 20
0.0
 30
0.0
  9
$UCSORGBOTTOM
 10
0.0
 20
0.0
 30
0.0
  9
$UCSORGLEFT
 10
0.0
 20
0.0
 30
0.0
  9
$UCSORGRIGHT
 10
0.0
 20
0.0
 30
0.0
  9
$UCSORGFRONT
 10
0.0
 20
0.0
 30
0.0
  9
$UCSORGBACK
 10
0.0
 20
0.0
 30
0.0
  9
$PUCSBASE
  2

  9
$PUCSNAME
  2

  9
$PUCSORG
 10
0.0
 20
0.0
 30
0.0
  9
$PUCSXDIR
 10
1.0
 20
0.0
 30
0.0
  9
$PUCSYDIR
 10
0.0
 20
1.0
 30
0.0
  9
$PUCSORTHOREF
  2

  9
$PUCSORTHOVIEW
 70
0
  9
$PUCSORGTOP
 10
0.0
 20
0.0
 30
0.0
  9
$PUCSORGBOTTOM
 10
0.0
 20
0.0
 30
0.0
  9
$PUCSORGLEFT
 10
0.0
 20
0.0
 30
0.0
  9
$PUCSORGRIGHT
 10
0.0
 20
0.0
 30
0.0
  9
$PUCSORGFRONT
 10
0.0
 20
0.0
 30
0.0
  9
$PUCSORGBACK
 10
0.0
 20
0.0
 30
0.0
  9
$USERI1
 70
0
  9
$USERI2
 70
0
  9
$USERI3
 70
0
  9
$USERI4
 70
0
  9
$USERI5
 70
0
  9
$USERR1
 40
0.0
  9
$USERR2
 40
0.0
  9
$USERR3
 40
0.0
  9
$USERR4
 40
0.0
  9
$USERR5
 40
0.0
  9
$WORLDVIEW
 70
1
  9
$SHADEDGE
 70
3
  9
$SHADEDIF
 70
70
  9
$TILEMODE
 70
1
  9
$MAXACTVP
 70
64
  9
$PINSBASE
 10
0.0
 20
0.0
 30
0.0
  9
$PLIMCHECK
 70
0
  9
$PEXTMIN
 10
1e+20
 20
1e+20
 30
1e+20
  9
$PEXTMAX
 10
-1e+20
 20
-1e+20
 30
-1e+20
  9
$PLIMMIN
 10
0.0
 20
0.0
  9
$PLIMMAX
 10
420.0
 20
297.0
  9
$UNITMODE
 70
0
  9
$VISRETAIN
 70
1
  9
$PLINEGEN
 70
0
  9
$PSLTSCALE
 70
1
  9
$TREEDEPTH
 70
3020
  9
$CMLSTYLE
  2
Standard
  9
$CMLJUST
 70
0
  9
$CMLSCALE
 40
20.0
  9
$PROXYGRAPHICS
 70
1
  9
$MEASUREMENT
 70
1
  9
$CELWEIGHT
370
-1
  9
$ENDCAPS
280
0
  9
$JOINSTYLE
280
0
  9
$LWDISPLAY
290
0
  9
$INSUNITS
 70
6
  9
$HYPERLINKBASE
  1

  9
$STYLESHEET
  1

  9
$XEDIT
290
1
  9
$CEPSNTYPE
380
0
  9
$PSTYLEMODE
290
1
  9
$FINGERPRINTGUID
  2
{CAF0FAE0-F3FF-4EBC-9C0E-32667DDA8D14}
  9
$VERSIONGUID
  2
{C8BEA5A3-3501-4067-B076-96730B7C031E}
  9
$EXTNAMES
290
1
  9
$PSVPSCALE
 40
0.0
  9
$OLESTARTUP
290
0
  9
$SORTENTS
280
127
  9
$INDEXCTL
280
0
  9
$HIDETEXT
280
1
  9
$XCLIPFRAME
280
1
  9
$HALOGAP
280
0
  9
$OBSCOLOR
 70
257
  9
$OBSLTYPE
280
0
  9
$INTERSECTIONDISPLAY
280
0
  9
$INTERSECTIONCOLOR
 70
257
  9
$DIMASSOC
280
2
  9
$PROJECTNAME
  1

  9
$CAMERADISPLAY
290
0
  9
$LENSLENGTH
 40
50.0
  9
$CAMERAHEIGHT
 40
0.0
  9
$STEPSPERSEC
 40
24.0
  9
$STEPSIZE
 40
100.0
  9
$3DDWFPREC
 40
2.0
  9
$PSOLWIDTH
 40
0.005
  9
$PSOLHEIGHT
 40
0.08
  9
$LOFTANG1
 40
1.570796326795
  9
$LOFTANG2
 40
1.570796326795
  9
$LOFTMAG1
 40
0.0
  9
$LOFTMAG2
 40
0.0
  9
$LOFTPARAM
 70
7
  9
$LOFTNORMALS
280
1
  9
$LATITUDE
 40
37.795
  9
$LONGITUDE
 40
-122.394
  9
$NORTHDIRECTION
 40
0.0
  9
$TIMEZONE
 70
-8000
  9
$LIGHTGLYPHDISPLAY
280
1
  9
$TILEMODELIGHTSYNCH
280
1
  9
$CMATERIAL
347
20
  9
$SOLIDHIST
280
0
  9
$SHOWHIST
280
1
  9
$DWFFRAME
280
2
  9
$DGNFRAME
280
2
  9
$REALWORLDSCALE
290
1
  9
$INTERFERECOLOR
 62
256
  9
$CSHADOW
280
0
  9
$SHADOWPLANELOCATION
 40
0.0
  0
ENDSEC
  0
SECTION
  2
CLASSES
  0
CLASS
  1
ACDBDICTIONARYWDFLT
  2
AcDbDictionaryWithDefault
  3
ObjectDBX Classes
 90
0
 91
0
280
0
281
0
  0
CLASS
  1
SUN
  2
AcDbSun
  3
SCENEOE
 90
1153
 91
0
280
0
281
0
  0
CLASS
  1
VISUALSTYLE
  2
AcDbVisualStyle
  3
ObjectDBX Classes
 90
4095
 91
0
280
0
281
0
  0
CLASS
  1
MATERIAL
  2
AcDbMaterial
  3
ObjectDBX Classes
 90
1153
 91
0
280
0
281
0
  0
CLASS
  1
SCALE
  2
AcDbScale
  3
ObjectDBX Classes
 90
1153
 91
0
280
0
281
0
  0
CLASS
  1
TABLESTYLE
  2
AcDbTableStyle
  3
ObjectDBX Classes
 90
4095
 91
0
280
0
281
0
  0
CLASS
  1
MLEADERSTYLE
  2
AcDbMLeaderStyle
  3
ACDB_MLEADERSTYLE_CLASS
 90
4095
 91
0
280
0
281
0
  0
CLASS
  1
DICTIONARYVAR
  2
AcDbDictionaryVar
  3
ObjectDBX Classes
 90
0
 91
0
280
0
281
0
  0
CLASS
  1
CELLSTYLEMAP
  2
AcDbCellStyleMap
  3
ObjectDBX Classes
 90
1152
 91
0
280
0
281
0
  0
CLASS
  1
MENTALRAYRENDERSETTINGS
  2
AcDbMentalRayRenderSettings
  3
SCENEOE
 90
1024
 91
0
280
0
281
0
  0
CLASS
  1
ACDBDETAILVIEWSTYLE
  2
AcDbDetailViewStyle
  3
ObjectDBX Classes
 90
1025
 91
0
280
0
281
0
  0
CLASS
  1
ACDBSECTIONVIEWSTYLE
  2
AcDbSectionViewStyle
  3
ObjectDBX Classes
 90
1025
 91
0
280
0
281
0
  0
CLASS
  1
RASTERVARIABLES
  2
AcDbRasterVariables
  3
ISM
 90
0
 91
0
280
0
281
0
  0
CLASS
  1
ACDBPLACEHOLDER
  2
AcDbPlaceHolder
  3
ObjectDBX Classes
 90
0
 91
0
280
0
281
0
  0
CLASS
  1
LAYOUT
  2
AcDbLayout
  3
ObjectDBX Classes
 90
0
 91
0
280
0
281
0
  0
ENDSEC
  0
SECTION
  2
TABLES
  0
TABLE
  2
VPORT
  5
8
330
0
100
AcDbSymbolTable
 70
1
  0
VPORT
  5
23
330
8
100
AcDbSymbolTableRecord
100
AcDbViewportTableRecord
  2
*Active
 70
0
 10
0.0
 20
0.0
 11
1.0
 21
1.0
 12
0.0
 22
0.0
 13
0.0
 23
0.0
 14
0.5
 24
0.5
 15
0.5
 25
0.5
 16
0.0
 26
0.0
 36
1.0
 17
0.0
 27
0.0
 37
0.0
 40
1000.0
 41
1.34
 42
50.0
 43
0.0
 44
0.0
 50
0.0
 51
0.0
 71
0
 72
1000
 73
1
 74
3
 75
0
 76
0
 77
0
 78
0
281
0
 65
0
146
0.0
  0
ENDTAB
  0
TABLE
  2
LTYPE
  5
2
330
0
100
AcDbSymbolTable
 70
3
  0
LTYPE
  5
24
330
2
100
AcDbSymbolTableRecord
100
AcDbLinetypeTableRecord
  2
ByBlock
 70
0
  3

 72
65
 73
0
 40
0.0
  0
LTYPE
  5
25
330
2
100
AcDbSymbolTableRecord
100
AcDbLinetypeTableRecord
  2
ByLayer
 70
0
  3

 72
65
 73
0
 40
0.0
  0
LTYPE
  5
26
330
2
100
AcDbSymbolTableRecord
100
AcDbLinetypeTableRecord
  2
Continuous
 70
0
  3

 72
65
 73
0
 40
0.0
  0
ENDTAB
  0
TABLE
  2
LAYER
  5
1
330
0
100
AcDbSymbolTable
 70
2
  0
LAYER
  5
27
330
1
100
AcDbSymbolTableRecord
100
AcDbLayerTableRecord
  2
0
 70
0
 62
7
  6
Continuous
370
-3
390
13
347
21
  0
LAYER
  5
28
330
1
100
AcDbSymbolTableRecord
100
AcDbLayerTableRecord
  2
Defpoints
 70
0
 62
7
  6
Continuous
290
0
370
-3
390
13
347
21
  0
ENDTAB
  0
TABLE
  2
STYLE
  5
5
330
0
100
AcDbSymbolTable
 70
1
  0
STYLE
  5
29
330
5
100
AcDbSymbolTableRecord
100
AcDbTextStyleTableRecord
  2
Standard
 70
0
 40
0.0
 41
1.0
 50
0.0
 71
0
 42
2.5
  3
txt
  4

  0
ENDTAB
  0
TABLE
  2
VIEW
  5
7
330
0
100
AcDbSymbolTable
 70
0
  0
ENDTAB
  0
TABLE
  2
UCS
  5
6
330
0
100
AcDbSymbolTable
 70
0
  0
ENDTAB
  0
TABLE
  2
APPID
  5
3
330
0
100
AcDbSymbolTable
 70
3
  0
APPID
  5
2A
330
3
100
AcDbSymbolTableRecord
100
AcDbRegAppTableRecord
  2
ACAD
 70
0
  0
APPID
  5
1BE
330
3
100
AcDbSymbolTableRecord
100
AcDbRegAppTableRecord
  2
HATCHBACKGROUNDCOLOR
 70
0
  0
APPID
  5
1BF
330
3
100
AcDbSymbolTableRecord
100
AcDbRegAppTableRecord
  2
EZDXF
 70
0
  0
ENDTAB
  0
TABLE
  2
DIMSTYLE
  5
4
330
0
100
AcDbSymbolTable
 70
1
100
AcDbDimStyleTable
  0
DIMSTYLE
105
2B
330
4
100
AcDbSymbolTableRecord
100
AcDbDimStyleTableRecord
  2
Standard
 70
0
 40
1.0
 41
2.5
 42
0.625
 43
3.75
 44
1.25
 45
0.0
 46
0.0
 47
0.0
 48
0.0
 49
2.5
140
2.5
141
2.5
142
0.0
143
0.03937007874
144
1.0
145
0.0
146
1.0
147
0.625
148
0.0
 69
0
 70
0
 71
0
 72
0
 73
0
 74
0
 75
0
 76
0
 77
1
 78
8
 79
3
170
0
171
3
172
1
173
0
174
0
175
0
176
0
177
0
178
0
179
2
271
2
272
2
273
2
274
3
275
0
276
0
277
2
278
44
279
0
280
0
281
0
282
0
283
0
284
8
285
0
286
0
288
0
289
3
290
0
371
-2
372
-2
  0
ENDTAB
  0
TABLE
  2
BLOCK_RECORD
  5
9
330
0
100
AcDbSymbolTable
 70
2
  0
BLOCK_RECORD
  5
17
330
9
100
AcDbSymbolTableRecord
100
AcDbBlockTableRecord
  2
*Model_Space
340
1A
 70
0
280
1
281
0
  0
BLOCK_RECORD
  5
1B
330
9
100
AcDbSymbolTableRecord
100
AcDbBlockTableRecord
  2
*Paper_Space
340
1E
 70
0
280
1
281
0
  0
ENDTAB
  0
ENDSEC
  0
SECTION
  2
BLOCKS
  0
BLOCK
  5
18
330
17
100
AcDbEntity
  8
0
100
AcDbBlockBegin
  2
*Model_Space
 70
0
 10
0.0
 20
0.0
 30
0.0
  3
*Model_Space
  1

  0
ENDBLK
  5
19
330
17
100
AcDbEntity
  8
0
100
AcDbBlockEnd
  0
BLOCK
  5
1C
330
1B
100
AcDbEntity
  8
0
100
AcDbBlockBegin
  2
*Paper_Space
 70
0
 10
0.0
 20
0.0
 30
0.0
  3
*Paper_Space
  1

  0
ENDBLK
  5
1D
330
1B
100
AcDbEntity
  8
0
100
AcDbBlockEnd
  0
ENDSEC
  0
SECTION
  2
ENTITIES
  0
POLYLINE
  5
2F
330
17
100
AcDbEntity
  8
0
100
AcDb2dPolyline
 66
1
 10
0.0
 20
0.0
 30
0.0
 70
1
  0
VERTEX
  5
31
330
17
100
AcDbEntity
  8
0
100
AcDbVertex
100
AcDb2dVertex
 10
127.512767
 20
-24.729168
 30
0.0
 70
0
  0
VERTEX
  5
32
330
17
100
AcDbEntity
  8
0
100
AcDbVertex
100
AcDb2dVertex
 10
127.512117
 20
-24.754906
 30
0.0
 70
0
  0
VERTEX
  5
33
330
17
100
AcDbEntity
  8
0
100
AcDbVertex
100
AcDb2dVertex
 10
127.512117
 20
-53.53
 30
0.0
 70
0
  0
VERTEX
  5
34
330
17
100
AcDbEntity
  8
0
100
AcDbVertex
100
AcDb2dVertex
 10
127.512117
 20
-72.702691
 30
0.0
 70
0
  0
VERTEX
  5
35
330
17
100
AcDbEntity
  8
0
100
AcDbVertex
100
AcDb2dVertex
 10
127.512395
 20
-72.719417
 30
0.0
 70
0
  0
VERTEX
  5
36
330
17
100
AcDbEntity
  8
0
100
AcDbVertex
100
AcDb2dVertex
 10
127.513225
 20
-72.736051
 30
0.0
 70
0
  0
VERTEX
  5
37
330
17
100
AcDbEntity
  8
0
100
AcDbVertex
100
AcDb2dVertex
 10
127.5146
 20
-72.752581
 30
0.0
 70
0
  0
VERTEX
  5
38
330
17
100
AcDbEntity
  8
0
100
AcDbVertex
100
AcDb2dVertex
 10
127.516513
 20
-72.768997
 30
0.0
 70
0
  0
VERTEX
  5
39
330
17
100
AcDbEntity
  8
0
100
AcDbVertex
100
AcDb2dVertex
 10
127.518958
 20
-72.785286
 30
0.0
 70
0
  0
VERTEX
  5
3A
330
17
100
AcDbEntity
  8
0
100
AcDbVertex
100
AcDb2dVertex
 10
127.521928
 20
-72.801437
 30
0.0
 70
0
  0
VERTEX
  5
3B
330
17
100
AcDbEntity
  8
0
100
AcDbVertex
100
AcDb2dVertex
 10
127.525417
 20
-72.817439
 30
0.0
 70
0
  0
VERTEX
  5
3C
330
17
100
AcDbEntity
  8
0
100
AcDbVertex
100
AcDb2dVertex
 10
127.529418
 20
-72.833281
 30
0.0
 70
0
  0
VERTEX
  5
3D
330
17
100
AcDbEntity
  8
0
100
AcDbVertex
100
AcDb2dVertex
 10
127.533925
 20
-72.84895
 30
0.0
 70
0
  0
VERTEX
  5
3E
330
17
100
AcDbEntity
  8
0
100
AcDbVertex
100
AcDb2dVertex
 10
127.53893
 20
-72.864436
 30
0.0
 70
0
  0
VERTEX
  5
3F
330
17
100
AcDbEntity
  8
0
100
AcDbVertex
100
AcDb2dVertex
 10
127.544428
 20
-72.879727
 30
0.0
 70
0
  0
VERTEX
  5
40
330
17
100
AcDbEntity
  8
0
100
AcDbVertex
100
AcDb2dVertex
 10
127.550411
 20
-72.894811
 30
0.0
 70
0
  0
VERTEX
  5
41
330
17
100
AcDbEntity
  8
0
100
AcDbVertex
100
AcDb2dVertex
 10
127.556874
 20
-72.909678
 30
0.0
 70
0
  0
VERTEX
  5
42
330
17
100
AcDbEntity
  8
0
100
AcDbVertex
100
AcDb2dVertex
 10
127.563808
 20
-72.924315
 30
0.0
 70
0
  0
VERTEX
  5
43
330
17
100
AcDbEntity
  8
0
100
AcDbVertex
100
AcDb2dVertex
 10
127.571209
 20
-72.938712
 30
0.0
 70
0
  0
VERTEX
  5
44
330
17
100
AcDbEntity
  8
0
100
AcDbVertex
100
AcDb2dVertex
 10
127.579069
 20
-72.952856
 30
0.0
 70
0
  0
VERTEX
  5
45
330
17
100
AcDbEntity
  8
0
100
AcDbVertex
100
AcDb2dVertex
 10
127.587382
 20
-72.966737
 30
0.0
 70
0
  0
VERTEX
  5
46
330
17
100
AcDbEntity
  8
0
100
AcDbVertex
100
AcDb2dVertex
 10
127.59614
 20
-72.980343
 30
0.0
 70
0
  0
VERTEX
  5
47
330
17
100
AcDbEntity
  8
0
100
AcDbVertex
100
AcDb2dVertex
 10
127.605339
 20
-72.993663
 30
0.0
 70
0
  0
VERTEX
  5
48
330
17
100
AcDbEntity
  8
0
100
AcDbVertex
100
AcDb2dVertex
 10
127.61497
 20
-73.006685
 30
0.0
 70
0
  0
VERTEX
  5
49
330
17
100
AcDbEntity
  8
0
100
AcDbVertex
100
AcDb2dVertex
 10
127.625027
 20
-73.019397
 30
0.0
 70
0
  0
VERTEX
  5
4A
330
17
100
AcDbEntity
  8
0
100
AcDbVertex
100
AcDb2dVertex
 10
127.635504
 20
-73.031789
 30
0.0
 70
0
  0
VERTEX
  5
4B
330
17
100
AcDbEntity
  8
0
100
AcDbVertex
100
AcDb2dVertex
 10
127.646394
 20
-73.043849
 30
0.0
 70
0
  0
VERTEX
  5
4C
330
17
100
AcDbEntity
  8
0
100
AcDbVertex
100
AcDb2dVertex
 10
127.657691
 20
-73.055565
 30
0.0
 70
0
  0
VERTEX
  5
4D
330
17
100
AcDbEntity
  8
0
100
AcDbVertex
100
AcDb2dVertex
 10
127.669387
 20
-73.066926
 30
0.0
 70
0
  0
VERTEX
  5
4E
330
17
100
AcDbEntity
  8
0
100
AcDbVertex
100
AcDb2dVertex
 10
127.681477
 20
-73.077921
 30
0.0
 70
0
  0
VERTEX
  5
4F
330
17
100
AcDbEntity
  8
0
100
AcDbVertex
100
AcDb2dVertex
 10
127.693953
 20
-73.088537
 30
0.0
 70
0
  0
VERTEX
  5
50
330
17
100
AcDbEntity
  8
0
100
AcDbVertex
100
AcDb2dVertex
 10
127.706809
 20
-73.098765
 30
0.0
 70
0
  0
VERTEX
  5
51
330
17
100
AcDbEntity
  8
0
100
AcDbVertex
100
AcDb2dVertex
 10
127.720039
 20
-73.108591
 30
0.0
 70
0
  0
VERTEX
  5
52
330
17
100
AcDbEntity
  8
0
100
AcDbVertex
100
AcDb2dVertex
 10
127.733636
 20
-73.118006
 30
0.0
 70
0
  0
VERTEX
  5
53
330
17
100
AcDbEntity
  8
0
100
AcDbVertex
100
AcDb2dVertex
 10
127.747593
 20
-73.126997
 30
0.0
 70
0
  0
VERTEX
  5
54
330
17
100
AcDbEntity
  8
0
100
AcDbVertex
100
AcDb2dVertex
 10
127.761904
 20
-73.135553
 30
0.0
 70
0
  0
VERTEX
  5
55
330
17
100
AcDbEntity
  8
0
100
AcDbVertex
100
AcDb2dVertex
 10
146.480989
 20
-83.938661
 30
0.0
 70
0
  0
VERTEX
  5
56
330
17
100
AcDbEntity
  8
0
100
AcDbVertex
100
AcDb2dVertex
 10
146.512472
 20
-83.955428
 30
0.0
 70
0
  0
VERTEX
  5
57
330
17
100
AcDbEntity
  8
0
100
AcDbVertex
100
AcDb2dVertex
 10
146.544351
 20
-83.969713
 30
0.0
 70
0
  0
VERTEX
  5
58
330
17
100
AcDbEntity
  8
0
100
AcDbVertex
100
AcDb2dVertex
 10
146.576534
 20
-83.981569
 30
0.0
 70
0
  0
VERTEX
  5
59
330
17
100
AcDbEntity
  8
0
100
AcDbVertex
100
AcDb2dVertex
 10
146.608931
 20
-83.99105
 30
0.0
 70
0
  0
VERTEX
  5
5A
330
17
100
AcDbEntity
  8
0
100
AcDbVertex
100
AcDb2dVertex
 10
146.641449
 20
-83.998207
 30
0.0
 70
0
  0
VERTEX
  5
5B
330
17
100
AcDbEntity
  8
0
100
AcDbVertex
100
AcDb2dVertex
 10
146.673998
 20
-84.003093
 30
0.0
 70
0
  0
VERTEX
  5
5C
330
17
100
AcDbEntity
  8
0
100
AcDbVertex
100
AcDb2dVertex
 10
146.706485
 20
-84.005761
 30
0.0
 70
0
  0
VERTEX
  5
5D
330
17
100
AcDbEntity
  8
0
100
AcDbVertex
100
AcDb2dVertex
 10
146.738819
 20
-84.006264
 30
0.0
 70
0
  0
VERTEX
  5
5E
330
17
100
AcDbEntity
  8
0
100
AcDbVertex
100
AcDb2dVertex
 10
146.770909
 20
-84.004655
 30
0.0
 70
0
  0
VERTEX
  5
5F
330
17
100
AcDbEntity
  8
0
100
AcDbVertex
100
AcDb2dVertex
 10
146.802663
 20
-84.000986
 30
0.0
 70
0
  0
VERTEX
  5
60
330
17
100
AcDbEntity
  8
0
100
AcDbVertex
100
AcDb2dVertex
 10
146.833989
 20
-83.995309
 30
0.0
 70
0
  0
VERTEX
  5
61
330
17
100
AcDbEntity
  8
0
100
AcDbVertex
100
AcDb2dVertex
 10
146.864796
 20
-83.987678
 30
0.0
 70
0
  0
VERTEX
  5
62
330
17
100
AcDbEntity
  8
0
100
AcDbVertex
100
AcDb2dVertex
 10
146.894993
 20
-83.978146
 30
0.0
 70
0
  0
VERTEX
  5
63
330
17
100
AcDbEntity
  8
0
100
AcDbVertex
100
AcDb2dVertex
 10
146.924488
 20
-83.966764
 30
0.0
 70
0
  0
VERTEX
  5
64
330
17
100
AcDbEntity
  8
0
100
AcDbVertex
100
AcDb2dVertex
 10
146.953189
 20
-83.953586
 30
0.0
 70
0
  0
VERTEX
  5
65
330
17
100
AcDbEntity
  8
0
100
AcDbVertex
100
AcDb2dVertex
 10
146.981005
 20
-83.938665
 30
0.0
 70
0
  0
VERTEX
  5
66
330
17
100
AcDbEntity
  8
0
100
AcDbVertex
100
AcDb2dVertex
 10
147.007844
 20
-83.922052
 30
0.0
 70
0
  0
VERTEX
  5
67
330
17
100
AcDbEntity
  8
0
100
AcDbVertex
100
AcDb2dVertex
 10
147.033615
 20
-83.903802
 30
0.0
 70
0
  0
VERTEX
  5
68
330
17
100
AcDbEntity
  8
0
100
AcDbVertex
100
AcDb2dVertex
 10
147.058226
 20
-83.883966
 30
0.0
 70
0
  0
VERTEX
  5
69
330
17
100
AcDbEntity
  8
0
100
AcDbVertex
100
AcDb2dVertex
 10
147.081586
 20
-83.862597
 30
0.0
 70
0
  0
VERTEX
  5
6A
330
17
100
AcDbEntity
  8
0
100
AcDbVertex
100
AcDb2dVertex
 10
147.103603
 20
-83.839749
 30
0.0
 70
0
  0
VERTEX
  5
6B
330
17
100
AcDbEntity
  8
0
100
AcDbVertex
100
AcDb2dVertex
 10
147.124186
 20
-83.815473
 30
0.0
 70
0
  0
VERTEX
  5
6C
330
17
100
AcDbEntity
  8
0
100
AcDbVertex
100
AcDb2dVertex
 10
147.143243
 20
-83.789822
 30
0.0
 70
0
  0
VERTEX
  5
6D
330
17
100
AcDbEntity
  8
0
100
AcDbVertex
100
AcDb2dVertex
 10
147.160683
 20
-83.76285
 30
0.0
 70
0
  0
VERTEX
  5
6E
330
17
100
AcDbEntity
  8
0
100
AcDbVertex
100
AcDb2dVertex
 10
147.176413
 20
-83.734608
 30
0.0
 70
0
  0
VERTEX
  5
6F
330
17
100
AcDbEntity
  8
0
100
AcDbVertex
100
AcDb2dVertex
 10
147.190344
 20
-83.70515
 30
0.0
 70
0
  0
VERTEX
  5
70
330
17
100
AcDbEntity
  8
0
100
AcDbVertex
100
AcDb2dVertex
 10
147.202382
 20
-83.674528
 30
0.0
 70
0
  0
VERTEX
  5
71
330
17
100
AcDbEntity
  8
0
100
AcDbVertex
100
AcDb2dVertex
 10
147.212436
 20
-83.642795
 30
0.0
 70
0
  0
VERTEX
  5
72
330
17
100
AcDbEntity
  8
0
100
AcDbVertex
100
AcDb2dVertex
 10
147.220416
 20
-83.610004
 30
0.0
 70
0
  0
VERTEX
  5
73
330
17
100
AcDbEntity
  8
0
100
AcDbVertex
100
AcDb2dVertex
 10
147.226229
 20
-83.576207
 30
0.0
 70
0
  0
VERTEX
  5
74
330
17
100
AcDbEntity
  8
0
100
AcDbVertex
100
AcDb2dVertex
 10
147.229784
 20
-83.541457
 30
0.0
 70
0
  0
VERTEX
  5
75
330
17
100
AcDbEntity
  8
0
100
AcDbVertex
100
AcDb2dVertex
 10
147.230989
 20
-83.505807
 30
0.0
 70
0
  0
VERTEX
  5
76
330
17
100
AcDbEntity
  8
0
100
AcDbVertex
100
AcDb2dVertex
 10
147.238029
 20
-53.545918
 30
0.0
 70
0
  0
VERTEX
  5
77
330
17
100
AcDbEntity
  8
0
100
AcDbVertex
100
AcDb2dVertex
 10
147.230989
 20
-24.752437
 30
0.0
 70
0
  0
VERTEX
  5
78
330
17
100
AcDbEntity
  8
0
100
AcDbVertex
100
AcDb2dVertex
 10
147.230338
 20
-24.726699
 30
0.0
 70
0
  0
VERTEX
  5
79
330
17
100
AcDbEntity
  8
0
100
AcDbVertex
100
AcDb2dVertex
 10
147.228406
 20
-24.701298
 30
0.0
 70
0
  0
VERTEX
  5
7A
330
17
100
AcDbEntity
  8
0
100
AcDbVertex
100
AcDb2dVertex
 10
147.225225
 20
-24.676267
 30
0.0
 70
0
  0
VERTEX
  5
7B
330
17
100
AcDbEntity
  8
0
100
AcDbVertex
100
AcDb2dVertex
 10
147.220825
 20
-24.651635
 30
0.0
 70
0
  0
VERTEX
  5
7C
330
17
100
AcDbEntity
  8
0
100
AcDbVertex
100
AcDb2dVertex
 10
147.215239
 20
-24.627436
 30
0.0
 70
0
  0
VERTEX
  5
7D
330
17
100
AcDbEntity
  8
0
100
AcDbVertex
100
AcDb2dVertex
 10
147.208497
 20
-24.603699
 30
0.0
 70
0
  0
VERTEX
  5
7E
330
17
100
AcDbEntity
  8
0
100
AcDbVertex
100
AcDb2dVertex
 10
147.200631
 20
-24.580458
 30
0.0
 70
0
  0
VERTEX
  5
7F
330
17
100
AcDbEntity
  8
0
100
AcDbVertex
100
AcDb2dVertex
 10
147.191674
 20
-24.557742
 30
0.0
 70
0
  0
VERTEX
  5
80
330
17
100
AcDbEntity
  8
0
100
AcDbVertex
100
AcDb2dVertex
 10
147.181655
 20
-24.535584
 30
0.0
 70
0
  0
VERTEX
  5
81
330
17
100
AcDbEntity
  8
0
100
AcDbVertex
100
AcDb2dVertex
 10
147.170607
 20
-24.514015
 30
0.0
 70
0
  0
VERTEX
  5
82
330
17
100
AcDbEntity
  8
0
100
AcDbVertex
100
AcDb2dVertex
 10
147.158561
 20
-24.493067
 30
0.0
 70
0
  0
VERTEX
  5
83
330
17
100
AcDbEntity
  8
0
100
AcDbVertex
100
AcDb2dVertex
 10
147.145549
 20
-24.47277
 30
0.0
 70
0
  0
VERTEX
  5
84
330
17
100
AcDbEntity
  8
0
100
AcDbVertex
100
AcDb2dVertex
 10
147.131601
 20
-24.453157
 30
0.0
 70
0
  0
VERTEX
  5
85
330
17
100
AcDbEntity
  8
0
100
AcDbVertex
100
AcDb2dVertex
 10
147.11675
 20
-24.434259
 30
0.0
 70
0
  0
VERTEX
  5
86
330
17
100
AcDbEntity
  8
0
100
AcDbVertex
100
AcDb2dVertex
 10
147.101027
 20
-24.416107
 30
0.0
 70
0
  0
VERTEX
  5
87
330
17
100
AcDbEntity
  8
0
100
AcDbVertex
100
AcDb2dVertex
 10
147.084463
 20
-24.398733
 30
0.0
 70
0
  0
VERTEX
  5
88
330
17
100
AcDbEntity
  8
0
100
AcDbVertex
100
AcDb2dVertex
 10
147.06709
 20
-24.382168
 30
0.0
 70
0
  0
VERTEX
  5
89
330
17
100
AcDbEntity
  8
0
100
AcDbVertex
100
AcDb2dVertex
 10
147.048939
 20
-24.366444
 30
0.0
 70
0
  0
VERTEX
  5
8A
330
17
100
AcDbEntity
  8
0
100
AcDbVertex
100
AcDb2dVertex
 10
147.030042
 20
-24.351592
 30
0.0
 70
0
  0
VERTEX
  5
8B
330
17
100
AcDbEntity
  8
0
100
AcDbVertex
100
AcDb2dVertex
 10
147.01043
 20
-24.337644
 30
0.0
 70
0
  0
VERTEX
  5
8C
330
17
100
AcDbEntity
  8
0
100
AcDbVertex
100
AcDb2dVertex
 10
146.990134
 20
-24.32463
 30
0.0
 70
0
  0
VERTEX
  5
8D
330
17
100
AcDbEntity
  8
0
100
AcDbVertex
100
AcDb2dVertex
 10
146.969187
 20
-24.312584
 30
0.0
 70
0
  0
VERTEX
  5
8E
330
17
100
AcDbEntity
  8
0
100
AcDbVertex
100
AcDb2dVertex
 10
146.947619
 20
-24.301535
 30
0.0
 70
0
  0
VERTEX
  5
8F
330
17
100
AcDbEntity
  8
0
100
AcDbVertex
100
AcDb2dVertex
 10
146.925462
 20
-24.291516
 30
0.0
 70
0
  0
VERTEX
  5
90
330
17
100
AcDbEntity
  8
0
100
AcDbVertex
100
AcDb2dVertex
 10
146.902748
 20
-24.282557
 30
0.0
 70
0
  0
VERTEX
  5
91
330
17
100
AcDbEntity
  8
0
100
AcDbVertex
100
AcDb2dVertex
 10
146.879507
 20
-24.274692
 30
0.0
 70
0
  0
VERTEX
  5
92
330
17
100
AcDbEntity
  8
0
100
AcDbVertex
100
AcDb2dVertex
 10
146.855772
 20
-24.267949
 30
0.0
 70
0
  0
VERTEX
  5
93
330
17
100
AcDbEntity
  8
0
100
AcDbVertex
100
AcDb2dVertex
 10
146.831573
 20
-24.262363
 30
0.0
 70
0
  0
VERTEX
  5
94
330
17
100
AcDbEntity
  8
0
100
AcDbVertex
100
AcDb2dVertex
 10
146.806943
 20
-24.257963
 30
0.0
 70
0
  0
VERTEX
  5
95
330
17
100
AcDbEntity
  8
0
100
AcDbVertex
100
AcDb2dVertex
 10
146.781912
 20
-24.254781
 30
0.0
 70
0
  0
VERTEX
  5
96
330
17
100
AcDbEntity
  8
0
100
AcDbVertex
100
AcDb2dVertex
 10
146.756513
 20
-24.252849
 30
0.0
 70
0
  0
VERTEX
  5
97
330
17
100
AcDbEntity
  8
0
100
AcDbVertex
100
AcDb2dVertex
 10
146.730776
 20
-24.252198
 30
0.0
 70
0
  0
VERTEX
  5
98
330
17
100
AcDbEntity
  8
0
100
AcDbVertex
100
AcDb2dVertex
 10
128.012026
 20
-24.254668
 30
0.0
 70
0
  0
VERTEX
  5
99
330
17
100
AcDbEntity
  8
0
100
AcDbVertex
100
AcDb2dVertex
 10
127.986287
 20
-24.255319
 30
0.0
 70
0
  0
VERTEX
  5
9A
330
17
100
AcDbEntity
  8
0
100
AcDbVertex
100
AcDb2dVertex
 10
127.960888
 20
-24.257251
 30
0.0
 70
0
  0
VERTEX
  5
9B
330
17
100
AcDbEntity
  8
0
100
AcDbVertex
100
AcDb2dVertex
 10
127.935859
 20
-24.260433
 30
0.0
 70
0
  0
VERTEX
  5
9C
330
17
100
AcDbEntity
  8
0
100
AcDbVertex
100
AcDb2dVertex
 10
127.911233
 20
-24.264833
 30
0.0
 70
0
  0
VERTEX
  5
9D
330
17
100
AcDbEntity
  8
0
100
AcDbVertex
100
AcDb2dVertex
 10
127.88704
 20
-24.270419
 30
0.0
 70
0
  0
VERTEX
  5
9E
330
17
100
AcDbEntity
  8
0
100
AcDbVertex
100
AcDb2dVertex
 10
127.863311
 20
-24.277161
 30
0.0
 70
0
  0
VERTEX
  5
9F
330
17
100
AcDbEntity
  8
0
100
AcDbVertex
100
AcDb2dVertex
 10
127.840079
 20
-24.285027
 30
0.0
 70
0
  0
VERTEX
  5
A0
330
17
100
AcDbEntity
  8
0
100
AcDbVertex
100
AcDb2dVertex
 10
127.817374
 20
-24.293986
 30
0.0
 70
0
  0
VERTEX
  5
A1
330
17
100
AcDbEntity
  8
0
100
AcDbVertex
100
AcDb2dVertex
 10
127.795228
 20
-24.304005
 30
0.0
 70
0
  0
VERTEX
  5
A2
330
17
100
AcDbEntity
  8
0
100
AcDbVertex
100
AcDb2dVertex
 10
127.773672
 20
-24.315053
 30
0.0
 70
0
  0
VERTEX
  5
A3
330
17
100
AcDbEntity
  8
0
100
AcDbVertex
100
AcDb2dVertex
 10
127.752737
 20
-24.3271
 30
0.0
 70
0
  0
VERTEX
  5
A4
330
17
100
AcDbEntity
  8
0
100
AcDbVertex
100
AcDb2dVertex
 10
127.732455
 20
-24.340113
 30
0.0
 70
0
  0
VERTEX
  5
A5
330
17
100
AcDbEntity
  8
0
100
AcDbVertex
100
AcDb2dVertex
 10
127.712857
 20
-24.354062
 30
0.0
 70
0
  0
VERTEX
  5
A6
330
17
100
AcDbEntity
  8
0
100
AcDbVertex
100
AcDb2dVertex
 10
127.693974
 20
-24.368913
 30
0.0
 70
0
  0
VERTEX
  5
A7
330
17
100
AcDbEntity
  8
0
100
AcDbVertex
100
AcDb2dVertex
 10
127.675838
 20
-24.384638
 30
0.0
 70
0
  0
VERTEX
  5
A8
330
17
100
AcDbEntity
  8
0
100
AcDbVertex
100
AcDb2dVertex
 10
127.65848
 20
-24.401202
 30
0.0
 70
0
  0
VERTEX
  5
A9
330
17
100
AcDbEntity
  8
0
100
AcDbVertex
100
AcDb2dVertex
 10
127.641931
 20
-24.418576
 30
0.0
 70
0
  0
VERTEX
  5
AA
330
17
100
AcDbEntity
  8
0
100
AcDbVertex
100
AcDb2dVertex
 10
127.626223
 20
-24.436728
 30
0.0
 70
0
  0
VERTEX
  5
AB
330
17
100
AcDbEntity
  8
0
100
AcDbVertex
100
AcDb2dVertex
 10
127.611386
 20
-24.455626
 30
0.0
 70
0
  0
VERTEX
  5
AC
330
17
100
AcDbEntity
  8
0
100
AcDbVertex
100
AcDb2dVertex
 10
127.597453
 20
-24.475239
 30
0.0
 70
0
  0
VERTEX
  5
AD
330
17
100
AcDbEntity
  8
0
100
AcDbVertex
100
AcDb2dVertex
 10
127.584455
 20
-24.495536
 30
0.0
 70
0
  0
VERTEX
  5
AE
330
17
100
AcDbEntity
  8
0
100
AcDbVertex
100
AcDb2dVertex
 10
127.572423
 20
-24.516484
 30
0.0
 70
0
  0
VERTEX
  5
AF
330
17
100
AcDbEntity
  8
0
100
AcDbVertex
100
AcDb2dVertex
 10
127.561388
 20
-24.538053
 30
0.0
 70
0
  0
VERTEX
  5
B0
330
17
100
AcDbEntity
  8
0
100
AcDbVertex
100
AcDb2dVertex
 10
127.551381
 20
-24.560211
 30
0.0
 70
0
  0
VERTEX
  5
B1
330
17
100
AcDbEntity
  8
0
100
AcDbVertex
100
AcDb2dVertex
 10
127.542434
 20
-24.582927
 30
0.0
 70
0
  0
VERTEX
  5
B2
330
17
100
AcDbEntity
  8
0
100
AcDbVertex
100
AcDb2dVertex
 10
127.534579
 20
-24.606169
 30
0.0
 70
0
  0
VERTEX
  5
B3
330
17
100
AcDbEntity
  8
0
100
AcDbVertex
100
AcDb2dVertex
 10
127.527846
 20
-24.629905
 30
0.0
 70
0
  0
VERTEX
  5
B4
330
17
100
AcDbEntity
  8
0
100
AcDbVertex
100
AcDb2dVertex
 10
127.522267
 20
-24.654105
 30
0.0
 70
0
  0
VERTEX
  5
B5
330
17
100
AcDbEntity
  8
0
100
AcDbVertex
100
AcDb2dVertex
 10
127.517874
 20
-24.678736
 30
0.0
 70
0
  0
VERTEX
  5
B6
330
17
100
AcDbEntity
  8
0
100
AcDbVertex
100
AcDb2dVertex
 10
127.514697
 20
-24.703768
 30
0.0
 70
0
  0
VERTEX
  5
B7
330
17
100
AcDbEntity
  8
0
100
AcDbVertex
100
AcDb2dVertex
 10
127.512767
 20
-24.729168
 30
0.0
 70
0
  0
SEQEND
  5
30
330
2F
100
AcDbEntity
  8
0
  0
POLYLINE
  5
B8
330
17
100
AcDbEntity
  8
0
100
AcDb2dPolyline
 66
1
 10
0.0
 20
0.0
 30
0.0
 70
1
  0
VERTEX
  5
BA
330
17
100
AcDbEntity
  8
0
100
AcDbVertex
100
AcDb2dVertex
 10
129.06064
 20
-71.736646
 30
0.0
 70
0
  0
VERTEX
  5
BB
330
17
100
AcDbEntity
  8
0
100
AcDbVertex
100
AcDb2dVertex
 10
129.062071
 20
-71.680043
 30
0.0
 70
0
  0
VERTEX
  5
BC
330
17
100
AcDbEntity
  8
0
100
AcDbVertex
100
AcDb2dVertex
 10
129.066316
 20
-71.624183
 30
0.0
 70
0
  0
VERTEX
  5
BD
330
17
100
AcDbEntity
  8
0
100
AcDbVertex
100
AcDb2dVertex
 10
129.073306
 20
-71.569135
 30
0.0
 70
0
  0
VERTEX
  5
BE
330
17
100
AcDbEntity
  8
0
100
AcDbVertex
100
AcDb2dVertex
 10
129.082974
 20
-71.514968
 30
0.0
 70
0
  0
VERTEX
  5
BF
330
17
100
AcDbEntity
  8
0
100
AcDbVertex
100
AcDb2dVertex
 10
129.095249
 20
-71.461752
 30
0.0
 70
0
  0
VERTEX
  5
C0
330
17
100
AcDbEntity
  8
0
100
AcDbVertex
100
AcDb2dVertex
 10
129.110063
 20
-71.409555
 30
0.0
 70
0
  0
VERTEX
  5
C1
330
17
100
AcDbEntity
  8
0
100
AcDbVertex
100
AcDb2dVertex
 10
129.127347
 20
-71.358446
 30
0.0
 70
0
  0
VERTEX
  5
C2
330
17
100
AcDbEntity
  8
0
100
AcDbVertex
100
AcDb2dVertex
 10
129.147032
 20
-71.308495
 30
0.0
 70
0
  0
VERTEX
  5
C3
330
17
100
AcDbEntity
  8
0
100
AcDbVertex
100
AcDb2dVertex
 10
129.16905
 20
-71.259771
 30
0.0
 70
0
  0
VERTEX
  5
C4
330
17
100
AcDbEntity
  8
0
100
AcDbVertex
100
AcDb2dVertex
 10
129.19333
 20
-71.212343
 30
0.0
 70
0
  0
VERTEX
  5
C5
330
17
100
AcDbEntity
  8
0
100
AcDbVertex
100
AcDb2dVertex
 10
129.219805
 20
-71.16628
 30
0.0
 70
0
  0
VERTEX
  5
C6
330
17
100
AcDbEntity
  8
0
100
AcDbVertex
100
AcDb2dVertex
 10
129.248405
 20
-71.121651
 30
0.0
 70
0
  0
VERTEX
  5
C7
330
17
100
AcDbEntity
  8
0
100
AcDbVertex
100
AcDb2dVertex
 10
129.279062
 20
-71.078526
 30
0.0
 70
0
  0
VERTEX
  5
C8
330
17
100
AcDbEntity
  8
0
100
AcDbVertex
100
AcDb2dVertex
 10
129.311706
 20
-71.036973
 30
0.0
 70
0
  0
VERTEX
  5
C9
330
17
100
AcDbEntity
  8
0
100
AcDbVertex
100
AcDb2dVertex
 10
129.346269
 20
-70.997061
 30
0.0
 70
0
  0
VERTEX
  5
CA
330
17
100
AcDbEntity
  8
0
100
AcDbVertex
100
AcDb2dVertex
 10
129.382681
 20
-70.95886
 30
0.0
 70
0
  0
VERTEX
  5
CB
330
17
100
AcDbEntity
  8
0
100
AcDbVertex
100
AcDb2dVertex
 10
129.420874
 20
-70.922438
 30
0.0
 70
0
  0
VERTEX
  5
CC
330
17
100
AcDbEntity
  8
0
100
AcDbVertex
100
AcDb2dVertex
 10
129.460779
 20
-70.887866
 30
0.0
 70
0
  0
VERTEX
  5
CD
330
17
100
AcDbEntity
  8
0
100
AcDbVertex
100
AcDb2dVertex
 10
129.502326
 20
-70.855211
 30
0.0
 70
0
  0
VERTEX
  5
CE
330
17
100
AcDbEntity
  8
0
100
AcDbVertex
100
AcDb2dVertex
 10
129.545448
 20
-70.824544
 30
0.0
 70
0
  0
VERTEX
  5
CF
330
17
100
AcDbEntity
  8
0
100
AcDbVertex
100
AcDb2dVertex
 10
129.590075
 20
-70.795933
 30
0.0
 70
0
  0
VERTEX
  5
D0
330
17
100
AcDbEntity
  8
0
100
AcDbVertex
100
AcDb2dVertex
 10
129.636137
 20
-70.769447
 30
0.0
 70
0
  0
VERTEX
  5
D1
330
17
100
AcDbEntity
  8
0
100
AcDbVertex
100
AcDb2dVertex
 10
129.683567
 20
-70.745155
 30
0.0
 70
0
  0
VERTEX
  5
D2
330
17
100
AcDbEntity
  8
0
100
AcDbVertex
100
AcDb2dVertex
 10
129.732295
 20
-70.723127
 30
0.0
 70
0
  0
VERTEX
  5
D3
330
17
100
AcDbEntity
  8
0
100
AcDbVertex
100
AcDb2dVertex
 10
129.782253
 20
-70.703432
 30
0.0
 70
0
  0
VERTEX
  5
D4
330
17
100
AcDbEntity
  8
0
100
AcDbVertex
100
AcDb2dVertex
 10
129.833371
 20
-70.686138
 30
0.0
 70
0
  0
VERTEX
  5
D5
330
17
100
AcDbEntity
  8
0
100
AcDbVertex
100
AcDb2dVertex
 10
129.88558
 20
-70.671316
 30
0.0
 70
0
  0
VERTEX
  5
D6
330
17
100
AcDbEntity
  8
0
100
AcDbVertex
100
AcDb2dVertex
 10
129.938812
 20
-70.659033
 30
0.0
 70
0
  0
VERTEX
  5
D7
330
17
100
AcDbEntity
  8
0
100
AcDbVertex
100
AcDb2dVertex
 10
129.992997
 20
-70.64936
 30
0.0
 70
0
  0
VERTEX
  5
D8
330
17
100
AcDbEntity
  8
0
100
AcDbVertex
100
AcDb2dVertex
 10
130.048067
 20
-70.642365
 30
0.0
 70
0
  0
VERTEX
  5
D9
330
17
100
AcDbEntity
  8
0
100
AcDbVertex
100
AcDb2dVertex
 10
130.103953
 20
-70.638117
 30
0.0
 70
0
  0
VERTEX
  5
DA
330
17
100
AcDbEntity
  8
0
100
AcDbVertex
100
AcDb2dVertex
 10
130.160585
 20
-70.636686
 30
0.0
 70
0
  0
VERTEX
  5
DB
330
17
100
AcDbEntity
  8
0
100
AcDbVertex
100
AcDb2dVertex
 10
130.217191
 20
-70.638117
 30
0.0
 70
0
  0
VERTEX
  5
DC
330
17
100
AcDbEntity
  8
0
100
AcDbVertex
100
AcDb2dVertex
 10
130.273054
 20
-70.642365
 30
0.0
 70
0
  0
VERTEX
  5
DD
330
17
100
AcDbEntity
  8
0
100
AcDbVertex
100
AcDb2dVertex
 10
130.328104
 20
-70.64936
 30
0.0
 70
0
  0
VERTEX
  5
DE
330
17
100
AcDbEntity
  8
0
100
AcDbVertex
100
AcDb2dVertex
 10
130.382273
 20
-70.659033
 30
0.0
 70
0
  0
VERTEX
  5
DF
330
17
100
AcDbEntity
  8
0
100
AcDbVertex
100
AcDb2dVertex
 10
130.435491
 20
-70.671316
 30
0.0
 70
0
  0
VERTEX
  5
E0
330
17
100
AcDbEntity
  8
0
100
AcDbVertex
100
AcDb2dVertex
 10
130.48769
 20
-70.686138
 30
0.0
 70
0
  0
VERTEX
  5
E1
330
17
100
AcDbEntity
  8
0
100
AcDbVertex
100
AcDb2dVertex
 10
130.538799
 20
-70.703432
 30
0.0
 70
0
  0
VERTEX
  5
E2
330
17
100
AcDbEntity
  8
0
100
AcDbVertex
100
AcDb2dVertex
 10
130.588751
 20
-70.723127
 30
0.0
 70
0
  0
VERTEX
  5
E3
330
17
100
AcDbEntity
  8
0
100
AcDbVertex
100
AcDb2dVertex
 10
130.637476
 20
-70.745155
 30
0.0
 70
0
  0
VERTEX
  5
E4
330
17
100
AcDbEntity
  8
0
100
AcDbVertex
100
AcDb2dVertex
 10
130.684905
 20
-70.769447
 30
0.0
 70
0
  0
VERTEX
  5
E5
330
17
100
AcDbEntity
  8
0
100
AcDbVertex
100
AcDb2dVertex
 10
130.730969
 20
-70.795933
 30
0.0
 70
0
  0
VERTEX
  5
E6
330
17
100
AcDbEntity
  8
0
100
AcDbVertex
100
AcDb2dVertex
 10
130.775598
 20
-70.824544
 30
0.0
 70
0
  0
VERTEX
  5
E7
330
17
100
AcDbEntity
  8
0
100
AcDbVertex
100
AcDb2dVertex
 10
130.818724
 20
-70.855211
 30
0.0
 70
0
  0
VERTEX
  5
E8
330
17
100
AcDbEntity
  8
0
100
AcDbVertex
100
AcDb2dVertex
 10
130.860278
 20
-70.887866
 30
0.0
 70
0
  0
VERTEX
  5
E9
330
17
100
AcDbEntity
  8
0
100
AcDbVertex
100
AcDb2dVertex
 10
130.90019
 20
-70.922438
 30
0.0
 70
0
  0
VERTEX
  5
EA
330
17
100
AcDbEntity
  8
0
100
AcDbVertex
100
AcDb2dVertex
 10
130.938391
 20
-70.95886
 30
0.0
 70
0
  0
VERTEX
  5
EB
330
17
100
AcDbEntity
  8
0
100
AcDbVertex
100
AcDb2dVertex
 10
130.974812
 20
-70.997061
 30
0.0
 70
0
  0
VERTEX
  5
EC
330
17
100
AcDbEntity
  8
0
100
AcDbVertex
100
AcDb2dVertex
 10
131.009384
 20
-71.036973
 30
0.0
 70
0
  0
VERTEX
  5
ED
330
17
100
AcDbEntity
  8
0
100
AcDbVertex
100
AcDb2dVertex
 10
131.042039
 20
-71.078526
 30
0.0
 70
0
  0
VERTEX
  5
EE
330
17
100
AcDbEntity
  8
0
100
AcDbVertex
100
AcDb2dVertex
 10
131.072706
 20
-71.121651
 30
0.0
 70
0
  0
VERTEX
  5
EF
330
17
100
AcDbEntity
  8
0
100
AcDbVertex
100
AcDb2dVertex
 10
131.101317
 20
-71.16628
 30
0.0
 70
0
  0
VERTEX
  5
F0
330
17
100
AcDbEntity
  8
0
100
AcDbVertex
100
AcDb2dVertex
 10
131.127803
 20
-71.212343
 30
0.0
 70
0
  0
VERTEX
  5
F1
330
17
100
AcDbEntity
  8
0
100
AcDbVertex
100
AcDb2dVertex
 10
131.152094
 20
-71.259771
 30
0.0
 70
0
  0
VERTEX
  5
F2
330
17
100
AcDbEntity
  8
0
100
AcDbVertex
100
AcDb2dVertex
 10
131.174121
 20
-71.308495
 30
0.0
 70
0
  0
VERTEX
  5
F3
330
17
100
AcDbEntity
  8
0
100
AcDbVertex
100
AcDb2dVertex
 10
131.193816
 20
-71.358446
 30
0.0
 70
0
  0
VERTEX
  5
F4
330
17
100
AcDbEntity
  8
0
100
AcDbVertex
100
AcDb2dVertex
 10
131.211109
 20
-71.409555
 30
0.0
 70
0
  0
VERTEX
  5
F5
330
17
100
AcDbEntity
  8
0
100
AcDbVertex
100
AcDb2dVertex
 10
131.225932
 20
-71.461752
 30
0.0
 70
0
  0
VERTEX
  5
F6
330
17
100
AcDbEntity
  8
0
100
AcDbVertex
100
AcDb2dVertex
 10
131.238214
 20
-71.514968
 30
0.0
 70
0
  0
VERTEX
  5
F7
330
17
100
AcDbEntity
  8
0
100
AcDbVertex
100
AcDb2dVertex
 10
131.247887
 20
-71.569135
 30
0.0
 70
0
  0
VERTEX
  5
F8
330
17
100
AcDbEntity
  8
0
100
AcDbVertex
100
AcDb2dVertex
 10
131.254882
 20
-71.624183
 30
0.0
 70
0
  0
VERTEX
  5
F9
330
17
100
AcDbEntity
  8
0
100
AcDbVertex
100
AcDb2dVertex
 10
131.25913
 20
-71.680043
 30
0.0
 70
0
  0
VERTEX
  5
FA
330
17
100
AcDbEntity
  8
0
100
AcDbVertex
100
AcDb2dVertex
 10
131.260561
 20
-71.736646
 30
0.0
 70
0
  0
VERTEX
  5
FB
330
17
100
AcDbEntity
  8
0
100
AcDbVertex
100
AcDb2dVertex
 10
131.25913
 20
-71.79328
 30
0.0
 70
0
  0
VERTEX
  5
FC
330
17
100
AcDbEntity
  8
0
100
AcDbVertex
100
AcDb2dVertex
 10
131.254882
 20
-71.849168
 30
0.0
 70
0
  0
VERTEX
  5
FD
330
17
100
AcDbEntity
  8
0
100
AcDbVertex
100
AcDb2dVertex
 10
131.247887
 20
-71.904239
 30
0.0
 70
0
  0
VERTEX
  5
FE
330
17
100
AcDbEntity
  8
0
100
AcDbVertex
100
AcDb2dVertex
 10
131.238214
 20
-71.958426
 30
0.0
 70
0
  0
VERTEX
  5
FF
330
17
100
AcDbEntity
  8
0
100
AcDbVertex
100
AcDb2dVertex
 10
131.225932
 20
-72.011659
 30
0.0
 70
0
  0
VERTEX
  5
100
330
17
100
AcDbEntity
  8
0
100
AcDbVertex
100
AcDb2dVertex
 10
131.211109
 20
-72.063869
 30
0.0
 70
0
  0
VERTEX
  5
101
330
17
100
AcDbEntity
  8
0
100
AcDbVertex
100
AcDb2dVertex
 10
131.193816
 20
-72.114988
 30
0.0
 70
0
  0
VERTEX
  5
102
330
17
100
AcDbEntity
  8
0
100
AcDbVertex
100
AcDb2dVertex
 10
131.174121
 20
-72.164946
 30
0.0
 70
0
  0
VERTEX
  5
103
330
17
100
AcDbEntity
  8
0
100
AcDbVertex
100
AcDb2dVertex
 10
131.152094
 20
-72.213675
 30
0.0
 70
0
  0
VERTEX
  5
104
330
17
100
AcDbEntity
  8
0
100
AcDbVertex
100
AcDb2dVertex
 10
131.127803
 20
-72.261106
 30
0.0
 70
0
  0
VERTEX
  5
105
330
17
100
AcDbEntity
  8
0
100
AcDbVertex
100
AcDb2dVertex
 10
131.101317
 20
-72.307169
 30
0.0
 70
0
  0
VERTEX
  5
106
330
17
100
AcDbEntity
  8
0
100
AcDbVertex
100
AcDb2dVertex
 10
131.072706
 20
-72.351796
 30
0.0
 70
0
  0
VERTEX
  5
107
330
17
100
AcDbEntity
  8
0
100
AcDbVertex
100
AcDb2dVertex
 10
131.042039
 20
-72.394919
 30
0.0
 70
0
  0
VERTEX
  5
108
330
17
100
AcDbEntity
  8
0
100
AcDbVertex
100
AcDb2dVertex
 10
131.009384
 20
-72.436467
 30
0.0
 70
0
  0
VERTEX
  5
109
330
17
100
AcDbEntity
  8
0
100
AcDbVertex
100
AcDb2dVertex
 10
130.974812
 20
-72.476372
 30
0.0
 70
0
  0
VERTEX
  5
10A
330
17
100
AcDbEntity
  8
0
100
AcDbVertex
100
AcDb2dVertex
 10
130.938391
 20
-72.514565
 30
0.0
 70
0
  0
VERTEX
  5
10B
330
17
100
AcDbEntity
  8
0
100
AcDbVertex
100
AcDb2dVertex
 10
130.90019
 20
-72.550978
 30
0.0
 70
0
  0
VERTEX
  5
10C
330
17
100
AcDbEntity
  8
0
100
AcDbVertex
100
AcDb2dVertex
 10
130.860278
 20
-72.585541
 30
0.0
 70
0
  0
VERTEX
  5
10D
330
17
100
AcDbEntity
  8
0
100
AcDbVertex
100
AcDb2dVertex
 10
130.818724
 20
-72.618185
 30
0.0
 70
0
  0
VERTEX
  5
10E
330
17
100
AcDbEntity
  8
0
100
AcDbVertex
100
AcDb2dVertex
 10
130.775598
 20
-72.648842
 30
0.0
 70
0
  0
VERTEX
  5
10F
330
17
100
AcDbEntity
  8
0
100
AcDbVertex
100
AcDb2dVertex
 10
130.730969
 20
-72.677442
 30
0.0
 70
0
  0
VERTEX
  5
110
330
17
100
AcDbEntity
  8
0
100
AcDbVertex
100
AcDb2dVertex
 10
130.684905
 20
-72.703917
 30
0.0
 70
0
  0
VERTEX
  5
111
330
17
100
AcDbEntity
  8
0
100
AcDbVertex
100
AcDb2dVertex
 10
130.637476
 20
-72.728197
 30
0.0
 70
0
  0
VERTEX
  5
112
330
17
100
AcDbEntity
  8
0
100
AcDbVertex
100
AcDb2dVertex
 10
130.588751
 20
-72.750215
 30
0.0
 70
0
  0
VERTEX
  5
113
330
17
100
AcDbEntity
  8
0
100
AcDbVertex
100
AcDb2dVertex
 10
130.538799
 20
-72.7699
 30
0.0
 70
0
  0
VERTEX
  5
114
330
17
100
AcDbEntity
  8
0
100
AcDbVertex
100
AcDb2dVertex
 10
130.48769
 20
-72.787184
 30
0.0
 70
0
  0
VERTEX
  5
115
330
17
100
AcDbEntity
  8
0
100
AcDbVertex
100
AcDb2dVertex
 10
130.435491
 20
-72.801998
 30
0.0
 70
0
  0
VERTEX
  5
116
330
17
100
AcDbEntity
  8
0
100
AcDbVertex
100
AcDb2dVertex
 10
130.382273
 20
-72.814273
 30
0.0
 70
0
  0
VERTEX
  5
117
330
17
100
AcDbEntity
  8
0
100
AcDbVertex
100
AcDb2dVertex
 10
130.328104
 20
-72.823941
 30
0.0
 70
0
  0
VERTEX
  5
118
330
17
100
AcDbEntity
  8
0
100
AcDbVertex
100
AcDb2dVertex
 10
130.273054
 20
-72.830931
 30
0.0
 70
0
  0
VERTEX
  5
119
330
17
100
AcDbEntity
  8
0
100
AcDbVertex
100
AcDb2dVertex
 10
130.217191
 20
-72.835176
 30
0.0
 70
0
  0
VERTEX
  5
11A
330
17
100
AcDbEntity
  8
0
100
AcDbVertex
100
AcDb2dVertex
 10
130.160585
 20
-72.836606
 30
0.0
 70
0
  0
VERTEX
  5
11B
330
17
100
AcDbEntity
  8
0
100
AcDbVertex
100
AcDb2dVertex
 10
130.103953
 20
-72.835176
 30
0.0
 70
0
  0
VERTEX
  5
11C
330
17
100
AcDbEntity
  8
0
100
AcDbVertex
100
AcDb2dVertex
 10
130.048067
 20
-72.830931
 30
0.0
 70
0
  0
VERTEX
  5
11D
330
17
100
AcDbEntity
  8
0
100
AcDbVertex
100
AcDb2dVertex
 10
129.992997
 20
-72.823941
 30
0.0
 70
0
  0
VERTEX
  5
11E
330
17
100
AcDbEntity
  8
0
100
AcDbVertex
100
AcDb2dVertex
 10
129.938812
 20
-72.814273
 30
0.0
 70
0
  0
VERTEX
  5
11F
330
17
100
AcDbEntity
  8
0
100
AcDbVertex
100
AcDb2dVertex
 10
129.88558
 20
-72.801998
 30
0.0
 70
0
  0
VERTEX
  5
120
330
17
100
AcDbEntity
  8
0
100
AcDbVertex
100
AcDb2dVertex
 10
129.833371
 20
-72.787184
 30
0.0
 70
0
  0
VERTEX
  5
121
330
17
100
AcDbEntity
  8
0
100
AcDbVertex
100
AcDb2dVertex
 10
129.782253
 20
-72.7699
 30
0.0
 70
0
  0
VERTEX
  5
122
330
17
100
AcDbEntity
  8
0
100
AcDbVertex
100
AcDb2dVertex
 10
129.732295
 20
-72.750215
 30
0.0
 70
0
  0
VERTEX
  5
123
330
17
100
AcDbEntity
  8
0
100
AcDbVertex
100
AcDb2dVertex
 10
129.683567
 20
-72.728197
 30
0.0
 70
0
  0
VERTEX
  5
124
330
17
100
AcDbEntity
  8
0
100
AcDbVertex
100
AcDb2dVertex
 10
129.636137
 20
-72.703917
 30
0.0
 70
0
  0
VERTEX
  5
125
330
17
100
AcDbEntity
  8
0
100
AcDbVertex
100
AcDb2dVertex
 10
129.590075
 20
-72.677442
 30
0.0
 70
0
  0
VERTEX
  5
126
330
17
100
AcDbEntity
  8
0
100
AcDbVertex
100
AcDb2dVertex
 10
129.545448
 20
-72.648842
 30
0.0
 70
0
  0
VERTEX
  5
127
330
17
100
AcDbEntity
  8
0
100
AcDbVertex
100
AcDb2dVertex
 10
129.502326
 20
-72.618185
 30
0.0
 70
0
  0
VERTEX
  5
128
330
17
100
AcDbEntity
  8
0
100
AcDbVertex
100
AcDb2dVertex
 10
129.460779
 20
-72.585541
 30
0.0
 70
0
  0
VERTEX
  5
129
330
17
100
AcDbEntity
  8
0
100
AcDbVertex
100
AcDb2dVertex
 10
129.420874
 20
-72.550978
 30
0.0
 70
0
  0
VERTEX
  5
12A
330
17
100
AcDbEntity
  8
0
100
AcDbVertex
100
AcDb2dVertex
 10
129.382681
 20
-72.514565
 30
0.0
 70
0
  0
VERTEX
  5
12B
330
17
100
AcDbEntity
  8
0
100
AcDbVertex
100
AcDb2dVertex
 10
129.346269
 20
-72.476372
 30
0.0
 70
0
  0
VERTEX
  5
12C
330
17
100
AcDbEntity
  8
0
100
AcDbVertex
100
AcDb2dVertex
 10
129.311706
 20
-72.436467
 30
0.0
 70
0
  0
VERTEX
  5
12D
330
17
100
AcDbEntity
  8
0
100
AcDbVertex
100
AcDb2dVertex
 10
129.279062
 20
-72.394919
 30
0.0
 70
0
  0
VERTEX
  5
12E
330
17
100
AcDbEntity
  8
0
100
AcDbVertex
100
AcDb2dVertex
 10
129.248405
 20
-72.351796
 30
0.0
 70
0
  0
VERTEX
  5
12F
330
17
100
AcDbEntity
  8
0
100
AcDbVertex
100
AcDb2dVertex
 10
129.219805
 20
-72.307169
 30
0.0
 70
0
  0
VERTEX
  5
130
330
17
100
AcDbEntity
  8
0
100
AcDbVertex
100
AcDb2dVertex
 10
129.19333
 20
-72.261106
 30
0.0
 70
0
  0
VERTEX
  5
131
330
17
100
AcDbEntity
  8
0
100
AcDbVertex
100
AcDb2dVertex
 10
129.16905
 20
-72.213675
 30
0.0
 70
0
  0
VERTEX
  5
132
330
17
100
AcDbEntity
  8
0
100
AcDbVertex
100
AcDb2dVertex
 10
129.147032
 20
-72.164946
 30
0.0
 70
0
  0
VERTEX
  5
133
330
17
100
AcDbEntity
  8
0
100
AcDbVertex
100
AcDb2dVertex
 10
129.127347
 20
-72.114988
 30
0.0
 70
0
  0
VERTEX
  5
134
330
17
100
AcDbEntity
  8
0
100
AcDbVertex
100
AcDb2dVertex
 10
129.110063
 20
-72.063869
 30
0.0
 70
0
  0
VERTEX
  5
135
330
17
100
AcDbEntity
  8
0
100
AcDbVertex
100
AcDb2dVertex
 10
129.095249
 20
-72.011659
 30
0.0
 70
0
  0
VERTEX
  5
136
330
17
100
AcDbEntity
  8
0
100
AcDbVertex
100
AcDb2dVertex
 10
129.082974
 20
-71.958426
 30
0.0
 70
0
  0
VERTEX
  5
137
330
17
100
AcDbEntity
  8
0
100
AcDbVertex
100
AcDb2dVertex
 10
129.073306
 20
-71.904239
 30
0.0
 70
0
  0
VERTEX
  5
138
330
17
100
AcDbEntity
  8
0
100
AcDbVertex
100
AcDb2dVertex
 10
129.066316
 20
-71.849168
 30
0.0
 70
0
  0
VERTEX
  5
139
330
17
100
AcDbEntity
  8
0
100
AcDbVertex
100
AcDb2dVertex
 10
129.062071
 20
-71.79328
 30
0.0
 70
0
  0
VERTEX
  5
13A
330
17
100
AcDbEntity
  8
0
100
AcDbVertex
100
AcDb2dVertex
 10
129.06064
 20
-71.736646
 30
0.0
 70
0
  0
SEQEND
  5
B9
330
B8
100
AcDbEntity
  8
0
  0
POLYLINE
  5
13B
330
17
100
AcDbEntity
  8
0
100
AcDb2dPolyline
 66
1
 10
0.0
 20
0.0
 30
0.0
 70
1
  0
VERTEX
  5
13D
330
17
100
AcDbEntity
  8
0
100
AcDbVertex
100
AcDb2dVertex
 10
143.492464
 20
-80.257737
 30
0.0
 70
0
  0
VERTEX
  5
13E
330
17
100
AcDbEntity
  8
0
100
AcDbVertex
100
AcDb2dVertex
 10
143.493895
 20
-80.201103
 30
0.0
 70
0
  0
VERTEX
  5
13F
330
17
100
AcDbEntity
  8
0
100
AcDbVertex
100
AcDb2dVertex
 10
143.498143
 20
-80.145215
 30
0.0
 70
0
  0
VERTEX
  5
140
330
17
100
AcDbEntity
  8
0
100
AcDbVertex
100
AcDb2dVertex
 10
143.505139
 20
-80.090143
 30
0.0
 70
0
  0
VERTEX
  5
141
330
17
100
AcDbEntity
  8
0
100
AcDbVertex
100
AcDb2dVertex
 10
143.514812
 20
-80.035956
 30
0.0
 70
0
  0
VERTEX
  5
142
330
17
100
AcDbEntity
  8
0
100
AcDbVertex
100
AcDb2dVertex
 10
143.527095
 20
-79.982723
 30
0.0
 70
0
  0
VERTEX
  5
143
330
17
100
AcDbEntity
  8
0
100
AcDbVertex
100
AcDb2dVertex
 10
143.541918
 20
-79.930512
 30
0.0
 70
0
  0
VERTEX
  5
144
330
17
100
AcDbEntity
  8
0
100
AcDbVertex
100
AcDb2dVertex
 10
143.559212
 20
-79.879393
 30
0.0
 70
0
  0
VERTEX
  5
145
330
17
100
AcDbEntity
  8
0
100
AcDbVertex
100
AcDb2dVertex
 10
143.578908
 20
-79.829434
 30
0.0
 70
0
  0
VERTEX
  5
146
330
17
100
AcDbEntity
  8
0
100
AcDbVertex
100
AcDb2dVertex
 10
143.600936
 20
-79.780705
 30
0.0
 70
0
  0
VERTEX
  5
147
330
17
100
AcDbEntity
  8
0
100
AcDbVertex
100
AcDb2dVertex
 10
143.625229
 20
-79.733274
 30
0.0
 70
0
  0
VERTEX
  5
148
330
17
100
AcDbEntity
  8
0
100
AcDbVertex
100
AcDb2dVertex
 10
143.651715
 20
-79.68721
 30
0.0
 70
0
  0
VERTEX
  5
149
330
17
100
AcDbEntity
  8
0
100
AcDbVertex
100
AcDb2dVertex
 10
143.680327
 20
-79.642583
 30
0.0
 70
0
  0
VERTEX
  5
14A
330
17
100
AcDbEntity
  8
0
100
AcDbVertex
100
AcDb2dVertex
 10
143.710995
 20
-79.59946
 30
0.0
 70
0
  0
VERTEX
  5
14B
330
17
100
AcDbEntity
  8
0
100
AcDbVertex
100
AcDb2dVertex
 10
143.74365
 20
-79.557912
 30
0.0
 70
0
  0
VERTEX
  5
14C
330
17
100
AcDbEntity
  8
0
100
AcDbVertex
100
AcDb2dVertex
 10
143.778224
 20
-79.518006
 30
0.0
 70
0
  0
VERTEX
  5
14D
330
17
100
AcDbEntity
  8
0
100
AcDbVertex
100
AcDb2dVertex
 10
143.814646
 20
-79.479813
 30
0.0
 70
0
  0
VERTEX
  5
14E
330
17
100
AcDbEntity
  8
0
100
AcDbVertex
100
AcDb2dVertex
 10
143.852848
 20
-79.4434
 30
0.0
 70
0
  0
VERTEX
  5
14F
330
17
100
AcDbEntity
  8
0
100
AcDbVertex
100
AcDb2dVertex
 10
143.89276
 20
-79.408837
 30
0.0
 70
0
  0
VERTEX
  5
150
330
17
100
AcDbEntity
  8
0
100
AcDbVertex
100
AcDb2dVertex
 10
143.934314
 20
-79.376192
 30
0.0
 70
0
  0
VERTEX
  5
151
330
17
100
AcDbEntity
  8
0
100
AcDbVertex
100
AcDb2dVertex
 10
143.97744
 20
-79.345535
 30
0.0
 70
0
  0
VERTEX
  5
152
330
17
100
AcDbEntity
  8
0
100
AcDbVertex
100
AcDb2dVertex
 10
144.02207
 20
-79.316935
 30
0.0
 70
0
  0
VERTEX
  5
153
330
17
100
AcDbEntity
  8
0
100
AcDbVertex
100
AcDb2dVertex
 10
144.068133
 20
-79.29046
 30
0.0
 70
0
  0
VERTEX
  5
154
330
17
100
AcDbEntity
  8
0
100
AcDbVertex
100
AcDb2dVertex
 10
144.115562
 20
-79.266179
 30
0.0
 70
0
  0
VERTEX
  5
155
330
17
100
AcDbEntity
  8
0
100
AcDbVertex
100
AcDb2dVertex
 10
144.164287
 20
-79.244162
 30
0.0
 70
0
  0
VERTEX
  5
156
330
17
100
AcDbEntity
  8
0
100
AcDbVertex
100
AcDb2dVertex
 10
144.214238
 20
-79.224476
 30
0.0
 70
0
  0
VERTEX
  5
157
330
17
100
AcDbEntity
  8
0
100
AcDbVertex
100
AcDb2dVertex
 10
144.265347
 20
-79.207192
 30
0.0
 70
0
  0
VERTEX
  5
158
330
17
100
AcDbEntity
  8
0
100
AcDbVertex
100
AcDb2dVertex
 10
144.317544
 20
-79.192378
 30
0.0
 70
0
  0
VERTEX
  5
159
330
17
100
AcDbEntity
  8
0
100
AcDbVertex
100
AcDb2dVertex
 10
144.370761
 20
-79.180103
 30
0.0
 70
0
  0
VERTEX
  5
15A
330
17
100
AcDbEntity
  8
0
100
AcDbVertex
100
AcDb2dVertex
 10
144.424928
 20
-79.170435
 30
0.0
 70
0
  0
VERTEX
  5
15B
330
17
100
AcDbEntity
  8
0
100
AcDbVertex
100
AcDb2dVertex
 10
144.479976
 20
-79.163445
 30
0.0
 70
0
  0
VERTEX
  5
15C
330
17
100
AcDbEntity
  8
0
100
AcDbVertex
100
AcDb2dVertex
 10
144.535837
 20
-79.1592
 30
0.0
 70
0
  0
VERTEX
  5
15D
330
17
100
AcDbEntity
  8
0
100
AcDbVertex
100
AcDb2dVertex
 10
144.59244
 20
-79.157769
 30
0.0
 70
0
  0
VERTEX
  5
15E
330
17
100
AcDbEntity
  8
0
100
AcDbVertex
100
AcDb2dVertex
 10
144.649043
 20
-79.1592
 30
0.0
 70
0
  0
VERTEX
  5
15F
330
17
100
AcDbEntity
  8
0
100
AcDbVertex
100
AcDb2dVertex
 10
144.704903
 20
-79.163445
 30
0.0
 70
0
  0
VERTEX
  5
160
330
17
100
AcDbEntity
  8
0
100
AcDbVertex
100
AcDb2dVertex
 10
144.759951
 20
-79.170435
 30
0.0
 70
0
  0
VERTEX
  5
161
330
17
100
AcDbEntity
  8
0
100
AcDbVertex
100
AcDb2dVertex
 10
144.814118
 20
-79.180103
 30
0.0
 70
0
  0
VERTEX
  5
162
330
17
100
AcDbEntity
  8
0
100
AcDbVertex
100
AcDb2dVertex
 10
144.867335
 20
-79.192378
 30
0.0
 70
0
  0
VERTEX
  5
163
330
17
100
AcDbEntity
  8
0
100
AcDbVertex
100
AcDb2dVertex
 10
144.919532
 20
-79.207192
 30
0.0
 70
0
  0
VERTEX
  5
164
330
17
100
AcDbEntity
  8
0
100
AcDbVertex
100
AcDb2dVertex
 10
144.970641
 20
-79.224476
 30
0.0
 70
0
  0
VERTEX
  5
165
330
17
100
AcDbEntity
  8
0
100
AcDbVertex
100
AcDb2dVertex
 10
145.020593
 20
-79.244162
 30
0.0
 70
0
  0
VERTEX
  5
166
330
17
100
AcDbEntity
  8
0
100
AcDbVertex
100
AcDb2dVertex
 10
145.069317
 20
-79.266179
 30
0.0
 70
0
  0
VERTEX
  5
167
330
17
100
AcDbEntity
  8
0
100
AcDbVertex
100
AcDb2dVertex
 10
145.116746
 20
-79.29046
 30
0.0
 70
0
  0
VERTEX
  5
168
330
17
100
AcDbEntity
  8
0
100
AcDbVertex
100
AcDb2dVertex
 10
145.16281
 20
-79.316935
 30
0.0
 70
0
  0
VERTEX
  5
169
330
17
100
AcDbEntity
  8
0
100
AcDbVertex
100
AcDb2dVertex
 10
145.207439
 20
-79.345535
 30
0.0
 70
0
  0
VERTEX
  5
16A
330
17
100
AcDbEntity
  8
0
100
AcDbVertex
100
AcDb2dVertex
 10
145.250565
 20
-79.376192
 30
0.0
 70
0
  0
VERTEX
  5
16B
330
17
100
AcDbEntity
  8
0
100
AcDbVertex
100
AcDb2dVertex
 10
145.292119
 20
-79.408837
 30
0.0
 70
0
  0
VERTEX
  5
16C
330
17
100
AcDbEntity
  8
0
100
AcDbVertex
100
AcDb2dVertex
 10
145.332032
 20
-79.4434
 30
0.0
 70
0
  0
VERTEX
  5
16D
330
17
100
AcDbEntity
  8
0
100
AcDbVertex
100
AcDb2dVertex
 10
145.370234
 20
-79.479813
 30
0.0
 70
0
  0
VERTEX
  5
16E
330
17
100
AcDbEntity
  8
0
100
AcDbVertex
100
AcDb2dVertex
 10
145.406656
 20
-79.518006
 30
0.0
 70
0
  0
VERTEX
  5
16F
330
17
100
AcDbEntity
  8
0
100
AcDbVertex
100
AcDb2dVertex
 10
145.441229
 20
-79.557912
 30
0.0
 70
0
  0
VERTEX
  5
170
330
17
100
AcDbEntity
  8
0
100
AcDbVertex
100
AcDb2dVertex
 10
145.473884
 20
-79.59946
 30
0.0
 70
0
  0
VERTEX
  5
171
330
17
100
AcDbEntity
  8
0
100
AcDbVertex
100
AcDb2dVertex
 10
145.504552
 20
-79.642583
 30
0.0
 70
0
  0
VERTEX
  5
172
330
17
100
AcDbEntity
  8
0
100
AcDbVertex
100
AcDb2dVertex
 10
145.533164
 20
-79.68721
 30
0.0
 70
0
  0
VERTEX
  5
173
330
17
100
AcDbEntity
  8
0
100
AcDbVertex
100
AcDb2dVertex
 10
145.559651
 20
-79.733274
 30
0.0
 70
0
  0
VERTEX
  5
174
330
17
100
AcDbEntity
  8
0
100
AcDbVertex
100
AcDb2dVertex
 10
145.583943
 20
-79.780705
 30
0.0
 70
0
  0
VERTEX
  5
175
330
17
100
AcDbEntity
  8
0
100
AcDbVertex
100
AcDb2dVertex
 10
145.605971
 20
-79.829434
 30
0.0
 70
0
  0
VERTEX
  5
176
330
17
100
AcDbEntity
  8
0
100
AcDbVertex
100
AcDb2dVertex
 10
145.625667
 20
-79.879393
 30
0.0
 70
0
  0
VERTEX
  5
177
330
17
100
AcDbEntity
  8
0
100
AcDbVertex
100
AcDb2dVertex
 10
145.642961
 20
-79.930512
 30
0.0
 70
0
  0
VERTEX
  5
178
330
17
100
AcDbEntity
  8
0
100
AcDbVertex
100
AcDb2dVertex
 10
145.657784
 20
-79.982723
 30
0.0
 70
0
  0
VERTEX
  5
179
330
17
100
AcDbEntity
  8
0
100
AcDbVertex
100
AcDb2dVertex
 10
145.670067
 20
-80.035956
 30
0.0
 70
0
  0
VERTEX
  5
17A
330
17
100
AcDbEntity
  8
0
100
AcDbVertex
100
AcDb2dVertex
 10
145.679741
 20
-80.090143
 30
0.0
 70
0
  0
VERTEX
  5
17B
330
17
100
AcDbEntity
  8
0
100
AcDbVertex
100
AcDb2dVertex
 10
145.686736
 20
-80.145215
 30
0.0
 70
0
  0
VERTEX
  5
17C
330
17
100
AcDbEntity
  8
0
100
AcDbVertex
100
AcDb2dVertex
 10
145.690984
 20
-80.201103
 30
0.0
 70
0
  0
VERTEX
  5
17D
330
17
100
AcDbEntity
  8
0
100
AcDbVertex
100
AcDb2dVertex
 10
145.692415
 20
-80.257737
 30
0.0
 70
0
  0
VERTEX
  5
17E
330
17
100
AcDbEntity
  8
0
100
AcDbVertex
100
AcDb2dVertex
 10
145.690984
 20
-80.31434
 30
0.0
 70
0
  0
VERTEX
  5
17F
330
17
100
AcDbEntity
  8
0
100
AcDbVertex
100
AcDb2dVertex
 10
145.686736
 20
-80.370199
 30
0.0
 70
0
  0
VERTEX
  5
180
330
17
100
AcDbEntity
  8
0
100
AcDbVertex
100
AcDb2dVertex
 10
145.679741
 20
-80.425247
 30
0.0
 70
0
  0
VERTEX
  5
181
330
17
100
AcDbEntity
  8
0
100
AcDbVertex
100
AcDb2dVertex
 10
145.670067
 20
-80.479413
 30
0.0
 70
0
  0
VERTEX
  5
182
330
17
100
AcDbEntity
  8
0
100
AcDbVertex
100
AcDb2dVertex
 10
145.657784
 20
-80.532629
 30
0.0
 70
0
  0
VERTEX
  5
183
330
17
100
AcDbEntity
  8
0
100
AcDbVertex
100
AcDb2dVertex
 10
145.642961
 20
-80.584825
 30
0.0
 70
0
  0
VERTEX
  5
184
330
17
100
AcDbEntity
  8
0
100
AcDbVertex
100
AcDb2dVertex
 10
145.625667
 20
-80.635933
 30
0.0
 70
0
  0
VERTEX
  5
185
330
17
100
AcDbEntity
  8
0
100
AcDbVertex
100
AcDb2dVertex
 10
145.605971
 20
-80.685884
 30
0.0
 70
0
  0
VERTEX
  5
186
330
17
100
AcDbEntity
  8
0
100
AcDbVertex
100
AcDb2dVertex
 10
145.583943
 20
-80.734607
 30
0.0
 70
0
  0
VERTEX
  5
187
330
17
100
AcDbEntity
  8
0
100
AcDbVertex
100
AcDb2dVertex
 10
145.559651
 20
-80.782035
 30
0.0
 70
0
  0
VERTEX
  5
188
330
17
100
AcDbEntity
  8
0
100
AcDbVertex
100
AcDb2dVertex
 10
145.533164
 20
-80.828098
 30
0.0
 70
0
  0
VERTEX
  5
189
330
17
100
AcDbEntity
  8
0
100
AcDbVertex
100
AcDb2dVertex
 10
145.504552
 20
-80.872726
 30
0.0
 70
0
  0
VERTEX
  5
18A
330
17
100
AcDbEntity
  8
0
100
AcDbVertex
100
AcDb2dVertex
 10
145.473884
 20
-80.915852
 30
0.0
 70
0
  0
VERTEX
  5
18B
330
17
100
AcDbEntity
  8
0
100
AcDbVertex
100
AcDb2dVertex
 10
145.441229
 20
-80.957405
 30
0.0
 70
0
  0
VERTEX
  5
18C
330
17
100
AcDbEntity
  8
0
100
AcDbVertex
100
AcDb2dVertex
 10
145.406656
 20
-80.997316
 30
0.0
 70
0
  0
VERTEX
  5
18D
330
17
100
AcDbEntity
  8
0
100
AcDbVertex
100
AcDb2dVertex
 10
145.370234
 20
-81.035517
 30
0.0
 70
0
  0
VERTEX
  5
18E
330
17
100
AcDbEntity
  8
0
100
AcDbVertex
100
AcDb2dVertex
 10
145.332032
 20
-81.071938
 30
0.0
 70
0
  0
VERTEX
  5
18F
330
17
100
AcDbEntity
  8
0
100
AcDbVertex
100
AcDb2dVertex
 10
145.292119
 20
-81.106511
 30
0.0
 70
0
  0
VERTEX
  5
190
330
17
100
AcDbEntity
  8
0
100
AcDbVertex
100
AcDb2dVertex
 10
145.250565
 20
-81.139165
 30
0.0
 70
0
  0
VERTEX
  5
191
330
17
100
AcDbEntity
  8
0
100
AcDbVertex
100
AcDb2dVertex
 10
145.207439
 20
-81.169832
 30
0.0
 70
0
  0
VERTEX
  5
192
330
17
100
AcDbEntity
  8
0
100
AcDbVertex
100
AcDb2dVertex
 10
145.16281
 20
-81.198444
 30
0.0
 70
0
  0
VERTEX
  5
193
330
17
100
AcDbEntity
  8
0
100
AcDbVertex
100
AcDb2dVertex
 10
145.116746
 20
-81.224929
 30
0.0
 70
0
  0
VERTEX
  5
194
330
17
100
AcDbEntity
  8
0
100
AcDbVertex
100
AcDb2dVertex
 10
145.069317
 20
-81.249221
 30
0.0
 70
0
  0
VERTEX
  5
195
330
17
100
AcDbEntity
  8
0
100
AcDbVertex
100
AcDb2dVertex
 10
145.020593
 20
-81.271249
 30
0.0
 70
0
  0
VERTEX
  5
196
330
17
100
AcDbEntity
  8
0
100
AcDbVertex
100
AcDb2dVertex
 10
144.970641
 20
-81.290944
 30
0.0
 70
0
  0
VERTEX
  5
197
330
17
100
AcDbEntity
  8
0
100
AcDbVertex
100
AcDb2dVertex
 10
144.919532
 20
-81.308237
 30
0.0
 70
0
  0
VERTEX
  5
198
330
17
100
AcDbEntity
  8
0
100
AcDbVertex
100
AcDb2dVertex
 10
144.867335
 20
-81.32306
 30
0.0
 70
0
  0
VERTEX
  5
199
330
17
100
AcDbEntity
  8
0
100
AcDbVertex
100
AcDb2dVertex
 10
144.814118
 20
-81.335342
 30
0.0
 70
0
  0
VERTEX
  5
19A
330
17
100
AcDbEntity
  8
0
100
AcDbVertex
100
AcDb2dVertex
 10
144.759951
 20
-81.345016
 30
0.0
 70
0
  0
VERTEX
  5
19B
330
17
100
AcDbEntity
  8
0
100
AcDbVertex
100
AcDb2dVertex
 10
144.704903
 20
-81.352011
 30
0.0
 70
0
  0
VERTEX
  5
19C
330
17
100
AcDbEntity
  8
0
100
AcDbVertex
100
AcDb2dVertex
 10
144.649043
 20
-81.356259
 30
0.0
 70
0
  0
VERTEX
  5
19D
330
17
100
AcDbEntity
  8
0
100
AcDbVertex
100
AcDb2dVertex
 10
144.59244
 20
-81.35769
 30
0.0
 70
0
  0
VERTEX
  5
19E
330
17
100
AcDbEntity
  8
0
100
AcDbVertex
100
AcDb2dVertex
 10
144.535837
 20
-81.356259
 30
0.0
 70
0
  0
VERTEX
  5
19F
330
17
100
AcDbEntity
  8
0
100
AcDbVertex
100
AcDb2dVertex
 10
144.479976
 20
-81.352011
 30
0.0
 70
0
  0
VERTEX
  5
1A0
330
17
100
AcDbEntity
  8
0
100
AcDbVertex
100
AcDb2dVertex
 10
144.424928
 20
-81.345016
 30
0.0
 70
0
  0
VERTEX
  5
1A1
330
17
100
AcDbEntity
  8
0
100
AcDbVertex
100
AcDb2dVertex
 10
144.370761
 20
-81.335342
 30
0.0
 70
0
  0
VERTEX
  5
1A2
330
17
100
AcDbEntity
  8
0
100
AcDbVertex
100
AcDb2dVertex
 10
144.317544
 20
-81.32306
 30
0.0
 70
0
  0
VERTEX
  5
1A3
330
17
100
AcDbEntity
  8
0
100
AcDbVertex
100
AcDb2dVertex
 10
144.265347
 20
-81.308237
 30
0.0
 70
0
  0
VERTEX
  5
1A4
330
17
100
AcDbEntity
  8
0
100
AcDbVertex
100
AcDb2dVertex
 10
144.214238
 20
-81.290944
 30
0.0
 70
0
  0
VERTEX
  5
1A5
330
17
100
AcDbEntity
  8
0
100
AcDbVertex
100
AcDb2dVertex
 10
144.164287
 20
-81.271249
 30
0.0
 70
0
  0
VERTEX
  5
1A6
330
17
100
AcDbEntity
  8
0
100
AcDbVertex
100
AcDb2dVertex
 10
144.115562
 20
-81.249221
 30
0.0
 70
0
  0
VERTEX
  5
1A7
330
17
100
AcDbEntity
  8
0
100
AcDbVertex
100
AcDb2dVertex
 10
144.068133
 20
-81.224929
 30
0.0
 70
0
  0
VERTEX
  5
1A8
330
17
100
AcDbEntity
  8
0
100
AcDbVertex
100
AcDb2dVertex
 10
144.02207
 20
-81.198444
 30
0.0
 70
0
  0
VERTEX
  5
1A9
330
17
100
AcDbEntity
  8
0
100
AcDbVertex
100
AcDb2dVertex
 10
143.97744
 20
-81.169832
 30
0.0
 70
0
  0
VERTEX
  5
1AA
330
17
100
AcDbEntity
  8
0
100
AcDbVertex
100
AcDb2dVertex
 10
143.934314
 20
-81.139165
 30
0.0
 70
0
  0
VERTEX
  5
1AB
330
17
100
AcDbEntity
  8
0
100
AcDbVertex
100
AcDb2dVertex
 10
143.89276
 20
-81.106511
 30
0.0
 70
0
  0
VERTEX
  5
1AC
330
17
100
AcDbEntity
  8
0
100
AcDbVertex
100
AcDb2dVertex
 10
143.852848
 20
-81.071938
 30
0.0
 70
0
  0
VERTEX
  5
1AD
330
17
100
AcDbEntity
  8
0
100
AcDbVertex
100
AcDb2dVertex
 10
143.814646
 20
-81.035517
 30
0.0
 70
0
  0
VERTEX
  5
1AE
330
17
100
AcDbEntity
  8
0
100
AcDbVertex
100
AcDb2dVertex
 10
143.778224
 20
-80.997316
 30
0.0
 70
0
  0
VERTEX
  5
1AF
330
17
100
AcDbEntity
  8
0
100
AcDbVertex
100
AcDb2dVertex
 10
143.74365
 20
-80.957405
 30
0.0
 70
0
  0
VERTEX
  5
1B0
330
17
100
AcDbEntity
  8
0
100
AcDbVertex
100
AcDb2dVertex
 10
143.710995
 20
-80.915852
 30
0.0
 70
0
  0
VERTEX
  5
1B1
330
17
100
AcDbEntity
  8
0
100
AcDbVertex
100
AcDb2dVertex
 10
143.680327
 20
-80.872726
 30
0.0
 70
0
  0
VERTEX
  5
1B2
330
17
100
AcDbEntity
  8
0
100
AcDbVertex
100
AcDb2dVertex
 10
143.651715
 20
-80.828098
 30
0.0
 70
0
  0
VERTEX
  5
1B3
330
17
100
AcDbEntity
  8
0
100
AcDbVertex
100
AcDb2dVertex
 10
143.625229
 20
-80.782035
 30
0.0
 70
0
  0
VERTEX
  5
1B4
330
17
100
AcDbEntity
  8
0
100
AcDbVertex
100
AcDb2dVertex
 10
143.600936
 20
-80.734607
 30
0.0
 70
0
  0
VERTEX
  5
1B5
330
17
100
AcDbEntity
  8
0
100
AcDbVertex
100
AcDb2dVertex
 10
143.578908
 20
-80.685884
 30
0.0
 70
0
  0
VERTEX
  5
1B6
330
17
100
AcDbEntity
  8
0
100
AcDbVertex
100
AcDb2dVertex
 10
143.559212
 20
-80.635933
 30
0.0
 70
0
  0
VERTEX
  5
1B7
330
17
100
AcDbEntity
  8
0
100
AcDbVertex
100
AcDb2dVertex
 10
143.541918
 20
-80.584825
 30
0.0
 70
0
  0
VERTEX
  5
1B8
330
17
100
AcDbEntity
  8
0
100
AcDbVertex
100
AcDb2dVertex
 10
143.527095
 20
-80.532629
 30
0.0
 70
0
  0
VERTEX
  5
1B9
330
17
100
AcDbEntity
  8
0
100
AcDbVertex
100
AcDb2dVertex
 10
143.514812
 20
-80.479413
 30
0.0
 70
0
  0
VERTEX
  5
1BA
330
17
100
AcDbEntity
  8
0
100
AcDbVertex
100
AcDb2dVertex
 10
143.505139
 20
-80.425247
 30
0.0
 70
0
  0
VERTEX
  5
1BB
330
17
100
AcDbEntity
  8
0
100
AcDbVertex
100
AcDb2dVertex
 10
143.498143
 20
-80.370199
 30
0.0
 70
0
  0
VERTEX
  5
1BC
330
17
100
AcDbEntity
  8
0
100
AcDbVertex
100
AcDb2dVertex
 10
143.493895
 20
-80.31434
 30
0.0
 70
0
  0
VERTEX
  5
1BD
330
17
100
AcDbEntity
  8
0
100
AcDbVertex
100
AcDb2dVertex
 10
143.492464
 20
-80.257737
 30
0.0
 70
0
  0
SEQEND
  5
13C
330
13B
100
AcDbEntity
  8
0
  0
ENDSEC
  0
SECTION
  2
OBJECTS
  0
DICTIONARY
  5
A
330
0
100
AcDbDictionary
281
1
  3
ACAD_COLOR
350
B
  3
ACAD_GROUP
350
C
  3
ACAD_LAYOUT
350
D
  3
ACAD_MATERIAL
350
E
  3
ACAD_MLEADERSTYLE
350
F
  3
ACAD_MLINESTYLE
350
10
  3
ACAD_PLOTSETTINGS
350
11
  3
ACAD_PLOTSTYLENAME
350
12
  3
ACAD_SCALELIST
350
14
  3
ACAD_TABLESTYLE
350
15
  3
ACAD_VISUALSTYLE
350
16
  3
EZDXF_META
350
2D
  0
DICTIONARY
  5
B
330
A
100
AcDbDictionary
281
1
  0
DICTIONARY
  5
C
330
A
100
AcDbDictionary
281
1
  0
DICTIONARY
  5
D
330
A
100
AcDbDictionary
281
1
  3
Model
350
1A
  3
Layout1
350
1E
  0
DICTIONARY
  5
E
330
A
100
AcDbDictionary
281
1
  3
ByBlock
350
1F
  3
ByLayer
350
20
  3
Global
350
21
  0
DICTIONARY
  5
F
330
A
100
AcDbDictionary
281
1
  3
Standard
350
2C
  0
DICTIONARY
  5
10
330
A
100
AcDbDictionary
281
1
  3
Standard
350
22
  0
DICTIONARY
  5
11
330
A
100
AcDbDictionary
281
1
  0
ACDBDICTIONARYWDFLT
  5
12
330
A
100
AcDbDictionary
281
1
  3
Normal
350
13
100
AcDbDictionaryWithDefault
340
13
  0
ACDBPLACEHOLDER
  5
13
330
12
  0
DICTIONARY
  5
14
330
A
100
AcDbDictionary
281
1
  0
DICTIONARY
  5
15
330
A
100
AcDbDictionary
281
1
  0
DICTIONARY
  5
16
330
A
100
AcDbDictionary
281
1
  0
LAYOUT
  5
1A
330
D
100
AcDbPlotSettings
  1

  4
A3
  6

 40
7.5
 41
20.0
 42
7.5
 43
20.0
 44
420.0
 45
297.0
 46
0.0
 47
0.0
 48
0.0
 49
0.0
140
0.0
141
0.0
142
1.0
143
1.0
 70
1024
 72
1
 73
0
 74
5
  7

 75
16
 76
0
 77
2
 78
300
147
1.0
148
0.0
149
0.0
100
AcDbLayout
  1
Model
 70
1
 71
0
 10
0.0
 20
0.0
 11
420.0
 21
297.0
 12
0.0
 22
0.0
 32
0.0
 14
1e+20
 24
1e+20
 34
1e+20
 15
-1e+20
 25
-1e+20
 35
-1e+20
146
0.0
 13
0.0
 23
0.0
 33
0.0
 16
1.0
 26
0.0
 36
0.0
 17
0.0
 27
1.0
 37
0.0
 76
1
330
17
  0
LAYOUT
  5
1E
330
D
100
AcDbPlotSettings
  1

  4
A3
  6

 40
7.5
 41
20.0
 42
7.5
 43
20.0
 44
420.0
 45
297.0
 46
0.0
 47
0.0
 48
0.0
 49
0.0
140
0.0
141
0.0
142
1.0
143
1.0
 70
0
 72
1
 73
0
 74
5
  7

 75
16
 76
0
 77
2
 78
300
147
1.0
148
0.0
149
0.0
100
AcDbLayout
  1
Layout1
 70
1
 71
1
 10
0.0
 20
0.0
 11
420.0
 21
297.0
 12
0.0
 22
0.0
 32
0.0
 14
1e+20
 24
1e+20
 34
1e+20
 15
-1e+20
 25
-1e+20
 35
-1e+20
146
0.0
 13
0.0
 23
0.0
 33
0.0
 16
1.0
 26
0.0
 36
0.0
 17
0.0
 27
1.0
 37
0.0
 76
1
330
1B
  0
MATERIAL
  5
1F
102
{ACAD_REACTORS
330
E
102
}
330
E
100
AcDbMaterial
  1
ByBlock
  2

 70
0
 40
1.0
 71
1
 41
1.0
 91
-1023410177
 42
1.0
 72
1
  3

 73
1
 74
1
 75
1
 44
0.5
 73
0
 45
1.0
 46
1.0
 77
1
  4

 78
1
 79
1
170
1
 48
1.0
171
1
  6

172
1
173
1
174
1
140
1.0
141
1.0
175
1
  7

176
1
177
1
178
1
143
1.0
179
1
  8

270
1
271
1
272
1
145
1.0
146
1.0
273
1
  9

274
1
275
1
276
1
 42
1.0
 72
1
  3

 73
1
 74
1
 75
1
 94
63
  0
MATERIAL
  5
20
102
{ACAD_REACTORS
330
E
102
}
330
E
100
AcDbMaterial
  1
ByLayer
  2

 70
0
 40
1.0
 71
1
 41
1.0
 91
-1023410177
 42
1.0
 72
1
  3

 73
1
 74
1
 75
1
 44
0.5
 73
0
 45
1.0
 46
1.0
 77
1
  4

 78
1
 79
1
170
1
 48
1.0
171
1
  6

172
1
173
1
174
1
140
1.0
141
1.0
175
1
  7

176
1
177
1
178
1
143
1.0
179
1
  8

270
1
271
1
272
1
145
1.0
146
1.0
273
1
  9

274
1
275
1
276
1
 42
1.0
 72
1
  3

 73
1
 74
1
 75
1
 94
63
  0
MATERIAL
  5
21
102
{ACAD_REACTORS
330
E
102
}
330
E
100
AcDbMaterial
  1
Global
  2

 70
0
 40
1.0
 71
1
 41
1.0
 91
-1023410177
 42
1.0
 72
1
  3

 73
1
 74
1
 75
1
 44
0.5
 73
0
 45
1.0
 46
1.0
 77
1
  4

 78
1
 79
1
170
1
 48
1.0
171
1
  6

172
1
173
1
174
1
140
1.0
141
1.0
175
1
  7

176
1
177
1
178
1
143
1.0
179
1
  8

270
1
271
1
272
1
145
1.0
146
1.0
273
1
  9

274
1
275
1
276
1
 42
1.0
 72
1
  3

 73
1
 74
1
 75
1
 94
63
  0
MLINESTYLE
  5
22
102
{ACAD_REACTORS
330
10
102
}
330
10
100
AcDbMlineStyle
  2
Standard
 70
0
  3

 62
256
 51
90.0
 52
90.0
 71
2
 49
0.5
 62
256
  6
BYLAYER
 49
-0.5
 62
256
  6
BYLAYER
  0
MLEADERSTYLE
  5
2C
102
{ACAD_REACTORS
330
F
102
}
330
F
100
AcDbMLeaderStyle
179
2
170
2
171
1
172
0
 90
2
 40
0.0
 41
0.0
173
1
 91
-1056964608
 92
-2
290
1
 42
2.0
291
1
 43
8.0
  3
Standard
 44
4.0
300

342
29
174
1
175
1
176
0
178
1
 93
-1056964608
 45
4.0
292
0
297
0
 46
4.0
 94
-1056964608
 47
1.0
 49
1.0
140
1.0
294
1
141
0.0
177
0
142
1.0
295
0
296
0
143
3.75
271
0
272
9
273
9
  0
DICTIONARY
  5
2D
330
A
100
AcDbDictionary
280
1
281
1
  3
CREATED_BY_EZDXF
350
2E
  3
WRITTEN_BY_EZDXF
350
1C0
  0
DICTIONARYVAR
  5
2E
330
2D
100
DictionaryVariables
280
0
  1
1.4.3 @ 2026-05-07T06:25:54.521374+00:00
  0
DICTIONARYVAR
  5
1C0
330
2D
100
DictionaryVariables
280
0
  1
1.4.3 @ 2026-05-07T06:25:54.527118+00:00
  0
ENDSEC
  0
EOF
