  0
SECTION
  2
HEADER
  9
$ANGBASE
  50
0.0
  9
$ANGDIR
  70
1
  9
$MEASUREMENT
  70
1
  9
$INSUNITS
  70
4
  0
ENDSEC
  0
SECTION
  2
TABLES
  0
TABLE
  2
LTYPE
  70
4
  0
LTYPE
  5
40F
  2
CONTINUOUS
  70
0
  3
Solid line
  72
65
  73
0
  40
0.0
  0
LTYPE
  5
410
  2
DASHDOT
 70
0
  3
Dash Dot ____ _ ____ _
 72
65
 73
4
 40
2.0
 49
1.25
 49
-0.25
 49
0.25
 49
-0.25
  0
LTYPE
  5
411
  2
DASHED
 70
0
  3
Dashed __ __ __ __ __
 72
65
 73
2
 40
0.75
 49
0.5
 49
-0.25
  0
LTYPE
  5
43B
  2
DOTTED
 70
0
  3
Dotted .  .  .  .
 72
65
 73
2
 40
0.2
 49
0.0
 49
-0.2
  0
ENDTAB
  0
TABLE
  2
STYLE
  70
4
  0
STYLE
  2
KICAD
  70
0
  40
0
  41
1
  42
1
  50
0
  71
0
  3
isocp.shx
  0
STYLE
  2
KICADB
  70
0
  40
0
  41
1
  42
1
  50
0
  71
0
  3
isocp.shx
  0
STYLE
  2
KICADI
  70
0
  40
0
  41
1
  42
1
  50
15
  71
0
  3
isocp.shx
  0
STYLE
  2
KICADBI
  70
0
  40
0
  41
1
  42
1
  50
15
  71
0
  3
isocp.shx
  0
ENDTAB
  0
TABLE
  2
LAYER
  70
1
  0
LAYER
  2
Edge.Cuts
  70
0
  62
254
  420
13685453
  6
CONTINUOUS
  0
ENDTAB
  0
ENDSEC
  0
SECTION
  2
ENTITIES
0
LINE
8
Edge.Cuts
6
CONTINUOUS
10
127.5121169999999893
20
-24.7549059999999983
11
127.5127669999999966
21
-24.7291679999999978
0
LINE
8
Edge.Cuts
6
CONTINUOUS
10
127.5121169999999893
20
-53.529999999999994
11
127.5121169999999893
21
-24.7549059999999983
0
LINE
8
Edge.Cuts
6
CONTINUOUS
10
127.5121169999999893
20
-53.529999999999994
11
127.5121169999999893
21
-72.7026910000000015
0
LINE
8
Edge.Cuts
6
CONTINUOUS
10
127.5123949999999979
20
-72.7194169999999929
11
127.5121169999999893
21
-72.7026910000000015
0
LINE
8
Edge.Cuts
6
CONTINUOUS
10
127.5127669999999966
20
-24.7291679999999978
11
127.5146969999999982
21
-24.7037680000000002
0
LINE
8
Edge.Cuts
6
CONTINUOUS
10
127.5132249999999914
20
-72.7360510000000033
11
127.5123949999999979
21
-72.7194169999999929
0
LINE
8
Edge.Cuts
6
CONTINUOUS
10
127.5145999999999873
20
-72.7525809999999922
11
127.5132249999999914
21
-72.7360510000000033
0
LINE
8
Edge.Cuts
6
CONTINUOUS
10
127.5146969999999982
20
-24.7037680000000002
11
127.517873999999992
21
-24.6787359999999971
0
LINE
8
Edge.Cuts
6
CONTINUOUS
10
127.5165129999999891
20
-72.7689969999999988
11
127.5145999999999873
21
-72.7525809999999922
0
LINE
8
Edge.Cuts
6
CONTINUOUS
10
127.517873999999992
20
-24.6787359999999971
11
127.5222669999999994
21
-24.6541049999999977
0
LINE
8
Edge.Cuts
6
CONTINUOUS
10
127.5189579999999978
20
-72.7852859999999993
11
127.5165129999999891
21
-72.7689969999999988
0
LINE
8
Edge.Cuts
6
CONTINUOUS
10
127.5219279999999884
20
-72.8014369999999928
11
127.5189579999999978
21
-72.7852859999999993
0
LINE
8
Edge.Cuts
6
CONTINUOUS
10
127.5222669999999994
20
-24.6541049999999977
11
127.5278459999999967
21
-24.6299049999999973
0
LINE
8
Edge.Cuts
6
CONTINUOUS
10
127.5254169999999903
20
-72.8174389999999931
11
127.5219279999999884
21
-72.8014369999999928
0
LINE
8
Edge.Cuts
6
CONTINUOUS
10
127.5278459999999967
20
-24.6299049999999973
11
127.5345789999999937
21
-24.6061689999999977
0
LINE
8
Edge.Cuts
6
CONTINUOUS
10
127.5294179999999926
20
-72.8332809999999995
11
127.5254169999999903
21
-72.8174389999999931
0
LINE
8
Edge.Cuts
6
CONTINUOUS
10
127.5339249999999964
20
-72.8489500000000021
11
127.5294179999999926
21
-72.8332809999999995
0
LINE
8
Edge.Cuts
6
CONTINUOUS
10
127.5345789999999937
20
-24.6061689999999977
11
127.5424340000000001
21
-24.582926999999998
0
LINE
8
Edge.Cuts
6
CONTINUOUS
10
127.5389299999999935
20
-72.8644359999999978
11
127.5339249999999964
21
-72.8489500000000021
0
LINE
8
Edge.Cuts
6
CONTINUOUS
10
127.5424340000000001
20
-24.582926999999998
11
127.5513809999999921
21
-24.5602109999999989
0
LINE
8
Edge.Cuts
6
CONTINUOUS
10
127.5444279999999964
20
-72.8797270000000026
11
127.5389299999999935
21
-72.8644359999999978
0
LINE
8
Edge.Cuts
6
CONTINUOUS
10
127.5504109999999969
20
-72.89481099999999
11
127.5444279999999964
21
-72.8797270000000026
0
LINE
8
Edge.Cuts
6
CONTINUOUS
10
127.5513809999999921
20
-24.5602109999999989
11
127.5613879999999938
21
-24.5380529999999979
0
LINE
8
Edge.Cuts
6
CONTINUOUS
10
127.5568739999999934
20
-72.9096779999999995
11
127.5504109999999969
21
-72.89481099999999
0
LINE
8
Edge.Cuts
6
CONTINUOUS
10
127.5613879999999938
20
-24.5380529999999979
11
127.5724230000000006
21
-24.5164839999999984
0
LINE
8
Edge.Cuts
6
CONTINUOUS
10
127.5638079999999945
20
-72.9243149999999929
11
127.5568739999999934
21
-72.9096779999999995
0
LINE
8
Edge.Cuts
6
CONTINUOUS
10
127.5712089999999961
20
-72.9387119999999953
11
127.5638079999999945
21
-72.9243149999999929
0
LINE
8
Edge.Cuts
6
CONTINUOUS
10
127.5724230000000006
20
-24.5164839999999984
11
127.5844549999999913
21
-24.4955359999999978
0
LINE
8
Edge.Cuts
6
CONTINUOUS
10
127.5790689999999898
20
-72.952855999999997
11
127.5712089999999961
21
-72.9387119999999953
0
LINE
8
Edge.Cuts
6
CONTINUOUS
10
127.5844549999999913
20
-24.4955359999999978
11
127.5974529999999874
21
-24.4752389999999984
0
LINE
8
Edge.Cuts
6
CONTINUOUS
10
127.587381999999991
20
-72.9667369999999949
11
127.5790689999999898
21
-72.952855999999997
0
LINE
8
Edge.Cuts
6
CONTINUOUS
10
127.5961399999999912
20
-72.9803429999999906
11
127.587381999999991
21
-72.9667369999999949
0
LINE
8
Edge.Cuts
6
CONTINUOUS
10
127.5974529999999874
20
-24.4752389999999984
11
127.611385999999996
21
-24.4556259999999988
0
LINE
8
Edge.Cuts
6
CONTINUOUS
10
127.6053390000000007
20
-72.993662999999998
11
127.5961399999999912
21
-72.9803429999999906
0
LINE
8
Edge.Cuts
6
CONTINUOUS
10
127.611385999999996
20
-24.4556259999999988
11
127.626222999999996
21
-24.4367279999999987
0
LINE
8
Edge.Cuts
6
CONTINUOUS
10
127.6149699999999996
20
-73.0066849999999903
11
127.6053390000000007
21
-72.993662999999998
0
LINE
8
Edge.Cuts
6
CONTINUOUS
10
127.6250269999999887
20
-73.0193969999999979
11
127.6149699999999996
21
-73.0066849999999903
0
LINE
8
Edge.Cuts
6
CONTINUOUS
10
127.626222999999996
20
-24.4367279999999987
11
127.6419309999999996
21
-24.4185759999999981
0
LINE
8
Edge.Cuts
6
CONTINUOUS
10
127.6355039999999974
20
-73.0317890000000034
11
127.6250269999999887
21
-73.0193969999999979
0
LINE
8
Edge.Cuts
6
CONTINUOUS
10
127.6419309999999996
20
-24.4185759999999981
11
127.6584799999999973
21
-24.4012019999999978
0
LINE
8
Edge.Cuts
6
CONTINUOUS
10
127.6463940000000008
20
-73.0438489999999945
11
127.6355039999999974
21
-73.0317890000000034
0
LINE
8
Edge.Cuts
6
CONTINUOUS
10
127.6576909999999998
20
-73.0555650000000014
11
127.6463940000000008
21
-73.0438489999999945
0
LINE
8
Edge.Cuts
6
CONTINUOUS
10
127.6584799999999973
20
-24.4012019999999978
11
127.6758379999999988
21
-24.3846379999999989
0
LINE
8
Edge.Cuts
6
CONTINUOUS
10
127.6693870000000004
20
-73.0669259999999952
11
127.6576909999999998
21
-73.0555650000000014
0
LINE
8
Edge.Cuts
6
CONTINUOUS
10
127.6758379999999988
20
-24.3846379999999989
11
127.6939739999999972
21
-24.3689129999999992
0
LINE
8
Edge.Cuts
6
CONTINUOUS
10
127.681477000000001
20
-73.0779210000000035
11
127.6693870000000004
21
-73.0669259999999952
0
LINE
8
Edge.Cuts
6
CONTINUOUS
10
127.6939529999999934
20
-73.0885370000000023
11
127.681477000000001
21
-73.0779210000000035
0
LINE
8
Edge.Cuts
6
CONTINUOUS
10
127.6939739999999972
20
-24.3689129999999992
11
127.7128569999999996
21
-24.354061999999999
0
LINE
8
Edge.Cuts
6
CONTINUOUS
10
127.7068089999999927
20
-73.0987650000000002
11
127.6939529999999934
21
-73.0885370000000023
0
LINE
8
Edge.Cuts
6
CONTINUOUS
10
127.7128569999999996
20
-24.354061999999999
11
127.7324549999999874
21
-24.3401129999999988
0
LINE
8
Edge.Cuts
6
CONTINUOUS
10
127.7200389999999999
20
-73.1085909999999899
11
127.7068089999999927
21
-73.0987650000000002
0
LINE
8
Edge.Cuts
6
CONTINUOUS
10
127.7324549999999874
20
-24.3401129999999988
11
127.7527369999999962
21
-24.3270999999999979
0
LINE
8
Edge.Cuts
6
CONTINUOUS
10
127.73363599999999
20
-73.1180059999999941
11
127.7200389999999999
21
-73.1085909999999899
0
LINE
8
Edge.Cuts
6
CONTINUOUS
10
127.7475929999999948
20
-73.1269970000000029
11
127.73363599999999
21
-73.1180059999999941
0
LINE
8
Edge.Cuts
6
CONTINUOUS
10
127.7527369999999962
20
-24.3270999999999979
11
127.7736719999999906
21
-24.3150529999999989
0
LINE
8
Edge.Cuts
6
CONTINUOUS
10
127.7619040000000012
20
-73.1355530000000016
11
127.7475929999999948
21
-73.1269970000000029
0
LINE
8
Edge.Cuts
6
CONTINUOUS
10
127.7736719999999906
20
-24.3150529999999989
11
127.7952279999999945
21
-24.3040050000000001
0
LINE
8
Edge.Cuts
6
CONTINUOUS
10
127.7952279999999945
20
-24.3040050000000001
11
127.8173740000000009
21
-24.2939860000000003
0
LINE
8
Edge.Cuts
6
CONTINUOUS
10
127.8173740000000009
20
-24.2939860000000003
11
127.8400789999999887
21
-24.2850269999999995
0
LINE
8
Edge.Cuts
6
CONTINUOUS
10
127.8400789999999887
20
-24.2850269999999995
11
127.8633109999999959
21
-24.2771609999999995
0
LINE
8
Edge.Cuts
6
CONTINUOUS
10
127.8633109999999959
20
-24.2771609999999995
11
127.8870399999999989
21
-24.2704190000000004
0
LINE
8
Edge.Cuts
6
CONTINUOUS
10
127.8870399999999989
20
-24.2704190000000004
11
127.9112329999999957
21
-24.2648329999999994
0
LINE
8
Edge.Cuts
6
CONTINUOUS
10
127.9112329999999957
20
-24.2648329999999994
11
127.9358589999999936
21
-24.260432999999999
0
LINE
8
Edge.Cuts
6
CONTINUOUS
10
127.9358589999999936
20
-24.260432999999999
11
127.9608879999999971
21
-24.2572510000000001
0
LINE
8
Edge.Cuts
6
CONTINUOUS
10
127.9608879999999971
20
-24.2572510000000001
11
127.9862869999999901
21
-24.2553190000000001
0
LINE
8
Edge.Cuts
6
CONTINUOUS
10
127.9862869999999901
20
-24.2553190000000001
11
128.0120259999999917
21
-24.2546679999999988
0
LINE
8
Edge.Cuts
6
CONTINUOUS
10
128.0120259999999917
20
-24.2546679999999988
11
146.7307759999999917
21
-24.2521979999999999
0
LINE
8
Edge.Cuts
6
CONTINUOUS
10
129.0606400000000065
20
-71.7366459999999933
11
129.0620710000000031
21
-71.6800429999999977
0
LINE
8
Edge.Cuts
6
CONTINUOUS
10
129.0620710000000031
20
-71.6800429999999977
11
129.0663160000000005
21
-71.6241830000000022
0
LINE
8
Edge.Cuts
6
CONTINUOUS
10
129.0620710000000031
20
-71.7932799999999958
11
129.0606400000000065
21
-71.7366459999999933
0
LINE
8
Edge.Cuts
6
CONTINUOUS
10
129.0663160000000005
20
-71.6241830000000022
11
129.0733060000000023
21
-71.5691350000000028
0
LINE
8
Edge.Cuts
6
CONTINUOUS
10
129.0663160000000005
20
-71.8491679999999917
11
129.0620710000000031
21
-71.7932799999999958
0
LINE
8
Edge.Cuts
6
CONTINUOUS
10
129.0733060000000023
20
-71.5691350000000028
11
129.0829740000000072
21
-71.5149679999999961
0
LINE
8
Edge.Cuts
6
CONTINUOUS
10
129.0733060000000023
20
-71.9042389999999898
11
129.0663160000000005
21
-71.8491679999999917
0
LINE
8
Edge.Cuts
6
CONTINUOUS
10
129.0829740000000072
20
-71.5149679999999961
11
129.0952489999999955
21
-71.4617519999999899
0
LINE
8
Edge.Cuts
6
CONTINUOUS
10
129.0829740000000072
20
-71.9584260000000029
11
129.0733060000000023
21
-71.9042389999999898
0
LINE
8
Edge.Cuts
6
CONTINUOUS
10
129.0952489999999955
20
-71.4617519999999899
11
129.1100629999999967
21
-71.4095549999999974
0
LINE
8
Edge.Cuts
6
CONTINUOUS
10
129.0952489999999955
20
-72.0116589999999945
11
129.0829740000000072
21
-71.9584260000000029
0
LINE
8
Edge.Cuts
6
CONTINUOUS
10
129.1100629999999967
20
-71.4095549999999974
11
129.1273469999999861
21
-71.3584460000000007
0
LINE
8
Edge.Cuts
6
CONTINUOUS
10
129.1100629999999967
20
-72.0638689999999968
11
129.0952489999999955
21
-72.0116589999999945
0
LINE
8
Edge.Cuts
6
CONTINUOUS
10
129.1273469999999861
20
-71.3584460000000007
11
129.1470319999999958
21
-71.3084949999999935
0
LINE
8
Edge.Cuts
6
CONTINUOUS
10
129.1273469999999861
20
-72.1149879999999968
11
129.1100629999999967
21
-72.0638689999999968
0
LINE
8
Edge.Cuts
6
CONTINUOUS
10
129.1470319999999958
20
-71.3084949999999935
11
129.1690499999999986
21
-71.2597710000000006
0
LINE
8
Edge.Cuts
6
CONTINUOUS
10
129.1470319999999958
20
-72.1649460000000005
11
129.1273469999999861
21
-72.1149879999999968
0
LINE
8
Edge.Cuts
6
CONTINUOUS
10
129.1690499999999986
20
-71.2597710000000006
11
129.1933300000000031
21
-71.21234299999999
0
LINE
8
Edge.Cuts
6
CONTINUOUS
10
129.1690499999999986
20
-72.213674999999995
11
129.1470319999999958
21
-72.1649460000000005
0
LINE
8
Edge.Cuts
6
CONTINUOUS
10
129.1933300000000031
20
-71.21234299999999
11
129.219805000000008
21
-71.1662800000000004
0
LINE
8
Edge.Cuts
6
CONTINUOUS
10
129.1933300000000031
20
-72.2611059999999981
11
129.1690499999999986
21
-72.213674999999995
0
LINE
8
Edge.Cuts
6
CONTINUOUS
10
129.219805000000008
20
-71.1662800000000004
11
129.2484049999999911
21
-71.121651
0
LINE
8
Edge.Cuts
6
CONTINUOUS
10
129.219805000000008
20
-72.3071690000000018
11
129.1933300000000031
21
-72.2611059999999981
0
LINE
8
Edge.Cuts
6
CONTINUOUS
10
129.2484049999999911
20
-71.121651
11
129.2790619999999819
21
-71.0785259999999965
0
LINE
8
Edge.Cuts
6
CONTINUOUS
10
129.2484049999999911
20
-72.3517959999999931
11
129.219805000000008
21
-72.3071690000000018
0
LINE
8
Edge.Cuts
6
CONTINUOUS
10
129.2790619999999819
20
-71.0785259999999965
11
129.3117059999999867
21
-71.0369730000000033
0
LINE
8
Edge.Cuts
6
CONTINUOUS
10
129.2790619999999819
20
-72.3949190000000016
11
129.2484049999999911
21
-72.3517959999999931
0
LINE
8
Edge.Cuts
6
CONTINUOUS
10
129.3117059999999867
20
-71.0369730000000033
11
129.3462690000000066
21
-70.9970610000000022
0
LINE
8
Edge.Cuts
6
CONTINUOUS
10
129.3117059999999867
20
-72.4364669999999933
11
129.2790619999999819
21
-72.3949190000000016
0
LINE
8
Edge.Cuts
6
CONTINUOUS
10
129.3462690000000066
20
-70.9970610000000022
11
129.3826809999999909
21
-70.9588600000000014
0
LINE
8
Edge.Cuts
6
CONTINUOUS
10
129.3462690000000066
20
-72.4763719999999978
11
129.3117059999999867
21
-72.4364669999999933
0
LINE
8
Edge.Cuts
6
CONTINUOUS
10
129.3826809999999909
20
-70.9588600000000014
11
129.4208739999999977
21
-70.9224379999999996
0
LINE
8
Edge.Cuts
6
CONTINUOUS
10
129.3826809999999909
20
-72.5145649999999904
11
129.3462690000000066
21
-72.4763719999999978
0
LINE
8
Edge.Cuts
6
CONTINUOUS
10
129.4208739999999977
20
-70.9224379999999996
11
129.4607790000000023
21
-70.8878660000000025
0
LINE
8
Edge.Cuts
6
CONTINUOUS
10
129.4208739999999977
20
-72.5509780000000006
11
129.3826809999999909
21
-72.5145649999999904
0
LINE
8
Edge.Cuts
6
CONTINUOUS
10
129.4607790000000023
20
-70.8878660000000025
11
129.5023259999999823
21
-70.8552109999999971
0
LINE
8
Edge.Cuts
6
CONTINUOUS
10
129.4607790000000023
20
-72.5855409999999921
11
129.4208739999999977
21
-72.5509780000000006
0
LINE
8
Edge.Cuts
6
CONTINUOUS
10
129.5023259999999823
20
-70.8552109999999971
11
129.5454479999999933
21
-70.8245440000000031
0
LINE
8
Edge.Cuts
6
CONTINUOUS
10
129.5023259999999823
20
-72.6181849999999969
11
129.4607790000000023
21
-72.5855409999999921
0
LINE
8
Edge.Cuts
6
CONTINUOUS
10
129.5454479999999933
20
-70.8245440000000031
11
129.5900749999999846
21
-70.7959329999999909
0
LINE
8
Edge.Cuts
6
CONTINUOUS
10
129.5454479999999933
20
-72.6488420000000019
11
129.5023259999999823
21
-72.6181849999999969
0
LINE
8
Edge.Cuts
6
CONTINUOUS
10
129.5900749999999846
20
-70.7959329999999909
11
129.6361369999999908
21
-70.7694469999999995
0
LINE
8
Edge.Cuts
6
CONTINUOUS
10
129.5900749999999846
20
-72.6774419999999992
11
129.5454479999999933
21
-72.6488420000000019
0
LINE
8
Edge.Cuts
6
CONTINUOUS
10
129.6361369999999908
20
-70.7694469999999995
11
129.6835669999999823
21
-70.7451549999999969
0
LINE
8
Edge.Cuts
6
CONTINUOUS
10
129.6361369999999908
20
-72.7039169999999899
11
129.5900749999999846
21
-72.6774419999999992
0
LINE
8
Edge.Cuts
6
CONTINUOUS
10
129.6835669999999823
20
-70.7451549999999969
11
129.7322949999999935
21
-70.723126999999991
0
LINE
8
Edge.Cuts
6
CONTINUOUS
10
129.6835669999999823
20
-72.7281969999999944
11
129.6361369999999908
21
-72.7039169999999899
0
LINE
8
Edge.Cuts
6
CONTINUOUS
10
129.7322949999999935
20
-70.723126999999991
11
129.7822529999999972
21
-70.7034319999999923
0
LINE
8
Edge.Cuts
6
CONTINUOUS
10
129.7322949999999935
20
-72.7502149999999972
11
129.6835669999999823
21
-72.7281969999999944
0
LINE
8
Edge.Cuts
6
CONTINUOUS
10
129.7822529999999972
20
-70.7034319999999923
11
129.8333709999999996
21
-70.6861379999999997
0
LINE
8
Edge.Cuts
6
CONTINUOUS
10
129.7822529999999972
20
-72.7698999999999927
11
129.7322949999999935
21
-72.7502149999999972
0
LINE
8
Edge.Cuts
6
CONTINUOUS
10
129.8333709999999996
20
-70.6861379999999997
11
129.8855800000000045
21
-70.6713159999999903
0
LINE
8
Edge.Cuts
6
CONTINUOUS
10
129.8333709999999996
20
-72.7871839999999963
11
129.7822529999999972
21
-72.7698999999999927
0
LINE
8
Edge.Cuts
6
CONTINUOUS
10
129.8855800000000045
20
-70.6713159999999903
11
129.9388119999999844
21
-70.6590329999999938
0
LINE
8
Edge.Cuts
6
CONTINUOUS
10
129.8855800000000045
20
-72.8019979999999975
11
129.8333709999999996
21
-72.7871839999999963
0
LINE
8
Edge.Cuts
6
CONTINUOUS
10
129.9388119999999844
20
-70.6590329999999938
11
129.9929970000000026
21
-70.6493600000000015
0
LINE
8
Edge.Cuts
6
CONTINUOUS
10
129.9388119999999844
20
-72.814273
11
129.8855800000000045
21
-72.8019979999999975
0
LINE
8
Edge.Cuts
6
CONTINUOUS
10
129.9929970000000026
20
-70.6493600000000015
11
130.0480670000000032
21
-70.6423649999999981
0
LINE
8
Edge.Cuts
6
CONTINUOUS
10
129.9929970000000026
20
-72.8239409999999907
11
129.9388119999999844
21
-72.814273
0
LINE
8
Edge.Cuts
6
CONTINUOUS
10
130.0480670000000032
20
-70.6423649999999981
11
130.10395299999999
21
-70.6381169999999941
0
LINE
8
Edge.Cuts
6
CONTINUOUS
10
130.0480670000000032
20
-72.8309309999999925
11
129.9929970000000026
21
-72.8239409999999907
0
LINE
8
Edge.Cuts
6
CONTINUOUS
10
130.10395299999999
20
-70.6381169999999941
11
130.1605849999999975
21
-70.6366859999999974
0
LINE
8
Edge.Cuts
6
CONTINUOUS
10
130.10395299999999
20
-72.8351759999999899
11
130.0480670000000032
21
-72.8309309999999925
0
LINE
8
Edge.Cuts
6
CONTINUOUS
10
130.1605849999999975
20
-70.6366859999999974
11
130.2171909999999855
21
-70.6381169999999941
0
LINE
8
Edge.Cuts
6
CONTINUOUS
10
130.1605849999999975
20
-72.8366060000000033
11
130.10395299999999
21
-72.8351759999999899
0
LINE
8
Edge.Cuts
6
CONTINUOUS
10
130.2171909999999855
20
-70.6381169999999941
11
130.2730540000000019
21
-70.6423649999999981
0
LINE
8
Edge.Cuts
6
CONTINUOUS
10
130.2171909999999855
20
-72.8351759999999899
11
130.1605849999999975
21
-72.8366060000000033
0
LINE
8
Edge.Cuts
6
CONTINUOUS
10
130.2730540000000019
20
-70.6423649999999981
11
130.3281039999999962
21
-70.6493600000000015
0
LINE
8
Edge.Cuts
6
CONTINUOUS
10
130.2730540000000019
20
-72.8309309999999925
11
130.2171909999999855
21
-72.8351759999999899
0
LINE
8
Edge.Cuts
6
CONTINUOUS
10
130.3281039999999962
20
-70.6493600000000015
11
130.3822729999999979
21
-70.6590329999999938
0
LINE
8
Edge.Cuts
6
CONTINUOUS
10
130.3281039999999962
20
-72.8239409999999907
11
130.2730540000000019
21
-72.8309309999999925
0
LINE
8
Edge.Cuts
6
CONTINUOUS
10
130.3822729999999979
20
-70.6590329999999938
11
130.4354909999999848
21
-70.6713159999999903
0
LINE
8
Edge.Cuts
6
CONTINUOUS
10
130.3822729999999979
20
-72.814273
11
130.3281039999999962
21
-72.8239409999999907
0
LINE
8
Edge.Cuts
6
CONTINUOUS
10
130.4354909999999848
20
-70.6713159999999903
11
130.4876899999999864
21
-70.6861379999999997
0
LINE
8
Edge.Cuts
6
CONTINUOUS
10
130.4354909999999848
20
-72.8019979999999975
11
130.3822729999999979
21
-72.814273
0
LINE
8
Edge.Cuts
6
CONTINUOUS
10
130.4876899999999864
20
-70.6861379999999997
11
130.5387989999999832
21
-70.7034319999999923
0
LINE
8
Edge.Cuts
6
CONTINUOUS
10
130.4876899999999864
20
-72.7871839999999963
11
130.4354909999999848
21
-72.8019979999999975
0
LINE
8
Edge.Cuts
6
CONTINUOUS
10
130.5387989999999832
20
-70.7034319999999923
11
130.588751000000002
21
-70.723126999999991
0
LINE
8
Edge.Cuts
6
CONTINUOUS
10
130.5387989999999832
20
-72.7698999999999927
11
130.4876899999999864
21
-72.7871839999999963
0
LINE
8
Edge.Cuts
6
CONTINUOUS
10
130.588751000000002
20
-70.723126999999991
11
130.6374759999999924
21
-70.7451549999999969
0
LINE
8
Edge.Cuts
6
CONTINUOUS
10
130.588751000000002
20
-72.7502149999999972
11
130.5387989999999832
21
-72.7698999999999927
0
LINE
8
Edge.Cuts
6
CONTINUOUS
10
130.6374759999999924
20
-70.7451549999999969
11
130.6849049999999863
21
-70.7694469999999995
0
LINE
8
Edge.Cuts
6
CONTINUOUS
10
130.6374759999999924
20
-72.7281969999999944
11
130.588751000000002
21
-72.7502149999999972
0
LINE
8
Edge.Cuts
6
CONTINUOUS
10
130.6849049999999863
20
-70.7694469999999995
11
130.7309689999999875
21
-70.7959329999999909
0
LINE
8
Edge.Cuts
6
CONTINUOUS
10
130.6849049999999863
20
-72.7039169999999899
11
130.6374759999999924
21
-72.7281969999999944
0
LINE
8
Edge.Cuts
6
CONTINUOUS
10
130.7309689999999875
20
-70.7959329999999909
11
130.7755980000000022
21
-70.8245440000000031
0
LINE
8
Edge.Cuts
6
CONTINUOUS
10
130.7309689999999875
20
-72.6774419999999992
11
130.6849049999999863
21
-72.7039169999999899
0
LINE
8
Edge.Cuts
6
CONTINUOUS
10
130.7755980000000022
20
-70.8245440000000031
11
130.8187240000000031
21
-70.8552109999999971
0
LINE
8
Edge.Cuts
6
CONTINUOUS
10
130.7755980000000022
20
-72.6488420000000019
11
130.7309689999999875
21
-72.6774419999999992
0
LINE
8
Edge.Cuts
6
CONTINUOUS
10
130.8187240000000031
20
-70.8552109999999971
11
130.8602779999999939
21
-70.8878660000000025
0
LINE
8
Edge.Cuts
6
CONTINUOUS
10
130.8187240000000031
20
-72.6181849999999969
11
130.7755980000000022
21
-72.6488420000000019
0
LINE
8
Edge.Cuts
6
CONTINUOUS
10
130.8602779999999939
20
-70.8878660000000025
11
130.9001899999999807
21
-70.9224379999999996
0
LINE
8
Edge.Cuts
6
CONTINUOUS
10
130.8602779999999939
20
-72.5855409999999921
11
130.8187240000000031
21
-72.6181849999999969
0
LINE
8
Edge.Cuts
6
CONTINUOUS
10
130.9001899999999807
20
-70.9224379999999996
11
130.9383909999999958
21
-70.9588600000000014
0
LINE
8
Edge.Cuts
6
CONTINUOUS
10
130.9001899999999807
20
-72.5509780000000006
11
130.8602779999999939
21
-72.5855409999999921
0
LINE
8
Edge.Cuts
6
CONTINUOUS
10
130.9383909999999958
20
-70.9588600000000014
11
130.9748119999999858
21
-70.9970610000000022
0
LINE
8
Edge.Cuts
6
CONTINUOUS
10
130.9383909999999958
20
-72.5145649999999904
11
130.9001899999999807
21
-72.5509780000000006
0
LINE
8
Edge.Cuts
6
CONTINUOUS
10
130.9748119999999858
20
-70.9970610000000022
11
131.009383999999983
21
-71.0369730000000033
0
LINE
8
Edge.Cuts
6
CONTINUOUS
10
130.9748119999999858
20
-72.4763719999999978
11
130.9383909999999958
21
-72.5145649999999904
0
LINE
8
Edge.Cuts
6
CONTINUOUS
10
131.009383999999983
20
-71.0369730000000033
11
131.0420389999999884
21
-71.0785259999999965
0
LINE
8
Edge.Cuts
6
CONTINUOUS
10
131.009383999999983
20
-72.4364669999999933
11
130.9748119999999858
21
-72.4763719999999978
0
LINE
8
Edge.Cuts
6
CONTINUOUS
10
131.0420389999999884
20
-71.0785259999999965
11
131.0727059999999824
21
-71.121651
0
LINE
8
Edge.Cuts
6
CONTINUOUS
10
131.0420389999999884
20
-72.3949190000000016
11
131.009383999999983
21
-72.4364669999999933
0
LINE
8
Edge.Cuts
6
CONTINUOUS
10
131.0727059999999824
20
-71.121651
11
131.1013169999999946
21
-71.1662800000000004
0
LINE
8
Edge.Cuts
6
CONTINUOUS
10
131.0727059999999824
20
-72.3517959999999931
11
131.0420389999999884
21
-72.3949190000000016
0
LINE
8
Edge.Cuts
6
CONTINUOUS
10
131.1013169999999946
20
-71.1662800000000004
11
131.1278030000000001
21
-71.21234299999999
0
LINE
8
Edge.Cuts
6
CONTINUOUS
10
131.1013169999999946
20
-72.3071690000000018
11
131.0727059999999824
21
-72.3517959999999931
0
LINE
8
Edge.Cuts
6
CONTINUOUS
10
131.1278030000000001
20
-71.21234299999999
11
131.1520940000000053
21
-71.2597710000000006
0
LINE
8
Edge.Cuts
6
CONTINUOUS
10
131.1278030000000001
20
-72.2611059999999981
11
131.1013169999999946
21
-72.3071690000000018
0
LINE
8
Edge.Cuts
6
CONTINUOUS
10
131.1520940000000053
20
-71.2597710000000006
11
131.1741209999999853
21
-71.3084949999999935
0
LINE
8
Edge.Cuts
6
CONTINUOUS
10
131.1520940000000053
20
-72.213674999999995
11
131.1278030000000001
21
-72.2611059999999981
0
LINE
8
Edge.Cuts
6
CONTINUOUS
10
131.1741209999999853
20
-71.3084949999999935
11
131.1938159999999982
21
-71.3584460000000007
0
LINE
8
Edge.Cuts
6
CONTINUOUS
10
131.1741209999999853
20
-72.1649460000000005
11
131.1520940000000053
21
-72.213674999999995
0
LINE
8
Edge.Cuts
6
CONTINUOUS
10
131.1938159999999982
20
-71.3584460000000007
11
131.2111089999999933
21
-71.4095549999999974
0
LINE
8
Edge.Cuts
6
CONTINUOUS
10
131.1938159999999982
20
-72.1149879999999968
11
131.1741209999999853
21
-72.1649460000000005
0
LINE
8
Edge.Cuts
6
CONTINUOUS
10
131.2111089999999933
20
-71.4095549999999974
11
131.2259320000000002
21
-71.4617519999999899
0
LINE
8
Edge.Cuts
6
CONTINUOUS
10
131.2111089999999933
20
-72.0638689999999968
11
131.1938159999999982
21
-72.1149879999999968
0
LINE
8
Edge.Cuts
6
CONTINUOUS
10
131.2259320000000002
20
-71.4617519999999899
11
131.2382139999999993
21
-71.5149679999999961
0
LINE
8
Edge.Cuts
6
CONTINUOUS
10
131.2259320000000002
20
-72.0116589999999945
11
131.2111089999999933
21
-72.0638689999999968
0
LINE
8
Edge.Cuts
6
CONTINUOUS
10
131.2382139999999993
20
-71.5149679999999961
11
131.2478869999999915
21
-71.5691350000000028
0
LINE
8
Edge.Cuts
6
CONTINUOUS
10
131.2382139999999993
20
-71.9584260000000029
11
131.2259320000000002
21
-72.0116589999999945
0
LINE
8
Edge.Cuts
6
CONTINUOUS
10
131.2478869999999915
20
-71.5691350000000028
11
131.2548819999999807
21
-71.6241830000000022
0
LINE
8
Edge.Cuts
6
CONTINUOUS
10
131.2478869999999915
20
-71.9042389999999898
11
131.2382139999999993
21
-71.9584260000000029
0
LINE
8
Edge.Cuts
6
CONTINUOUS
10
131.2548819999999807
20
-71.6241830000000022
11
131.259129999999999
21
-71.6800429999999977
0
LINE
8
Edge.Cuts
6
CONTINUOUS
10
131.2548819999999807
20
-71.8491679999999917
11
131.2478869999999915
21
-71.9042389999999898
0
LINE
8
Edge.Cuts
6
CONTINUOUS
10
131.259129999999999
20
-71.6800429999999977
11
131.2605609999999956
21
-71.7366459999999933
0
LINE
8
Edge.Cuts
6
CONTINUOUS
10
131.259129999999999
20
-71.7932799999999958
11
131.2548819999999807
21
-71.8491679999999917
0
LINE
8
Edge.Cuts
6
CONTINUOUS
10
131.2605609999999956
20
-71.7366459999999933
11
131.259129999999999
21
-71.7932799999999958
0
LINE
8
Edge.Cuts
6
CONTINUOUS
10
143.492463999999984
20
-80.2577369999999917
11
143.4938949999999807
21
-80.2011030000000034
0
LINE
8
Edge.Cuts
6
CONTINUOUS
10
143.4938949999999807
20
-80.2011030000000034
11
143.4981429999999989
21
-80.1452149999999932
0
LINE
8
Edge.Cuts
6
CONTINUOUS
10
143.4938949999999807
20
-80.3143400000000014
11
143.492463999999984
21
-80.2577369999999917
0
LINE
8
Edge.Cuts
6
CONTINUOUS
10
143.4981429999999989
20
-80.1452149999999932
11
143.5051389999999856
21
-80.0901429999999976
0
LINE
8
Edge.Cuts
6
CONTINUOUS
10
143.4981429999999989
20
-80.3701989999999995
11
143.4938949999999807
21
-80.3143400000000014
0
LINE
8
Edge.Cuts
6
CONTINUOUS
10
143.5051389999999856
20
-80.0901429999999976
11
143.5148120000000063
21
-80.0359559999999988
0
LINE
8
Edge.Cuts
6
CONTINUOUS
10
143.5051389999999856
20
-80.4252469999999988
11
143.4981429999999989
21
-80.3701989999999995
0
LINE
8
Edge.Cuts
6
CONTINUOUS
10
143.5148120000000063
20
-80.0359559999999988
11
143.5270950000000028
21
-79.9827229999999929
0
LINE
8
Edge.Cuts
6
CONTINUOUS
10
143.5148120000000063
20
-80.4794129999999939
11
143.5051389999999856
21
-80.4252469999999988
0
LINE
8
Edge.Cuts
6
CONTINUOUS
10
143.5270950000000028
20
-79.9827229999999929
11
143.5419179999999812
21
-79.9305119999999931
0
LINE
8
Edge.Cuts
6
CONTINUOUS
10
143.5270950000000028
20
-80.532629
11
143.5148120000000063
21
-80.4794129999999939
0
LINE
8
Edge.Cuts
6
CONTINUOUS
10
143.5419179999999812
20
-79.9305119999999931
11
143.5592120000000023
21
-79.8793929999999932
0
LINE
8
Edge.Cuts
6
CONTINUOUS
10
143.5419179999999812
20
-80.584824999999995
11
143.5270950000000028
21
-80.532629
0
LINE
8
Edge.Cuts
6
CONTINUOUS
10
143.5592120000000023
20
-79.8793929999999932
11
143.5789079999999842
21
-79.829433999999992
0
LINE
8
Edge.Cuts
6
CONTINUOUS
10
143.5592120000000023
20
-80.6359329999999943
11
143.5419179999999812
21
-80.584824999999995
0
LINE
8
Edge.Cuts
6
CONTINUOUS
10
143.5789079999999842
20
-79.829433999999992
11
143.6009359999999901
21
-79.7807049999999975
0
LINE
8
Edge.Cuts
6
CONTINUOUS
10
143.5789079999999842
20
-80.6858840000000015
11
143.5592120000000023
21
-80.6359329999999943
0
LINE
8
Edge.Cuts
6
CONTINUOUS
10
143.6009359999999901
20
-79.7807049999999975
11
143.6252289999999903
21
-79.7332739999999944
0
LINE
8
Edge.Cuts
6
CONTINUOUS
10
143.6009359999999901
20
-80.7346069999999969
11
143.5789079999999842
21
-80.6858840000000015
0
LINE
8
Edge.Cuts
6
CONTINUOUS
10
143.6252289999999903
20
-79.7332739999999944
11
143.6517149999999958
21
-79.6872099999999932
0
LINE
8
Edge.Cuts
6
CONTINUOUS
10
143.6252289999999903
20
-80.7820349999999934
11
143.6009359999999901
21
-80.7346069999999969
0
LINE
8
Edge.Cuts
6
CONTINUOUS
10
143.6517149999999958
20
-79.6872099999999932
11
143.6803270000000055
21
-79.6425830000000019
0
LINE
8
Edge.Cuts
6
CONTINUOUS
10
143.6517149999999958
20
-80.8280979999999971
11
143.6252289999999903
21
-80.7820349999999934
0
LINE
8
Edge.Cuts
6
CONTINUOUS
10
143.6803270000000055
20
-79.6425830000000019
11
143.7109949999999969
21
-79.5994599999999934
0
LINE
8
Edge.Cuts
6
CONTINUOUS
10
143.6803270000000055
20
-80.8727260000000001
11
143.6517149999999958
21
-80.8280979999999971
0
LINE
8
Edge.Cuts
6
CONTINUOUS
10
143.7109949999999969
20
-79.5994599999999934
11
143.7436500000000024
21
-79.5579120000000017
0
LINE
8
Edge.Cuts
6
CONTINUOUS
10
143.7109949999999969
20
-80.915852000000001
11
143.6803270000000055
21
-80.8727260000000001
0
LINE
8
Edge.Cuts
6
CONTINUOUS
10
143.7436500000000024
20
-79.5579120000000017
11
143.7782239999999945
21
-79.5180059999999997
0
LINE
8
Edge.Cuts
6
CONTINUOUS
10
143.7436500000000024
20
-80.9574049999999943
11
143.7109949999999969
21
-80.915852000000001
0
LINE
8
Edge.Cuts
6
CONTINUOUS
10
143.7782239999999945
20
-79.5180059999999997
11
143.814645999999982
21
-79.4798129999999929
0
LINE
8
Edge.Cuts
6
CONTINUOUS
10
143.7782239999999945
20
-80.9973159999999979
11
143.7436500000000024
21
-80.9574049999999943
0
LINE
8
Edge.Cuts
6
CONTINUOUS
10
143.814645999999982
20
-79.4798129999999929
11
143.8528479999999945
21
-79.4433999999999969
0
LINE
8
Edge.Cuts
6
CONTINUOUS
10
143.814645999999982
20
-81.0355169999999987
11
143.7782239999999945
21
-80.9973159999999979
0
LINE
8
Edge.Cuts
6
CONTINUOUS
10
143.8528479999999945
20
-79.4433999999999969
11
143.8927599999999813
21
-79.4088369999999912
0
LINE
8
Edge.Cuts
6
CONTINUOUS
10
143.8528479999999945
20
-81.0719380000000029
11
143.814645999999982
21
-81.0355169999999987
0
LINE
8
Edge.Cuts
6
CONTINUOUS
10
143.8927599999999813
20
-79.4088369999999912
11
143.9343140000000005
21
-79.3761920000000032
0
LINE
8
Edge.Cuts
6
CONTINUOUS
10
143.8927599999999813
20
-81.1065109999999976
11
143.8528479999999945
21
-81.0719380000000029
0
LINE
8
Edge.Cuts
6
CONTINUOUS
10
143.9343140000000005
20
-79.3761920000000032
11
143.9774400000000014
21
-79.3455349999999981
0
LINE
8
Edge.Cuts
6
CONTINUOUS
10
143.9343140000000005
20
-81.1391649999999913
11
143.8927599999999813
21
-81.1065109999999976
0
LINE
8
Edge.Cuts
6
CONTINUOUS
10
143.9774400000000014
20
-79.3455349999999981
11
144.0220699999999852
21
-79.3169350000000009
0
LINE
8
Edge.Cuts
6
CONTINUOUS
10
143.9774400000000014
20
-81.1698319999999995
11
143.9343140000000005
21
-81.1391649999999913
0
LINE
8
Edge.Cuts
6
CONTINUOUS
10
144.0220699999999852
20
-79.3169350000000009
11
144.0681329999999889
21
-79.2904599999999959
0
LINE
8
Edge.Cuts
6
CONTINUOUS
10
144.0220699999999852
20
-81.198443999999995
11
143.9774400000000014
21
-81.1698319999999995
0
LINE
8
Edge.Cuts
6
CONTINUOUS
10
144.0681329999999889
20
-79.2904599999999959
11
144.1155619999999828
21
-79.2661789999999939
0
LINE
8
Edge.Cuts
6
CONTINUOUS
10
144.0681329999999889
20
-81.224929000000003
11
144.0220699999999852
21
-81.198443999999995
0
LINE
8
Edge.Cuts
6
CONTINUOUS
10
144.1155619999999828
20
-79.2661789999999939
11
144.1642870000000016
21
-79.2441620000000029
0
LINE
8
Edge.Cuts
6
CONTINUOUS
10
144.1155619999999828
20
-81.2492209999999915
11
144.0681329999999889
21
-81.224929000000003
0
LINE
8
Edge.Cuts
6
CONTINUOUS
10
144.1642870000000016
20
-79.2441620000000029
11
144.2142379999999946
21
-79.2244759999999957
0
LINE
8
Edge.Cuts
6
CONTINUOUS
10
144.1642870000000016
20
-81.2712489999999974
11
144.1155619999999828
21
-81.2492209999999915
0
LINE
8
Edge.Cuts
6
CONTINUOUS
10
144.2142379999999946
20
-79.2244759999999957
11
144.2653469999999913
21
-79.207191999999992
0
LINE
8
Edge.Cuts
6
CONTINUOUS
10
144.2142379999999946
20
-81.2909439999999961
11
144.1642870000000016
21
-81.2712489999999974
0
LINE
8
Edge.Cuts
6
CONTINUOUS
10
144.2653469999999913
20
-79.207191999999992
11
144.3175439999999981
21
-79.1923779999999908
0
LINE
8
Edge.Cuts
6
CONTINUOUS
10
144.2653469999999913
20
-81.3082369999999912
11
144.2142379999999946
21
-81.2909439999999961
0
LINE
8
Edge.Cuts
6
CONTINUOUS
10
144.3175439999999981
20
-79.1923779999999908
11
144.3707609999999875
21
-79.1801030000000026
0
LINE
8
Edge.Cuts
6
CONTINUOUS
10
144.3175439999999981
20
-81.3230599999999981
11
144.2653469999999913
21
-81.3082369999999912
0
LINE
8
Edge.Cuts
6
CONTINUOUS
10
144.3707609999999875
20
-79.1801030000000026
11
144.4249279999999942
21
-79.1704349999999977
0
LINE
8
Edge.Cuts
6
CONTINUOUS
10
144.3707609999999875
20
-81.3353419999999971
11
144.3175439999999981
21
-81.3230599999999981
0
LINE
8
Edge.Cuts
6
CONTINUOUS
10
144.4249279999999942
20
-79.1704349999999977
11
144.4799759999999935
21
-79.1634449999999958
0
LINE
8
Edge.Cuts
6
CONTINUOUS
10
144.4249279999999942
20
-81.3450160000000011
11
144.3707609999999875
21
-81.3353419999999971
0
LINE
8
Edge.Cuts
6
CONTINUOUS
10
144.4799759999999935
20
-79.1634449999999958
11
144.5358369999999866
21
-79.1591999999999985
0
LINE
8
Edge.Cuts
6
CONTINUOUS
10
144.4799759999999935
20
-81.3520109999999903
11
144.4249279999999942
21
-81.3450160000000011
0
LINE
8
Edge.Cuts
6
CONTINUOUS
10
144.5358369999999866
20
-79.1591999999999985
11
144.5924399999999821
21
-79.1577690000000018
0
LINE
8
Edge.Cuts
6
CONTINUOUS
10
144.5358369999999866
20
-81.3562589999999943
11
144.4799759999999935
21
-81.3520109999999903
0
LINE
8
Edge.Cuts
6
CONTINUOUS
10
144.5924399999999821
20
-79.1577690000000018
11
144.649043000000006
21
-79.1591999999999985
0
LINE
8
Edge.Cuts
6
CONTINUOUS
10
144.5924399999999821
20
-81.357689999999991
11
144.5358369999999866
21
-81.3562589999999943
0
LINE
8
Edge.Cuts
6
CONTINUOUS
10
144.649043000000006
20
-79.1591999999999985
11
144.7049030000000016
21
-79.1634449999999958
0
LINE
8
Edge.Cuts
6
CONTINUOUS
10
144.649043000000006
20
-81.3562589999999943
11
144.5924399999999821
21
-81.357689999999991
0
LINE
8
Edge.Cuts
6
CONTINUOUS
10
144.7049030000000016
20
-79.1634449999999958
11
144.7599510000000009
21
-79.1704349999999977
0
LINE
8
Edge.Cuts
6
CONTINUOUS
10
144.7049030000000016
20
-81.3520109999999903
11
144.649043000000006
21
-81.3562589999999943
0
LINE
8
Edge.Cuts
6
CONTINUOUS
10
144.7599510000000009
20
-79.1704349999999977
11
144.8141179999999792
21
-79.1801030000000026
0
LINE
8
Edge.Cuts
6
CONTINUOUS
10
144.7599510000000009
20
-81.3450160000000011
11
144.7049030000000016
21
-81.3520109999999903
0
LINE
8
Edge.Cuts
6
CONTINUOUS
10
144.8141179999999792
20
-79.1801030000000026
11
144.8673349999999971
21
-79.1923779999999908
0
LINE
8
Edge.Cuts
6
CONTINUOUS
10
144.8141179999999792
20
-81.3353419999999971
11
144.7599510000000009
21
-81.3450160000000011
0
LINE
8
Edge.Cuts
6
CONTINUOUS
10
144.8673349999999971
20
-79.1923779999999908
11
144.9195320000000038
21
-79.207191999999992
0
LINE
8
Edge.Cuts
6
CONTINUOUS
10
144.8673349999999971
20
-81.3230599999999981
11
144.8141179999999792
21
-81.3353419999999971
0
LINE
8
Edge.Cuts
6
CONTINUOUS
10
144.9195320000000038
20
-79.207191999999992
11
144.9706410000000005
21
-79.2244759999999957
0
LINE
8
Edge.Cuts
6
CONTINUOUS
10
144.9195320000000038
20
-81.3082369999999912
11
144.8673349999999971
21
-81.3230599999999981
0
LINE
8
Edge.Cuts
6
CONTINUOUS
10
144.9706410000000005
20
-79.2244759999999957
11
145.020592999999991
21
-79.2441620000000029
0
LINE
8
Edge.Cuts
6
CONTINUOUS
10
144.9706410000000005
20
-81.2909439999999961
11
144.9195320000000038
21
-81.3082369999999912
0
LINE
8
Edge.Cuts
6
CONTINUOUS
10
145.020592999999991
20
-79.2441620000000029
11
145.0693169999999839
21
-79.2661789999999939
0
LINE
8
Edge.Cuts
6
CONTINUOUS
10
145.020592999999991
20
-81.2712489999999974
11
144.9706410000000005
21
-81.2909439999999961
0
LINE
8
Edge.Cuts
6
CONTINUOUS
10
145.0693169999999839
20
-79.2661789999999939
11
145.1167460000000062
21
-79.2904599999999959
0
LINE
8
Edge.Cuts
6
CONTINUOUS
10
145.0693169999999839
20
-81.2492209999999915
11
145.020592999999991
21
-81.2712489999999974
0
LINE
8
Edge.Cuts
6
CONTINUOUS
10
145.1167460000000062
20
-79.2904599999999959
11
145.1628100000000074
21
-79.3169350000000009
0
LINE
8
Edge.Cuts
6
CONTINUOUS
10
145.1167460000000062
20
-81.224929000000003
11
145.0693169999999839
21
-81.2492209999999915
0
LINE
8
Edge.Cuts
6
CONTINUOUS
10
145.1628100000000074
20
-79.3169350000000009
11
145.2074389999999937
21
-79.3455349999999981
0
LINE
8
Edge.Cuts
6
CONTINUOUS
10
145.1628100000000074
20
-81.198443999999995
11
145.1167460000000062
21
-81.224929000000003
0
LINE
8
Edge.Cuts
6
CONTINUOUS
10
145.2074389999999937
20
-79.3455349999999981
11
145.2505649999999946
21
-79.3761920000000032
0
LINE
8
Edge.Cuts
6
CONTINUOUS
10
145.2074389999999937
20
-81.1698319999999995
11
145.1628100000000074
21
-81.198443999999995
0
LINE
8
Edge.Cuts
6
CONTINUOUS
10
145.2505649999999946
20
-79.3761920000000032
11
145.2921189999999854
21
-79.4088369999999912
0
LINE
8
Edge.Cuts
6
CONTINUOUS
10
145.2505649999999946
20
-81.1391649999999913
11
145.2074389999999937
21
-81.1698319999999995
0
LINE
8
Edge.Cuts
6
CONTINUOUS
10
145.2921189999999854
20
-79.4088369999999912
11
145.3320319999999981
21
-79.4433999999999969
0
LINE
8
Edge.Cuts
6
CONTINUOUS
10
145.2921189999999854
20
-81.1065109999999976
11
145.2505649999999946
21
-81.1391649999999913
0
LINE
8
Edge.Cuts
6
CONTINUOUS
10
145.3320319999999981
20
-79.4433999999999969
11
145.3702339999999822
21
-79.4798129999999929
0
LINE
8
Edge.Cuts
6
CONTINUOUS
10
145.3320319999999981
20
-81.0719380000000029
11
145.2921189999999854
21
-81.1065109999999976
0
LINE
8
Edge.Cuts
6
CONTINUOUS
10
145.3702339999999822
20
-79.4798129999999929
11
145.4066559999999981
21
-79.5180059999999997
0
LINE
8
Edge.Cuts
6
CONTINUOUS
10
145.3702339999999822
20
-81.0355169999999987
11
145.3320319999999981
21
-81.0719380000000029
0
LINE
8
Edge.Cuts
6
CONTINUOUS
10
145.4066559999999981
20
-79.5180059999999997
11
145.4412289999999928
21
-79.5579120000000017
0
LINE
8
Edge.Cuts
6
CONTINUOUS
10
145.4066559999999981
20
-80.9973159999999979
11
145.3702339999999822
21
-81.0355169999999987
0
LINE
8
Edge.Cuts
6
CONTINUOUS
10
145.4412289999999928
20
-79.5579120000000017
11
145.4738839999999982
21
-79.5994599999999934
0
LINE
8
Edge.Cuts
6
CONTINUOUS
10
145.4412289999999928
20
-80.9574049999999943
11
145.4066559999999981
21
-80.9973159999999979
0
LINE
8
Edge.Cuts
6
CONTINUOUS
10
145.4738839999999982
20
-79.5994599999999934
11
145.5045519999999897
21
-79.6425830000000019
0
LINE
8
Edge.Cuts
6
CONTINUOUS
10
145.4738839999999982
20
-80.915852000000001
11
145.4412289999999928
21
-80.9574049999999943
0
LINE
8
Edge.Cuts
6
CONTINUOUS
10
145.5045519999999897
20
-79.6425830000000019
11
145.5331639999999993
21
-79.6872099999999932
0
LINE
8
Edge.Cuts
6
CONTINUOUS
10
145.5045519999999897
20
-80.8727260000000001
11
145.4738839999999982
21
-80.915852000000001
0
LINE
8
Edge.Cuts
6
CONTINUOUS
10
145.5331639999999993
20
-79.6872099999999932
11
145.5596510000000023
21
-79.7332739999999944
0
LINE
8
Edge.Cuts
6
CONTINUOUS
10
145.5331639999999993
20
-80.8280979999999971
11
145.5045519999999897
21
-80.8727260000000001
0
LINE
8
Edge.Cuts
6
CONTINUOUS
10
145.5596510000000023
20
-79.7332739999999944
11
145.583943000000005
21
-79.7807049999999975
0
LINE
8
Edge.Cuts
6
CONTINUOUS
10
145.5596510000000023
20
-80.7820349999999934
11
145.5331639999999993
21
-80.8280979999999971
0
LINE
8
Edge.Cuts
6
CONTINUOUS
10
145.583943000000005
20
-79.7807049999999975
11
145.6059709999999825
21
-79.829433999999992
0
LINE
8
Edge.Cuts
6
CONTINUOUS
10
145.583943000000005
20
-80.7346069999999969
11
145.5596510000000023
21
-80.7820349999999934
0
LINE
8
Edge.Cuts
6
CONTINUOUS
10
145.6059709999999825
20
-79.829433999999992
11
145.6256669999999929
21
-79.8793929999999932
0
LINE
8
Edge.Cuts
6
CONTINUOUS
10
145.6059709999999825
20
-80.6858840000000015
11
145.583943000000005
21
-80.7346069999999969
0
LINE
8
Edge.Cuts
6
CONTINUOUS
10
145.6256669999999929
20
-79.8793929999999932
11
145.6429609999999855
21
-79.9305119999999931
0
LINE
8
Edge.Cuts
6
CONTINUOUS
10
145.6256669999999929
20
-80.6359329999999943
11
145.6059709999999825
21
-80.6858840000000015
0
LINE
8
Edge.Cuts
6
CONTINUOUS
10
145.6429609999999855
20
-79.9305119999999931
11
145.6577839999999924
21
-79.9827229999999929
0
LINE
8
Edge.Cuts
6
CONTINUOUS
10
145.6429609999999855
20
-80.584824999999995
11
145.6256669999999929
21
-80.6359329999999943
0
LINE
8
Edge.Cuts
6
CONTINUOUS
10
145.6577839999999924
20
-79.9827229999999929
11
145.6700669999999889
21
-80.0359559999999988
0
LINE
8
Edge.Cuts
6
CONTINUOUS
10
145.6577839999999924
20
-80.532629
11
145.6429609999999855
21
-80.584824999999995
0
LINE
8
Edge.Cuts
6
CONTINUOUS
10
145.6700669999999889
20
-80.0359559999999988
11
145.679741000000007
21
-80.0901429999999976
0
LINE
8
Edge.Cuts
6
CONTINUOUS
10
145.6700669999999889
20
-80.4794129999999939
11
145.6577839999999924
21
-80.532629
0
LINE
8
Edge.Cuts
6
CONTINUOUS
10
145.679741000000007
20
-80.0901429999999976
11
145.6867359999999962
21
-80.1452149999999932
0
LINE
8
Edge.Cuts
6
CONTINUOUS
10
145.679741000000007
20
-80.4252469999999988
11
145.6700669999999889
21
-80.4794129999999939
0
LINE
8
Edge.Cuts
6
CONTINUOUS
10
145.6867359999999962
20
-80.1452149999999932
11
145.6909839999999861
21
-80.2011030000000034
0
LINE
8
Edge.Cuts
6
CONTINUOUS
10
145.6867359999999962
20
-80.3701989999999995
11
145.679741000000007
21
-80.4252469999999988
0
LINE
8
Edge.Cuts
6
CONTINUOUS
10
145.6909839999999861
20
-80.2011030000000034
11
145.6924149999999827
21
-80.2577369999999917
0
LINE
8
Edge.Cuts
6
CONTINUOUS
10
145.6909839999999861
20
-80.3143400000000014
11
145.6867359999999962
21
-80.3701989999999995
0
LINE
8
Edge.Cuts
6
CONTINUOUS
10
145.6924149999999827
20
-80.2577369999999917
11
145.6909839999999861
21
-80.3143400000000014
0
LINE
8
Edge.Cuts
6
CONTINUOUS
10
146.4809889999999939
20
-83.9386609999999962
11
127.7619040000000012
21
-73.1355530000000016
0
LINE
8
Edge.Cuts
6
CONTINUOUS
10
146.5124720000000025
20
-83.9554279999999977
11
146.4809889999999939
21
-83.9386609999999962
0
LINE
8
Edge.Cuts
6
CONTINUOUS
10
146.544351000000006
20
-83.9697129999999987
11
146.5124720000000025
21
-83.9554279999999977
0
LINE
8
Edge.Cuts
6
CONTINUOUS
10
146.576533999999981
20
-83.9815689999999933
11
146.544351000000006
21
-83.9697129999999987
0
LINE
8
Edge.Cuts
6
CONTINUOUS
10
146.6089309999999841
20
-83.9910500000000013
11
146.576533999999981
21
-83.9815689999999933
0
LINE
8
Edge.Cuts
6
CONTINUOUS
10
146.6414489999999944
20
-83.9982069999999936
11
146.6089309999999841
21
-83.9910500000000013
0
LINE
8
Edge.Cuts
6
CONTINUOUS
10
146.6739979999999832
20
-84.0030929999999927
11
146.6414489999999944
21
-83.9982069999999936
0
LINE
8
Edge.Cuts
6
CONTINUOUS
10
146.7064849999999865
20
-84.0057609999999926
11
146.6739979999999832
21
-84.0030929999999927
0
LINE
8
Edge.Cuts
6
CONTINUOUS
10
146.7307759999999917
20
-24.2521979999999999
11
146.756512999999984
21
-24.2528489999999977
0
LINE
8
Edge.Cuts
6
CONTINUOUS
10
146.7388190000000066
20
-84.0062640000000016
11
146.7064849999999865
21
-84.0057609999999926
0
LINE
8
Edge.Cuts
6
CONTINUOUS
10
146.756512999999984
20
-24.2528489999999977
11
146.7819120000000055
21
-24.2547809999999977
0
LINE
8
Edge.Cuts
6
CONTINUOUS
10
146.770908999999989
20
-84.0046549999999996
11
146.7388190000000066
21
-84.0062640000000016
0
LINE
8
Edge.Cuts
6
CONTINUOUS
10
146.7819120000000055
20
-24.2547809999999977
11
146.8069429999999898
21
-24.2579630000000002
0
LINE
8
Edge.Cuts
6
CONTINUOUS
10
146.8026629999999955
20
-84.0009859999999975
11
146.770908999999989
21
-84.0046549999999996
0
LINE
8
Edge.Cuts
6
CONTINUOUS
10
146.8069429999999898
20
-24.2579630000000002
11
146.8315729999999917
21
-24.2623630000000006
0
LINE
8
Edge.Cuts
6
CONTINUOUS
10
146.8315729999999917
20
-24.2623630000000006
11
146.8557720000000018
21
-24.267948999999998
0
LINE
8
Edge.Cuts
6
CONTINUOUS
10
146.8339890000000025
20
-83.9953089999999918
11
146.8026629999999955
21
-84.0009859999999975
0
LINE
8
Edge.Cuts
6
CONTINUOUS
10
146.8557720000000018
20
-24.267948999999998
11
146.8795069999999896
21
-24.2746919999999982
0
LINE
8
Edge.Cuts
6
CONTINUOUS
10
146.8647959999999841
20
-83.9876780000000025
11
146.8339890000000025
21
-83.9953089999999918
0
LINE
8
Edge.Cuts
6
CONTINUOUS
10
146.8795069999999896
20
-24.2746919999999982
11
146.9027480000000025
21
-24.2825570000000006
0
LINE
8
Edge.Cuts
6
CONTINUOUS
10
146.8949929999999995
20
-83.9781459999999953
11
146.8647959999999841
21
-83.9876780000000025
0
LINE
8
Edge.Cuts
6
CONTINUOUS
10
146.9027480000000025
20
-24.2825570000000006
11
146.9254619999999818
21
-24.2915159999999979
0
LINE
8
Edge.Cuts
6
CONTINUOUS
10
146.9244879999999966
20
-83.9667639999999977
11
146.8949929999999995
21
-83.9781459999999953
0
LINE
8
Edge.Cuts
6
CONTINUOUS
10
146.9254619999999818
20
-24.2915159999999979
11
146.9476190000000031
21
-24.3015349999999977
0
LINE
8
Edge.Cuts
6
CONTINUOUS
10
146.9476190000000031
20
-24.3015349999999977
11
146.9691870000000051
21
-24.3125839999999975
0
LINE
8
Edge.Cuts
6
CONTINUOUS
10
146.9531889999999805
20
-83.9535860000000014
11
146.9244879999999966
21
-83.9667639999999977
0
LINE
8
Edge.Cuts
6
CONTINUOUS
10
146.9691870000000051
20
-24.3125839999999975
11
146.9901339999999834
21
-24.3246299999999991
0
LINE
8
Edge.Cuts
6
CONTINUOUS
10
146.9810049999999819
20
-83.9386650000000003
11
146.9531889999999805
21
-83.9535860000000014
0
LINE
8
Edge.Cuts
6
CONTINUOUS
10
146.9901339999999834
20
-24.3246299999999991
11
147.0104299999999853
21
-24.3376439999999974
0
LINE
8
Edge.Cuts
6
CONTINUOUS
10
147.0078440000000057
20
-83.9220519999999937
11
146.9810049999999819
21
-83.9386650000000003
0
LINE
8
Edge.Cuts
6
CONTINUOUS
10
147.0104299999999853
20
-24.3376439999999974
11
147.0300419999999804
21
-24.3515920000000001
0
LINE
8
Edge.Cuts
6
CONTINUOUS
10
147.0300419999999804
20
-24.3515920000000001
11
147.0489389999999901
21
-24.3664439999999978
0
LINE
8
Edge.Cuts
6
CONTINUOUS
10
147.0336149999999975
20
-83.9038019999999989
11
147.0078440000000057
21
-83.9220519999999937
0
LINE
8
Edge.Cuts
6
CONTINUOUS
10
147.0489389999999901
20
-24.3664439999999978
11
147.0670900000000074
21
-24.3821680000000001
0
LINE
8
Edge.Cuts
6
CONTINUOUS
10
147.0582259999999906
20
-83.8839660000000009
11
147.0336149999999975
21
-83.9038019999999989
0
LINE
8
Edge.Cuts
6
CONTINUOUS
10
147.0670900000000074
20
-24.3821680000000001
11
147.0844629999999995
21
-24.398733
0
LINE
8
Edge.Cuts
6
CONTINUOUS
10
147.0815859999999873
20
-83.8625969999999938
11
147.0582259999999906
21
-83.8839660000000009
0
LINE
8
Edge.Cuts
6
CONTINUOUS
10
147.0844629999999995
20
-24.398733
11
147.1010269999999878
21
-24.4161070000000002
0
LINE
8
Edge.Cuts
6
CONTINUOUS
10
147.1010269999999878
20
-24.4161070000000002
11
147.1167499999999961
21
-24.4342589999999973
0
LINE
8
Edge.Cuts
6
CONTINUOUS
10
147.1036029999999926
20
-83.8397489999999976
11
147.0815859999999873
21
-83.8625969999999938
0
LINE
8
Edge.Cuts
6
CONTINUOUS
10
147.1167499999999961
20
-24.4342589999999973
11
147.1316009999999892
21
-24.4531569999999974
0
LINE
8
Edge.Cuts
6
CONTINUOUS
10
147.1241859999999804
20
-83.8154729999999972
11
147.1036029999999926
21
-83.8397489999999976
0
LINE
8
Edge.Cuts
6
CONTINUOUS
10
147.1316009999999892
20
-24.4531569999999974
11
147.1455489999999884
21
-24.4727700000000006
0
LINE
8
Edge.Cuts
6
CONTINUOUS
10
147.143242999999984
20
-83.7898220000000009
11
147.1241859999999804
21
-83.8154729999999972
0
LINE
8
Edge.Cuts
6
CONTINUOUS
10
147.1455489999999884
20
-24.4727700000000006
11
147.1585609999999917
21
-24.4930669999999999
0
LINE
8
Edge.Cuts
6
CONTINUOUS
10
147.1585609999999917
20
-24.4930669999999999
11
147.1706069999999897
21
-24.5140150000000006
0
LINE
8
Edge.Cuts
6
CONTINUOUS
10
147.1606830000000059
20
-83.7628500000000003
11
147.143242999999984
21
-83.7898220000000009
0
LINE
8
Edge.Cuts
6
CONTINUOUS
10
147.1706069999999897
20
-24.5140150000000006
11
147.1816550000000063
21
-24.5355840000000001
0
LINE
8
Edge.Cuts
6
CONTINUOUS
10
147.1764129999999966
20
-83.7346079999999944
11
147.1606830000000059
21
-83.7628500000000003
0
LINE
8
Edge.Cuts
6
CONTINUOUS
10
147.1816550000000063
20
-24.5355840000000001
11
147.1916740000000061
21
-24.5577419999999975
0
LINE
8
Edge.Cuts
6
CONTINUOUS
10
147.1903439999999819
20
-83.7051500000000033
11
147.1764129999999966
21
-83.7346079999999944
0
LINE
8
Edge.Cuts
6
CONTINUOUS
10
147.1916740000000061
20
-24.5577419999999975
11
147.2006309999999871
21
-24.5804580000000001
0
LINE
8
Edge.Cuts
6
CONTINUOUS
10
147.2006309999999871
20
-24.5804580000000001
11
147.2084969999999942
21
-24.6036989999999989
0
LINE
8
Edge.Cuts
6
CONTINUOUS
10
147.2023820000000001
20
-83.6745279999999951
11
147.1903439999999819
21
-83.7051500000000033
0
LINE
8
Edge.Cuts
6
CONTINUOUS
10
147.2084969999999942
20
-24.6036989999999989
11
147.2152389999999968
21
-24.6274359999999994
0
LINE
8
Edge.Cuts
6
CONTINUOUS
10
147.2124359999999967
20
-83.6427949999999925
11
147.2023820000000001
21
-83.6745279999999951
0
LINE
8
Edge.Cuts
6
CONTINUOUS
10
147.2152389999999968
20
-24.6274359999999994
11
147.2208249999999907
21
-24.6516349999999989
0
LINE
8
Edge.Cuts
6
CONTINUOUS
10
147.2204160000000002
20
-83.6100039999999893
11
147.2124359999999967
21
-83.6427949999999925
0
LINE
8
Edge.Cuts
6
CONTINUOUS
10
147.2208249999999907
20
-24.6516349999999989
11
147.2252249999999947
21
-24.6762669999999993
0
LINE
8
Edge.Cuts
6
CONTINUOUS
10
147.2252249999999947
20
-24.6762669999999993
11
147.2284060000000068
21
-24.7012979999999978
0
LINE
8
Edge.Cuts
6
CONTINUOUS
10
147.2262289999999894
20
-83.5762069999999966
11
147.2204160000000002
21
-83.6100039999999893
0
LINE
8
Edge.Cuts
6
CONTINUOUS
10
147.2284060000000068
20
-24.7012979999999978
11
147.2303379999999891
21
-24.726699
0
LINE
8
Edge.Cuts
6
CONTINUOUS
10
147.2297839999999951
20
-83.5414569999999941
11
147.2262289999999894
21
-83.5762069999999966
0
LINE
8
Edge.Cuts
6
CONTINUOUS
10
147.2303379999999891
20
-24.726699
11
147.2309889999999939
21
-24.7524370000000005
0
LINE
8
Edge.Cuts
6
CONTINUOUS
10
147.2309889999999939
20
-24.7524370000000005
11
147.2380289999999832
21
-53.5459180000000003
0
LINE
8
Edge.Cuts
6
CONTINUOUS
10
147.2309889999999939
20
-83.5058069999999901
11
147.2297839999999951
21
-83.5414569999999941
0
LINE
8
Edge.Cuts
6
CONTINUOUS
10
147.2380289999999832
20
-53.5459180000000003
11
147.2309889999999939
21
-83.5058069999999901
  0
ENDSEC
  0
EOF
