<?xml version="1.0" encoding="UTF-8"?>
<svg id="Layer_1" data-name="Layer 1" xmlns="http://www.w3.org/2000/svg" viewBox="0 0 1366 768">
  <path d="M348.65,261.37c-94.53-35.02-200.44.98-250,90.62-49.58,89.67-24.61,197.99,57.73,261.89C44.73,567.57,3.14,434.11,58.5,332.2c55.25-101.69,189.82-139.74,290.15-70.83Z"/>
  <g>
    <path d="M171.17,529.56v-186.61h158.36v37.32h-121.03v37.59h111.7v37.32h-111.7v37.06h121.03v37.32h-158.36Z"/>
    <path d="M371.92,529.56l-18.39-18.39v-149.29l18.39-18.93h130.63l18.39,18.93v37.06h-37.06v-18.66h-93.04v111.97h93.04v-18.39h37.06v37.32l-18.39,18.39h-130.63Z"/>
    <path d="M582.27,342.95v149.29h121.03v37.32h-158.36v-186.61h37.32Z"/>
    <path d="M721.97,529.56v-186.61h37.32v186.61h-37.32Z"/>
    <path d="M785.96,529.56v-186.61h149.02l18.39,18.93v93.31l-18.39,18.66h-111.7v55.72h-37.32ZM916.32,436.52v-56.25h-93.04v56.25h93.04Z"/>
    <path d="M995.77,529.56l-18.39-18.39v-37.32h37.32v18.39h93.04v-37.06h-111.97l-18.39-13.33v-79.98l18.39-18.93h130.63l18.39,18.93v37.06h-37.06v-18.66h-93.04v37.32h111.7l18.39,18.66v74.91l-18.39,18.39h-130.63Z"/>
    <path d="M1171.47,529.56v-186.61h158.36v37.32h-121.03v37.59h111.7v37.32h-111.7v37.06h121.03v37.32h-158.36Z"/>
  </g>
  <g>
    <path d="M723.59,287.45c-6.51,4.37-12.43,7.57-19.5,7.06-19.46-1.4-34.84-37.78-21.4-64.5,4-7.96,11.82-12.7,20.16-10.43-2.65,17.35-.5,35.12,10.18,48.49-3.63-16.17-4.99-30.9-.83-46.06,5.21-19,19.55-40.55,41.91-32.03-9.17,21.61-14.28,49.78-1.03,70.92-3.72-28.54,2.61-68.34,27.18-88.79,13.79-11.47,34.86-9.55,44.63,6.1,8.14,13.03-5.47,38.11-11.79,49.83-6.73,12.49-19.18,43.22-1.69,49.58,12.94,4.7,21.03-11.31,24.33-23.55,5.97,13.94,2.75,31.63-9.67,40.35-17.34,12.16-40.23,8.72-56.44-4.25-17.86,11.91-30.26,13.17-46.04-2.73Z"/>
    <g>
      <path d="M856.32,251.69c0-27.64,21.07-50.25,50.45-50.25,24.55,0,42.91,15.08,48.71,35.95h-17.78c-4.44-12.37-15.66-20.68-30.93-20.68-20.1,0-33.63,15.47-33.63,34.99s13.53,34.99,33.63,34.99c15.27,0,26.48-8.31,30.93-20.68h17.78c-5.6,20.87-24.16,35.95-48.71,35.95-29.38,0-50.45-22.61-50.45-50.25Z"/>
      <path d="M962.04,251.69c0-27.83,21.26-50.25,50.64-50.25s50.45,22.42,50.45,50.25-21.45,50.25-50.45,50.25-50.64-22.42-50.64-50.25ZM1046.11,251.69c0-19.33-13.34-34.79-33.44-34.79s-33.63,15.46-33.63,34.79,13.53,34.79,33.63,34.79,33.44-15.46,33.44-34.79Z"/>
      <path d="M1079.16,203.37h16.62v18.75c3.67-12.37,16.04-19.72,27.06-19.72,2.51,0,5.03.2,7.54.77v17.2c-3.09-1.35-5.8-1.54-9.08-1.54-12.18,0-25.51,10.63-25.51,33.24v47.93h-16.62v-96.64Z"/>
      <path d="M1142.16,203.37h16.62v14.88c6.76-11.6,18.17-16.82,30.73-16.82,21.65,0,36.53,15.08,36.53,39.04v59.53h-16.43v-57.02c0-16.24-9.08-26.29-22.81-26.29-15.46,0-28.02,12.76-28.02,35.37v47.93h-16.62v-96.64Z"/>
      <path d="M1240.73,251.69c0-28.41,18.75-50.25,49.09-50.25s48.51,24.74,46.39,54.7h-78.67c.58,17.59,14.5,30.73,32.09,30.73,12.18,0,22.03-4.64,28.02-16.24h17.01c-4.64,17.01-20.68,31.31-45.23,31.31-28.22,0-48.71-21.46-48.71-50.25ZM1258.32,243h60.3c-3.09-17.98-14.88-26.87-29.38-26.87-13.73,0-27.84,7.92-30.93,26.87Z"/>
    </g>
  </g>
</svg>