%TF.GenerationSoftware,KiCad,Pcbnew,7.0.7*%
%TF.CreationDate,2023-09-12T01:46:33-04:00*%
%TF.ProjectId,corne-eclipse-plates,636f726e-6973-4682-9d65-636c69707365,1*%
%TF.SameCoordinates,Original*%
%TF.FileFunction,Drillmap*%
%TF.FilePolarity,Positive*%
%FSLAX45Y45*%
G04 Gerber Fmt 4.5, Leading zero omitted, Abs format (unit mm)*
G04 Created by KiCad (PCBNEW 7.0.7) date 2023-09-12 01:46:33*
%MOMM*%
%LPD*%
G01*
G04 APERTURE LIST*
%ADD10C,0.264583*%
%ADD11C,0.200000*%
G04 APERTURE END LIST*
D10*
X14418830Y-17670116D02*
X14419959Y-17663471D01*
X14397707Y-17720962D02*
X14401544Y-17714945D01*
X14734822Y-11374406D02*
X14735141Y-11376909D01*
X12436626Y-16393517D02*
X12438267Y-16398073D01*
X14421222Y-17636771D02*
X14420735Y-17630126D01*
X12432709Y-16374426D02*
X12433280Y-16379308D01*
X14413608Y-17597693D02*
X14411261Y-17591449D01*
X14735334Y-11379449D02*
X14735399Y-11382023D01*
X14418816Y-17616959D02*
X14417389Y-17610460D01*
X14415652Y-17604034D02*
X14413608Y-17597693D01*
X14735141Y-11376909D02*
X14735334Y-11379449D01*
X14410986Y-17696215D02*
X14413450Y-17689787D01*
X14419933Y-17623518D02*
X14418816Y-17616959D01*
X14408611Y-17585314D02*
X14405661Y-17579300D01*
X12435244Y-16388864D02*
X12436626Y-16393517D01*
X12460031Y-16429769D02*
X12463746Y-16432979D01*
X12450156Y-16419031D02*
X12453231Y-16422784D01*
X14381805Y-17546438D02*
X14376824Y-17541611D01*
X14386502Y-17551471D02*
X14381805Y-17546438D01*
X14734382Y-11371942D02*
X14734822Y-11374406D01*
X14733824Y-11369522D02*
X14734382Y-11371942D01*
X14359876Y-17528249D02*
X14359814Y-17528209D01*
X12447306Y-16415118D02*
X12450156Y-16419031D01*
X14360207Y-17528486D02*
X14360102Y-17528407D01*
X14413450Y-17689787D02*
X14415578Y-17683286D01*
X14359993Y-17528328D02*
X14359935Y-17528288D01*
X14390915Y-17556698D02*
X14386502Y-17551471D01*
X14360048Y-17528368D02*
X14359993Y-17528328D01*
X14360102Y-17528407D02*
X14360048Y-17528368D01*
X14421237Y-17650120D02*
X14421390Y-17643439D01*
X14402415Y-17573419D02*
X14398873Y-17567684D01*
X14405661Y-17579300D02*
X14402415Y-17573419D01*
X14371563Y-17537002D02*
X14366023Y-17532623D01*
X14395039Y-17562106D02*
X14390915Y-17556698D01*
X14420761Y-17656802D02*
X14421237Y-17650120D01*
X12442303Y-16406853D02*
X12444686Y-16411055D01*
X12444686Y-16411055D02*
X12447306Y-16415118D01*
X14401544Y-17714945D02*
X14405035Y-17708806D01*
X12434127Y-16384124D02*
X12435244Y-16388864D01*
X14417370Y-17676725D02*
X14418830Y-17670116D01*
X14420735Y-17630126D02*
X14419933Y-17623518D01*
X14411261Y-17591449D02*
X14408611Y-17585314D01*
X14419959Y-17663471D02*
X14420761Y-17656802D01*
X12463746Y-16432979D02*
X12467662Y-16435988D01*
X12453231Y-16422784D02*
X12456525Y-16426367D01*
X12456525Y-16426367D02*
X12460031Y-16429769D01*
X12433280Y-16379308D02*
X12434127Y-16384124D01*
X12440161Y-16402522D02*
X12442303Y-16406853D01*
X12432420Y-16369489D02*
X12432709Y-16374426D01*
X14359538Y-17527900D02*
X12467485Y-16435982D01*
X14359814Y-17528209D02*
X14359749Y-17528170D01*
X14366023Y-17532623D02*
X14360207Y-17528486D01*
X14359935Y-17528288D02*
X14359876Y-17528249D01*
X14398873Y-17567684D02*
X14395039Y-17562106D01*
X12438267Y-16398073D02*
X12440161Y-16402522D01*
X14421390Y-17643439D02*
X14421222Y-17636771D01*
X14415578Y-17683286D02*
X14417370Y-17676725D01*
X14405035Y-17708806D02*
X14408181Y-17702559D01*
X14408181Y-17702559D02*
X14410986Y-17696215D01*
X14376824Y-17541611D02*
X14371563Y-17537002D01*
X14417389Y-17610460D02*
X14415652Y-17604034D01*
X12769542Y-11358427D02*
X12770745Y-11356332D01*
X12763622Y-16180384D02*
X12763539Y-16178721D01*
X14692994Y-11332575D02*
X14695457Y-11333015D01*
X12787574Y-11339489D02*
X12789667Y-11338284D01*
X14713343Y-11340543D02*
X14715304Y-11341938D01*
X14711313Y-11339242D02*
X14713343Y-11340543D01*
X14690491Y-11332257D02*
X14692994Y-11332575D01*
X12783586Y-11342185D02*
X12785545Y-11340790D01*
X12767438Y-11362800D02*
X12768439Y-11360584D01*
X12774922Y-11350452D02*
X12776493Y-11348636D01*
X12798631Y-11334495D02*
X12801004Y-11333821D01*
X14700251Y-11334248D02*
X14702575Y-11335035D01*
X12781697Y-11343670D02*
X12783586Y-11342185D01*
X12763512Y-16177048D02*
X12763512Y-11382269D01*
X14707062Y-11336932D02*
X14709219Y-11338037D01*
X12765758Y-11367396D02*
X12766543Y-11365072D01*
X12764527Y-11372189D02*
X12765085Y-11369769D01*
X14697877Y-11333574D02*
X14700251Y-11334248D01*
X14685378Y-11331999D02*
X14687951Y-11332064D01*
X12764087Y-11374652D02*
X12764527Y-11372189D01*
X12791823Y-11337179D02*
X12794037Y-11336177D01*
X12779884Y-11345243D02*
X12781697Y-11343670D01*
X12776493Y-11348636D02*
X12778148Y-11346899D01*
X12763512Y-11382269D02*
X12763577Y-11379696D01*
X12773439Y-11352341D02*
X12774922Y-11350452D01*
X12770745Y-11356332D02*
X12772045Y-11354303D01*
X12763539Y-16178721D02*
X12763512Y-16177048D01*
X12763770Y-11377156D02*
X12764087Y-11374652D01*
X12785545Y-11340790D02*
X12787574Y-11339489D01*
X12772045Y-11354303D02*
X12773439Y-11352341D01*
X12801004Y-11333821D02*
X12803423Y-11333262D01*
X14717194Y-11343423D02*
X14719009Y-11344996D01*
X12813503Y-11332246D02*
X14685378Y-11331999D01*
X12778148Y-11346899D02*
X12779884Y-11345243D01*
X14733150Y-11367149D02*
X14733824Y-11369522D01*
X14709219Y-11338037D02*
X14711313Y-11339242D01*
X14704846Y-11335930D02*
X14707062Y-11336932D01*
X14702575Y-11335035D02*
X14704846Y-11335930D01*
X14732363Y-11364825D02*
X14733150Y-11367149D01*
X14728156Y-11356086D02*
X14729361Y-11358180D01*
X12768439Y-11360584D02*
X12769542Y-11358427D01*
X12766543Y-11365072D02*
X12767438Y-11362800D01*
X12765085Y-11369769D02*
X12765758Y-11367396D01*
X12805886Y-11332822D02*
X12808389Y-11332504D01*
X12796308Y-11335282D02*
X12798631Y-11334495D01*
X14687951Y-11332064D02*
X14690491Y-11332257D01*
X12794037Y-11336177D02*
X12796308Y-11335282D01*
X14695457Y-11333015D02*
X14697877Y-11333574D01*
X12808389Y-11332504D02*
X12810929Y-11332311D01*
X14720746Y-11346652D02*
X14722403Y-11348390D01*
X12789667Y-11338284D02*
X12791823Y-11337179D01*
X14719009Y-11344996D02*
X14720746Y-11346652D01*
X12810929Y-11332311D02*
X12813503Y-11332246D01*
X14731467Y-11362553D02*
X14732363Y-11364825D01*
X12803423Y-11333262D02*
X12805886Y-11332822D01*
X14730465Y-11360337D02*
X14731467Y-11362553D01*
X14722403Y-11348390D02*
X14723975Y-11350205D01*
X12763760Y-16182037D02*
X12763622Y-16180384D01*
X14729361Y-11358180D02*
X14730465Y-11360337D01*
X14726855Y-11354056D02*
X14728156Y-11356086D01*
X14725460Y-11352095D02*
X14726855Y-11354056D01*
X12763577Y-11379696D02*
X12763770Y-11377156D01*
X14723975Y-11350205D02*
X14725460Y-11352095D01*
X14715304Y-11341938D02*
X14717194Y-11343423D01*
X12767341Y-16196260D02*
X12766743Y-16194752D01*
X12765692Y-16191674D02*
X12765242Y-16190107D01*
X12785664Y-16218579D02*
X12784304Y-16217638D01*
X14733544Y-17271058D02*
X14732538Y-17274232D01*
X14734342Y-17267779D02*
X14733544Y-17271058D01*
X14722660Y-17290754D02*
X14720459Y-17293039D01*
X12771038Y-16203453D02*
X12770207Y-16202064D01*
X12766743Y-16194752D02*
X12766193Y-16193222D01*
X12769421Y-16200650D02*
X12768681Y-16199210D01*
X12772834Y-16206145D02*
X12771914Y-16204813D01*
X12773797Y-16207447D02*
X12772834Y-16206145D01*
X14710400Y-17300645D02*
X14707619Y-17302138D01*
X12767987Y-16197747D02*
X12767341Y-16196260D01*
X14701799Y-17304594D02*
X14698780Y-17305547D01*
X14704749Y-17303455D02*
X14701799Y-17304594D01*
X14707619Y-17302138D02*
X14704749Y-17303455D01*
X14734923Y-17264400D02*
X14734342Y-17267779D01*
X12771914Y-16204813D02*
X12771038Y-16203453D01*
X12778069Y-16212335D02*
X12776939Y-16211164D01*
X12780448Y-16214571D02*
X12779239Y-16213471D01*
X12781695Y-16215633D02*
X12780448Y-16214571D01*
X14660399Y-17300645D02*
X12788490Y-16220334D01*
X14724719Y-17288326D02*
X14722660Y-17290754D01*
X14679700Y-17307088D02*
X14676445Y-17306600D01*
X14695699Y-17306310D02*
X14692566Y-17306878D01*
X14669953Y-17304936D02*
X14666735Y-17303750D01*
X14676445Y-17306600D02*
X14673193Y-17305884D01*
X14713084Y-17298984D02*
X14710400Y-17300645D01*
X14728368Y-17283064D02*
X14726624Y-17285761D01*
X14735278Y-17260925D02*
X14734923Y-17264400D01*
X14718123Y-17295176D02*
X14715661Y-17297159D01*
X12779239Y-16213471D02*
X12778069Y-16212335D01*
X14729941Y-17280240D02*
X14728368Y-17283064D01*
X12764196Y-16185307D02*
X12763951Y-16183679D01*
X12766193Y-16193222D02*
X12765692Y-16191674D01*
X14735399Y-11382023D02*
X14735399Y-17257360D01*
X14689391Y-17307244D02*
X14686182Y-17307405D01*
X12763951Y-16183679D02*
X12763760Y-16182037D01*
X14692566Y-17306878D02*
X14689391Y-17307244D01*
X12764493Y-16186923D02*
X12764196Y-16185307D01*
X12764842Y-16188523D02*
X12764493Y-16186923D01*
X12768681Y-16199210D02*
X12767987Y-16197747D01*
X12774803Y-16208719D02*
X12773797Y-16207447D01*
X12775850Y-16209958D02*
X12774803Y-16208719D01*
X12787059Y-16219479D02*
X12785664Y-16218579D01*
X12784304Y-16217638D02*
X12782981Y-16216655D01*
X14686182Y-17307405D02*
X14682948Y-17307355D01*
X14720459Y-17293039D02*
X14718123Y-17295176D01*
X14731334Y-17277294D02*
X14729941Y-17280240D01*
X14698780Y-17305547D02*
X14695699Y-17306310D01*
X14673193Y-17305884D02*
X14669953Y-17304936D01*
X14715661Y-17297159D02*
X14713084Y-17298984D01*
X12782981Y-16216655D02*
X12781695Y-16215633D01*
X12788490Y-16220334D02*
X12787059Y-16219479D01*
X14732538Y-17274232D02*
X14731334Y-17277294D01*
X12776939Y-16211164D02*
X12775850Y-16209958D01*
X14663547Y-17302322D02*
X14660399Y-17300645D01*
X14682948Y-17307355D02*
X14679700Y-17307088D01*
X14666735Y-17303750D02*
X14663547Y-17302322D01*
X14726624Y-17285761D02*
X14724719Y-17288326D01*
X12770207Y-16202064D02*
X12769421Y-16200650D01*
X14735399Y-17257360D02*
X14735278Y-17260925D01*
X12765242Y-16190107D02*
X12764842Y-16188523D01*
X19119374Y-17095856D02*
X19119799Y-17090270D01*
X19132507Y-17153946D02*
X19130078Y-17149204D01*
X19138017Y-17040017D02*
X19141084Y-17035704D01*
X19127875Y-17058701D02*
X19130078Y-17053829D01*
X25825792Y-17629143D02*
X25831113Y-17630371D01*
X19217981Y-16992088D02*
X19223567Y-16991663D01*
X19176797Y-17198236D02*
X19172190Y-17195587D01*
X19141084Y-17035704D02*
X19144349Y-17031549D01*
X19121466Y-17123684D02*
X19120498Y-17118267D01*
X19120498Y-17084765D02*
X19121466Y-17079348D01*
X19121466Y-17079348D02*
X19122694Y-17074027D01*
X25841444Y-17633583D02*
X25846439Y-17635552D01*
X19159260Y-17186394D02*
X19155268Y-17182937D01*
X19119374Y-17107176D02*
X19119231Y-17101516D01*
X19163415Y-17013373D02*
X19167728Y-17010306D01*
X19155268Y-17182937D02*
X19151448Y-17179295D01*
X19186412Y-17000164D02*
X19191407Y-16998195D01*
X19119231Y-17101516D02*
X19119374Y-17095856D01*
X19181540Y-17200665D02*
X19176797Y-17198236D01*
X19172190Y-17195587D02*
X19167728Y-17192726D01*
X19176797Y-17004796D02*
X19181540Y-17002367D01*
X19135156Y-17158553D02*
X19132507Y-17153946D01*
X19159260Y-17016638D02*
X19163415Y-17013373D01*
X19135156Y-17044479D02*
X19138017Y-17040017D01*
X19144349Y-17171483D02*
X19141084Y-17167328D01*
X19130078Y-17053829D02*
X19132507Y-17049086D01*
X19155268Y-17020095D02*
X19159260Y-17016638D01*
X19124176Y-17134225D02*
X19122694Y-17129006D01*
X19119799Y-17090270D02*
X19120498Y-17084765D01*
X19125906Y-17139336D02*
X19124176Y-17134225D01*
X19141084Y-17167328D02*
X19138017Y-17163016D01*
X19167728Y-17010306D02*
X19172190Y-17007445D01*
X19167728Y-17192726D02*
X19163415Y-17189660D01*
X19151448Y-17023737D02*
X19155268Y-17020095D01*
X19119799Y-17112762D02*
X19119374Y-17107176D01*
X25846439Y-17635552D02*
X25851311Y-17637755D01*
X19151448Y-17179295D02*
X19147806Y-17175475D01*
X19191407Y-16998195D02*
X19196518Y-16996465D01*
X19172190Y-17007445D02*
X19176797Y-17004796D01*
X19201738Y-16994983D02*
X19207059Y-16993755D01*
X25836333Y-17631854D02*
X25841444Y-17633583D01*
X19163415Y-17189660D02*
X19159260Y-17186394D01*
X19245978Y-17210245D02*
X19240473Y-17210944D01*
X19127875Y-17144331D02*
X19125906Y-17139336D01*
X19147806Y-17175475D02*
X19144349Y-17171483D01*
X19286264Y-17007445D02*
X19290726Y-17010306D01*
X19334278Y-17134225D02*
X19332548Y-17139336D01*
X19336988Y-17123684D02*
X19335760Y-17129006D01*
X19281657Y-17004796D02*
X19286264Y-17007445D01*
X19332548Y-17139336D02*
X19330579Y-17144331D01*
X19339080Y-17095856D02*
X19339223Y-17101516D01*
X19320437Y-17163016D02*
X19317370Y-17167328D01*
X19337956Y-17084765D02*
X19338655Y-17090270D01*
X19276914Y-17200665D02*
X19272042Y-17202868D01*
X19276914Y-17002367D02*
X19281657Y-17004796D01*
X19212476Y-17210245D02*
X19207059Y-17209277D01*
X19325947Y-17153946D02*
X19323298Y-17158553D01*
X19339080Y-17107176D02*
X19338655Y-17112762D01*
X19186412Y-17202868D02*
X19181540Y-17200665D01*
X19336988Y-17079348D02*
X19337956Y-17084765D01*
X19323298Y-17158553D02*
X19320437Y-17163016D01*
X19217981Y-17210944D02*
X19212476Y-17210245D01*
X19335760Y-17129006D02*
X19334278Y-17134225D01*
X19256716Y-17208049D02*
X19251395Y-17209277D01*
X19281657Y-17198236D02*
X19276914Y-17200665D01*
X19320437Y-17040017D02*
X19323298Y-17044479D01*
X19286264Y-17195587D02*
X19281657Y-17198236D01*
X19307006Y-17023737D02*
X19310648Y-17027558D01*
X19330579Y-17058701D02*
X19332548Y-17063696D01*
X19310648Y-17027558D02*
X19314105Y-17031549D01*
X19191407Y-17204837D02*
X19186412Y-17202868D01*
X19201738Y-17208049D02*
X19196518Y-17206567D01*
X19328376Y-17149204D02*
X19325947Y-17153946D01*
X19240473Y-17210944D02*
X19234887Y-17211369D01*
X19223567Y-17211369D02*
X19217981Y-17210944D01*
X19196518Y-17206567D02*
X19191407Y-17204837D01*
X19229227Y-17211512D02*
X19223567Y-17211369D01*
X19323298Y-17044479D02*
X19325947Y-17049086D01*
X19338655Y-17112762D02*
X19337956Y-17118267D01*
X19307006Y-17179295D02*
X19303186Y-17182937D01*
X19261936Y-17206567D02*
X19256716Y-17208049D01*
X19234887Y-17211369D02*
X19229227Y-17211512D01*
X19317370Y-17035704D02*
X19320437Y-17040017D01*
X19303186Y-17020095D02*
X19307006Y-17023737D01*
X19330579Y-17144331D02*
X19328376Y-17149204D01*
X19267047Y-17204837D02*
X19261936Y-17206567D01*
X19337956Y-17118267D02*
X19336988Y-17123684D01*
X19332548Y-17063696D02*
X19334278Y-17068807D01*
X19338655Y-17090270D02*
X19339080Y-17095856D01*
X19325947Y-17049086D02*
X19328376Y-17053829D01*
X25820375Y-17628176D02*
X25825792Y-17629143D01*
X19328376Y-17053829D02*
X19330579Y-17058701D01*
X19207059Y-16993755D02*
X19212476Y-16992787D01*
X19334278Y-17068807D02*
X19335760Y-17074027D01*
X19207059Y-17209277D02*
X19201738Y-17208049D01*
X19147806Y-17027558D02*
X19151448Y-17023737D01*
X19299194Y-17186394D02*
X19295039Y-17189660D01*
X19303186Y-17182937D02*
X19299194Y-17186394D01*
X19272042Y-17202868D02*
X19267047Y-17204837D01*
X19223567Y-16991663D02*
X19229227Y-16991520D01*
X19138017Y-17163016D02*
X19135156Y-17158553D01*
X19290726Y-17010306D02*
X19295039Y-17013373D01*
X19299194Y-17016638D02*
X19303186Y-17020095D01*
X25831113Y-17630371D02*
X25836333Y-17631854D01*
X19295039Y-17189660D02*
X19290726Y-17192726D01*
X19310648Y-17175475D02*
X19307006Y-17179295D01*
X19234887Y-16991663D02*
X19240473Y-16992088D01*
X24320859Y-13009055D02*
X24319892Y-13003636D01*
X24358653Y-12901999D02*
X24362808Y-12898733D01*
X24320859Y-12964709D02*
X24322087Y-12959387D01*
X24327269Y-12944062D02*
X24329471Y-12939189D01*
X24354662Y-12905456D02*
X24358653Y-12901999D01*
X19314105Y-17031549D02*
X19317370Y-17035704D01*
X24329471Y-12939189D02*
X24331900Y-12934446D01*
X19317370Y-17167328D02*
X19314105Y-17171483D01*
X19251395Y-17209277D02*
X19245978Y-17210245D01*
X19335760Y-17074027D02*
X19336988Y-17079348D01*
X19267047Y-16998195D02*
X19272042Y-17000164D01*
X19339223Y-17101516D02*
X19339080Y-17107176D01*
X19290726Y-17192726D02*
X19286264Y-17195587D01*
X19314105Y-17171483D02*
X19310648Y-17175475D01*
X24319192Y-12975630D02*
X24319892Y-12970126D01*
X24327269Y-13029707D02*
X24325299Y-13024711D01*
X24343742Y-12916909D02*
X24347200Y-12912918D01*
X24417373Y-12877449D02*
X24422959Y-12877024D01*
X24334549Y-12929840D02*
X24337410Y-12925377D01*
X24323570Y-13019599D02*
X24322087Y-13014378D01*
X24325299Y-12949057D02*
X24327269Y-12944062D01*
X24337410Y-13048392D02*
X24334549Y-13043929D01*
X24362808Y-13075031D02*
X24358653Y-13071766D01*
X19251395Y-16993755D02*
X19256716Y-16994983D01*
X24340477Y-12921065D02*
X24343742Y-12916909D01*
X24319892Y-13003636D02*
X24319192Y-12998129D01*
X24376190Y-13083604D02*
X24371584Y-13080956D01*
X24319892Y-12970126D02*
X24320859Y-12964709D01*
X24395911Y-12881826D02*
X24401131Y-12880344D01*
X24354662Y-13068310D02*
X24350842Y-13064669D01*
X24380933Y-12887728D02*
X24385805Y-12885525D01*
X24367121Y-12895666D02*
X24371584Y-12892805D01*
X24331900Y-12934446D02*
X24334549Y-12929840D01*
X24325299Y-13024711D02*
X24323570Y-13019599D01*
X24318624Y-12986877D02*
X24318768Y-12981216D01*
X24401131Y-12880344D02*
X24406452Y-12879115D01*
X24380933Y-13086032D02*
X24376190Y-13083604D01*
X24340477Y-13052704D02*
X24337410Y-13048392D01*
X19272042Y-17000164D02*
X19276914Y-17002367D01*
X24318768Y-12981216D02*
X24319192Y-12975630D01*
X24411869Y-12878148D02*
X24417373Y-12877449D01*
X24318768Y-12992540D02*
X24318624Y-12986877D01*
X19229227Y-16991520D02*
X19234887Y-16991663D01*
X24343742Y-13056859D02*
X24340477Y-13052704D01*
X24322087Y-13014378D02*
X24320859Y-13009055D01*
X24376190Y-12890157D02*
X24380933Y-12887728D01*
X24371584Y-13080956D02*
X24367121Y-13078096D01*
X19261936Y-16996465D02*
X19267047Y-16998195D01*
X24323570Y-12954168D02*
X24325299Y-12949057D01*
X24367121Y-13078096D02*
X24362808Y-13075031D01*
X24319192Y-12998129D02*
X24318768Y-12992540D01*
X19245978Y-16992787D02*
X19251395Y-16993755D01*
X24362808Y-12898733D02*
X24367121Y-12895666D01*
X24422959Y-12877024D02*
X24428620Y-12876881D01*
X24371584Y-12892805D02*
X24376190Y-12890157D01*
X24350842Y-12909098D02*
X24354662Y-12905456D01*
X24347200Y-12912918D02*
X24350842Y-12909098D01*
X24329471Y-13034580D02*
X24327269Y-13029707D01*
X24385805Y-12885525D02*
X24390800Y-12883555D01*
X24322087Y-12959387D02*
X24323570Y-12954168D01*
X19295039Y-17013373D02*
X19299194Y-17016638D01*
X24331900Y-13039323D02*
X24329471Y-13034580D01*
X24350842Y-13064669D02*
X24347200Y-13060849D01*
X16935153Y-13389364D02*
X16933670Y-13394584D01*
X16725298Y-13324055D02*
X16727267Y-13319060D01*
X16881050Y-13458595D02*
X16876307Y-13461024D01*
X24439866Y-12877449D02*
X24445371Y-12878148D01*
X16811868Y-13253146D02*
X16817373Y-13252447D01*
X16740476Y-13296063D02*
X16743741Y-13291907D01*
X16937348Y-13378626D02*
X16936381Y-13384043D01*
X16720858Y-13339707D02*
X16722086Y-13334385D01*
X16723569Y-13329166D02*
X16725298Y-13324055D01*
X16743741Y-13291907D02*
X16747199Y-13287916D01*
X16767120Y-13270665D02*
X16771583Y-13267803D01*
X16839866Y-13471303D02*
X16834280Y-13471728D01*
X16871435Y-13463227D02*
X16866440Y-13465196D01*
X16727267Y-13319060D02*
X16729470Y-13314187D01*
X16780932Y-13262726D02*
X16785804Y-13260523D01*
X16929971Y-13404690D02*
X16927769Y-13409562D01*
X16734548Y-13304838D02*
X16737409Y-13300375D01*
X16845371Y-13470603D02*
X16839866Y-13471303D01*
X24434280Y-12877024D02*
X24439866Y-12877449D01*
X16754661Y-13280454D02*
X16758652Y-13276997D01*
X16771583Y-13267803D02*
X16776189Y-13265155D01*
X16822959Y-13252022D02*
X16828620Y-13251879D01*
X16747199Y-13435833D02*
X16743741Y-13431842D01*
X16722086Y-13334385D02*
X16723569Y-13329166D01*
X16737409Y-13300375D02*
X16740476Y-13296063D01*
X16806452Y-13254114D02*
X16811868Y-13253146D01*
X24428620Y-12876881D02*
X24434280Y-12877024D01*
X16719191Y-13350628D02*
X16719891Y-13345124D01*
X16817373Y-13252447D02*
X16822959Y-13252022D01*
X16801130Y-13255342D02*
X16806452Y-13254114D01*
X16861329Y-13466926D02*
X16856109Y-13468408D01*
X16780932Y-13461024D02*
X16776189Y-13458595D01*
X24471435Y-12885525D02*
X24476307Y-12887728D01*
X24466440Y-12883555D02*
X24471435Y-12885525D01*
X16743741Y-13431842D02*
X16740476Y-13427687D01*
X16938048Y-13373121D02*
X16937348Y-13378626D01*
X19240473Y-16992088D02*
X19245978Y-16992787D01*
X16719891Y-13345124D02*
X16720858Y-13339707D01*
X16750841Y-13284096D02*
X16754661Y-13280454D01*
X16758652Y-13276997D02*
X16762807Y-13273731D01*
X16856109Y-13468408D02*
X16850787Y-13469636D01*
X16762807Y-13273731D02*
X16767120Y-13270665D01*
X24461329Y-12881826D02*
X24466440Y-12883555D01*
X24456109Y-12880344D02*
X24461329Y-12881826D01*
X16890119Y-13453085D02*
X16885656Y-13455946D01*
X24450787Y-12879115D02*
X24456109Y-12880344D01*
X24390800Y-12883555D02*
X24395911Y-12881826D01*
X16729470Y-13314187D02*
X16731899Y-13309445D01*
X16795910Y-13256824D02*
X16801130Y-13255342D01*
X16750841Y-13439653D02*
X16747199Y-13435833D01*
X16747199Y-13287916D02*
X16750841Y-13284096D01*
X16785804Y-13260523D02*
X16790800Y-13258553D01*
X24337410Y-12925377D02*
X24340477Y-12921065D01*
X24406452Y-12879115D02*
X24411869Y-12878148D01*
X24347200Y-13060849D02*
X24343742Y-13056859D01*
X24334549Y-13043929D02*
X24331900Y-13039323D01*
X19256716Y-16994983D02*
X19261936Y-16996465D01*
X24358653Y-13071766D02*
X24354662Y-13068310D01*
X16790800Y-13258553D02*
X16795910Y-13256824D01*
X16731899Y-13309445D02*
X16734548Y-13304838D01*
X24445371Y-12878148D02*
X24450787Y-12879115D01*
X16729470Y-13409562D02*
X16727267Y-13404690D01*
X16785804Y-13463227D02*
X16780932Y-13461024D01*
X16776189Y-13265155D02*
X16780932Y-13262726D01*
X16906398Y-13284096D02*
X16910040Y-13287916D01*
X16936381Y-13384043D02*
X16935153Y-13389364D01*
X16718766Y-13356214D02*
X16719191Y-13350628D01*
X16828620Y-13251879D02*
X16834280Y-13252022D01*
X16719891Y-15220117D02*
X16720858Y-15214701D01*
X16885656Y-13455946D02*
X16881050Y-13458595D01*
X16894432Y-13450018D02*
X16890119Y-13453085D01*
X16740476Y-13427687D02*
X16737409Y-13423374D01*
X16866440Y-13465196D02*
X16861329Y-13466926D01*
X16795910Y-15131818D02*
X16801130Y-15130335D01*
X16731899Y-13414305D02*
X16729470Y-13409562D01*
X16801130Y-13468408D02*
X16795910Y-13466926D01*
X16898587Y-13446753D02*
X16894432Y-13450018D01*
X16758652Y-13446753D02*
X16754661Y-13443296D01*
X16906398Y-13439653D02*
X16902578Y-13443296D01*
X16817373Y-13471303D02*
X16811868Y-13470603D01*
X16910040Y-13435833D02*
X16906398Y-13439653D01*
X16725298Y-13399695D02*
X16723569Y-13394584D01*
X16925339Y-13414305D02*
X16922691Y-13418911D01*
X16734548Y-13418911D02*
X16731899Y-13414305D01*
X16811868Y-13470603D02*
X16806452Y-13469636D01*
X16806452Y-13469636D02*
X16801130Y-13468408D01*
X16913498Y-13431842D02*
X16910040Y-13435833D01*
X16935153Y-13334385D02*
X16936381Y-13339707D01*
X16822959Y-13471728D02*
X16817373Y-13471303D01*
X16771583Y-13455946D02*
X16767120Y-13453085D01*
X16856109Y-13255342D02*
X16861329Y-13256824D01*
X16850787Y-13469636D02*
X16845371Y-13470603D01*
X16922691Y-13418911D02*
X16919830Y-13423374D01*
X16718766Y-13367535D02*
X16718623Y-13361875D01*
X16719191Y-13373121D02*
X16718766Y-13367535D01*
X16737409Y-15175369D02*
X16740476Y-15171056D01*
X16861329Y-13256824D02*
X16866440Y-13258553D01*
X16754661Y-13443296D02*
X16750841Y-13439653D01*
X16927769Y-13409562D02*
X16925339Y-13414305D01*
X16866440Y-13258553D02*
X16871435Y-13260523D01*
X16929971Y-13319060D02*
X16931941Y-13324055D01*
X16922691Y-13304838D02*
X16925339Y-13309445D01*
X16790800Y-15133547D02*
X16795910Y-15131818D01*
X16722086Y-13389364D02*
X16720858Y-13384043D01*
X16790800Y-13465196D02*
X16785804Y-13463227D01*
X16931941Y-13399695D02*
X16929971Y-13404690D01*
X16737409Y-13423374D02*
X16734548Y-13418911D01*
X16727267Y-13404690D02*
X16725298Y-13399695D01*
X16718623Y-13361875D02*
X16718766Y-13356214D01*
X16719891Y-13378626D02*
X16719191Y-13373121D01*
X16720858Y-13384043D02*
X16719891Y-13378626D01*
X16795910Y-13466926D02*
X16790800Y-13465196D01*
X16913498Y-13291907D02*
X16916763Y-13296063D01*
X16902578Y-13443296D02*
X16898587Y-13446753D01*
X16785804Y-15135516D02*
X16790800Y-15133547D01*
X16933670Y-13394584D02*
X16931941Y-13399695D01*
X16876307Y-13461024D02*
X16871435Y-13463227D01*
X16762807Y-13450018D02*
X16758652Y-13446753D01*
X16828620Y-13471871D02*
X16822959Y-13471728D01*
X16750841Y-15159090D02*
X16754661Y-15155448D01*
X16916763Y-13427687D02*
X16913498Y-13431842D01*
X16767120Y-13453085D02*
X16762807Y-13450018D01*
X16771583Y-15142797D02*
X16776189Y-15140148D01*
X16871435Y-13260523D02*
X16876307Y-13262726D01*
X16776189Y-13458595D02*
X16771583Y-13455946D01*
X16723569Y-13394584D02*
X16722086Y-13389364D01*
X16834280Y-13471728D02*
X16828620Y-13471871D01*
X16919830Y-13423374D02*
X16916763Y-13427687D01*
X16890119Y-15328079D02*
X16885656Y-15330940D01*
X16734548Y-15293905D02*
X16731899Y-15289299D01*
X16767120Y-15328079D02*
X16762807Y-15325012D01*
X16725298Y-15199048D02*
X16727267Y-15194053D01*
X16740476Y-15171056D02*
X16743741Y-15166901D01*
X16938472Y-13367535D02*
X16938048Y-13373121D01*
X16935153Y-15264358D02*
X16933670Y-15269578D01*
X16722086Y-15209379D02*
X16723569Y-15204159D01*
X16902578Y-13280454D02*
X16906398Y-13284096D01*
X16881050Y-13265155D02*
X16885656Y-13267803D01*
X16850787Y-13254114D02*
X16856109Y-13255342D01*
X16922691Y-15293905D02*
X16919830Y-15298368D01*
X16754661Y-15155448D02*
X16758652Y-15151990D01*
X16747199Y-15162910D02*
X16750841Y-15159090D01*
X16780932Y-15137719D02*
X16785804Y-15135516D01*
X16916763Y-13296063D02*
X16919830Y-13300375D01*
X16938048Y-13350628D02*
X16938472Y-13356214D01*
X16723569Y-15204159D02*
X16725298Y-15199048D01*
X16776189Y-15140148D02*
X16780932Y-15137719D01*
X16817373Y-15127440D02*
X16822959Y-15127015D01*
X16822959Y-15127015D02*
X16828620Y-15126872D01*
X16758652Y-15151990D02*
X16762807Y-15148725D01*
X16839866Y-13252447D02*
X16845371Y-13253146D01*
X16729470Y-15189181D02*
X16731899Y-15184438D01*
X16767120Y-15145658D02*
X16771583Y-15142797D01*
X16743741Y-15166901D02*
X16747199Y-15162910D01*
X16727267Y-15194053D02*
X16729470Y-15189181D01*
X16758652Y-15321747D02*
X16754661Y-15318289D01*
X16734548Y-15179832D02*
X16737409Y-15175369D01*
X16885656Y-13267803D02*
X16890119Y-13270665D01*
X16839866Y-15346297D02*
X16834280Y-15346722D01*
X16938472Y-13356214D02*
X16938616Y-13361875D01*
X16801130Y-15130335D02*
X16806452Y-15129107D01*
X16933670Y-13329166D02*
X16935153Y-13334385D01*
X16931941Y-15274688D02*
X16929971Y-15279684D01*
X16876307Y-13262726D02*
X16881050Y-13265155D01*
X16729470Y-15284556D02*
X16727267Y-15279684D01*
X16925339Y-13309445D02*
X16927769Y-13314187D01*
X16890119Y-13270665D02*
X16894432Y-13273731D01*
X16937348Y-13345124D02*
X16938048Y-13350628D01*
X16906398Y-15314647D02*
X16902578Y-15318289D01*
X16806452Y-15129107D02*
X16811868Y-15128140D01*
X16919830Y-13300375D02*
X16922691Y-13304838D01*
X16850787Y-15344630D02*
X16845371Y-15345597D01*
X16938048Y-15248115D02*
X16937348Y-15253620D01*
X16719191Y-15225622D02*
X16719891Y-15220117D01*
X16938616Y-13361875D02*
X16938472Y-13367535D01*
X16731899Y-15184438D02*
X16734548Y-15179832D01*
X16876307Y-15336018D02*
X16871435Y-15338221D01*
X16937348Y-15253620D02*
X16936381Y-15259036D01*
X16762807Y-15148725D02*
X16767120Y-15145658D01*
X16866440Y-15340190D02*
X16861329Y-15341919D01*
X16931941Y-13324055D02*
X16933670Y-13329166D01*
X16927769Y-13314187D02*
X16929971Y-13319060D01*
X16910040Y-13287916D02*
X16913498Y-13291907D01*
X16806452Y-15344630D02*
X16801130Y-15343402D01*
X16894432Y-13273731D02*
X16898587Y-13276997D01*
X16834280Y-13252022D02*
X16839866Y-13252447D01*
X16845371Y-13253146D02*
X16850787Y-13254114D01*
X16720858Y-15214701D02*
X16722086Y-15209379D01*
X16936381Y-13339707D02*
X16937348Y-13345124D01*
X16898587Y-13276997D02*
X16902578Y-13280454D01*
X16811868Y-15128140D02*
X16817373Y-15127440D01*
X16925339Y-15289299D02*
X16922691Y-15293905D01*
X16861329Y-15131818D02*
X16866440Y-15133547D01*
X16771583Y-15330940D02*
X16767120Y-15328079D01*
X16936381Y-15259036D02*
X16935153Y-15264358D01*
X16916763Y-15302681D02*
X16913498Y-15306836D01*
X16740476Y-15302681D02*
X16737409Y-15298368D01*
X16718766Y-15231208D02*
X16719191Y-15225622D01*
X16718766Y-15242529D02*
X16718623Y-15236868D01*
X16885656Y-15142797D02*
X16890119Y-15145658D01*
X16925339Y-15184438D02*
X16927769Y-15189181D01*
X16822959Y-15346722D02*
X16817373Y-15346297D01*
X16795910Y-15341919D02*
X16790800Y-15340190D01*
X16927769Y-15284556D02*
X16925339Y-15289299D01*
X16720858Y-15259036D02*
X16719891Y-15253620D01*
X16856109Y-15343402D02*
X16850787Y-15344630D01*
X16747199Y-15310827D02*
X16743741Y-15306836D01*
X16913498Y-15306836D02*
X16910040Y-15310827D01*
X16801130Y-15343402D02*
X16795910Y-15341919D01*
X16828620Y-15346865D02*
X16822959Y-15346722D01*
X16881050Y-15333589D02*
X16876307Y-15336018D01*
X16902578Y-15318289D02*
X16898587Y-15321747D01*
X16919830Y-15298368D02*
X16916763Y-15302681D01*
X16722086Y-15264358D02*
X16720858Y-15259036D01*
X16834280Y-15346722D02*
X16828620Y-15346865D01*
X16719191Y-15248115D02*
X16718766Y-15242529D01*
X16754661Y-15318289D02*
X16750841Y-15314647D01*
X16933670Y-15269578D02*
X16931941Y-15274688D01*
X16894432Y-15325012D02*
X16890119Y-15328079D01*
X16898587Y-15151990D02*
X16902578Y-15155448D01*
X16790800Y-15340190D02*
X16785804Y-15338221D01*
X16881050Y-15140148D02*
X16885656Y-15142797D01*
X16913498Y-15166901D02*
X16916763Y-15171056D01*
X16927769Y-15189181D02*
X16929971Y-15194053D01*
X16828620Y-15126872D02*
X16834280Y-15127015D01*
X16811868Y-15345597D02*
X16806452Y-15344630D01*
X16910040Y-15310827D02*
X16906398Y-15314647D01*
X16718623Y-15236868D02*
X16718766Y-15231208D01*
X16938048Y-15225622D02*
X16938472Y-15231208D01*
X16762807Y-15325012D02*
X16758652Y-15321747D01*
X16936381Y-15214701D02*
X16937348Y-15220117D01*
X16933670Y-15204159D02*
X16935153Y-15209379D01*
X16817373Y-15346297D02*
X16811868Y-15345597D01*
X16719891Y-15253620D02*
X16719191Y-15248115D01*
X16871435Y-15135516D02*
X16876307Y-15137719D01*
X16871435Y-15338221D02*
X16866440Y-15340190D01*
X16919830Y-15175369D02*
X16922691Y-15179832D01*
X16845371Y-15345597D02*
X16839866Y-15346297D01*
X16785804Y-15338221D02*
X16780932Y-15336018D01*
X16861329Y-15341919D02*
X16856109Y-15343402D01*
X16922691Y-15179832D02*
X16925339Y-15184438D01*
X16780932Y-15336018D02*
X16776189Y-15333589D01*
X16727267Y-15279684D02*
X16725298Y-15274688D01*
X16737409Y-15298368D02*
X16734548Y-15293905D01*
X16929971Y-15279684D02*
X16927769Y-15284556D01*
X16731899Y-15289299D02*
X16729470Y-15284556D01*
X16845371Y-15128140D02*
X16850787Y-15129107D01*
X16750841Y-15314647D02*
X16747199Y-15310827D01*
X16725298Y-15274688D02*
X16723569Y-15269578D01*
X16885656Y-15330940D02*
X16881050Y-15333589D01*
X16723569Y-15269578D02*
X16722086Y-15264358D01*
X16894432Y-15148725D02*
X16898587Y-15151990D01*
X16898587Y-15321747D02*
X16894432Y-15325012D01*
X16743741Y-15306836D02*
X16740476Y-15302681D01*
X16776189Y-15333589D02*
X16771583Y-15330940D01*
X16890119Y-15145658D02*
X16894432Y-15148725D01*
X24471435Y-13088234D02*
X24466440Y-13090202D01*
X24450787Y-13094640D02*
X24445371Y-13095606D01*
X24529972Y-13029707D02*
X24527769Y-13034580D01*
X16910040Y-15162910D02*
X16913498Y-15166901D01*
X24498587Y-12901999D02*
X24502578Y-12905456D01*
X16902578Y-15155448D02*
X16906398Y-15159090D01*
X16916763Y-15171056D02*
X16919830Y-15175369D01*
X24510040Y-13060849D02*
X24506398Y-13064669D01*
X16856109Y-15130335D02*
X16861329Y-15131818D01*
X16876307Y-15137719D02*
X16881050Y-15140148D01*
X24506398Y-13064669D02*
X24502578Y-13068310D01*
X24481050Y-13083604D02*
X24476307Y-13086032D01*
X16937348Y-15220117D02*
X16938048Y-15225622D01*
X16839866Y-15127440D02*
X16845371Y-15128140D01*
X16850787Y-15129107D02*
X16856109Y-15130335D01*
X16938472Y-15242529D02*
X16938048Y-15248115D01*
X16935153Y-15209379D02*
X16936381Y-15214701D01*
X24510040Y-12912918D02*
X24513498Y-12916909D01*
X16938616Y-15236868D02*
X16938472Y-15242529D01*
X24538048Y-12975630D02*
X24538473Y-12981216D01*
X24531941Y-12949057D02*
X24533670Y-12954168D01*
X24538048Y-12998129D02*
X24537348Y-13003636D01*
X16938472Y-15231208D02*
X16938616Y-15236868D01*
X24417373Y-13096305D02*
X24411869Y-13095606D01*
X16929971Y-15194053D02*
X16931941Y-15199048D01*
X24527769Y-13034580D02*
X24525340Y-13039323D01*
X24519830Y-13048392D02*
X24516763Y-13052704D01*
X16866440Y-15133547D02*
X16871435Y-15135516D01*
X16834280Y-15127015D02*
X16839866Y-15127440D01*
X16931941Y-15199048D02*
X16933670Y-15204159D01*
X24481050Y-12890157D02*
X24485656Y-12892805D01*
X24536381Y-13009055D02*
X24535153Y-13014378D01*
X16906398Y-15159090D02*
X16910040Y-15162910D01*
X24537348Y-13003636D02*
X24536381Y-13009055D01*
X24516763Y-12921065D02*
X24519830Y-12925377D01*
X24445371Y-13095606D02*
X24439866Y-13096305D01*
X24536381Y-12964709D02*
X24537348Y-12970126D01*
X24535153Y-12959387D02*
X24536381Y-12964709D01*
X24525340Y-13039323D02*
X24522691Y-13043929D01*
X24476307Y-13086032D02*
X24471435Y-13088234D01*
X24529972Y-12944062D02*
X24531941Y-12949057D01*
X24494432Y-12898733D02*
X24498587Y-12901999D01*
X24395911Y-13091931D02*
X24390800Y-13090202D01*
X24522691Y-12929840D02*
X24525340Y-12934446D01*
X24456109Y-13093412D02*
X24450787Y-13094640D01*
X24476307Y-12887728D02*
X24481050Y-12890157D01*
X24519830Y-12925377D02*
X24522691Y-12929840D01*
X24494432Y-13075031D02*
X24490119Y-13078096D01*
X24525340Y-12934446D02*
X24527769Y-12939189D01*
X24422959Y-13096730D02*
X24417373Y-13096305D01*
X24498587Y-13071766D02*
X24494432Y-13075031D01*
X24439866Y-13096305D02*
X24434280Y-13096730D01*
X24502578Y-13068310D02*
X24498587Y-13071766D01*
X24461329Y-13091931D02*
X24456109Y-13093412D01*
X24401131Y-13093412D02*
X24395911Y-13091931D01*
X24513498Y-12916909D02*
X24516763Y-12921065D01*
X24506398Y-12909098D02*
X24510040Y-12912918D01*
X24485656Y-13080956D02*
X24481050Y-13083604D01*
X24516763Y-13052704D02*
X24513498Y-13056859D01*
X24538473Y-12981216D02*
X24538616Y-12986877D01*
X24490119Y-12895666D02*
X24494432Y-12898733D01*
X24538473Y-12992540D02*
X24538048Y-12998129D01*
X24406452Y-13094640D02*
X24401131Y-13093412D01*
X24533670Y-12954168D02*
X24535153Y-12959387D01*
D11*
X20629917Y-11013981D02*
X20651595Y-11009056D01*
X20668503Y-10995795D01*
X20678351Y-10976489D01*
X20679929Y-10963994D01*
X18711274Y-17128619D02*
X19730220Y-18559679D01*
X26279912Y-11438973D02*
X26284837Y-11460652D01*
X26298098Y-11477560D01*
X26317404Y-11487408D01*
X26329900Y-11488986D01*
X21619576Y-18574335D02*
X25321977Y-19066002D01*
X28354861Y-11538846D02*
X28354861Y-17486250D01*
D10*
X24385805Y-13088234D02*
X24380933Y-13086032D01*
X24538616Y-12986877D02*
X24538473Y-12992540D01*
D11*
X20679929Y-10838975D02*
X20679751Y-10963791D01*
X14979920Y-17063976D02*
X14984856Y-17085652D01*
X14998125Y-17102553D01*
X15017436Y-17112392D01*
X15029932Y-17113963D01*
X18779934Y-11438998D02*
X18779934Y-11438973D01*
X18675918Y-17113963D02*
X18316634Y-17114063D01*
X20679929Y-10838975D02*
X20679929Y-10838975D01*
X22479847Y-10963791D02*
X22479847Y-10838823D01*
X19730220Y-18559679D02*
X19747573Y-18570977D01*
X19765577Y-18574335D01*
D10*
X24533670Y-13019599D02*
X24531941Y-13024711D01*
D11*
X18779833Y-11063867D02*
X18779833Y-11438770D01*
X18829921Y-11013981D02*
X18808252Y-11018914D01*
X18791352Y-11032175D01*
X18781510Y-11051477D01*
X18779934Y-11063968D01*
X25387433Y-19078956D02*
X25367263Y-19073533D01*
X25346811Y-19069355D01*
X25326135Y-19066434D01*
X25321977Y-19066002D01*
D10*
X24535153Y-13014378D02*
X24533670Y-13019599D01*
D11*
X24379918Y-11063968D02*
X24374985Y-11042299D01*
X24361724Y-11025399D01*
X24342422Y-11015557D01*
X24329931Y-11013981D01*
D10*
X24537348Y-12970126D02*
X24538048Y-12975630D01*
X24466440Y-13090202D02*
X24461329Y-13091931D01*
D11*
X19765577Y-18574335D02*
X21619576Y-18574335D01*
D10*
X24411869Y-13095606D02*
X24406452Y-13094640D01*
X24513498Y-13056859D02*
X24510040Y-13060849D01*
D11*
X18729795Y-11488808D02*
X15029933Y-11488986D01*
D10*
X24531941Y-13024711D02*
X24529972Y-13029707D01*
D11*
X24329727Y-11013829D02*
X23717633Y-11013829D01*
X25387433Y-19078956D02*
X26816841Y-19905064D01*
X14979920Y-11538973D02*
X14979743Y-17063849D01*
X26279683Y-11313802D02*
X26279912Y-11438973D01*
X22479924Y-10963968D02*
X22484849Y-10985646D01*
X22498109Y-11002555D01*
X22517415Y-11012404D01*
X22529911Y-11013981D01*
X18316634Y-17114063D02*
X16117633Y-17113987D01*
D10*
X24434280Y-13096730D02*
X24428620Y-13096873D01*
D11*
X22429809Y-10788785D02*
X20729789Y-10788785D01*
D10*
X24522691Y-13043929D02*
X24519830Y-13048392D01*
D11*
X22529936Y-11013981D02*
X23717633Y-11013829D01*
X24379918Y-11213980D02*
X24384854Y-11235656D01*
X24398123Y-11252558D01*
X24417434Y-11262397D01*
X24429930Y-11263968D01*
X24379765Y-11213726D02*
X24379765Y-11063867D01*
X26229899Y-11263764D02*
X24429803Y-11263764D01*
X20629713Y-11013829D02*
X19918633Y-11013829D01*
X22529911Y-11013981D02*
X22529936Y-11013981D01*
X18829921Y-11013981D02*
X19935633Y-11013981D01*
X15029933Y-11488986D02*
X15008255Y-11493911D01*
X14991346Y-11507171D01*
X14981497Y-11526477D01*
X14979920Y-11538972D01*
X26329900Y-11488986D02*
X26329924Y-11488986D01*
X15029932Y-17113963D02*
X15029933Y-17113963D01*
X14979920Y-11538972D02*
X14979920Y-11538973D01*
X18729922Y-11488986D02*
X18751600Y-11484060D01*
X18768509Y-11470800D01*
X18778357Y-11451494D01*
X18779934Y-11438998D01*
X20729916Y-10788962D02*
X20708240Y-10793898D01*
X20691338Y-10807167D01*
X20681500Y-10826478D01*
X20679929Y-10838975D01*
X22479924Y-10838975D02*
X22474999Y-10817297D01*
X22461738Y-10800388D01*
X22442432Y-10790540D01*
X22429936Y-10788962D01*
D10*
X24428620Y-13096873D02*
X24422959Y-13096730D01*
D11*
X26279912Y-11313980D02*
X26274986Y-11292302D01*
X26261726Y-11275393D01*
X26242421Y-11265545D01*
X26229925Y-11263968D01*
X15029933Y-17113963D02*
X16117633Y-17113987D01*
D10*
X24527769Y-12939189D02*
X24529972Y-12944062D01*
X24485656Y-12892805D02*
X24490119Y-12895666D01*
D11*
X18711274Y-17128619D02*
X18693921Y-17117321D01*
X18675918Y-17113963D01*
D10*
X24502578Y-12905456D02*
X24506398Y-12909098D01*
X24490119Y-13078096D02*
X24485656Y-13080956D01*
X24390800Y-13090202D02*
X24385805Y-13088234D01*
D11*
X28354913Y-11538973D02*
X28349980Y-11517304D01*
X28336719Y-11500404D01*
X28317416Y-11490562D01*
X28304925Y-11488986D01*
X28304823Y-11488808D02*
X26329924Y-11488986D01*
X20679929Y-10963994D02*
X20679929Y-10963968D01*
X28332204Y-17573727D02*
X28341152Y-17555840D01*
X28348700Y-17534379D01*
X28353318Y-17512115D01*
X28354927Y-17489345D01*
X28354913Y-17486478D01*
X27009653Y-19867117D02*
X28332255Y-17573880D01*
D10*
X5133414Y-11226036D02*
X6533412Y-11226036D01*
X10833878Y-11464090D02*
X12233913Y-11464090D01*
X9385585Y-16991410D02*
X9385585Y-18391444D01*
X7033617Y-14288180D02*
X7033617Y-12888182D01*
X5133414Y-14526094D02*
X5133414Y-13126060D01*
X7985553Y-16991410D02*
X9385585Y-16991410D01*
X7985553Y-18391444D02*
X7985553Y-16991410D01*
X10833878Y-15264104D02*
X12233913Y-15264104D01*
X10833878Y-16664103D02*
X10833878Y-15264104D01*
X10833878Y-12864122D02*
X10833878Y-11464090D01*
X12233913Y-12864122D02*
X10833878Y-12864122D01*
X10833878Y-14764148D02*
X10833878Y-13364114D01*
X10333746Y-13125637D02*
X10333746Y-14525635D01*
X8433615Y-14288180D02*
X7033617Y-14288180D01*
X8433615Y-10988158D02*
X8433615Y-12388192D01*
X5133414Y-13126060D02*
X6533412Y-13126060D01*
X6533412Y-14526094D02*
X5133414Y-14526094D01*
X8933713Y-13125637D02*
X10333746Y-13125637D01*
X10333746Y-11225646D02*
X10333746Y-12625645D01*
X10333746Y-14525635D02*
X8933713Y-14525635D01*
X3233388Y-15500537D02*
X4633386Y-15500537D01*
X8933713Y-11225646D02*
X10333746Y-11225646D01*
X6533412Y-11226036D02*
X6533412Y-12626068D01*
X7033617Y-12888182D02*
X8433615Y-12888182D01*
X6533412Y-15026050D02*
X6533412Y-16426049D01*
X10333746Y-12625645D02*
X8933713Y-12625645D01*
X6533412Y-12626068D02*
X5133414Y-12626068D01*
X7033617Y-16188171D02*
X7033617Y-14788173D01*
X10333746Y-16425626D02*
X8933713Y-16425626D01*
X13963844Y-18080259D02*
X13263863Y-19292685D01*
X12751418Y-17380242D02*
X13963844Y-18080259D01*
X9385585Y-18391444D02*
X7985553Y-18391444D01*
X12051436Y-18592669D02*
X12751418Y-17380242D01*
X12233913Y-15264104D02*
X12233913Y-16664103D01*
X13263863Y-19292685D02*
X12051436Y-18592669D01*
X11639134Y-17467475D02*
X11276798Y-18819777D01*
X8933713Y-16425626D02*
X8933713Y-15025627D01*
X10286832Y-17105136D02*
X11639134Y-17467475D01*
X12233913Y-13364114D02*
X12233913Y-14764148D01*
X5133414Y-15026050D02*
X6533412Y-15026050D01*
X12233913Y-16664103D02*
X10833878Y-16664103D01*
X10833878Y-13364114D02*
X12233913Y-13364114D01*
X7033617Y-14788173D02*
X8433615Y-14788173D01*
X7033617Y-10988158D02*
X8433615Y-10988158D01*
X12233913Y-14764148D02*
X10833878Y-14764148D01*
X8933713Y-14525635D02*
X8933713Y-13125637D01*
X5133414Y-12626068D02*
X5133414Y-11226036D01*
X8433615Y-14788173D02*
X8433615Y-16188171D01*
X6533412Y-13126060D02*
X6533412Y-14526094D01*
X5133414Y-16426049D02*
X5133414Y-15026050D01*
X8433615Y-16188171D02*
X7033617Y-16188171D01*
X7033617Y-12388192D02*
X7033617Y-10988158D01*
X4633386Y-15500537D02*
X4633386Y-16900536D01*
X12233913Y-11464090D02*
X12233913Y-12864122D01*
X10333746Y-15025627D02*
X10333746Y-16425626D01*
X3233388Y-16900536D02*
X3233388Y-15500537D01*
X8933713Y-15025627D02*
X10333746Y-15025627D01*
X8933713Y-12625645D02*
X8933713Y-11225646D01*
X8433615Y-12388192D02*
X7033617Y-12388192D01*
X6533412Y-16426049D02*
X5133414Y-16426049D01*
X8433615Y-12888182D02*
X8433615Y-14288180D01*
X9924494Y-18457439D02*
X10286832Y-17105136D01*
X11276798Y-18819777D02*
X9924494Y-18457439D01*
X2733574Y-13600617D02*
X2733574Y-15000616D01*
X1333576Y-13600617D02*
X2733574Y-13600617D01*
X1333576Y-15000616D02*
X1333576Y-13600617D01*
X1333576Y-11700625D02*
X2733574Y-11700625D01*
X2733574Y-15000616D02*
X1333576Y-15000616D01*
X2733574Y-11700625D02*
X2733574Y-13100625D01*
X1333576Y-13100625D02*
X1333576Y-11700625D01*
X4633386Y-16900536D02*
X3233388Y-16900536D01*
X4633386Y-13600547D02*
X4633386Y-15000545D01*
X4633386Y-13100555D02*
X3233388Y-13100555D01*
X3233388Y-13600547D02*
X4633386Y-13600547D01*
X1333576Y-16900607D02*
X1333576Y-15500608D01*
X3233388Y-15000545D02*
X3233388Y-13600547D01*
X4633386Y-15000545D02*
X3233388Y-15000545D01*
X2733574Y-13100625D02*
X1333576Y-13100625D01*
X4633386Y-11700554D02*
X4633386Y-13100555D01*
X3233388Y-11700554D02*
X4633386Y-11700554D01*
X3233388Y-13100555D02*
X3233388Y-11700554D01*
X2733574Y-15500608D02*
X2733574Y-16900607D01*
X1333576Y-15500608D02*
X2733574Y-15500608D01*
X2733574Y-16900607D02*
X1333576Y-16900607D01*
X14545503Y-16851119D02*
X14549323Y-16854760D01*
X14572897Y-16889722D02*
X14574867Y-16894718D01*
X14562755Y-16871037D02*
X14565616Y-16875500D01*
X14552966Y-16858580D02*
X14556423Y-16862570D01*
X14549323Y-16854760D02*
X14552966Y-16858580D01*
X14537356Y-16844398D02*
X14541512Y-16847663D01*
X14570694Y-16884849D02*
X14572897Y-16889722D01*
X14580974Y-16921300D02*
X14581398Y-16926889D01*
X14528581Y-16838472D02*
X14533044Y-16841332D01*
X14580274Y-16915793D02*
X14580974Y-16921300D01*
X14541512Y-16847663D02*
X14545503Y-16851119D01*
X14533044Y-16841332D02*
X14537356Y-16844398D01*
X14578078Y-16905051D02*
X14579307Y-16910375D01*
X14579307Y-16910375D02*
X14580274Y-16915793D01*
X14556423Y-16862570D02*
X14559688Y-16866725D01*
X14568265Y-16880106D02*
X14570694Y-16884849D01*
X14581398Y-16926889D02*
X14581541Y-16932553D01*
X14565616Y-16875500D02*
X14568265Y-16880106D01*
X14576596Y-16899830D02*
X14578078Y-16905051D01*
X14559688Y-16866725D02*
X14562755Y-16871037D01*
X14574867Y-16894718D02*
X14576596Y-16899830D01*
X14460298Y-17041980D02*
X14454793Y-17041281D01*
X14465884Y-17042405D02*
X14460298Y-17041980D01*
X14537356Y-17020695D02*
X14533044Y-17023762D01*
X14477204Y-17042405D02*
X14471544Y-17042548D01*
X14471544Y-17042548D02*
X14465884Y-17042405D01*
X14568265Y-16984982D02*
X14565616Y-16989589D01*
X14519232Y-17031701D02*
X14514359Y-17033904D01*
X14482790Y-17041980D02*
X14477204Y-17042405D01*
X14556423Y-17002519D02*
X14552966Y-17006511D01*
X14533044Y-17023762D02*
X14528581Y-17026623D01*
X14562755Y-16994052D02*
X14559688Y-16998364D01*
X14523975Y-17029272D02*
X14519232Y-17031701D01*
X14509364Y-17035873D02*
X14504253Y-17037603D01*
X14549323Y-17010331D02*
X14545503Y-17013973D01*
X14499033Y-17039085D02*
X14493712Y-17040313D01*
X14528581Y-17026623D02*
X14523975Y-17029272D01*
X14541512Y-17017430D02*
X14537356Y-17020695D01*
X14552966Y-17006511D02*
X14549323Y-17010331D01*
X14514359Y-17033904D02*
X14509364Y-17035873D01*
X14570694Y-16980240D02*
X14568265Y-16984982D01*
X14444054Y-17039085D02*
X14438835Y-17037603D01*
X14423856Y-17031701D02*
X14419113Y-17029272D01*
X14504253Y-17037603D02*
X14499033Y-17039085D01*
X14438835Y-17037603D02*
X14433724Y-17035873D01*
X14419113Y-17029272D02*
X14414507Y-17026623D01*
X14428729Y-17033904D02*
X14423856Y-17031701D01*
X14433724Y-17035873D02*
X14428729Y-17033904D01*
X14449376Y-17040313D02*
X14444054Y-17039085D01*
X14454793Y-17041281D02*
X14449376Y-17040313D01*
X14565616Y-16989589D02*
X14562755Y-16994052D01*
X14545503Y-17013973D02*
X14541512Y-17017430D01*
X14488295Y-17041281D02*
X14482790Y-17041980D01*
X14493712Y-17040313D02*
X14488295Y-17041281D01*
X14559688Y-16998364D02*
X14556423Y-17002519D01*
X12958378Y-15995565D02*
X12962533Y-15992300D01*
X12946927Y-16006485D02*
X12950568Y-16002665D01*
X13131682Y-16042623D02*
X13133411Y-16047734D01*
X13129712Y-16037628D02*
X13131682Y-16042623D01*
X13034019Y-15970591D02*
X13039605Y-15971015D01*
X13045110Y-15971715D02*
X13050527Y-15972682D01*
X13017107Y-15971015D02*
X13022695Y-15970591D01*
X13106139Y-16002665D02*
X13109781Y-16006485D01*
X13080790Y-15983724D02*
X13085397Y-15986372D01*
X12937140Y-16018944D02*
X12940206Y-16014631D01*
X12931633Y-16028013D02*
X12934280Y-16023407D01*
X12940206Y-16014631D02*
X12943471Y-16010476D01*
X13127509Y-16032756D02*
X13129712Y-16037628D01*
X13125080Y-16028013D02*
X13127509Y-16032756D01*
X13116504Y-16014631D02*
X13119571Y-16018944D01*
X13071175Y-15979092D02*
X13076048Y-15981294D01*
X13061069Y-15975393D02*
X13066180Y-15977122D01*
X13055849Y-15973910D02*
X13061069Y-15975393D01*
X13006181Y-15972682D02*
X13011600Y-15971715D01*
X12995637Y-15975393D02*
X13000858Y-15973910D01*
X13113238Y-16010476D02*
X13116504Y-16014631D01*
X12950568Y-16002665D02*
X12954387Y-15999023D01*
X12990525Y-15977122D02*
X12995637Y-15975393D01*
X13109781Y-16006485D02*
X13113238Y-16010476D01*
X12966845Y-15989233D02*
X12971307Y-15986372D01*
X13102319Y-15999023D02*
X13106139Y-16002665D01*
X13094172Y-15992300D02*
X13098328Y-15995565D01*
X13098328Y-15995565D02*
X13102319Y-15999023D01*
X12929205Y-16032756D02*
X12931633Y-16028013D01*
X13039605Y-15971015D02*
X13045110Y-15971715D01*
X13028358Y-15970447D02*
X13034019Y-15970591D01*
X13022695Y-15970591D02*
X13028358Y-15970447D01*
X12943471Y-16010476D02*
X12946927Y-16006485D01*
X12971307Y-15986372D02*
X12975914Y-15983724D01*
X14572897Y-16975367D02*
X14570694Y-16980240D01*
X14574867Y-16970372D02*
X14572897Y-16975367D01*
X14579307Y-16954720D02*
X14578078Y-16960042D01*
X13137089Y-16063692D02*
X13137788Y-16069197D01*
X13122432Y-16023407D02*
X13125080Y-16028013D01*
X13085397Y-15986372D02*
X13089860Y-15989233D01*
X12975914Y-15983724D02*
X12980657Y-15981294D01*
X13076048Y-15981294D02*
X13080790Y-15983724D01*
X13066180Y-15977122D02*
X13071175Y-15979092D01*
X14580274Y-16949304D02*
X14579307Y-16954720D01*
X13119571Y-16018944D02*
X13122432Y-16023407D01*
X13137788Y-16069197D02*
X13138213Y-16074783D01*
X13134893Y-16052954D02*
X13136121Y-16058276D01*
X13000858Y-15973910D02*
X13006181Y-15972682D01*
X14576596Y-16965261D02*
X14574867Y-16970372D01*
X14578078Y-16960042D02*
X14576596Y-16965261D01*
X14580974Y-16943799D02*
X14580274Y-16949304D01*
X12954387Y-15999023D02*
X12958378Y-15995565D01*
X14581398Y-16938213D02*
X14580974Y-16943799D01*
X13011600Y-15971715D02*
X13017107Y-15971015D01*
X12985529Y-15979092D02*
X12990525Y-15977122D01*
X14581541Y-16932553D02*
X14581398Y-16938213D01*
X12962533Y-15992300D02*
X12966845Y-15989233D01*
X13138213Y-16074783D02*
X13138356Y-16080443D01*
X12980657Y-15981294D02*
X12985529Y-15979092D01*
X12934280Y-16023407D02*
X12937140Y-16018944D01*
X13136121Y-16058276D02*
X13137089Y-16063692D01*
X13133411Y-16047734D02*
X13134893Y-16052954D01*
X13089860Y-15989233D02*
X13094172Y-15992300D01*
X13050527Y-15972682D02*
X13055849Y-15973910D01*
X12918364Y-16080443D02*
X12918507Y-16074783D01*
X12918507Y-16086107D02*
X12918364Y-16080443D01*
X13028358Y-16190439D02*
X13022695Y-16190296D01*
X13116504Y-16146271D02*
X13113238Y-16150426D01*
X13119571Y-16141958D02*
X13116504Y-16146271D01*
X13089860Y-16171663D02*
X13085397Y-16174523D01*
X12920597Y-16102621D02*
X12919631Y-16097203D01*
X12946927Y-16154416D02*
X12943471Y-16150426D01*
X12962533Y-16168597D02*
X12958378Y-16165333D01*
X13022695Y-16190296D02*
X13017107Y-16189872D01*
X13006181Y-16188206D02*
X13000858Y-16186979D01*
X13066180Y-16183769D02*
X13061069Y-16185497D01*
X13017107Y-16189872D02*
X13011600Y-16189173D01*
X13050527Y-16188206D02*
X13045110Y-16189173D01*
X13055849Y-16186979D02*
X13050527Y-16188206D01*
X13061069Y-16185497D02*
X13055849Y-16186979D01*
X13122432Y-16137496D02*
X13119571Y-16141958D01*
X12923306Y-16113166D02*
X12921825Y-16107945D01*
X12975914Y-16177171D02*
X12971307Y-16174523D01*
X12925035Y-16118278D02*
X12923306Y-16113166D01*
X12937140Y-16141958D02*
X12934280Y-16137496D01*
X12958378Y-16165333D02*
X12954387Y-16161877D01*
X12971307Y-16174523D02*
X12966845Y-16171663D01*
X13039605Y-16189872D02*
X13034019Y-16190296D01*
X13102319Y-16161877D02*
X13098328Y-16165333D01*
X12980657Y-16179599D02*
X12975914Y-16177171D01*
X13098328Y-16165333D02*
X13094172Y-16168597D01*
X12995637Y-16185497D02*
X12990525Y-16183769D01*
X13071175Y-16181800D02*
X13066180Y-16183769D01*
X13125080Y-16132889D02*
X13122432Y-16137496D01*
X13080790Y-16177171D02*
X13076048Y-16179599D01*
X13000858Y-16186979D02*
X12995637Y-16185497D01*
X12927003Y-16037628D02*
X12929205Y-16032756D01*
X12925035Y-16042623D02*
X12927003Y-16037628D01*
X12923306Y-16047734D02*
X12925035Y-16042623D01*
X12931633Y-16132889D02*
X12929205Y-16128146D01*
X12934280Y-16137496D02*
X12931633Y-16132889D01*
X12943471Y-16150426D02*
X12940206Y-16146271D01*
X13034019Y-16190296D02*
X13028358Y-16190439D01*
X12921825Y-16052954D02*
X12923306Y-16047734D01*
X13094172Y-16168597D02*
X13089860Y-16171663D01*
X12920597Y-16058276D02*
X12921825Y-16052954D01*
X12919631Y-16063692D02*
X12920597Y-16058276D01*
X13011600Y-16189173D02*
X13006181Y-16188206D01*
X12950568Y-16158235D02*
X12946927Y-16154416D01*
X12929205Y-16128146D02*
X12927003Y-16123273D01*
X12940206Y-16146271D02*
X12937140Y-16141958D01*
X12985529Y-16181800D02*
X12980657Y-16179599D01*
X13085397Y-16174523D02*
X13080790Y-16177171D01*
X13109781Y-16154416D02*
X13106139Y-16158235D01*
X13045110Y-16189173D02*
X13039605Y-16189872D01*
X12921825Y-16107945D02*
X12920597Y-16102621D01*
X13076048Y-16179599D02*
X13071175Y-16181800D01*
X12954387Y-16161877D02*
X12950568Y-16158235D01*
X12918932Y-16069197D02*
X12919631Y-16063692D01*
X13113238Y-16150426D02*
X13109781Y-16154416D01*
X12966845Y-16171663D02*
X12962533Y-16168597D01*
X12918932Y-16091696D02*
X12918507Y-16086107D01*
X12927003Y-16123273D02*
X12925035Y-16118278D01*
X12919631Y-16097203D02*
X12918932Y-16091696D01*
X13106139Y-16158235D02*
X13102319Y-16161877D01*
X12990525Y-16183769D02*
X12985529Y-16181800D01*
X13127509Y-16128146D02*
X13125080Y-16132889D01*
X12918507Y-16074783D02*
X12918932Y-16069197D01*
X11893542Y-17641337D02*
X11898005Y-17638476D01*
X11885074Y-17647668D02*
X11889229Y-17644403D01*
X11870163Y-17662575D02*
X11873620Y-17658585D01*
X11866898Y-17798341D02*
X11863831Y-17794029D01*
X11877263Y-17810306D02*
X11873620Y-17806486D01*
X11893542Y-17823733D02*
X11889229Y-17820668D01*
X11902611Y-17829241D02*
X11898005Y-17826593D01*
X11873620Y-17806486D02*
X11870163Y-17802496D01*
X11885074Y-17817403D02*
X11881083Y-17813947D01*
X11907354Y-17633399D02*
X11912226Y-17631197D01*
X11853689Y-17775344D02*
X11851720Y-17770348D01*
X13134893Y-16107945D02*
X13133411Y-16113166D01*
X13137089Y-16097203D02*
X13136121Y-16102621D01*
X13137788Y-16091696D02*
X13137089Y-16097203D01*
X13138213Y-16086107D02*
X13137788Y-16091696D01*
X11889229Y-17644403D02*
X11893542Y-17641337D01*
X13138356Y-16080443D02*
X13138213Y-16086107D01*
X11927552Y-17626016D02*
X11932873Y-17624788D01*
X11917221Y-17629227D02*
X11922332Y-17627498D01*
X11848508Y-17705039D02*
X11849990Y-17699821D01*
X11860970Y-17789566D02*
X11858321Y-17784960D01*
X11938290Y-17623820D02*
X11943795Y-17623121D01*
X11849990Y-17699821D02*
X11851720Y-17694712D01*
X11889229Y-17820668D02*
X11885074Y-17817403D01*
X11845188Y-17738177D02*
X11845045Y-17732514D01*
X11863831Y-17671041D02*
X11866898Y-17666730D01*
X11845613Y-17721274D02*
X11846313Y-17715772D01*
X11847280Y-17710358D02*
X11848508Y-17705039D01*
X11870163Y-17802496D02*
X11866898Y-17798341D01*
X11949381Y-17622696D02*
X11955041Y-17622553D01*
X11851720Y-17770348D02*
X11849990Y-17765236D01*
X11898005Y-17826593D02*
X11893542Y-17823733D01*
X11846313Y-17715772D02*
X11847280Y-17710358D01*
X11932873Y-17624788D02*
X11938290Y-17623820D01*
X11881083Y-17813947D02*
X11877263Y-17810306D01*
X13136121Y-16102621D02*
X13134893Y-16107945D01*
X11902611Y-17635828D02*
X11907354Y-17633399D01*
X11898005Y-17638476D02*
X11902611Y-17635828D01*
X11881083Y-17651125D02*
X11885074Y-17647668D01*
X11845188Y-17726857D02*
X11845613Y-17721274D01*
X11855892Y-17684849D02*
X11858321Y-17680107D01*
X11877263Y-17654766D02*
X11881083Y-17651125D01*
X11845045Y-17732514D02*
X11845188Y-17726857D01*
X11848508Y-17760015D02*
X11847280Y-17754692D01*
X11855892Y-17780217D02*
X11853689Y-17775344D01*
X11858321Y-17680107D02*
X11860970Y-17675503D01*
X11858321Y-17784960D02*
X11855892Y-17780217D01*
X11851720Y-17694712D02*
X11853689Y-17689719D01*
X11847280Y-17754692D02*
X11846313Y-17749273D01*
X11845613Y-17743766D02*
X11845188Y-17738177D01*
X11863831Y-17794029D02*
X11860970Y-17789566D01*
X11912226Y-17631197D02*
X11917221Y-17629227D01*
X11846313Y-17749273D02*
X11845613Y-17743766D01*
X11907354Y-17831669D02*
X11902611Y-17829241D01*
X11849990Y-17765236D02*
X11848508Y-17760015D01*
X11866898Y-17666730D02*
X11870163Y-17662575D01*
X13129712Y-16123273D02*
X13127509Y-16128146D01*
X13131682Y-16118278D02*
X13129712Y-16123273D01*
X11943795Y-17623121D02*
X11949381Y-17622696D01*
X11860970Y-17675503D02*
X11863831Y-17671041D01*
X11873620Y-17658585D02*
X11877263Y-17654766D01*
X11922332Y-17627498D02*
X11927552Y-17626016D01*
X11853689Y-17689719D02*
X11855892Y-17684849D01*
X13133411Y-16113166D02*
X13131682Y-16118278D01*
X12058362Y-17770348D02*
X12056392Y-17775344D01*
X12028999Y-17813947D02*
X12025008Y-17817403D01*
X12043184Y-17798341D02*
X12039919Y-17802496D01*
X12002728Y-17633399D02*
X12007471Y-17635828D01*
X12062802Y-17754692D02*
X12061573Y-17760015D01*
X12064469Y-17743766D02*
X12063769Y-17749273D01*
X12065036Y-17732514D02*
X12064893Y-17738177D01*
X12064893Y-17726857D02*
X12065036Y-17732514D01*
X12060091Y-17699821D02*
X12061573Y-17705039D01*
X12007471Y-17635828D02*
X12012077Y-17638476D01*
X12063769Y-17715772D02*
X12064469Y-17721274D01*
X12056392Y-17775344D02*
X12054190Y-17780217D01*
X12012077Y-17638476D02*
X12016540Y-17641337D01*
X12051760Y-17680107D02*
X12054190Y-17684849D01*
X11927552Y-17839049D02*
X11922332Y-17837568D01*
X12020853Y-17644403D02*
X12025008Y-17647668D01*
X11982530Y-17839049D02*
X11977209Y-17840277D01*
X12064893Y-17738177D02*
X12064469Y-17743766D01*
X12043184Y-17666730D02*
X12046251Y-17671041D01*
X11949381Y-17842367D02*
X11943795Y-17841942D01*
X12060091Y-17765236D02*
X12058362Y-17770348D01*
X11955041Y-17842510D02*
X11949381Y-17842367D01*
X12025008Y-17817403D02*
X12020853Y-17820668D01*
X12049112Y-17789566D02*
X12046251Y-17794029D01*
X12046251Y-17671041D02*
X12049112Y-17675503D01*
X12051760Y-17784960D02*
X12049112Y-17789566D01*
X12039919Y-17662575D02*
X12043184Y-17666730D01*
X12054190Y-17684849D02*
X12056392Y-17689719D01*
X12062802Y-17710358D02*
X12063769Y-17715772D01*
X12012077Y-17826593D02*
X12007471Y-17829241D01*
X12028999Y-17651125D02*
X12032819Y-17654766D01*
X12025008Y-17647668D02*
X12028999Y-17651125D01*
X12036461Y-17806486D02*
X12032819Y-17810306D01*
X12020853Y-17820668D02*
X12016540Y-17823733D01*
X12039919Y-17802496D02*
X12036461Y-17806486D01*
X12054190Y-17780217D02*
X12051760Y-17784960D01*
X11912226Y-17833871D02*
X11907354Y-17831669D01*
X12061573Y-17705039D02*
X12062802Y-17710358D01*
X11917221Y-17835839D02*
X11912226Y-17833871D01*
X11922332Y-17837568D02*
X11917221Y-17835839D01*
X11943795Y-17841942D02*
X11938290Y-17841243D01*
X11932873Y-17840277D02*
X11927552Y-17839049D01*
X11997856Y-17833871D02*
X11992861Y-17835839D01*
X12016540Y-17641337D02*
X12020853Y-17644403D01*
X12058362Y-17694712D02*
X12060091Y-17699821D01*
X11938290Y-17841243D02*
X11932873Y-17840277D01*
X12002728Y-17831669D02*
X11997856Y-17833871D01*
X12036461Y-17658585D02*
X12039919Y-17662575D01*
X11960701Y-17842367D02*
X11955041Y-17842510D01*
X11966287Y-17841942D02*
X11960701Y-17842367D01*
X11971792Y-17841243D02*
X11966287Y-17841942D01*
X12046251Y-17794029D02*
X12043184Y-17798341D01*
X12061573Y-17760015D02*
X12060091Y-17765236D01*
X12056392Y-17689719D02*
X12058362Y-17694712D01*
X11977209Y-17840277D02*
X11971792Y-17841243D01*
X12007471Y-17829241D02*
X12002728Y-17831669D01*
X12049112Y-17675503D02*
X12051760Y-17680107D01*
X12032819Y-17810306D02*
X12028999Y-17813947D01*
X11987750Y-17837568D02*
X11982530Y-17839049D01*
X12064469Y-17721274D02*
X12064893Y-17726857D01*
X12063769Y-17749273D02*
X12062802Y-17754692D01*
X12032819Y-17654766D02*
X12036461Y-17658585D01*
X11992861Y-17835839D02*
X11987750Y-17837568D01*
X12016540Y-17823733D02*
X12012077Y-17826593D01*
X11955041Y-17622553D02*
X11960701Y-17622696D01*
X5295766Y-17027193D02*
X5299223Y-17023202D01*
X5274111Y-17069671D02*
X5275593Y-17064451D01*
X5271915Y-17113912D02*
X5271216Y-17108407D01*
X5274111Y-17124650D02*
X5272883Y-17119328D01*
X5283924Y-17044730D02*
X5286573Y-17040124D01*
X5277323Y-17059340D02*
X5279292Y-17054345D01*
X5281495Y-17144848D02*
X5279292Y-17139976D01*
X11966287Y-17623121D02*
X11971792Y-17623820D01*
X11960701Y-17622696D02*
X11966287Y-17623121D01*
X5275593Y-17064451D02*
X5277323Y-17059340D01*
X5363893Y-16988432D02*
X5369398Y-16987732D01*
X5347935Y-16992110D02*
X5353155Y-16990627D01*
X5332957Y-16998011D02*
X5337829Y-16995809D01*
X5292501Y-17031348D02*
X5295766Y-17027193D01*
X5272883Y-17119328D02*
X5271915Y-17113912D01*
X5319145Y-17005950D02*
X5323607Y-17003089D01*
X5369398Y-16987732D02*
X5374984Y-16987308D01*
X5272883Y-17074993D02*
X5274111Y-17069671D01*
X5271915Y-17080409D02*
X5272883Y-17074993D01*
X5310677Y-17182038D02*
X5306685Y-17178581D01*
X5342824Y-16993839D02*
X5347935Y-16992110D01*
X5314832Y-17009017D02*
X5319145Y-17005950D01*
X5306685Y-17178581D02*
X5302865Y-17174939D01*
X5337829Y-16995809D02*
X5342824Y-16993839D01*
X5270648Y-17097160D02*
X5270791Y-17091500D01*
X5323607Y-17191232D02*
X5319145Y-17188371D01*
X5286573Y-17154197D02*
X5283924Y-17149591D01*
X5314832Y-17185304D02*
X5310677Y-17182038D01*
X5328214Y-17000441D02*
X5332957Y-16998011D01*
X5323607Y-17003089D02*
X5328214Y-17000441D01*
X5310677Y-17012282D02*
X5314832Y-17009017D01*
X5319145Y-17188371D02*
X5314832Y-17185304D01*
X5306685Y-17015740D02*
X5310677Y-17012282D01*
X5302865Y-17019382D02*
X5306685Y-17015740D01*
X5289434Y-17035661D02*
X5292501Y-17031348D01*
X5279292Y-17054345D02*
X5281495Y-17049473D01*
X5270791Y-17102821D02*
X5270648Y-17097160D01*
X5286573Y-17040124D02*
X5289434Y-17035661D01*
X5328214Y-17193880D02*
X5323607Y-17191232D01*
X5295766Y-17167128D02*
X5292501Y-17162972D01*
X5271216Y-17085914D02*
X5271915Y-17080409D01*
X5271216Y-17108407D02*
X5270791Y-17102821D01*
X5277323Y-17134980D02*
X5275593Y-17129870D01*
X5332957Y-17196310D02*
X5328214Y-17193880D01*
X5275593Y-17129870D02*
X5274111Y-17124650D01*
X5292501Y-17162972D02*
X5289434Y-17158660D01*
X5302865Y-17174939D02*
X5299223Y-17171119D01*
X5281495Y-17049473D02*
X5283924Y-17044730D01*
X11997856Y-17631197D02*
X12002728Y-17633399D01*
X5353155Y-16990627D02*
X5358476Y-16989399D01*
X11992861Y-17629227D02*
X11997856Y-17631197D01*
X11987750Y-17627498D02*
X11992861Y-17629227D01*
X5270791Y-17091500D02*
X5271216Y-17085914D01*
X11977209Y-17624788D02*
X11982530Y-17626016D01*
X5283924Y-17149591D02*
X5281495Y-17144848D01*
X5358476Y-16989399D02*
X5363893Y-16988432D01*
X5299223Y-17023202D02*
X5302865Y-17019382D01*
X5374984Y-16987308D02*
X5380644Y-16987164D01*
X5289434Y-17158660D02*
X5286573Y-17154197D01*
X5279292Y-17139976D02*
X5277323Y-17134980D01*
X11982530Y-17626016D02*
X11987750Y-17627498D01*
X5299223Y-17171119D02*
X5295766Y-17167128D01*
X11971792Y-17623820D02*
X11977209Y-17624788D01*
X5488405Y-17119328D02*
X5487177Y-17124650D01*
X5490497Y-17091500D02*
X5490640Y-17097160D01*
X5477364Y-17149591D02*
X5474715Y-17154197D01*
X5413353Y-17202211D02*
X5408133Y-17203693D01*
X5454603Y-17178581D02*
X5450611Y-17182038D01*
X5418464Y-17200482D02*
X5413353Y-17202211D01*
X5446456Y-17185304D02*
X5442143Y-17188371D01*
X5490497Y-17102821D02*
X5490072Y-17108407D01*
X5488405Y-17074993D02*
X5489373Y-17080409D01*
X5479793Y-17049473D02*
X5481996Y-17054345D01*
X5485695Y-17064451D02*
X5487177Y-17069671D01*
X5489373Y-17080409D02*
X5490072Y-17085914D01*
X5487177Y-17124650D02*
X5485695Y-17129870D01*
X5468787Y-17031348D02*
X5471854Y-17035661D01*
X5408133Y-17203693D02*
X5402812Y-17204922D01*
X5433074Y-17000441D02*
X5437681Y-17003089D01*
X5433074Y-17193880D02*
X5428331Y-17196310D01*
X5423459Y-17198512D02*
X5418464Y-17200482D01*
X5458423Y-17019382D02*
X5462065Y-17023202D01*
X5437681Y-17191232D02*
X5433074Y-17193880D01*
X5489373Y-17113912D02*
X5488405Y-17119328D01*
X5450611Y-17182038D02*
X5446456Y-17185304D01*
X5462065Y-17171119D02*
X5458423Y-17174939D01*
X5481996Y-17139976D02*
X5479793Y-17144848D01*
X5462065Y-17023202D02*
X5465522Y-17027193D01*
X5483965Y-17134980D02*
X5481996Y-17139976D01*
X5454603Y-17015740D02*
X5458423Y-17019382D01*
X5471854Y-17035661D02*
X5474715Y-17040124D01*
X5483965Y-17059340D02*
X5485695Y-17064451D01*
X5471854Y-17158660D02*
X5468787Y-17162972D01*
X5442143Y-17005950D02*
X5446456Y-17009017D01*
X5437681Y-17003089D02*
X5442143Y-17005950D01*
X5490072Y-17085914D02*
X5490497Y-17091500D01*
X5458423Y-17174939D02*
X5454603Y-17178581D01*
X5474715Y-17154197D02*
X5471854Y-17158660D01*
X5485695Y-17129870D02*
X5483965Y-17134980D01*
X5337829Y-17198512D02*
X5332957Y-17196310D01*
X5481996Y-17054345D02*
X5483965Y-17059340D01*
X5342824Y-17200482D02*
X5337829Y-17198512D01*
X5347935Y-17202211D02*
X5342824Y-17200482D01*
X5380644Y-17207156D02*
X5374984Y-17207013D01*
X5353155Y-17203693D02*
X5347935Y-17202211D01*
X5428331Y-17196310D02*
X5423459Y-17198512D01*
X5428331Y-16998011D02*
X5433074Y-17000441D01*
X5477364Y-17044730D02*
X5479793Y-17049473D01*
X5358476Y-17204922D02*
X5353155Y-17203693D01*
X5386304Y-17207013D02*
X5380644Y-17207156D01*
X5450611Y-17012282D02*
X5454603Y-17015740D01*
X5363893Y-17205889D02*
X5358476Y-17204922D01*
X5369398Y-17206589D02*
X5363893Y-17205889D01*
X5397395Y-17205889D02*
X5391890Y-17206589D01*
X5479793Y-17144848D02*
X5477364Y-17149591D01*
X5490072Y-17108407D02*
X5489373Y-17113912D01*
X5474715Y-17040124D02*
X5477364Y-17044730D01*
X5374984Y-17207013D02*
X5369398Y-17206589D01*
X5391890Y-17206589D02*
X5386304Y-17207013D01*
X5465522Y-17027193D02*
X5468787Y-17031348D01*
X5468787Y-17162972D02*
X5465522Y-17167128D01*
X5402812Y-17204922D02*
X5397395Y-17205889D01*
X5487177Y-17069671D02*
X5488405Y-17074993D01*
X5490640Y-17097160D02*
X5490497Y-17102821D01*
X5446456Y-17009017D02*
X5450611Y-17012282D01*
X5442143Y-17188371D02*
X5437681Y-17191232D01*
X5465522Y-17167128D02*
X5462065Y-17171119D01*
X10568791Y-12873093D02*
X10574377Y-12872668D01*
X10485966Y-12925485D02*
X10488827Y-12921022D01*
X10470609Y-12971275D02*
X10471309Y-12965770D01*
X10474987Y-13015243D02*
X10473504Y-13010022D01*
X10478686Y-13025351D02*
X10476716Y-13020355D01*
X10476716Y-12944701D02*
X10478686Y-12939706D01*
X10472276Y-12960353D02*
X10473504Y-12955032D01*
X10488827Y-13044036D02*
X10485966Y-13039573D01*
X5402812Y-16989399D02*
X5408133Y-16990627D01*
X10471309Y-12999280D02*
X10470609Y-12993773D01*
X10471309Y-12965770D02*
X10472276Y-12960353D01*
X10547328Y-12877470D02*
X10552548Y-12875988D01*
X10532350Y-12883372D02*
X10537222Y-12881169D01*
X10518538Y-12891311D02*
X10523001Y-12888450D01*
X10483318Y-12930091D02*
X10485966Y-12925485D01*
X10476716Y-13020355D02*
X10474987Y-13015243D01*
X10506079Y-12901100D02*
X10510070Y-12897643D01*
X10470185Y-12976861D02*
X10470609Y-12971275D01*
X10470041Y-12982521D02*
X10470185Y-12976861D01*
X10470185Y-12988185D02*
X10470041Y-12982521D01*
X10523001Y-13076601D02*
X10518538Y-13073741D01*
X5397395Y-16988432D02*
X5402812Y-16989399D01*
X10502259Y-12904742D02*
X10506079Y-12901100D01*
X10518538Y-13073741D02*
X10514225Y-13070675D01*
X10552548Y-12875988D02*
X10557869Y-12874760D01*
X5380644Y-16987164D02*
X5386304Y-16987308D01*
X10574377Y-12872668D02*
X10580037Y-12872525D01*
X10495159Y-13052503D02*
X10491894Y-13048348D01*
X10527607Y-13079248D02*
X10523001Y-13076601D01*
X10563286Y-12873792D02*
X10568791Y-12873093D01*
X10527607Y-12885801D02*
X10532350Y-12883372D01*
X10523001Y-12888450D02*
X10527607Y-12885801D01*
X10532350Y-13081676D02*
X10527607Y-13079248D01*
X10514225Y-12894378D02*
X10518538Y-12891311D01*
X10498617Y-12908563D02*
X10502259Y-12904742D01*
X10495159Y-12912554D02*
X10498617Y-12908563D01*
X10473504Y-12955032D02*
X10474987Y-12949812D01*
X10472276Y-13004699D02*
X10471309Y-12999280D01*
X10480888Y-12934834D02*
X10483318Y-12930091D01*
X10510070Y-12897643D02*
X10514225Y-12894378D01*
X10506079Y-13063954D02*
X10502259Y-13060313D01*
X10491894Y-12916709D02*
X10495159Y-12912554D01*
X10478686Y-12939706D02*
X10480888Y-12934834D01*
X10473504Y-13010022D02*
X10472276Y-13004699D01*
X10483318Y-13034967D02*
X10480888Y-13030224D01*
X10480888Y-13030224D02*
X10478686Y-13025351D01*
X10502259Y-13060313D02*
X10498617Y-13056494D01*
X10514225Y-13070675D02*
X10510070Y-13067411D01*
X10474987Y-12949812D02*
X10476716Y-12944701D01*
X5423459Y-16995809D02*
X5428331Y-16998011D01*
X10537222Y-12881169D02*
X10542217Y-12879200D01*
X5418464Y-16993839D02*
X5423459Y-16995809D01*
X5413353Y-16992110D02*
X5418464Y-16993839D01*
X5386304Y-16987308D02*
X5391890Y-16987732D01*
X10470609Y-12993773D02*
X10470185Y-12988185D01*
X10491894Y-13048348D02*
X10488827Y-13044036D01*
X10542217Y-12879200D02*
X10547328Y-12877470D01*
X10488827Y-12921022D02*
X10491894Y-12916709D01*
X10557869Y-12874760D02*
X10563286Y-12873792D01*
X10498617Y-13056494D02*
X10495159Y-13052503D01*
X10485966Y-13039573D02*
X10483318Y-13034967D01*
X5408133Y-16990627D02*
X5413353Y-16992110D01*
X10510070Y-13067411D02*
X10506079Y-13063954D01*
X5391890Y-16987732D02*
X5397395Y-16988432D01*
X14414507Y-17026623D02*
X14410044Y-17023762D01*
X14362114Y-16943799D02*
X14361689Y-16938213D01*
X14366492Y-16965261D02*
X14365009Y-16960042D01*
X14366492Y-16899830D02*
X14368221Y-16894718D01*
X14393765Y-17010331D02*
X14390122Y-17006511D01*
X14362814Y-16915793D02*
X14363781Y-16910375D01*
X14363781Y-16910375D02*
X14365009Y-16905051D01*
X14361689Y-16926889D02*
X14362114Y-16921300D01*
X14390122Y-17006511D02*
X14386665Y-17002519D01*
X14523975Y-16835825D02*
X14528581Y-16838472D01*
X14377471Y-16875500D02*
X14380333Y-16871037D01*
X14504253Y-16827498D02*
X14509364Y-16829227D01*
X14465884Y-16822699D02*
X14471544Y-16822556D01*
X14377471Y-16989589D02*
X14374823Y-16984982D01*
X14460298Y-16823123D02*
X14465884Y-16822699D01*
X14454793Y-16823822D02*
X14460298Y-16823123D01*
X14449376Y-16824789D02*
X14454793Y-16823822D01*
X14444054Y-16826017D02*
X14449376Y-16824789D01*
X14405731Y-16844398D02*
X14410044Y-16841332D01*
X14370191Y-16889722D02*
X14372394Y-16884849D01*
X14383399Y-16998364D02*
X14380333Y-16994052D01*
X14428729Y-16831195D02*
X14433724Y-16829227D01*
X14410044Y-16841332D02*
X14414507Y-16838472D01*
X14361546Y-16932553D02*
X14361689Y-16926889D01*
X14401576Y-16847663D02*
X14405731Y-16844398D01*
X14365009Y-16905051D02*
X14366492Y-16899830D01*
X14361689Y-16938213D02*
X14361546Y-16932553D01*
X14370191Y-16975367D02*
X14368221Y-16970372D01*
X14372394Y-16980240D02*
X14370191Y-16975367D01*
X14401576Y-17017430D02*
X14397585Y-17013973D01*
X14380333Y-16871037D02*
X14383399Y-16866725D01*
X14519232Y-16833397D02*
X14523975Y-16835825D01*
X14363781Y-16954720D02*
X14362814Y-16949304D01*
X14362114Y-16921300D02*
X14362814Y-16915793D01*
X14365009Y-16960042D02*
X14363781Y-16954720D01*
X14374823Y-16984982D02*
X14372394Y-16980240D01*
X14514359Y-16831195D02*
X14519232Y-16833397D01*
X14493712Y-16824789D02*
X14499033Y-16826017D01*
X14405731Y-17020695D02*
X14401576Y-17017430D01*
X14414507Y-16838472D02*
X14419113Y-16835825D01*
X14488295Y-16823822D02*
X14493712Y-16824789D01*
X14438835Y-16827498D02*
X14444054Y-16826017D01*
X14386665Y-16862570D02*
X14390122Y-16858580D01*
X14374823Y-16880106D02*
X14377471Y-16875500D01*
X14410044Y-17023762D02*
X14405731Y-17020695D01*
X14419113Y-16835825D02*
X14423856Y-16833397D01*
X14372394Y-16884849D02*
X14374823Y-16880106D01*
X14433724Y-16829227D02*
X14438835Y-16827498D01*
X14390122Y-16858580D02*
X14393765Y-16854760D01*
X14397585Y-16851119D02*
X14401576Y-16847663D01*
X14368221Y-16894718D02*
X14370191Y-16889722D01*
X14368221Y-16970372D02*
X14366492Y-16965261D01*
X14393765Y-16854760D02*
X14397585Y-16851119D01*
X14386665Y-17002519D02*
X14383399Y-16998364D01*
X14383399Y-16866725D02*
X14386665Y-16862570D01*
X14471544Y-16822556D02*
X14477204Y-16822699D01*
X14423856Y-16833397D02*
X14428729Y-16831195D01*
X14362814Y-16949304D02*
X14362114Y-16943799D01*
X14509364Y-16829227D02*
X14514359Y-16831195D01*
X14397585Y-17013973D02*
X14393765Y-17010331D01*
X14482790Y-16823123D02*
X14488295Y-16823822D01*
X14499033Y-16826017D02*
X14504253Y-16827498D01*
X14477204Y-16822699D02*
X14482790Y-16823123D01*
X14380333Y-16994052D02*
X14377471Y-16989589D01*
X2942216Y-13254198D02*
X2947327Y-13252468D01*
X2883316Y-13305089D02*
X2885965Y-13300483D01*
X2878684Y-13314704D02*
X2880887Y-13309832D01*
X2876715Y-13319699D02*
X2878684Y-13314704D01*
X2871308Y-13340768D02*
X2872275Y-13335351D01*
X2873503Y-13330030D02*
X2874986Y-13324810D01*
X2898616Y-13283561D02*
X2902258Y-13279741D01*
X10596788Y-12873792D02*
X10602205Y-12874760D01*
X10591283Y-12873093D02*
X10596788Y-12873792D01*
X10585697Y-12872668D02*
X10591283Y-12873093D01*
X2974376Y-13247666D02*
X2980036Y-13247523D01*
X2932349Y-13258370D02*
X2937221Y-13256167D01*
X2888826Y-13296020D02*
X2891893Y-13291707D01*
X2927606Y-13260799D02*
X2932349Y-13258370D01*
X2872275Y-13335351D02*
X2873503Y-13330030D01*
X2957869Y-13249758D02*
X2963285Y-13248791D01*
X10580037Y-12872525D02*
X10585697Y-12872668D01*
X2880887Y-13309832D02*
X2883316Y-13305089D01*
X2902258Y-13279741D02*
X2906078Y-13276098D01*
X2870608Y-13346273D02*
X2871308Y-13340768D01*
X10607526Y-12875988D02*
X10612746Y-12877470D01*
X2874986Y-13324810D02*
X2876715Y-13319699D01*
X2968790Y-13248091D02*
X2974376Y-13247666D01*
X2963285Y-13248791D02*
X2968790Y-13248091D01*
X2952547Y-13250986D02*
X2957869Y-13249758D01*
X2937221Y-13256167D02*
X2942216Y-13254198D01*
X2910069Y-13272641D02*
X2914224Y-13269376D01*
X2895158Y-13287552D02*
X2898616Y-13283561D01*
X2891893Y-13291707D02*
X2895158Y-13287552D01*
X2914224Y-13269376D02*
X2918537Y-13266309D01*
X2923000Y-13263448D02*
X2927606Y-13260799D01*
X2885965Y-13300483D02*
X2888826Y-13296020D01*
X2918537Y-13266309D02*
X2923000Y-13263448D01*
X2906078Y-13276098D02*
X2910069Y-13272641D01*
X10622852Y-12881169D02*
X10627724Y-12883372D01*
X10617857Y-12879200D02*
X10622852Y-12881169D01*
X10612746Y-12877470D02*
X10617857Y-12879200D01*
X10602205Y-12874760D02*
X10607526Y-12875988D01*
X2947327Y-13252468D02*
X2952547Y-13250986D01*
X3081388Y-13400334D02*
X3079186Y-13405207D01*
X3086569Y-13385009D02*
X3085087Y-13390228D01*
X2898616Y-13431478D02*
X2895158Y-13427487D01*
X2996788Y-13466248D02*
X2991283Y-13466947D01*
X3012746Y-13462570D02*
X3007526Y-13464052D01*
X3032467Y-13454239D02*
X3027724Y-13456668D01*
X3041536Y-13448729D02*
X3037073Y-13451591D01*
X3007526Y-13464052D02*
X3002204Y-13465280D01*
X3022852Y-13458871D02*
X3017856Y-13460841D01*
X2902258Y-13435298D02*
X2898616Y-13431478D01*
X3089465Y-13368766D02*
X3088765Y-13374270D01*
X3088765Y-13374270D02*
X3087798Y-13379687D01*
X2880887Y-13405207D02*
X2878684Y-13400334D01*
X2895158Y-13427487D02*
X2891893Y-13423331D01*
X2932349Y-13456668D02*
X2927606Y-13454239D01*
X2991283Y-13466947D02*
X2985697Y-13467372D01*
X2937221Y-13458871D02*
X2932349Y-13456668D01*
X2952547Y-13464052D02*
X2947327Y-13462570D01*
X3050004Y-13442397D02*
X3045848Y-13445663D01*
X3057815Y-13435298D02*
X3053995Y-13438940D01*
X2968790Y-13466947D02*
X2963285Y-13466248D01*
X3085087Y-13390228D02*
X3083358Y-13395339D01*
X3061457Y-13431478D02*
X3057815Y-13435298D01*
X3027724Y-13456668D02*
X3022852Y-13458871D01*
X3076756Y-13409949D02*
X3074108Y-13414556D01*
X2873503Y-13385009D02*
X2872275Y-13379687D01*
X2918537Y-13448729D02*
X2914224Y-13445663D01*
X2927606Y-13454239D02*
X2923000Y-13451591D01*
X3002204Y-13465280D02*
X2996788Y-13466248D01*
X2923000Y-13451591D02*
X2918537Y-13448729D01*
X2985697Y-13467372D02*
X2980036Y-13467515D01*
X3037073Y-13451591D02*
X3032467Y-13454239D01*
X3087798Y-13379687D02*
X3086569Y-13385009D01*
X3074108Y-13414556D02*
X3071247Y-13419019D01*
X3017856Y-13460841D02*
X3012746Y-13462570D01*
X2874986Y-13390228D02*
X2873503Y-13385009D01*
X2870183Y-13351859D02*
X2870608Y-13346273D01*
X2870040Y-13357519D02*
X2870183Y-13351859D01*
X2870183Y-13363179D02*
X2870040Y-13357519D01*
X2870608Y-13368766D02*
X2870183Y-13363179D01*
X3071247Y-13419019D02*
X3068180Y-13423331D01*
X2942216Y-13460841D02*
X2937221Y-13458871D01*
X2906078Y-13438940D02*
X2902258Y-13435298D01*
X2871308Y-13374270D02*
X2870608Y-13368766D01*
X2872275Y-13379687D02*
X2871308Y-13374270D01*
X2876715Y-13395339D02*
X2874986Y-13390228D01*
X2910069Y-13442397D02*
X2906078Y-13438940D01*
X3053995Y-13438940D02*
X3050004Y-13442397D01*
X2878684Y-13400334D02*
X2876715Y-13395339D01*
X2883316Y-13409949D02*
X2880887Y-13405207D01*
X2947327Y-13462570D02*
X2942216Y-13460841D01*
X3083358Y-13395339D02*
X3081388Y-13400334D01*
X2957869Y-13465280D02*
X2952547Y-13464052D01*
X3045848Y-13445663D02*
X3041536Y-13448729D01*
X3064914Y-13427487D02*
X3061457Y-13431478D01*
X2914224Y-13445663D02*
X2910069Y-13442397D01*
X3079186Y-13405207D02*
X3076756Y-13409949D01*
X2974376Y-13467372D02*
X2968790Y-13466947D01*
X3068180Y-13423331D02*
X3064914Y-13427487D01*
X2980036Y-13467515D02*
X2974376Y-13467372D01*
X2885965Y-13414556D02*
X2883316Y-13409949D01*
X2888826Y-13419019D02*
X2885965Y-13414556D01*
X2963285Y-13466248D02*
X2957869Y-13465280D01*
X2891893Y-13423331D02*
X2888826Y-13419019D01*
X2923000Y-15138441D02*
X2927606Y-15135793D01*
X3086569Y-13330030D02*
X3087798Y-13335351D01*
X3081388Y-13314704D02*
X3083358Y-13319699D01*
X2947327Y-15127462D02*
X2952547Y-15125980D01*
X2942216Y-15129191D02*
X2947327Y-15127462D01*
X2980036Y-13247523D02*
X2985697Y-13247666D01*
X2888826Y-15171013D02*
X2891893Y-15166701D01*
X3074108Y-13300483D02*
X3076756Y-13305089D01*
X3064914Y-13287552D02*
X3068180Y-13291707D01*
X2871308Y-15215762D02*
X2872275Y-15210345D01*
X3057815Y-13279741D02*
X3061457Y-13283561D01*
X3007526Y-13250986D02*
X3012746Y-13252468D01*
X3022852Y-13256167D02*
X3027724Y-13258370D01*
X3017856Y-13254198D02*
X3022852Y-13256167D01*
X2902258Y-15154734D02*
X2906078Y-15151092D01*
X3012746Y-13252468D02*
X3017856Y-13254198D01*
X2937221Y-15131161D02*
X2942216Y-15129191D01*
X2876715Y-15194693D02*
X2878684Y-15189698D01*
X2891893Y-15166701D02*
X2895158Y-15162545D01*
X2873503Y-15205023D02*
X2874986Y-15199804D01*
X3053995Y-13276098D02*
X3057815Y-13279741D01*
X3032467Y-13260799D02*
X3037073Y-13263448D01*
X3002204Y-13249758D02*
X3007526Y-13250986D01*
X2898616Y-15158554D02*
X2902258Y-15154734D01*
X2968790Y-15123085D02*
X2974376Y-15122660D01*
X2974376Y-15122660D02*
X2980036Y-15122517D01*
X2910069Y-15147635D02*
X2914224Y-15144369D01*
X2880887Y-15184825D02*
X2883316Y-15180082D01*
X2932349Y-15133364D02*
X2937221Y-15131161D01*
X2918537Y-15141302D02*
X2923000Y-15138441D01*
X2991283Y-13248091D02*
X2996788Y-13248791D01*
X3089465Y-13346273D02*
X3089889Y-13351859D01*
X2895158Y-15162545D02*
X2898616Y-15158554D01*
X2878684Y-15189698D02*
X2880887Y-15184825D01*
X2885965Y-15175476D02*
X2888826Y-15171013D01*
X3041536Y-13266309D02*
X3045848Y-13269376D01*
X2906078Y-15151092D02*
X2910069Y-15147635D01*
X2870608Y-15221266D02*
X2871308Y-15215762D01*
X3037073Y-13263448D02*
X3041536Y-13266309D01*
X3089889Y-13363179D02*
X3089465Y-13368766D01*
X3090032Y-13357519D02*
X3089889Y-13363179D01*
X3085087Y-13324810D02*
X3086569Y-13330030D01*
X3089889Y-13351859D02*
X3090032Y-13357519D01*
X3088765Y-13340768D02*
X3089465Y-13346273D01*
X2914224Y-15144369D02*
X2918537Y-15141302D01*
X3083358Y-13319699D02*
X3085087Y-13324810D01*
X3079186Y-13309832D02*
X3081388Y-13314704D01*
X3045848Y-13269376D02*
X3050004Y-13272641D01*
X2985697Y-13247666D02*
X2991283Y-13248091D01*
X2957869Y-15124751D02*
X2963285Y-15123784D01*
X3027724Y-13258370D02*
X3032467Y-13260799D01*
X3061457Y-13283561D02*
X3064914Y-13287552D01*
X2996788Y-13248791D02*
X3002204Y-13249758D01*
X3076756Y-13305089D02*
X3079186Y-13309832D01*
X2952547Y-15125980D02*
X2957869Y-15124751D01*
X2872275Y-15210345D02*
X2873503Y-15205023D01*
X3071247Y-13296020D02*
X3074108Y-13300483D01*
X3050004Y-13272641D02*
X3053995Y-13276098D01*
X2883316Y-15180082D02*
X2885965Y-15175476D01*
X3068180Y-13291707D02*
X3071247Y-13296020D01*
X2963285Y-15123784D02*
X2968790Y-15123085D01*
X2927606Y-15135793D02*
X2932349Y-15133364D01*
X2874986Y-15199804D02*
X2876715Y-15194693D01*
X3087798Y-13335351D02*
X3088765Y-13340768D01*
X3076756Y-15284943D02*
X3074108Y-15289550D01*
X3041536Y-15323723D02*
X3037073Y-15326584D01*
X3057815Y-15310292D02*
X3053995Y-15313934D01*
X2910069Y-15317391D02*
X2906078Y-15313934D01*
X3027724Y-15331662D02*
X3022852Y-15333865D01*
X3017856Y-15335834D02*
X3012746Y-15337564D01*
X3086569Y-15260002D02*
X3085087Y-15265222D01*
X2957869Y-15340274D02*
X2952547Y-15339046D01*
X3083358Y-15270333D02*
X3081388Y-15275328D01*
X3088765Y-15249264D02*
X3087798Y-15254681D01*
X3089465Y-15243759D02*
X3088765Y-15249264D01*
X2880887Y-15280200D02*
X2878684Y-15275328D01*
X2885965Y-15289550D02*
X2883316Y-15284943D01*
X3074108Y-15289550D02*
X3071247Y-15294012D01*
X2918537Y-15323723D02*
X2914224Y-15320657D01*
X2991283Y-15341941D02*
X2985697Y-15342366D01*
X3002204Y-15340274D02*
X2996788Y-15341242D01*
X3087798Y-15254681D02*
X3086569Y-15260002D01*
X2974376Y-15342366D02*
X2968790Y-15341941D01*
X3007526Y-15339046D02*
X3002204Y-15340274D01*
X3079186Y-15280200D02*
X3076756Y-15284943D01*
X2878684Y-15275328D02*
X2876715Y-15270333D01*
X2883316Y-15284943D02*
X2880887Y-15280200D01*
X2888826Y-15294012D02*
X2885965Y-15289550D01*
X2923000Y-15326584D02*
X2918537Y-15323723D01*
X2898616Y-15306472D02*
X2895158Y-15302480D01*
X3037073Y-15326584D02*
X3032467Y-15329233D01*
X3064914Y-15302480D02*
X3061457Y-15306472D01*
X3068180Y-15298325D02*
X3064914Y-15302480D01*
X2874986Y-15265222D02*
X2873503Y-15260002D01*
X2952547Y-15339046D02*
X2947327Y-15337564D01*
X3022852Y-15333865D02*
X3017856Y-15335834D01*
X3050004Y-15317391D02*
X3045848Y-15320657D01*
X3032467Y-15329233D02*
X3027724Y-15331662D01*
X3053995Y-15313934D02*
X3050004Y-15317391D01*
X3071247Y-15294012D02*
X3068180Y-15298325D01*
X2870183Y-15226852D02*
X2870608Y-15221266D01*
X2872275Y-15254681D02*
X2871308Y-15249264D01*
X2873503Y-15260002D02*
X2872275Y-15254681D01*
X2891893Y-15298325D02*
X2888826Y-15294012D01*
X2895158Y-15302480D02*
X2891893Y-15298325D01*
X2985697Y-15342366D02*
X2980036Y-15342509D01*
X2996788Y-15341242D02*
X2991283Y-15341941D01*
X2942216Y-15335834D02*
X2937221Y-15333865D01*
X2963285Y-15341242D02*
X2957869Y-15340274D01*
X2914224Y-15320657D02*
X2910069Y-15317391D01*
X2968790Y-15341941D02*
X2963285Y-15341242D01*
X2902258Y-15310292D02*
X2898616Y-15306472D01*
X2937221Y-15333865D02*
X2932349Y-15331662D01*
X2927606Y-15329233D02*
X2923000Y-15326584D01*
X2980036Y-15342509D02*
X2974376Y-15342366D01*
X3061457Y-15306472D02*
X3057815Y-15310292D01*
X2932349Y-15331662D02*
X2927606Y-15329233D01*
X3081388Y-15275328D02*
X3079186Y-15280200D01*
X2947327Y-15337564D02*
X2942216Y-15335834D01*
X2870040Y-15232513D02*
X2870183Y-15226852D01*
X2871308Y-15249264D02*
X2870608Y-15243759D01*
X3045848Y-15320657D02*
X3041536Y-15323723D01*
X2870183Y-15238173D02*
X2870040Y-15232513D01*
X2870608Y-15243759D02*
X2870183Y-15238173D01*
X2876715Y-15270333D02*
X2874986Y-15265222D01*
X3085087Y-15265222D02*
X3083358Y-15270333D01*
X2906078Y-15313934D02*
X2902258Y-15310292D01*
X3012746Y-15337564D02*
X3007526Y-15339046D01*
X2996788Y-15123784D02*
X3002204Y-15124751D01*
X3041536Y-15141302D02*
X3045848Y-15144369D01*
X3022852Y-15131161D02*
X3027724Y-15133364D01*
X3050004Y-15147635D02*
X3053995Y-15151092D01*
X3037073Y-15138441D02*
X3041536Y-15141302D01*
X3045848Y-15144369D02*
X3050004Y-15147635D01*
X3032467Y-15135793D02*
X3037073Y-15138441D01*
X3089465Y-15221266D02*
X3089889Y-15226852D01*
X3076756Y-15180082D02*
X3079186Y-15184825D01*
X3087798Y-15210345D02*
X3088765Y-15215762D01*
X3079186Y-15184825D02*
X3081388Y-15189698D01*
X2980036Y-15122517D02*
X2985697Y-15122660D01*
X3085087Y-15199804D02*
X3086569Y-15205023D01*
X3074108Y-15175476D02*
X3076756Y-15180082D01*
X3071247Y-15171013D02*
X3074108Y-15175476D01*
X3012746Y-15127462D02*
X3017856Y-15129191D01*
X3064914Y-15162545D02*
X3068180Y-15166701D01*
X3061457Y-15158554D02*
X3064914Y-15162545D01*
X3053995Y-15151092D02*
X3057815Y-15154734D01*
X3007526Y-15125980D02*
X3012746Y-15127462D01*
X2991283Y-15123085D02*
X2996788Y-15123784D01*
X3027724Y-15133364D02*
X3032467Y-15135793D01*
X3002204Y-15124751D02*
X3007526Y-15125980D01*
X3089889Y-15238173D02*
X3089465Y-15243759D01*
X3090032Y-15232513D02*
X3089889Y-15238173D01*
X3086569Y-15205023D02*
X3087798Y-15210345D01*
X3089889Y-15226852D02*
X3090032Y-15232513D01*
X3081388Y-15189698D02*
X3083358Y-15194693D01*
X3088765Y-15215762D02*
X3089465Y-15221266D01*
X3017856Y-15129191D02*
X3022852Y-15131161D01*
X2985697Y-15122660D02*
X2991283Y-15123085D01*
X3068180Y-15166701D02*
X3071247Y-15171013D01*
X3083358Y-15194693D02*
X3085087Y-15199804D01*
X3057815Y-15154734D02*
X3061457Y-15158554D01*
X10687798Y-13004699D02*
X10686570Y-13010022D01*
X10688765Y-12999280D02*
X10687798Y-13004699D01*
X10668180Y-12916709D02*
X10671247Y-12921022D01*
X10687798Y-12960353D02*
X10688765Y-12965770D01*
X10681389Y-12939706D02*
X10683358Y-12944701D01*
X10645849Y-12894378D02*
X10650004Y-12897643D01*
X10547328Y-13087575D02*
X10542217Y-13085847D01*
X10674108Y-12925485D02*
X10676757Y-12930091D01*
X10596788Y-13091251D02*
X10591283Y-13091950D01*
X10607526Y-13089056D02*
X10602205Y-13090284D01*
X10671247Y-12921022D02*
X10674108Y-12925485D01*
X10657815Y-13060313D02*
X10653995Y-13063954D01*
X10645849Y-13070675D02*
X10641536Y-13073741D01*
X10650004Y-13067411D02*
X10645849Y-13070675D01*
X10686570Y-12955032D02*
X10687798Y-12960353D01*
X10653995Y-13063954D02*
X10650004Y-13067411D01*
X10689465Y-12993773D02*
X10688765Y-12999280D01*
X10552548Y-13089056D02*
X10547328Y-13087575D01*
X10612746Y-13087575D02*
X10607526Y-13089056D01*
X10664915Y-12912554D02*
X10668180Y-12916709D01*
X10661458Y-12908563D02*
X10664915Y-12912554D01*
X10637073Y-13076601D02*
X10632467Y-13079248D01*
X10641536Y-12891311D02*
X10645849Y-12894378D01*
X10661458Y-13056494D02*
X10657815Y-13060313D01*
X10681389Y-13025351D02*
X10679186Y-13030224D01*
X10632467Y-12885801D02*
X10637073Y-12888450D01*
X10679186Y-13030224D02*
X10676757Y-13034967D01*
X10650004Y-12897643D02*
X10653995Y-12901100D01*
X10627724Y-12883372D02*
X10632467Y-12885801D01*
X10689890Y-12988185D02*
X10689465Y-12993773D01*
X10668180Y-13048348D02*
X10664915Y-13052503D01*
X10557869Y-13090284D02*
X10552548Y-13089056D01*
X10568791Y-13091950D02*
X10563286Y-13091251D01*
X10574377Y-13092374D02*
X10568791Y-13091950D01*
X10627724Y-13081676D02*
X10622852Y-13083878D01*
X10689890Y-12976861D02*
X10690033Y-12982521D01*
X10632467Y-13079248D02*
X10627724Y-13081676D01*
X10676757Y-12930091D02*
X10679186Y-12934834D01*
X10685088Y-12949812D02*
X10686570Y-12955032D01*
X10591283Y-13091950D02*
X10585697Y-13092374D01*
X10676757Y-13034967D02*
X10674108Y-13039573D01*
X10602205Y-13090284D02*
X10596788Y-13091251D01*
X10622852Y-13083878D02*
X10617857Y-13085847D01*
X10671247Y-13044036D02*
X10668180Y-13048348D01*
X10689465Y-12971275D02*
X10689890Y-12976861D01*
X10683358Y-12944701D02*
X10685088Y-12949812D01*
X10657815Y-12904742D02*
X10661458Y-12908563D01*
X10679186Y-12934834D02*
X10681389Y-12939706D01*
X10637073Y-12888450D02*
X10641536Y-12891311D01*
X10685088Y-13015243D02*
X10683358Y-13020355D01*
X10641536Y-13073741D02*
X10637073Y-13076601D01*
X10563286Y-13091251D02*
X10557869Y-13090284D01*
X10664915Y-13052503D02*
X10661458Y-13056494D01*
X10653995Y-12901100D02*
X10657815Y-12904742D01*
X10580037Y-13092517D02*
X10574377Y-13092374D01*
X10686570Y-13010022D02*
X10685088Y-13015243D01*
X10537222Y-13083878D02*
X10532350Y-13081676D01*
X10688765Y-12965770D02*
X10689465Y-12971275D01*
X10617857Y-13085847D02*
X10612746Y-13087575D01*
X10542217Y-13085847D02*
X10537222Y-13083878D01*
X10683358Y-13020355D02*
X10681389Y-13025351D01*
X10585697Y-13092374D02*
X10580037Y-13092517D01*
X10690033Y-12982521D02*
X10689890Y-12988185D01*
X10674108Y-13039573D02*
X10671247Y-13044036D01*
X12382677Y-11263270D02*
X10582591Y-11263270D01*
X12397548Y-11265725D02*
X12395174Y-11265051D01*
X12404359Y-11268408D02*
X12402144Y-11267407D01*
X12410639Y-11272018D02*
X12408610Y-11270717D01*
X12419696Y-11279861D02*
X12418040Y-11278125D01*
X12414489Y-11274897D02*
X12412600Y-11273413D01*
X12408610Y-11270717D02*
X12406516Y-11269513D01*
X12402144Y-11267407D02*
X12399872Y-11266511D01*
X12392754Y-11264492D02*
X12390291Y-11264052D01*
X12416304Y-11276469D02*
X12414489Y-11274897D01*
X12406516Y-11269513D02*
X12404359Y-11268408D01*
X12390291Y-11264052D02*
X12387788Y-11263734D01*
X12418040Y-11278125D02*
X12416304Y-11276469D01*
X12387788Y-11263734D02*
X12385248Y-11263541D01*
X12399872Y-11266511D02*
X12397548Y-11265725D01*
X12395174Y-11265051D02*
X12392754Y-11264492D01*
X12385248Y-11263541D02*
X12382674Y-11263475D01*
X12412600Y-11273413D02*
X12410639Y-11272018D01*
X12432457Y-11313291D02*
X12432173Y-16369408D01*
X12432661Y-11313464D02*
X12432600Y-11310893D01*
X12432410Y-11308356D02*
X12432094Y-11305856D01*
X13162196Y-19866500D02*
X14397658Y-17720977D01*
X12428751Y-11294015D02*
X12427751Y-11291801D01*
X12429645Y-11296285D02*
X12428751Y-11294015D01*
X12430429Y-11298607D02*
X12429645Y-11296285D01*
X12431657Y-11303396D02*
X12431101Y-11300978D01*
X12432094Y-11305856D02*
X12431657Y-11303396D01*
X12432600Y-11310893D02*
X12432410Y-11308356D01*
X12421267Y-11281675D02*
X12419696Y-11279861D01*
X12422751Y-11283564D02*
X12421267Y-11281675D01*
X12424145Y-11285524D02*
X12422751Y-11283564D01*
X12425445Y-11287552D02*
X12424145Y-11285524D01*
X12426648Y-11289646D02*
X12425445Y-11287552D01*
X12431101Y-11300978D02*
X12430429Y-11298607D01*
X12427751Y-11291801D02*
X12426648Y-11289646D01*
D11*
X8631341Y-10959613D02*
X8636266Y-10981291D01*
X8649526Y-10998200D01*
X8668833Y-11008048D01*
X8681328Y-11009625D01*
X4468051Y-17109707D02*
X2269050Y-17109631D01*
X8681353Y-11009625D02*
X9869050Y-11009473D01*
X6781130Y-11009473D02*
X6070050Y-11009473D01*
X1181350Y-11484630D02*
X1159672Y-11489555D01*
X1142763Y-11502815D01*
X1132915Y-11522122D01*
X1131337Y-11534617D01*
X10481144Y-11009473D02*
X9869050Y-11009473D01*
X12968258Y-19900708D02*
X12986664Y-19911187D01*
X13005939Y-19918587D01*
X13025756Y-19922972D01*
X13045790Y-19924405D01*
X13072273Y-19921834D01*
X13097786Y-19914279D01*
X13115818Y-19905434D01*
X13132542Y-19893933D01*
X13147632Y-19879842D01*
X13160760Y-19863223D01*
X8581226Y-10784429D02*
X6881206Y-10784429D01*
X12431329Y-11309624D02*
X12426403Y-11287946D01*
X12413143Y-11271038D01*
X12393838Y-11261189D01*
X12381342Y-11259612D01*
X6831346Y-10834619D02*
X6831168Y-10959435D01*
X1131337Y-17059620D02*
X1136273Y-17081296D01*
X1149542Y-17098198D01*
X1168853Y-17108036D01*
X1181349Y-17109607D01*
X4881339Y-11484630D02*
X4903017Y-11479705D01*
X4919926Y-11466444D01*
X4929774Y-11447138D01*
X4931351Y-11434643D01*
X8681328Y-11009625D02*
X8681353Y-11009625D01*
X10531182Y-11209371D02*
X10531182Y-11059511D01*
X4981338Y-11009625D02*
X4959669Y-11014558D01*
X4942769Y-11027819D01*
X4932927Y-11047121D01*
X4931351Y-11059613D01*
X10531335Y-11209625D02*
X10536271Y-11231300D01*
X10549540Y-11248202D01*
X10568851Y-11258041D01*
X10581347Y-11259612D01*
X10531335Y-11059613D02*
X10526402Y-11037943D01*
X10513141Y-11021044D01*
X10493839Y-11011201D01*
X10481348Y-11009625D01*
X11538850Y-19074600D02*
X12968258Y-19900708D01*
X6881333Y-10784607D02*
X6859657Y-10789543D01*
X6842755Y-10802812D01*
X6832916Y-10822123D01*
X6831346Y-10834619D01*
X4931250Y-11059511D02*
X4931250Y-11434414D01*
X6781333Y-11009625D02*
X6803012Y-11004700D01*
X6819920Y-10991440D01*
X6829768Y-10972133D01*
X6831346Y-10959638D01*
X5916994Y-18569979D02*
X7770993Y-18569979D01*
X11538850Y-19074600D02*
X11518680Y-19069177D01*
X11498228Y-19065000D01*
X11477552Y-19062078D01*
X11473394Y-19061646D01*
X1131337Y-11534617D02*
X1131160Y-17059493D01*
X12431100Y-11309447D02*
X12431329Y-11434618D01*
X4881212Y-11484452D02*
X1181350Y-11484630D01*
X8631264Y-10959435D02*
X8631264Y-10834467D01*
X13160760Y-19863223D02*
X13161070Y-19862761D01*
X1181349Y-17109607D02*
X1181350Y-17109607D01*
X4931351Y-11434643D02*
X4931351Y-11434618D01*
X6831346Y-10959638D02*
X6831346Y-10959613D01*
X7770993Y-18569979D02*
X11473394Y-19061646D01*
X8631341Y-10834619D02*
X8626416Y-10812941D01*
X8613155Y-10796032D01*
X8593849Y-10786184D01*
X8581353Y-10784607D01*
X12381316Y-11259409D02*
X10581220Y-11259409D01*
X6831346Y-10834619D02*
X6831346Y-10834619D01*
X4862691Y-17124263D02*
X4845338Y-17112965D01*
X4827335Y-17109607D01*
X1131337Y-11534617D02*
X1131337Y-11534617D01*
X4862691Y-17124263D02*
X5881637Y-18555323D01*
X5881637Y-18555323D02*
X5898990Y-18566621D01*
X5916994Y-18569979D01*
X1181350Y-17109607D02*
X2269050Y-17109631D01*
X4827335Y-17109607D02*
X4468051Y-17109707D01*
X4981338Y-11009625D02*
X6087050Y-11009625D01*
X26816919Y-19905218D02*
X26835324Y-19915697D01*
X26854599Y-19923096D01*
X26874416Y-19927481D01*
X26894450Y-19928914D01*
X26920933Y-19926343D01*
X26946446Y-19918789D01*
X26964478Y-19909943D01*
X26981202Y-19898443D01*
X26996292Y-19884351D01*
X27009421Y-19867732D01*
X27009421Y-19867732D02*
X27009730Y-19867271D01*
D10*
X7433250Y-16967416D02*
X7433250Y-18367449D01*
X7433250Y-18367449D02*
X6033218Y-18367449D01*
X6033218Y-18367449D02*
X6033218Y-16967416D01*
X6033218Y-16967416D02*
X7433250Y-16967416D01*
X25725846Y-17814661D02*
X25722203Y-17810842D01*
X25733657Y-17652024D02*
X25737812Y-17648759D01*
X25742125Y-17645693D02*
X25746588Y-17642832D01*
X25718746Y-17666931D02*
X25722203Y-17662941D01*
X25715481Y-17802697D02*
X25712414Y-17798384D01*
X25856054Y-17640184D02*
X25860660Y-17642832D01*
X25913619Y-17736870D02*
X25913476Y-17742533D01*
X25900343Y-17684463D02*
X25902773Y-17689204D01*
X25742125Y-17828089D02*
X25737812Y-17825023D01*
X25697091Y-17764371D02*
X25695863Y-17759047D01*
X25746588Y-17830949D02*
X25742125Y-17828089D01*
X25704475Y-17689204D02*
X25706904Y-17684463D01*
X25877582Y-17818303D02*
X25873591Y-17821759D01*
X25751194Y-17833597D02*
X25746588Y-17830949D01*
X25737812Y-17648759D02*
X25742125Y-17645693D01*
X25722203Y-17662941D02*
X25725846Y-17659122D01*
X25737812Y-17825023D02*
X25733657Y-17821759D01*
X25725846Y-17659122D02*
X25729666Y-17655480D01*
X25722203Y-17810842D02*
X25718746Y-17806851D01*
X25718746Y-17806851D02*
X25715481Y-17802697D01*
X25908674Y-17704177D02*
X25910156Y-17709394D01*
X25698573Y-17769592D02*
X25697091Y-17764371D01*
X25904975Y-17779699D02*
X25902773Y-17784572D01*
X25912352Y-17720127D02*
X25913052Y-17725629D01*
X25733657Y-17821759D02*
X25729666Y-17818303D01*
X25755937Y-17637755D02*
X25760809Y-17635552D01*
X25702272Y-17779699D02*
X25700303Y-17774704D01*
X25765804Y-17633583D02*
X25770915Y-17631854D01*
X25700303Y-17774704D02*
X25698573Y-17769592D01*
X25891767Y-17802697D02*
X25888502Y-17806851D01*
X25729666Y-17655480D02*
X25733657Y-17652024D01*
X25906945Y-17774704D02*
X25904975Y-17779699D01*
X25698573Y-17704177D02*
X25700303Y-17699068D01*
X25693628Y-17736870D02*
X25693771Y-17731212D01*
X25746588Y-17642832D02*
X25751194Y-17640184D01*
X25709553Y-17793922D02*
X25706904Y-17789315D01*
X25693771Y-17731212D02*
X25694196Y-17725629D01*
X25851311Y-17637755D02*
X25856054Y-17640184D01*
X25706904Y-17684463D02*
X25709553Y-17679858D01*
X25695863Y-17759047D02*
X25694896Y-17753629D01*
X25715481Y-17671085D02*
X25718746Y-17666931D01*
X25770915Y-17631854D02*
X25776135Y-17630371D01*
X25700303Y-17699068D02*
X25702272Y-17694075D01*
X25694196Y-17748122D02*
X25693771Y-17742533D01*
X25781456Y-17629143D02*
X25786873Y-17628176D01*
X25712414Y-17798384D02*
X25709553Y-17793922D01*
X25702272Y-17694075D02*
X25704475Y-17689204D01*
X25913052Y-17748122D02*
X25912352Y-17753629D01*
X25697091Y-17709394D02*
X25698573Y-17704177D01*
X25776135Y-17630371D02*
X25781456Y-17629143D01*
X25729666Y-17818303D02*
X25725846Y-17814661D01*
X25694896Y-17753629D02*
X25694196Y-17748122D01*
X25706904Y-17789315D02*
X25704475Y-17784572D01*
X25792378Y-17627477D02*
X25797964Y-17627052D01*
X25913476Y-17731212D02*
X25913619Y-17736870D01*
X25786873Y-17628176D02*
X25792378Y-17627477D01*
X25694196Y-17725629D02*
X25694896Y-17720127D01*
X25709553Y-17679858D02*
X25712414Y-17675397D01*
X25693771Y-17742533D02*
X25693628Y-17736870D01*
X25712414Y-17675397D02*
X25715481Y-17671085D01*
X25760809Y-17635552D02*
X25765804Y-17633583D01*
X25695863Y-17714713D02*
X25697091Y-17709394D01*
X25797964Y-17627052D02*
X25803624Y-17626909D01*
X25694896Y-17720127D02*
X25695863Y-17714713D01*
X25751194Y-17640184D02*
X25755937Y-17637755D01*
X25860660Y-17642832D02*
X25865123Y-17645693D01*
X25704475Y-17784572D02*
X25702272Y-17779699D01*
X25911385Y-17759047D02*
X25910156Y-17764371D01*
X25755937Y-17836025D02*
X25751194Y-17833597D01*
X25786873Y-17845599D02*
X25781456Y-17844632D01*
X25910156Y-17709394D02*
X25911385Y-17714713D01*
X25902773Y-17689204D02*
X25904975Y-17694075D01*
X25797964Y-17846723D02*
X25792378Y-17846298D01*
X25910156Y-17764371D02*
X25908674Y-17769592D01*
X25781456Y-17844632D02*
X25776135Y-17843405D01*
X25814870Y-17846298D02*
X25809284Y-17846723D01*
X19130078Y-17149204D02*
X19127875Y-17144331D01*
X25776135Y-17843405D02*
X25770915Y-17841923D01*
X25888502Y-17666931D02*
X25891767Y-17671085D01*
X19120498Y-17118267D02*
X19119799Y-17112762D01*
X25869436Y-17825023D02*
X25865123Y-17828089D01*
X25820375Y-17845599D02*
X25814870Y-17846298D01*
X25869436Y-17648759D02*
X25873591Y-17652024D01*
X25765804Y-17840195D02*
X25760809Y-17838226D01*
X25865123Y-17828089D02*
X25860660Y-17830949D01*
X19196518Y-16996465D02*
X19201738Y-16994983D01*
X19212476Y-16992787D02*
X19217981Y-16992088D01*
X19181540Y-17002367D02*
X19186412Y-17000164D01*
X25831113Y-17843405D02*
X25825792Y-17844632D01*
X25803624Y-17846866D02*
X25797964Y-17846723D01*
X25894834Y-17675397D02*
X25897695Y-17679858D01*
X25792378Y-17846298D02*
X25786873Y-17845599D01*
X25885044Y-17662941D02*
X25888502Y-17666931D01*
X25814870Y-17627477D02*
X25820375Y-17628176D01*
X19124176Y-17068807D02*
X19125906Y-17063696D01*
X19125906Y-17063696D02*
X19127875Y-17058701D01*
X25885044Y-17810842D02*
X25881402Y-17814661D01*
X25894834Y-17798384D02*
X25891767Y-17802697D01*
X25851311Y-17836025D02*
X25846439Y-17838226D01*
X25911385Y-17714713D02*
X25912352Y-17720127D01*
X25877582Y-17655480D02*
X25881402Y-17659122D01*
X25809284Y-17846723D02*
X25803624Y-17846866D01*
X25825792Y-17844632D02*
X25820375Y-17845599D01*
X25881402Y-17814661D02*
X25877582Y-17818303D01*
X25803624Y-17626909D02*
X25809284Y-17627052D01*
X19122694Y-17129006D02*
X19121466Y-17123684D01*
X25897695Y-17679858D02*
X25900343Y-17684463D01*
X25836333Y-17841923D02*
X25831113Y-17843405D01*
X25865123Y-17645693D02*
X25869436Y-17648759D01*
X25913052Y-17725629D02*
X25913476Y-17731212D01*
X25913476Y-17742533D02*
X25913052Y-17748122D01*
X19132507Y-17049086D02*
X19135156Y-17044479D01*
X25860660Y-17830949D02*
X25856054Y-17833597D01*
X25897695Y-17793922D02*
X25894834Y-17798384D01*
X25906945Y-17699068D02*
X25908674Y-17704177D01*
X25881402Y-17659122D02*
X25885044Y-17662941D01*
X25873591Y-17821759D02*
X25869436Y-17825023D01*
X25856054Y-17833597D02*
X25851311Y-17836025D01*
X19144349Y-17031549D02*
X19147806Y-17027558D01*
X25891767Y-17671085D02*
X25894834Y-17675397D01*
X25760809Y-17838226D02*
X25755937Y-17836025D01*
X19122694Y-17074027D02*
X19124176Y-17068807D01*
X25908674Y-17769592D02*
X25906945Y-17774704D01*
X25873591Y-17652024D02*
X25877582Y-17655480D01*
X25912352Y-17753629D02*
X25911385Y-17759047D01*
X25809284Y-17627052D02*
X25814870Y-17627477D01*
X25900343Y-17789315D02*
X25897695Y-17793922D01*
X25888502Y-17806851D02*
X25885044Y-17810842D01*
X25902773Y-17784572D02*
X25900343Y-17789315D01*
X25770915Y-17841923D02*
X25765804Y-17840195D01*
X25904975Y-17694075D02*
X25906945Y-17699068D01*
X25846439Y-17838226D02*
X25841444Y-17840195D01*
X25841444Y-17840195D02*
X25836333Y-17841923D01*
D11*
X26804619Y-10998439D02*
X26823024Y-11008918D01*
X26842299Y-11016318D01*
X26862116Y-11020702D01*
X26882150Y-11022135D01*
X26908633Y-11019564D01*
X26934146Y-11012010D01*
X26952178Y-11003164D01*
X26968902Y-10991664D01*
X26983992Y-10977572D01*
X26997121Y-10960953D01*
X26997121Y-10960953D02*
X26997430Y-10960492D01*
D10*
X7420950Y-8060637D02*
X7420950Y-9460670D01*
X6020918Y-8060637D02*
X7420950Y-8060637D01*
X6020918Y-9460670D02*
X6020918Y-8060637D01*
X7420950Y-9460670D02*
X6020918Y-9460670D01*
X25729825Y-8738914D02*
X25734288Y-8736053D01*
X25721357Y-8745245D02*
X25725512Y-8741980D01*
X25706446Y-8760152D02*
X25709903Y-8756162D01*
X25703181Y-8895918D02*
X25700114Y-8891606D01*
X25713546Y-8907882D02*
X25709903Y-8904063D01*
X25729825Y-8921310D02*
X25725512Y-8918244D01*
X25738894Y-8926818D02*
X25734288Y-8924170D01*
X25709903Y-8904063D02*
X25706446Y-8900073D01*
X25721357Y-8914980D02*
X25717366Y-8911524D01*
X25743637Y-8730976D02*
X25748509Y-8728773D01*
X25689972Y-8872921D02*
X25688003Y-8867925D01*
X25725512Y-8741980D02*
X25729825Y-8738914D01*
X25763835Y-8723593D02*
X25769156Y-8722364D01*
X25753504Y-8726804D02*
X25758615Y-8725075D01*
X25684791Y-8802615D02*
X25686273Y-8797398D01*
X25697253Y-8887143D02*
X25694604Y-8882536D01*
X25774573Y-8721397D02*
X25780078Y-8720698D01*
X25686273Y-8797398D02*
X25688003Y-8792289D01*
X25725512Y-8918244D02*
X25721357Y-8914980D01*
X25681471Y-8835754D02*
X25681328Y-8830091D01*
X25700114Y-8768618D02*
X25703181Y-8764306D01*
X25681896Y-8818851D02*
X25682596Y-8813349D01*
X25683563Y-8807934D02*
X25684791Y-8802615D01*
X25706446Y-8900073D02*
X25703181Y-8895918D01*
X25785664Y-8720273D02*
X25791324Y-8720130D01*
X25688003Y-8867925D02*
X25686273Y-8862813D01*
X25734288Y-8924170D02*
X25729825Y-8921310D01*
X25682596Y-8813349D02*
X25683563Y-8807934D01*
X25769156Y-8722364D02*
X25774573Y-8721397D01*
X25717366Y-8911524D02*
X25713546Y-8907882D01*
X25738894Y-8733405D02*
X25743637Y-8730976D01*
X25734288Y-8736053D02*
X25738894Y-8733405D01*
X25717366Y-8748701D02*
X25721357Y-8745245D01*
X25681471Y-8824434D02*
X25681896Y-8818851D01*
X25692175Y-8782425D02*
X25694604Y-8777684D01*
X25713546Y-8752343D02*
X25717366Y-8748701D01*
X25681328Y-8830091D02*
X25681471Y-8824434D01*
X25684791Y-8857592D02*
X25683563Y-8852269D01*
X25692175Y-8877793D02*
X25689972Y-8872921D01*
X25694604Y-8777684D02*
X25697253Y-8773079D01*
X25694604Y-8882536D02*
X25692175Y-8877793D01*
X25688003Y-8792289D02*
X25689972Y-8787296D01*
X25683563Y-8852269D02*
X25682596Y-8846850D01*
X25681896Y-8841343D02*
X25681471Y-8835754D01*
X25700114Y-8891606D02*
X25697253Y-8887143D01*
X25748509Y-8728773D02*
X25753504Y-8726804D01*
X25682596Y-8846850D02*
X25681896Y-8841343D01*
X25743637Y-8929246D02*
X25738894Y-8926818D01*
X25686273Y-8862813D02*
X25684791Y-8857592D01*
X25703181Y-8764306D02*
X25706446Y-8760152D01*
X25780078Y-8720698D02*
X25785664Y-8720273D01*
X25697253Y-8773079D02*
X25700114Y-8768618D01*
X25709903Y-8756162D02*
X25713546Y-8752343D01*
X25758615Y-8725075D02*
X25763835Y-8723593D01*
X25689972Y-8787296D02*
X25692175Y-8782425D01*
X25894645Y-8867925D02*
X25892675Y-8872921D01*
X25865282Y-8911524D02*
X25861291Y-8914980D01*
X25879467Y-8895918D02*
X25876202Y-8900073D01*
X25839011Y-8730976D02*
X25843754Y-8733405D01*
X25899085Y-8852269D02*
X25897856Y-8857592D01*
X25900752Y-8841343D02*
X25900052Y-8846850D01*
X25901319Y-8830091D02*
X25901176Y-8835754D01*
X25901176Y-8824434D02*
X25901319Y-8830091D01*
X25896374Y-8797398D02*
X25897856Y-8802615D01*
X25843754Y-8733405D02*
X25848360Y-8736053D01*
X25900052Y-8813349D02*
X25900752Y-8818851D01*
X25892675Y-8872921D02*
X25890473Y-8877793D01*
X25848360Y-8736053D02*
X25852823Y-8738914D01*
X25888043Y-8777684D02*
X25890473Y-8782425D01*
X25763835Y-8936626D02*
X25758615Y-8935144D01*
X25857136Y-8741980D02*
X25861291Y-8745245D01*
X25818813Y-8936626D02*
X25813492Y-8937853D01*
X25901176Y-8835754D02*
X25900752Y-8841343D01*
X25879467Y-8764306D02*
X25882534Y-8768618D01*
X25785664Y-8939944D02*
X25780078Y-8939519D01*
X25896374Y-8862813D02*
X25894645Y-8867925D01*
X25791324Y-8940087D02*
X25785664Y-8939944D01*
X25861291Y-8914980D02*
X25857136Y-8918244D01*
X25885395Y-8887143D02*
X25882534Y-8891606D01*
X25882534Y-8768618D02*
X25885395Y-8773079D01*
X25888043Y-8882536D02*
X25885395Y-8887143D01*
X25876202Y-8760152D02*
X25879467Y-8764306D01*
X25890473Y-8782425D02*
X25892675Y-8787296D01*
X25899085Y-8807934D02*
X25900052Y-8813349D01*
X25848360Y-8924170D02*
X25843754Y-8926818D01*
X25865282Y-8748701D02*
X25869102Y-8752343D01*
X25861291Y-8745245D02*
X25865282Y-8748701D01*
X25872744Y-8904063D02*
X25869102Y-8907882D01*
X25857136Y-8918244D02*
X25852823Y-8921310D01*
X25876202Y-8900073D02*
X25872744Y-8904063D01*
X25890473Y-8877793D02*
X25888043Y-8882536D01*
X25748509Y-8931447D02*
X25743637Y-8929246D01*
X25897856Y-8802615D02*
X25899085Y-8807934D01*
X25753504Y-8933416D02*
X25748509Y-8931447D01*
X25758615Y-8935144D02*
X25753504Y-8933416D01*
X25780078Y-8939519D02*
X25774573Y-8938820D01*
X25769156Y-8937853D02*
X25763835Y-8936626D01*
X25834139Y-8931447D02*
X25829144Y-8933416D01*
X25852823Y-8738914D02*
X25857136Y-8741980D01*
X25894645Y-8792289D02*
X25896374Y-8797398D01*
X25774573Y-8938820D02*
X25769156Y-8937853D01*
X25839011Y-8929246D02*
X25834139Y-8931447D01*
X25872744Y-8756162D02*
X25876202Y-8760152D01*
X25796984Y-8939944D02*
X25791324Y-8940087D01*
X25802570Y-8939519D02*
X25796984Y-8939944D01*
X25808075Y-8938820D02*
X25802570Y-8939519D01*
X25882534Y-8891606D02*
X25879467Y-8895918D01*
X25897856Y-8857592D02*
X25896374Y-8862813D01*
X25892675Y-8787296D02*
X25894645Y-8792289D01*
X25813492Y-8937853D02*
X25808075Y-8938820D01*
X25843754Y-8926818D02*
X25839011Y-8929246D01*
X25885395Y-8773079D02*
X25888043Y-8777684D01*
X25869102Y-8907882D02*
X25865282Y-8911524D01*
X25824033Y-8935144D02*
X25818813Y-8936626D01*
X25900752Y-8818851D02*
X25901176Y-8824434D01*
X25900052Y-8846850D02*
X25899085Y-8852269D01*
X25869102Y-8752343D02*
X25872744Y-8756162D01*
X25829144Y-8933416D02*
X25824033Y-8935144D01*
X25852823Y-8921310D02*
X25848360Y-8924170D01*
X25791324Y-8720130D02*
X25796984Y-8720273D01*
X19132049Y-8124770D02*
X19135506Y-8120779D01*
X19110394Y-8167248D02*
X19111876Y-8162028D01*
X19108198Y-8211488D02*
X19107499Y-8205983D01*
X19110394Y-8222227D02*
X19109166Y-8216905D01*
X19120207Y-8142307D02*
X19122856Y-8137700D01*
X19113606Y-8156917D02*
X19115575Y-8151922D01*
X19117778Y-8242425D02*
X19115575Y-8237552D01*
X25802570Y-8720698D02*
X25808075Y-8721397D01*
X25796984Y-8720273D02*
X25802570Y-8720698D01*
X19111876Y-8162028D02*
X19113606Y-8156917D01*
X19200176Y-8086008D02*
X19205681Y-8085309D01*
X19184218Y-8089686D02*
X19189438Y-8088204D01*
X19169240Y-8095588D02*
X19174112Y-8093385D01*
X19128784Y-8128925D02*
X19132049Y-8124770D01*
X19109166Y-8216905D02*
X19108198Y-8211488D01*
X19155428Y-8103527D02*
X19159890Y-8100666D01*
X19205681Y-8085309D02*
X19211267Y-8084884D01*
X19109166Y-8172569D02*
X19110394Y-8167248D01*
X19108198Y-8177986D02*
X19109166Y-8172569D01*
X19146960Y-8279615D02*
X19142968Y-8276158D01*
X19179107Y-8091416D02*
X19184218Y-8089686D01*
X19151115Y-8106594D02*
X19155428Y-8103527D01*
X19142968Y-8276158D02*
X19139148Y-8272516D01*
X19174112Y-8093385D02*
X19179107Y-8091416D01*
X19106931Y-8194737D02*
X19107074Y-8189077D01*
X19159890Y-8288808D02*
X19155428Y-8285947D01*
X19122856Y-8251774D02*
X19120207Y-8247167D01*
X19151115Y-8282881D02*
X19146960Y-8279615D01*
X19164497Y-8098017D02*
X19169240Y-8095588D01*
X19159890Y-8100666D02*
X19164497Y-8098017D01*
X19146960Y-8109859D02*
X19151115Y-8106594D01*
X19155428Y-8285947D02*
X19151115Y-8282881D01*
X19142968Y-8113316D02*
X19146960Y-8109859D01*
X19139148Y-8116958D02*
X19142968Y-8113316D01*
X19125717Y-8133238D02*
X19128784Y-8128925D01*
X19115575Y-8151922D02*
X19117778Y-8147050D01*
X19107074Y-8200397D02*
X19106931Y-8194737D01*
X19122856Y-8137700D02*
X19125717Y-8133238D01*
X19164497Y-8291457D02*
X19159890Y-8288808D01*
X19132049Y-8264704D02*
X19128784Y-8260549D01*
X19107499Y-8183491D02*
X19108198Y-8177986D01*
X19107499Y-8205983D02*
X19107074Y-8200397D01*
X19113606Y-8232557D02*
X19111876Y-8227446D01*
X19169240Y-8293886D02*
X19164497Y-8291457D01*
X19111876Y-8227446D02*
X19110394Y-8222227D01*
X19128784Y-8260549D02*
X19125717Y-8256237D01*
X19139148Y-8272516D02*
X19135506Y-8268696D01*
X19117778Y-8147050D02*
X19120207Y-8142307D01*
X25834139Y-8728773D02*
X25839011Y-8730976D01*
X19189438Y-8088204D02*
X19194759Y-8086976D01*
X25829144Y-8726804D02*
X25834139Y-8728773D01*
X25824033Y-8725075D02*
X25829144Y-8726804D01*
X19107074Y-8189077D02*
X19107499Y-8183491D01*
X25813492Y-8722364D02*
X25818813Y-8723593D01*
X19120207Y-8247167D02*
X19117778Y-8242425D01*
X19194759Y-8086976D02*
X19200176Y-8086008D01*
X19135506Y-8120779D02*
X19139148Y-8116958D01*
X19211267Y-8084884D02*
X19216927Y-8084741D01*
X19125717Y-8256237D02*
X19122856Y-8251774D01*
X19115575Y-8237552D02*
X19113606Y-8232557D01*
X25818813Y-8723593D02*
X25824033Y-8725075D01*
X19135506Y-8268696D02*
X19132049Y-8264704D01*
X25808075Y-8721397D02*
X25813492Y-8722364D01*
X19324688Y-8216905D02*
X19323460Y-8222227D01*
X19326780Y-8189077D02*
X19326923Y-8194737D01*
X19313647Y-8247167D02*
X19310998Y-8251774D01*
X19249636Y-8299788D02*
X19244416Y-8301270D01*
X19290886Y-8276158D02*
X19286894Y-8279615D01*
X19254747Y-8298058D02*
X19249636Y-8299788D01*
X19282739Y-8282881D02*
X19278426Y-8285947D01*
X19326780Y-8200397D02*
X19326355Y-8205983D01*
X19324688Y-8172569D02*
X19325656Y-8177986D01*
X19316076Y-8147050D02*
X19318279Y-8151922D01*
X19321978Y-8162028D02*
X19323460Y-8167248D01*
X19325656Y-8177986D02*
X19326355Y-8183491D01*
X19323460Y-8222227D02*
X19321978Y-8227446D01*
X19305070Y-8128925D02*
X19308137Y-8133238D01*
X19244416Y-8301270D02*
X19239095Y-8302498D01*
X19269357Y-8098017D02*
X19273964Y-8100666D01*
X19269357Y-8291457D02*
X19264614Y-8293886D01*
X19259742Y-8296089D02*
X19254747Y-8298058D01*
X19294706Y-8116958D02*
X19298348Y-8120779D01*
X19273964Y-8288808D02*
X19269357Y-8291457D01*
X19325656Y-8211488D02*
X19324688Y-8216905D01*
X19286894Y-8279615D02*
X19282739Y-8282881D01*
X19298348Y-8268696D02*
X19294706Y-8272516D01*
X19318279Y-8237552D02*
X19316076Y-8242425D01*
X19298348Y-8120779D02*
X19301805Y-8124770D01*
X19320248Y-8232557D02*
X19318279Y-8237552D01*
X19290886Y-8113316D02*
X19294706Y-8116958D01*
X19308137Y-8133238D02*
X19310998Y-8137700D01*
X19320248Y-8156917D02*
X19321978Y-8162028D01*
X19308137Y-8256237D02*
X19305070Y-8260549D01*
X19278426Y-8103527D02*
X19282739Y-8106594D01*
X19273964Y-8100666D02*
X19278426Y-8103527D01*
X19326355Y-8183491D02*
X19326780Y-8189077D01*
X19294706Y-8272516D02*
X19290886Y-8276158D01*
X19310998Y-8251774D02*
X19308137Y-8256237D01*
X19321978Y-8227446D02*
X19320248Y-8232557D01*
X19174112Y-8296089D02*
X19169240Y-8293886D01*
X19318279Y-8151922D02*
X19320248Y-8156917D01*
X19179107Y-8298058D02*
X19174112Y-8296089D01*
X19184218Y-8299788D02*
X19179107Y-8298058D01*
X19216927Y-8304733D02*
X19211267Y-8304590D01*
X19189438Y-8301270D02*
X19184218Y-8299788D01*
X19264614Y-8293886D02*
X19259742Y-8296089D01*
X19264614Y-8095588D02*
X19269357Y-8098017D01*
X19313647Y-8142307D02*
X19316076Y-8147050D01*
X19194759Y-8302498D02*
X19189438Y-8301270D01*
X19222587Y-8304590D02*
X19216927Y-8304733D01*
X19286894Y-8109859D02*
X19290886Y-8113316D01*
X19200176Y-8303466D02*
X19194759Y-8302498D01*
X19205681Y-8304165D02*
X19200176Y-8303466D01*
X19233678Y-8303466D02*
X19228173Y-8304165D01*
X19316076Y-8242425D02*
X19313647Y-8247167D01*
X19326355Y-8205983D02*
X19325656Y-8211488D01*
X19310998Y-8137700D02*
X19313647Y-8142307D01*
X19211267Y-8304590D02*
X19205681Y-8304165D01*
X19228173Y-8304165D02*
X19222587Y-8304590D01*
X19301805Y-8124770D02*
X19305070Y-8128925D01*
X19305070Y-8260549D02*
X19301805Y-8264704D01*
X19239095Y-8302498D02*
X19233678Y-8303466D01*
X19323460Y-8167248D02*
X19324688Y-8172569D01*
X19326923Y-8194737D02*
X19326780Y-8200397D01*
X19282739Y-8106594D02*
X19286894Y-8109859D01*
X19278426Y-8285947D02*
X19273964Y-8288808D01*
X19301805Y-8264704D02*
X19298348Y-8268696D01*
X24405073Y-3970670D02*
X24410659Y-3970245D01*
X24322249Y-4023061D02*
X24325110Y-4018598D01*
X24306892Y-4068851D02*
X24307592Y-4063347D01*
X24311270Y-4112820D02*
X24309787Y-4107599D01*
X24314969Y-4122928D02*
X24312999Y-4117932D01*
X24312999Y-4042278D02*
X24314969Y-4037283D01*
X24308559Y-4057930D02*
X24309787Y-4052608D01*
X24325110Y-4141613D02*
X24322249Y-4137150D01*
X19239095Y-8086976D02*
X19244416Y-8088204D01*
X24307592Y-4096857D02*
X24306892Y-4091350D01*
X24307592Y-4063347D02*
X24308559Y-4057930D01*
X24383611Y-3975047D02*
X24388831Y-3973565D01*
X24368633Y-3980949D02*
X24373505Y-3978746D01*
X24354821Y-3988888D02*
X24359284Y-3986026D01*
X24319600Y-4027668D02*
X24322249Y-4023061D01*
X24312999Y-4117932D02*
X24311270Y-4112820D01*
X24342362Y-3998677D02*
X24346353Y-3995220D01*
X24306468Y-4074437D02*
X24306892Y-4068851D01*
X24306324Y-4080098D02*
X24306468Y-4074437D01*
X24306468Y-4085761D02*
X24306324Y-4080098D01*
X24359284Y-4174177D02*
X24354821Y-4171317D01*
X19233678Y-8086008D02*
X19239095Y-8086976D01*
X24338542Y-4002319D02*
X24342362Y-3998677D01*
X24354821Y-4171317D02*
X24350508Y-4168252D01*
X24388831Y-3973565D02*
X24394152Y-3972337D01*
X19216927Y-8084741D02*
X19222587Y-8084884D01*
X24410659Y-3970245D02*
X24416320Y-3970102D01*
X24331442Y-4150080D02*
X24328177Y-4145925D01*
X24363890Y-4176825D02*
X24359284Y-4174177D01*
X24399569Y-3971369D02*
X24405073Y-3970670D01*
X24363890Y-3983378D02*
X24368633Y-3980949D01*
X24359284Y-3986026D02*
X24363890Y-3983378D01*
X24368633Y-4179253D02*
X24363890Y-4176825D01*
X24350508Y-3991954D02*
X24354821Y-3988888D01*
X24334900Y-4006139D02*
X24338542Y-4002319D01*
X24331442Y-4010130D02*
X24334900Y-4006139D01*
X24309787Y-4052608D02*
X24311270Y-4047389D01*
X24308559Y-4102276D02*
X24307592Y-4096857D01*
X24317171Y-4032410D02*
X24319600Y-4027668D01*
X24346353Y-3995220D02*
X24350508Y-3991954D01*
X24342362Y-4161531D02*
X24338542Y-4157890D01*
X24328177Y-4014286D02*
X24331442Y-4010130D01*
X24314969Y-4037283D02*
X24317171Y-4032410D01*
X24309787Y-4107599D02*
X24308559Y-4102276D01*
X24319600Y-4132544D02*
X24317171Y-4127801D01*
X24317171Y-4127801D02*
X24314969Y-4122928D01*
X24338542Y-4157890D02*
X24334900Y-4154070D01*
X24350508Y-4168252D02*
X24346353Y-4164987D01*
X24311270Y-4047389D02*
X24312999Y-4042278D01*
X19259742Y-8093385D02*
X19264614Y-8095588D01*
X24373505Y-3978746D02*
X24378500Y-3976776D01*
X19254747Y-8091416D02*
X19259742Y-8093385D01*
X19249636Y-8089686D02*
X19254747Y-8091416D01*
X19222587Y-8084884D02*
X19228173Y-8085309D01*
X24306892Y-4091350D02*
X24306468Y-4085761D01*
X24328177Y-4145925D02*
X24325110Y-4141613D01*
X24378500Y-3976776D02*
X24383611Y-3975047D01*
X24325110Y-4018598D02*
X24328177Y-4014286D01*
X24394152Y-3972337D02*
X24399569Y-3971369D01*
X24334900Y-4154070D02*
X24331442Y-4150080D01*
X24322249Y-4137150D02*
X24319600Y-4132544D01*
X19244416Y-8088204D02*
X19249636Y-8089686D01*
X24346353Y-4164987D02*
X24342362Y-4161531D01*
X19228173Y-8085309D02*
X19233678Y-8086008D01*
X16778500Y-4351775D02*
X16783610Y-4350045D01*
X16719599Y-4402666D02*
X16722248Y-4398059D01*
X16714967Y-4412281D02*
X16717170Y-4407409D01*
X16712998Y-4417276D02*
X16714967Y-4412281D01*
X16707591Y-4438345D02*
X16708558Y-4432928D01*
X16709786Y-4427607D02*
X16711269Y-4422387D01*
X16734899Y-4381137D02*
X16738541Y-4377317D01*
X24433071Y-3971369D02*
X24438487Y-3972337D01*
X24427566Y-3970670D02*
X24433071Y-3971369D01*
X24421980Y-3970245D02*
X24427566Y-3970670D01*
X16810659Y-4345243D02*
X16816320Y-4345100D01*
X16768632Y-4355947D02*
X16773504Y-4353744D01*
X16725109Y-4393597D02*
X16728176Y-4389284D01*
X16763889Y-4358376D02*
X16768632Y-4355947D01*
X16708558Y-4432928D02*
X16709786Y-4427607D01*
X16794152Y-4347335D02*
X16799568Y-4346367D01*
X24416320Y-3970102D02*
X24421980Y-3970245D01*
X16717170Y-4407409D02*
X16719599Y-4402666D01*
X16738541Y-4377317D02*
X16742361Y-4373675D01*
X16706891Y-4443850D02*
X16707591Y-4438345D01*
X24443809Y-3973565D02*
X24449029Y-3975047D01*
X16711269Y-4422387D02*
X16712998Y-4417276D01*
X16805073Y-4345668D02*
X16810659Y-4345243D01*
X16799568Y-4346367D02*
X16805073Y-4345668D01*
X16788830Y-4348563D02*
X16794152Y-4347335D01*
X16773504Y-4353744D02*
X16778500Y-4351775D01*
X16746352Y-4370218D02*
X16750507Y-4366953D01*
X16731441Y-4385129D02*
X16734899Y-4381137D01*
X16728176Y-4389284D02*
X16731441Y-4385129D01*
X16750507Y-4366953D02*
X16754820Y-4363886D01*
X16759283Y-4361025D02*
X16763889Y-4358376D01*
X16722248Y-4398059D02*
X16725109Y-4393597D01*
X16754820Y-4363886D02*
X16759283Y-4361025D01*
X16742361Y-4373675D02*
X16746352Y-4370218D01*
X24459135Y-3978746D02*
X24464007Y-3980949D01*
X24454140Y-3976776D02*
X24459135Y-3978746D01*
X24449029Y-3975047D02*
X24454140Y-3976776D01*
X24438487Y-3972337D02*
X24443809Y-3973565D01*
X16783610Y-4350045D02*
X16788830Y-4348563D01*
X16917671Y-4497911D02*
X16915469Y-4502783D01*
X16922853Y-4482585D02*
X16921370Y-4487805D01*
X16734899Y-4529055D02*
X16731441Y-4525063D01*
X16833071Y-4563825D02*
X16827566Y-4564524D01*
X16849029Y-4560147D02*
X16843809Y-4561629D01*
X16868750Y-4551816D02*
X16864007Y-4554245D01*
X16877819Y-4546306D02*
X16873356Y-4549167D01*
X16843809Y-4561629D02*
X16838487Y-4562857D01*
X16859135Y-4556448D02*
X16854140Y-4558417D01*
X16738541Y-4532875D02*
X16734899Y-4529055D01*
X16925748Y-4466342D02*
X16925048Y-4471847D01*
X16925048Y-4471847D02*
X16924081Y-4477264D01*
X16717170Y-4502783D02*
X16714967Y-4497911D01*
X16731441Y-4525063D02*
X16728176Y-4520908D01*
X16768632Y-4554245D02*
X16763889Y-4551816D01*
X16827566Y-4564524D02*
X16821980Y-4564949D01*
X16773504Y-4556448D02*
X16768632Y-4554245D01*
X16788830Y-4561629D02*
X16783610Y-4560147D01*
X16886287Y-4539974D02*
X16882132Y-4543239D01*
X16894098Y-4532875D02*
X16890278Y-4536517D01*
X16805073Y-4564524D02*
X16799568Y-4563825D01*
X16921370Y-4487805D02*
X16919641Y-4492916D01*
X16897740Y-4529055D02*
X16894098Y-4532875D01*
X16864007Y-4554245D02*
X16859135Y-4556448D01*
X16913039Y-4507526D02*
X16910391Y-4512133D01*
X16709786Y-4482585D02*
X16708558Y-4477264D01*
X16754820Y-4546306D02*
X16750507Y-4543239D01*
X16763889Y-4551816D02*
X16759283Y-4549167D01*
X16838487Y-4562857D02*
X16833071Y-4563825D01*
X16759283Y-4549167D02*
X16754820Y-4546306D01*
X16821980Y-4564949D02*
X16816320Y-4565092D01*
X16873356Y-4549167D02*
X16868750Y-4551816D01*
X16924081Y-4477264D02*
X16922853Y-4482585D01*
X16910391Y-4512133D02*
X16907530Y-4516595D01*
X16854140Y-4558417D02*
X16849029Y-4560147D01*
X16711269Y-4487805D02*
X16709786Y-4482585D01*
X16706466Y-4449436D02*
X16706891Y-4443850D01*
X16706323Y-4455096D02*
X16706466Y-4449436D01*
X16706466Y-4460756D02*
X16706323Y-4455096D01*
X16706891Y-4466342D02*
X16706466Y-4460756D01*
X16907530Y-4516595D02*
X16904463Y-4520908D01*
X16778500Y-4558417D02*
X16773504Y-4556448D01*
X16742361Y-4536517D02*
X16738541Y-4532875D01*
X16707591Y-4471847D02*
X16706891Y-4466342D01*
X16708558Y-4477264D02*
X16707591Y-4471847D01*
X16712998Y-4492916D02*
X16711269Y-4487805D01*
X16746352Y-4539974D02*
X16742361Y-4536517D01*
X16890278Y-4536517D02*
X16886287Y-4539974D01*
X16714967Y-4497911D02*
X16712998Y-4492916D01*
X16719599Y-4507526D02*
X16717170Y-4502783D01*
X16783610Y-4560147D02*
X16778500Y-4558417D01*
X16919641Y-4492916D02*
X16917671Y-4497911D01*
X16794152Y-4562857D02*
X16788830Y-4561629D01*
X16882132Y-4543239D02*
X16877819Y-4546306D01*
X16901198Y-4525063D02*
X16897740Y-4529055D01*
X16750507Y-4543239D02*
X16746352Y-4539974D01*
X16915469Y-4502783D02*
X16913039Y-4507526D01*
X16810659Y-4564949D02*
X16805073Y-4564524D01*
X16904463Y-4520908D02*
X16901198Y-4525063D01*
X16816320Y-4565092D02*
X16810659Y-4564949D01*
X16722248Y-4512133D02*
X16719599Y-4507526D01*
X16725109Y-4516595D02*
X16722248Y-4512133D01*
X16799568Y-4563825D02*
X16794152Y-4562857D01*
X16728176Y-4520908D02*
X16725109Y-4516595D01*
X16759283Y-6236018D02*
X16763889Y-6233369D01*
X16922853Y-4427607D02*
X16924081Y-4432928D01*
X16917671Y-4412281D02*
X16919641Y-4417276D01*
X16783610Y-6225039D02*
X16788830Y-6223556D01*
X16778500Y-6226768D02*
X16783610Y-6225039D01*
X16816320Y-4345100D02*
X16821980Y-4345243D01*
X16725109Y-6268590D02*
X16728176Y-6264277D01*
X16910391Y-4398059D02*
X16913039Y-4402666D01*
X16901198Y-4385129D02*
X16904463Y-4389284D01*
X16707591Y-6313338D02*
X16708558Y-6307922D01*
X16894098Y-4377317D02*
X16897740Y-4381137D01*
X16843809Y-4348563D02*
X16849029Y-4350045D01*
X16859135Y-4353744D02*
X16864007Y-4355947D01*
X16854140Y-4351775D02*
X16859135Y-4353744D01*
X16738541Y-6252311D02*
X16742361Y-6248669D01*
X16849029Y-4350045D02*
X16854140Y-4351775D01*
X16773504Y-6228738D02*
X16778500Y-6226768D01*
X16712998Y-6292269D02*
X16714967Y-6287274D01*
X16728176Y-6264277D02*
X16731441Y-6260122D01*
X16709786Y-6302600D02*
X16711269Y-6297380D01*
X16890278Y-4373675D02*
X16894098Y-4377317D01*
X16868750Y-4358376D02*
X16873356Y-4361025D01*
X16838487Y-4347335D02*
X16843809Y-4348563D01*
X16734899Y-6256131D02*
X16738541Y-6252311D01*
X16805073Y-6220661D02*
X16810659Y-6220237D01*
X16810659Y-6220237D02*
X16816320Y-6220093D01*
X16746352Y-6245211D02*
X16750507Y-6241946D01*
X16717170Y-6282402D02*
X16719599Y-6277659D01*
X16768632Y-6230940D02*
X16773504Y-6228738D01*
X16754820Y-6238879D02*
X16759283Y-6236018D01*
X16827566Y-4345668D02*
X16833071Y-4346367D01*
X16925748Y-4443850D02*
X16926172Y-4449436D01*
X16731441Y-6260122D02*
X16734899Y-6256131D01*
X16714967Y-6287274D02*
X16717170Y-6282402D01*
X16722248Y-6273053D02*
X16725109Y-6268590D01*
X16877819Y-4363886D02*
X16882132Y-4366953D01*
X16742361Y-6248669D02*
X16746352Y-6245211D01*
X16706891Y-6318843D02*
X16707591Y-6313338D01*
X16873356Y-4361025D02*
X16877819Y-4363886D01*
X16926172Y-4460756D02*
X16925748Y-4466342D01*
X16926316Y-4455096D02*
X16926172Y-4460756D01*
X16921370Y-4422387D02*
X16922853Y-4427607D01*
X16926172Y-4449436D02*
X16926316Y-4455096D01*
X16925048Y-4438345D02*
X16925748Y-4443850D01*
X16750507Y-6241946D02*
X16754820Y-6238879D01*
X16919641Y-4417276D02*
X16921370Y-4422387D01*
X16915469Y-4407409D02*
X16917671Y-4412281D01*
X16882132Y-4366953D02*
X16886287Y-4370218D01*
X16821980Y-4345243D02*
X16827566Y-4345668D01*
X16794152Y-6222328D02*
X16799568Y-6221361D01*
X16864007Y-4355947D02*
X16868750Y-4358376D01*
X16897740Y-4381137D02*
X16901198Y-4385129D01*
X16833071Y-4346367D02*
X16838487Y-4347335D01*
X16913039Y-4402666D02*
X16915469Y-4407409D01*
X16788830Y-6223556D02*
X16794152Y-6222328D01*
X16708558Y-6307922D02*
X16709786Y-6302600D01*
X16907530Y-4393597D02*
X16910391Y-4398059D01*
X16886287Y-4370218D02*
X16890278Y-4373675D01*
X16719599Y-6277659D02*
X16722248Y-6273053D01*
X16904463Y-4389284D02*
X16907530Y-4393597D01*
X16799568Y-6221361D02*
X16805073Y-6220661D01*
X16763889Y-6233369D02*
X16768632Y-6230940D01*
X16711269Y-6297380D02*
X16712998Y-6292269D01*
X16924081Y-4432928D02*
X16925048Y-4438345D01*
X16913039Y-6382520D02*
X16910391Y-6387126D01*
X16877819Y-6421300D02*
X16873356Y-6424161D01*
X16894098Y-6407868D02*
X16890278Y-6411511D01*
X16746352Y-6414968D02*
X16742361Y-6411511D01*
X16864007Y-6429239D02*
X16859135Y-6431442D01*
X16854140Y-6433411D02*
X16849029Y-6435141D01*
X16922853Y-6357579D02*
X16921370Y-6362799D01*
X16794152Y-6437851D02*
X16788830Y-6436623D01*
X16919641Y-6367910D02*
X16917671Y-6372905D01*
X16925048Y-6346841D02*
X16924081Y-6352257D01*
X16925748Y-6341336D02*
X16925048Y-6346841D01*
X16717170Y-6377777D02*
X16714967Y-6372905D01*
X16722248Y-6387126D02*
X16719599Y-6382520D01*
X16910391Y-6387126D02*
X16907530Y-6391589D01*
X16754820Y-6421300D02*
X16750507Y-6418233D01*
X16827566Y-6439518D02*
X16821980Y-6439943D01*
X16838487Y-6437851D02*
X16833071Y-6438818D01*
X16924081Y-6352257D02*
X16922853Y-6357579D01*
X16810659Y-6439943D02*
X16805073Y-6439518D01*
X16843809Y-6436623D02*
X16838487Y-6437851D01*
X16915469Y-6377777D02*
X16913039Y-6382520D01*
X16714967Y-6372905D02*
X16712998Y-6367910D01*
X16719599Y-6382520D02*
X16717170Y-6377777D01*
X16725109Y-6391589D02*
X16722248Y-6387126D01*
X16759283Y-6424161D02*
X16754820Y-6421300D01*
X16734899Y-6404048D02*
X16731441Y-6400057D01*
X16873356Y-6424161D02*
X16868750Y-6426810D01*
X16901198Y-6400057D02*
X16897740Y-6404048D01*
X16904463Y-6395902D02*
X16901198Y-6400057D01*
X16711269Y-6362799D02*
X16709786Y-6357579D01*
X16788830Y-6436623D02*
X16783610Y-6435141D01*
X16859135Y-6431442D02*
X16854140Y-6433411D01*
X16886287Y-6414968D02*
X16882132Y-6418233D01*
X16868750Y-6426810D02*
X16864007Y-6429239D01*
X16890278Y-6411511D02*
X16886287Y-6414968D01*
X16907530Y-6391589D02*
X16904463Y-6395902D01*
X16706466Y-6324429D02*
X16706891Y-6318843D01*
X16708558Y-6352257D02*
X16707591Y-6346841D01*
X16709786Y-6357579D02*
X16708558Y-6352257D01*
X16728176Y-6395902D02*
X16725109Y-6391589D01*
X16731441Y-6400057D02*
X16728176Y-6395902D01*
X16821980Y-6439943D02*
X16816320Y-6440086D01*
X16833071Y-6438818D02*
X16827566Y-6439518D01*
X16778500Y-6433411D02*
X16773504Y-6431442D01*
X16799568Y-6438818D02*
X16794152Y-6437851D01*
X16750507Y-6418233D02*
X16746352Y-6414968D01*
X16805073Y-6439518D02*
X16799568Y-6438818D01*
X16738541Y-6407868D02*
X16734899Y-6404048D01*
X16773504Y-6431442D02*
X16768632Y-6429239D01*
X16763889Y-6426810D02*
X16759283Y-6424161D01*
X16816320Y-6440086D02*
X16810659Y-6439943D01*
X16897740Y-6404048D02*
X16894098Y-6407868D01*
X16768632Y-6429239D02*
X16763889Y-6426810D01*
X16917671Y-6372905D02*
X16915469Y-6377777D01*
X16783610Y-6435141D02*
X16778500Y-6433411D01*
X16706323Y-6330089D02*
X16706466Y-6324429D01*
X16707591Y-6346841D02*
X16706891Y-6341336D01*
X16882132Y-6418233D02*
X16877819Y-6421300D01*
X16706466Y-6335750D02*
X16706323Y-6330089D01*
X16706891Y-6341336D02*
X16706466Y-6335750D01*
X16712998Y-6367910D02*
X16711269Y-6362799D01*
X16921370Y-6362799D02*
X16919641Y-6367910D01*
X16742361Y-6411511D02*
X16738541Y-6407868D01*
X16849029Y-6435141D02*
X16843809Y-6436623D01*
X16833071Y-6221361D02*
X16838487Y-6222328D01*
X16877819Y-6238879D02*
X16882132Y-6241946D01*
X16859135Y-6228738D02*
X16864007Y-6230940D01*
X16886287Y-6245211D02*
X16890278Y-6248669D01*
X16873356Y-6236018D02*
X16877819Y-6238879D01*
X16882132Y-6241946D02*
X16886287Y-6245211D01*
X16868750Y-6233369D02*
X16873356Y-6236018D01*
X16925748Y-6318843D02*
X16926172Y-6324429D01*
X16913039Y-6277659D02*
X16915469Y-6282402D01*
X16924081Y-6307922D02*
X16925048Y-6313338D01*
X16915469Y-6282402D02*
X16917671Y-6287274D01*
X16816320Y-6220093D02*
X16821980Y-6220237D01*
X16921370Y-6297380D02*
X16922853Y-6302600D01*
X16910391Y-6273053D02*
X16913039Y-6277659D01*
X16907530Y-6268590D02*
X16910391Y-6273053D01*
X16849029Y-6225039D02*
X16854140Y-6226768D01*
X16901198Y-6260122D02*
X16904463Y-6264277D01*
X16897740Y-6256131D02*
X16901198Y-6260122D01*
X16890278Y-6248669D02*
X16894098Y-6252311D01*
X16843809Y-6223556D02*
X16849029Y-6225039D01*
X16827566Y-6220661D02*
X16833071Y-6221361D01*
X16864007Y-6230940D02*
X16868750Y-6233369D01*
X16838487Y-6222328D02*
X16843809Y-6223556D01*
X16926172Y-6335750D02*
X16925748Y-6341336D01*
X16926316Y-6330089D02*
X16926172Y-6335750D01*
X16922853Y-6302600D02*
X16924081Y-6307922D01*
X16926172Y-6324429D02*
X16926316Y-6330089D01*
X16917671Y-6287274D02*
X16919641Y-6292269D01*
X16925048Y-6313338D02*
X16925748Y-6318843D01*
X16854140Y-6226768D02*
X16859135Y-6228738D01*
X16821980Y-6220237D02*
X16827566Y-6220661D01*
X16904463Y-6264277D02*
X16907530Y-6268590D01*
X16919641Y-6292269D02*
X16921370Y-6297380D01*
X16894098Y-6252311D02*
X16897740Y-6256131D01*
X24524081Y-4102276D02*
X24522853Y-4107599D01*
X24525048Y-4096857D02*
X24524081Y-4102276D01*
X24504463Y-4014286D02*
X24507530Y-4018598D01*
X24524081Y-4057930D02*
X24525048Y-4063347D01*
X24517672Y-4037283D02*
X24519641Y-4042278D01*
X24482132Y-3991954D02*
X24486287Y-3995220D01*
X24383611Y-4185152D02*
X24378500Y-4183423D01*
X24510391Y-4023061D02*
X24513040Y-4027668D01*
X24433071Y-4188827D02*
X24427566Y-4189527D01*
X24443809Y-4186633D02*
X24438487Y-4187861D01*
X24507530Y-4018598D02*
X24510391Y-4023061D01*
X24494098Y-4157890D02*
X24490278Y-4161531D01*
X24482132Y-4168252D02*
X24477819Y-4171317D01*
X24486287Y-4164987D02*
X24482132Y-4168252D01*
X24522853Y-4052608D02*
X24524081Y-4057930D01*
X24490278Y-4161531D02*
X24486287Y-4164987D01*
X24525748Y-4091350D02*
X24525048Y-4096857D01*
X24388831Y-4186633D02*
X24383611Y-4185152D01*
X24449029Y-4185152D02*
X24443809Y-4186633D01*
X24501198Y-4010130D02*
X24504463Y-4014286D01*
X24497740Y-4006139D02*
X24501198Y-4010130D01*
X24473356Y-4174177D02*
X24468750Y-4176825D01*
X24477819Y-3988888D02*
X24482132Y-3991954D01*
X24497740Y-4154070D02*
X24494098Y-4157890D01*
X24517672Y-4122928D02*
X24515469Y-4127801D01*
X24468750Y-3983378D02*
X24473356Y-3986026D01*
X24515469Y-4127801D02*
X24513040Y-4132544D01*
X24486287Y-3995220D02*
X24490278Y-3998677D01*
X24464007Y-3980949D02*
X24468750Y-3983378D01*
X24526173Y-4085761D02*
X24525748Y-4091350D01*
X24504463Y-4145925D02*
X24501198Y-4150080D01*
X24394152Y-4187861D02*
X24388831Y-4186633D01*
X24405073Y-4189527D02*
X24399569Y-4188827D01*
X24410659Y-4189951D02*
X24405073Y-4189527D01*
X24464007Y-4179253D02*
X24459135Y-4181455D01*
X24526173Y-4074437D02*
X24526316Y-4080098D01*
X24468750Y-4176825D02*
X24464007Y-4179253D01*
X24513040Y-4027668D02*
X24515469Y-4032410D01*
X24521370Y-4047389D02*
X24522853Y-4052608D01*
X24427566Y-4189527D02*
X24421980Y-4189951D01*
X24513040Y-4132544D02*
X24510391Y-4137150D01*
X24438487Y-4187861D02*
X24433071Y-4188827D01*
X24459135Y-4181455D02*
X24454140Y-4183423D01*
X24507530Y-4141613D02*
X24504463Y-4145925D01*
X24525748Y-4068851D02*
X24526173Y-4074437D01*
X24519641Y-4042278D02*
X24521370Y-4047389D01*
X24494098Y-4002319D02*
X24497740Y-4006139D01*
X24515469Y-4032410D02*
X24517672Y-4037283D01*
X24473356Y-3986026D02*
X24477819Y-3988888D01*
X24521370Y-4112820D02*
X24519641Y-4117932D01*
X24477819Y-4171317D02*
X24473356Y-4174177D01*
X24399569Y-4188827D02*
X24394152Y-4187861D01*
X24501198Y-4150080D02*
X24497740Y-4154070D01*
X24490278Y-3998677D02*
X24494098Y-4002319D01*
X24416320Y-4190094D02*
X24410659Y-4189951D01*
X24522853Y-4107599D02*
X24521370Y-4112820D01*
X24373505Y-4181455D02*
X24368633Y-4179253D01*
X24525048Y-4063347D02*
X24525748Y-4068851D01*
X24454140Y-4183423D02*
X24449029Y-4185152D01*
X24378500Y-4183423D02*
X24373505Y-4181455D01*
X24519641Y-4117932D02*
X24517672Y-4122928D01*
X24421980Y-4189951D02*
X24416320Y-4190094D01*
X24526316Y-4080098D02*
X24526173Y-4085761D01*
X24510391Y-4137150D02*
X24507530Y-4141613D01*
D11*
X22467624Y-2057189D02*
X22472549Y-2078867D01*
X22485809Y-2095776D01*
X22505115Y-2105625D01*
X22517611Y-2107202D01*
X18304334Y-8207284D02*
X16105333Y-8207208D01*
X22517636Y-2107202D02*
X23705333Y-2107050D01*
X20617413Y-2107050D02*
X19906333Y-2107050D01*
X15017633Y-2582207D02*
X14995955Y-2587132D01*
X14979046Y-2600392D01*
X14969197Y-2619698D01*
X14967620Y-2632194D01*
X28292523Y-2582029D02*
X26317624Y-2582207D01*
X24317427Y-2107050D02*
X23705333Y-2107050D01*
X28342561Y-2632067D02*
X28342561Y-8579471D01*
X22417509Y-1882006D02*
X20717489Y-1882006D01*
X26267612Y-2407201D02*
X26262686Y-2385523D01*
X26249426Y-2368615D01*
X26230121Y-2358766D01*
X26217625Y-2357189D01*
X20667629Y-1932196D02*
X20667451Y-2057012D01*
X14967620Y-8157197D02*
X14972556Y-8178873D01*
X14985825Y-8195774D01*
X15005136Y-8205613D01*
X15017632Y-8207184D01*
X18717622Y-2582207D02*
X18739300Y-2577282D01*
X18756209Y-2564021D01*
X18766057Y-2544715D01*
X18767634Y-2532219D01*
X22517611Y-2107202D02*
X22517636Y-2107202D01*
X24367465Y-2306947D02*
X24367465Y-2157088D01*
X18817621Y-2107202D02*
X18795952Y-2112135D01*
X18779052Y-2125396D01*
X18769210Y-2144698D01*
X18767634Y-2157189D01*
X24367618Y-2307201D02*
X24372554Y-2328877D01*
X24385823Y-2345779D01*
X24405134Y-2355618D01*
X24417630Y-2357189D01*
X24367618Y-2157189D02*
X24362685Y-2135520D01*
X24349424Y-2118620D01*
X24330122Y-2108778D01*
X24317631Y-2107202D01*
X28319904Y-8666948D02*
X28328852Y-8649062D01*
X28336400Y-8627600D01*
X28341018Y-8605336D01*
X28342627Y-8582566D01*
X28342613Y-8579700D01*
X25375133Y-10172177D02*
X26804541Y-10998285D01*
X26317600Y-2582207D02*
X26317624Y-2582207D01*
X20717616Y-1882183D02*
X20695940Y-1887119D01*
X20679038Y-1900388D01*
X20669200Y-1919699D01*
X20667629Y-1932196D01*
X18767533Y-2157088D02*
X18767533Y-2531991D01*
X20617617Y-2107202D02*
X20639295Y-2102277D01*
X20656203Y-2089016D01*
X20666051Y-2069710D01*
X20667629Y-2057215D01*
X19753277Y-9667556D02*
X21607276Y-9667556D01*
X25375133Y-10172177D02*
X25354963Y-10166754D01*
X25334511Y-10162576D01*
X25313835Y-10159655D01*
X25309677Y-10159223D01*
X14967620Y-2632194D02*
X14967443Y-8157070D01*
X26267612Y-2532195D02*
X26272537Y-2553873D01*
X26285798Y-2570781D01*
X26305104Y-2580630D01*
X26317600Y-2582207D01*
X26267383Y-2407023D02*
X26267612Y-2532195D01*
X18717495Y-2582029D02*
X15017633Y-2582207D01*
X22467547Y-2057012D02*
X22467547Y-1932044D01*
X15017632Y-8207184D02*
X15017633Y-8207184D01*
X18767634Y-2532219D02*
X18767634Y-2532195D01*
X20667629Y-2057215D02*
X20667629Y-2057189D01*
X21607276Y-9667556D02*
X25309677Y-10159223D01*
X22467624Y-1932196D02*
X22462699Y-1910518D01*
X22449438Y-1893609D01*
X22430132Y-1883761D01*
X22417636Y-1882183D01*
X26217599Y-2356985D02*
X24417503Y-2356985D01*
X28342613Y-2632194D02*
X28337680Y-2610525D01*
X28324419Y-2593625D01*
X28305116Y-2583783D01*
X28292625Y-2582207D01*
X20667629Y-1932196D02*
X20667629Y-1932196D01*
X18698974Y-8221840D02*
X18681621Y-8210542D01*
X18663618Y-8207184D01*
X14967620Y-2632194D02*
X14967620Y-2632194D01*
X26997353Y-10960338D02*
X28319955Y-8667101D01*
X18698974Y-8221840D02*
X19717920Y-9652900D01*
X19717920Y-9652900D02*
X19735273Y-9664198D01*
X19753277Y-9667556D01*
X15017633Y-8207184D02*
X16105333Y-8207208D01*
X18663618Y-8207184D02*
X18304334Y-8207284D01*
X18817621Y-2107202D02*
X19923333Y-2107202D01*
D10*
X13951544Y-9173480D02*
X13251563Y-10385906D01*
X12739118Y-8473463D02*
X13951544Y-9173480D01*
X12039136Y-9685890D02*
X12739118Y-8473463D01*
X13251563Y-10385906D02*
X12039136Y-9685890D01*
X11626834Y-8560696D02*
X11264498Y-9912998D01*
X10274532Y-8198357D02*
X11626834Y-8560696D01*
X9912194Y-9550660D02*
X10274532Y-8198357D01*
X11264498Y-9912998D02*
X9912194Y-9550660D01*
X9373285Y-8084631D02*
X9373285Y-9484665D01*
X7973253Y-8084631D02*
X9373285Y-8084631D01*
X7973253Y-9484665D02*
X7973253Y-8084631D01*
X9373285Y-9484665D02*
X7973253Y-9484665D01*
X12221613Y-6357325D02*
X12221613Y-7757324D01*
X10821578Y-6357325D02*
X12221613Y-6357325D01*
X10821578Y-7757324D02*
X10821578Y-6357325D01*
X12221613Y-7757324D02*
X10821578Y-7757324D01*
X12221613Y-4457335D02*
X12221613Y-5857369D01*
X10821578Y-4457335D02*
X12221613Y-4457335D01*
X10821578Y-5857369D02*
X10821578Y-4457335D01*
X12221613Y-5857369D02*
X10821578Y-5857369D01*
X12221613Y-2557311D02*
X12221613Y-3957343D01*
X10821578Y-2557311D02*
X12221613Y-2557311D01*
X10821578Y-3957343D02*
X10821578Y-2557311D01*
X12221613Y-3957343D02*
X10821578Y-3957343D01*
X10321446Y-6118848D02*
X10321446Y-7518847D01*
X8921413Y-6118848D02*
X10321446Y-6118848D01*
X8921413Y-7518847D02*
X8921413Y-6118848D01*
X10321446Y-7518847D02*
X8921413Y-7518847D01*
X10321446Y-4218858D02*
X10321446Y-5618857D01*
X8921413Y-4218858D02*
X10321446Y-4218858D01*
X8921413Y-5618857D02*
X8921413Y-4218858D01*
X10321446Y-5618857D02*
X8921413Y-5618857D01*
X10321446Y-2318868D02*
X10321446Y-3718866D01*
X8921413Y-2318868D02*
X10321446Y-2318868D01*
X8921413Y-3718866D02*
X8921413Y-2318868D01*
X10321446Y-3718866D02*
X8921413Y-3718866D01*
X8421315Y-5881394D02*
X8421315Y-7281392D01*
X7021317Y-5881394D02*
X8421315Y-5881394D01*
X7021317Y-7281392D02*
X7021317Y-5881394D01*
X8421315Y-7281392D02*
X7021317Y-7281392D01*
X8421315Y-3981403D02*
X8421315Y-5381402D01*
X7021317Y-3981403D02*
X8421315Y-3981403D01*
X7021317Y-5381402D02*
X7021317Y-3981403D01*
X8421315Y-5381402D02*
X7021317Y-5381402D01*
X8421315Y-2081379D02*
X8421315Y-3481413D01*
X7021317Y-2081379D02*
X8421315Y-2081379D01*
X7021317Y-3481413D02*
X7021317Y-2081379D01*
X8421315Y-3481413D02*
X7021317Y-3481413D01*
X6521112Y-6119272D02*
X6521112Y-7519270D01*
X5121114Y-6119272D02*
X6521112Y-6119272D01*
X5121114Y-7519270D02*
X5121114Y-6119272D01*
X6521112Y-7519270D02*
X5121114Y-7519270D01*
X6521112Y-4219281D02*
X6521112Y-5619315D01*
X5121114Y-4219281D02*
X6521112Y-4219281D01*
X5121114Y-5619315D02*
X5121114Y-4219281D01*
X6521112Y-5619315D02*
X5121114Y-5619315D01*
X6521112Y-2319257D02*
X6521112Y-3719289D01*
X5121114Y-2319257D02*
X6521112Y-2319257D01*
X5121114Y-3719289D02*
X5121114Y-2319257D01*
X6521112Y-3719289D02*
X5121114Y-3719289D01*
X4621086Y-6593758D02*
X4621086Y-7993757D01*
X3221088Y-6593758D02*
X4621086Y-6593758D01*
X3221088Y-7993757D02*
X3221088Y-6593758D01*
X4621086Y-7993757D02*
X3221088Y-7993757D01*
X4621086Y-4693768D02*
X4621086Y-6093766D01*
X3221088Y-4693768D02*
X4621086Y-4693768D01*
X3221088Y-6093766D02*
X3221088Y-4693768D01*
X4621086Y-6093766D02*
X3221088Y-6093766D01*
X4621086Y-2793776D02*
X4621086Y-4193776D01*
X3221088Y-2793776D02*
X4621086Y-2793776D01*
X3221088Y-4193776D02*
X3221088Y-2793776D01*
X4621086Y-4193776D02*
X3221088Y-4193776D01*
X2721274Y-6593829D02*
X2721274Y-7993828D01*
X1321276Y-6593829D02*
X2721274Y-6593829D01*
X1321276Y-7993828D02*
X1321276Y-6593829D01*
X2721274Y-7993828D02*
X1321276Y-7993828D01*
X2721274Y-4693839D02*
X2721274Y-6093837D01*
X1321276Y-4693839D02*
X2721274Y-4693839D01*
X1321276Y-6093837D02*
X1321276Y-4693839D01*
X2721274Y-6093837D02*
X1321276Y-6093837D01*
X2721274Y-2793847D02*
X2721274Y-4193847D01*
X1321276Y-2793847D02*
X2721274Y-2793847D01*
X1321276Y-4193847D02*
X1321276Y-2793847D01*
X2721274Y-4193847D02*
X1321276Y-4193847D01*
X14569098Y-8020110D02*
X14569241Y-8025774D01*
X14568674Y-8014521D02*
X14569098Y-8020110D01*
X14567974Y-8009014D02*
X14568674Y-8014521D01*
X14567007Y-8003596D02*
X14567974Y-8009014D01*
X14565778Y-7998272D02*
X14567007Y-8003596D01*
X14564296Y-7993051D02*
X14565778Y-7998272D01*
X14562567Y-7987939D02*
X14564296Y-7993051D01*
X14560597Y-7982943D02*
X14562567Y-7987939D01*
X14558394Y-7978070D02*
X14560597Y-7982943D01*
X14555965Y-7973327D02*
X14558394Y-7978070D01*
X14553316Y-7968721D02*
X14555965Y-7973327D01*
X14550455Y-7964258D02*
X14553316Y-7968721D01*
X14547388Y-7959946D02*
X14550455Y-7964258D01*
X14544123Y-7955791D02*
X14547388Y-7959946D01*
X14540666Y-7951801D02*
X14544123Y-7955791D01*
X14537023Y-7947981D02*
X14540666Y-7951801D01*
X14533203Y-7944340D02*
X14537023Y-7947981D01*
X14529212Y-7940884D02*
X14533203Y-7944340D01*
X14525056Y-7937619D02*
X14529212Y-7940884D01*
X14520744Y-7934553D02*
X14525056Y-7937619D01*
X14516281Y-7931693D02*
X14520744Y-7934553D01*
X14511675Y-7929046D02*
X14516281Y-7931693D01*
X14506932Y-7926618D02*
X14511675Y-7929046D01*
X14502059Y-7924416D02*
X14506932Y-7926618D01*
X14497064Y-7922448D02*
X14502059Y-7924416D01*
X14491953Y-7920719D02*
X14497064Y-7922448D01*
X14486733Y-7919238D02*
X14491953Y-7920719D01*
X14481412Y-7918010D02*
X14486733Y-7919238D01*
X14475995Y-7917043D02*
X14481412Y-7918010D01*
X14470490Y-7916344D02*
X14475995Y-7917043D01*
X14464904Y-7915920D02*
X14470490Y-7916344D01*
X14459244Y-7915777D02*
X14464904Y-7915920D01*
X14453584Y-7915920D02*
X14459244Y-7915777D01*
X14447998Y-7916344D02*
X14453584Y-7915920D01*
X14442493Y-7917043D02*
X14447998Y-7916344D01*
X14437076Y-7918010D02*
X14442493Y-7917043D01*
X14431754Y-7919238D02*
X14437076Y-7918010D01*
X14426535Y-7920719D02*
X14431754Y-7919238D01*
X14421424Y-7922448D02*
X14426535Y-7920719D01*
X14416429Y-7924416D02*
X14421424Y-7922448D01*
X14411556Y-7926618D02*
X14416429Y-7924416D01*
X14406813Y-7929046D02*
X14411556Y-7926618D01*
X14402207Y-7931693D02*
X14406813Y-7929046D01*
X14397744Y-7934553D02*
X14402207Y-7931693D01*
X14393431Y-7937619D02*
X14397744Y-7934553D01*
X14389276Y-7940884D02*
X14393431Y-7937619D01*
X14385285Y-7944340D02*
X14389276Y-7940884D01*
X14381465Y-7947981D02*
X14385285Y-7944340D01*
X14377822Y-7951801D02*
X14381465Y-7947981D01*
X14374365Y-7955791D02*
X14377822Y-7951801D01*
X14371099Y-7959946D02*
X14374365Y-7955791D01*
X14368033Y-7964258D02*
X14371099Y-7959946D01*
X14365171Y-7968721D02*
X14368033Y-7964258D01*
X14362523Y-7973327D02*
X14365171Y-7968721D01*
X14360094Y-7978070D02*
X14362523Y-7973327D01*
X14357891Y-7982943D02*
X14360094Y-7978070D01*
X14355921Y-7987939D02*
X14357891Y-7982943D01*
X14354192Y-7993051D02*
X14355921Y-7987939D01*
X14352709Y-7998272D02*
X14354192Y-7993051D01*
X14351481Y-8003596D02*
X14352709Y-7998272D01*
X14350514Y-8009014D02*
X14351481Y-8003596D01*
X14349814Y-8014521D02*
X14350514Y-8009014D01*
X14349389Y-8020110D02*
X14349814Y-8014521D01*
X14349246Y-8025774D02*
X14349389Y-8020110D01*
X14349389Y-8031434D02*
X14349246Y-8025774D01*
X14349814Y-8037020D02*
X14349389Y-8031434D01*
X14350514Y-8042525D02*
X14349814Y-8037020D01*
X14351481Y-8047941D02*
X14350514Y-8042525D01*
X14352709Y-8053263D02*
X14351481Y-8047941D01*
X14354192Y-8058482D02*
X14352709Y-8053263D01*
X14355921Y-8063593D02*
X14354192Y-8058482D01*
X14357891Y-8068588D02*
X14355921Y-8063593D01*
X14360094Y-8073461D02*
X14357891Y-8068588D01*
X14362523Y-8078203D02*
X14360094Y-8073461D01*
X14365171Y-8082810D02*
X14362523Y-8078203D01*
X14368033Y-8087273D02*
X14365171Y-8082810D01*
X14371099Y-8091585D02*
X14368033Y-8087273D01*
X14374365Y-8095740D02*
X14371099Y-8091585D01*
X14377822Y-8099732D02*
X14374365Y-8095740D01*
X14381465Y-8103552D02*
X14377822Y-8099732D01*
X14385285Y-8107194D02*
X14381465Y-8103552D01*
X14389276Y-8110651D02*
X14385285Y-8107194D01*
X14393431Y-8113916D02*
X14389276Y-8110651D01*
X14397744Y-8116983D02*
X14393431Y-8113916D01*
X14402207Y-8119844D02*
X14397744Y-8116983D01*
X14406813Y-8122493D02*
X14402207Y-8119844D01*
X14411556Y-8124922D02*
X14406813Y-8122493D01*
X14416429Y-8127125D02*
X14411556Y-8124922D01*
X14421424Y-8129094D02*
X14416429Y-8127125D01*
X14426535Y-8130824D02*
X14421424Y-8129094D01*
X14431754Y-8132306D02*
X14426535Y-8130824D01*
X14437076Y-8133534D02*
X14431754Y-8132306D01*
X14442493Y-8134502D02*
X14437076Y-8133534D01*
X14447998Y-8135201D02*
X14442493Y-8134502D01*
X14453584Y-8135626D02*
X14447998Y-8135201D01*
X14459244Y-8135769D02*
X14453584Y-8135626D01*
X14464904Y-8135626D02*
X14459244Y-8135769D01*
X14470490Y-8135201D02*
X14464904Y-8135626D01*
X14475995Y-8134502D02*
X14470490Y-8135201D01*
X14481412Y-8133534D02*
X14475995Y-8134502D01*
X14486733Y-8132306D02*
X14481412Y-8133534D01*
X14491953Y-8130824D02*
X14486733Y-8132306D01*
X14497064Y-8129094D02*
X14491953Y-8130824D01*
X14502059Y-8127125D02*
X14497064Y-8129094D01*
X14506932Y-8124922D02*
X14502059Y-8127125D01*
X14511675Y-8122493D02*
X14506932Y-8124922D01*
X14516281Y-8119844D02*
X14511675Y-8122493D01*
X14520744Y-8116983D02*
X14516281Y-8119844D01*
X14525056Y-8113916D02*
X14520744Y-8116983D01*
X14529212Y-8110651D02*
X14525056Y-8113916D01*
X14533203Y-8107194D02*
X14529212Y-8110651D01*
X14537023Y-8103552D02*
X14533203Y-8107194D01*
X14540666Y-8099732D02*
X14537023Y-8103552D01*
X14544123Y-8095740D02*
X14540666Y-8099732D01*
X14547388Y-8091585D02*
X14544123Y-8095740D01*
X14550455Y-8087273D02*
X14547388Y-8091585D01*
X14553316Y-8082810D02*
X14550455Y-8087273D01*
X14555965Y-8078203D02*
X14553316Y-8082810D01*
X14558394Y-8073461D02*
X14555965Y-8078203D01*
X14560597Y-8068588D02*
X14558394Y-8073461D01*
X14562567Y-8063593D02*
X14560597Y-8068588D01*
X14564296Y-8058482D02*
X14562567Y-8063593D01*
X14565778Y-8053263D02*
X14564296Y-8058482D01*
X14567007Y-8047941D02*
X14565778Y-8053263D01*
X14567974Y-8042525D02*
X14567007Y-8047941D01*
X14568674Y-8037020D02*
X14567974Y-8042525D01*
X14569098Y-8031434D02*
X14568674Y-8037020D01*
X14569241Y-8025774D02*
X14569098Y-8031434D01*
X13125913Y-7168004D02*
X13126056Y-7173665D01*
X13125488Y-7162418D02*
X13125913Y-7168004D01*
X13124789Y-7156913D02*
X13125488Y-7162418D01*
X13123821Y-7151497D02*
X13124789Y-7156913D01*
X13122593Y-7146175D02*
X13123821Y-7151497D01*
X13121111Y-7140955D02*
X13122593Y-7146175D01*
X13119382Y-7135845D02*
X13121111Y-7140955D01*
X13117412Y-7130849D02*
X13119382Y-7135845D01*
X13115209Y-7125977D02*
X13117412Y-7130849D01*
X13112780Y-7121234D02*
X13115209Y-7125977D01*
X13110132Y-7116628D02*
X13112780Y-7121234D01*
X13107271Y-7112165D02*
X13110132Y-7116628D01*
X13104204Y-7107853D02*
X13107271Y-7112165D01*
X13100938Y-7103697D02*
X13104204Y-7107853D01*
X13097481Y-7099706D02*
X13100938Y-7103697D01*
X13093839Y-7095886D02*
X13097481Y-7099706D01*
X13090019Y-7092244D02*
X13093839Y-7095886D01*
X13086028Y-7088787D02*
X13090019Y-7092244D01*
X13081872Y-7085521D02*
X13086028Y-7088787D01*
X13077560Y-7082454D02*
X13081872Y-7085521D01*
X13073097Y-7079593D02*
X13077560Y-7082454D01*
X13068490Y-7076945D02*
X13073097Y-7079593D01*
X13063748Y-7074515D02*
X13068490Y-7076945D01*
X13058875Y-7072313D02*
X13063748Y-7074515D01*
X13053880Y-7070343D02*
X13058875Y-7072313D01*
X13048769Y-7068614D02*
X13053880Y-7070343D01*
X13043549Y-7067132D02*
X13048769Y-7068614D01*
X13038227Y-7065903D02*
X13043549Y-7067132D01*
X13032810Y-7064936D02*
X13038227Y-7065903D01*
X13027305Y-7064236D02*
X13032810Y-7064936D01*
X13021719Y-7063812D02*
X13027305Y-7064236D01*
X13016058Y-7063669D02*
X13021719Y-7063812D01*
X13010395Y-7063812D02*
X13016058Y-7063669D01*
X13004807Y-7064236D02*
X13010395Y-7063812D01*
X12999300Y-7064936D02*
X13004807Y-7064236D01*
X12993881Y-7065903D02*
X12999300Y-7064936D01*
X12988558Y-7067132D02*
X12993881Y-7065903D01*
X12983337Y-7068614D02*
X12988558Y-7067132D01*
X12978225Y-7070343D02*
X12983337Y-7068614D01*
X12973229Y-7072313D02*
X12978225Y-7070343D01*
X12968357Y-7074515D02*
X12973229Y-7072313D01*
X12963614Y-7076945D02*
X12968357Y-7074515D01*
X12959007Y-7079593D02*
X12963614Y-7076945D01*
X12954545Y-7082454D02*
X12959007Y-7079593D01*
X12950233Y-7085521D02*
X12954545Y-7082454D01*
X12946078Y-7088787D02*
X12950233Y-7085521D01*
X12942087Y-7092244D02*
X12946078Y-7088787D01*
X12938268Y-7095886D02*
X12942087Y-7092244D01*
X12934627Y-7099706D02*
X12938268Y-7095886D01*
X12931171Y-7103697D02*
X12934627Y-7099706D01*
X12927906Y-7107853D02*
X12931171Y-7103697D01*
X12924840Y-7112165D02*
X12927906Y-7107853D01*
X12921980Y-7116628D02*
X12924840Y-7112165D01*
X12919333Y-7121234D02*
X12921980Y-7116628D01*
X12916905Y-7125977D02*
X12919333Y-7121234D01*
X12914703Y-7130849D02*
X12916905Y-7125977D01*
X12912735Y-7135845D02*
X12914703Y-7130849D01*
X12911006Y-7140955D02*
X12912735Y-7135845D01*
X12909525Y-7146175D02*
X12911006Y-7140955D01*
X12908297Y-7151497D02*
X12909525Y-7146175D01*
X12907331Y-7156913D02*
X12908297Y-7151497D01*
X12906632Y-7162418D02*
X12907331Y-7156913D01*
X12906207Y-7168004D02*
X12906632Y-7162418D01*
X12906064Y-7173665D02*
X12906207Y-7168004D01*
X12906207Y-7179328D02*
X12906064Y-7173665D01*
X12906632Y-7184917D02*
X12906207Y-7179328D01*
X12907331Y-7190424D02*
X12906632Y-7184917D01*
X12908297Y-7195843D02*
X12907331Y-7190424D01*
X12909525Y-7201166D02*
X12908297Y-7195843D01*
X12911006Y-7206387D02*
X12909525Y-7201166D01*
X12912735Y-7211499D02*
X12911006Y-7206387D01*
X12914703Y-7216495D02*
X12912735Y-7211499D01*
X12916905Y-7221367D02*
X12914703Y-7216495D01*
X12919333Y-7226111D02*
X12916905Y-7221367D01*
X12921980Y-7230717D02*
X12919333Y-7226111D01*
X12924840Y-7235180D02*
X12921980Y-7230717D01*
X12927906Y-7239492D02*
X12924840Y-7235180D01*
X12931171Y-7243647D02*
X12927906Y-7239492D01*
X12934627Y-7247637D02*
X12931171Y-7243647D01*
X12938268Y-7251456D02*
X12934627Y-7247637D01*
X12942087Y-7255098D02*
X12938268Y-7251456D01*
X12946078Y-7258554D02*
X12942087Y-7255098D01*
X12950233Y-7261818D02*
X12946078Y-7258554D01*
X12954545Y-7264884D02*
X12950233Y-7261818D01*
X12959007Y-7267744D02*
X12954545Y-7264884D01*
X12963614Y-7270392D02*
X12959007Y-7267744D01*
X12968357Y-7272820D02*
X12963614Y-7270392D01*
X12973229Y-7275021D02*
X12968357Y-7272820D01*
X12978225Y-7276990D02*
X12973229Y-7275021D01*
X12983337Y-7278718D02*
X12978225Y-7276990D01*
X12988558Y-7280200D02*
X12983337Y-7278718D01*
X12993881Y-7281427D02*
X12988558Y-7280200D01*
X12999300Y-7282394D02*
X12993881Y-7281427D01*
X13004807Y-7283093D02*
X12999300Y-7282394D01*
X13010395Y-7283518D02*
X13004807Y-7283093D01*
X13016058Y-7283661D02*
X13010395Y-7283518D01*
X13021719Y-7283518D02*
X13016058Y-7283661D01*
X13027305Y-7283093D02*
X13021719Y-7283518D01*
X13032810Y-7282394D02*
X13027305Y-7283093D01*
X13038227Y-7281427D02*
X13032810Y-7282394D01*
X13043549Y-7280200D02*
X13038227Y-7281427D01*
X13048769Y-7278718D02*
X13043549Y-7280200D01*
X13053880Y-7276990D02*
X13048769Y-7278718D01*
X13058875Y-7275021D02*
X13053880Y-7276990D01*
X13063748Y-7272820D02*
X13058875Y-7275021D01*
X13068490Y-7270392D02*
X13063748Y-7272820D01*
X13073097Y-7267744D02*
X13068490Y-7270392D01*
X13077560Y-7264884D02*
X13073097Y-7267744D01*
X13081872Y-7261818D02*
X13077560Y-7264884D01*
X13086028Y-7258554D02*
X13081872Y-7261818D01*
X13090019Y-7255098D02*
X13086028Y-7258554D01*
X13093839Y-7251456D02*
X13090019Y-7255098D01*
X13097481Y-7247637D02*
X13093839Y-7251456D01*
X13100938Y-7243647D02*
X13097481Y-7247637D01*
X13104204Y-7239492D02*
X13100938Y-7243647D01*
X13107271Y-7235180D02*
X13104204Y-7239492D01*
X13110132Y-7230717D02*
X13107271Y-7235180D01*
X13112780Y-7226111D02*
X13110132Y-7230717D01*
X13115209Y-7221367D02*
X13112780Y-7226111D01*
X13117412Y-7216495D02*
X13115209Y-7221367D01*
X13119382Y-7211499D02*
X13117412Y-7216495D01*
X13121111Y-7206387D02*
X13119382Y-7211499D01*
X13122593Y-7201166D02*
X13121111Y-7206387D01*
X13123821Y-7195843D02*
X13122593Y-7201166D01*
X13124789Y-7190424D02*
X13123821Y-7195843D01*
X13125488Y-7184917D02*
X13124789Y-7190424D01*
X13125913Y-7179328D02*
X13125488Y-7184917D01*
X13126056Y-7173665D02*
X13125913Y-7179328D01*
X11937081Y-8715917D02*
X11942741Y-8715774D01*
X11931495Y-8716342D02*
X11937081Y-8715917D01*
X11925990Y-8717042D02*
X11931495Y-8716342D01*
X11920573Y-8718009D02*
X11925990Y-8717042D01*
X11915252Y-8719237D02*
X11920573Y-8718009D01*
X11910032Y-8720719D02*
X11915252Y-8719237D01*
X11904921Y-8722448D02*
X11910032Y-8720719D01*
X11899926Y-8724418D02*
X11904921Y-8722448D01*
X11895054Y-8726620D02*
X11899926Y-8724418D01*
X11890311Y-8729049D02*
X11895054Y-8726620D01*
X11885705Y-8731697D02*
X11890311Y-8729049D01*
X11881242Y-8734558D02*
X11885705Y-8731697D01*
X11876929Y-8737624D02*
X11881242Y-8734558D01*
X11872774Y-8740889D02*
X11876929Y-8737624D01*
X11868783Y-8744346D02*
X11872774Y-8740889D01*
X11864963Y-8747987D02*
X11868783Y-8744346D01*
X11861320Y-8751806D02*
X11864963Y-8747987D01*
X11857863Y-8755797D02*
X11861320Y-8751806D01*
X11854598Y-8759951D02*
X11857863Y-8755797D01*
X11851531Y-8764262D02*
X11854598Y-8759951D01*
X11848670Y-8768724D02*
X11851531Y-8764262D01*
X11846021Y-8773328D02*
X11848670Y-8768724D01*
X11843592Y-8778070D02*
X11846021Y-8773328D01*
X11841389Y-8782940D02*
X11843592Y-8778070D01*
X11839420Y-8787933D02*
X11841389Y-8782940D01*
X11837690Y-8793042D02*
X11839420Y-8787933D01*
X11836208Y-8798260D02*
X11837690Y-8793042D01*
X11834980Y-8803579D02*
X11836208Y-8798260D01*
X11834013Y-8808993D02*
X11834980Y-8803579D01*
X11833313Y-8814495D02*
X11834013Y-8808993D01*
X11832888Y-8820078D02*
X11833313Y-8814495D01*
X11832745Y-8825735D02*
X11832888Y-8820078D01*
X11832888Y-8831398D02*
X11832745Y-8825735D01*
X11833313Y-8836987D02*
X11832888Y-8831398D01*
X11834013Y-8842494D02*
X11833313Y-8836987D01*
X11834980Y-8847913D02*
X11834013Y-8842494D01*
X11836208Y-8853236D02*
X11834980Y-8847913D01*
X11837690Y-8858457D02*
X11836208Y-8853236D01*
X11839420Y-8863569D02*
X11837690Y-8858457D01*
X11841389Y-8868565D02*
X11839420Y-8863569D01*
X11843592Y-8873438D02*
X11841389Y-8868565D01*
X11846021Y-8878181D02*
X11843592Y-8873438D01*
X11848670Y-8882787D02*
X11846021Y-8878181D01*
X11851531Y-8887250D02*
X11848670Y-8882787D01*
X11854598Y-8891562D02*
X11851531Y-8887250D01*
X11857863Y-8895717D02*
X11854598Y-8891562D01*
X11861320Y-8899707D02*
X11857863Y-8895717D01*
X11864963Y-8903527D02*
X11861320Y-8899707D01*
X11868783Y-8907168D02*
X11864963Y-8903527D01*
X11872774Y-8910624D02*
X11868783Y-8907168D01*
X11876929Y-8913889D02*
X11872774Y-8910624D01*
X11881242Y-8916955D02*
X11876929Y-8913889D01*
X11885705Y-8919815D02*
X11881242Y-8916955D01*
X11890311Y-8922462D02*
X11885705Y-8919815D01*
X11895054Y-8924890D02*
X11890311Y-8922462D01*
X11899926Y-8927092D02*
X11895054Y-8924890D01*
X11904921Y-8929060D02*
X11899926Y-8927092D01*
X11910032Y-8930789D02*
X11904921Y-8929060D01*
X11915252Y-8932270D02*
X11910032Y-8930789D01*
X11920573Y-8933498D02*
X11915252Y-8932270D01*
X11925990Y-8934465D02*
X11920573Y-8933498D01*
X11931495Y-8935164D02*
X11925990Y-8934465D01*
X11937081Y-8935588D02*
X11931495Y-8935164D01*
X11942741Y-8935731D02*
X11937081Y-8935588D01*
X11948401Y-8935588D02*
X11942741Y-8935731D01*
X11953987Y-8935164D02*
X11948401Y-8935588D01*
X11959492Y-8934465D02*
X11953987Y-8935164D01*
X11964909Y-8933498D02*
X11959492Y-8934465D01*
X11970230Y-8932270D02*
X11964909Y-8933498D01*
X11975450Y-8930789D02*
X11970230Y-8932270D01*
X11980561Y-8929060D02*
X11975450Y-8930789D01*
X11985556Y-8927092D02*
X11980561Y-8929060D01*
X11990428Y-8924890D02*
X11985556Y-8927092D01*
X11995171Y-8922462D02*
X11990428Y-8924890D01*
X11999777Y-8919815D02*
X11995171Y-8922462D01*
X12004240Y-8916955D02*
X11999777Y-8919815D01*
X12008553Y-8913889D02*
X12004240Y-8916955D01*
X12012708Y-8910624D02*
X12008553Y-8913889D01*
X12016699Y-8907168D02*
X12012708Y-8910624D01*
X12020519Y-8903527D02*
X12016699Y-8907168D01*
X12024161Y-8899707D02*
X12020519Y-8903527D01*
X12027619Y-8895717D02*
X12024161Y-8899707D01*
X12030884Y-8891562D02*
X12027619Y-8895717D01*
X12033951Y-8887250D02*
X12030884Y-8891562D01*
X12036812Y-8882787D02*
X12033951Y-8887250D01*
X12039460Y-8878181D02*
X12036812Y-8882787D01*
X12041890Y-8873438D02*
X12039460Y-8878181D01*
X12044092Y-8868565D02*
X12041890Y-8873438D01*
X12046062Y-8863569D02*
X12044092Y-8868565D01*
X12047791Y-8858457D02*
X12046062Y-8863569D01*
X12049273Y-8853236D02*
X12047791Y-8858457D01*
X12050502Y-8847913D02*
X12049273Y-8853236D01*
X12051469Y-8842494D02*
X12050502Y-8847913D01*
X12052169Y-8836987D02*
X12051469Y-8842494D01*
X12052593Y-8831398D02*
X12052169Y-8836987D01*
X12052736Y-8825735D02*
X12052593Y-8831398D01*
X12052593Y-8820078D02*
X12052736Y-8825735D01*
X12052169Y-8814495D02*
X12052593Y-8820078D01*
X12051469Y-8808993D02*
X12052169Y-8814495D01*
X12050502Y-8803579D02*
X12051469Y-8808993D01*
X12049273Y-8798260D02*
X12050502Y-8803579D01*
X12047791Y-8793042D02*
X12049273Y-8798260D01*
X12046062Y-8787933D02*
X12047791Y-8793042D01*
X12044092Y-8782940D02*
X12046062Y-8787933D01*
X12041890Y-8778070D02*
X12044092Y-8782940D01*
X12039460Y-8773328D02*
X12041890Y-8778070D01*
X12036812Y-8768724D02*
X12039460Y-8773328D01*
X12033951Y-8764262D02*
X12036812Y-8768724D01*
X12030884Y-8759951D02*
X12033951Y-8764262D01*
X12027619Y-8755797D02*
X12030884Y-8759951D01*
X12024161Y-8751806D02*
X12027619Y-8755797D01*
X12020519Y-8747987D02*
X12024161Y-8751806D01*
X12016699Y-8744346D02*
X12020519Y-8747987D01*
X12012708Y-8740889D02*
X12016699Y-8744346D01*
X12008553Y-8737624D02*
X12012708Y-8740889D01*
X12004240Y-8734558D02*
X12008553Y-8737624D01*
X11999777Y-8731697D02*
X12004240Y-8734558D01*
X11995171Y-8729049D02*
X11999777Y-8731697D01*
X11990428Y-8726620D02*
X11995171Y-8729049D01*
X11985556Y-8724418D02*
X11990428Y-8726620D01*
X11980561Y-8722448D02*
X11985556Y-8724418D01*
X11975450Y-8720719D02*
X11980561Y-8722448D01*
X11970230Y-8719237D02*
X11975450Y-8720719D01*
X11964909Y-8718009D02*
X11970230Y-8719237D01*
X11959492Y-8717042D02*
X11964909Y-8718009D01*
X11953987Y-8716342D02*
X11959492Y-8717042D01*
X11948401Y-8715917D02*
X11953987Y-8716342D01*
X11942741Y-8715774D02*
X11948401Y-8715917D01*
X5362684Y-8080529D02*
X5368344Y-8080385D01*
X5357098Y-8080953D02*
X5362684Y-8080529D01*
X5351593Y-8081653D02*
X5357098Y-8080953D01*
X5346176Y-8082620D02*
X5351593Y-8081653D01*
X5340855Y-8083848D02*
X5346176Y-8082620D01*
X5335635Y-8085331D02*
X5340855Y-8083848D01*
X5330524Y-8087060D02*
X5335635Y-8085331D01*
X5325529Y-8089030D02*
X5330524Y-8087060D01*
X5320657Y-8091232D02*
X5325529Y-8089030D01*
X5315914Y-8093662D02*
X5320657Y-8091232D01*
X5311307Y-8096310D02*
X5315914Y-8093662D01*
X5306845Y-8099171D02*
X5311307Y-8096310D01*
X5302532Y-8102238D02*
X5306845Y-8099171D01*
X5298377Y-8105503D02*
X5302532Y-8102238D01*
X5294385Y-8108961D02*
X5298377Y-8105503D01*
X5290565Y-8112603D02*
X5294385Y-8108961D01*
X5286923Y-8116423D02*
X5290565Y-8112603D01*
X5283466Y-8120414D02*
X5286923Y-8116423D01*
X5280201Y-8124569D02*
X5283466Y-8120414D01*
X5277134Y-8128882D02*
X5280201Y-8124569D01*
X5274273Y-8133345D02*
X5277134Y-8128882D01*
X5271624Y-8137951D02*
X5274273Y-8133345D01*
X5269195Y-8142694D02*
X5271624Y-8137951D01*
X5266992Y-8147566D02*
X5269195Y-8142694D01*
X5265023Y-8152561D02*
X5266992Y-8147566D01*
X5263293Y-8157672D02*
X5265023Y-8152561D01*
X5261811Y-8162892D02*
X5263293Y-8157672D01*
X5260583Y-8168214D02*
X5261811Y-8162892D01*
X5259615Y-8173630D02*
X5260583Y-8168214D01*
X5258916Y-8179135D02*
X5259615Y-8173630D01*
X5258491Y-8184721D02*
X5258916Y-8179135D01*
X5258348Y-8190381D02*
X5258491Y-8184721D01*
X5258491Y-8196042D02*
X5258348Y-8190381D01*
X5258916Y-8201628D02*
X5258491Y-8196042D01*
X5259615Y-8207133D02*
X5258916Y-8201628D01*
X5260583Y-8212549D02*
X5259615Y-8207133D01*
X5261811Y-8217871D02*
X5260583Y-8212549D01*
X5263293Y-8223091D02*
X5261811Y-8217871D01*
X5265023Y-8228201D02*
X5263293Y-8223091D01*
X5266992Y-8233197D02*
X5265023Y-8228201D01*
X5269195Y-8238069D02*
X5266992Y-8233197D01*
X5271624Y-8242812D02*
X5269195Y-8238069D01*
X5274273Y-8247418D02*
X5271624Y-8242812D01*
X5277134Y-8251881D02*
X5274273Y-8247418D01*
X5280201Y-8256193D02*
X5277134Y-8251881D01*
X5283466Y-8260349D02*
X5280201Y-8256193D01*
X5286923Y-8264340D02*
X5283466Y-8260349D01*
X5290565Y-8268160D02*
X5286923Y-8264340D01*
X5294385Y-8271802D02*
X5290565Y-8268160D01*
X5298377Y-8275259D02*
X5294385Y-8271802D01*
X5302532Y-8278525D02*
X5298377Y-8275259D01*
X5306845Y-8281592D02*
X5302532Y-8278525D01*
X5311307Y-8284453D02*
X5306845Y-8281592D01*
X5315914Y-8287101D02*
X5311307Y-8284453D01*
X5320657Y-8289531D02*
X5315914Y-8287101D01*
X5325529Y-8291733D02*
X5320657Y-8289531D01*
X5330524Y-8293703D02*
X5325529Y-8291733D01*
X5335635Y-8295432D02*
X5330524Y-8293703D01*
X5340855Y-8296914D02*
X5335635Y-8295432D01*
X5346176Y-8298143D02*
X5340855Y-8296914D01*
X5351593Y-8299110D02*
X5346176Y-8298143D01*
X5357098Y-8299810D02*
X5351593Y-8299110D01*
X5362684Y-8300234D02*
X5357098Y-8299810D01*
X5368344Y-8300377D02*
X5362684Y-8300234D01*
X5374004Y-8300234D02*
X5368344Y-8300377D01*
X5379590Y-8299810D02*
X5374004Y-8300234D01*
X5385095Y-8299110D02*
X5379590Y-8299810D01*
X5390512Y-8298143D02*
X5385095Y-8299110D01*
X5395833Y-8296914D02*
X5390512Y-8298143D01*
X5401053Y-8295432D02*
X5395833Y-8296914D01*
X5406164Y-8293703D02*
X5401053Y-8295432D01*
X5411159Y-8291733D02*
X5406164Y-8293703D01*
X5416031Y-8289531D02*
X5411159Y-8291733D01*
X5420774Y-8287101D02*
X5416031Y-8289531D01*
X5425381Y-8284453D02*
X5420774Y-8287101D01*
X5429843Y-8281592D02*
X5425381Y-8284453D01*
X5434156Y-8278525D02*
X5429843Y-8281592D01*
X5438311Y-8275259D02*
X5434156Y-8278525D01*
X5442303Y-8271802D02*
X5438311Y-8275259D01*
X5446123Y-8268160D02*
X5442303Y-8271802D01*
X5449765Y-8264340D02*
X5446123Y-8268160D01*
X5453222Y-8260349D02*
X5449765Y-8264340D01*
X5456487Y-8256193D02*
X5453222Y-8260349D01*
X5459554Y-8251881D02*
X5456487Y-8256193D01*
X5462415Y-8247418D02*
X5459554Y-8251881D01*
X5465064Y-8242812D02*
X5462415Y-8247418D01*
X5467493Y-8238069D02*
X5465064Y-8242812D01*
X5469696Y-8233197D02*
X5467493Y-8238069D01*
X5471665Y-8228201D02*
X5469696Y-8233197D01*
X5473395Y-8223091D02*
X5471665Y-8228201D01*
X5474877Y-8217871D02*
X5473395Y-8223091D01*
X5476105Y-8212549D02*
X5474877Y-8217871D01*
X5477073Y-8207133D02*
X5476105Y-8212549D01*
X5477772Y-8201628D02*
X5477073Y-8207133D01*
X5478197Y-8196042D02*
X5477772Y-8201628D01*
X5478340Y-8190381D02*
X5478197Y-8196042D01*
X5478197Y-8184721D02*
X5478340Y-8190381D01*
X5477772Y-8179135D02*
X5478197Y-8184721D01*
X5477073Y-8173630D02*
X5477772Y-8179135D01*
X5476105Y-8168214D02*
X5477073Y-8173630D01*
X5474877Y-8162892D02*
X5476105Y-8168214D01*
X5473395Y-8157672D02*
X5474877Y-8162892D01*
X5471665Y-8152561D02*
X5473395Y-8157672D01*
X5469696Y-8147566D02*
X5471665Y-8152561D01*
X5467493Y-8142694D02*
X5469696Y-8147566D01*
X5465064Y-8137951D02*
X5467493Y-8142694D01*
X5462415Y-8133345D02*
X5465064Y-8137951D01*
X5459554Y-8128882D02*
X5462415Y-8133345D01*
X5456487Y-8124569D02*
X5459554Y-8128882D01*
X5453222Y-8120414D02*
X5456487Y-8124569D01*
X5449765Y-8116423D02*
X5453222Y-8120414D01*
X5446123Y-8112603D02*
X5449765Y-8116423D01*
X5442303Y-8108961D02*
X5446123Y-8112603D01*
X5438311Y-8105503D02*
X5442303Y-8108961D01*
X5434156Y-8102238D02*
X5438311Y-8105503D01*
X5429843Y-8099171D02*
X5434156Y-8102238D01*
X5425381Y-8096310D02*
X5429843Y-8099171D01*
X5420774Y-8093662D02*
X5425381Y-8096310D01*
X5416031Y-8091232D02*
X5420774Y-8093662D01*
X5411159Y-8089030D02*
X5416031Y-8091232D01*
X5406164Y-8087060D02*
X5411159Y-8089030D01*
X5401053Y-8085331D02*
X5406164Y-8087060D01*
X5395833Y-8083848D02*
X5401053Y-8085331D01*
X5390512Y-8082620D02*
X5395833Y-8083848D01*
X5385095Y-8081653D02*
X5390512Y-8082620D01*
X5379590Y-8080953D02*
X5385095Y-8081653D01*
X5374004Y-8080529D02*
X5379590Y-8080953D01*
X5368344Y-8080385D02*
X5374004Y-8080529D01*
X10562077Y-3965889D02*
X10567737Y-3965746D01*
X10556491Y-3966314D02*
X10562077Y-3965889D01*
X10550986Y-3967014D02*
X10556491Y-3966314D01*
X10545569Y-3967981D02*
X10550986Y-3967014D01*
X10540248Y-3969209D02*
X10545569Y-3967981D01*
X10535028Y-3970691D02*
X10540248Y-3969209D01*
X10529917Y-3972421D02*
X10535028Y-3970691D01*
X10524922Y-3974390D02*
X10529917Y-3972421D01*
X10520050Y-3976593D02*
X10524922Y-3974390D01*
X10515307Y-3979022D02*
X10520050Y-3976593D01*
X10510701Y-3981671D02*
X10515307Y-3979022D01*
X10506238Y-3984532D02*
X10510701Y-3981671D01*
X10501925Y-3987599D02*
X10506238Y-3984532D01*
X10497770Y-3990864D02*
X10501925Y-3987599D01*
X10493779Y-3994321D02*
X10497770Y-3990864D01*
X10489959Y-3997964D02*
X10493779Y-3994321D01*
X10486317Y-4001784D02*
X10489959Y-3997964D01*
X10482859Y-4005775D02*
X10486317Y-4001784D01*
X10479594Y-4009930D02*
X10482859Y-4005775D01*
X10476527Y-4014243D02*
X10479594Y-4009930D01*
X10473666Y-4018706D02*
X10476527Y-4014243D01*
X10471018Y-4023312D02*
X10473666Y-4018706D01*
X10468588Y-4028055D02*
X10471018Y-4023312D01*
X10466386Y-4032927D02*
X10468588Y-4028055D01*
X10464416Y-4037922D02*
X10466386Y-4032927D01*
X10462687Y-4043033D02*
X10464416Y-4037922D01*
X10461204Y-4048253D02*
X10462687Y-4043033D01*
X10459976Y-4053574D02*
X10461204Y-4048253D01*
X10459009Y-4058991D02*
X10459976Y-4053574D01*
X10458309Y-4064496D02*
X10459009Y-4058991D01*
X10457885Y-4070082D02*
X10458309Y-4064496D01*
X10457741Y-4075742D02*
X10457885Y-4070082D01*
X10457885Y-4081406D02*
X10457741Y-4075742D01*
X10458309Y-4086994D02*
X10457885Y-4081406D01*
X10459009Y-4092501D02*
X10458309Y-4086994D01*
X10459976Y-4097920D02*
X10459009Y-4092501D01*
X10461204Y-4103243D02*
X10459976Y-4097920D01*
X10462687Y-4108464D02*
X10461204Y-4103243D01*
X10464416Y-4113576D02*
X10462687Y-4108464D01*
X10466386Y-4118572D02*
X10464416Y-4113576D01*
X10468588Y-4123445D02*
X10466386Y-4118572D01*
X10471018Y-4128188D02*
X10468588Y-4123445D01*
X10473666Y-4132794D02*
X10471018Y-4128188D01*
X10476527Y-4137257D02*
X10473666Y-4132794D01*
X10479594Y-4141569D02*
X10476527Y-4137257D01*
X10482859Y-4145724D02*
X10479594Y-4141569D01*
X10486317Y-4149715D02*
X10482859Y-4145724D01*
X10489959Y-4153534D02*
X10486317Y-4149715D01*
X10493779Y-4157175D02*
X10489959Y-4153534D01*
X10497770Y-4160632D02*
X10493779Y-4157175D01*
X10501925Y-4163896D02*
X10497770Y-4160632D01*
X10506238Y-4166962D02*
X10501925Y-4163896D01*
X10510701Y-4169822D02*
X10506238Y-4166962D01*
X10515307Y-4172469D02*
X10510701Y-4169822D01*
X10520050Y-4174897D02*
X10515307Y-4172469D01*
X10524922Y-4177099D02*
X10520050Y-4174897D01*
X10529917Y-4179068D02*
X10524922Y-4177099D01*
X10535028Y-4180796D02*
X10529917Y-4179068D01*
X10540248Y-4182278D02*
X10535028Y-4180796D01*
X10545569Y-4183505D02*
X10540248Y-4182278D01*
X10550986Y-4184472D02*
X10545569Y-4183505D01*
X10556491Y-4185171D02*
X10550986Y-4184472D01*
X10562077Y-4185595D02*
X10556491Y-4185171D01*
X10567737Y-4185738D02*
X10562077Y-4185595D01*
X10573397Y-4185595D02*
X10567737Y-4185738D01*
X10578983Y-4185171D02*
X10573397Y-4185595D01*
X10584488Y-4184472D02*
X10578983Y-4185171D01*
X10589905Y-4183505D02*
X10584488Y-4184472D01*
X10595226Y-4182278D02*
X10589905Y-4183505D01*
X10600446Y-4180796D02*
X10595226Y-4182278D01*
X10605557Y-4179068D02*
X10600446Y-4180796D01*
X10610552Y-4177099D02*
X10605557Y-4179068D01*
X10615424Y-4174897D02*
X10610552Y-4177099D01*
X10620167Y-4172469D02*
X10615424Y-4174897D01*
X10624773Y-4169822D02*
X10620167Y-4172469D01*
X10629236Y-4166962D02*
X10624773Y-4169822D01*
X10633549Y-4163896D02*
X10629236Y-4166962D01*
X10637704Y-4160632D02*
X10633549Y-4163896D01*
X10641695Y-4157175D02*
X10637704Y-4160632D01*
X10645515Y-4153534D02*
X10641695Y-4157175D01*
X10649158Y-4149715D02*
X10645515Y-4153534D01*
X10652615Y-4145724D02*
X10649158Y-4149715D01*
X10655880Y-4141569D02*
X10652615Y-4145724D01*
X10658947Y-4137257D02*
X10655880Y-4141569D01*
X10661808Y-4132794D02*
X10658947Y-4137257D01*
X10664457Y-4128188D02*
X10661808Y-4132794D01*
X10666886Y-4123445D02*
X10664457Y-4128188D01*
X10669089Y-4118572D02*
X10666886Y-4123445D01*
X10671058Y-4113576D02*
X10669089Y-4118572D01*
X10672788Y-4108464D02*
X10671058Y-4113576D01*
X10674270Y-4103243D02*
X10672788Y-4108464D01*
X10675498Y-4097920D02*
X10674270Y-4103243D01*
X10676465Y-4092501D02*
X10675498Y-4097920D01*
X10677165Y-4086994D02*
X10676465Y-4092501D01*
X10677590Y-4081406D02*
X10677165Y-4086994D01*
X10677733Y-4075742D02*
X10677590Y-4081406D01*
X10677590Y-4070082D02*
X10677733Y-4075742D01*
X10677165Y-4064496D02*
X10677590Y-4070082D01*
X10676465Y-4058991D02*
X10677165Y-4064496D01*
X10675498Y-4053574D02*
X10676465Y-4058991D01*
X10674270Y-4048253D02*
X10675498Y-4053574D01*
X10672788Y-4043033D02*
X10674270Y-4048253D01*
X10671058Y-4037922D02*
X10672788Y-4043033D01*
X10669089Y-4032927D02*
X10671058Y-4037922D01*
X10666886Y-4028055D02*
X10669089Y-4032927D01*
X10664457Y-4023312D02*
X10666886Y-4028055D01*
X10661808Y-4018706D02*
X10664457Y-4023312D01*
X10658947Y-4014243D02*
X10661808Y-4018706D01*
X10655880Y-4009930D02*
X10658947Y-4014243D01*
X10652615Y-4005775D02*
X10655880Y-4009930D01*
X10649158Y-4001784D02*
X10652615Y-4005775D01*
X10645515Y-3997964D02*
X10649158Y-4001784D01*
X10641695Y-3994321D02*
X10645515Y-3997964D01*
X10637704Y-3990864D02*
X10641695Y-3994321D01*
X10633549Y-3987599D02*
X10637704Y-3990864D01*
X10629236Y-3984532D02*
X10633549Y-3987599D01*
X10624773Y-3981671D02*
X10629236Y-3984532D01*
X10620167Y-3979022D02*
X10624773Y-3981671D01*
X10615424Y-3976593D02*
X10620167Y-3979022D01*
X10610552Y-3974390D02*
X10615424Y-3976593D01*
X10605557Y-3972421D02*
X10610552Y-3974390D01*
X10600446Y-3970691D02*
X10605557Y-3972421D01*
X10595226Y-3969209D02*
X10600446Y-3970691D01*
X10589905Y-3967981D02*
X10595226Y-3969209D01*
X10584488Y-3967014D02*
X10589905Y-3967981D01*
X10578983Y-3966314D02*
X10584488Y-3967014D01*
X10573397Y-3965889D02*
X10578983Y-3966314D01*
X10567737Y-3965746D02*
X10573397Y-3965889D01*
X2962076Y-4340887D02*
X2967736Y-4340744D01*
X2956490Y-4341312D02*
X2962076Y-4340887D01*
X2950985Y-4342012D02*
X2956490Y-4341312D01*
X2945569Y-4342979D02*
X2950985Y-4342012D01*
X2940247Y-4344207D02*
X2945569Y-4342979D01*
X2935027Y-4345690D02*
X2940247Y-4344207D01*
X2929916Y-4347419D02*
X2935027Y-4345690D01*
X2924921Y-4349389D02*
X2929916Y-4347419D01*
X2920049Y-4351591D02*
X2924921Y-4349389D01*
X2915306Y-4354020D02*
X2920049Y-4351591D01*
X2910700Y-4356669D02*
X2915306Y-4354020D01*
X2906237Y-4359530D02*
X2910700Y-4356669D01*
X2901924Y-4362597D02*
X2906237Y-4359530D01*
X2897769Y-4365862D02*
X2901924Y-4362597D01*
X2893778Y-4369320D02*
X2897769Y-4365862D01*
X2889958Y-4372962D02*
X2893778Y-4369320D01*
X2886316Y-4376782D02*
X2889958Y-4372962D01*
X2882858Y-4380773D02*
X2886316Y-4376782D01*
X2879593Y-4384928D02*
X2882858Y-4380773D01*
X2876526Y-4389241D02*
X2879593Y-4384928D01*
X2873665Y-4393704D02*
X2876526Y-4389241D01*
X2871016Y-4398310D02*
X2873665Y-4393704D01*
X2868587Y-4403053D02*
X2871016Y-4398310D01*
X2866384Y-4407925D02*
X2868587Y-4403053D01*
X2864415Y-4412920D02*
X2866384Y-4407925D01*
X2862686Y-4418031D02*
X2864415Y-4412920D01*
X2861203Y-4423251D02*
X2862686Y-4418031D01*
X2859975Y-4428573D02*
X2861203Y-4423251D01*
X2859008Y-4433989D02*
X2859975Y-4428573D01*
X2858308Y-4439494D02*
X2859008Y-4433989D01*
X2857883Y-4445080D02*
X2858308Y-4439494D01*
X2857740Y-4450740D02*
X2857883Y-4445080D01*
X2857883Y-4456401D02*
X2857740Y-4450740D01*
X2858308Y-4461987D02*
X2857883Y-4456401D01*
X2859008Y-4467492D02*
X2858308Y-4461987D01*
X2859975Y-4472908D02*
X2859008Y-4467492D01*
X2861203Y-4478230D02*
X2859975Y-4472908D01*
X2862686Y-4483450D02*
X2861203Y-4478230D01*
X2864415Y-4488560D02*
X2862686Y-4483450D01*
X2866384Y-4493555D02*
X2864415Y-4488560D01*
X2868587Y-4498428D02*
X2866384Y-4493555D01*
X2871016Y-4503171D02*
X2868587Y-4498428D01*
X2873665Y-4507777D02*
X2871016Y-4503171D01*
X2876526Y-4512240D02*
X2873665Y-4507777D01*
X2879593Y-4516552D02*
X2876526Y-4512240D01*
X2882858Y-4520708D02*
X2879593Y-4516552D01*
X2886316Y-4524699D02*
X2882858Y-4520708D01*
X2889958Y-4528519D02*
X2886316Y-4524699D01*
X2893778Y-4532161D02*
X2889958Y-4528519D01*
X2897769Y-4535618D02*
X2893778Y-4532161D01*
X2901924Y-4538884D02*
X2897769Y-4535618D01*
X2906237Y-4541951D02*
X2901924Y-4538884D01*
X2910700Y-4544812D02*
X2906237Y-4541951D01*
X2915306Y-4547460D02*
X2910700Y-4544812D01*
X2920049Y-4549889D02*
X2915306Y-4547460D01*
X2924921Y-4552092D02*
X2920049Y-4549889D01*
X2929916Y-4554062D02*
X2924921Y-4552092D01*
X2935027Y-4555791D02*
X2929916Y-4554062D01*
X2940247Y-4557273D02*
X2935027Y-4555791D01*
X2945569Y-4558502D02*
X2940247Y-4557273D01*
X2950985Y-4559469D02*
X2945569Y-4558502D01*
X2956490Y-4560169D02*
X2950985Y-4559469D01*
X2962076Y-4560593D02*
X2956490Y-4560169D01*
X2967736Y-4560736D02*
X2962076Y-4560593D01*
X2973397Y-4560593D02*
X2967736Y-4560736D01*
X2978983Y-4560169D02*
X2973397Y-4560593D01*
X2984488Y-4559469D02*
X2978983Y-4560169D01*
X2989904Y-4558502D02*
X2984488Y-4559469D01*
X2995226Y-4557273D02*
X2989904Y-4558502D01*
X3000446Y-4555791D02*
X2995226Y-4557273D01*
X3005556Y-4554062D02*
X3000446Y-4555791D01*
X3010552Y-4552092D02*
X3005556Y-4554062D01*
X3015424Y-4549889D02*
X3010552Y-4552092D01*
X3020167Y-4547460D02*
X3015424Y-4549889D01*
X3024773Y-4544812D02*
X3020167Y-4547460D01*
X3029236Y-4541951D02*
X3024773Y-4544812D01*
X3033548Y-4538884D02*
X3029236Y-4541951D01*
X3037704Y-4535618D02*
X3033548Y-4538884D01*
X3041695Y-4532161D02*
X3037704Y-4535618D01*
X3045515Y-4528519D02*
X3041695Y-4532161D01*
X3049157Y-4524699D02*
X3045515Y-4528519D01*
X3052614Y-4520708D02*
X3049157Y-4524699D01*
X3055880Y-4516552D02*
X3052614Y-4520708D01*
X3058947Y-4512240D02*
X3055880Y-4516552D01*
X3061808Y-4507777D02*
X3058947Y-4512240D01*
X3064456Y-4503171D02*
X3061808Y-4507777D01*
X3066886Y-4498428D02*
X3064456Y-4503171D01*
X3069088Y-4493555D02*
X3066886Y-4498428D01*
X3071058Y-4488560D02*
X3069088Y-4493555D01*
X3072787Y-4483450D02*
X3071058Y-4488560D01*
X3074269Y-4478230D02*
X3072787Y-4483450D01*
X3075498Y-4472908D02*
X3074269Y-4478230D01*
X3076465Y-4467492D02*
X3075498Y-4472908D01*
X3077165Y-4461987D02*
X3076465Y-4467492D01*
X3077589Y-4456401D02*
X3077165Y-4461987D01*
X3077732Y-4450740D02*
X3077589Y-4456401D01*
X3077589Y-4445080D02*
X3077732Y-4450740D01*
X3077165Y-4439494D02*
X3077589Y-4445080D01*
X3076465Y-4433989D02*
X3077165Y-4439494D01*
X3075498Y-4428573D02*
X3076465Y-4433989D01*
X3074269Y-4423251D02*
X3075498Y-4428573D01*
X3072787Y-4418031D02*
X3074269Y-4423251D01*
X3071058Y-4412920D02*
X3072787Y-4418031D01*
X3069088Y-4407925D02*
X3071058Y-4412920D01*
X3066886Y-4403053D02*
X3069088Y-4407925D01*
X3064456Y-4398310D02*
X3066886Y-4403053D01*
X3061808Y-4393704D02*
X3064456Y-4398310D01*
X3058947Y-4389241D02*
X3061808Y-4393704D01*
X3055880Y-4384928D02*
X3058947Y-4389241D01*
X3052614Y-4380773D02*
X3055880Y-4384928D01*
X3049157Y-4376782D02*
X3052614Y-4380773D01*
X3045515Y-4372962D02*
X3049157Y-4376782D01*
X3041695Y-4369320D02*
X3045515Y-4372962D01*
X3037704Y-4365862D02*
X3041695Y-4369320D01*
X3033548Y-4362597D02*
X3037704Y-4365862D01*
X3029236Y-4359530D02*
X3033548Y-4362597D01*
X3024773Y-4356669D02*
X3029236Y-4359530D01*
X3020167Y-4354020D02*
X3024773Y-4356669D01*
X3015424Y-4351591D02*
X3020167Y-4354020D01*
X3010552Y-4349389D02*
X3015424Y-4351591D01*
X3005556Y-4347419D02*
X3010552Y-4349389D01*
X3000446Y-4345690D02*
X3005556Y-4347419D01*
X2995226Y-4344207D02*
X3000446Y-4345690D01*
X2989904Y-4342979D02*
X2995226Y-4344207D01*
X2984488Y-4342012D02*
X2989904Y-4342979D01*
X2978983Y-4341312D02*
X2984488Y-4342012D01*
X2973397Y-4340887D02*
X2978983Y-4341312D01*
X2967736Y-4340744D02*
X2973397Y-4340887D01*
X2962076Y-6215881D02*
X2967736Y-6215738D01*
X2956490Y-6216306D02*
X2962076Y-6215881D01*
X2950985Y-6217005D02*
X2956490Y-6216306D01*
X2945569Y-6217973D02*
X2950985Y-6217005D01*
X2940247Y-6219201D02*
X2945569Y-6217973D01*
X2935027Y-6220683D02*
X2940247Y-6219201D01*
X2929916Y-6222412D02*
X2935027Y-6220683D01*
X2924921Y-6224382D02*
X2929916Y-6222412D01*
X2920049Y-6226585D02*
X2924921Y-6224382D01*
X2915306Y-6229014D02*
X2920049Y-6226585D01*
X2910700Y-6231662D02*
X2915306Y-6229014D01*
X2906237Y-6234524D02*
X2910700Y-6231662D01*
X2901924Y-6237590D02*
X2906237Y-6234524D01*
X2897769Y-6240856D02*
X2901924Y-6237590D01*
X2893778Y-6244313D02*
X2897769Y-6240856D01*
X2889958Y-6247955D02*
X2893778Y-6244313D01*
X2886316Y-6251775D02*
X2889958Y-6247955D01*
X2882858Y-6255766D02*
X2886316Y-6251775D01*
X2879593Y-6259922D02*
X2882858Y-6255766D01*
X2876526Y-6264234D02*
X2879593Y-6259922D01*
X2873665Y-6268697D02*
X2876526Y-6264234D01*
X2871016Y-6273304D02*
X2873665Y-6268697D01*
X2868587Y-6278046D02*
X2871016Y-6273304D01*
X2866384Y-6282919D02*
X2868587Y-6278046D01*
X2864415Y-6287914D02*
X2866384Y-6282919D01*
X2862686Y-6293025D02*
X2864415Y-6287914D01*
X2861203Y-6298244D02*
X2862686Y-6293025D01*
X2859975Y-6303566D02*
X2861203Y-6298244D01*
X2859008Y-6308983D02*
X2859975Y-6303566D01*
X2858308Y-6314487D02*
X2859008Y-6308983D01*
X2857883Y-6320073D02*
X2858308Y-6314487D01*
X2857740Y-6325734D02*
X2857883Y-6320073D01*
X2857883Y-6331394D02*
X2857740Y-6325734D01*
X2858308Y-6336980D02*
X2857883Y-6331394D01*
X2859008Y-6342485D02*
X2858308Y-6336980D01*
X2859975Y-6347902D02*
X2859008Y-6342485D01*
X2861203Y-6353223D02*
X2859975Y-6347902D01*
X2862686Y-6358443D02*
X2861203Y-6353223D01*
X2864415Y-6363554D02*
X2862686Y-6358443D01*
X2866384Y-6368549D02*
X2864415Y-6363554D01*
X2868587Y-6373422D02*
X2866384Y-6368549D01*
X2871016Y-6378164D02*
X2868587Y-6373422D01*
X2873665Y-6382771D02*
X2871016Y-6378164D01*
X2876526Y-6387234D02*
X2873665Y-6382771D01*
X2879593Y-6391546D02*
X2876526Y-6387234D01*
X2882858Y-6395701D02*
X2879593Y-6391546D01*
X2886316Y-6399693D02*
X2882858Y-6395701D01*
X2889958Y-6403513D02*
X2886316Y-6399693D01*
X2893778Y-6407155D02*
X2889958Y-6403513D01*
X2897769Y-6410612D02*
X2893778Y-6407155D01*
X2901924Y-6413878D02*
X2897769Y-6410612D01*
X2906237Y-6416944D02*
X2901924Y-6413878D01*
X2910700Y-6419806D02*
X2906237Y-6416944D01*
X2915306Y-6422454D02*
X2910700Y-6419806D01*
X2920049Y-6424883D02*
X2915306Y-6422454D01*
X2924921Y-6427086D02*
X2920049Y-6424883D01*
X2929916Y-6429056D02*
X2924921Y-6427086D01*
X2935027Y-6430785D02*
X2929916Y-6429056D01*
X2940247Y-6432267D02*
X2935027Y-6430785D01*
X2945569Y-6433495D02*
X2940247Y-6432267D01*
X2950985Y-6434463D02*
X2945569Y-6433495D01*
X2956490Y-6435162D02*
X2950985Y-6434463D01*
X2962076Y-6435587D02*
X2956490Y-6435162D01*
X2967736Y-6435730D02*
X2962076Y-6435587D01*
X2973397Y-6435587D02*
X2967736Y-6435730D01*
X2978983Y-6435162D02*
X2973397Y-6435587D01*
X2984488Y-6434463D02*
X2978983Y-6435162D01*
X2989904Y-6433495D02*
X2984488Y-6434463D01*
X2995226Y-6432267D02*
X2989904Y-6433495D01*
X3000446Y-6430785D02*
X2995226Y-6432267D01*
X3005556Y-6429056D02*
X3000446Y-6430785D01*
X3010552Y-6427086D02*
X3005556Y-6429056D01*
X3015424Y-6424883D02*
X3010552Y-6427086D01*
X3020167Y-6422454D02*
X3015424Y-6424883D01*
X3024773Y-6419806D02*
X3020167Y-6422454D01*
X3029236Y-6416944D02*
X3024773Y-6419806D01*
X3033548Y-6413878D02*
X3029236Y-6416944D01*
X3037704Y-6410612D02*
X3033548Y-6413878D01*
X3041695Y-6407155D02*
X3037704Y-6410612D01*
X3045515Y-6403513D02*
X3041695Y-6407155D01*
X3049157Y-6399693D02*
X3045515Y-6403513D01*
X3052614Y-6395701D02*
X3049157Y-6399693D01*
X3055880Y-6391546D02*
X3052614Y-6395701D01*
X3058947Y-6387234D02*
X3055880Y-6391546D01*
X3061808Y-6382771D02*
X3058947Y-6387234D01*
X3064456Y-6378164D02*
X3061808Y-6382771D01*
X3066886Y-6373422D02*
X3064456Y-6378164D01*
X3069088Y-6368549D02*
X3066886Y-6373422D01*
X3071058Y-6363554D02*
X3069088Y-6368549D01*
X3072787Y-6358443D02*
X3071058Y-6363554D01*
X3074269Y-6353223D02*
X3072787Y-6358443D01*
X3075498Y-6347902D02*
X3074269Y-6353223D01*
X3076465Y-6342485D02*
X3075498Y-6347902D01*
X3077165Y-6336980D02*
X3076465Y-6342485D01*
X3077589Y-6331394D02*
X3077165Y-6336980D01*
X3077732Y-6325734D02*
X3077589Y-6331394D01*
X3077589Y-6320073D02*
X3077732Y-6325734D01*
X3077165Y-6314487D02*
X3077589Y-6320073D01*
X3076465Y-6308983D02*
X3077165Y-6314487D01*
X3075498Y-6303566D02*
X3076465Y-6308983D01*
X3074269Y-6298244D02*
X3075498Y-6303566D01*
X3072787Y-6293025D02*
X3074269Y-6298244D01*
X3071058Y-6287914D02*
X3072787Y-6293025D01*
X3069088Y-6282919D02*
X3071058Y-6287914D01*
X3066886Y-6278046D02*
X3069088Y-6282919D01*
X3064456Y-6273304D02*
X3066886Y-6278046D01*
X3061808Y-6268697D02*
X3064456Y-6273304D01*
X3058947Y-6264234D02*
X3061808Y-6268697D01*
X3055880Y-6259922D02*
X3058947Y-6264234D01*
X3052614Y-6255766D02*
X3055880Y-6259922D01*
X3049157Y-6251775D02*
X3052614Y-6255766D01*
X3045515Y-6247955D02*
X3049157Y-6251775D01*
X3041695Y-6244313D02*
X3045515Y-6247955D01*
X3037704Y-6240856D02*
X3041695Y-6244313D01*
X3033548Y-6237590D02*
X3037704Y-6240856D01*
X3029236Y-6234524D02*
X3033548Y-6237590D01*
X3024773Y-6231662D02*
X3029236Y-6234524D01*
X3020167Y-6229014D02*
X3024773Y-6231662D01*
X3015424Y-6226585D02*
X3020167Y-6229014D01*
X3010552Y-6224382D02*
X3015424Y-6226585D01*
X3005556Y-6222412D02*
X3010552Y-6224382D01*
X3000446Y-6220683D02*
X3005556Y-6222412D01*
X2995226Y-6219201D02*
X3000446Y-6220683D01*
X2989904Y-6217973D02*
X2995226Y-6219201D01*
X2984488Y-6217005D02*
X2989904Y-6217973D01*
X2978983Y-6216306D02*
X2984488Y-6217005D01*
X2973397Y-6215881D02*
X2978983Y-6216306D01*
X2967736Y-6215738D02*
X2973397Y-6215881D01*
X12370377Y-2356491D02*
X10570291Y-2356491D01*
X12372948Y-2356762D02*
X12370374Y-2356697D01*
X12375488Y-2356955D02*
X12372948Y-2356762D01*
X12377991Y-2357273D02*
X12375488Y-2356955D01*
X12380454Y-2357713D02*
X12377991Y-2357273D01*
X12382874Y-2358272D02*
X12380454Y-2357713D01*
X12385248Y-2358946D02*
X12382874Y-2358272D01*
X12387572Y-2359732D02*
X12385248Y-2358946D01*
X12389844Y-2360628D02*
X12387572Y-2359732D01*
X12392059Y-2361630D02*
X12389844Y-2360628D01*
X12394216Y-2362734D02*
X12392059Y-2361630D01*
X12396310Y-2363939D02*
X12394216Y-2362734D01*
X12398339Y-2365239D02*
X12396310Y-2363939D01*
X12400300Y-2366634D02*
X12398339Y-2365239D01*
X12402189Y-2368118D02*
X12400300Y-2366634D01*
X12404004Y-2369690D02*
X12402189Y-2368118D01*
X12405740Y-2371346D02*
X12404004Y-2369690D01*
X12407396Y-2373082D02*
X12405740Y-2371346D01*
X12408967Y-2374896D02*
X12407396Y-2373082D01*
X12410451Y-2376785D02*
X12408967Y-2374896D01*
X12411845Y-2378745D02*
X12410451Y-2376785D01*
X12413145Y-2380774D02*
X12411845Y-2378745D01*
X12414348Y-2382867D02*
X12413145Y-2380774D01*
X12415451Y-2385022D02*
X12414348Y-2382867D01*
X12416451Y-2387236D02*
X12415451Y-2385022D01*
X12417345Y-2389506D02*
X12416451Y-2387236D01*
X12418129Y-2391828D02*
X12417345Y-2389506D01*
X12418801Y-2394199D02*
X12418129Y-2391828D01*
X12419357Y-2396617D02*
X12418801Y-2394199D01*
X12419794Y-2399077D02*
X12419357Y-2396617D01*
X12420110Y-2401578D02*
X12419794Y-2399077D01*
X12420300Y-2404115D02*
X12420110Y-2401578D01*
X12420361Y-2406685D02*
X12420300Y-2404115D01*
X12420157Y-2406512D02*
X12419873Y-7462629D01*
X13149896Y-10959722D02*
X14385358Y-8814198D01*
X14347238Y-8621121D02*
X12455185Y-7529203D01*
X14347514Y-8621430D02*
X14347449Y-8621391D01*
X14347576Y-8621470D02*
X14347514Y-8621430D01*
X14347635Y-8621509D02*
X14347576Y-8621470D01*
X14347693Y-8621549D02*
X14347635Y-8621509D01*
X14347748Y-8621589D02*
X14347693Y-8621549D01*
X14347802Y-8621628D02*
X14347748Y-8621589D01*
X14347907Y-8621707D02*
X14347802Y-8621628D01*
X14353723Y-8625844D02*
X14347907Y-8621707D01*
X14359263Y-8630223D02*
X14353723Y-8625844D01*
X14364524Y-8634832D02*
X14359263Y-8630223D01*
X14369505Y-8639659D02*
X14364524Y-8634832D01*
X14374202Y-8644692D02*
X14369505Y-8639659D01*
X14378615Y-8649919D02*
X14374202Y-8644692D01*
X14382739Y-8655327D02*
X14378615Y-8649919D01*
X14386573Y-8660905D02*
X14382739Y-8655327D01*
X14390115Y-8666640D02*
X14386573Y-8660905D01*
X14393361Y-8672521D02*
X14390115Y-8666640D01*
X14396311Y-8678535D02*
X14393361Y-8672521D01*
X14398961Y-8684670D02*
X14396311Y-8678535D01*
X14401308Y-8690914D02*
X14398961Y-8684670D01*
X14403352Y-8697255D02*
X14401308Y-8690914D01*
X14405089Y-8703681D02*
X14403352Y-8697255D01*
X14406516Y-8710180D02*
X14405089Y-8703681D01*
X14407633Y-8716739D02*
X14406516Y-8710180D01*
X14408435Y-8723347D02*
X14407633Y-8716739D01*
X14408922Y-8729992D02*
X14408435Y-8723347D01*
X14409090Y-8736660D02*
X14408922Y-8729992D01*
X14408937Y-8743342D02*
X14409090Y-8736660D01*
X14408461Y-8750023D02*
X14408937Y-8743342D01*
X14407659Y-8756692D02*
X14408461Y-8750023D01*
X14406530Y-8763337D02*
X14407659Y-8756692D01*
X14405070Y-8769947D02*
X14406530Y-8763337D01*
X14403278Y-8776508D02*
X14405070Y-8769947D01*
X14401150Y-8783008D02*
X14403278Y-8776508D01*
X14398686Y-8789436D02*
X14401150Y-8783008D01*
X14395881Y-8795780D02*
X14398686Y-8789436D01*
X14392735Y-8802027D02*
X14395881Y-8795780D01*
X14389244Y-8808166D02*
X14392735Y-8802027D01*
X14385407Y-8814183D02*
X14389244Y-8808166D01*
X12451446Y-7526201D02*
X12455362Y-7529209D01*
X12447731Y-7522990D02*
X12451446Y-7526201D01*
X12444225Y-7519588D02*
X12447731Y-7522990D01*
X12440931Y-7516006D02*
X12444225Y-7519588D01*
X12437856Y-7512252D02*
X12440931Y-7516006D01*
X12435006Y-7508339D02*
X12437856Y-7512252D01*
X12432386Y-7504276D02*
X12435006Y-7508339D01*
X12430003Y-7500074D02*
X12432386Y-7504276D01*
X12427861Y-7495743D02*
X12430003Y-7500074D01*
X12425967Y-7491295D02*
X12427861Y-7495743D01*
X12424326Y-7486738D02*
X12425967Y-7491295D01*
X12422944Y-7482085D02*
X12424326Y-7486738D01*
X12421827Y-7477345D02*
X12422944Y-7482085D01*
X12420980Y-7472529D02*
X12421827Y-7477345D01*
X12420409Y-7467647D02*
X12420980Y-7472529D01*
X12420120Y-7462710D02*
X12420409Y-7467647D01*
X14723034Y-2472670D02*
X14723099Y-2475244D01*
X14722841Y-2470130D02*
X14723034Y-2472670D01*
X14722522Y-2467627D02*
X14722841Y-2470130D01*
X14722082Y-2465164D02*
X14722522Y-2467627D01*
X14721524Y-2462744D02*
X14722082Y-2465164D01*
X14720850Y-2460370D02*
X14721524Y-2462744D01*
X14720063Y-2458046D02*
X14720850Y-2460370D01*
X14719167Y-2455774D02*
X14720063Y-2458046D01*
X14718165Y-2453558D02*
X14719167Y-2455774D01*
X14717061Y-2451402D02*
X14718165Y-2453558D01*
X14715856Y-2449307D02*
X14717061Y-2451402D01*
X14714555Y-2447277D02*
X14715856Y-2449307D01*
X14713160Y-2445316D02*
X14714555Y-2447277D01*
X14711675Y-2443426D02*
X14713160Y-2445316D01*
X14710103Y-2441611D02*
X14711675Y-2443426D01*
X14708446Y-2439873D02*
X14710103Y-2441611D01*
X14706709Y-2438217D02*
X14708446Y-2439873D01*
X14704894Y-2436644D02*
X14706709Y-2438217D01*
X14703004Y-2435159D02*
X14704894Y-2436644D01*
X14701043Y-2433764D02*
X14703004Y-2435159D01*
X14699013Y-2432463D02*
X14701043Y-2433764D01*
X14696919Y-2431258D02*
X14699013Y-2432463D01*
X14694762Y-2430154D02*
X14696919Y-2431258D01*
X14692546Y-2429152D02*
X14694762Y-2430154D01*
X14690275Y-2428256D02*
X14692546Y-2429152D01*
X14687951Y-2427469D02*
X14690275Y-2428256D01*
X14685577Y-2426795D02*
X14687951Y-2427469D01*
X14683157Y-2426236D02*
X14685577Y-2426795D01*
X14680694Y-2425796D02*
X14683157Y-2426236D01*
X14678191Y-2425478D02*
X14680694Y-2425796D01*
X14675651Y-2425285D02*
X14678191Y-2425478D01*
X14673078Y-2425220D02*
X14675651Y-2425285D01*
X12801203Y-2425467D02*
X14673078Y-2425220D01*
X12798629Y-2425532D02*
X12801203Y-2425467D01*
X12796089Y-2425725D02*
X12798629Y-2425532D01*
X12793586Y-2426043D02*
X12796089Y-2425725D01*
X12791123Y-2426483D02*
X12793586Y-2426043D01*
X12788704Y-2427042D02*
X12791123Y-2426483D01*
X12786331Y-2427716D02*
X12788704Y-2427042D01*
X12784008Y-2428503D02*
X12786331Y-2427716D01*
X12781737Y-2429399D02*
X12784008Y-2428503D01*
X12779523Y-2430401D02*
X12781737Y-2429399D01*
X12777367Y-2431505D02*
X12779523Y-2430401D01*
X12775274Y-2432710D02*
X12777367Y-2431505D01*
X12773245Y-2434011D02*
X12775274Y-2432710D01*
X12771286Y-2435406D02*
X12773245Y-2434011D01*
X12769397Y-2436891D02*
X12771286Y-2435406D01*
X12767584Y-2438464D02*
X12769397Y-2436891D01*
X12765848Y-2440120D02*
X12767584Y-2438464D01*
X12764193Y-2441858D02*
X12765848Y-2440120D01*
X12762622Y-2443673D02*
X12764193Y-2441858D01*
X12761139Y-2445563D02*
X12762622Y-2443673D01*
X12759745Y-2447524D02*
X12761139Y-2445563D01*
X12758445Y-2449554D02*
X12759745Y-2447524D01*
X12757242Y-2451648D02*
X12758445Y-2449554D01*
X12756139Y-2453805D02*
X12757242Y-2451648D01*
X12755138Y-2456021D02*
X12756139Y-2453805D01*
X12754243Y-2458293D02*
X12755138Y-2456021D01*
X12753458Y-2460617D02*
X12754243Y-2458293D01*
X12752785Y-2462991D02*
X12753458Y-2460617D01*
X12752227Y-2465411D02*
X12752785Y-2462991D01*
X12751787Y-2467874D02*
X12752227Y-2465411D01*
X12751470Y-2470377D02*
X12751787Y-2467874D01*
X12751277Y-2472917D02*
X12751470Y-2470377D01*
X12751212Y-2475491D02*
X12751277Y-2472917D01*
X12751212Y-7270269D02*
X12751212Y-2475491D01*
X12751239Y-7271942D02*
X12751212Y-7270269D01*
X12751322Y-7273605D02*
X12751239Y-7271942D01*
X12751460Y-7275258D02*
X12751322Y-7273605D01*
X12751651Y-7276900D02*
X12751460Y-7275258D01*
X12751896Y-7278529D02*
X12751651Y-7276900D01*
X12752193Y-7280144D02*
X12751896Y-7278529D01*
X12752542Y-7281744D02*
X12752193Y-7280144D01*
X12752942Y-7283328D02*
X12752542Y-7281744D01*
X12753392Y-7284895D02*
X12752942Y-7283328D01*
X12753893Y-7286444D02*
X12753392Y-7284895D01*
X12754443Y-7287973D02*
X12753893Y-7286444D01*
X12755041Y-7289481D02*
X12754443Y-7287973D01*
X12755687Y-7290968D02*
X12755041Y-7289481D01*
X12756381Y-7292431D02*
X12755687Y-7290968D01*
X12757121Y-7293871D02*
X12756381Y-7292431D01*
X12757907Y-7295286D02*
X12757121Y-7293871D01*
X12758738Y-7296674D02*
X12757907Y-7295286D01*
X12759614Y-7298034D02*
X12758738Y-7296674D01*
X12760534Y-7299366D02*
X12759614Y-7298034D01*
X12761497Y-7300668D02*
X12760534Y-7299366D01*
X12762503Y-7301940D02*
X12761497Y-7300668D01*
X12763550Y-7303179D02*
X12762503Y-7301940D01*
X12764639Y-7304385D02*
X12763550Y-7303179D01*
X12765769Y-7305556D02*
X12764639Y-7304385D01*
X12766939Y-7306693D02*
X12765769Y-7305556D01*
X12768148Y-7307792D02*
X12766939Y-7306693D01*
X12769395Y-7308854D02*
X12768148Y-7307792D01*
X12770681Y-7309876D02*
X12769395Y-7308854D01*
X12772004Y-7310859D02*
X12770681Y-7309876D01*
X12773364Y-7311801D02*
X12772004Y-7310859D01*
X12774759Y-7312700D02*
X12773364Y-7311801D01*
X12776190Y-7313555D02*
X12774759Y-7312700D01*
X14648099Y-8393866D02*
X12776190Y-7313555D01*
X14651247Y-8395543D02*
X14648099Y-8393866D01*
X14654435Y-8396971D02*
X14651247Y-8395543D01*
X14657653Y-8398157D02*
X14654435Y-8396971D01*
X14660893Y-8399105D02*
X14657653Y-8398157D01*
X14664145Y-8399821D02*
X14660893Y-8399105D01*
X14667400Y-8400309D02*
X14664145Y-8399821D01*
X14670648Y-8400576D02*
X14667400Y-8400309D01*
X14673882Y-8400626D02*
X14670648Y-8400576D01*
X14677091Y-8400466D02*
X14673882Y-8400626D01*
X14680266Y-8400099D02*
X14677091Y-8400466D01*
X14683399Y-8399531D02*
X14680266Y-8400099D01*
X14686480Y-8398768D02*
X14683399Y-8399531D01*
X14689499Y-8397815D02*
X14686480Y-8398768D01*
X14692449Y-8396676D02*
X14689499Y-8397815D01*
X14695319Y-8395359D02*
X14692449Y-8396676D01*
X14698100Y-8393867D02*
X14695319Y-8395359D01*
X14700784Y-8392205D02*
X14698100Y-8393867D01*
X14703361Y-8390380D02*
X14700784Y-8392205D01*
X14705823Y-8388397D02*
X14703361Y-8390380D01*
X14708159Y-8386260D02*
X14705823Y-8388397D01*
X14710360Y-8383975D02*
X14708159Y-8386260D01*
X14712419Y-8381547D02*
X14710360Y-8383975D01*
X14714324Y-8378982D02*
X14712419Y-8381547D01*
X14716068Y-8376285D02*
X14714324Y-8378982D01*
X14717641Y-8373461D02*
X14716068Y-8376285D01*
X14719034Y-8370515D02*
X14717641Y-8373461D01*
X14720238Y-8367453D02*
X14719034Y-8370515D01*
X14721244Y-8364279D02*
X14720238Y-8367453D01*
X14722042Y-8361000D02*
X14721244Y-8364279D01*
X14722623Y-8357621D02*
X14722042Y-8361000D01*
X14722978Y-8354146D02*
X14722623Y-8357621D01*
X14723099Y-8350581D02*
X14722978Y-8354146D01*
X14723099Y-2475244D02*
X14723099Y-8350581D01*
D11*
X21120447Y-1878628D02*
X21120447Y-1878628D01*
X4815035Y-8202828D02*
X4455751Y-8202928D01*
X1169050Y-8202828D02*
X2256750Y-8202852D01*
X4969038Y-2102846D02*
X6074750Y-2102846D01*
X8669053Y-2102846D02*
X9856750Y-2102694D01*
X7758693Y-9663200D02*
X11461094Y-10154867D01*
X12955958Y-10993930D02*
X12974364Y-11004408D01*
X12993639Y-11011808D01*
X13013456Y-11016193D01*
X13033490Y-11017626D01*
X13059973Y-11015055D01*
X13085486Y-11007501D01*
X13103518Y-10998655D01*
X13120242Y-10987155D01*
X13135332Y-10973063D01*
X13148460Y-10956444D01*
X13148460Y-10956444D02*
X13148770Y-10955982D01*
X10519035Y-2302846D02*
X10523971Y-2324522D01*
X10537240Y-2341424D01*
X10556551Y-2351262D01*
X10569047Y-2352833D01*
X10519035Y-2152834D02*
X10514102Y-2131164D01*
X10500841Y-2114265D01*
X10481539Y-2104423D01*
X10469048Y-2102846D01*
X8669028Y-2102846D02*
X8669053Y-2102846D01*
X8619041Y-2052834D02*
X8623966Y-2074512D01*
X8637226Y-2091421D01*
X8656533Y-2101269D01*
X8669028Y-2102846D01*
X8569053Y-1877828D02*
X8569053Y-1877828D01*
X8619041Y-1927840D02*
X8614116Y-1906162D01*
X8600855Y-1889253D01*
X8581549Y-1879405D01*
X8569053Y-1877828D01*
X6819046Y-1927840D02*
X6819046Y-1927840D01*
X6869033Y-1877828D02*
X6847357Y-1882764D01*
X6830455Y-1896033D01*
X6820616Y-1915344D01*
X6819046Y-1927840D01*
X6819046Y-2052859D02*
X6819046Y-2052834D01*
X6769033Y-2102846D02*
X6790712Y-2097921D01*
X6807620Y-2084661D01*
X6817468Y-2065354D01*
X6819046Y-2052859D01*
X4969038Y-2102846D02*
X4947369Y-2107779D01*
X4930469Y-2121040D01*
X4920627Y-2140342D01*
X4919051Y-2152834D01*
X4919051Y-2527864D02*
X4919051Y-2527839D01*
X4869039Y-2577851D02*
X4890717Y-2572926D01*
X4907626Y-2559665D01*
X4917474Y-2540359D01*
X4919051Y-2527864D01*
X1119037Y-2627838D02*
X1119037Y-2627839D01*
X1169050Y-2577851D02*
X1147372Y-2582776D01*
X1130463Y-2596037D01*
X1120615Y-2615343D01*
X1119037Y-2627838D01*
X1169049Y-8202828D02*
X1169050Y-8202828D01*
X1119037Y-8152841D02*
X1123973Y-8174517D01*
X1137242Y-8191419D01*
X1156553Y-8201257D01*
X1169049Y-8202828D01*
X6819046Y-1927840D02*
X6818868Y-2052656D01*
X6768830Y-2102694D02*
X6057750Y-2102694D01*
X4918950Y-2152732D02*
X4918950Y-2527636D01*
X12419029Y-2402845D02*
X12414103Y-2381167D01*
X12400843Y-2364259D01*
X12381538Y-2354411D01*
X12369042Y-2352833D01*
X12418800Y-2402668D02*
X12419029Y-2527839D01*
X11526550Y-10167821D02*
X12955958Y-10993930D01*
X10468844Y-2102694D02*
X9856750Y-2102694D01*
X8618964Y-2052656D02*
X8618964Y-1927688D01*
X8568926Y-1877650D02*
X6868906Y-1877650D01*
X4868912Y-2577674D02*
X1169050Y-2577851D01*
X1119037Y-2627839D02*
X1118860Y-8152714D01*
X4455751Y-8202928D02*
X2256750Y-8202852D01*
X12369016Y-2352630D02*
X10568920Y-2352630D01*
X10518882Y-2302592D02*
X10518882Y-2152732D01*
X4850391Y-8217484D02*
X4833038Y-8206186D01*
X4815035Y-8202828D01*
X11526550Y-10167821D02*
X11506380Y-10162398D01*
X11485928Y-10158221D01*
X11465252Y-10155300D01*
X11461094Y-10154867D01*
X5869337Y-9648544D02*
X5886690Y-9659842D01*
X5904694Y-9663200D01*
X4850391Y-8217484D02*
X5869337Y-9648544D01*
X5904694Y-9663200D02*
X7758693Y-9663200D01*
X1369636Y-20269508D02*
X1369636Y-20069508D01*
X1369636Y-20069508D02*
X1417255Y-20069508D01*
X1417255Y-20069508D02*
X1445827Y-20079032D01*
X1445827Y-20079032D02*
X1464874Y-20098080D01*
X1464874Y-20098080D02*
X1474398Y-20117127D01*
X1474398Y-20117127D02*
X1483922Y-20155223D01*
X1483922Y-20155223D02*
X1483922Y-20183794D01*
X1483922Y-20183794D02*
X1474398Y-20221889D01*
X1474398Y-20221889D02*
X1464874Y-20240937D01*
X1464874Y-20240937D02*
X1445827Y-20259985D01*
X1445827Y-20259985D02*
X1417255Y-20269508D01*
X1417255Y-20269508D02*
X1369636Y-20269508D01*
X1569636Y-20269508D02*
X1569636Y-20136175D01*
X1569636Y-20174270D02*
X1579160Y-20155223D01*
X1579160Y-20155223D02*
X1588684Y-20145699D01*
X1588684Y-20145699D02*
X1607732Y-20136175D01*
X1607732Y-20136175D02*
X1626779Y-20136175D01*
X1693446Y-20269508D02*
X1693446Y-20136175D01*
X1693446Y-20069508D02*
X1683922Y-20079032D01*
X1683922Y-20079032D02*
X1693446Y-20088556D01*
X1693446Y-20088556D02*
X1702970Y-20079032D01*
X1702970Y-20079032D02*
X1693446Y-20069508D01*
X1693446Y-20069508D02*
X1693446Y-20088556D01*
X1817255Y-20269508D02*
X1798208Y-20259985D01*
X1798208Y-20259985D02*
X1788684Y-20240937D01*
X1788684Y-20240937D02*
X1788684Y-20069508D01*
X1922017Y-20269508D02*
X1902970Y-20259985D01*
X1902970Y-20259985D02*
X1893446Y-20240937D01*
X1893446Y-20240937D02*
X1893446Y-20069508D01*
X2150589Y-20269508D02*
X2150589Y-20069508D01*
X2150589Y-20069508D02*
X2217256Y-20212366D01*
X2217256Y-20212366D02*
X2283922Y-20069508D01*
X2283922Y-20069508D02*
X2283922Y-20269508D01*
X2464875Y-20269508D02*
X2464875Y-20164747D01*
X2464875Y-20164747D02*
X2455351Y-20145699D01*
X2455351Y-20145699D02*
X2436303Y-20136175D01*
X2436303Y-20136175D02*
X2398208Y-20136175D01*
X2398208Y-20136175D02*
X2379160Y-20145699D01*
X2464875Y-20259985D02*
X2445827Y-20269508D01*
X2445827Y-20269508D02*
X2398208Y-20269508D01*
X2398208Y-20269508D02*
X2379160Y-20259985D01*
X2379160Y-20259985D02*
X2369636Y-20240937D01*
X2369636Y-20240937D02*
X2369636Y-20221889D01*
X2369636Y-20221889D02*
X2379160Y-20202842D01*
X2379160Y-20202842D02*
X2398208Y-20193318D01*
X2398208Y-20193318D02*
X2445827Y-20193318D01*
X2445827Y-20193318D02*
X2464875Y-20183794D01*
X2560113Y-20136175D02*
X2560113Y-20336175D01*
X2560113Y-20145699D02*
X2579160Y-20136175D01*
X2579160Y-20136175D02*
X2617256Y-20136175D01*
X2617256Y-20136175D02*
X2636303Y-20145699D01*
X2636303Y-20145699D02*
X2645827Y-20155223D01*
X2645827Y-20155223D02*
X2655351Y-20174270D01*
X2655351Y-20174270D02*
X2655351Y-20231413D01*
X2655351Y-20231413D02*
X2645827Y-20250461D01*
X2645827Y-20250461D02*
X2636303Y-20259985D01*
X2636303Y-20259985D02*
X2617256Y-20269508D01*
X2617256Y-20269508D02*
X2579160Y-20269508D01*
X2579160Y-20269508D02*
X2560113Y-20259985D01*
X2741065Y-20250461D02*
X2750589Y-20259985D01*
X2750589Y-20259985D02*
X2741065Y-20269508D01*
X2741065Y-20269508D02*
X2731541Y-20259985D01*
X2731541Y-20259985D02*
X2741065Y-20250461D01*
X2741065Y-20250461D02*
X2741065Y-20269508D01*
X2741065Y-20145699D02*
X2750589Y-20155223D01*
X2750589Y-20155223D02*
X2741065Y-20164747D01*
X2741065Y-20164747D02*
X2731541Y-20155223D01*
X2731541Y-20155223D02*
X2741065Y-20145699D01*
X2741065Y-20145699D02*
X2741065Y-20164747D01*
M02*
