G04 #@! TF.GenerationSoftware,KiCad,Pcbnew,7.0.7*
G04 #@! TF.CreationDate,2023-09-12T00:09:30-04:00*
G04 #@! TF.ProjectId,corne-eclipse,636f726e-6973-4682-9d65-636c69707365,1*
G04 #@! TF.SameCoordinates,Original*
G04 #@! TF.FileFunction,Soldermask,Top*
G04 #@! TF.FilePolarity,Negative*
%FSLAX46Y46*%
G04 Gerber Fmt 4.6, Leading zero omitted, Abs format (unit mm)*
G04 Created by KiCad (PCBNEW 7.0.7) date 2023-09-12 00:09:30*
%MOMM*%
%LPD*%
G01*
G04 APERTURE LIST*
G04 Aperture macros list*
%AMRoundRect*
0 Rectangle with rounded corners*
0 $1 Rounding radius*
0 $2 $3 $4 $5 $6 $7 $8 $9 X,Y pos of 4 corners*
0 Add a 4 corners polygon primitive as box body*
4,1,4,$2,$3,$4,$5,$6,$7,$8,$9,$2,$3,0*
0 Add four circle primitives for the rounded corners*
1,1,$1+$1,$2,$3*
1,1,$1+$1,$4,$5*
1,1,$1+$1,$6,$7*
1,1,$1+$1,$8,$9*
0 Add four rect primitives between the rounded corners*
20,1,$1+$1,$2,$3,$4,$5,0*
20,1,$1+$1,$4,$5,$6,$7,0*
20,1,$1+$1,$6,$7,$8,$9,0*
20,1,$1+$1,$8,$9,$2,$3,0*%
G04 Aperture macros list end*
%ADD10R,2.000000X2.000000*%
%ADD11C,2.000000*%
%ADD12R,3.200000X2.000000*%
%ADD13C,1.900000*%
%ADD14C,3.000000*%
%ADD15C,4.100000*%
%ADD16C,4.300000*%
%ADD17C,2.200000*%
%ADD18C,0.300000*%
%ADD19RoundRect,0.250000X-0.250000X-1.500000X0.250000X-1.500000X0.250000X1.500000X-0.250000X1.500000X0*%
%ADD20RoundRect,0.250001X-0.499999X-1.449999X0.499999X-1.449999X0.499999X1.449999X-0.499999X1.449999X0*%
%ADD21C,6.800000*%
%ADD22C,4.400000*%
G04 APERTURE END LIST*
D10*
X221681493Y-85137190D03*
D11*
X221681493Y-90137190D03*
X221681493Y-87637190D03*
D12*
X229181493Y-82037190D03*
X229181493Y-93237190D03*
D11*
X236181493Y-90137190D03*
X236181493Y-85137190D03*
X60519209Y-90170547D03*
X60519209Y-85170547D03*
D12*
X67519209Y-93270547D03*
X67519209Y-82070547D03*
D11*
X75019209Y-87670547D03*
X75019209Y-85170547D03*
D10*
X75019209Y-90170547D03*
D13*
X34027500Y-34788211D03*
D14*
X35297500Y-32248211D03*
D15*
X39107500Y-34788211D03*
D14*
X41647500Y-29708211D03*
D13*
X44187500Y-34788211D03*
X53027500Y-30038211D03*
D14*
X54297500Y-27498211D03*
D15*
X58107500Y-30038211D03*
D14*
X60647500Y-24958211D03*
D13*
X63187500Y-30038211D03*
X72027500Y-27663211D03*
D14*
X73297500Y-25123211D03*
D15*
X77107500Y-27663211D03*
D14*
X79647500Y-22583211D03*
D13*
X82187500Y-27663211D03*
X91027500Y-30038211D03*
D14*
X92297500Y-27498211D03*
D15*
X96107500Y-30038211D03*
D14*
X98647500Y-24958211D03*
D13*
X101187500Y-30038211D03*
X15027500Y-53788211D03*
D14*
X16297500Y-51248211D03*
D15*
X20107500Y-53788211D03*
D14*
X22647500Y-48708211D03*
D13*
X25187500Y-53788211D03*
X34027500Y-53788211D03*
D14*
X35297500Y-51248211D03*
D15*
X39107500Y-53788211D03*
D14*
X41647500Y-48708211D03*
D13*
X44187500Y-53788211D03*
X53027500Y-49038211D03*
D14*
X54297500Y-46498211D03*
D15*
X58107500Y-49038211D03*
D14*
X60647500Y-43958211D03*
D13*
X63187500Y-49038211D03*
X72027500Y-46663211D03*
D14*
X73297500Y-44123211D03*
D15*
X77107500Y-46663211D03*
D14*
X79647500Y-41583211D03*
D13*
X82187500Y-46663211D03*
X91027500Y-49038211D03*
D14*
X92297500Y-46498211D03*
D15*
X96107500Y-49038211D03*
D14*
X98647500Y-43958211D03*
D13*
X101187500Y-49038211D03*
X110027500Y-51413211D03*
D14*
X111297500Y-48873211D03*
D15*
X115107500Y-51413211D03*
D14*
X117647500Y-46333211D03*
D13*
X120187500Y-51413211D03*
X15027500Y-72788211D03*
D14*
X16297500Y-70248211D03*
D15*
X20107500Y-72788211D03*
D14*
X22647500Y-67708211D03*
D13*
X25187500Y-72788211D03*
X34027500Y-72788211D03*
D14*
X35297500Y-70248211D03*
D15*
X39107500Y-72788211D03*
D14*
X41647500Y-67708211D03*
D13*
X44187500Y-72788211D03*
X53027500Y-68038211D03*
D14*
X54297500Y-65498211D03*
D15*
X58107500Y-68038211D03*
D14*
X60647500Y-62958211D03*
D13*
X63187500Y-68038211D03*
X72027500Y-65663211D03*
D14*
X73297500Y-63123211D03*
D15*
X77107500Y-65663211D03*
D14*
X79647500Y-60583211D03*
D13*
X82187500Y-65663211D03*
X91027500Y-68038211D03*
D14*
X92297500Y-65498211D03*
D15*
X96107500Y-68038211D03*
D14*
X98647500Y-62958211D03*
D13*
X101187500Y-68038211D03*
X110027500Y-70413211D03*
D14*
X111297500Y-67873211D03*
D15*
X115107500Y-70413211D03*
D14*
X117647500Y-65333211D03*
D13*
X120187500Y-70413211D03*
X81527500Y-87663211D03*
D14*
X82797500Y-85123211D03*
D15*
X86607500Y-87663211D03*
D14*
X89147500Y-82583211D03*
D13*
X91687500Y-87663211D03*
X102700597Y-89098410D03*
D14*
X104584723Y-86973659D03*
D15*
X107607500Y-90413211D03*
D14*
X111375752Y-86163708D03*
D13*
X112514403Y-91728012D03*
X127317500Y-98562620D03*
D14*
X125752795Y-96192768D03*
D15*
X129857500Y-94163211D03*
D14*
X126728091Y-89423506D03*
D13*
X132397500Y-89763802D03*
X164324500Y-89758802D03*
D14*
X167159205Y-89588654D03*
D15*
X166864500Y-94158211D03*
D14*
X172533909Y-93817916D03*
D13*
X169404500Y-98557620D03*
X214534500Y-65658211D03*
D14*
X215804500Y-63118211D03*
D15*
X219614500Y-65658211D03*
D14*
X222154500Y-60578211D03*
D13*
X224694500Y-65658211D03*
X195534500Y-68033211D03*
D14*
X196804500Y-65493211D03*
D15*
X200614500Y-68033211D03*
D14*
X203154500Y-62953211D03*
D13*
X205694500Y-68033211D03*
X176534500Y-70408211D03*
D14*
X177804500Y-67868211D03*
D15*
X181614500Y-70408211D03*
D14*
X184154500Y-65328211D03*
D13*
X186694500Y-70408211D03*
X205034500Y-87658211D03*
D14*
X206304500Y-85118211D03*
D15*
X210114500Y-87658211D03*
D14*
X212654500Y-82578211D03*
D13*
X215194500Y-87658211D03*
X184207597Y-91723012D03*
D14*
X184776922Y-88940860D03*
D15*
X189114500Y-90408211D03*
D14*
X190253151Y-84843907D03*
D13*
X194021403Y-89093410D03*
X214534500Y-27658211D03*
D14*
X215804500Y-25118211D03*
D15*
X219614500Y-27658211D03*
D14*
X222154500Y-22578211D03*
D13*
X224694500Y-27658211D03*
X195534500Y-30033211D03*
D14*
X196804500Y-27493211D03*
D15*
X200614500Y-30033211D03*
D14*
X203154500Y-24953211D03*
D13*
X205694500Y-30033211D03*
X271534500Y-53783211D03*
D14*
X272804500Y-51243211D03*
D15*
X276614500Y-53783211D03*
D14*
X279154500Y-48703211D03*
D13*
X281694500Y-53783211D03*
X233534500Y-30033211D03*
D14*
X234804500Y-27493211D03*
D15*
X238614500Y-30033211D03*
D14*
X241154500Y-24953211D03*
D13*
X243694500Y-30033211D03*
X252534500Y-53783211D03*
D14*
X253804500Y-51243211D03*
D15*
X257614500Y-53783211D03*
D14*
X260154500Y-48703211D03*
D13*
X262694500Y-53783211D03*
X252534500Y-72783211D03*
D14*
X253804500Y-70243211D03*
D15*
X257614500Y-72783211D03*
D14*
X260154500Y-67703211D03*
D13*
X262694500Y-72783211D03*
X233534500Y-68033211D03*
D14*
X234804500Y-65493211D03*
D15*
X238614500Y-68033211D03*
D14*
X241154500Y-62953211D03*
D13*
X243694500Y-68033211D03*
X271534500Y-34783211D03*
D14*
X272804500Y-32243211D03*
D15*
X276614500Y-34783211D03*
D14*
X279154500Y-29703211D03*
D13*
X281694500Y-34783211D03*
X252534500Y-34783211D03*
D14*
X253804500Y-32243211D03*
D15*
X257614500Y-34783211D03*
D14*
X260154500Y-29703211D03*
D13*
X262694500Y-34783211D03*
X233534500Y-49033211D03*
D14*
X234804500Y-46493211D03*
D15*
X238614500Y-49033211D03*
D14*
X241154500Y-43953211D03*
D13*
X243694500Y-49033211D03*
X195534500Y-49033211D03*
D14*
X196804500Y-46493211D03*
D15*
X200614500Y-49033211D03*
D14*
X203154500Y-43953211D03*
D13*
X205694500Y-49033211D03*
X176534500Y-51408211D03*
D14*
X177804500Y-48868211D03*
D15*
X181614500Y-51408211D03*
D14*
X184154500Y-46328211D03*
D13*
X186694500Y-51408211D03*
X271534500Y-72783211D03*
D14*
X272804500Y-70243211D03*
D15*
X276614500Y-72783211D03*
D14*
X279154500Y-67703211D03*
D13*
X281694500Y-72783211D03*
X15027500Y-34788211D03*
D14*
X16297500Y-32248211D03*
D15*
X20107500Y-34788211D03*
D14*
X22647500Y-29708211D03*
D13*
X25187500Y-34788211D03*
D16*
X105575500Y-40773711D03*
X53714500Y-81925711D03*
X119330500Y-88143211D03*
D17*
X127869500Y-73262211D03*
X142301500Y-81783211D03*
D16*
X177389500Y-88153211D03*
X243005500Y-81935711D03*
X267099500Y-44273711D03*
X191144500Y-40783711D03*
D13*
X110027500Y-32413211D03*
D14*
X111297500Y-29873211D03*
D15*
X115107500Y-32413211D03*
D14*
X117647500Y-27333211D03*
D13*
X120187500Y-32413211D03*
X176527500Y-32413211D03*
D14*
X177797500Y-29873211D03*
D15*
X181607500Y-32413211D03*
D14*
X184147500Y-27333211D03*
D13*
X186687500Y-32413211D03*
D16*
X29607500Y-63288211D03*
X29607500Y-44288211D03*
D18*
X55861750Y-20877211D03*
X56455500Y-20877211D03*
X57049250Y-20877211D03*
X57643000Y-20877211D03*
X58236750Y-20877211D03*
X58830500Y-20877211D03*
X59424250Y-20877211D03*
X60018000Y-20877211D03*
X60611750Y-20877211D03*
X93832500Y-20881211D03*
X94426250Y-20881211D03*
X95020000Y-20881211D03*
X95613750Y-20881211D03*
X96207500Y-20881211D03*
X96801250Y-20881211D03*
X97395000Y-20881211D03*
X97988750Y-20881211D03*
X98582500Y-20881211D03*
X17787500Y-82184211D03*
X18381250Y-82184211D03*
X18975000Y-82184211D03*
X19568750Y-82184211D03*
X20162500Y-82184211D03*
X20756250Y-82184211D03*
X21350000Y-82184211D03*
X21943750Y-82184211D03*
X22537500Y-82184211D03*
X39748507Y-82186211D03*
X40342257Y-82186211D03*
X40936007Y-82186211D03*
X41529757Y-82186211D03*
X42123507Y-82186211D03*
X42717257Y-82186211D03*
X43311007Y-82186211D03*
X43904757Y-82186211D03*
X44498507Y-82186211D03*
D19*
X132531639Y-66089318D03*
X134531639Y-66089318D03*
D20*
X130181639Y-71839318D03*
X136881639Y-71839318D03*
D13*
X214535080Y-46692721D03*
D14*
X215805080Y-44152721D03*
D15*
X219615080Y-46692721D03*
D14*
X222155080Y-41612721D03*
D13*
X224695080Y-46692721D03*
D21*
X209337500Y-57548211D03*
D22*
X190287500Y-57548211D03*
X209337500Y-38498211D03*
X209337500Y-76598211D03*
X228387500Y-57548211D03*
D21*
X87417500Y-57548211D03*
D22*
X68367500Y-57548211D03*
X87417500Y-38498211D03*
X87417500Y-76598211D03*
X106467500Y-57548211D03*
D19*
X162347500Y-66166408D03*
X164347500Y-66166408D03*
D20*
X159997500Y-71916408D03*
X166697500Y-71916408D03*
D17*
X154418500Y-81793211D03*
D16*
X267099500Y-63273711D03*
D17*
X168850500Y-73272211D03*
D18*
X279030500Y-82191211D03*
X278436750Y-82191211D03*
X277843000Y-82191211D03*
X277249250Y-82191211D03*
X276655500Y-82191211D03*
X276061750Y-82191211D03*
X275468000Y-82191211D03*
X274874250Y-82191211D03*
X274280500Y-82191211D03*
X203112500Y-20893211D03*
X202518750Y-20893211D03*
X201925000Y-20893211D03*
X201331250Y-20893211D03*
X200737500Y-20893211D03*
X200143750Y-20893211D03*
X199550000Y-20893211D03*
X198956250Y-20893211D03*
X198362500Y-20893211D03*
X241024500Y-20878211D03*
X240430750Y-20878211D03*
X239837000Y-20878211D03*
X239243250Y-20878211D03*
X238649500Y-20878211D03*
X238055750Y-20878211D03*
X237462000Y-20878211D03*
X236868250Y-20878211D03*
X236274500Y-20878211D03*
X257116493Y-82201211D03*
X256522743Y-82201211D03*
X255928993Y-82201211D03*
X255335243Y-82201211D03*
X254741493Y-82201211D03*
X254147743Y-82201211D03*
X253553993Y-82201211D03*
X252960243Y-82201211D03*
X252366493Y-82201211D03*
M02*
