G04 #@! TF.GenerationSoftware,KiCad,Pcbnew,7.0.7*
G04 #@! TF.CreationDate,2023-09-12T00:09:30-04:00*
G04 #@! TF.ProjectId,corne-eclipse,636f726e-6973-4682-9d65-636c69707365,1*
G04 #@! TF.SameCoordinates,Original*
G04 #@! TF.FileFunction,Profile,NP*
%FSLAX46Y46*%
G04 Gerber Fmt 4.6, Leading zero omitted, Abs format (unit mm)*
G04 Created by KiCad (PCBNEW 7.0.7) date 2023-09-12 00:09:30*
%MOMM*%
%LPD*%
G01*
G04 APERTURE LIST*
G04 #@! TA.AperFunction,Profile*
%ADD10C,0.200000*%
G04 #@! TD*
%ADD11C,0.200000*%
G04 #@! TA.AperFunction,Profile*
%ADD12C,0.120000*%
G04 #@! TD*
G04 APERTURE END LIST*
D10*
X17807500Y-82028520D02*
X17812500Y-82258211D01*
X17812500Y-82258211D02*
X17812300Y-82260211D01*
X17812300Y-82260211D02*
X17812300Y-82260211D01*
X17812300Y-82260211D02*
X17789600Y-82491211D01*
X17789600Y-82491211D02*
X17789600Y-82491211D01*
X17789600Y-82491211D02*
X17789600Y-82491211D01*
X17789600Y-82491211D02*
X17789600Y-82492211D01*
X17789600Y-82492211D02*
X17788600Y-82496211D01*
X17788600Y-82496211D02*
X17787700Y-82501211D01*
X17787700Y-82501211D02*
X17720800Y-82722211D01*
X17720800Y-82722211D02*
X17720600Y-82723211D01*
X17720600Y-82723211D02*
X17718800Y-82727211D01*
X17718800Y-82727211D02*
X17717000Y-82732211D01*
X17717000Y-82732211D02*
X17608200Y-82936211D01*
X17608200Y-82936211D02*
X17607900Y-82937211D01*
X17607900Y-82937211D02*
X17605400Y-82940211D01*
X17605400Y-82940211D02*
X17602800Y-82944211D01*
X17602800Y-82944211D02*
X17456400Y-83124211D01*
X17456400Y-83124211D02*
X17456400Y-83124211D01*
X17456400Y-83124211D02*
X17456400Y-83124211D01*
X17456400Y-83124211D02*
X17455900Y-83124211D01*
X17455900Y-83124211D02*
X17452700Y-83128211D01*
X17452700Y-83128211D02*
X17449500Y-83131211D01*
X17449500Y-83131211D02*
X17270900Y-83279211D01*
X17270900Y-83279211D02*
X17270400Y-83279211D01*
X17270400Y-83279211D02*
X17266600Y-83281211D01*
X17266600Y-83281211D02*
X17262800Y-83284211D01*
X17262800Y-83284211D02*
X17059000Y-83394211D01*
X17059000Y-83394211D02*
X17059000Y-83394211D01*
X17059000Y-83394211D02*
X17059000Y-83394211D01*
X17059000Y-83394211D02*
X17058300Y-83395211D01*
X17058300Y-83395211D02*
X17054200Y-83396211D01*
X17054200Y-83396211D02*
X17050000Y-83398211D01*
X17050000Y-83398211D02*
X16828600Y-83467211D01*
X16828600Y-83467211D02*
X16827900Y-83467211D01*
X16827900Y-83467211D02*
X16823500Y-83468211D01*
X16823500Y-83468211D02*
X16819000Y-83468211D01*
X16819000Y-83468211D02*
X16588500Y-83493211D01*
X16588500Y-83493211D02*
X16587800Y-83493211D01*
X16587800Y-83493211D02*
X16585600Y-83493211D01*
X16585600Y-83493211D02*
X16583500Y-83493211D01*
X16583500Y-83493211D02*
X16577500Y-83493211D01*
X16577500Y-83493211D02*
X16577400Y-83493211D01*
X16577400Y-83493211D02*
X11825200Y-83493211D01*
X11825200Y-83493211D02*
X11819400Y-83493211D01*
X11819400Y-83493211D02*
X11596300Y-83516211D01*
X11596300Y-83516211D02*
X11384300Y-83582211D01*
X11384300Y-83582211D02*
X11189100Y-83688211D01*
X11189100Y-83688211D02*
X11018000Y-83829211D01*
X11018000Y-83829211D02*
X10877800Y-84001211D01*
X10877800Y-84001211D02*
X10773600Y-84197211D01*
X10773600Y-84197211D02*
X10709400Y-84410211D01*
X10709400Y-84410211D02*
X10687500Y-84633211D01*
X10687500Y-115505211D02*
X10687500Y-115511211D01*
X10687500Y-115511211D02*
X10711000Y-115734211D01*
X10711000Y-115734211D02*
X10776600Y-115946211D01*
X10776600Y-115946211D02*
X10882200Y-116141211D01*
X10882200Y-116141211D02*
X11023600Y-116312211D01*
X11023600Y-116312211D02*
X11195700Y-116453211D01*
X11195700Y-116453211D02*
X11391600Y-116557211D01*
X11391600Y-116557211D02*
X11604100Y-116621211D01*
X11604100Y-116621211D02*
X11827400Y-116643211D01*
X11827400Y-116643211D02*
X285057500Y-116634211D01*
X285055500Y-11046711D02*
X11825200Y-11055711D01*
X11825200Y-11055711D02*
X11819400Y-11055711D01*
X11819400Y-11055711D02*
X11596300Y-11079211D01*
X11596300Y-11079211D02*
X11384300Y-11144811D01*
X11384300Y-11144811D02*
X11189100Y-11250411D01*
X11189100Y-11250411D02*
X11018000Y-11391911D01*
X11018000Y-11391911D02*
X10877800Y-11563911D01*
X10877800Y-11563911D02*
X10773600Y-11759811D01*
X10773600Y-11759811D02*
X10709400Y-11972311D01*
X10709400Y-11972311D02*
X10687500Y-12195711D01*
X10687500Y-12195711D02*
X10687500Y-15755511D01*
X10687500Y-15755511D02*
X10687500Y-15761311D01*
X10687500Y-15761311D02*
X10711000Y-15984411D01*
X10711000Y-15984411D02*
X10776600Y-16196411D01*
X10776600Y-16196411D02*
X10882200Y-16391711D01*
X10882200Y-16391711D02*
X11023600Y-16562711D01*
X11023600Y-16562711D02*
X11195700Y-16703011D01*
X11195700Y-16703011D02*
X11391600Y-16807211D01*
X11391600Y-16807211D02*
X11604100Y-16871311D01*
X11604100Y-16871311D02*
X11827400Y-16893211D01*
X11827400Y-16893211D02*
X54577400Y-16893211D01*
X54577400Y-16893211D02*
X54579900Y-16893511D01*
X54579900Y-16893511D02*
X54579900Y-16893511D01*
X54579900Y-16893511D02*
X54810500Y-16916111D01*
X54810500Y-16916111D02*
X54810500Y-16916111D01*
X54810500Y-16916111D02*
X54810500Y-16916111D01*
X54810500Y-16916111D02*
X54811200Y-16916111D01*
X54811200Y-16916111D02*
X54815600Y-16917111D01*
X54815600Y-16917111D02*
X54820100Y-16918011D01*
X54820100Y-16918011D02*
X55042000Y-16985011D01*
X55042000Y-16985011D02*
X55042600Y-16985211D01*
X55042600Y-16985211D02*
X55046800Y-16986911D01*
X55046800Y-16986911D02*
X55051000Y-16988711D01*
X55051000Y-16988711D02*
X55255600Y-17097511D01*
X55255600Y-17097511D02*
X55255600Y-17097511D01*
X55255600Y-17097511D02*
X55255600Y-17097511D01*
X55255600Y-17097511D02*
X55256200Y-17097811D01*
X55256200Y-17097811D02*
X55260000Y-17100411D01*
X55260000Y-17100411D02*
X55263800Y-17102911D01*
X55263800Y-17102911D02*
X55443400Y-17249411D01*
X55443400Y-17249411D02*
X55443900Y-17249811D01*
X55443900Y-17249811D02*
X55447000Y-17253011D01*
X55447000Y-17253011D02*
X55450300Y-17256211D01*
X55450300Y-17256211D02*
X55598000Y-17434811D01*
X55598000Y-17434811D02*
X55598400Y-17435311D01*
X55598400Y-17435311D02*
X55600900Y-17439111D01*
X55600900Y-17439111D02*
X55603500Y-17442911D01*
X55603500Y-17442911D02*
X55713700Y-17646811D01*
X55713700Y-17646811D02*
X55713700Y-17646811D01*
X55713700Y-17646811D02*
X55713700Y-17646811D01*
X55713700Y-17646811D02*
X55714000Y-17647411D01*
X55714000Y-17647411D02*
X55715700Y-17651611D01*
X55715700Y-17651611D02*
X55717500Y-17655811D01*
X55717500Y-17655811D02*
X55786000Y-17877211D01*
X55786000Y-17877211D02*
X55786200Y-17877811D01*
X55786200Y-17877811D02*
X55787100Y-17882311D01*
X55787100Y-17882311D02*
X55788000Y-17886711D01*
X55788000Y-17886711D02*
X55812200Y-18117211D01*
X55812200Y-18117211D02*
X55812300Y-18117911D01*
X55812300Y-18117911D02*
X55812200Y-18120111D01*
X55812200Y-18120111D02*
X55812500Y-18122311D01*
X55812500Y-18122311D02*
X55812500Y-18128211D01*
X55812500Y-18128211D02*
X55812500Y-18128311D01*
X55812500Y-18128311D02*
X55817500Y-21028463D01*
X44557507Y-82029284D02*
X44562507Y-82255211D01*
X44562507Y-82255211D02*
X44562507Y-82261211D01*
X44562507Y-82261211D02*
X44586007Y-82484211D01*
X44586007Y-82484211D02*
X44651607Y-82696211D01*
X44651607Y-82696211D02*
X44757207Y-82891211D01*
X44757207Y-82891211D02*
X44898607Y-83062211D01*
X44898607Y-83062211D02*
X45070707Y-83203211D01*
X45070707Y-83203211D02*
X45266607Y-83307211D01*
X45266607Y-83307211D02*
X45479107Y-83371211D01*
X45479107Y-83371211D02*
X45702407Y-83393211D01*
X45702407Y-83393211D02*
X48077407Y-83393211D01*
X48077407Y-83393211D02*
X48079907Y-83393211D01*
X48079907Y-83393211D02*
X48079907Y-83393211D01*
X48079907Y-83393211D02*
X48310507Y-83416211D01*
X48310507Y-83416211D02*
X48310507Y-83416211D01*
X48310507Y-83416211D02*
X48310507Y-83416211D01*
X48310507Y-83416211D02*
X48311207Y-83416211D01*
X48311207Y-83416211D02*
X48315607Y-83417211D01*
X48315607Y-83417211D02*
X48320107Y-83418211D01*
X48320107Y-83418211D02*
X48542007Y-83485211D01*
X48542007Y-83485211D02*
X48542606Y-83485211D01*
X48542606Y-83485211D02*
X48546807Y-83487211D01*
X48546807Y-83487211D02*
X48551007Y-83488211D01*
X48551007Y-83488211D02*
X48755607Y-83597211D01*
X48755607Y-83597211D02*
X48755607Y-83597211D01*
X48755607Y-83597211D02*
X48755607Y-83597211D01*
X48755607Y-83597211D02*
X48756206Y-83598211D01*
X48756206Y-83598211D02*
X48760006Y-83600211D01*
X48760006Y-83600211D02*
X48763807Y-83603211D01*
X48763807Y-83603211D02*
X48943407Y-83749211D01*
X48943407Y-83749211D02*
X48943907Y-83750211D01*
X48943907Y-83750211D02*
X48947007Y-83753211D01*
X48947007Y-83753211D02*
X48950307Y-83756211D01*
X48950307Y-83756211D02*
X49098007Y-83935211D01*
X49098007Y-83935211D02*
X49098407Y-83935211D01*
X49098407Y-83935211D02*
X49100907Y-83939211D01*
X49100907Y-83939211D02*
X49103507Y-83943211D01*
X49103507Y-83943211D02*
X49213707Y-84147211D01*
X49213707Y-84147211D02*
X49213707Y-84147211D01*
X49213707Y-84147211D02*
X49213707Y-84147211D01*
X49213707Y-84147211D02*
X49214007Y-84147211D01*
X49214007Y-84147211D02*
X49215707Y-84151211D01*
X49215707Y-84151211D02*
X49217507Y-84156211D01*
X49217507Y-84156211D02*
X49286007Y-84377211D01*
X49286007Y-84377211D02*
X49286207Y-84378211D01*
X49286207Y-84378211D02*
X49287107Y-84382211D01*
X49287107Y-84382211D02*
X49288007Y-84387211D01*
X49288007Y-84387211D02*
X49312207Y-84617211D01*
X49312207Y-84617211D02*
X49312307Y-84618211D01*
X49312307Y-84618211D02*
X49312207Y-84620211D01*
X49312207Y-84620211D02*
X49312507Y-84622211D01*
X49312507Y-84622211D02*
X49312507Y-84628211D01*
X49312507Y-84628211D02*
X49312507Y-84628211D01*
X49312507Y-84628211D02*
X49312507Y-111805211D01*
X49312507Y-111805211D02*
X49312507Y-111811211D01*
X49312507Y-111811211D02*
X49336007Y-112034211D01*
X49336007Y-112034211D02*
X49401607Y-112246211D01*
X49401607Y-112246211D02*
X49507207Y-112441211D01*
X49507207Y-112441211D02*
X49648607Y-112612211D01*
X49648607Y-112612211D02*
X49820707Y-112753211D01*
X49820707Y-112753211D02*
X50016607Y-112857211D01*
X50016607Y-112857211D02*
X50229107Y-112921211D01*
X50229107Y-112921211D02*
X50452407Y-112943211D01*
X50452407Y-112943211D02*
X247625493Y-112934211D01*
X197180500Y-16984211D02*
X99700500Y-16993211D01*
X99700500Y-16993211D02*
X99694500Y-16993211D01*
X99694500Y-16993211D02*
X99471500Y-17016711D01*
X99471500Y-17016711D02*
X99259500Y-17082311D01*
X99259500Y-17082311D02*
X99064500Y-17187911D01*
X99064500Y-17187911D02*
X98893500Y-17329411D01*
X98893500Y-17329411D02*
X98752500Y-17501411D01*
X98752500Y-17501411D02*
X98648500Y-17697311D01*
X98648500Y-17697311D02*
X98584500Y-17909811D01*
X98584500Y-17909811D02*
X98562500Y-18133211D01*
X98562500Y-18133211D02*
X98567500Y-21026940D01*
X22567500Y-82028520D02*
X22562500Y-82255211D01*
X22562500Y-82255211D02*
X22562500Y-82261211D01*
X22562500Y-82261211D02*
X22586000Y-82484211D01*
X22586000Y-82484211D02*
X22651600Y-82696211D01*
X22651600Y-82696211D02*
X22757200Y-82891211D01*
X22757200Y-82891211D02*
X22898600Y-83062211D01*
X22898600Y-83062211D02*
X23070700Y-83203211D01*
X23070700Y-83203211D02*
X23266600Y-83307211D01*
X23266600Y-83307211D02*
X23479100Y-83371211D01*
X23479100Y-83371211D02*
X23702400Y-83393211D01*
X23702400Y-83393211D02*
X38580607Y-83393211D01*
X38574807Y-83393211D02*
X38580607Y-83393211D01*
X38580607Y-83393211D02*
X38803707Y-83370211D01*
X38803707Y-83370211D02*
X39015707Y-83304211D01*
X39015707Y-83304211D02*
X39210907Y-83198211D01*
X39210907Y-83198211D02*
X39382007Y-83057211D01*
X39382007Y-83057211D02*
X39522207Y-82885211D01*
X39522207Y-82885211D02*
X39626407Y-82689211D01*
X39626407Y-82689211D02*
X39690607Y-82476211D01*
X39690607Y-82476211D02*
X39712507Y-82253211D01*
X39712507Y-82253211D02*
X39717507Y-82028520D01*
X93727500Y-21028463D02*
X93712500Y-18130911D01*
X93712500Y-18130911D02*
X93712500Y-18125111D01*
X93712500Y-18125111D02*
X93689000Y-17902011D01*
X93689000Y-17902011D02*
X93623400Y-17690011D01*
X93623400Y-17690011D02*
X93517800Y-17494811D01*
X93517800Y-17494811D02*
X93376300Y-17323811D01*
X93376300Y-17323811D02*
X93204300Y-17183511D01*
X93204300Y-17183511D02*
X93008400Y-17079311D01*
X93008400Y-17079311D02*
X92795900Y-17015111D01*
X92795900Y-17015111D02*
X92572600Y-16993211D01*
X92572600Y-16993211D02*
X61700200Y-16993211D01*
X61700200Y-16993211D02*
X61694400Y-16993211D01*
X61694400Y-16993211D02*
X61471300Y-17016711D01*
X61471300Y-17016711D02*
X61259300Y-17082311D01*
X61259300Y-17082311D02*
X61064100Y-17187911D01*
X61064100Y-17187911D02*
X60893000Y-17329411D01*
X60893000Y-17329411D02*
X60752800Y-17501411D01*
X60752800Y-17501411D02*
X60648600Y-17697311D01*
X60648600Y-17697311D02*
X60584400Y-17909811D01*
X60584400Y-17909811D02*
X60562500Y-18133211D01*
X60562500Y-18133211D02*
X60577500Y-21026940D01*
X10687500Y-84633211D02*
X10687500Y-115505211D01*
X236317500Y-21034940D02*
X236319500Y-18121911D01*
X236319500Y-18121911D02*
X236319500Y-18116111D01*
X236319500Y-18116111D02*
X236296500Y-17893011D01*
X236296500Y-17893011D02*
X236230500Y-17681011D01*
X236230500Y-17681011D02*
X236125500Y-17485811D01*
X236125500Y-17485811D02*
X235983500Y-17314811D01*
X235983500Y-17314811D02*
X235811500Y-17174511D01*
X235811500Y-17174511D02*
X235615500Y-17070311D01*
X235615500Y-17070311D02*
X235403500Y-17006111D01*
X235403500Y-17006111D02*
X235180500Y-16984211D01*
X235180500Y-16984211D02*
X204307500Y-16984211D01*
X204307500Y-16984211D02*
X204301500Y-16984211D01*
X204301500Y-16984211D02*
X204078500Y-17007711D01*
X204078500Y-17007711D02*
X203866500Y-17073311D01*
X203866500Y-17073311D02*
X203671500Y-17178911D01*
X203671500Y-17178911D02*
X203500500Y-17320411D01*
X203500500Y-17320411D02*
X203360500Y-17492411D01*
X203360500Y-17492411D02*
X203256500Y-17688311D01*
X203256500Y-17688311D02*
X203191500Y-17900811D01*
X203191500Y-17900811D02*
X203170500Y-18124211D01*
X203170500Y-18124211D02*
X203167500Y-21036463D01*
X280302500Y-83484211D02*
X280071500Y-83461211D01*
X285864500Y-116298211D02*
X286004500Y-116126211D01*
X197811500Y-17174511D02*
X197615500Y-17070311D01*
X197983500Y-17314811D02*
X197811500Y-17174511D01*
X286194500Y-84616211D02*
X286195500Y-115494211D01*
X198327500Y-21034940D02*
X198319500Y-18121911D01*
X198319500Y-18121911D02*
X198319500Y-18116111D01*
X198319500Y-18116111D02*
X198296500Y-17893011D01*
X198296500Y-17893011D02*
X198230500Y-17681011D01*
X198230500Y-17681011D02*
X198125500Y-17485811D01*
X198125500Y-17485811D02*
X197983500Y-17314811D01*
X197615500Y-17070311D02*
X197403500Y-17006111D01*
X197403500Y-17006111D02*
X197180500Y-16984211D01*
X257177493Y-82035520D02*
X257170493Y-82246211D01*
X257170493Y-82246211D02*
X257170493Y-82252211D01*
X257170493Y-82252211D02*
X257193493Y-82475211D01*
X257193493Y-82475211D02*
X257259493Y-82687211D01*
X257259493Y-82687211D02*
X257364493Y-82882211D01*
X257364493Y-82882211D02*
X257506493Y-83053211D01*
X257506493Y-83053211D02*
X257678493Y-83194211D01*
X257678493Y-83194211D02*
X257874493Y-83298211D01*
X257874493Y-83298211D02*
X258086493Y-83362211D01*
X258086493Y-83362211D02*
X258309493Y-83384211D01*
X258309493Y-83384211D02*
X273182500Y-83384211D01*
X273182500Y-83384211D02*
X273188500Y-83384211D01*
X273188500Y-83384211D02*
X273411500Y-83361211D01*
X273411500Y-83361211D02*
X273623500Y-83295211D01*
X273623500Y-83295211D02*
X273818500Y-83189211D01*
X273818500Y-83189211D02*
X273989500Y-83048211D01*
X273989500Y-83048211D02*
X274129500Y-82876211D01*
X274129500Y-82876211D02*
X274233500Y-82680211D01*
X274233500Y-82680211D02*
X274298500Y-82467211D01*
X274298500Y-82467211D02*
X274319500Y-82244211D01*
X274319500Y-82244211D02*
X274327500Y-82035520D01*
X231619500Y-112934211D02*
X231625500Y-112934211D01*
X247625493Y-112934211D02*
X247848493Y-112911211D01*
X247848493Y-112911211D02*
X248060493Y-112845211D01*
X248060493Y-112845211D02*
X248255493Y-112739211D01*
X248255493Y-112739211D02*
X248426493Y-112598211D01*
X248426493Y-112598211D02*
X248567493Y-112426211D01*
X248567493Y-112426211D02*
X248671493Y-112230211D01*
X248671493Y-112230211D02*
X248735493Y-112017211D01*
X248735493Y-112017211D02*
X248757493Y-111794211D01*
X248757493Y-111794211D02*
X248757493Y-84619211D01*
X248757493Y-84619211D02*
X248757493Y-84617211D01*
X248757493Y-84617211D02*
X248757493Y-84617211D01*
X248757493Y-84617211D02*
X248780493Y-84386211D01*
X248780493Y-84386211D02*
X248780493Y-84386211D01*
X248780493Y-84386211D02*
X248780493Y-84386211D01*
X248780493Y-84386211D02*
X248780493Y-84385211D01*
X248780493Y-84385211D02*
X248781493Y-84381211D01*
X248781493Y-84381211D02*
X248782493Y-84376211D01*
X248782493Y-84376211D02*
X248849493Y-84155211D01*
X248849493Y-84155211D02*
X248849493Y-84154211D01*
X248849493Y-84154211D02*
X248851493Y-84150211D01*
X248851493Y-84150211D02*
X248852493Y-84146211D01*
X248852493Y-84146211D02*
X248961493Y-83941211D01*
X248961493Y-83941211D02*
X248961493Y-83941211D01*
X248961493Y-83941211D02*
X248961493Y-83941211D01*
X248961493Y-83941211D02*
X248962493Y-83940211D01*
X248962493Y-83940211D02*
X248964493Y-83937211D01*
X248964493Y-83937211D02*
X248967493Y-83933211D01*
X248967493Y-83933211D02*
X249113493Y-83753211D01*
X249113493Y-83753211D02*
X249114493Y-83753211D01*
X249114493Y-83753211D02*
X249117493Y-83749211D01*
X249117493Y-83749211D02*
X249120493Y-83746211D01*
X249120493Y-83746211D02*
X249299493Y-83599211D01*
X249299493Y-83599211D02*
X249299493Y-83598211D01*
X249299493Y-83598211D02*
X249303493Y-83596211D01*
X249303493Y-83596211D02*
X249307493Y-83593211D01*
X249307493Y-83593211D02*
X249511493Y-83483211D01*
X249511493Y-83483211D02*
X249511493Y-83483211D01*
X249511493Y-83483211D02*
X249511493Y-83483211D01*
X249511493Y-83483211D02*
X249511493Y-83482211D01*
X249511493Y-83482211D02*
X249515493Y-83481211D01*
X249515493Y-83481211D02*
X249520493Y-83479211D01*
X249520493Y-83479211D02*
X249741493Y-83411211D01*
X249741493Y-83411211D02*
X249741493Y-83411211D01*
X249741493Y-83411211D02*
X249742493Y-83410211D01*
X249742493Y-83410211D02*
X249746493Y-83409211D01*
X249746493Y-83409211D02*
X249750493Y-83409211D01*
X249750493Y-83409211D02*
X249981493Y-83384211D01*
X249981493Y-83384211D02*
X249982493Y-83384211D01*
X249982493Y-83384211D02*
X249984493Y-83384211D01*
X249984493Y-83384211D02*
X249986493Y-83384211D01*
X249986493Y-83384211D02*
X249992493Y-83384211D01*
X249992493Y-83384211D02*
X249992493Y-83384211D01*
X249992493Y-83384211D02*
X251182493Y-83384211D01*
X251182493Y-83384211D02*
X251188493Y-83384211D01*
X251188493Y-83384211D02*
X251411493Y-83361211D01*
X251411493Y-83361211D02*
X251623493Y-83295211D01*
X251623493Y-83295211D02*
X251818493Y-83189211D01*
X251818493Y-83189211D02*
X251989493Y-83048211D01*
X251989493Y-83048211D02*
X252129493Y-82876211D01*
X252129493Y-82876211D02*
X252233493Y-82680211D01*
X252233493Y-82680211D02*
X252298493Y-82467211D01*
X252298493Y-82467211D02*
X252320493Y-82244211D01*
X252320493Y-82244211D02*
X252327493Y-82036284D01*
X241092500Y-17885511D02*
X241093500Y-17881111D01*
X241093500Y-17881111D02*
X241094500Y-17876611D01*
X241094500Y-17876611D02*
X241161500Y-17654711D01*
X241161500Y-17654711D02*
X241161500Y-17654111D01*
X241161500Y-17654111D02*
X241163500Y-17649911D01*
X241163500Y-17649911D02*
X241165500Y-17645711D01*
X241165500Y-17645711D02*
X241274500Y-17441111D01*
X241274500Y-17441111D02*
X241274500Y-17441111D01*
X241274500Y-17441111D02*
X241274500Y-17441111D01*
X241274500Y-17441111D02*
X241274500Y-17440511D01*
X241274500Y-17440511D02*
X241277500Y-17436711D01*
X241277500Y-17436711D02*
X241279500Y-17433011D01*
X241279500Y-17433011D02*
X241426500Y-17253411D01*
X241426500Y-17253411D02*
X241426500Y-17252811D01*
X241426500Y-17252811D02*
X241429500Y-17249711D01*
X241429500Y-17249711D02*
X241433500Y-17246411D01*
X241433500Y-17246411D02*
X241611500Y-17098711D01*
X241611500Y-17098711D02*
X241612500Y-17098311D01*
X241612500Y-17098311D02*
X241615500Y-17095811D01*
X241615500Y-17095811D02*
X241619500Y-17093311D01*
X241619500Y-17093311D02*
X241823500Y-16983011D01*
X241823500Y-16983011D02*
X241823500Y-16983011D01*
X241823500Y-16983011D02*
X241823500Y-16983011D01*
X241823500Y-16983011D02*
X241824500Y-16982711D01*
X241824500Y-16982711D02*
X241828500Y-16981011D01*
X241828500Y-16981011D02*
X241832500Y-16979211D01*
X241832500Y-16979211D02*
X242053500Y-16910711D01*
X242053500Y-16910711D02*
X242053500Y-16910711D01*
X242053500Y-16910711D02*
X242054500Y-16910511D01*
X242054500Y-16910511D02*
X242059500Y-16909711D01*
X242059500Y-16909711D02*
X242063500Y-16908711D01*
X242063500Y-16908711D02*
X242293500Y-16884511D01*
X242293500Y-16884511D02*
X242294500Y-16884511D01*
X242294500Y-16884511D02*
X242296500Y-16884511D01*
X242296500Y-16884511D02*
X242299500Y-16884211D01*
X242299500Y-16884211D02*
X242304500Y-16884211D01*
X242304500Y-16884211D02*
X242305500Y-16884211D01*
X242305500Y-16884211D02*
X285057500Y-16884211D01*
X285057500Y-16884211D02*
X285063500Y-16884211D01*
X285063500Y-16884211D02*
X285286500Y-16860811D01*
X285286500Y-16860811D02*
X285498500Y-16795111D01*
X285498500Y-16795111D02*
X285693500Y-16689611D01*
X285693500Y-16689611D02*
X285864500Y-16548111D01*
X285864500Y-16548111D02*
X286004500Y-16376111D01*
X286004500Y-16376111D02*
X286108500Y-16180111D01*
X286108500Y-16180111D02*
X286173500Y-15967611D01*
X286173500Y-15967611D02*
X286195500Y-15744311D01*
X286195500Y-15744311D02*
X286194500Y-12184411D01*
X286194500Y-12184411D02*
X286194500Y-12178611D01*
X286194500Y-12178611D02*
X286171500Y-11955511D01*
X286171500Y-11955511D02*
X286105500Y-11743511D01*
X286105500Y-11743511D02*
X286000500Y-11548311D01*
X286000500Y-11548311D02*
X285858500Y-11377311D01*
X285858500Y-11377311D02*
X285686500Y-11237011D01*
X285686500Y-11237011D02*
X285490500Y-11132811D01*
X285490500Y-11132811D02*
X285278500Y-11068611D01*
X285278500Y-11068611D02*
X285055500Y-11046711D01*
X241077500Y-21036463D02*
X241069500Y-18119311D01*
X241069500Y-18119311D02*
X241070500Y-18116811D01*
X241070500Y-18116811D02*
X241092500Y-17886211D01*
X241092500Y-17886211D02*
X241092500Y-17886211D01*
X241092500Y-17886211D02*
X241092500Y-17886211D01*
X241092500Y-17886211D02*
X241092500Y-17885511D01*
X279070500Y-82259211D02*
X279070500Y-82257211D01*
X279070500Y-82257211D02*
X279070500Y-82255211D01*
X279070500Y-82255211D02*
X279070500Y-82249211D01*
X279070500Y-82249211D02*
X279069500Y-82249211D01*
X279069500Y-82249211D02*
X279077500Y-82036284D01*
X279165500Y-82721211D02*
X279096500Y-82500211D01*
X279096500Y-82500211D02*
X279096500Y-82499211D01*
X279096500Y-82499211D02*
X279095500Y-82495211D01*
X279095500Y-82495211D02*
X279094500Y-82491211D01*
X279094500Y-82491211D02*
X279070500Y-82260211D01*
X279070500Y-82260211D02*
X279070500Y-82259211D01*
X285057500Y-116634211D02*
X285063500Y-116634211D01*
X285063500Y-116634211D02*
X285286500Y-116611211D01*
X285286500Y-116611211D02*
X285498500Y-116545211D01*
X285498500Y-116545211D02*
X285693500Y-116439211D01*
X285693500Y-116439211D02*
X285864500Y-116298211D01*
X286004500Y-116126211D02*
X286108500Y-115930211D01*
X286108500Y-115930211D02*
X286173500Y-115717211D01*
X286173500Y-115717211D02*
X286195500Y-115494211D01*
X286194500Y-84616211D02*
X286171500Y-84393211D01*
X286171500Y-84393211D02*
X286105500Y-84181211D01*
X286105500Y-84181211D02*
X286000500Y-83986211D01*
X286000500Y-83986211D02*
X285858500Y-83815211D01*
X285858500Y-83815211D02*
X285686500Y-83674211D01*
X285686500Y-83674211D02*
X285490500Y-83570211D01*
X285490500Y-83570211D02*
X285278500Y-83506211D01*
X285278500Y-83506211D02*
X285055500Y-83484211D01*
X285055500Y-83484211D02*
X280305500Y-83484211D01*
X280305500Y-83484211D02*
X280302500Y-83484211D01*
X280302500Y-83484211D02*
X280302500Y-83484211D01*
X280071500Y-83461211D02*
X280071500Y-83461211D01*
X280071500Y-83461211D02*
X280071500Y-83461211D01*
X280071500Y-83461211D02*
X280071500Y-83461211D01*
X280071500Y-83461211D02*
X280066500Y-83460211D01*
X280066500Y-83460211D02*
X280062500Y-83459211D01*
X280062500Y-83459211D02*
X279840500Y-83392211D01*
X279840500Y-83392211D02*
X279839500Y-83392211D01*
X279839500Y-83392211D02*
X279835500Y-83390211D01*
X279835500Y-83390211D02*
X279831500Y-83389211D01*
X279831500Y-83389211D02*
X279626500Y-83280211D01*
X279626500Y-83280211D02*
X279626500Y-83280211D01*
X279626500Y-83280211D02*
X279626500Y-83279211D01*
X279626500Y-83279211D02*
X279622500Y-83277211D01*
X279622500Y-83277211D02*
X279618500Y-83274211D01*
X279618500Y-83274211D02*
X279439500Y-83128211D01*
X279439500Y-83128211D02*
X279439500Y-83128211D01*
X279439500Y-83128211D02*
X279439500Y-83128211D01*
X279439500Y-83128211D02*
X279438500Y-83127211D01*
X279438500Y-83127211D02*
X279435500Y-83124211D01*
X279435500Y-83124211D02*
X279432500Y-83121211D01*
X279432500Y-83121211D02*
X279284500Y-82942211D01*
X279284500Y-82942211D02*
X279284500Y-82942211D01*
X279284500Y-82942211D02*
X279281500Y-82938211D01*
X279281500Y-82938211D02*
X279279500Y-82934211D01*
X279279500Y-82934211D02*
X279168500Y-82730211D01*
X279168500Y-82730211D02*
X279168500Y-82730211D01*
X279168500Y-82730211D02*
X279168500Y-82730211D01*
X279168500Y-82730211D02*
X279168500Y-82730211D01*
X279168500Y-82730211D02*
X279166500Y-82726211D01*
X279166500Y-82726211D02*
X279165500Y-82721211D01*
D11*
X181629500Y-101686211D02*
X181831194Y-101631983D01*
X182035714Y-101590206D01*
X182242483Y-101560995D01*
X182284056Y-101556671D01*
X152181791Y-86633928D02*
X152092308Y-86455059D01*
X152016826Y-86240442D01*
X151970652Y-86017800D01*
X151954558Y-85790107D01*
X151954700Y-85761439D01*
D10*
X191706177Y-23033918D02*
X191706177Y-21535320D01*
X173204835Y-23534298D02*
X191205797Y-23534298D01*
D11*
X151954700Y-26286385D02*
X152004025Y-26069691D01*
X152136643Y-25900693D01*
X152329668Y-25802272D01*
X152454583Y-25786512D01*
D10*
X151955216Y-26285115D02*
X151955216Y-85759156D01*
X257177493Y-82035520D02*
X274327500Y-82035520D01*
X285704628Y-26286385D02*
X285706404Y-81535141D01*
X248205881Y-25784736D02*
X285204501Y-25786512D01*
X211205737Y-18784503D02*
X228205940Y-18784503D01*
X210705358Y-20534561D02*
X210705358Y-19284882D01*
X192206556Y-21034940D02*
X198327500Y-21034940D01*
X181629500Y-101686211D02*
X167335417Y-109947295D01*
X172706995Y-24034677D02*
X172704713Y-25286390D01*
D11*
X172704713Y-24036453D02*
X172753965Y-23819674D01*
X172886565Y-23650590D01*
X173079623Y-23552106D01*
X173204577Y-23536332D01*
D10*
X247705501Y-21535320D02*
X247705501Y-25284356D01*
X229206699Y-21034940D02*
X236317500Y-21034940D01*
X228706320Y-19284882D02*
X228706320Y-20534561D01*
X152455595Y-25784736D02*
X172204592Y-25786512D01*
D11*
X285704628Y-81536411D02*
X285655268Y-81753170D01*
X285522578Y-81922189D01*
X285329467Y-82020574D01*
X285204506Y-82036284D01*
X285204506Y-82036284D02*
X285204501Y-82036284D01*
X285204501Y-25786512D02*
X285421283Y-25835761D01*
X285590371Y-25968365D01*
X285688854Y-26161427D01*
X285704628Y-26286380D01*
X285704628Y-26286380D02*
X285704628Y-26286385D01*
X248204611Y-25786512D02*
X247987827Y-25737260D01*
X247818742Y-25604654D01*
X247720261Y-25411591D01*
X247704489Y-25286638D01*
X247704489Y-25286638D02*
X247704489Y-25286390D01*
X247204616Y-21036463D02*
X247421308Y-21085791D01*
X247590305Y-21218404D01*
X247688727Y-21411423D01*
X247704489Y-21536337D01*
X229204665Y-21036463D02*
X228987881Y-20987212D01*
X228818796Y-20854606D01*
X228720316Y-20661542D01*
X228704544Y-20536590D01*
X228704544Y-20536590D02*
X228704544Y-20536337D01*
X228204670Y-18786279D02*
X228421429Y-18835638D01*
X228590449Y-18968327D01*
X228688834Y-19161439D01*
X228704544Y-19286400D01*
X228704544Y-19286400D02*
X228704544Y-19286405D01*
X210704594Y-19286405D02*
X210753843Y-19069622D01*
X210886448Y-18900535D01*
X211079512Y-18802051D01*
X211204467Y-18786279D01*
X211204467Y-18786279D02*
X211204467Y-18786279D01*
X210704594Y-20536337D02*
X210655343Y-20753119D01*
X210522738Y-20922206D01*
X210329674Y-21020690D01*
X210204720Y-21036463D01*
X210204720Y-21036463D02*
X210204472Y-21036463D01*
X191704649Y-21536337D02*
X191753976Y-21319644D01*
X191886589Y-21150647D01*
X192079608Y-21052225D01*
X192204522Y-21036463D01*
X191704649Y-23036458D02*
X191655289Y-23253215D01*
X191522601Y-23422235D01*
X191329489Y-23520621D01*
X191204527Y-23536332D01*
D10*
X165407300Y-109567823D02*
X152181276Y-86635456D01*
D11*
X165410396Y-109572437D02*
X165407300Y-109567823D01*
X167335417Y-109947295D02*
X167151360Y-110052083D01*
X166958612Y-110126082D01*
X166760437Y-110169928D01*
X166560101Y-110184258D01*
X166295270Y-110158549D01*
X166040143Y-110083005D01*
X165859822Y-109994549D01*
X165692581Y-109879545D01*
X165541683Y-109738629D01*
X165410396Y-109572437D01*
D10*
X219308071Y-96640000D02*
X182284056Y-101556671D01*
X248391088Y-82182840D02*
X238201630Y-96493444D01*
D11*
X172704713Y-25286390D02*
X172655456Y-25503171D01*
X172522849Y-25672257D01*
X172329784Y-25770739D01*
X172204830Y-25786512D01*
X172204830Y-25786512D02*
X172204592Y-25786512D01*
D10*
X48150346Y-82028284D02*
X44557507Y-82029284D01*
X11690499Y-82028284D02*
X17807500Y-82028520D01*
X49690384Y-21028463D02*
X55817500Y-21028463D01*
X86690528Y-21028463D02*
X93727500Y-21028463D01*
D11*
X124690170Y-25778512D02*
X124690408Y-25778512D01*
X124190287Y-25278390D02*
X124239543Y-25495171D01*
X124372150Y-25664257D01*
X124565215Y-25762739D01*
X124690170Y-25778512D01*
D10*
X77586929Y-96632000D02*
X114610944Y-101548671D01*
D11*
X129559583Y-109939295D02*
X129743639Y-110044083D01*
X129936387Y-110118082D01*
X130134562Y-110161928D01*
X130334898Y-110176258D01*
X130599729Y-110150549D01*
X130854856Y-110075005D01*
X131035177Y-109986549D01*
X131202418Y-109871545D01*
X131353316Y-109730629D01*
X131484604Y-109564437D01*
X131484604Y-109564437D02*
X131487700Y-109559823D01*
D10*
X131487700Y-109559823D02*
X144713724Y-86627456D01*
D11*
X105190351Y-23028458D02*
X105239710Y-23245215D01*
X105372398Y-23414235D01*
X105565510Y-23512621D01*
X105690473Y-23528332D01*
X105190351Y-21528337D02*
X105141023Y-21311644D01*
X105008410Y-21142647D01*
X104815391Y-21044225D01*
X104690478Y-21028463D01*
X86690280Y-21028463D02*
X86690528Y-21028463D01*
X86190406Y-20528337D02*
X86239656Y-20745119D01*
X86372261Y-20914206D01*
X86565325Y-21012690D01*
X86690280Y-21028463D01*
X85690533Y-18778279D02*
X85690533Y-18778279D01*
X86190406Y-19278405D02*
X86141156Y-19061622D01*
X86008551Y-18892535D01*
X85815487Y-18794051D01*
X85690533Y-18778279D01*
X68190456Y-19278400D02*
X68190456Y-19278405D01*
X68690330Y-18778279D02*
X68473570Y-18827638D01*
X68304550Y-18960327D01*
X68206165Y-19153439D01*
X68190456Y-19278400D01*
X68190456Y-20528590D02*
X68190456Y-20528337D01*
X67690335Y-21028463D02*
X67907118Y-20979212D01*
X68076203Y-20846606D01*
X68174683Y-20653542D01*
X68190456Y-20528590D01*
X49690384Y-21028463D02*
X49473691Y-21077791D01*
X49304694Y-21210404D01*
X49206272Y-21403423D01*
X49190511Y-21528337D01*
X49190511Y-25278638D02*
X49190511Y-25278390D01*
X48690389Y-25778512D02*
X48907172Y-25729260D01*
X49076257Y-25596654D01*
X49174738Y-25403591D01*
X49190511Y-25278638D01*
X11190372Y-26278380D02*
X11190372Y-26278385D01*
X11690499Y-25778512D02*
X11473716Y-25827761D01*
X11304628Y-25960365D01*
X11206145Y-26153427D01*
X11190372Y-26278380D01*
X11690494Y-82028284D02*
X11690499Y-82028284D01*
X11190372Y-81528411D02*
X11239731Y-81745170D01*
X11372421Y-81914189D01*
X11565532Y-82012574D01*
X11690494Y-82028284D01*
D10*
X144439405Y-25776736D02*
X124690408Y-25778512D01*
X68190456Y-19278405D02*
X68188680Y-20526561D01*
X67688301Y-21026940D02*
X60577500Y-21026940D01*
X49189499Y-21527320D02*
X49189499Y-25276356D01*
D11*
X124190287Y-24028453D02*
X124141034Y-23811674D01*
X124008434Y-23642590D01*
X123815376Y-23544106D01*
X123690423Y-23528332D01*
D10*
X124188005Y-24026677D02*
X124190287Y-25278390D01*
X115265500Y-101678211D02*
X129559583Y-109939295D01*
X104688444Y-21026940D02*
X98567500Y-21026940D01*
X86189642Y-20526561D02*
X86189642Y-19276882D01*
X85689263Y-18776503D02*
X68689060Y-18776503D01*
X48689119Y-25776736D02*
X11690499Y-25778512D01*
X11190372Y-26278385D02*
X11188596Y-81527141D01*
X39717507Y-82028520D02*
X22567500Y-82028520D01*
X144939784Y-26277115D02*
X144939784Y-85751156D01*
D11*
X144940300Y-26278385D02*
X144890974Y-26061691D01*
X144758356Y-25892693D01*
X144565331Y-25794272D01*
X144440417Y-25778512D01*
D10*
X123690165Y-23526298D02*
X105689203Y-23526298D01*
X105188823Y-23025918D02*
X105188823Y-21527320D01*
D11*
X144713209Y-86625928D02*
X144802691Y-86447059D01*
X144878173Y-86232442D01*
X144924347Y-86009800D01*
X144940441Y-85782107D01*
X144940300Y-85753439D01*
X248391088Y-82182840D02*
X248564617Y-82069861D01*
X248744654Y-82036284D01*
X48503912Y-82174840D02*
X48330382Y-82061861D01*
X48150346Y-82028284D01*
X115265500Y-101678211D02*
X115063805Y-101623983D01*
X114859285Y-101582206D01*
X114652516Y-101552995D01*
X114610944Y-101548671D01*
D10*
X210204472Y-21036463D02*
X203167500Y-21036463D01*
D11*
X58693370Y-96485444D02*
X58866899Y-96598422D01*
X59046936Y-96632000D01*
D10*
X237848064Y-96640000D02*
X219308071Y-96640000D01*
X48503912Y-82174840D02*
X58693370Y-96485444D01*
X59046936Y-96632000D02*
X77586929Y-96632000D01*
X248707500Y-82036284D02*
X252327493Y-82036284D01*
X247204616Y-21036463D02*
X241077500Y-21036463D01*
X285204501Y-82036284D02*
X279077500Y-82036284D01*
D11*
X238201630Y-96493444D02*
X238028100Y-96606422D01*
X237848064Y-96640000D01*
D12*
X128803490Y-77204165D02*
X125954988Y-82137915D01*
X125954988Y-82137915D02*
X134753806Y-87217915D01*
X137602308Y-82284165D02*
X128803490Y-77204165D01*
X134753806Y-87217915D02*
X137602308Y-82284165D01*
X159126701Y-82280338D02*
X161975203Y-87214088D01*
X161975203Y-87214088D02*
X170774021Y-82134088D01*
X167925519Y-77200338D02*
X159126701Y-82280338D01*
X170774021Y-82134088D02*
X167925519Y-77200338D01*
X18307500Y-37988211D02*
X21907500Y-37988211D01*
X18307500Y-41088211D02*
X18307500Y-37988211D01*
X21907500Y-37988211D02*
X21907500Y-41088211D01*
X21907500Y-41088211D02*
X18307500Y-41088211D01*
X37307500Y-37988211D02*
X40907500Y-37988211D01*
X37307500Y-41088211D02*
X37307500Y-37988211D01*
X40907500Y-37988211D02*
X40907500Y-41088211D01*
X40907500Y-41088211D02*
X37307500Y-41088211D01*
X56307500Y-33238211D02*
X59907500Y-33238211D01*
X56307500Y-36338211D02*
X56307500Y-33238211D01*
X59907500Y-33238211D02*
X59907500Y-36338211D01*
X59907500Y-36338211D02*
X56307500Y-36338211D01*
X75307500Y-30863211D02*
X78907500Y-30863211D01*
X75307500Y-33963211D02*
X75307500Y-30863211D01*
X78907500Y-30863211D02*
X78907500Y-33963211D01*
X78907500Y-33963211D02*
X75307500Y-33963211D01*
X94307500Y-33238211D02*
X97907500Y-33238211D01*
X94307500Y-36338211D02*
X94307500Y-33238211D01*
X97907500Y-33238211D02*
X97907500Y-36338211D01*
X97907500Y-36338211D02*
X94307500Y-36338211D01*
X113307500Y-35613211D02*
X116907500Y-35613211D01*
X113307500Y-38713211D02*
X113307500Y-35613211D01*
X116907500Y-35613211D02*
X116907500Y-38713211D01*
X116907500Y-38713211D02*
X113307500Y-38713211D01*
X18307500Y-56988211D02*
X21907500Y-56988211D01*
X18307500Y-60088211D02*
X18307500Y-56988211D01*
X21907500Y-56988211D02*
X21907500Y-60088211D01*
X21907500Y-60088211D02*
X18307500Y-60088211D01*
X37307500Y-56988211D02*
X40907500Y-56988211D01*
X37307500Y-60088211D02*
X37307500Y-56988211D01*
X40907500Y-56988211D02*
X40907500Y-60088211D01*
X40907500Y-60088211D02*
X37307500Y-60088211D01*
X56307500Y-52238211D02*
X59907500Y-52238211D01*
X56307500Y-55338211D02*
X56307500Y-52238211D01*
X59907500Y-52238211D02*
X59907500Y-55338211D01*
X59907500Y-55338211D02*
X56307500Y-55338211D01*
X75307500Y-49863211D02*
X78907500Y-49863211D01*
X75307500Y-52963211D02*
X75307500Y-49863211D01*
X78907500Y-49863211D02*
X78907500Y-52963211D01*
X78907500Y-52963211D02*
X75307500Y-52963211D01*
X94307500Y-52238211D02*
X97907500Y-52238211D01*
X94307500Y-55338211D02*
X94307500Y-52238211D01*
X97907500Y-52238211D02*
X97907500Y-55338211D01*
X97907500Y-55338211D02*
X94307500Y-55338211D01*
X113307500Y-54613211D02*
X116907500Y-54613211D01*
X113307500Y-57713211D02*
X113307500Y-54613211D01*
X116907500Y-54613211D02*
X116907500Y-57713211D01*
X116907500Y-57713211D02*
X113307500Y-57713211D01*
X18307500Y-75988211D02*
X21907500Y-75988211D01*
X18307500Y-79088211D02*
X18307500Y-75988211D01*
X21907500Y-75988211D02*
X21907500Y-79088211D01*
X21907500Y-79088211D02*
X18307500Y-79088211D01*
X37307500Y-75988211D02*
X40907500Y-75988211D01*
X37307500Y-79088211D02*
X37307500Y-75988211D01*
X40907500Y-75988211D02*
X40907500Y-79088211D01*
X40907500Y-79088211D02*
X37307500Y-79088211D01*
X56307500Y-71238211D02*
X59907500Y-71238211D01*
X56307500Y-74338211D02*
X56307500Y-71238211D01*
X59907500Y-71238211D02*
X59907500Y-74338211D01*
X59907500Y-74338211D02*
X56307500Y-74338211D01*
X75307500Y-68863211D02*
X78907500Y-68863211D01*
X75307500Y-71963211D02*
X75307500Y-68863211D01*
X78907500Y-68863211D02*
X78907500Y-71963211D01*
X78907500Y-71963211D02*
X75307500Y-71963211D01*
X116907500Y-76713211D02*
X113307500Y-76713211D01*
X116907500Y-73613211D02*
X116907500Y-76713211D01*
X113307500Y-76713211D02*
X113307500Y-73613211D01*
X113307500Y-73613211D02*
X116907500Y-73613211D01*
X136213460Y-95754365D02*
X134413460Y-98872057D01*
X133528782Y-94204365D02*
X136213460Y-95754365D01*
X134413460Y-98872057D02*
X131728782Y-97322057D01*
X131728782Y-97322057D02*
X133528782Y-94204365D01*
X217807500Y-49863211D02*
X221407500Y-49863211D01*
X217807500Y-52963211D02*
X217807500Y-49863211D01*
X221407500Y-49863211D02*
X221407500Y-52963211D01*
X221407500Y-52963211D02*
X217807500Y-52963211D01*
X198807500Y-52238211D02*
X202407500Y-52238211D01*
X198807500Y-55338211D02*
X198807500Y-52238211D01*
X202407500Y-52238211D02*
X202407500Y-55338211D01*
X202407500Y-55338211D02*
X198807500Y-55338211D01*
X179807500Y-54613211D02*
X183407500Y-54613211D01*
X179807500Y-57713211D02*
X179807500Y-54613211D01*
X183407500Y-54613211D02*
X183407500Y-57713211D01*
X183407500Y-57713211D02*
X179807500Y-57713211D01*
X274807500Y-75988211D02*
X278407500Y-75988211D01*
X274807500Y-79088211D02*
X274807500Y-75988211D01*
X278407500Y-75988211D02*
X278407500Y-79088211D01*
X278407500Y-79088211D02*
X274807500Y-79088211D01*
X255807500Y-75988211D02*
X259407500Y-75988211D01*
X255807500Y-79088211D02*
X255807500Y-75988211D01*
X259407500Y-75988211D02*
X259407500Y-79088211D01*
X259407500Y-79088211D02*
X255807500Y-79088211D01*
X236807500Y-71238211D02*
X240407500Y-71238211D01*
X236807500Y-74338211D02*
X236807500Y-71238211D01*
X240407500Y-71238211D02*
X240407500Y-74338211D01*
X240407500Y-74338211D02*
X236807500Y-74338211D01*
X217807500Y-68863211D02*
X221407500Y-68863211D01*
X217807500Y-71963211D02*
X217807500Y-68863211D01*
X221407500Y-68863211D02*
X221407500Y-71963211D01*
X221407500Y-71963211D02*
X217807500Y-71963211D01*
X198807500Y-71238211D02*
X202407500Y-71238211D01*
X198807500Y-74338211D02*
X198807500Y-71238211D01*
X202407500Y-71238211D02*
X202407500Y-74338211D01*
X202407500Y-74338211D02*
X198807500Y-74338211D01*
X179807500Y-73613211D02*
X183407500Y-73613211D01*
X179807500Y-76713211D02*
X179807500Y-73613211D01*
X183407500Y-73613211D02*
X183407500Y-76713211D01*
X183407500Y-76713211D02*
X179807500Y-76713211D01*
X208307500Y-90863211D02*
X211907500Y-90863211D01*
X208307500Y-93963211D02*
X208307500Y-90863211D01*
X211907500Y-90863211D02*
X211907500Y-93963211D01*
X211907500Y-93963211D02*
X208307500Y-93963211D01*
X188204054Y-93965048D02*
X191681387Y-93033300D01*
X189006393Y-96959418D02*
X188204054Y-93965048D01*
X191681387Y-93033300D02*
X192483726Y-96027670D01*
X192483726Y-96027670D02*
X189006393Y-96959418D01*
X88407500Y-93963211D02*
X84807500Y-93963211D01*
X88407500Y-90863211D02*
X88407500Y-93963211D01*
X84807500Y-93963211D02*
X84807500Y-90863211D01*
X84807500Y-90863211D02*
X88407500Y-90863211D01*
X107715607Y-96964418D02*
X104238274Y-96032670D01*
X108517946Y-93970048D02*
X107715607Y-96964418D01*
X104238274Y-96032670D02*
X105040613Y-93038300D01*
X105040613Y-93038300D02*
X108517946Y-93970048D01*
X94307500Y-71238211D02*
X97907500Y-71238211D01*
X94307500Y-74338211D02*
X94307500Y-71238211D01*
X97907500Y-71238211D02*
X97907500Y-74338211D01*
X97907500Y-74338211D02*
X94307500Y-74338211D01*
X274807500Y-37988211D02*
X278407500Y-37988211D01*
X274807500Y-41088211D02*
X274807500Y-37988211D01*
X278407500Y-37988211D02*
X278407500Y-41088211D01*
X278407500Y-41088211D02*
X274807500Y-41088211D01*
X255807500Y-37988211D02*
X259407500Y-37988211D01*
X255807500Y-41088211D02*
X255807500Y-37988211D01*
X259407500Y-37988211D02*
X259407500Y-41088211D01*
X259407500Y-41088211D02*
X255807500Y-41088211D01*
X236807500Y-33238211D02*
X240407500Y-33238211D01*
X236807500Y-36338211D02*
X236807500Y-33238211D01*
X240407500Y-33238211D02*
X240407500Y-36338211D01*
X240407500Y-36338211D02*
X236807500Y-36338211D01*
X217807500Y-30863211D02*
X221407500Y-30863211D01*
X217807500Y-33963211D02*
X217807500Y-30863211D01*
X221407500Y-30863211D02*
X221407500Y-33963211D01*
X221407500Y-33963211D02*
X217807500Y-33963211D01*
X198807500Y-33238211D02*
X202407500Y-33238211D01*
X198807500Y-36338211D02*
X198807500Y-33238211D01*
X202407500Y-33238211D02*
X202407500Y-36338211D01*
X202407500Y-36338211D02*
X198807500Y-36338211D01*
X179807500Y-35613211D02*
X183407500Y-35613211D01*
X179807500Y-38713211D02*
X179807500Y-35613211D01*
X183407500Y-35613211D02*
X183407500Y-38713211D01*
X183407500Y-38713211D02*
X179807500Y-38713211D01*
X274807500Y-56988211D02*
X278407500Y-56988211D01*
X274807500Y-60088211D02*
X274807500Y-56988211D01*
X278407500Y-56988211D02*
X278407500Y-60088211D01*
X278407500Y-60088211D02*
X274807500Y-60088211D01*
X255807500Y-56988211D02*
X259407500Y-56988211D01*
X255807500Y-60088211D02*
X255807500Y-56988211D01*
X259407500Y-56988211D02*
X259407500Y-60088211D01*
X259407500Y-60088211D02*
X255807500Y-60088211D01*
X236807500Y-52238211D02*
X240407500Y-52238211D01*
X236807500Y-55338211D02*
X236807500Y-52238211D01*
X240407500Y-52238211D02*
X240407500Y-55338211D01*
X240407500Y-55338211D02*
X236807500Y-55338211D01*
X163193218Y-94199365D02*
X164993218Y-97317057D01*
X160508540Y-95749365D02*
X163193218Y-94199365D01*
X164993218Y-97317057D02*
X162308540Y-98867057D01*
X162308540Y-98867057D02*
X160508540Y-95749365D01*
M02*
