%TF.GenerationSoftware,KiCad,Pcbnew,7.0.7*%
%TF.CreationDate,2023-09-12T00:09:27-04:00*%
%TF.ProjectId,corne-eclipse,636f726e-6973-4682-9d65-636c69707365,1*%
%TF.SameCoordinates,Original*%
%TF.FileFunction,Drillmap*%
%TF.FilePolarity,Positive*%
%FSLAX45Y45*%
G04 Gerber Fmt 4.5, Leading zero omitted, Abs format (unit mm)*
G04 Created by KiCad (PCBNEW 7.0.7) date 2023-09-12 00:09:27*
%MOMM*%
%LPD*%
G01*
G04 APERTURE LIST*
%ADD10C,0.200000*%
%ADD11C,0.030000*%
%ADD12C,0.190000*%
%ADD13C,0.220000*%
%ADD14C,0.300000*%
%ADD15C,0.410000*%
%ADD16C,0.430000*%
G04 APERTURE END LIST*
D10*
X1780750Y-8202852D02*
X1781250Y-8225821D01*
X1781250Y-8225821D02*
X1781230Y-8226021D01*
X1781230Y-8226021D02*
X1781230Y-8226021D01*
X1781230Y-8226021D02*
X1778960Y-8249121D01*
X1778960Y-8249121D02*
X1778960Y-8249121D01*
X1778960Y-8249121D02*
X1778960Y-8249121D01*
X1778960Y-8249121D02*
X1778960Y-8249221D01*
X1778960Y-8249221D02*
X1778860Y-8249621D01*
X1778860Y-8249621D02*
X1778770Y-8250121D01*
X1778770Y-8250121D02*
X1772080Y-8272221D01*
X1772080Y-8272221D02*
X1772060Y-8272321D01*
X1772060Y-8272321D02*
X1771880Y-8272721D01*
X1771880Y-8272721D02*
X1771700Y-8273221D01*
X1771700Y-8273221D02*
X1760820Y-8293621D01*
X1760820Y-8293621D02*
X1760790Y-8293721D01*
X1760790Y-8293721D02*
X1760540Y-8294021D01*
X1760540Y-8294021D02*
X1760280Y-8294421D01*
X1760280Y-8294421D02*
X1745640Y-8312421D01*
X1745640Y-8312421D02*
X1745640Y-8312421D01*
X1745640Y-8312421D02*
X1745640Y-8312421D01*
X1745640Y-8312421D02*
X1745590Y-8312421D01*
X1745590Y-8312421D02*
X1745270Y-8312821D01*
X1745270Y-8312821D02*
X1744950Y-8313121D01*
X1744950Y-8313121D02*
X1727090Y-8327921D01*
X1727090Y-8327921D02*
X1727040Y-8327921D01*
X1727040Y-8327921D02*
X1726660Y-8328121D01*
X1726660Y-8328121D02*
X1726280Y-8328421D01*
X1726280Y-8328421D02*
X1705900Y-8339421D01*
X1705900Y-8339421D02*
X1705900Y-8339421D01*
X1705900Y-8339421D02*
X1705900Y-8339421D01*
X1705900Y-8339421D02*
X1705830Y-8339521D01*
X1705830Y-8339521D02*
X1705420Y-8339621D01*
X1705420Y-8339621D02*
X1705000Y-8339821D01*
X1705000Y-8339821D02*
X1682860Y-8346721D01*
X1682860Y-8346721D02*
X1682790Y-8346721D01*
X1682790Y-8346721D02*
X1682350Y-8346821D01*
X1682350Y-8346821D02*
X1681900Y-8346821D01*
X1681900Y-8346821D02*
X1658850Y-8349321D01*
X1658850Y-8349321D02*
X1658780Y-8349321D01*
X1658780Y-8349321D02*
X1658560Y-8349321D01*
X1658560Y-8349321D02*
X1658350Y-8349321D01*
X1658350Y-8349321D02*
X1657750Y-8349321D01*
X1657750Y-8349321D02*
X1657740Y-8349321D01*
X1657740Y-8349321D02*
X1182520Y-8349321D01*
X1182520Y-8349321D02*
X1181940Y-8349321D01*
X1181940Y-8349321D02*
X1159630Y-8351621D01*
X1159630Y-8351621D02*
X1138430Y-8358221D01*
X1138430Y-8358221D02*
X1118910Y-8368821D01*
X1118910Y-8368821D02*
X1101800Y-8382921D01*
X1101800Y-8382921D02*
X1087780Y-8400121D01*
X1087780Y-8400121D02*
X1077360Y-8419721D01*
X1077360Y-8419721D02*
X1070940Y-8441021D01*
X1070940Y-8441021D02*
X1068750Y-8463321D01*
X1068750Y-11550521D02*
X1068750Y-11551121D01*
X1068750Y-11551121D02*
X1071100Y-11573421D01*
X1071100Y-11573421D02*
X1077660Y-11594621D01*
X1077660Y-11594621D02*
X1088220Y-11614121D01*
X1088220Y-11614121D02*
X1102360Y-11631221D01*
X1102360Y-11631221D02*
X1119570Y-11645321D01*
X1119570Y-11645321D02*
X1139160Y-11655721D01*
X1139160Y-11655721D02*
X1160410Y-11662121D01*
X1160410Y-11662121D02*
X1182740Y-11664321D01*
X1182740Y-11664321D02*
X28505750Y-11663421D01*
X28505550Y-1104671D02*
X1182520Y-1105571D01*
X1182520Y-1105571D02*
X1181940Y-1105571D01*
X1181940Y-1105571D02*
X1159630Y-1107921D01*
X1159630Y-1107921D02*
X1138430Y-1114481D01*
X1138430Y-1114481D02*
X1118910Y-1125041D01*
X1118910Y-1125041D02*
X1101800Y-1139191D01*
X1101800Y-1139191D02*
X1087780Y-1156391D01*
X1087780Y-1156391D02*
X1077360Y-1175981D01*
X1077360Y-1175981D02*
X1070940Y-1197231D01*
X1070940Y-1197231D02*
X1068750Y-1219571D01*
X1068750Y-1219571D02*
X1068750Y-1575551D01*
X1068750Y-1575551D02*
X1068750Y-1576131D01*
X1068750Y-1576131D02*
X1071100Y-1598441D01*
X1071100Y-1598441D02*
X1077660Y-1619641D01*
X1077660Y-1619641D02*
X1088220Y-1639171D01*
X1088220Y-1639171D02*
X1102360Y-1656271D01*
X1102360Y-1656271D02*
X1119570Y-1670301D01*
X1119570Y-1670301D02*
X1139160Y-1680721D01*
X1139160Y-1680721D02*
X1160410Y-1687131D01*
X1160410Y-1687131D02*
X1182740Y-1689321D01*
X1182740Y-1689321D02*
X5457740Y-1689321D01*
X5457740Y-1689321D02*
X5457990Y-1689351D01*
X5457990Y-1689351D02*
X5457990Y-1689351D01*
X5457990Y-1689351D02*
X5481050Y-1691611D01*
X5481050Y-1691611D02*
X5481050Y-1691611D01*
X5481050Y-1691611D02*
X5481050Y-1691611D01*
X5481050Y-1691611D02*
X5481120Y-1691611D01*
X5481120Y-1691611D02*
X5481560Y-1691711D01*
X5481560Y-1691711D02*
X5482010Y-1691801D01*
X5482010Y-1691801D02*
X5504200Y-1698501D01*
X5504200Y-1698501D02*
X5504260Y-1698521D01*
X5504260Y-1698521D02*
X5504680Y-1698691D01*
X5504680Y-1698691D02*
X5505100Y-1698871D01*
X5505100Y-1698871D02*
X5525560Y-1709751D01*
X5525560Y-1709751D02*
X5525560Y-1709751D01*
X5525560Y-1709751D02*
X5525560Y-1709751D01*
X5525560Y-1709751D02*
X5525620Y-1709781D01*
X5525620Y-1709781D02*
X5526000Y-1710041D01*
X5526000Y-1710041D02*
X5526380Y-1710291D01*
X5526380Y-1710291D02*
X5544340Y-1724941D01*
X5544340Y-1724941D02*
X5544390Y-1724981D01*
X5544390Y-1724981D02*
X5544700Y-1725301D01*
X5544700Y-1725301D02*
X5545030Y-1725621D01*
X5545030Y-1725621D02*
X5559800Y-1743481D01*
X5559800Y-1743481D02*
X5559840Y-1743531D01*
X5559840Y-1743531D02*
X5560090Y-1743911D01*
X5560090Y-1743911D02*
X5560350Y-1744291D01*
X5560350Y-1744291D02*
X5571370Y-1764681D01*
X5571370Y-1764681D02*
X5571370Y-1764681D01*
X5571370Y-1764681D02*
X5571370Y-1764681D01*
X5571370Y-1764681D02*
X5571400Y-1764741D01*
X5571400Y-1764741D02*
X5571570Y-1765161D01*
X5571570Y-1765161D02*
X5571750Y-1765581D01*
X5571750Y-1765581D02*
X5578600Y-1787721D01*
X5578600Y-1787721D02*
X5578620Y-1787781D01*
X5578620Y-1787781D02*
X5578710Y-1788231D01*
X5578710Y-1788231D02*
X5578800Y-1788671D01*
X5578800Y-1788671D02*
X5581220Y-1811721D01*
X5581220Y-1811721D02*
X5581230Y-1811791D01*
X5581230Y-1811791D02*
X5581220Y-1812011D01*
X5581220Y-1812011D02*
X5581250Y-1812231D01*
X5581250Y-1812231D02*
X5581250Y-1812821D01*
X5581250Y-1812821D02*
X5581250Y-1812831D01*
X5581250Y-1812831D02*
X5581750Y-2102846D01*
X4455751Y-8202928D02*
X4456251Y-8225521D01*
X4456251Y-8225521D02*
X4456251Y-8226121D01*
X4456251Y-8226121D02*
X4458601Y-8248421D01*
X4458601Y-8248421D02*
X4465161Y-8269621D01*
X4465161Y-8269621D02*
X4475721Y-8289121D01*
X4475721Y-8289121D02*
X4489861Y-8306221D01*
X4489861Y-8306221D02*
X4507071Y-8320321D01*
X4507071Y-8320321D02*
X4526661Y-8330721D01*
X4526661Y-8330721D02*
X4547911Y-8337121D01*
X4547911Y-8337121D02*
X4570241Y-8339321D01*
X4570241Y-8339321D02*
X4807741Y-8339321D01*
X4807741Y-8339321D02*
X4807991Y-8339321D01*
X4807991Y-8339321D02*
X4807991Y-8339321D01*
X4807991Y-8339321D02*
X4831051Y-8341621D01*
X4831051Y-8341621D02*
X4831051Y-8341621D01*
X4831051Y-8341621D02*
X4831051Y-8341621D01*
X4831051Y-8341621D02*
X4831121Y-8341621D01*
X4831121Y-8341621D02*
X4831561Y-8341721D01*
X4831561Y-8341721D02*
X4832011Y-8341821D01*
X4832011Y-8341821D02*
X4854201Y-8348521D01*
X4854201Y-8348521D02*
X4854261Y-8348521D01*
X4854261Y-8348521D02*
X4854681Y-8348721D01*
X4854681Y-8348721D02*
X4855101Y-8348821D01*
X4855101Y-8348821D02*
X4875561Y-8359721D01*
X4875561Y-8359721D02*
X4875561Y-8359721D01*
X4875561Y-8359721D02*
X4875561Y-8359721D01*
X4875561Y-8359721D02*
X4875621Y-8359821D01*
X4875621Y-8359821D02*
X4876001Y-8360021D01*
X4876001Y-8360021D02*
X4876381Y-8360321D01*
X4876381Y-8360321D02*
X4894341Y-8374921D01*
X4894341Y-8374921D02*
X4894391Y-8375021D01*
X4894391Y-8375021D02*
X4894701Y-8375321D01*
X4894701Y-8375321D02*
X4895031Y-8375621D01*
X4895031Y-8375621D02*
X4909801Y-8393521D01*
X4909801Y-8393521D02*
X4909841Y-8393521D01*
X4909841Y-8393521D02*
X4910091Y-8393921D01*
X4910091Y-8393921D02*
X4910351Y-8394321D01*
X4910351Y-8394321D02*
X4921371Y-8414721D01*
X4921371Y-8414721D02*
X4921371Y-8414721D01*
X4921371Y-8414721D02*
X4921371Y-8414721D01*
X4921371Y-8414721D02*
X4921401Y-8414721D01*
X4921401Y-8414721D02*
X4921571Y-8415121D01*
X4921571Y-8415121D02*
X4921751Y-8415621D01*
X4921751Y-8415621D02*
X4928601Y-8437721D01*
X4928601Y-8437721D02*
X4928621Y-8437821D01*
X4928621Y-8437821D02*
X4928711Y-8438221D01*
X4928711Y-8438221D02*
X4928801Y-8438721D01*
X4928801Y-8438721D02*
X4931221Y-8461721D01*
X4931221Y-8461721D02*
X4931231Y-8461821D01*
X4931231Y-8461821D02*
X4931221Y-8462021D01*
X4931221Y-8462021D02*
X4931251Y-8462221D01*
X4931251Y-8462221D02*
X4931251Y-8462821D01*
X4931251Y-8462821D02*
X4931251Y-8462821D01*
X4931251Y-8462821D02*
X4931251Y-11180521D01*
X4931251Y-11180521D02*
X4931251Y-11181121D01*
X4931251Y-11181121D02*
X4933601Y-11203421D01*
X4933601Y-11203421D02*
X4940161Y-11224621D01*
X4940161Y-11224621D02*
X4950721Y-11244121D01*
X4950721Y-11244121D02*
X4964861Y-11261221D01*
X4964861Y-11261221D02*
X4982071Y-11275321D01*
X4982071Y-11275321D02*
X5001661Y-11285721D01*
X5001661Y-11285721D02*
X5022911Y-11292121D01*
X5022911Y-11292121D02*
X5045241Y-11294321D01*
X5045241Y-11294321D02*
X24762549Y-11293421D01*
X19718050Y-1698421D02*
X9970050Y-1699321D01*
X9970050Y-1699321D02*
X9969450Y-1699321D01*
X9969450Y-1699321D02*
X9947150Y-1701671D01*
X9947150Y-1701671D02*
X9925950Y-1708231D01*
X9925950Y-1708231D02*
X9906450Y-1718791D01*
X9906450Y-1718791D02*
X9889350Y-1732941D01*
X9889350Y-1732941D02*
X9875250Y-1750141D01*
X9875250Y-1750141D02*
X9864850Y-1769731D01*
X9864850Y-1769731D02*
X9858450Y-1790981D01*
X9858450Y-1790981D02*
X9856250Y-1813321D01*
X9856250Y-1813321D02*
X9856750Y-2102694D01*
X2256750Y-8202852D02*
X2256250Y-8225521D01*
X2256250Y-8225521D02*
X2256250Y-8226121D01*
X2256250Y-8226121D02*
X2258600Y-8248421D01*
X2258600Y-8248421D02*
X2265160Y-8269621D01*
X2265160Y-8269621D02*
X2275720Y-8289121D01*
X2275720Y-8289121D02*
X2289860Y-8306221D01*
X2289860Y-8306221D02*
X2307070Y-8320321D01*
X2307070Y-8320321D02*
X2326660Y-8330721D01*
X2326660Y-8330721D02*
X2347910Y-8337121D01*
X2347910Y-8337121D02*
X2370240Y-8339321D01*
X2370240Y-8339321D02*
X3858061Y-8339321D01*
X3857481Y-8339321D02*
X3858061Y-8339321D01*
X3858061Y-8339321D02*
X3880371Y-8337021D01*
X3880371Y-8337021D02*
X3901571Y-8330421D01*
X3901571Y-8330421D02*
X3921091Y-8319821D01*
X3921091Y-8319821D02*
X3938201Y-8305721D01*
X3938201Y-8305721D02*
X3952221Y-8288521D01*
X3952221Y-8288521D02*
X3962641Y-8268921D01*
X3962641Y-8268921D02*
X3969061Y-8247621D01*
X3969061Y-8247621D02*
X3971251Y-8225321D01*
X3971251Y-8225321D02*
X3971751Y-8202852D01*
X9372750Y-2102846D02*
X9371250Y-1813091D01*
X9371250Y-1813091D02*
X9371250Y-1812511D01*
X9371250Y-1812511D02*
X9368900Y-1790201D01*
X9368900Y-1790201D02*
X9362340Y-1769001D01*
X9362340Y-1769001D02*
X9351780Y-1749481D01*
X9351780Y-1749481D02*
X9337630Y-1732381D01*
X9337630Y-1732381D02*
X9320430Y-1718351D01*
X9320430Y-1718351D02*
X9300840Y-1707931D01*
X9300840Y-1707931D02*
X9279590Y-1701511D01*
X9279590Y-1701511D02*
X9257260Y-1699321D01*
X9257260Y-1699321D02*
X6170020Y-1699321D01*
X6170020Y-1699321D02*
X6169440Y-1699321D01*
X6169440Y-1699321D02*
X6147130Y-1701671D01*
X6147130Y-1701671D02*
X6125930Y-1708231D01*
X6125930Y-1708231D02*
X6106410Y-1718791D01*
X6106410Y-1718791D02*
X6089300Y-1732941D01*
X6089300Y-1732941D02*
X6075280Y-1750141D01*
X6075280Y-1750141D02*
X6064860Y-1769731D01*
X6064860Y-1769731D02*
X6058440Y-1790981D01*
X6058440Y-1790981D02*
X6056250Y-1813321D01*
X6056250Y-1813321D02*
X6057750Y-2102694D01*
X1068750Y-8463321D02*
X1068750Y-11550521D01*
X23631750Y-2103494D02*
X23631950Y-1812191D01*
X23631950Y-1812191D02*
X23631950Y-1811611D01*
X23631950Y-1811611D02*
X23629650Y-1789301D01*
X23629650Y-1789301D02*
X23623050Y-1768101D01*
X23623050Y-1768101D02*
X23612550Y-1748581D01*
X23612550Y-1748581D02*
X23598350Y-1731481D01*
X23598350Y-1731481D02*
X23581150Y-1717451D01*
X23581150Y-1717451D02*
X23561550Y-1707031D01*
X23561550Y-1707031D02*
X23540350Y-1700611D01*
X23540350Y-1700611D02*
X23518050Y-1698421D01*
X23518050Y-1698421D02*
X20430750Y-1698421D01*
X20430750Y-1698421D02*
X20430150Y-1698421D01*
X20430150Y-1698421D02*
X20407850Y-1700771D01*
X20407850Y-1700771D02*
X20386650Y-1707331D01*
X20386650Y-1707331D02*
X20367150Y-1717891D01*
X20367150Y-1717891D02*
X20350050Y-1732041D01*
X20350050Y-1732041D02*
X20336050Y-1749241D01*
X20336050Y-1749241D02*
X20325650Y-1768831D01*
X20325650Y-1768831D02*
X20319150Y-1790081D01*
X20319150Y-1790081D02*
X20317050Y-1812421D01*
X20317050Y-1812421D02*
X20316750Y-2103646D01*
X28030250Y-8348421D02*
X28007150Y-8346121D01*
X28586450Y-11629821D02*
X28600450Y-11612621D01*
X19781150Y-1717451D02*
X19761550Y-1707031D01*
X19798350Y-1731481D02*
X19781150Y-1717451D01*
X28619450Y-8461621D02*
X28619550Y-11549421D01*
X19832750Y-2103494D02*
X19831950Y-1812191D01*
X19831950Y-1812191D02*
X19831950Y-1811611D01*
X19831950Y-1811611D02*
X19829650Y-1789301D01*
X19829650Y-1789301D02*
X19823050Y-1768101D01*
X19823050Y-1768101D02*
X19812550Y-1748581D01*
X19812550Y-1748581D02*
X19798350Y-1731481D01*
X19761550Y-1707031D02*
X19740350Y-1700611D01*
X19740350Y-1700611D02*
X19718050Y-1698421D01*
X25717749Y-8203552D02*
X25717049Y-8224621D01*
X25717049Y-8224621D02*
X25717049Y-8225221D01*
X25717049Y-8225221D02*
X25719349Y-8247521D01*
X25719349Y-8247521D02*
X25725949Y-8268721D01*
X25725949Y-8268721D02*
X25736449Y-8288221D01*
X25736449Y-8288221D02*
X25750649Y-8305321D01*
X25750649Y-8305321D02*
X25767849Y-8319421D01*
X25767849Y-8319421D02*
X25787449Y-8329821D01*
X25787449Y-8329821D02*
X25808649Y-8336221D01*
X25808649Y-8336221D02*
X25830949Y-8338421D01*
X25830949Y-8338421D02*
X27318250Y-8338421D01*
X27318250Y-8338421D02*
X27318850Y-8338421D01*
X27318850Y-8338421D02*
X27341150Y-8336121D01*
X27341150Y-8336121D02*
X27362350Y-8329521D01*
X27362350Y-8329521D02*
X27381850Y-8318921D01*
X27381850Y-8318921D02*
X27398950Y-8304821D01*
X27398950Y-8304821D02*
X27412950Y-8287621D01*
X27412950Y-8287621D02*
X27423350Y-8268021D01*
X27423350Y-8268021D02*
X27429850Y-8246721D01*
X27429850Y-8246721D02*
X27431950Y-8224421D01*
X27431950Y-8224421D02*
X27432750Y-8203552D01*
X23161950Y-11293421D02*
X23162550Y-11293421D01*
X24762549Y-11293421D02*
X24784849Y-11291121D01*
X24784849Y-11291121D02*
X24806049Y-11284521D01*
X24806049Y-11284521D02*
X24825549Y-11273921D01*
X24825549Y-11273921D02*
X24842649Y-11259821D01*
X24842649Y-11259821D02*
X24856749Y-11242621D01*
X24856749Y-11242621D02*
X24867149Y-11223021D01*
X24867149Y-11223021D02*
X24873549Y-11201721D01*
X24873549Y-11201721D02*
X24875749Y-11179421D01*
X24875749Y-11179421D02*
X24875749Y-8461921D01*
X24875749Y-8461921D02*
X24875749Y-8461721D01*
X24875749Y-8461721D02*
X24875749Y-8461721D01*
X24875749Y-8461721D02*
X24878049Y-8438621D01*
X24878049Y-8438621D02*
X24878049Y-8438621D01*
X24878049Y-8438621D02*
X24878049Y-8438621D01*
X24878049Y-8438621D02*
X24878049Y-8438521D01*
X24878049Y-8438521D02*
X24878149Y-8438121D01*
X24878149Y-8438121D02*
X24878249Y-8437621D01*
X24878249Y-8437621D02*
X24884949Y-8415521D01*
X24884949Y-8415521D02*
X24884949Y-8415421D01*
X24884949Y-8415421D02*
X24885149Y-8415021D01*
X24885149Y-8415021D02*
X24885249Y-8414621D01*
X24885249Y-8414621D02*
X24896149Y-8394121D01*
X24896149Y-8394121D02*
X24896149Y-8394121D01*
X24896149Y-8394121D02*
X24896149Y-8394121D01*
X24896149Y-8394121D02*
X24896249Y-8394021D01*
X24896249Y-8394021D02*
X24896449Y-8393721D01*
X24896449Y-8393721D02*
X24896749Y-8393321D01*
X24896749Y-8393321D02*
X24911349Y-8375321D01*
X24911349Y-8375321D02*
X24911449Y-8375321D01*
X24911449Y-8375321D02*
X24911749Y-8374921D01*
X24911749Y-8374921D02*
X24912049Y-8374621D01*
X24912049Y-8374621D02*
X24929949Y-8359921D01*
X24929949Y-8359921D02*
X24929949Y-8359821D01*
X24929949Y-8359821D02*
X24930349Y-8359621D01*
X24930349Y-8359621D02*
X24930749Y-8359321D01*
X24930749Y-8359321D02*
X24951149Y-8348321D01*
X24951149Y-8348321D02*
X24951149Y-8348321D01*
X24951149Y-8348321D02*
X24951149Y-8348321D01*
X24951149Y-8348321D02*
X24951149Y-8348221D01*
X24951149Y-8348221D02*
X24951549Y-8348121D01*
X24951549Y-8348121D02*
X24952049Y-8347921D01*
X24952049Y-8347921D02*
X24974149Y-8341121D01*
X24974149Y-8341121D02*
X24974149Y-8341121D01*
X24974149Y-8341121D02*
X24974249Y-8341021D01*
X24974249Y-8341021D02*
X24974649Y-8340921D01*
X24974649Y-8340921D02*
X24975049Y-8340921D01*
X24975049Y-8340921D02*
X24998149Y-8338421D01*
X24998149Y-8338421D02*
X24998249Y-8338421D01*
X24998249Y-8338421D02*
X24998449Y-8338421D01*
X24998449Y-8338421D02*
X24998649Y-8338421D01*
X24998649Y-8338421D02*
X24999249Y-8338421D01*
X24999249Y-8338421D02*
X24999249Y-8338421D01*
X24999249Y-8338421D02*
X25118249Y-8338421D01*
X25118249Y-8338421D02*
X25118849Y-8338421D01*
X25118849Y-8338421D02*
X25141149Y-8336121D01*
X25141149Y-8336121D02*
X25162349Y-8329521D01*
X25162349Y-8329521D02*
X25181849Y-8318921D01*
X25181849Y-8318921D02*
X25198949Y-8304821D01*
X25198949Y-8304821D02*
X25212949Y-8287621D01*
X25212949Y-8287621D02*
X25223349Y-8268021D01*
X25223349Y-8268021D02*
X25229849Y-8246721D01*
X25229849Y-8246721D02*
X25232049Y-8224421D01*
X25232049Y-8224421D02*
X25232749Y-8203628D01*
X24109250Y-1788551D02*
X24109350Y-1788111D01*
X24109350Y-1788111D02*
X24109450Y-1787661D01*
X24109450Y-1787661D02*
X24116150Y-1765471D01*
X24116150Y-1765471D02*
X24116150Y-1765411D01*
X24116150Y-1765411D02*
X24116350Y-1764991D01*
X24116350Y-1764991D02*
X24116550Y-1764571D01*
X24116550Y-1764571D02*
X24127450Y-1744111D01*
X24127450Y-1744111D02*
X24127450Y-1744111D01*
X24127450Y-1744111D02*
X24127450Y-1744111D01*
X24127450Y-1744111D02*
X24127450Y-1744051D01*
X24127450Y-1744051D02*
X24127750Y-1743671D01*
X24127750Y-1743671D02*
X24127950Y-1743301D01*
X24127950Y-1743301D02*
X24142650Y-1725341D01*
X24142650Y-1725341D02*
X24142650Y-1725281D01*
X24142650Y-1725281D02*
X24142950Y-1724971D01*
X24142950Y-1724971D02*
X24143350Y-1724641D01*
X24143350Y-1724641D02*
X24161150Y-1709871D01*
X24161150Y-1709871D02*
X24161250Y-1709831D01*
X24161250Y-1709831D02*
X24161550Y-1709581D01*
X24161550Y-1709581D02*
X24161950Y-1709331D01*
X24161950Y-1709331D02*
X24182350Y-1698301D01*
X24182350Y-1698301D02*
X24182350Y-1698301D01*
X24182350Y-1698301D02*
X24182350Y-1698301D01*
X24182350Y-1698301D02*
X24182450Y-1698271D01*
X24182450Y-1698271D02*
X24182850Y-1698101D01*
X24182850Y-1698101D02*
X24183250Y-1697921D01*
X24183250Y-1697921D02*
X24205350Y-1691071D01*
X24205350Y-1691071D02*
X24205350Y-1691071D01*
X24205350Y-1691071D02*
X24205450Y-1691051D01*
X24205450Y-1691051D02*
X24205950Y-1690971D01*
X24205950Y-1690971D02*
X24206350Y-1690871D01*
X24206350Y-1690871D02*
X24229350Y-1688451D01*
X24229350Y-1688451D02*
X24229450Y-1688451D01*
X24229450Y-1688451D02*
X24229650Y-1688451D01*
X24229650Y-1688451D02*
X24229950Y-1688421D01*
X24229950Y-1688421D02*
X24230450Y-1688421D01*
X24230450Y-1688421D02*
X24230550Y-1688421D01*
X24230550Y-1688421D02*
X28505750Y-1688421D01*
X28505750Y-1688421D02*
X28506350Y-1688421D01*
X28506350Y-1688421D02*
X28528650Y-1686081D01*
X28528650Y-1686081D02*
X28549850Y-1679511D01*
X28549850Y-1679511D02*
X28569350Y-1668961D01*
X28569350Y-1668961D02*
X28586450Y-1654811D01*
X28586450Y-1654811D02*
X28600450Y-1637611D01*
X28600450Y-1637611D02*
X28610850Y-1618011D01*
X28610850Y-1618011D02*
X28617350Y-1596761D01*
X28617350Y-1596761D02*
X28619550Y-1574431D01*
X28619550Y-1574431D02*
X28619450Y-1218441D01*
X28619450Y-1218441D02*
X28619450Y-1217861D01*
X28619450Y-1217861D02*
X28617150Y-1195551D01*
X28617150Y-1195551D02*
X28610550Y-1174351D01*
X28610550Y-1174351D02*
X28600050Y-1154831D01*
X28600050Y-1154831D02*
X28585850Y-1137731D01*
X28585850Y-1137731D02*
X28568650Y-1123701D01*
X28568650Y-1123701D02*
X28549050Y-1113281D01*
X28549050Y-1113281D02*
X28527850Y-1106861D01*
X28527850Y-1106861D02*
X28505550Y-1104671D01*
X24107750Y-2103646D02*
X24106950Y-1811931D01*
X24106950Y-1811931D02*
X24107050Y-1811681D01*
X24107050Y-1811681D02*
X24109250Y-1788621D01*
X24109250Y-1788621D02*
X24109250Y-1788621D01*
X24109250Y-1788621D02*
X24109250Y-1788621D01*
X24109250Y-1788621D02*
X24109250Y-1788551D01*
X27907050Y-8225921D02*
X27907050Y-8225721D01*
X27907050Y-8225721D02*
X27907050Y-8225521D01*
X27907050Y-8225521D02*
X27907050Y-8224921D01*
X27907050Y-8224921D02*
X27906950Y-8224921D01*
X27906950Y-8224921D02*
X27907750Y-8203628D01*
X27916550Y-8272121D02*
X27909650Y-8250021D01*
X27909650Y-8250021D02*
X27909650Y-8249921D01*
X27909650Y-8249921D02*
X27909550Y-8249521D01*
X27909550Y-8249521D02*
X27909450Y-8249121D01*
X27909450Y-8249121D02*
X27907050Y-8226021D01*
X27907050Y-8226021D02*
X27907050Y-8225921D01*
X28505750Y-11663421D02*
X28506350Y-11663421D01*
X28506350Y-11663421D02*
X28528650Y-11661121D01*
X28528650Y-11661121D02*
X28549850Y-11654521D01*
X28549850Y-11654521D02*
X28569350Y-11643921D01*
X28569350Y-11643921D02*
X28586450Y-11629821D01*
X28600450Y-11612621D02*
X28610850Y-11593021D01*
X28610850Y-11593021D02*
X28617350Y-11571721D01*
X28617350Y-11571721D02*
X28619550Y-11549421D01*
X28619450Y-8461621D02*
X28617150Y-8439321D01*
X28617150Y-8439321D02*
X28610550Y-8418121D01*
X28610550Y-8418121D02*
X28600050Y-8398621D01*
X28600050Y-8398621D02*
X28585850Y-8381521D01*
X28585850Y-8381521D02*
X28568650Y-8367421D01*
X28568650Y-8367421D02*
X28549050Y-8357021D01*
X28549050Y-8357021D02*
X28527850Y-8350621D01*
X28527850Y-8350621D02*
X28505550Y-8348421D01*
X28505550Y-8348421D02*
X28030550Y-8348421D01*
X28030550Y-8348421D02*
X28030250Y-8348421D01*
X28030250Y-8348421D02*
X28030250Y-8348421D01*
X28007150Y-8346121D02*
X28007150Y-8346121D01*
X28007150Y-8346121D02*
X28007150Y-8346121D01*
X28007150Y-8346121D02*
X28007150Y-8346121D01*
X28007150Y-8346121D02*
X28006650Y-8346021D01*
X28006650Y-8346021D02*
X28006250Y-8345921D01*
X28006250Y-8345921D02*
X27984050Y-8339221D01*
X27984050Y-8339221D02*
X27983950Y-8339221D01*
X27983950Y-8339221D02*
X27983550Y-8339021D01*
X27983550Y-8339021D02*
X27983150Y-8338921D01*
X27983150Y-8338921D02*
X27962650Y-8328021D01*
X27962650Y-8328021D02*
X27962650Y-8328021D01*
X27962650Y-8328021D02*
X27962650Y-8327921D01*
X27962650Y-8327921D02*
X27962250Y-8327721D01*
X27962250Y-8327721D02*
X27961850Y-8327421D01*
X27961850Y-8327421D02*
X27943950Y-8312821D01*
X27943950Y-8312821D02*
X27943950Y-8312821D01*
X27943950Y-8312821D02*
X27943950Y-8312821D01*
X27943950Y-8312821D02*
X27943850Y-8312721D01*
X27943850Y-8312721D02*
X27943550Y-8312421D01*
X27943550Y-8312421D02*
X27943250Y-8312121D01*
X27943250Y-8312121D02*
X27928450Y-8294221D01*
X27928450Y-8294221D02*
X27928450Y-8294221D01*
X27928450Y-8294221D02*
X27928150Y-8293821D01*
X27928150Y-8293821D02*
X27927950Y-8293421D01*
X27927950Y-8293421D02*
X27916850Y-8273021D01*
X27916850Y-8273021D02*
X27916850Y-8273021D01*
X27916850Y-8273021D02*
X27916850Y-8273021D01*
X27916850Y-8273021D02*
X27916850Y-8273021D01*
X27916850Y-8273021D02*
X27916650Y-8272621D01*
X27916650Y-8272621D02*
X27916550Y-8272121D01*
X18162950Y-10168621D02*
X18183119Y-10163198D01*
X18203571Y-10159021D01*
X18224248Y-10156100D01*
X18228406Y-10155667D01*
X15218179Y-8663393D02*
X15209231Y-8645506D01*
X15201683Y-8624044D01*
X15197065Y-8601780D01*
X15195456Y-8579011D01*
X15195470Y-8576144D01*
X19170618Y-2303392D02*
X19170618Y-2153532D01*
X17320484Y-2353430D02*
X19120580Y-2353430D01*
X15195470Y-2628639D02*
X15200402Y-2606969D01*
X15213664Y-2590069D01*
X15232967Y-2580227D01*
X15245458Y-2578651D01*
X15195522Y-2628512D02*
X15195522Y-8575916D01*
X25717749Y-8203552D02*
X27432750Y-8203552D01*
X28570463Y-2628639D02*
X28570640Y-8153514D01*
X24820588Y-2578474D02*
X28520450Y-2578651D01*
X21120574Y-1878450D02*
X22820594Y-1878450D01*
X21070536Y-2053456D02*
X21070536Y-1928488D01*
X19220656Y-2103494D02*
X19832750Y-2103494D01*
X18162950Y-10168621D02*
X16733542Y-10994730D01*
X17270700Y-2403468D02*
X17270471Y-2528639D01*
X17270471Y-2403645D02*
X17275397Y-2381967D01*
X17288657Y-2365059D01*
X17307962Y-2355211D01*
X17320458Y-2353633D01*
X24770550Y-2153532D02*
X24770550Y-2528436D01*
X22920670Y-2103494D02*
X23631750Y-2103494D01*
X22870632Y-1928488D02*
X22870632Y-2053456D01*
X15245559Y-2578474D02*
X17220459Y-2578651D01*
X28570463Y-8153641D02*
X28565527Y-8175317D01*
X28552258Y-8192219D01*
X28532947Y-8202057D01*
X28520451Y-8203628D01*
X28520451Y-8203628D02*
X28520450Y-8203628D01*
X28520450Y-2578651D02*
X28542128Y-2583576D01*
X28559037Y-2596837D01*
X28568885Y-2616143D01*
X28570463Y-2628638D01*
X28570463Y-2628638D02*
X28570463Y-2628639D01*
X24820461Y-2578651D02*
X24798783Y-2573726D01*
X24781874Y-2560465D01*
X24772026Y-2541159D01*
X24770449Y-2528664D01*
X24770449Y-2528664D02*
X24770449Y-2528639D01*
X24720462Y-2103646D02*
X24742131Y-2108579D01*
X24759030Y-2121840D01*
X24768873Y-2141142D01*
X24770449Y-2153634D01*
X22920466Y-2103646D02*
X22898788Y-2098721D01*
X22881880Y-2085461D01*
X22872032Y-2066154D01*
X22870454Y-2053659D01*
X22870454Y-2053659D02*
X22870454Y-2053634D01*
X22820467Y-1878628D02*
X22842143Y-1883564D01*
X22859045Y-1896833D01*
X22868883Y-1916144D01*
X22870454Y-1928640D01*
X22870454Y-1928640D02*
X22870454Y-1928640D01*
X21070459Y-1928640D02*
X21075384Y-1906962D01*
X21088645Y-1890053D01*
X21107951Y-1880205D01*
X21120447Y-1878628D01*
X21120447Y-1878628D02*
X21120447Y-1878628D01*
X21070459Y-2053634D02*
X21065534Y-2075312D01*
X21052274Y-2092221D01*
X21032967Y-2102069D01*
X21020472Y-2103646D01*
X21020472Y-2103646D02*
X21020447Y-2103646D01*
X19170465Y-2153634D02*
X19175398Y-2131964D01*
X19188659Y-2115065D01*
X19207961Y-2105223D01*
X19220452Y-2103646D01*
X19170465Y-2303646D02*
X19165529Y-2325322D01*
X19152260Y-2342224D01*
X19132949Y-2352062D01*
X19120453Y-2353633D01*
X16540730Y-10956782D02*
X15218128Y-8663546D01*
X16541040Y-10957244D02*
X16540730Y-10956782D01*
X16733542Y-10994730D02*
X16715136Y-11005208D01*
X16695861Y-11012608D01*
X16676044Y-11016993D01*
X16656010Y-11018426D01*
X16629527Y-11015855D01*
X16604014Y-11008301D01*
X16585982Y-10999455D01*
X16569258Y-10987955D01*
X16554168Y-10973863D01*
X16541040Y-10957244D01*
X21930807Y-9664000D02*
X18228406Y-10155667D01*
X24839109Y-8218284D02*
X23820163Y-9649344D01*
X17270471Y-2528639D02*
X17265546Y-2550317D01*
X17252285Y-2567226D01*
X17232978Y-2577074D01*
X17220483Y-2578651D01*
X17220483Y-2578651D02*
X17220459Y-2578651D01*
X4815035Y-8202828D02*
X4455751Y-8202928D01*
X1169050Y-8202828D02*
X1780750Y-8202852D01*
X4969038Y-2102846D02*
X5581750Y-2102846D01*
X8669053Y-2102846D02*
X9372750Y-2102846D01*
X12469017Y-2577851D02*
X12469041Y-2577851D01*
X12419029Y-2527839D02*
X12423954Y-2549517D01*
X12437215Y-2566426D01*
X12456521Y-2576274D01*
X12469017Y-2577851D01*
X7758693Y-9663200D02*
X11461094Y-10154867D01*
X12955958Y-10993930D02*
X12974364Y-11004408D01*
X12993639Y-11011808D01*
X13013456Y-11016193D01*
X13033490Y-11017626D01*
X13059973Y-11015055D01*
X13085486Y-11007501D01*
X13103518Y-10998655D01*
X13120242Y-10987155D01*
X13135332Y-10973063D01*
X13148460Y-10956444D01*
X13148460Y-10956444D02*
X13148770Y-10955982D01*
X13148770Y-10955982D02*
X14471372Y-8662746D01*
X10519035Y-2302846D02*
X10523971Y-2324522D01*
X10537240Y-2341424D01*
X10556551Y-2351262D01*
X10569047Y-2352833D01*
X10519035Y-2152834D02*
X10514102Y-2131164D01*
X10500841Y-2114265D01*
X10481539Y-2104423D01*
X10469048Y-2102846D01*
X8669028Y-2102846D02*
X8669053Y-2102846D01*
X8619041Y-2052834D02*
X8623966Y-2074512D01*
X8637226Y-2091421D01*
X8656533Y-2101269D01*
X8669028Y-2102846D01*
X8569053Y-1877828D02*
X8569053Y-1877828D01*
X8619041Y-1927840D02*
X8614116Y-1906162D01*
X8600855Y-1889253D01*
X8581549Y-1879405D01*
X8569053Y-1877828D01*
X6819046Y-1927840D02*
X6819046Y-1927840D01*
X6869033Y-1877828D02*
X6847357Y-1882764D01*
X6830455Y-1896033D01*
X6820616Y-1915344D01*
X6819046Y-1927840D01*
X6819046Y-2052859D02*
X6819046Y-2052834D01*
X6769033Y-2102846D02*
X6790712Y-2097921D01*
X6807620Y-2084661D01*
X6817468Y-2065354D01*
X6819046Y-2052859D01*
X4969038Y-2102846D02*
X4947369Y-2107779D01*
X4930469Y-2121040D01*
X4920627Y-2140342D01*
X4919051Y-2152834D01*
X4919051Y-2527864D02*
X4919051Y-2527839D01*
X4869039Y-2577851D02*
X4890717Y-2572926D01*
X4907626Y-2559665D01*
X4917474Y-2540359D01*
X4919051Y-2527864D01*
X1119037Y-2627838D02*
X1119037Y-2627839D01*
X1169050Y-2577851D02*
X1147372Y-2582776D01*
X1130463Y-2596037D01*
X1120615Y-2615343D01*
X1119037Y-2627838D01*
X1169049Y-8202828D02*
X1169050Y-8202828D01*
X1119037Y-8152841D02*
X1123973Y-8174517D01*
X1137242Y-8191419D01*
X1156553Y-8201257D01*
X1169049Y-8202828D01*
X14443940Y-2577674D02*
X12469041Y-2577851D01*
X6819046Y-1927840D02*
X6818868Y-2052656D01*
X6768830Y-2102694D02*
X6057750Y-2102694D01*
X4918950Y-2152732D02*
X4918950Y-2527636D01*
X12419029Y-2402845D02*
X12414103Y-2381167D01*
X12400843Y-2364259D01*
X12381538Y-2354411D01*
X12369042Y-2352833D01*
X12418800Y-2402668D02*
X12419029Y-2527839D01*
X11526550Y-10167821D02*
X12955958Y-10993930D01*
X10468844Y-2102694D02*
X9856750Y-2102694D01*
X8618964Y-2052656D02*
X8618964Y-1927688D01*
X8568926Y-1877650D02*
X6868906Y-1877650D01*
X4868912Y-2577674D02*
X1169050Y-2577851D01*
X1119037Y-2627839D02*
X1118860Y-8152714D01*
X3971751Y-8202852D02*
X2256750Y-8202852D01*
X14493978Y-2627712D02*
X14493978Y-8575116D01*
X14494030Y-2627839D02*
X14489097Y-2606169D01*
X14475836Y-2589269D01*
X14456533Y-2579427D01*
X14444042Y-2577851D01*
X12369016Y-2352630D02*
X10568920Y-2352630D01*
X10518882Y-2302592D02*
X10518882Y-2152732D01*
X14471321Y-8662593D02*
X14480269Y-8644706D01*
X14487817Y-8623244D01*
X14492435Y-8600980D01*
X14494044Y-8578211D01*
X14494030Y-8575344D01*
X24839109Y-8218284D02*
X24856462Y-8206986D01*
X24874465Y-8203628D01*
X4850391Y-8217484D02*
X4833038Y-8206186D01*
X4815035Y-8202828D01*
X11526550Y-10167821D02*
X11506380Y-10162398D01*
X11485928Y-10158221D01*
X11465252Y-10155300D01*
X11461094Y-10154867D01*
X21020447Y-2103646D02*
X20316750Y-2103646D01*
X5869337Y-9648544D02*
X5886690Y-9659842D01*
X5904694Y-9663200D01*
X23784806Y-9664000D02*
X21930807Y-9664000D01*
X4850391Y-8217484D02*
X5869337Y-9648544D01*
X5904694Y-9663200D02*
X7758693Y-9663200D01*
X24870750Y-8203628D02*
X25232749Y-8203628D01*
X24720462Y-2103646D02*
X24107750Y-2103646D01*
X28520450Y-8203628D02*
X27907750Y-8203628D01*
X23820163Y-9649344D02*
X23802810Y-9660642D01*
X23784806Y-9664000D01*
D11*
X1763750Y-8203421D02*
X1793750Y-8233421D01*
X1793750Y-8203421D02*
X1763750Y-8233421D01*
X1823125Y-8203421D02*
X1853125Y-8233421D01*
X1853125Y-8203421D02*
X1823125Y-8233421D01*
X1882500Y-8203421D02*
X1912500Y-8233421D01*
X1912500Y-8203421D02*
X1882500Y-8233421D01*
X1941875Y-8203421D02*
X1971875Y-8233421D01*
X1971875Y-8203421D02*
X1941875Y-8233421D01*
X2001250Y-8203421D02*
X2031250Y-8233421D01*
X2031250Y-8203421D02*
X2001250Y-8233421D01*
X2060625Y-8203421D02*
X2090625Y-8233421D01*
X2090625Y-8203421D02*
X2060625Y-8233421D01*
X2120000Y-8203421D02*
X2150000Y-8233421D01*
X2150000Y-8203421D02*
X2120000Y-8233421D01*
X2179375Y-8203421D02*
X2209375Y-8233421D01*
X2209375Y-8203421D02*
X2179375Y-8233421D01*
X2238750Y-8203421D02*
X2268750Y-8233421D01*
X2268750Y-8203421D02*
X2238750Y-8233421D01*
X3959851Y-8203621D02*
X3989851Y-8233621D01*
X3989851Y-8203621D02*
X3959851Y-8233621D01*
X4019226Y-8203621D02*
X4049226Y-8233621D01*
X4049226Y-8203621D02*
X4019226Y-8233621D01*
X4078601Y-8203621D02*
X4108601Y-8233621D01*
X4108601Y-8203621D02*
X4078601Y-8233621D01*
X4137976Y-8203621D02*
X4167976Y-8233621D01*
X4167976Y-8203621D02*
X4137976Y-8233621D01*
X4197351Y-8203621D02*
X4227351Y-8233621D01*
X4227351Y-8203621D02*
X4197351Y-8233621D01*
X4256726Y-8203621D02*
X4286726Y-8233621D01*
X4286726Y-8203621D02*
X4256726Y-8233621D01*
X4316101Y-8203621D02*
X4346101Y-8233621D01*
X4346101Y-8203621D02*
X4316101Y-8233621D01*
X4375476Y-8203621D02*
X4405476Y-8233621D01*
X4405476Y-8203621D02*
X4375476Y-8233621D01*
X4434851Y-8203621D02*
X4464851Y-8233621D01*
X4464851Y-8203621D02*
X4434851Y-8233621D01*
X5571175Y-2072721D02*
X5601175Y-2102721D01*
X5601175Y-2072721D02*
X5571175Y-2102721D01*
X5630550Y-2072721D02*
X5660550Y-2102721D01*
X5660550Y-2072721D02*
X5630550Y-2102721D01*
X5689925Y-2072721D02*
X5719925Y-2102721D01*
X5719925Y-2072721D02*
X5689925Y-2102721D01*
X5749300Y-2072721D02*
X5779300Y-2102721D01*
X5779300Y-2072721D02*
X5749300Y-2102721D01*
X5808675Y-2072721D02*
X5838675Y-2102721D01*
X5838675Y-2072721D02*
X5808675Y-2102721D01*
X5868050Y-2072721D02*
X5898050Y-2102721D01*
X5898050Y-2072721D02*
X5868050Y-2102721D01*
X5927425Y-2072721D02*
X5957425Y-2102721D01*
X5957425Y-2072721D02*
X5927425Y-2102721D01*
X5986800Y-2072721D02*
X6016800Y-2102721D01*
X6016800Y-2072721D02*
X5986800Y-2102721D01*
X6046175Y-2072721D02*
X6076175Y-2102721D01*
X6076175Y-2072721D02*
X6046175Y-2102721D01*
X9368250Y-2073121D02*
X9398250Y-2103121D01*
X9398250Y-2073121D02*
X9368250Y-2103121D01*
X9427625Y-2073121D02*
X9457625Y-2103121D01*
X9457625Y-2073121D02*
X9427625Y-2103121D01*
X9487000Y-2073121D02*
X9517000Y-2103121D01*
X9517000Y-2073121D02*
X9487000Y-2103121D01*
X9546375Y-2073121D02*
X9576375Y-2103121D01*
X9576375Y-2073121D02*
X9546375Y-2103121D01*
X9605750Y-2073121D02*
X9635750Y-2103121D01*
X9635750Y-2073121D02*
X9605750Y-2103121D01*
X9665125Y-2073121D02*
X9695125Y-2103121D01*
X9695125Y-2073121D02*
X9665125Y-2103121D01*
X9724500Y-2073121D02*
X9754500Y-2103121D01*
X9754500Y-2073121D02*
X9724500Y-2103121D01*
X9783875Y-2073121D02*
X9813875Y-2103121D01*
X9813875Y-2073121D02*
X9783875Y-2103121D01*
X9843250Y-2073121D02*
X9873250Y-2103121D01*
X9873250Y-2073121D02*
X9843250Y-2103121D01*
X19821250Y-2074321D02*
X19851250Y-2104321D01*
X19851250Y-2074321D02*
X19821250Y-2104321D01*
X19880625Y-2074321D02*
X19910625Y-2104321D01*
X19910625Y-2074321D02*
X19880625Y-2104321D01*
X19940000Y-2074321D02*
X19970000Y-2104321D01*
X19970000Y-2074321D02*
X19940000Y-2104321D01*
X19999375Y-2074321D02*
X20029375Y-2104321D01*
X20029375Y-2074321D02*
X19999375Y-2104321D01*
X20058750Y-2074321D02*
X20088750Y-2104321D01*
X20088750Y-2074321D02*
X20058750Y-2104321D01*
X20118125Y-2074321D02*
X20148125Y-2104321D01*
X20148125Y-2074321D02*
X20118125Y-2104321D01*
X20177500Y-2074321D02*
X20207500Y-2104321D01*
X20207500Y-2074321D02*
X20177500Y-2104321D01*
X20236875Y-2074321D02*
X20266875Y-2104321D01*
X20266875Y-2074321D02*
X20236875Y-2104321D01*
X20296250Y-2074321D02*
X20326250Y-2104321D01*
X20326250Y-2074321D02*
X20296250Y-2104321D01*
X23612450Y-2072821D02*
X23642450Y-2102821D01*
X23642450Y-2072821D02*
X23612450Y-2102821D01*
X23671825Y-2072821D02*
X23701825Y-2102821D01*
X23701825Y-2072821D02*
X23671825Y-2102821D01*
X23731200Y-2072821D02*
X23761200Y-2102821D01*
X23761200Y-2072821D02*
X23731200Y-2102821D01*
X23790575Y-2072821D02*
X23820575Y-2102821D01*
X23820575Y-2072821D02*
X23790575Y-2102821D01*
X23849950Y-2072821D02*
X23879950Y-2102821D01*
X23879950Y-2072821D02*
X23849950Y-2102821D01*
X23909325Y-2072821D02*
X23939325Y-2102821D01*
X23939325Y-2072821D02*
X23909325Y-2102821D01*
X23968700Y-2072821D02*
X23998700Y-2102821D01*
X23998700Y-2072821D02*
X23968700Y-2102821D01*
X24028075Y-2072821D02*
X24058075Y-2102821D01*
X24058075Y-2072821D02*
X24028075Y-2102821D01*
X24087450Y-2072821D02*
X24117450Y-2102821D01*
X24117450Y-2072821D02*
X24087450Y-2102821D01*
X25221649Y-8205121D02*
X25251649Y-8235121D01*
X25251649Y-8205121D02*
X25221649Y-8235121D01*
X25281024Y-8205121D02*
X25311024Y-8235121D01*
X25311024Y-8205121D02*
X25281024Y-8235121D01*
X25340399Y-8205121D02*
X25370399Y-8235121D01*
X25370399Y-8205121D02*
X25340399Y-8235121D01*
X25399774Y-8205121D02*
X25429774Y-8235121D01*
X25429774Y-8205121D02*
X25399774Y-8235121D01*
X25459149Y-8205121D02*
X25489149Y-8235121D01*
X25489149Y-8205121D02*
X25459149Y-8235121D01*
X25518524Y-8205121D02*
X25548524Y-8235121D01*
X25548524Y-8205121D02*
X25518524Y-8235121D01*
X25577899Y-8205121D02*
X25607899Y-8235121D01*
X25607899Y-8205121D02*
X25577899Y-8235121D01*
X25637274Y-8205121D02*
X25667274Y-8235121D01*
X25667274Y-8205121D02*
X25637274Y-8235121D01*
X25696649Y-8205121D02*
X25726649Y-8235121D01*
X25726649Y-8205121D02*
X25696649Y-8235121D01*
X27413050Y-8204121D02*
X27443050Y-8234121D01*
X27443050Y-8204121D02*
X27413050Y-8234121D01*
X27472425Y-8204121D02*
X27502425Y-8234121D01*
X27502425Y-8204121D02*
X27472425Y-8234121D01*
X27531800Y-8204121D02*
X27561800Y-8234121D01*
X27561800Y-8204121D02*
X27531800Y-8234121D01*
X27591175Y-8204121D02*
X27621175Y-8234121D01*
X27621175Y-8204121D02*
X27591175Y-8234121D01*
X27650550Y-8204121D02*
X27680550Y-8234121D01*
X27680550Y-8204121D02*
X27650550Y-8234121D01*
X27709925Y-8204121D02*
X27739925Y-8234121D01*
X27739925Y-8204121D02*
X27709925Y-8234121D01*
X27769300Y-8204121D02*
X27799300Y-8234121D01*
X27799300Y-8204121D02*
X27769300Y-8234121D01*
X27828675Y-8204121D02*
X27858675Y-8234121D01*
X27858675Y-8204121D02*
X27828675Y-8234121D01*
X27888050Y-8204121D02*
X27918050Y-8234121D01*
X27918050Y-8204121D02*
X27888050Y-8234121D01*
D12*
X1597750Y-3478821D02*
G75*
G03*
X1597750Y-3478821I-95000J0D01*
G01*
X1597750Y-5378821D02*
G75*
G03*
X1597750Y-5378821I-95000J0D01*
G01*
X1597750Y-7278821D02*
G75*
G03*
X1597750Y-7278821I-95000J0D01*
G01*
X2613750Y-3478821D02*
G75*
G03*
X2613750Y-3478821I-95000J0D01*
G01*
X2613750Y-5378821D02*
G75*
G03*
X2613750Y-5378821I-95000J0D01*
G01*
X2613750Y-7278821D02*
G75*
G03*
X2613750Y-7278821I-95000J0D01*
G01*
X3497750Y-3478821D02*
G75*
G03*
X3497750Y-3478821I-95000J0D01*
G01*
X3497750Y-5378821D02*
G75*
G03*
X3497750Y-5378821I-95000J0D01*
G01*
X3497750Y-7278821D02*
G75*
G03*
X3497750Y-7278821I-95000J0D01*
G01*
X4513750Y-3478821D02*
G75*
G03*
X4513750Y-3478821I-95000J0D01*
G01*
X4513750Y-5378821D02*
G75*
G03*
X4513750Y-5378821I-95000J0D01*
G01*
X4513750Y-7278821D02*
G75*
G03*
X4513750Y-7278821I-95000J0D01*
G01*
X5397750Y-3003821D02*
G75*
G03*
X5397750Y-3003821I-95000J0D01*
G01*
X5397750Y-4903821D02*
G75*
G03*
X5397750Y-4903821I-95000J0D01*
G01*
X5397750Y-6803821D02*
G75*
G03*
X5397750Y-6803821I-95000J0D01*
G01*
X6413750Y-3003821D02*
G75*
G03*
X6413750Y-3003821I-95000J0D01*
G01*
X6413750Y-4903821D02*
G75*
G03*
X6413750Y-4903821I-95000J0D01*
G01*
X6413750Y-6803821D02*
G75*
G03*
X6413750Y-6803821I-95000J0D01*
G01*
X7297750Y-2766321D02*
G75*
G03*
X7297750Y-2766321I-95000J0D01*
G01*
X7297750Y-4666321D02*
G75*
G03*
X7297750Y-4666321I-95000J0D01*
G01*
X7297750Y-6566321D02*
G75*
G03*
X7297750Y-6566321I-95000J0D01*
G01*
X8247750Y-8766321D02*
G75*
G03*
X8247750Y-8766321I-95000J0D01*
G01*
X8313750Y-2766321D02*
G75*
G03*
X8313750Y-2766321I-95000J0D01*
G01*
X8313750Y-4666321D02*
G75*
G03*
X8313750Y-4666321I-95000J0D01*
G01*
X8313750Y-6566321D02*
G75*
G03*
X8313750Y-6566321I-95000J0D01*
G01*
X9197750Y-3003821D02*
G75*
G03*
X9197750Y-3003821I-95000J0D01*
G01*
X9197750Y-4903821D02*
G75*
G03*
X9197750Y-4903821I-95000J0D01*
G01*
X9197750Y-6803821D02*
G75*
G03*
X9197750Y-6803821I-95000J0D01*
G01*
X9263750Y-8766321D02*
G75*
G03*
X9263750Y-8766321I-95000J0D01*
G01*
X10213750Y-3003821D02*
G75*
G03*
X10213750Y-3003821I-95000J0D01*
G01*
X10213750Y-4903821D02*
G75*
G03*
X10213750Y-4903821I-95000J0D01*
G01*
X10213750Y-6803821D02*
G75*
G03*
X10213750Y-6803821I-95000J0D01*
G01*
X10365060Y-8909841D02*
G75*
G03*
X10365060Y-8909841I-95000J0D01*
G01*
X11097750Y-3241321D02*
G75*
G03*
X11097750Y-3241321I-95000J0D01*
G01*
X11097750Y-5141321D02*
G75*
G03*
X11097750Y-5141321I-95000J0D01*
G01*
X11097750Y-7041321D02*
G75*
G03*
X11097750Y-7041321I-95000J0D01*
G01*
X11346440Y-9172801D02*
G75*
G03*
X11346440Y-9172801I-95000J0D01*
G01*
X12113750Y-3241321D02*
G75*
G03*
X12113750Y-3241321I-95000J0D01*
G01*
X12113750Y-5141321D02*
G75*
G03*
X12113750Y-5141321I-95000J0D01*
G01*
X12113750Y-7041321D02*
G75*
G03*
X12113750Y-7041321I-95000J0D01*
G01*
X12826750Y-9856262D02*
G75*
G03*
X12826750Y-9856262I-95000J0D01*
G01*
X13334750Y-8976380D02*
G75*
G03*
X13334750Y-8976380I-95000J0D01*
G01*
X16527450Y-8975880D02*
G75*
G03*
X16527450Y-8975880I-95000J0D01*
G01*
X17035450Y-9855762D02*
G75*
G03*
X17035450Y-9855762I-95000J0D01*
G01*
X17747750Y-3241321D02*
G75*
G03*
X17747750Y-3241321I-95000J0D01*
G01*
X17748450Y-5140821D02*
G75*
G03*
X17748450Y-5140821I-95000J0D01*
G01*
X17748450Y-7040821D02*
G75*
G03*
X17748450Y-7040821I-95000J0D01*
G01*
X18515760Y-9172301D02*
G75*
G03*
X18515760Y-9172301I-95000J0D01*
G01*
X18763750Y-3241321D02*
G75*
G03*
X18763750Y-3241321I-95000J0D01*
G01*
X18764450Y-5140821D02*
G75*
G03*
X18764450Y-5140821I-95000J0D01*
G01*
X18764450Y-7040821D02*
G75*
G03*
X18764450Y-7040821I-95000J0D01*
G01*
X19497140Y-8909341D02*
G75*
G03*
X19497140Y-8909341I-95000J0D01*
G01*
X19648450Y-3003321D02*
G75*
G03*
X19648450Y-3003321I-95000J0D01*
G01*
X19648450Y-4903321D02*
G75*
G03*
X19648450Y-4903321I-95000J0D01*
G01*
X19648450Y-6803321D02*
G75*
G03*
X19648450Y-6803321I-95000J0D01*
G01*
X20598450Y-8765821D02*
G75*
G03*
X20598450Y-8765821I-95000J0D01*
G01*
X20664450Y-3003321D02*
G75*
G03*
X20664450Y-3003321I-95000J0D01*
G01*
X20664450Y-4903321D02*
G75*
G03*
X20664450Y-4903321I-95000J0D01*
G01*
X20664450Y-6803321D02*
G75*
G03*
X20664450Y-6803321I-95000J0D01*
G01*
X21548450Y-2765821D02*
G75*
G03*
X21548450Y-2765821I-95000J0D01*
G01*
X21548450Y-6565821D02*
G75*
G03*
X21548450Y-6565821I-95000J0D01*
G01*
X21548508Y-4669272D02*
G75*
G03*
X21548508Y-4669272I-95000J0D01*
G01*
X21614450Y-8765821D02*
G75*
G03*
X21614450Y-8765821I-95000J0D01*
G01*
X22564450Y-2765821D02*
G75*
G03*
X22564450Y-2765821I-95000J0D01*
G01*
X22564450Y-6565821D02*
G75*
G03*
X22564450Y-6565821I-95000J0D01*
G01*
X22564508Y-4669272D02*
G75*
G03*
X22564508Y-4669272I-95000J0D01*
G01*
X23448450Y-3003321D02*
G75*
G03*
X23448450Y-3003321I-95000J0D01*
G01*
X23448450Y-4903321D02*
G75*
G03*
X23448450Y-4903321I-95000J0D01*
G01*
X23448450Y-6803321D02*
G75*
G03*
X23448450Y-6803321I-95000J0D01*
G01*
X24464450Y-3003321D02*
G75*
G03*
X24464450Y-3003321I-95000J0D01*
G01*
X24464450Y-4903321D02*
G75*
G03*
X24464450Y-4903321I-95000J0D01*
G01*
X24464450Y-6803321D02*
G75*
G03*
X24464450Y-6803321I-95000J0D01*
G01*
X25348450Y-3478321D02*
G75*
G03*
X25348450Y-3478321I-95000J0D01*
G01*
X25348450Y-5378321D02*
G75*
G03*
X25348450Y-5378321I-95000J0D01*
G01*
X25348450Y-7278321D02*
G75*
G03*
X25348450Y-7278321I-95000J0D01*
G01*
X26364450Y-3478321D02*
G75*
G03*
X26364450Y-3478321I-95000J0D01*
G01*
X26364450Y-5378321D02*
G75*
G03*
X26364450Y-5378321I-95000J0D01*
G01*
X26364450Y-7278321D02*
G75*
G03*
X26364450Y-7278321I-95000J0D01*
G01*
X27248450Y-3478321D02*
G75*
G03*
X27248450Y-3478321I-95000J0D01*
G01*
X27248450Y-5378321D02*
G75*
G03*
X27248450Y-5378321I-95000J0D01*
G01*
X27248450Y-7278321D02*
G75*
G03*
X27248450Y-7278321I-95000J0D01*
G01*
X28264450Y-3478321D02*
G75*
G03*
X28264450Y-3478321I-95000J0D01*
G01*
X28264450Y-5378321D02*
G75*
G03*
X28264450Y-5378321I-95000J0D01*
G01*
X28264450Y-7278321D02*
G75*
G03*
X28264450Y-7278321I-95000J0D01*
G01*
D13*
X12786950Y-7216221D02*
X12786950Y-7436221D01*
X12676950Y-7326221D02*
X12896950Y-7326221D01*
X14230150Y-8068321D02*
X14230150Y-8288321D01*
X14120150Y-8178321D02*
X14340150Y-8178321D01*
X15441850Y-8069321D02*
X15441850Y-8289321D01*
X15331850Y-8179321D02*
X15551850Y-8179321D01*
X16885050Y-7217221D02*
X16885050Y-7437221D01*
X16775050Y-7327221D02*
X16995050Y-7327221D01*
D14*
X1735817Y-3330888D02*
X1735817Y-3118754D01*
X1523683Y-3118754D01*
X1523683Y-3330888D01*
X1735817Y-3330888D01*
X1735817Y-5230888D02*
X1735817Y-5018754D01*
X1523683Y-5018754D01*
X1523683Y-5230888D01*
X1735817Y-5230888D01*
X1735817Y-7130888D02*
X1735817Y-6918754D01*
X1523683Y-6918754D01*
X1523683Y-7130888D01*
X1735817Y-7130888D01*
X2370817Y-3076888D02*
X2370817Y-2864754D01*
X2158683Y-2864754D01*
X2158683Y-3076888D01*
X2370817Y-3076888D01*
X2370817Y-4976888D02*
X2370817Y-4764754D01*
X2158683Y-4764754D01*
X2158683Y-4976888D01*
X2370817Y-4976888D01*
X2370817Y-6876888D02*
X2370817Y-6664754D01*
X2158683Y-6664754D01*
X2158683Y-6876888D01*
X2370817Y-6876888D01*
X3635817Y-3330888D02*
X3635817Y-3118754D01*
X3423683Y-3118754D01*
X3423683Y-3330888D01*
X3635817Y-3330888D01*
X3635817Y-5230888D02*
X3635817Y-5018754D01*
X3423683Y-5018754D01*
X3423683Y-5230888D01*
X3635817Y-5230888D01*
X3635817Y-7130888D02*
X3635817Y-6918754D01*
X3423683Y-6918754D01*
X3423683Y-7130888D01*
X3635817Y-7130888D01*
X4270817Y-3076888D02*
X4270817Y-2864754D01*
X4058683Y-2864754D01*
X4058683Y-3076888D01*
X4270817Y-3076888D01*
X4270817Y-4976888D02*
X4270817Y-4764754D01*
X4058683Y-4764754D01*
X4058683Y-4976888D01*
X4270817Y-4976888D01*
X4270817Y-6876888D02*
X4270817Y-6664754D01*
X4058683Y-6664754D01*
X4058683Y-6876888D01*
X4270817Y-6876888D01*
X5535817Y-2855888D02*
X5535817Y-2643754D01*
X5323683Y-2643754D01*
X5323683Y-2855888D01*
X5535817Y-2855888D01*
X5535817Y-4755888D02*
X5535817Y-4543754D01*
X5323683Y-4543754D01*
X5323683Y-4755888D01*
X5535817Y-4755888D01*
X5535817Y-6655888D02*
X5535817Y-6443754D01*
X5323683Y-6443754D01*
X5323683Y-6655888D01*
X5535817Y-6655888D01*
X6170817Y-2601888D02*
X6170817Y-2389754D01*
X5958683Y-2389754D01*
X5958683Y-2601888D01*
X6170817Y-2601888D01*
X6170817Y-4501888D02*
X6170817Y-4289754D01*
X5958683Y-4289754D01*
X5958683Y-4501888D01*
X6170817Y-4501888D01*
X6170817Y-6401888D02*
X6170817Y-6189754D01*
X5958683Y-6189754D01*
X5958683Y-6401888D01*
X6170817Y-6401888D01*
X7435817Y-2618388D02*
X7435817Y-2406254D01*
X7223683Y-2406254D01*
X7223683Y-2618388D01*
X7435817Y-2618388D01*
X7435817Y-4518388D02*
X7435817Y-4306254D01*
X7223683Y-4306254D01*
X7223683Y-4518388D01*
X7435817Y-4518388D01*
X7435817Y-6418388D02*
X7435817Y-6206254D01*
X7223683Y-6206254D01*
X7223683Y-6418388D01*
X7435817Y-6418388D01*
X8070817Y-2364388D02*
X8070817Y-2152254D01*
X7858683Y-2152254D01*
X7858683Y-2364388D01*
X8070817Y-2364388D01*
X8070817Y-4264388D02*
X8070817Y-4052254D01*
X7858683Y-4052254D01*
X7858683Y-4264388D01*
X8070817Y-4264388D01*
X8070817Y-6164388D02*
X8070817Y-5952254D01*
X7858683Y-5952254D01*
X7858683Y-6164388D01*
X8070817Y-6164388D01*
X8385817Y-8618388D02*
X8385817Y-8406254D01*
X8173683Y-8406254D01*
X8173683Y-8618388D01*
X8385817Y-8618388D01*
X9020817Y-8364388D02*
X9020817Y-8152254D01*
X8808683Y-8152254D01*
X8808683Y-8364388D01*
X9020817Y-8364388D01*
X9335817Y-2855888D02*
X9335817Y-2643754D01*
X9123683Y-2643754D01*
X9123683Y-2855888D01*
X9335817Y-2855888D01*
X9335817Y-4755888D02*
X9335817Y-4543754D01*
X9123683Y-4543754D01*
X9123683Y-4755888D01*
X9335817Y-4755888D01*
X9335817Y-6655888D02*
X9335817Y-6443754D01*
X9123683Y-6443754D01*
X9123683Y-6655888D01*
X9335817Y-6655888D01*
X9970817Y-2601888D02*
X9970817Y-2389754D01*
X9758683Y-2389754D01*
X9758683Y-2601888D01*
X9970817Y-2601888D01*
X9970817Y-4501888D02*
X9970817Y-4289754D01*
X9758683Y-4289754D01*
X9758683Y-4501888D01*
X9970817Y-4501888D01*
X9970817Y-6401888D02*
X9970817Y-6189754D01*
X9758683Y-6189754D01*
X9758683Y-6401888D01*
X9970817Y-6401888D01*
X10564539Y-8803433D02*
X10564539Y-8591299D01*
X10352405Y-8591299D01*
X10352405Y-8803433D01*
X10564539Y-8803433D01*
X11235817Y-3093388D02*
X11235817Y-2881254D01*
X11023683Y-2881254D01*
X11023683Y-3093388D01*
X11235817Y-3093388D01*
X11235817Y-4993388D02*
X11235817Y-4781254D01*
X11023683Y-4781254D01*
X11023683Y-4993388D01*
X11235817Y-4993388D01*
X11235817Y-6893388D02*
X11235817Y-6681254D01*
X11023683Y-6681254D01*
X11023683Y-6893388D01*
X11235817Y-6893388D01*
X11243642Y-8722438D02*
X11243642Y-8510304D01*
X11031508Y-8510304D01*
X11031508Y-8722438D01*
X11243642Y-8722438D01*
X11870817Y-2839388D02*
X11870817Y-2627254D01*
X11658683Y-2627254D01*
X11658683Y-2839388D01*
X11870817Y-2839388D01*
X11870817Y-4739388D02*
X11870817Y-4527254D01*
X11658683Y-4527254D01*
X11658683Y-4739388D01*
X11870817Y-4739388D01*
X11870817Y-6639388D02*
X11870817Y-6427254D01*
X11658683Y-6427254D01*
X11658683Y-6639388D01*
X11870817Y-6639388D01*
X12681346Y-9725344D02*
X12681346Y-9513210D01*
X12469212Y-9513210D01*
X12469212Y-9725344D01*
X12681346Y-9725344D01*
X12778876Y-9048418D02*
X12778876Y-8836284D01*
X12566742Y-8836284D01*
X12566742Y-9048418D01*
X12778876Y-9048418D01*
X16821988Y-9064932D02*
X16821988Y-8852798D01*
X16609853Y-8852798D01*
X16609853Y-9064932D01*
X16821988Y-9064932D01*
X17359458Y-9487859D02*
X17359458Y-9275725D01*
X17147324Y-9275725D01*
X17147324Y-9487859D01*
X17359458Y-9487859D01*
X17885817Y-3093388D02*
X17885817Y-2881254D01*
X17673683Y-2881254D01*
X17673683Y-3093388D01*
X17885817Y-3093388D01*
X17886517Y-4992888D02*
X17886517Y-4780754D01*
X17674383Y-4780754D01*
X17674383Y-4992888D01*
X17886517Y-4992888D01*
X17886517Y-6892888D02*
X17886517Y-6680754D01*
X17674383Y-6680754D01*
X17674383Y-6892888D01*
X17886517Y-6892888D01*
X18520817Y-2839388D02*
X18520817Y-2627254D01*
X18308683Y-2627254D01*
X18308683Y-2839388D01*
X18520817Y-2839388D01*
X18521517Y-4738888D02*
X18521517Y-4526754D01*
X18309383Y-4526754D01*
X18309383Y-4738888D01*
X18521517Y-4738888D01*
X18521517Y-6638888D02*
X18521517Y-6426754D01*
X18309383Y-6426754D01*
X18309383Y-6638888D01*
X18521517Y-6638888D01*
X18583759Y-9000153D02*
X18583759Y-8788019D01*
X18371625Y-8788019D01*
X18371625Y-9000153D01*
X18583759Y-9000153D01*
X19131382Y-8590458D02*
X19131382Y-8378324D01*
X18919248Y-8378324D01*
X18919248Y-8590458D01*
X19131382Y-8590458D01*
X19786517Y-2855388D02*
X19786517Y-2643254D01*
X19574383Y-2643254D01*
X19574383Y-2855388D01*
X19786517Y-2855388D01*
X19786517Y-4755388D02*
X19786517Y-4543254D01*
X19574383Y-4543254D01*
X19574383Y-4755388D01*
X19786517Y-4755388D01*
X19786517Y-6655388D02*
X19786517Y-6443254D01*
X19574383Y-6443254D01*
X19574383Y-6655388D01*
X19786517Y-6655388D01*
X20421517Y-2601388D02*
X20421517Y-2389254D01*
X20209383Y-2389254D01*
X20209383Y-2601388D01*
X20421517Y-2601388D01*
X20421517Y-4501388D02*
X20421517Y-4289254D01*
X20209383Y-4289254D01*
X20209383Y-4501388D01*
X20421517Y-4501388D01*
X20421517Y-6401388D02*
X20421517Y-6189254D01*
X20209383Y-6189254D01*
X20209383Y-6401388D01*
X20421517Y-6401388D01*
X20736517Y-8617888D02*
X20736517Y-8405754D01*
X20524383Y-8405754D01*
X20524383Y-8617888D01*
X20736517Y-8617888D01*
X21371517Y-8363888D02*
X21371517Y-8151754D01*
X21159383Y-8151754D01*
X21159383Y-8363888D01*
X21371517Y-8363888D01*
X21686517Y-2617888D02*
X21686517Y-2405754D01*
X21474383Y-2405754D01*
X21474383Y-2617888D01*
X21686517Y-2617888D01*
X21686517Y-6417888D02*
X21686517Y-6205754D01*
X21474383Y-6205754D01*
X21474383Y-6417888D01*
X21686517Y-6417888D01*
X21686575Y-4521339D02*
X21686575Y-4309205D01*
X21474441Y-4309205D01*
X21474441Y-4521339D01*
X21686575Y-4521339D01*
X22321517Y-2363888D02*
X22321517Y-2151754D01*
X22109383Y-2151754D01*
X22109383Y-2363888D01*
X22321517Y-2363888D01*
X22321517Y-6163888D02*
X22321517Y-5951754D01*
X22109383Y-5951754D01*
X22109383Y-6163888D01*
X22321517Y-6163888D01*
X22321575Y-4267339D02*
X22321575Y-4055205D01*
X22109441Y-4055205D01*
X22109441Y-4267339D01*
X22321575Y-4267339D01*
X23586517Y-2855388D02*
X23586517Y-2643254D01*
X23374383Y-2643254D01*
X23374383Y-2855388D01*
X23586517Y-2855388D01*
X23586517Y-4755388D02*
X23586517Y-4543254D01*
X23374383Y-4543254D01*
X23374383Y-4755388D01*
X23586517Y-4755388D01*
X23586517Y-6655388D02*
X23586517Y-6443254D01*
X23374383Y-6443254D01*
X23374383Y-6655388D01*
X23586517Y-6655388D01*
X24221517Y-2601388D02*
X24221517Y-2389254D01*
X24009383Y-2389254D01*
X24009383Y-2601388D01*
X24221517Y-2601388D01*
X24221517Y-4501388D02*
X24221517Y-4289254D01*
X24009383Y-4289254D01*
X24009383Y-4501388D01*
X24221517Y-4501388D01*
X24221517Y-6401388D02*
X24221517Y-6189254D01*
X24009383Y-6189254D01*
X24009383Y-6401388D01*
X24221517Y-6401388D01*
X25486517Y-3330388D02*
X25486517Y-3118254D01*
X25274383Y-3118254D01*
X25274383Y-3330388D01*
X25486517Y-3330388D01*
X25486517Y-5230388D02*
X25486517Y-5018254D01*
X25274383Y-5018254D01*
X25274383Y-5230388D01*
X25486517Y-5230388D01*
X25486517Y-7130388D02*
X25486517Y-6918254D01*
X25274383Y-6918254D01*
X25274383Y-7130388D01*
X25486517Y-7130388D01*
X26121517Y-3076388D02*
X26121517Y-2864254D01*
X25909383Y-2864254D01*
X25909383Y-3076388D01*
X26121517Y-3076388D01*
X26121517Y-4976388D02*
X26121517Y-4764254D01*
X25909383Y-4764254D01*
X25909383Y-4976388D01*
X26121517Y-4976388D01*
X26121517Y-6876388D02*
X26121517Y-6664254D01*
X25909383Y-6664254D01*
X25909383Y-6876388D01*
X26121517Y-6876388D01*
X27386517Y-3330388D02*
X27386517Y-3118254D01*
X27174383Y-3118254D01*
X27174383Y-3330388D01*
X27386517Y-3330388D01*
X27386517Y-5230388D02*
X27386517Y-5018254D01*
X27174383Y-5018254D01*
X27174383Y-5230388D01*
X27386517Y-5230388D01*
X27386517Y-7130388D02*
X27386517Y-6918254D01*
X27174383Y-6918254D01*
X27174383Y-7130388D01*
X27386517Y-7130388D01*
X28021517Y-3076388D02*
X28021517Y-2864254D01*
X27809383Y-2864254D01*
X27809383Y-3076388D01*
X28021517Y-3076388D01*
X28021517Y-4976388D02*
X28021517Y-4764254D01*
X27809383Y-4764254D01*
X27809383Y-4976388D01*
X28021517Y-4976388D01*
X28021517Y-6876388D02*
X28021517Y-6664254D01*
X27809383Y-6664254D01*
X27809383Y-6876388D01*
X28021517Y-6876388D01*
D15*
X2010750Y-3683821D02*
X2215750Y-3478821D01*
X2010750Y-3273821D01*
X1805750Y-3478821D01*
X2010750Y-3683821D01*
X2010750Y-5583821D02*
X2215750Y-5378821D01*
X2010750Y-5173821D01*
X1805750Y-5378821D01*
X2010750Y-5583821D01*
X2010750Y-7483821D02*
X2215750Y-7278821D01*
X2010750Y-7073821D01*
X1805750Y-7278821D01*
X2010750Y-7483821D01*
X3910750Y-3683821D02*
X4115750Y-3478821D01*
X3910750Y-3273821D01*
X3705750Y-3478821D01*
X3910750Y-3683821D01*
X3910750Y-5583821D02*
X4115750Y-5378821D01*
X3910750Y-5173821D01*
X3705750Y-5378821D01*
X3910750Y-5583821D01*
X3910750Y-7483821D02*
X4115750Y-7278821D01*
X3910750Y-7073821D01*
X3705750Y-7278821D01*
X3910750Y-7483821D01*
X5810750Y-3208821D02*
X6015750Y-3003821D01*
X5810750Y-2798821D01*
X5605750Y-3003821D01*
X5810750Y-3208821D01*
X5810750Y-5108821D02*
X6015750Y-4903821D01*
X5810750Y-4698821D01*
X5605750Y-4903821D01*
X5810750Y-5108821D01*
X5810750Y-7008821D02*
X6015750Y-6803821D01*
X5810750Y-6598821D01*
X5605750Y-6803821D01*
X5810750Y-7008821D01*
X7710750Y-2971321D02*
X7915750Y-2766321D01*
X7710750Y-2561321D01*
X7505750Y-2766321D01*
X7710750Y-2971321D01*
X7710750Y-4871321D02*
X7915750Y-4666321D01*
X7710750Y-4461321D01*
X7505750Y-4666321D01*
X7710750Y-4871321D01*
X7710750Y-6771321D02*
X7915750Y-6566321D01*
X7710750Y-6361321D01*
X7505750Y-6566321D01*
X7710750Y-6771321D01*
X8660750Y-8971321D02*
X8865750Y-8766321D01*
X8660750Y-8561321D01*
X8455750Y-8766321D01*
X8660750Y-8971321D01*
X9610750Y-3208821D02*
X9815750Y-3003821D01*
X9610750Y-2798821D01*
X9405750Y-3003821D01*
X9610750Y-3208821D01*
X9610750Y-5108821D02*
X9815750Y-4903821D01*
X9610750Y-4698821D01*
X9405750Y-4903821D01*
X9610750Y-5108821D01*
X9610750Y-7008821D02*
X9815750Y-6803821D01*
X9610750Y-6598821D01*
X9405750Y-6803821D01*
X9610750Y-7008821D01*
X10760750Y-9246321D02*
X10965750Y-9041321D01*
X10760750Y-8836321D01*
X10555750Y-9041321D01*
X10760750Y-9246321D01*
X11510750Y-3446321D02*
X11715750Y-3241321D01*
X11510750Y-3036321D01*
X11305750Y-3241321D01*
X11510750Y-3446321D01*
X11510750Y-5346321D02*
X11715750Y-5141321D01*
X11510750Y-4936321D01*
X11305750Y-5141321D01*
X11510750Y-5346321D01*
X11510750Y-7246321D02*
X11715750Y-7041321D01*
X11510750Y-6836321D01*
X11305750Y-7041321D01*
X11510750Y-7246321D01*
X12985750Y-9621321D02*
X13190750Y-9416321D01*
X12985750Y-9211321D01*
X12780750Y-9416321D01*
X12985750Y-9621321D01*
X16686450Y-9620821D02*
X16891450Y-9415821D01*
X16686450Y-9210821D01*
X16481450Y-9415821D01*
X16686450Y-9620821D01*
X18160750Y-3446321D02*
X18365750Y-3241321D01*
X18160750Y-3036321D01*
X17955750Y-3241321D01*
X18160750Y-3446321D01*
X18161450Y-5345821D02*
X18366450Y-5140821D01*
X18161450Y-4935821D01*
X17956450Y-5140821D01*
X18161450Y-5345821D01*
X18161450Y-7245821D02*
X18366450Y-7040821D01*
X18161450Y-6835821D01*
X17956450Y-7040821D01*
X18161450Y-7245821D01*
X18911450Y-9245821D02*
X19116450Y-9040821D01*
X18911450Y-8835821D01*
X18706450Y-9040821D01*
X18911450Y-9245821D01*
X20061450Y-3208321D02*
X20266450Y-3003321D01*
X20061450Y-2798321D01*
X19856450Y-3003321D01*
X20061450Y-3208321D01*
X20061450Y-5108321D02*
X20266450Y-4903321D01*
X20061450Y-4698321D01*
X19856450Y-4903321D01*
X20061450Y-5108321D01*
X20061450Y-7008321D02*
X20266450Y-6803321D01*
X20061450Y-6598321D01*
X19856450Y-6803321D01*
X20061450Y-7008321D01*
X21011450Y-8970821D02*
X21216450Y-8765821D01*
X21011450Y-8560821D01*
X20806450Y-8765821D01*
X21011450Y-8970821D01*
X21961450Y-2970821D02*
X22166450Y-2765821D01*
X21961450Y-2560821D01*
X21756450Y-2765821D01*
X21961450Y-2970821D01*
X21961450Y-6770821D02*
X22166450Y-6565821D01*
X21961450Y-6360821D01*
X21756450Y-6565821D01*
X21961450Y-6770821D01*
X21961508Y-4874272D02*
X22166508Y-4669272D01*
X21961508Y-4464272D01*
X21756508Y-4669272D01*
X21961508Y-4874272D01*
X23861450Y-3208321D02*
X24066450Y-3003321D01*
X23861450Y-2798321D01*
X23656450Y-3003321D01*
X23861450Y-3208321D01*
X23861450Y-5108321D02*
X24066450Y-4903321D01*
X23861450Y-4698321D01*
X23656450Y-4903321D01*
X23861450Y-5108321D01*
X23861450Y-7008321D02*
X24066450Y-6803321D01*
X23861450Y-6598321D01*
X23656450Y-6803321D01*
X23861450Y-7008321D01*
X25761450Y-3683321D02*
X25966450Y-3478321D01*
X25761450Y-3273321D01*
X25556450Y-3478321D01*
X25761450Y-3683321D01*
X25761450Y-5583321D02*
X25966450Y-5378321D01*
X25761450Y-5173321D01*
X25556450Y-5378321D01*
X25761450Y-5583321D01*
X25761450Y-7483321D02*
X25966450Y-7278321D01*
X25761450Y-7073321D01*
X25556450Y-7278321D01*
X25761450Y-7483321D01*
X27661450Y-3683321D02*
X27866450Y-3478321D01*
X27661450Y-3273321D01*
X27456450Y-3478321D01*
X27661450Y-3683321D01*
X27661450Y-5583321D02*
X27866450Y-5378321D01*
X27661450Y-5173321D01*
X27456450Y-5378321D01*
X27661450Y-5583321D01*
X27661450Y-7483321D02*
X27866450Y-7278321D01*
X27661450Y-7073321D01*
X27456450Y-7278321D01*
X27661450Y-7483321D01*
D16*
X2745750Y-4213821D02*
X3175750Y-4643821D01*
X3175750Y-4213821D02*
X2745750Y-4643821D01*
X3175750Y-4428821D02*
G75*
G03*
X3175750Y-4428821I-215000J0D01*
G01*
X2745750Y-6113821D02*
X3175750Y-6543821D01*
X3175750Y-6113821D02*
X2745750Y-6543821D01*
X3175750Y-6328821D02*
G75*
G03*
X3175750Y-6328821I-215000J0D01*
G01*
X5156450Y-7977571D02*
X5586450Y-8407571D01*
X5586450Y-7977571D02*
X5156450Y-8407571D01*
X5586450Y-8192571D02*
G75*
G03*
X5586450Y-8192571I-215000J0D01*
G01*
X10342550Y-3862371D02*
X10772550Y-4292371D01*
X10772550Y-3862371D02*
X10342550Y-4292371D01*
X10772550Y-4077371D02*
G75*
G03*
X10772550Y-4077371I-215000J0D01*
G01*
X11718050Y-8599321D02*
X12148050Y-9029321D01*
X12148050Y-8599321D02*
X11718050Y-9029321D01*
X12148050Y-8814321D02*
G75*
G03*
X12148050Y-8814321I-215000J0D01*
G01*
X17523950Y-8600321D02*
X17953950Y-9030321D01*
X17953950Y-8600321D02*
X17523950Y-9030321D01*
X17953950Y-8815321D02*
G75*
G03*
X17953950Y-8815321I-215000J0D01*
G01*
X18899450Y-3863371D02*
X19329450Y-4293371D01*
X19329450Y-3863371D02*
X18899450Y-4293371D01*
X19329450Y-4078371D02*
G75*
G03*
X19329450Y-4078371I-215000J0D01*
G01*
X24085550Y-7978571D02*
X24515550Y-8408571D01*
X24515550Y-7978571D02*
X24085550Y-8408571D01*
X24515550Y-8193571D02*
G75*
G03*
X24515550Y-8193571I-215000J0D01*
G01*
X26494950Y-4212371D02*
X26924950Y-4642371D01*
X26924950Y-4212371D02*
X26494950Y-4642371D01*
X26924950Y-4427371D02*
G75*
G03*
X26924950Y-4427371I-215000J0D01*
G01*
X26494950Y-6112371D02*
X26924950Y-6542371D01*
X26924950Y-6112371D02*
X26494950Y-6542371D01*
X26924950Y-6327371D02*
G75*
G03*
X26924950Y-6327371I-215000J0D01*
G01*
D10*
X1319527Y-11985805D02*
X1319527Y-11785805D01*
X1319527Y-11785805D02*
X1367146Y-11785805D01*
X1367146Y-11785805D02*
X1395717Y-11795329D01*
X1395717Y-11795329D02*
X1414765Y-11814376D01*
X1414765Y-11814376D02*
X1424289Y-11833424D01*
X1424289Y-11833424D02*
X1433812Y-11871519D01*
X1433812Y-11871519D02*
X1433812Y-11900091D01*
X1433812Y-11900091D02*
X1424289Y-11938186D01*
X1424289Y-11938186D02*
X1414765Y-11957233D01*
X1414765Y-11957233D02*
X1395717Y-11976281D01*
X1395717Y-11976281D02*
X1367146Y-11985805D01*
X1367146Y-11985805D02*
X1319527Y-11985805D01*
X1519527Y-11985805D02*
X1519527Y-11852471D01*
X1519527Y-11890567D02*
X1529051Y-11871519D01*
X1529051Y-11871519D02*
X1538574Y-11861995D01*
X1538574Y-11861995D02*
X1557622Y-11852471D01*
X1557622Y-11852471D02*
X1576670Y-11852471D01*
X1643336Y-11985805D02*
X1643336Y-11852471D01*
X1643336Y-11785805D02*
X1633812Y-11795329D01*
X1633812Y-11795329D02*
X1643336Y-11804852D01*
X1643336Y-11804852D02*
X1652860Y-11795329D01*
X1652860Y-11795329D02*
X1643336Y-11785805D01*
X1643336Y-11785805D02*
X1643336Y-11804852D01*
X1767146Y-11985805D02*
X1748098Y-11976281D01*
X1748098Y-11976281D02*
X1738574Y-11957233D01*
X1738574Y-11957233D02*
X1738574Y-11785805D01*
X1871908Y-11985805D02*
X1852860Y-11976281D01*
X1852860Y-11976281D02*
X1843336Y-11957233D01*
X1843336Y-11957233D02*
X1843336Y-11785805D01*
X2100479Y-11985805D02*
X2100479Y-11785805D01*
X2100479Y-11785805D02*
X2167146Y-11928662D01*
X2167146Y-11928662D02*
X2233813Y-11785805D01*
X2233813Y-11785805D02*
X2233813Y-11985805D01*
X2414765Y-11985805D02*
X2414765Y-11881043D01*
X2414765Y-11881043D02*
X2405241Y-11861995D01*
X2405241Y-11861995D02*
X2386194Y-11852471D01*
X2386194Y-11852471D02*
X2348098Y-11852471D01*
X2348098Y-11852471D02*
X2329051Y-11861995D01*
X2414765Y-11976281D02*
X2395717Y-11985805D01*
X2395717Y-11985805D02*
X2348098Y-11985805D01*
X2348098Y-11985805D02*
X2329051Y-11976281D01*
X2329051Y-11976281D02*
X2319527Y-11957233D01*
X2319527Y-11957233D02*
X2319527Y-11938186D01*
X2319527Y-11938186D02*
X2329051Y-11919138D01*
X2329051Y-11919138D02*
X2348098Y-11909614D01*
X2348098Y-11909614D02*
X2395717Y-11909614D01*
X2395717Y-11909614D02*
X2414765Y-11900091D01*
X2510003Y-11852471D02*
X2510003Y-12052471D01*
X2510003Y-11861995D02*
X2529051Y-11852471D01*
X2529051Y-11852471D02*
X2567146Y-11852471D01*
X2567146Y-11852471D02*
X2586194Y-11861995D01*
X2586194Y-11861995D02*
X2595717Y-11871519D01*
X2595717Y-11871519D02*
X2605241Y-11890567D01*
X2605241Y-11890567D02*
X2605241Y-11947710D01*
X2605241Y-11947710D02*
X2595717Y-11966757D01*
X2595717Y-11966757D02*
X2586194Y-11976281D01*
X2586194Y-11976281D02*
X2567146Y-11985805D01*
X2567146Y-11985805D02*
X2529051Y-11985805D01*
X2529051Y-11985805D02*
X2510003Y-11976281D01*
X2690955Y-11966757D02*
X2700479Y-11976281D01*
X2700479Y-11976281D02*
X2690955Y-11985805D01*
X2690955Y-11985805D02*
X2681432Y-11976281D01*
X2681432Y-11976281D02*
X2690955Y-11966757D01*
X2690955Y-11966757D02*
X2690955Y-11985805D01*
X2690955Y-11861995D02*
X2700479Y-11871519D01*
X2700479Y-11871519D02*
X2690955Y-11881043D01*
X2690955Y-11881043D02*
X2681432Y-11871519D01*
X2681432Y-11871519D02*
X2690955Y-11861995D01*
X2690955Y-11861995D02*
X2690955Y-11881043D01*
D11*
X1028750Y-12299321D02*
X1058750Y-12329321D01*
X1058750Y-12299321D02*
X1028750Y-12329321D01*
D10*
X1357622Y-12205805D02*
X1376670Y-12205805D01*
X1376670Y-12205805D02*
X1395717Y-12215329D01*
X1395717Y-12215329D02*
X1405241Y-12224852D01*
X1405241Y-12224852D02*
X1414765Y-12243900D01*
X1414765Y-12243900D02*
X1424289Y-12281995D01*
X1424289Y-12281995D02*
X1424289Y-12329614D01*
X1424289Y-12329614D02*
X1414765Y-12367710D01*
X1414765Y-12367710D02*
X1405241Y-12386757D01*
X1405241Y-12386757D02*
X1395717Y-12396281D01*
X1395717Y-12396281D02*
X1376670Y-12405805D01*
X1376670Y-12405805D02*
X1357622Y-12405805D01*
X1357622Y-12405805D02*
X1338574Y-12396281D01*
X1338574Y-12396281D02*
X1329051Y-12386757D01*
X1329051Y-12386757D02*
X1319527Y-12367710D01*
X1319527Y-12367710D02*
X1310003Y-12329614D01*
X1310003Y-12329614D02*
X1310003Y-12281995D01*
X1310003Y-12281995D02*
X1319527Y-12243900D01*
X1319527Y-12243900D02*
X1329051Y-12224852D01*
X1329051Y-12224852D02*
X1338574Y-12215329D01*
X1338574Y-12215329D02*
X1357622Y-12205805D01*
X1510003Y-12386757D02*
X1519527Y-12396281D01*
X1519527Y-12396281D02*
X1510003Y-12405805D01*
X1510003Y-12405805D02*
X1500479Y-12396281D01*
X1500479Y-12396281D02*
X1510003Y-12386757D01*
X1510003Y-12386757D02*
X1510003Y-12405805D01*
X1586193Y-12205805D02*
X1710003Y-12205805D01*
X1710003Y-12205805D02*
X1643336Y-12281995D01*
X1643336Y-12281995D02*
X1671908Y-12281995D01*
X1671908Y-12281995D02*
X1690955Y-12291519D01*
X1690955Y-12291519D02*
X1700479Y-12301043D01*
X1700479Y-12301043D02*
X1710003Y-12320091D01*
X1710003Y-12320091D02*
X1710003Y-12367710D01*
X1710003Y-12367710D02*
X1700479Y-12386757D01*
X1700479Y-12386757D02*
X1690955Y-12396281D01*
X1690955Y-12396281D02*
X1671908Y-12405805D01*
X1671908Y-12405805D02*
X1614765Y-12405805D01*
X1614765Y-12405805D02*
X1595717Y-12396281D01*
X1595717Y-12396281D02*
X1586193Y-12386757D01*
X1833812Y-12205805D02*
X1852860Y-12205805D01*
X1852860Y-12205805D02*
X1871908Y-12215329D01*
X1871908Y-12215329D02*
X1881432Y-12224852D01*
X1881432Y-12224852D02*
X1890955Y-12243900D01*
X1890955Y-12243900D02*
X1900479Y-12281995D01*
X1900479Y-12281995D02*
X1900479Y-12329614D01*
X1900479Y-12329614D02*
X1890955Y-12367710D01*
X1890955Y-12367710D02*
X1881432Y-12386757D01*
X1881432Y-12386757D02*
X1871908Y-12396281D01*
X1871908Y-12396281D02*
X1852860Y-12405805D01*
X1852860Y-12405805D02*
X1833812Y-12405805D01*
X1833812Y-12405805D02*
X1814765Y-12396281D01*
X1814765Y-12396281D02*
X1805241Y-12386757D01*
X1805241Y-12386757D02*
X1795717Y-12367710D01*
X1795717Y-12367710D02*
X1786193Y-12329614D01*
X1786193Y-12329614D02*
X1786193Y-12281995D01*
X1786193Y-12281995D02*
X1795717Y-12243900D01*
X1795717Y-12243900D02*
X1805241Y-12224852D01*
X1805241Y-12224852D02*
X1814765Y-12215329D01*
X1814765Y-12215329D02*
X1833812Y-12205805D01*
X2024289Y-12205805D02*
X2043336Y-12205805D01*
X2043336Y-12205805D02*
X2062384Y-12215329D01*
X2062384Y-12215329D02*
X2071908Y-12224852D01*
X2071908Y-12224852D02*
X2081432Y-12243900D01*
X2081432Y-12243900D02*
X2090955Y-12281995D01*
X2090955Y-12281995D02*
X2090955Y-12329614D01*
X2090955Y-12329614D02*
X2081432Y-12367710D01*
X2081432Y-12367710D02*
X2071908Y-12386757D01*
X2071908Y-12386757D02*
X2062384Y-12396281D01*
X2062384Y-12396281D02*
X2043336Y-12405805D01*
X2043336Y-12405805D02*
X2024289Y-12405805D01*
X2024289Y-12405805D02*
X2005241Y-12396281D01*
X2005241Y-12396281D02*
X1995717Y-12386757D01*
X1995717Y-12386757D02*
X1986193Y-12367710D01*
X1986193Y-12367710D02*
X1976670Y-12329614D01*
X1976670Y-12329614D02*
X1976670Y-12281995D01*
X1976670Y-12281995D02*
X1986193Y-12243900D01*
X1986193Y-12243900D02*
X1995717Y-12224852D01*
X1995717Y-12224852D02*
X2005241Y-12215329D01*
X2005241Y-12215329D02*
X2024289Y-12205805D01*
X2176670Y-12405805D02*
X2176670Y-12272471D01*
X2176670Y-12291519D02*
X2186194Y-12281995D01*
X2186194Y-12281995D02*
X2205241Y-12272471D01*
X2205241Y-12272471D02*
X2233813Y-12272471D01*
X2233813Y-12272471D02*
X2252860Y-12281995D01*
X2252860Y-12281995D02*
X2262384Y-12301043D01*
X2262384Y-12301043D02*
X2262384Y-12405805D01*
X2262384Y-12301043D02*
X2271908Y-12281995D01*
X2271908Y-12281995D02*
X2290955Y-12272471D01*
X2290955Y-12272471D02*
X2319527Y-12272471D01*
X2319527Y-12272471D02*
X2338575Y-12281995D01*
X2338575Y-12281995D02*
X2348098Y-12301043D01*
X2348098Y-12301043D02*
X2348098Y-12405805D01*
X2443336Y-12405805D02*
X2443336Y-12272471D01*
X2443336Y-12291519D02*
X2452860Y-12281995D01*
X2452860Y-12281995D02*
X2471908Y-12272471D01*
X2471908Y-12272471D02*
X2500479Y-12272471D01*
X2500479Y-12272471D02*
X2519527Y-12281995D01*
X2519527Y-12281995D02*
X2529051Y-12301043D01*
X2529051Y-12301043D02*
X2529051Y-12405805D01*
X2529051Y-12301043D02*
X2538575Y-12281995D01*
X2538575Y-12281995D02*
X2557622Y-12272471D01*
X2557622Y-12272471D02*
X2586194Y-12272471D01*
X2586194Y-12272471D02*
X2605241Y-12281995D01*
X2605241Y-12281995D02*
X2614765Y-12301043D01*
X2614765Y-12301043D02*
X2614765Y-12405805D01*
X3005241Y-12196281D02*
X2833813Y-12453424D01*
X3262384Y-12205805D02*
X3281432Y-12205805D01*
X3281432Y-12205805D02*
X3300479Y-12215329D01*
X3300479Y-12215329D02*
X3310003Y-12224852D01*
X3310003Y-12224852D02*
X3319527Y-12243900D01*
X3319527Y-12243900D02*
X3329051Y-12281995D01*
X3329051Y-12281995D02*
X3329051Y-12329614D01*
X3329051Y-12329614D02*
X3319527Y-12367710D01*
X3319527Y-12367710D02*
X3310003Y-12386757D01*
X3310003Y-12386757D02*
X3300479Y-12396281D01*
X3300479Y-12396281D02*
X3281432Y-12405805D01*
X3281432Y-12405805D02*
X3262384Y-12405805D01*
X3262384Y-12405805D02*
X3243336Y-12396281D01*
X3243336Y-12396281D02*
X3233813Y-12386757D01*
X3233813Y-12386757D02*
X3224289Y-12367710D01*
X3224289Y-12367710D02*
X3214765Y-12329614D01*
X3214765Y-12329614D02*
X3214765Y-12281995D01*
X3214765Y-12281995D02*
X3224289Y-12243900D01*
X3224289Y-12243900D02*
X3233813Y-12224852D01*
X3233813Y-12224852D02*
X3243336Y-12215329D01*
X3243336Y-12215329D02*
X3262384Y-12205805D01*
X3414765Y-12386757D02*
X3424289Y-12396281D01*
X3424289Y-12396281D02*
X3414765Y-12405805D01*
X3414765Y-12405805D02*
X3405241Y-12396281D01*
X3405241Y-12396281D02*
X3414765Y-12386757D01*
X3414765Y-12386757D02*
X3414765Y-12405805D01*
X3548098Y-12205805D02*
X3567146Y-12205805D01*
X3567146Y-12205805D02*
X3586194Y-12215329D01*
X3586194Y-12215329D02*
X3595717Y-12224852D01*
X3595717Y-12224852D02*
X3605241Y-12243900D01*
X3605241Y-12243900D02*
X3614765Y-12281995D01*
X3614765Y-12281995D02*
X3614765Y-12329614D01*
X3614765Y-12329614D02*
X3605241Y-12367710D01*
X3605241Y-12367710D02*
X3595717Y-12386757D01*
X3595717Y-12386757D02*
X3586194Y-12396281D01*
X3586194Y-12396281D02*
X3567146Y-12405805D01*
X3567146Y-12405805D02*
X3548098Y-12405805D01*
X3548098Y-12405805D02*
X3529051Y-12396281D01*
X3529051Y-12396281D02*
X3519527Y-12386757D01*
X3519527Y-12386757D02*
X3510003Y-12367710D01*
X3510003Y-12367710D02*
X3500479Y-12329614D01*
X3500479Y-12329614D02*
X3500479Y-12281995D01*
X3500479Y-12281995D02*
X3510003Y-12243900D01*
X3510003Y-12243900D02*
X3519527Y-12224852D01*
X3519527Y-12224852D02*
X3529051Y-12215329D01*
X3529051Y-12215329D02*
X3548098Y-12205805D01*
X3805241Y-12405805D02*
X3690956Y-12405805D01*
X3748098Y-12405805D02*
X3748098Y-12205805D01*
X3748098Y-12205805D02*
X3729051Y-12234376D01*
X3729051Y-12234376D02*
X3710003Y-12253424D01*
X3710003Y-12253424D02*
X3690956Y-12262948D01*
X3995717Y-12405805D02*
X3881432Y-12405805D01*
X3938575Y-12405805D02*
X3938575Y-12205805D01*
X3938575Y-12205805D02*
X3919527Y-12234376D01*
X3919527Y-12234376D02*
X3900479Y-12253424D01*
X3900479Y-12253424D02*
X3881432Y-12262948D01*
X4110003Y-12291519D02*
X4090956Y-12281995D01*
X4090956Y-12281995D02*
X4081432Y-12272471D01*
X4081432Y-12272471D02*
X4071908Y-12253424D01*
X4071908Y-12253424D02*
X4071908Y-12243900D01*
X4071908Y-12243900D02*
X4081432Y-12224852D01*
X4081432Y-12224852D02*
X4090956Y-12215329D01*
X4090956Y-12215329D02*
X4110003Y-12205805D01*
X4110003Y-12205805D02*
X4148098Y-12205805D01*
X4148098Y-12205805D02*
X4167146Y-12215329D01*
X4167146Y-12215329D02*
X4176670Y-12224852D01*
X4176670Y-12224852D02*
X4186194Y-12243900D01*
X4186194Y-12243900D02*
X4186194Y-12253424D01*
X4186194Y-12253424D02*
X4176670Y-12272471D01*
X4176670Y-12272471D02*
X4167146Y-12281995D01*
X4167146Y-12281995D02*
X4148098Y-12291519D01*
X4148098Y-12291519D02*
X4110003Y-12291519D01*
X4110003Y-12291519D02*
X4090956Y-12301043D01*
X4090956Y-12301043D02*
X4081432Y-12310567D01*
X4081432Y-12310567D02*
X4071908Y-12329614D01*
X4071908Y-12329614D02*
X4071908Y-12367710D01*
X4071908Y-12367710D02*
X4081432Y-12386757D01*
X4081432Y-12386757D02*
X4090956Y-12396281D01*
X4090956Y-12396281D02*
X4110003Y-12405805D01*
X4110003Y-12405805D02*
X4148098Y-12405805D01*
X4148098Y-12405805D02*
X4167146Y-12396281D01*
X4167146Y-12396281D02*
X4176670Y-12386757D01*
X4176670Y-12386757D02*
X4186194Y-12367710D01*
X4186194Y-12367710D02*
X4186194Y-12329614D01*
X4186194Y-12329614D02*
X4176670Y-12310567D01*
X4176670Y-12310567D02*
X4167146Y-12301043D01*
X4167146Y-12301043D02*
X4148098Y-12291519D01*
X4262384Y-12205805D02*
X4262384Y-12243900D01*
X4338575Y-12205805D02*
X4338575Y-12243900D01*
X4633813Y-12481995D02*
X4624289Y-12472471D01*
X4624289Y-12472471D02*
X4605241Y-12443900D01*
X4605241Y-12443900D02*
X4595718Y-12424852D01*
X4595718Y-12424852D02*
X4586194Y-12396281D01*
X4586194Y-12396281D02*
X4576670Y-12348662D01*
X4576670Y-12348662D02*
X4576670Y-12310567D01*
X4576670Y-12310567D02*
X4586194Y-12262948D01*
X4586194Y-12262948D02*
X4595718Y-12234376D01*
X4595718Y-12234376D02*
X4605241Y-12215329D01*
X4605241Y-12215329D02*
X4624289Y-12186757D01*
X4624289Y-12186757D02*
X4633813Y-12177233D01*
X4690956Y-12205805D02*
X4824289Y-12205805D01*
X4824289Y-12205805D02*
X4738575Y-12405805D01*
X4890956Y-12224852D02*
X4900480Y-12215329D01*
X4900480Y-12215329D02*
X4919527Y-12205805D01*
X4919527Y-12205805D02*
X4967146Y-12205805D01*
X4967146Y-12205805D02*
X4986194Y-12215329D01*
X4986194Y-12215329D02*
X4995718Y-12224852D01*
X4995718Y-12224852D02*
X5005241Y-12243900D01*
X5005241Y-12243900D02*
X5005241Y-12262948D01*
X5005241Y-12262948D02*
X4995718Y-12291519D01*
X4995718Y-12291519D02*
X4881432Y-12405805D01*
X4881432Y-12405805D02*
X5005241Y-12405805D01*
X5243337Y-12405805D02*
X5243337Y-12205805D01*
X5329051Y-12405805D02*
X5329051Y-12301043D01*
X5329051Y-12301043D02*
X5319527Y-12281995D01*
X5319527Y-12281995D02*
X5300480Y-12272471D01*
X5300480Y-12272471D02*
X5271908Y-12272471D01*
X5271908Y-12272471D02*
X5252861Y-12281995D01*
X5252861Y-12281995D02*
X5243337Y-12291519D01*
X5452861Y-12405805D02*
X5433813Y-12396281D01*
X5433813Y-12396281D02*
X5424289Y-12386757D01*
X5424289Y-12386757D02*
X5414765Y-12367710D01*
X5414765Y-12367710D02*
X5414765Y-12310567D01*
X5414765Y-12310567D02*
X5424289Y-12291519D01*
X5424289Y-12291519D02*
X5433813Y-12281995D01*
X5433813Y-12281995D02*
X5452861Y-12272471D01*
X5452861Y-12272471D02*
X5481432Y-12272471D01*
X5481432Y-12272471D02*
X5500480Y-12281995D01*
X5500480Y-12281995D02*
X5510003Y-12291519D01*
X5510003Y-12291519D02*
X5519527Y-12310567D01*
X5519527Y-12310567D02*
X5519527Y-12367710D01*
X5519527Y-12367710D02*
X5510003Y-12386757D01*
X5510003Y-12386757D02*
X5500480Y-12396281D01*
X5500480Y-12396281D02*
X5481432Y-12405805D01*
X5481432Y-12405805D02*
X5452861Y-12405805D01*
X5633813Y-12405805D02*
X5614765Y-12396281D01*
X5614765Y-12396281D02*
X5605241Y-12377233D01*
X5605241Y-12377233D02*
X5605241Y-12205805D01*
X5786194Y-12396281D02*
X5767146Y-12405805D01*
X5767146Y-12405805D02*
X5729051Y-12405805D01*
X5729051Y-12405805D02*
X5710003Y-12396281D01*
X5710003Y-12396281D02*
X5700480Y-12377233D01*
X5700480Y-12377233D02*
X5700480Y-12301043D01*
X5700480Y-12301043D02*
X5710003Y-12281995D01*
X5710003Y-12281995D02*
X5729051Y-12272471D01*
X5729051Y-12272471D02*
X5767146Y-12272471D01*
X5767146Y-12272471D02*
X5786194Y-12281995D01*
X5786194Y-12281995D02*
X5795718Y-12301043D01*
X5795718Y-12301043D02*
X5795718Y-12320091D01*
X5795718Y-12320091D02*
X5700480Y-12339138D01*
X5871908Y-12396281D02*
X5890956Y-12405805D01*
X5890956Y-12405805D02*
X5929051Y-12405805D01*
X5929051Y-12405805D02*
X5948099Y-12396281D01*
X5948099Y-12396281D02*
X5957622Y-12377233D01*
X5957622Y-12377233D02*
X5957622Y-12367710D01*
X5957622Y-12367710D02*
X5948099Y-12348662D01*
X5948099Y-12348662D02*
X5929051Y-12339138D01*
X5929051Y-12339138D02*
X5900480Y-12339138D01*
X5900480Y-12339138D02*
X5881432Y-12329614D01*
X5881432Y-12329614D02*
X5871908Y-12310567D01*
X5871908Y-12310567D02*
X5871908Y-12301043D01*
X5871908Y-12301043D02*
X5881432Y-12281995D01*
X5881432Y-12281995D02*
X5900480Y-12272471D01*
X5900480Y-12272471D02*
X5929051Y-12272471D01*
X5929051Y-12272471D02*
X5948099Y-12281995D01*
X6024289Y-12481995D02*
X6033813Y-12472471D01*
X6033813Y-12472471D02*
X6052861Y-12443900D01*
X6052861Y-12443900D02*
X6062384Y-12424852D01*
X6062384Y-12424852D02*
X6071908Y-12396281D01*
X6071908Y-12396281D02*
X6081432Y-12348662D01*
X6081432Y-12348662D02*
X6081432Y-12310567D01*
X6081432Y-12310567D02*
X6071908Y-12262948D01*
X6071908Y-12262948D02*
X6062384Y-12234376D01*
X6062384Y-12234376D02*
X6052861Y-12215329D01*
X6052861Y-12215329D02*
X6033813Y-12186757D01*
X6033813Y-12186757D02*
X6024289Y-12177233D01*
X6386194Y-12481995D02*
X6376670Y-12472471D01*
X6376670Y-12472471D02*
X6357622Y-12443900D01*
X6357622Y-12443900D02*
X6348099Y-12424852D01*
X6348099Y-12424852D02*
X6338575Y-12396281D01*
X6338575Y-12396281D02*
X6329051Y-12348662D01*
X6329051Y-12348662D02*
X6329051Y-12310567D01*
X6329051Y-12310567D02*
X6338575Y-12262948D01*
X6338575Y-12262948D02*
X6348099Y-12234376D01*
X6348099Y-12234376D02*
X6357622Y-12215329D01*
X6357622Y-12215329D02*
X6376670Y-12186757D01*
X6376670Y-12186757D02*
X6386194Y-12177233D01*
X6462384Y-12272471D02*
X6462384Y-12405805D01*
X6462384Y-12291519D02*
X6471908Y-12281995D01*
X6471908Y-12281995D02*
X6490956Y-12272471D01*
X6490956Y-12272471D02*
X6519527Y-12272471D01*
X6519527Y-12272471D02*
X6538575Y-12281995D01*
X6538575Y-12281995D02*
X6548099Y-12301043D01*
X6548099Y-12301043D02*
X6548099Y-12405805D01*
X6671908Y-12405805D02*
X6652861Y-12396281D01*
X6652861Y-12396281D02*
X6643337Y-12386757D01*
X6643337Y-12386757D02*
X6633813Y-12367710D01*
X6633813Y-12367710D02*
X6633813Y-12310567D01*
X6633813Y-12310567D02*
X6643337Y-12291519D01*
X6643337Y-12291519D02*
X6652861Y-12281995D01*
X6652861Y-12281995D02*
X6671908Y-12272471D01*
X6671908Y-12272471D02*
X6700480Y-12272471D01*
X6700480Y-12272471D02*
X6719527Y-12281995D01*
X6719527Y-12281995D02*
X6729051Y-12291519D01*
X6729051Y-12291519D02*
X6738575Y-12310567D01*
X6738575Y-12310567D02*
X6738575Y-12367710D01*
X6738575Y-12367710D02*
X6729051Y-12386757D01*
X6729051Y-12386757D02*
X6719527Y-12396281D01*
X6719527Y-12396281D02*
X6700480Y-12405805D01*
X6700480Y-12405805D02*
X6671908Y-12405805D01*
X6795718Y-12272471D02*
X6871908Y-12272471D01*
X6824289Y-12205805D02*
X6824289Y-12377233D01*
X6824289Y-12377233D02*
X6833813Y-12396281D01*
X6833813Y-12396281D02*
X6852861Y-12405805D01*
X6852861Y-12405805D02*
X6871908Y-12405805D01*
X7090956Y-12272471D02*
X7090956Y-12472471D01*
X7090956Y-12281995D02*
X7110003Y-12272471D01*
X7110003Y-12272471D02*
X7148099Y-12272471D01*
X7148099Y-12272471D02*
X7167146Y-12281995D01*
X7167146Y-12281995D02*
X7176670Y-12291519D01*
X7176670Y-12291519D02*
X7186194Y-12310567D01*
X7186194Y-12310567D02*
X7186194Y-12367710D01*
X7186194Y-12367710D02*
X7176670Y-12386757D01*
X7176670Y-12386757D02*
X7167146Y-12396281D01*
X7167146Y-12396281D02*
X7148099Y-12405805D01*
X7148099Y-12405805D02*
X7110003Y-12405805D01*
X7110003Y-12405805D02*
X7090956Y-12396281D01*
X7300480Y-12405805D02*
X7281432Y-12396281D01*
X7281432Y-12396281D02*
X7271908Y-12377233D01*
X7271908Y-12377233D02*
X7271908Y-12205805D01*
X7462384Y-12405805D02*
X7462384Y-12301043D01*
X7462384Y-12301043D02*
X7452861Y-12281995D01*
X7452861Y-12281995D02*
X7433813Y-12272471D01*
X7433813Y-12272471D02*
X7395718Y-12272471D01*
X7395718Y-12272471D02*
X7376670Y-12281995D01*
X7462384Y-12396281D02*
X7443337Y-12405805D01*
X7443337Y-12405805D02*
X7395718Y-12405805D01*
X7395718Y-12405805D02*
X7376670Y-12396281D01*
X7376670Y-12396281D02*
X7367146Y-12377233D01*
X7367146Y-12377233D02*
X7367146Y-12358186D01*
X7367146Y-12358186D02*
X7376670Y-12339138D01*
X7376670Y-12339138D02*
X7395718Y-12329614D01*
X7395718Y-12329614D02*
X7443337Y-12329614D01*
X7443337Y-12329614D02*
X7462384Y-12320091D01*
X7529051Y-12272471D02*
X7605242Y-12272471D01*
X7557623Y-12205805D02*
X7557623Y-12377233D01*
X7557623Y-12377233D02*
X7567146Y-12396281D01*
X7567146Y-12396281D02*
X7586194Y-12405805D01*
X7586194Y-12405805D02*
X7605242Y-12405805D01*
X7748099Y-12396281D02*
X7729051Y-12405805D01*
X7729051Y-12405805D02*
X7690956Y-12405805D01*
X7690956Y-12405805D02*
X7671908Y-12396281D01*
X7671908Y-12396281D02*
X7662384Y-12377233D01*
X7662384Y-12377233D02*
X7662384Y-12301043D01*
X7662384Y-12301043D02*
X7671908Y-12281995D01*
X7671908Y-12281995D02*
X7690956Y-12272471D01*
X7690956Y-12272471D02*
X7729051Y-12272471D01*
X7729051Y-12272471D02*
X7748099Y-12281995D01*
X7748099Y-12281995D02*
X7757623Y-12301043D01*
X7757623Y-12301043D02*
X7757623Y-12320091D01*
X7757623Y-12320091D02*
X7662384Y-12339138D01*
X7929051Y-12405805D02*
X7929051Y-12205805D01*
X7929051Y-12396281D02*
X7910004Y-12405805D01*
X7910004Y-12405805D02*
X7871908Y-12405805D01*
X7871908Y-12405805D02*
X7852861Y-12396281D01*
X7852861Y-12396281D02*
X7843337Y-12386757D01*
X7843337Y-12386757D02*
X7833813Y-12367710D01*
X7833813Y-12367710D02*
X7833813Y-12310567D01*
X7833813Y-12310567D02*
X7843337Y-12291519D01*
X7843337Y-12291519D02*
X7852861Y-12281995D01*
X7852861Y-12281995D02*
X7871908Y-12272471D01*
X7871908Y-12272471D02*
X7910004Y-12272471D01*
X7910004Y-12272471D02*
X7929051Y-12281995D01*
X8005242Y-12481995D02*
X8014765Y-12472471D01*
X8014765Y-12472471D02*
X8033813Y-12443900D01*
X8033813Y-12443900D02*
X8043337Y-12424852D01*
X8043337Y-12424852D02*
X8052861Y-12396281D01*
X8052861Y-12396281D02*
X8062384Y-12348662D01*
X8062384Y-12348662D02*
X8062384Y-12310567D01*
X8062384Y-12310567D02*
X8052861Y-12262948D01*
X8052861Y-12262948D02*
X8043337Y-12234376D01*
X8043337Y-12234376D02*
X8033813Y-12215329D01*
X8033813Y-12215329D02*
X8014765Y-12186757D01*
X8014765Y-12186757D02*
X8005242Y-12177233D01*
D12*
X1058750Y-12578321D02*
G75*
G03*
X1058750Y-12578321I-95000J0D01*
G01*
D10*
X1424289Y-12669805D02*
X1310003Y-12669805D01*
X1367146Y-12669805D02*
X1367146Y-12469805D01*
X1367146Y-12469805D02*
X1348098Y-12498376D01*
X1348098Y-12498376D02*
X1329051Y-12517424D01*
X1329051Y-12517424D02*
X1310003Y-12526948D01*
X1510003Y-12650757D02*
X1519527Y-12660281D01*
X1519527Y-12660281D02*
X1510003Y-12669805D01*
X1510003Y-12669805D02*
X1500479Y-12660281D01*
X1500479Y-12660281D02*
X1510003Y-12650757D01*
X1510003Y-12650757D02*
X1510003Y-12669805D01*
X1614765Y-12669805D02*
X1652860Y-12669805D01*
X1652860Y-12669805D02*
X1671908Y-12660281D01*
X1671908Y-12660281D02*
X1681432Y-12650757D01*
X1681432Y-12650757D02*
X1700479Y-12622186D01*
X1700479Y-12622186D02*
X1710003Y-12584091D01*
X1710003Y-12584091D02*
X1710003Y-12507900D01*
X1710003Y-12507900D02*
X1700479Y-12488852D01*
X1700479Y-12488852D02*
X1690955Y-12479329D01*
X1690955Y-12479329D02*
X1671908Y-12469805D01*
X1671908Y-12469805D02*
X1633812Y-12469805D01*
X1633812Y-12469805D02*
X1614765Y-12479329D01*
X1614765Y-12479329D02*
X1605241Y-12488852D01*
X1605241Y-12488852D02*
X1595717Y-12507900D01*
X1595717Y-12507900D02*
X1595717Y-12555519D01*
X1595717Y-12555519D02*
X1605241Y-12574567D01*
X1605241Y-12574567D02*
X1614765Y-12584091D01*
X1614765Y-12584091D02*
X1633812Y-12593614D01*
X1633812Y-12593614D02*
X1671908Y-12593614D01*
X1671908Y-12593614D02*
X1690955Y-12584091D01*
X1690955Y-12584091D02*
X1700479Y-12574567D01*
X1700479Y-12574567D02*
X1710003Y-12555519D01*
X1833812Y-12469805D02*
X1852860Y-12469805D01*
X1852860Y-12469805D02*
X1871908Y-12479329D01*
X1871908Y-12479329D02*
X1881432Y-12488852D01*
X1881432Y-12488852D02*
X1890955Y-12507900D01*
X1890955Y-12507900D02*
X1900479Y-12545995D01*
X1900479Y-12545995D02*
X1900479Y-12593614D01*
X1900479Y-12593614D02*
X1890955Y-12631710D01*
X1890955Y-12631710D02*
X1881432Y-12650757D01*
X1881432Y-12650757D02*
X1871908Y-12660281D01*
X1871908Y-12660281D02*
X1852860Y-12669805D01*
X1852860Y-12669805D02*
X1833812Y-12669805D01*
X1833812Y-12669805D02*
X1814765Y-12660281D01*
X1814765Y-12660281D02*
X1805241Y-12650757D01*
X1805241Y-12650757D02*
X1795717Y-12631710D01*
X1795717Y-12631710D02*
X1786193Y-12593614D01*
X1786193Y-12593614D02*
X1786193Y-12545995D01*
X1786193Y-12545995D02*
X1795717Y-12507900D01*
X1795717Y-12507900D02*
X1805241Y-12488852D01*
X1805241Y-12488852D02*
X1814765Y-12479329D01*
X1814765Y-12479329D02*
X1833812Y-12469805D01*
X2024289Y-12469805D02*
X2043336Y-12469805D01*
X2043336Y-12469805D02*
X2062384Y-12479329D01*
X2062384Y-12479329D02*
X2071908Y-12488852D01*
X2071908Y-12488852D02*
X2081432Y-12507900D01*
X2081432Y-12507900D02*
X2090955Y-12545995D01*
X2090955Y-12545995D02*
X2090955Y-12593614D01*
X2090955Y-12593614D02*
X2081432Y-12631710D01*
X2081432Y-12631710D02*
X2071908Y-12650757D01*
X2071908Y-12650757D02*
X2062384Y-12660281D01*
X2062384Y-12660281D02*
X2043336Y-12669805D01*
X2043336Y-12669805D02*
X2024289Y-12669805D01*
X2024289Y-12669805D02*
X2005241Y-12660281D01*
X2005241Y-12660281D02*
X1995717Y-12650757D01*
X1995717Y-12650757D02*
X1986193Y-12631710D01*
X1986193Y-12631710D02*
X1976670Y-12593614D01*
X1976670Y-12593614D02*
X1976670Y-12545995D01*
X1976670Y-12545995D02*
X1986193Y-12507900D01*
X1986193Y-12507900D02*
X1995717Y-12488852D01*
X1995717Y-12488852D02*
X2005241Y-12479329D01*
X2005241Y-12479329D02*
X2024289Y-12469805D01*
X2176670Y-12669805D02*
X2176670Y-12536471D01*
X2176670Y-12555519D02*
X2186194Y-12545995D01*
X2186194Y-12545995D02*
X2205241Y-12536471D01*
X2205241Y-12536471D02*
X2233813Y-12536471D01*
X2233813Y-12536471D02*
X2252860Y-12545995D01*
X2252860Y-12545995D02*
X2262384Y-12565043D01*
X2262384Y-12565043D02*
X2262384Y-12669805D01*
X2262384Y-12565043D02*
X2271908Y-12545995D01*
X2271908Y-12545995D02*
X2290955Y-12536471D01*
X2290955Y-12536471D02*
X2319527Y-12536471D01*
X2319527Y-12536471D02*
X2338575Y-12545995D01*
X2338575Y-12545995D02*
X2348098Y-12565043D01*
X2348098Y-12565043D02*
X2348098Y-12669805D01*
X2443336Y-12669805D02*
X2443336Y-12536471D01*
X2443336Y-12555519D02*
X2452860Y-12545995D01*
X2452860Y-12545995D02*
X2471908Y-12536471D01*
X2471908Y-12536471D02*
X2500479Y-12536471D01*
X2500479Y-12536471D02*
X2519527Y-12545995D01*
X2519527Y-12545995D02*
X2529051Y-12565043D01*
X2529051Y-12565043D02*
X2529051Y-12669805D01*
X2529051Y-12565043D02*
X2538575Y-12545995D01*
X2538575Y-12545995D02*
X2557622Y-12536471D01*
X2557622Y-12536471D02*
X2586194Y-12536471D01*
X2586194Y-12536471D02*
X2605241Y-12545995D01*
X2605241Y-12545995D02*
X2614765Y-12565043D01*
X2614765Y-12565043D02*
X2614765Y-12669805D01*
X3005241Y-12460281D02*
X2833813Y-12717424D01*
X3262384Y-12469805D02*
X3281432Y-12469805D01*
X3281432Y-12469805D02*
X3300479Y-12479329D01*
X3300479Y-12479329D02*
X3310003Y-12488852D01*
X3310003Y-12488852D02*
X3319527Y-12507900D01*
X3319527Y-12507900D02*
X3329051Y-12545995D01*
X3329051Y-12545995D02*
X3329051Y-12593614D01*
X3329051Y-12593614D02*
X3319527Y-12631710D01*
X3319527Y-12631710D02*
X3310003Y-12650757D01*
X3310003Y-12650757D02*
X3300479Y-12660281D01*
X3300479Y-12660281D02*
X3281432Y-12669805D01*
X3281432Y-12669805D02*
X3262384Y-12669805D01*
X3262384Y-12669805D02*
X3243336Y-12660281D01*
X3243336Y-12660281D02*
X3233813Y-12650757D01*
X3233813Y-12650757D02*
X3224289Y-12631710D01*
X3224289Y-12631710D02*
X3214765Y-12593614D01*
X3214765Y-12593614D02*
X3214765Y-12545995D01*
X3214765Y-12545995D02*
X3224289Y-12507900D01*
X3224289Y-12507900D02*
X3233813Y-12488852D01*
X3233813Y-12488852D02*
X3243336Y-12479329D01*
X3243336Y-12479329D02*
X3262384Y-12469805D01*
X3414765Y-12650757D02*
X3424289Y-12660281D01*
X3424289Y-12660281D02*
X3414765Y-12669805D01*
X3414765Y-12669805D02*
X3405241Y-12660281D01*
X3405241Y-12660281D02*
X3414765Y-12650757D01*
X3414765Y-12650757D02*
X3414765Y-12669805D01*
X3548098Y-12469805D02*
X3567146Y-12469805D01*
X3567146Y-12469805D02*
X3586194Y-12479329D01*
X3586194Y-12479329D02*
X3595717Y-12488852D01*
X3595717Y-12488852D02*
X3605241Y-12507900D01*
X3605241Y-12507900D02*
X3614765Y-12545995D01*
X3614765Y-12545995D02*
X3614765Y-12593614D01*
X3614765Y-12593614D02*
X3605241Y-12631710D01*
X3605241Y-12631710D02*
X3595717Y-12650757D01*
X3595717Y-12650757D02*
X3586194Y-12660281D01*
X3586194Y-12660281D02*
X3567146Y-12669805D01*
X3567146Y-12669805D02*
X3548098Y-12669805D01*
X3548098Y-12669805D02*
X3529051Y-12660281D01*
X3529051Y-12660281D02*
X3519527Y-12650757D01*
X3519527Y-12650757D02*
X3510003Y-12631710D01*
X3510003Y-12631710D02*
X3500479Y-12593614D01*
X3500479Y-12593614D02*
X3500479Y-12545995D01*
X3500479Y-12545995D02*
X3510003Y-12507900D01*
X3510003Y-12507900D02*
X3519527Y-12488852D01*
X3519527Y-12488852D02*
X3529051Y-12479329D01*
X3529051Y-12479329D02*
X3548098Y-12469805D01*
X3681432Y-12469805D02*
X3814765Y-12469805D01*
X3814765Y-12469805D02*
X3729051Y-12669805D01*
X3976670Y-12536471D02*
X3976670Y-12669805D01*
X3929051Y-12460281D02*
X3881432Y-12603138D01*
X3881432Y-12603138D02*
X4005241Y-12603138D01*
X4110003Y-12555519D02*
X4090956Y-12545995D01*
X4090956Y-12545995D02*
X4081432Y-12536471D01*
X4081432Y-12536471D02*
X4071908Y-12517424D01*
X4071908Y-12517424D02*
X4071908Y-12507900D01*
X4071908Y-12507900D02*
X4081432Y-12488852D01*
X4081432Y-12488852D02*
X4090956Y-12479329D01*
X4090956Y-12479329D02*
X4110003Y-12469805D01*
X4110003Y-12469805D02*
X4148098Y-12469805D01*
X4148098Y-12469805D02*
X4167146Y-12479329D01*
X4167146Y-12479329D02*
X4176670Y-12488852D01*
X4176670Y-12488852D02*
X4186194Y-12507900D01*
X4186194Y-12507900D02*
X4186194Y-12517424D01*
X4186194Y-12517424D02*
X4176670Y-12536471D01*
X4176670Y-12536471D02*
X4167146Y-12545995D01*
X4167146Y-12545995D02*
X4148098Y-12555519D01*
X4148098Y-12555519D02*
X4110003Y-12555519D01*
X4110003Y-12555519D02*
X4090956Y-12565043D01*
X4090956Y-12565043D02*
X4081432Y-12574567D01*
X4081432Y-12574567D02*
X4071908Y-12593614D01*
X4071908Y-12593614D02*
X4071908Y-12631710D01*
X4071908Y-12631710D02*
X4081432Y-12650757D01*
X4081432Y-12650757D02*
X4090956Y-12660281D01*
X4090956Y-12660281D02*
X4110003Y-12669805D01*
X4110003Y-12669805D02*
X4148098Y-12669805D01*
X4148098Y-12669805D02*
X4167146Y-12660281D01*
X4167146Y-12660281D02*
X4176670Y-12650757D01*
X4176670Y-12650757D02*
X4186194Y-12631710D01*
X4186194Y-12631710D02*
X4186194Y-12593614D01*
X4186194Y-12593614D02*
X4176670Y-12574567D01*
X4176670Y-12574567D02*
X4167146Y-12565043D01*
X4167146Y-12565043D02*
X4148098Y-12555519D01*
X4262384Y-12469805D02*
X4262384Y-12507900D01*
X4338575Y-12469805D02*
X4338575Y-12507900D01*
X4633813Y-12745995D02*
X4624289Y-12736471D01*
X4624289Y-12736471D02*
X4605241Y-12707900D01*
X4605241Y-12707900D02*
X4595718Y-12688852D01*
X4595718Y-12688852D02*
X4586194Y-12660281D01*
X4586194Y-12660281D02*
X4576670Y-12612662D01*
X4576670Y-12612662D02*
X4576670Y-12574567D01*
X4576670Y-12574567D02*
X4586194Y-12526948D01*
X4586194Y-12526948D02*
X4595718Y-12498376D01*
X4595718Y-12498376D02*
X4605241Y-12479329D01*
X4605241Y-12479329D02*
X4624289Y-12450757D01*
X4624289Y-12450757D02*
X4633813Y-12441233D01*
X4738575Y-12555519D02*
X4719527Y-12545995D01*
X4719527Y-12545995D02*
X4710003Y-12536471D01*
X4710003Y-12536471D02*
X4700480Y-12517424D01*
X4700480Y-12517424D02*
X4700480Y-12507900D01*
X4700480Y-12507900D02*
X4710003Y-12488852D01*
X4710003Y-12488852D02*
X4719527Y-12479329D01*
X4719527Y-12479329D02*
X4738575Y-12469805D01*
X4738575Y-12469805D02*
X4776670Y-12469805D01*
X4776670Y-12469805D02*
X4795718Y-12479329D01*
X4795718Y-12479329D02*
X4805241Y-12488852D01*
X4805241Y-12488852D02*
X4814765Y-12507900D01*
X4814765Y-12507900D02*
X4814765Y-12517424D01*
X4814765Y-12517424D02*
X4805241Y-12536471D01*
X4805241Y-12536471D02*
X4795718Y-12545995D01*
X4795718Y-12545995D02*
X4776670Y-12555519D01*
X4776670Y-12555519D02*
X4738575Y-12555519D01*
X4738575Y-12555519D02*
X4719527Y-12565043D01*
X4719527Y-12565043D02*
X4710003Y-12574567D01*
X4710003Y-12574567D02*
X4700480Y-12593614D01*
X4700480Y-12593614D02*
X4700480Y-12631710D01*
X4700480Y-12631710D02*
X4710003Y-12650757D01*
X4710003Y-12650757D02*
X4719527Y-12660281D01*
X4719527Y-12660281D02*
X4738575Y-12669805D01*
X4738575Y-12669805D02*
X4776670Y-12669805D01*
X4776670Y-12669805D02*
X4795718Y-12660281D01*
X4795718Y-12660281D02*
X4805241Y-12650757D01*
X4805241Y-12650757D02*
X4814765Y-12631710D01*
X4814765Y-12631710D02*
X4814765Y-12593614D01*
X4814765Y-12593614D02*
X4805241Y-12574567D01*
X4805241Y-12574567D02*
X4795718Y-12565043D01*
X4795718Y-12565043D02*
X4776670Y-12555519D01*
X4986194Y-12536471D02*
X4986194Y-12669805D01*
X4938575Y-12460281D02*
X4890956Y-12603138D01*
X4890956Y-12603138D02*
X5014765Y-12603138D01*
X5243337Y-12669805D02*
X5243337Y-12469805D01*
X5329051Y-12669805D02*
X5329051Y-12565043D01*
X5329051Y-12565043D02*
X5319527Y-12545995D01*
X5319527Y-12545995D02*
X5300480Y-12536471D01*
X5300480Y-12536471D02*
X5271908Y-12536471D01*
X5271908Y-12536471D02*
X5252861Y-12545995D01*
X5252861Y-12545995D02*
X5243337Y-12555519D01*
X5452861Y-12669805D02*
X5433813Y-12660281D01*
X5433813Y-12660281D02*
X5424289Y-12650757D01*
X5424289Y-12650757D02*
X5414765Y-12631710D01*
X5414765Y-12631710D02*
X5414765Y-12574567D01*
X5414765Y-12574567D02*
X5424289Y-12555519D01*
X5424289Y-12555519D02*
X5433813Y-12545995D01*
X5433813Y-12545995D02*
X5452861Y-12536471D01*
X5452861Y-12536471D02*
X5481432Y-12536471D01*
X5481432Y-12536471D02*
X5500480Y-12545995D01*
X5500480Y-12545995D02*
X5510003Y-12555519D01*
X5510003Y-12555519D02*
X5519527Y-12574567D01*
X5519527Y-12574567D02*
X5519527Y-12631710D01*
X5519527Y-12631710D02*
X5510003Y-12650757D01*
X5510003Y-12650757D02*
X5500480Y-12660281D01*
X5500480Y-12660281D02*
X5481432Y-12669805D01*
X5481432Y-12669805D02*
X5452861Y-12669805D01*
X5633813Y-12669805D02*
X5614765Y-12660281D01*
X5614765Y-12660281D02*
X5605241Y-12641233D01*
X5605241Y-12641233D02*
X5605241Y-12469805D01*
X5786194Y-12660281D02*
X5767146Y-12669805D01*
X5767146Y-12669805D02*
X5729051Y-12669805D01*
X5729051Y-12669805D02*
X5710003Y-12660281D01*
X5710003Y-12660281D02*
X5700480Y-12641233D01*
X5700480Y-12641233D02*
X5700480Y-12565043D01*
X5700480Y-12565043D02*
X5710003Y-12545995D01*
X5710003Y-12545995D02*
X5729051Y-12536471D01*
X5729051Y-12536471D02*
X5767146Y-12536471D01*
X5767146Y-12536471D02*
X5786194Y-12545995D01*
X5786194Y-12545995D02*
X5795718Y-12565043D01*
X5795718Y-12565043D02*
X5795718Y-12584091D01*
X5795718Y-12584091D02*
X5700480Y-12603138D01*
X5871908Y-12660281D02*
X5890956Y-12669805D01*
X5890956Y-12669805D02*
X5929051Y-12669805D01*
X5929051Y-12669805D02*
X5948099Y-12660281D01*
X5948099Y-12660281D02*
X5957622Y-12641233D01*
X5957622Y-12641233D02*
X5957622Y-12631710D01*
X5957622Y-12631710D02*
X5948099Y-12612662D01*
X5948099Y-12612662D02*
X5929051Y-12603138D01*
X5929051Y-12603138D02*
X5900480Y-12603138D01*
X5900480Y-12603138D02*
X5881432Y-12593614D01*
X5881432Y-12593614D02*
X5871908Y-12574567D01*
X5871908Y-12574567D02*
X5871908Y-12565043D01*
X5871908Y-12565043D02*
X5881432Y-12545995D01*
X5881432Y-12545995D02*
X5900480Y-12536471D01*
X5900480Y-12536471D02*
X5929051Y-12536471D01*
X5929051Y-12536471D02*
X5948099Y-12545995D01*
X6024289Y-12745995D02*
X6033813Y-12736471D01*
X6033813Y-12736471D02*
X6052861Y-12707900D01*
X6052861Y-12707900D02*
X6062384Y-12688852D01*
X6062384Y-12688852D02*
X6071908Y-12660281D01*
X6071908Y-12660281D02*
X6081432Y-12612662D01*
X6081432Y-12612662D02*
X6081432Y-12574567D01*
X6081432Y-12574567D02*
X6071908Y-12526948D01*
X6071908Y-12526948D02*
X6062384Y-12498376D01*
X6062384Y-12498376D02*
X6052861Y-12479329D01*
X6052861Y-12479329D02*
X6033813Y-12450757D01*
X6033813Y-12450757D02*
X6024289Y-12441233D01*
X6386194Y-12745995D02*
X6376670Y-12736471D01*
X6376670Y-12736471D02*
X6357622Y-12707900D01*
X6357622Y-12707900D02*
X6348099Y-12688852D01*
X6348099Y-12688852D02*
X6338575Y-12660281D01*
X6338575Y-12660281D02*
X6329051Y-12612662D01*
X6329051Y-12612662D02*
X6329051Y-12574567D01*
X6329051Y-12574567D02*
X6338575Y-12526948D01*
X6338575Y-12526948D02*
X6348099Y-12498376D01*
X6348099Y-12498376D02*
X6357622Y-12479329D01*
X6357622Y-12479329D02*
X6376670Y-12450757D01*
X6376670Y-12450757D02*
X6386194Y-12441233D01*
X6462384Y-12536471D02*
X6462384Y-12669805D01*
X6462384Y-12555519D02*
X6471908Y-12545995D01*
X6471908Y-12545995D02*
X6490956Y-12536471D01*
X6490956Y-12536471D02*
X6519527Y-12536471D01*
X6519527Y-12536471D02*
X6538575Y-12545995D01*
X6538575Y-12545995D02*
X6548099Y-12565043D01*
X6548099Y-12565043D02*
X6548099Y-12669805D01*
X6671908Y-12669805D02*
X6652861Y-12660281D01*
X6652861Y-12660281D02*
X6643337Y-12650757D01*
X6643337Y-12650757D02*
X6633813Y-12631710D01*
X6633813Y-12631710D02*
X6633813Y-12574567D01*
X6633813Y-12574567D02*
X6643337Y-12555519D01*
X6643337Y-12555519D02*
X6652861Y-12545995D01*
X6652861Y-12545995D02*
X6671908Y-12536471D01*
X6671908Y-12536471D02*
X6700480Y-12536471D01*
X6700480Y-12536471D02*
X6719527Y-12545995D01*
X6719527Y-12545995D02*
X6729051Y-12555519D01*
X6729051Y-12555519D02*
X6738575Y-12574567D01*
X6738575Y-12574567D02*
X6738575Y-12631710D01*
X6738575Y-12631710D02*
X6729051Y-12650757D01*
X6729051Y-12650757D02*
X6719527Y-12660281D01*
X6719527Y-12660281D02*
X6700480Y-12669805D01*
X6700480Y-12669805D02*
X6671908Y-12669805D01*
X6795718Y-12536471D02*
X6871908Y-12536471D01*
X6824289Y-12469805D02*
X6824289Y-12641233D01*
X6824289Y-12641233D02*
X6833813Y-12660281D01*
X6833813Y-12660281D02*
X6852861Y-12669805D01*
X6852861Y-12669805D02*
X6871908Y-12669805D01*
X7090956Y-12536471D02*
X7090956Y-12736471D01*
X7090956Y-12545995D02*
X7110003Y-12536471D01*
X7110003Y-12536471D02*
X7148099Y-12536471D01*
X7148099Y-12536471D02*
X7167146Y-12545995D01*
X7167146Y-12545995D02*
X7176670Y-12555519D01*
X7176670Y-12555519D02*
X7186194Y-12574567D01*
X7186194Y-12574567D02*
X7186194Y-12631710D01*
X7186194Y-12631710D02*
X7176670Y-12650757D01*
X7176670Y-12650757D02*
X7167146Y-12660281D01*
X7167146Y-12660281D02*
X7148099Y-12669805D01*
X7148099Y-12669805D02*
X7110003Y-12669805D01*
X7110003Y-12669805D02*
X7090956Y-12660281D01*
X7300480Y-12669805D02*
X7281432Y-12660281D01*
X7281432Y-12660281D02*
X7271908Y-12641233D01*
X7271908Y-12641233D02*
X7271908Y-12469805D01*
X7462384Y-12669805D02*
X7462384Y-12565043D01*
X7462384Y-12565043D02*
X7452861Y-12545995D01*
X7452861Y-12545995D02*
X7433813Y-12536471D01*
X7433813Y-12536471D02*
X7395718Y-12536471D01*
X7395718Y-12536471D02*
X7376670Y-12545995D01*
X7462384Y-12660281D02*
X7443337Y-12669805D01*
X7443337Y-12669805D02*
X7395718Y-12669805D01*
X7395718Y-12669805D02*
X7376670Y-12660281D01*
X7376670Y-12660281D02*
X7367146Y-12641233D01*
X7367146Y-12641233D02*
X7367146Y-12622186D01*
X7367146Y-12622186D02*
X7376670Y-12603138D01*
X7376670Y-12603138D02*
X7395718Y-12593614D01*
X7395718Y-12593614D02*
X7443337Y-12593614D01*
X7443337Y-12593614D02*
X7462384Y-12584091D01*
X7529051Y-12536471D02*
X7605242Y-12536471D01*
X7557623Y-12469805D02*
X7557623Y-12641233D01*
X7557623Y-12641233D02*
X7567146Y-12660281D01*
X7567146Y-12660281D02*
X7586194Y-12669805D01*
X7586194Y-12669805D02*
X7605242Y-12669805D01*
X7748099Y-12660281D02*
X7729051Y-12669805D01*
X7729051Y-12669805D02*
X7690956Y-12669805D01*
X7690956Y-12669805D02*
X7671908Y-12660281D01*
X7671908Y-12660281D02*
X7662384Y-12641233D01*
X7662384Y-12641233D02*
X7662384Y-12565043D01*
X7662384Y-12565043D02*
X7671908Y-12545995D01*
X7671908Y-12545995D02*
X7690956Y-12536471D01*
X7690956Y-12536471D02*
X7729051Y-12536471D01*
X7729051Y-12536471D02*
X7748099Y-12545995D01*
X7748099Y-12545995D02*
X7757623Y-12565043D01*
X7757623Y-12565043D02*
X7757623Y-12584091D01*
X7757623Y-12584091D02*
X7662384Y-12603138D01*
X7929051Y-12669805D02*
X7929051Y-12469805D01*
X7929051Y-12660281D02*
X7910004Y-12669805D01*
X7910004Y-12669805D02*
X7871908Y-12669805D01*
X7871908Y-12669805D02*
X7852861Y-12660281D01*
X7852861Y-12660281D02*
X7843337Y-12650757D01*
X7843337Y-12650757D02*
X7833813Y-12631710D01*
X7833813Y-12631710D02*
X7833813Y-12574567D01*
X7833813Y-12574567D02*
X7843337Y-12555519D01*
X7843337Y-12555519D02*
X7852861Y-12545995D01*
X7852861Y-12545995D02*
X7871908Y-12536471D01*
X7871908Y-12536471D02*
X7910004Y-12536471D01*
X7910004Y-12536471D02*
X7929051Y-12545995D01*
X8005242Y-12745995D02*
X8014765Y-12736471D01*
X8014765Y-12736471D02*
X8033813Y-12707900D01*
X8033813Y-12707900D02*
X8043337Y-12688852D01*
X8043337Y-12688852D02*
X8052861Y-12660281D01*
X8052861Y-12660281D02*
X8062384Y-12612662D01*
X8062384Y-12612662D02*
X8062384Y-12574567D01*
X8062384Y-12574567D02*
X8052861Y-12526948D01*
X8052861Y-12526948D02*
X8043337Y-12498376D01*
X8043337Y-12498376D02*
X8033813Y-12479329D01*
X8033813Y-12479329D02*
X8014765Y-12450757D01*
X8014765Y-12450757D02*
X8005242Y-12441233D01*
X958750Y-12788321D02*
X958750Y-12988321D01*
X858750Y-12888321D02*
X1058750Y-12888321D01*
X1310003Y-12798852D02*
X1319527Y-12789329D01*
X1319527Y-12789329D02*
X1338574Y-12779805D01*
X1338574Y-12779805D02*
X1386194Y-12779805D01*
X1386194Y-12779805D02*
X1405241Y-12789329D01*
X1405241Y-12789329D02*
X1414765Y-12798852D01*
X1414765Y-12798852D02*
X1424289Y-12817900D01*
X1424289Y-12817900D02*
X1424289Y-12836948D01*
X1424289Y-12836948D02*
X1414765Y-12865519D01*
X1414765Y-12865519D02*
X1300479Y-12979805D01*
X1300479Y-12979805D02*
X1424289Y-12979805D01*
X1510003Y-12960757D02*
X1519527Y-12970281D01*
X1519527Y-12970281D02*
X1510003Y-12979805D01*
X1510003Y-12979805D02*
X1500479Y-12970281D01*
X1500479Y-12970281D02*
X1510003Y-12960757D01*
X1510003Y-12960757D02*
X1510003Y-12979805D01*
X1595717Y-12798852D02*
X1605241Y-12789329D01*
X1605241Y-12789329D02*
X1624289Y-12779805D01*
X1624289Y-12779805D02*
X1671908Y-12779805D01*
X1671908Y-12779805D02*
X1690955Y-12789329D01*
X1690955Y-12789329D02*
X1700479Y-12798852D01*
X1700479Y-12798852D02*
X1710003Y-12817900D01*
X1710003Y-12817900D02*
X1710003Y-12836948D01*
X1710003Y-12836948D02*
X1700479Y-12865519D01*
X1700479Y-12865519D02*
X1586193Y-12979805D01*
X1586193Y-12979805D02*
X1710003Y-12979805D01*
X1833812Y-12779805D02*
X1852860Y-12779805D01*
X1852860Y-12779805D02*
X1871908Y-12789329D01*
X1871908Y-12789329D02*
X1881432Y-12798852D01*
X1881432Y-12798852D02*
X1890955Y-12817900D01*
X1890955Y-12817900D02*
X1900479Y-12855995D01*
X1900479Y-12855995D02*
X1900479Y-12903614D01*
X1900479Y-12903614D02*
X1890955Y-12941710D01*
X1890955Y-12941710D02*
X1881432Y-12960757D01*
X1881432Y-12960757D02*
X1871908Y-12970281D01*
X1871908Y-12970281D02*
X1852860Y-12979805D01*
X1852860Y-12979805D02*
X1833812Y-12979805D01*
X1833812Y-12979805D02*
X1814765Y-12970281D01*
X1814765Y-12970281D02*
X1805241Y-12960757D01*
X1805241Y-12960757D02*
X1795717Y-12941710D01*
X1795717Y-12941710D02*
X1786193Y-12903614D01*
X1786193Y-12903614D02*
X1786193Y-12855995D01*
X1786193Y-12855995D02*
X1795717Y-12817900D01*
X1795717Y-12817900D02*
X1805241Y-12798852D01*
X1805241Y-12798852D02*
X1814765Y-12789329D01*
X1814765Y-12789329D02*
X1833812Y-12779805D01*
X2024289Y-12779805D02*
X2043336Y-12779805D01*
X2043336Y-12779805D02*
X2062384Y-12789329D01*
X2062384Y-12789329D02*
X2071908Y-12798852D01*
X2071908Y-12798852D02*
X2081432Y-12817900D01*
X2081432Y-12817900D02*
X2090955Y-12855995D01*
X2090955Y-12855995D02*
X2090955Y-12903614D01*
X2090955Y-12903614D02*
X2081432Y-12941710D01*
X2081432Y-12941710D02*
X2071908Y-12960757D01*
X2071908Y-12960757D02*
X2062384Y-12970281D01*
X2062384Y-12970281D02*
X2043336Y-12979805D01*
X2043336Y-12979805D02*
X2024289Y-12979805D01*
X2024289Y-12979805D02*
X2005241Y-12970281D01*
X2005241Y-12970281D02*
X1995717Y-12960757D01*
X1995717Y-12960757D02*
X1986193Y-12941710D01*
X1986193Y-12941710D02*
X1976670Y-12903614D01*
X1976670Y-12903614D02*
X1976670Y-12855995D01*
X1976670Y-12855995D02*
X1986193Y-12817900D01*
X1986193Y-12817900D02*
X1995717Y-12798852D01*
X1995717Y-12798852D02*
X2005241Y-12789329D01*
X2005241Y-12789329D02*
X2024289Y-12779805D01*
X2176670Y-12979805D02*
X2176670Y-12846471D01*
X2176670Y-12865519D02*
X2186194Y-12855995D01*
X2186194Y-12855995D02*
X2205241Y-12846471D01*
X2205241Y-12846471D02*
X2233813Y-12846471D01*
X2233813Y-12846471D02*
X2252860Y-12855995D01*
X2252860Y-12855995D02*
X2262384Y-12875043D01*
X2262384Y-12875043D02*
X2262384Y-12979805D01*
X2262384Y-12875043D02*
X2271908Y-12855995D01*
X2271908Y-12855995D02*
X2290955Y-12846471D01*
X2290955Y-12846471D02*
X2319527Y-12846471D01*
X2319527Y-12846471D02*
X2338575Y-12855995D01*
X2338575Y-12855995D02*
X2348098Y-12875043D01*
X2348098Y-12875043D02*
X2348098Y-12979805D01*
X2443336Y-12979805D02*
X2443336Y-12846471D01*
X2443336Y-12865519D02*
X2452860Y-12855995D01*
X2452860Y-12855995D02*
X2471908Y-12846471D01*
X2471908Y-12846471D02*
X2500479Y-12846471D01*
X2500479Y-12846471D02*
X2519527Y-12855995D01*
X2519527Y-12855995D02*
X2529051Y-12875043D01*
X2529051Y-12875043D02*
X2529051Y-12979805D01*
X2529051Y-12875043D02*
X2538575Y-12855995D01*
X2538575Y-12855995D02*
X2557622Y-12846471D01*
X2557622Y-12846471D02*
X2586194Y-12846471D01*
X2586194Y-12846471D02*
X2605241Y-12855995D01*
X2605241Y-12855995D02*
X2614765Y-12875043D01*
X2614765Y-12875043D02*
X2614765Y-12979805D01*
X3005241Y-12770281D02*
X2833813Y-13027424D01*
X3262384Y-12779805D02*
X3281432Y-12779805D01*
X3281432Y-12779805D02*
X3300479Y-12789329D01*
X3300479Y-12789329D02*
X3310003Y-12798852D01*
X3310003Y-12798852D02*
X3319527Y-12817900D01*
X3319527Y-12817900D02*
X3329051Y-12855995D01*
X3329051Y-12855995D02*
X3329051Y-12903614D01*
X3329051Y-12903614D02*
X3319527Y-12941710D01*
X3319527Y-12941710D02*
X3310003Y-12960757D01*
X3310003Y-12960757D02*
X3300479Y-12970281D01*
X3300479Y-12970281D02*
X3281432Y-12979805D01*
X3281432Y-12979805D02*
X3262384Y-12979805D01*
X3262384Y-12979805D02*
X3243336Y-12970281D01*
X3243336Y-12970281D02*
X3233813Y-12960757D01*
X3233813Y-12960757D02*
X3224289Y-12941710D01*
X3224289Y-12941710D02*
X3214765Y-12903614D01*
X3214765Y-12903614D02*
X3214765Y-12855995D01*
X3214765Y-12855995D02*
X3224289Y-12817900D01*
X3224289Y-12817900D02*
X3233813Y-12798852D01*
X3233813Y-12798852D02*
X3243336Y-12789329D01*
X3243336Y-12789329D02*
X3262384Y-12779805D01*
X3414765Y-12960757D02*
X3424289Y-12970281D01*
X3424289Y-12970281D02*
X3414765Y-12979805D01*
X3414765Y-12979805D02*
X3405241Y-12970281D01*
X3405241Y-12970281D02*
X3414765Y-12960757D01*
X3414765Y-12960757D02*
X3414765Y-12979805D01*
X3548098Y-12779805D02*
X3567146Y-12779805D01*
X3567146Y-12779805D02*
X3586194Y-12789329D01*
X3586194Y-12789329D02*
X3595717Y-12798852D01*
X3595717Y-12798852D02*
X3605241Y-12817900D01*
X3605241Y-12817900D02*
X3614765Y-12855995D01*
X3614765Y-12855995D02*
X3614765Y-12903614D01*
X3614765Y-12903614D02*
X3605241Y-12941710D01*
X3605241Y-12941710D02*
X3595717Y-12960757D01*
X3595717Y-12960757D02*
X3586194Y-12970281D01*
X3586194Y-12970281D02*
X3567146Y-12979805D01*
X3567146Y-12979805D02*
X3548098Y-12979805D01*
X3548098Y-12979805D02*
X3529051Y-12970281D01*
X3529051Y-12970281D02*
X3519527Y-12960757D01*
X3519527Y-12960757D02*
X3510003Y-12941710D01*
X3510003Y-12941710D02*
X3500479Y-12903614D01*
X3500479Y-12903614D02*
X3500479Y-12855995D01*
X3500479Y-12855995D02*
X3510003Y-12817900D01*
X3510003Y-12817900D02*
X3519527Y-12798852D01*
X3519527Y-12798852D02*
X3529051Y-12789329D01*
X3529051Y-12789329D02*
X3548098Y-12779805D01*
X3729051Y-12865519D02*
X3710003Y-12855995D01*
X3710003Y-12855995D02*
X3700479Y-12846471D01*
X3700479Y-12846471D02*
X3690956Y-12827424D01*
X3690956Y-12827424D02*
X3690956Y-12817900D01*
X3690956Y-12817900D02*
X3700479Y-12798852D01*
X3700479Y-12798852D02*
X3710003Y-12789329D01*
X3710003Y-12789329D02*
X3729051Y-12779805D01*
X3729051Y-12779805D02*
X3767146Y-12779805D01*
X3767146Y-12779805D02*
X3786194Y-12789329D01*
X3786194Y-12789329D02*
X3795717Y-12798852D01*
X3795717Y-12798852D02*
X3805241Y-12817900D01*
X3805241Y-12817900D02*
X3805241Y-12827424D01*
X3805241Y-12827424D02*
X3795717Y-12846471D01*
X3795717Y-12846471D02*
X3786194Y-12855995D01*
X3786194Y-12855995D02*
X3767146Y-12865519D01*
X3767146Y-12865519D02*
X3729051Y-12865519D01*
X3729051Y-12865519D02*
X3710003Y-12875043D01*
X3710003Y-12875043D02*
X3700479Y-12884567D01*
X3700479Y-12884567D02*
X3690956Y-12903614D01*
X3690956Y-12903614D02*
X3690956Y-12941710D01*
X3690956Y-12941710D02*
X3700479Y-12960757D01*
X3700479Y-12960757D02*
X3710003Y-12970281D01*
X3710003Y-12970281D02*
X3729051Y-12979805D01*
X3729051Y-12979805D02*
X3767146Y-12979805D01*
X3767146Y-12979805D02*
X3786194Y-12970281D01*
X3786194Y-12970281D02*
X3795717Y-12960757D01*
X3795717Y-12960757D02*
X3805241Y-12941710D01*
X3805241Y-12941710D02*
X3805241Y-12903614D01*
X3805241Y-12903614D02*
X3795717Y-12884567D01*
X3795717Y-12884567D02*
X3786194Y-12875043D01*
X3786194Y-12875043D02*
X3767146Y-12865519D01*
X3976670Y-12779805D02*
X3938575Y-12779805D01*
X3938575Y-12779805D02*
X3919527Y-12789329D01*
X3919527Y-12789329D02*
X3910003Y-12798852D01*
X3910003Y-12798852D02*
X3890956Y-12827424D01*
X3890956Y-12827424D02*
X3881432Y-12865519D01*
X3881432Y-12865519D02*
X3881432Y-12941710D01*
X3881432Y-12941710D02*
X3890956Y-12960757D01*
X3890956Y-12960757D02*
X3900479Y-12970281D01*
X3900479Y-12970281D02*
X3919527Y-12979805D01*
X3919527Y-12979805D02*
X3957622Y-12979805D01*
X3957622Y-12979805D02*
X3976670Y-12970281D01*
X3976670Y-12970281D02*
X3986194Y-12960757D01*
X3986194Y-12960757D02*
X3995717Y-12941710D01*
X3995717Y-12941710D02*
X3995717Y-12894091D01*
X3995717Y-12894091D02*
X3986194Y-12875043D01*
X3986194Y-12875043D02*
X3976670Y-12865519D01*
X3976670Y-12865519D02*
X3957622Y-12855995D01*
X3957622Y-12855995D02*
X3919527Y-12855995D01*
X3919527Y-12855995D02*
X3900479Y-12865519D01*
X3900479Y-12865519D02*
X3890956Y-12875043D01*
X3890956Y-12875043D02*
X3881432Y-12894091D01*
X4167146Y-12779805D02*
X4129051Y-12779805D01*
X4129051Y-12779805D02*
X4110003Y-12789329D01*
X4110003Y-12789329D02*
X4100479Y-12798852D01*
X4100479Y-12798852D02*
X4081432Y-12827424D01*
X4081432Y-12827424D02*
X4071908Y-12865519D01*
X4071908Y-12865519D02*
X4071908Y-12941710D01*
X4071908Y-12941710D02*
X4081432Y-12960757D01*
X4081432Y-12960757D02*
X4090956Y-12970281D01*
X4090956Y-12970281D02*
X4110003Y-12979805D01*
X4110003Y-12979805D02*
X4148098Y-12979805D01*
X4148098Y-12979805D02*
X4167146Y-12970281D01*
X4167146Y-12970281D02*
X4176670Y-12960757D01*
X4176670Y-12960757D02*
X4186194Y-12941710D01*
X4186194Y-12941710D02*
X4186194Y-12894091D01*
X4186194Y-12894091D02*
X4176670Y-12875043D01*
X4176670Y-12875043D02*
X4167146Y-12865519D01*
X4167146Y-12865519D02*
X4148098Y-12855995D01*
X4148098Y-12855995D02*
X4110003Y-12855995D01*
X4110003Y-12855995D02*
X4090956Y-12865519D01*
X4090956Y-12865519D02*
X4081432Y-12875043D01*
X4081432Y-12875043D02*
X4071908Y-12894091D01*
X4262384Y-12779805D02*
X4262384Y-12817900D01*
X4338575Y-12779805D02*
X4338575Y-12817900D01*
X4633813Y-13055995D02*
X4624289Y-13046471D01*
X4624289Y-13046471D02*
X4605241Y-13017900D01*
X4605241Y-13017900D02*
X4595718Y-12998852D01*
X4595718Y-12998852D02*
X4586194Y-12970281D01*
X4586194Y-12970281D02*
X4576670Y-12922662D01*
X4576670Y-12922662D02*
X4576670Y-12884567D01*
X4576670Y-12884567D02*
X4586194Y-12836948D01*
X4586194Y-12836948D02*
X4595718Y-12808376D01*
X4595718Y-12808376D02*
X4605241Y-12789329D01*
X4605241Y-12789329D02*
X4624289Y-12760757D01*
X4624289Y-12760757D02*
X4633813Y-12751233D01*
X4795718Y-12846471D02*
X4795718Y-12979805D01*
X4748099Y-12770281D02*
X4700480Y-12913138D01*
X4700480Y-12913138D02*
X4824289Y-12913138D01*
X5052861Y-12979805D02*
X5052861Y-12779805D01*
X5138575Y-12979805D02*
X5138575Y-12875043D01*
X5138575Y-12875043D02*
X5129051Y-12855995D01*
X5129051Y-12855995D02*
X5110003Y-12846471D01*
X5110003Y-12846471D02*
X5081432Y-12846471D01*
X5081432Y-12846471D02*
X5062384Y-12855995D01*
X5062384Y-12855995D02*
X5052861Y-12865519D01*
X5262384Y-12979805D02*
X5243337Y-12970281D01*
X5243337Y-12970281D02*
X5233813Y-12960757D01*
X5233813Y-12960757D02*
X5224289Y-12941710D01*
X5224289Y-12941710D02*
X5224289Y-12884567D01*
X5224289Y-12884567D02*
X5233813Y-12865519D01*
X5233813Y-12865519D02*
X5243337Y-12855995D01*
X5243337Y-12855995D02*
X5262384Y-12846471D01*
X5262384Y-12846471D02*
X5290956Y-12846471D01*
X5290956Y-12846471D02*
X5310003Y-12855995D01*
X5310003Y-12855995D02*
X5319527Y-12865519D01*
X5319527Y-12865519D02*
X5329051Y-12884567D01*
X5329051Y-12884567D02*
X5329051Y-12941710D01*
X5329051Y-12941710D02*
X5319527Y-12960757D01*
X5319527Y-12960757D02*
X5310003Y-12970281D01*
X5310003Y-12970281D02*
X5290956Y-12979805D01*
X5290956Y-12979805D02*
X5262384Y-12979805D01*
X5443337Y-12979805D02*
X5424289Y-12970281D01*
X5424289Y-12970281D02*
X5414765Y-12951233D01*
X5414765Y-12951233D02*
X5414765Y-12779805D01*
X5595718Y-12970281D02*
X5576670Y-12979805D01*
X5576670Y-12979805D02*
X5538575Y-12979805D01*
X5538575Y-12979805D02*
X5519527Y-12970281D01*
X5519527Y-12970281D02*
X5510003Y-12951233D01*
X5510003Y-12951233D02*
X5510003Y-12875043D01*
X5510003Y-12875043D02*
X5519527Y-12855995D01*
X5519527Y-12855995D02*
X5538575Y-12846471D01*
X5538575Y-12846471D02*
X5576670Y-12846471D01*
X5576670Y-12846471D02*
X5595718Y-12855995D01*
X5595718Y-12855995D02*
X5605241Y-12875043D01*
X5605241Y-12875043D02*
X5605241Y-12894091D01*
X5605241Y-12894091D02*
X5510003Y-12913138D01*
X5681432Y-12970281D02*
X5700480Y-12979805D01*
X5700480Y-12979805D02*
X5738575Y-12979805D01*
X5738575Y-12979805D02*
X5757622Y-12970281D01*
X5757622Y-12970281D02*
X5767146Y-12951233D01*
X5767146Y-12951233D02*
X5767146Y-12941710D01*
X5767146Y-12941710D02*
X5757622Y-12922662D01*
X5757622Y-12922662D02*
X5738575Y-12913138D01*
X5738575Y-12913138D02*
X5710003Y-12913138D01*
X5710003Y-12913138D02*
X5690956Y-12903614D01*
X5690956Y-12903614D02*
X5681432Y-12884567D01*
X5681432Y-12884567D02*
X5681432Y-12875043D01*
X5681432Y-12875043D02*
X5690956Y-12855995D01*
X5690956Y-12855995D02*
X5710003Y-12846471D01*
X5710003Y-12846471D02*
X5738575Y-12846471D01*
X5738575Y-12846471D02*
X5757622Y-12855995D01*
X5833813Y-13055995D02*
X5843337Y-13046471D01*
X5843337Y-13046471D02*
X5862384Y-13017900D01*
X5862384Y-13017900D02*
X5871908Y-12998852D01*
X5871908Y-12998852D02*
X5881432Y-12970281D01*
X5881432Y-12970281D02*
X5890956Y-12922662D01*
X5890956Y-12922662D02*
X5890956Y-12884567D01*
X5890956Y-12884567D02*
X5881432Y-12836948D01*
X5881432Y-12836948D02*
X5871908Y-12808376D01*
X5871908Y-12808376D02*
X5862384Y-12789329D01*
X5862384Y-12789329D02*
X5843337Y-12760757D01*
X5843337Y-12760757D02*
X5833813Y-12751233D01*
X6195718Y-13055995D02*
X6186194Y-13046471D01*
X6186194Y-13046471D02*
X6167146Y-13017900D01*
X6167146Y-13017900D02*
X6157622Y-12998852D01*
X6157622Y-12998852D02*
X6148099Y-12970281D01*
X6148099Y-12970281D02*
X6138575Y-12922662D01*
X6138575Y-12922662D02*
X6138575Y-12884567D01*
X6138575Y-12884567D02*
X6148099Y-12836948D01*
X6148099Y-12836948D02*
X6157622Y-12808376D01*
X6157622Y-12808376D02*
X6167146Y-12789329D01*
X6167146Y-12789329D02*
X6186194Y-12760757D01*
X6186194Y-12760757D02*
X6195718Y-12751233D01*
X6271908Y-12846471D02*
X6271908Y-12979805D01*
X6271908Y-12865519D02*
X6281432Y-12855995D01*
X6281432Y-12855995D02*
X6300480Y-12846471D01*
X6300480Y-12846471D02*
X6329051Y-12846471D01*
X6329051Y-12846471D02*
X6348099Y-12855995D01*
X6348099Y-12855995D02*
X6357622Y-12875043D01*
X6357622Y-12875043D02*
X6357622Y-12979805D01*
X6481432Y-12979805D02*
X6462384Y-12970281D01*
X6462384Y-12970281D02*
X6452861Y-12960757D01*
X6452861Y-12960757D02*
X6443337Y-12941710D01*
X6443337Y-12941710D02*
X6443337Y-12884567D01*
X6443337Y-12884567D02*
X6452861Y-12865519D01*
X6452861Y-12865519D02*
X6462384Y-12855995D01*
X6462384Y-12855995D02*
X6481432Y-12846471D01*
X6481432Y-12846471D02*
X6510003Y-12846471D01*
X6510003Y-12846471D02*
X6529051Y-12855995D01*
X6529051Y-12855995D02*
X6538575Y-12865519D01*
X6538575Y-12865519D02*
X6548099Y-12884567D01*
X6548099Y-12884567D02*
X6548099Y-12941710D01*
X6548099Y-12941710D02*
X6538575Y-12960757D01*
X6538575Y-12960757D02*
X6529051Y-12970281D01*
X6529051Y-12970281D02*
X6510003Y-12979805D01*
X6510003Y-12979805D02*
X6481432Y-12979805D01*
X6605242Y-12846471D02*
X6681432Y-12846471D01*
X6633813Y-12779805D02*
X6633813Y-12951233D01*
X6633813Y-12951233D02*
X6643337Y-12970281D01*
X6643337Y-12970281D02*
X6662384Y-12979805D01*
X6662384Y-12979805D02*
X6681432Y-12979805D01*
X6900480Y-12846471D02*
X6900480Y-13046471D01*
X6900480Y-12855995D02*
X6919527Y-12846471D01*
X6919527Y-12846471D02*
X6957623Y-12846471D01*
X6957623Y-12846471D02*
X6976670Y-12855995D01*
X6976670Y-12855995D02*
X6986194Y-12865519D01*
X6986194Y-12865519D02*
X6995718Y-12884567D01*
X6995718Y-12884567D02*
X6995718Y-12941710D01*
X6995718Y-12941710D02*
X6986194Y-12960757D01*
X6986194Y-12960757D02*
X6976670Y-12970281D01*
X6976670Y-12970281D02*
X6957623Y-12979805D01*
X6957623Y-12979805D02*
X6919527Y-12979805D01*
X6919527Y-12979805D02*
X6900480Y-12970281D01*
X7110003Y-12979805D02*
X7090956Y-12970281D01*
X7090956Y-12970281D02*
X7081432Y-12951233D01*
X7081432Y-12951233D02*
X7081432Y-12779805D01*
X7271908Y-12979805D02*
X7271908Y-12875043D01*
X7271908Y-12875043D02*
X7262384Y-12855995D01*
X7262384Y-12855995D02*
X7243337Y-12846471D01*
X7243337Y-12846471D02*
X7205242Y-12846471D01*
X7205242Y-12846471D02*
X7186194Y-12855995D01*
X7271908Y-12970281D02*
X7252861Y-12979805D01*
X7252861Y-12979805D02*
X7205242Y-12979805D01*
X7205242Y-12979805D02*
X7186194Y-12970281D01*
X7186194Y-12970281D02*
X7176670Y-12951233D01*
X7176670Y-12951233D02*
X7176670Y-12932186D01*
X7176670Y-12932186D02*
X7186194Y-12913138D01*
X7186194Y-12913138D02*
X7205242Y-12903614D01*
X7205242Y-12903614D02*
X7252861Y-12903614D01*
X7252861Y-12903614D02*
X7271908Y-12894091D01*
X7338575Y-12846471D02*
X7414765Y-12846471D01*
X7367146Y-12779805D02*
X7367146Y-12951233D01*
X7367146Y-12951233D02*
X7376670Y-12970281D01*
X7376670Y-12970281D02*
X7395718Y-12979805D01*
X7395718Y-12979805D02*
X7414765Y-12979805D01*
X7557623Y-12970281D02*
X7538575Y-12979805D01*
X7538575Y-12979805D02*
X7500480Y-12979805D01*
X7500480Y-12979805D02*
X7481432Y-12970281D01*
X7481432Y-12970281D02*
X7471908Y-12951233D01*
X7471908Y-12951233D02*
X7471908Y-12875043D01*
X7471908Y-12875043D02*
X7481432Y-12855995D01*
X7481432Y-12855995D02*
X7500480Y-12846471D01*
X7500480Y-12846471D02*
X7538575Y-12846471D01*
X7538575Y-12846471D02*
X7557623Y-12855995D01*
X7557623Y-12855995D02*
X7567146Y-12875043D01*
X7567146Y-12875043D02*
X7567146Y-12894091D01*
X7567146Y-12894091D02*
X7471908Y-12913138D01*
X7738575Y-12979805D02*
X7738575Y-12779805D01*
X7738575Y-12970281D02*
X7719527Y-12979805D01*
X7719527Y-12979805D02*
X7681432Y-12979805D01*
X7681432Y-12979805D02*
X7662384Y-12970281D01*
X7662384Y-12970281D02*
X7652861Y-12960757D01*
X7652861Y-12960757D02*
X7643337Y-12941710D01*
X7643337Y-12941710D02*
X7643337Y-12884567D01*
X7643337Y-12884567D02*
X7652861Y-12865519D01*
X7652861Y-12865519D02*
X7662384Y-12855995D01*
X7662384Y-12855995D02*
X7681432Y-12846471D01*
X7681432Y-12846471D02*
X7719527Y-12846471D01*
X7719527Y-12846471D02*
X7738575Y-12855995D01*
X7814765Y-13055995D02*
X7824289Y-13046471D01*
X7824289Y-13046471D02*
X7843337Y-13017900D01*
X7843337Y-13017900D02*
X7852861Y-12998852D01*
X7852861Y-12998852D02*
X7862384Y-12970281D01*
X7862384Y-12970281D02*
X7871908Y-12922662D01*
X7871908Y-12922662D02*
X7871908Y-12884567D01*
X7871908Y-12884567D02*
X7862384Y-12836948D01*
X7862384Y-12836948D02*
X7852861Y-12808376D01*
X7852861Y-12808376D02*
X7843337Y-12789329D01*
X7843337Y-12789329D02*
X7824289Y-12760757D01*
X7824289Y-12760757D02*
X7814765Y-12751233D01*
X1029461Y-13279032D02*
X1029461Y-13137610D01*
X888039Y-13137610D01*
X888039Y-13279032D01*
X1029461Y-13279032D01*
X1300479Y-13099805D02*
X1424289Y-13099805D01*
X1424289Y-13099805D02*
X1357622Y-13175995D01*
X1357622Y-13175995D02*
X1386194Y-13175995D01*
X1386194Y-13175995D02*
X1405241Y-13185519D01*
X1405241Y-13185519D02*
X1414765Y-13195043D01*
X1414765Y-13195043D02*
X1424289Y-13214091D01*
X1424289Y-13214091D02*
X1424289Y-13261710D01*
X1424289Y-13261710D02*
X1414765Y-13280757D01*
X1414765Y-13280757D02*
X1405241Y-13290281D01*
X1405241Y-13290281D02*
X1386194Y-13299805D01*
X1386194Y-13299805D02*
X1329051Y-13299805D01*
X1329051Y-13299805D02*
X1310003Y-13290281D01*
X1310003Y-13290281D02*
X1300479Y-13280757D01*
X1510003Y-13280757D02*
X1519527Y-13290281D01*
X1519527Y-13290281D02*
X1510003Y-13299805D01*
X1510003Y-13299805D02*
X1500479Y-13290281D01*
X1500479Y-13290281D02*
X1510003Y-13280757D01*
X1510003Y-13280757D02*
X1510003Y-13299805D01*
X1643336Y-13099805D02*
X1662384Y-13099805D01*
X1662384Y-13099805D02*
X1681432Y-13109329D01*
X1681432Y-13109329D02*
X1690955Y-13118852D01*
X1690955Y-13118852D02*
X1700479Y-13137900D01*
X1700479Y-13137900D02*
X1710003Y-13175995D01*
X1710003Y-13175995D02*
X1710003Y-13223614D01*
X1710003Y-13223614D02*
X1700479Y-13261710D01*
X1700479Y-13261710D02*
X1690955Y-13280757D01*
X1690955Y-13280757D02*
X1681432Y-13290281D01*
X1681432Y-13290281D02*
X1662384Y-13299805D01*
X1662384Y-13299805D02*
X1643336Y-13299805D01*
X1643336Y-13299805D02*
X1624289Y-13290281D01*
X1624289Y-13290281D02*
X1614765Y-13280757D01*
X1614765Y-13280757D02*
X1605241Y-13261710D01*
X1605241Y-13261710D02*
X1595717Y-13223614D01*
X1595717Y-13223614D02*
X1595717Y-13175995D01*
X1595717Y-13175995D02*
X1605241Y-13137900D01*
X1605241Y-13137900D02*
X1614765Y-13118852D01*
X1614765Y-13118852D02*
X1624289Y-13109329D01*
X1624289Y-13109329D02*
X1643336Y-13099805D01*
X1833812Y-13099805D02*
X1852860Y-13099805D01*
X1852860Y-13099805D02*
X1871908Y-13109329D01*
X1871908Y-13109329D02*
X1881432Y-13118852D01*
X1881432Y-13118852D02*
X1890955Y-13137900D01*
X1890955Y-13137900D02*
X1900479Y-13175995D01*
X1900479Y-13175995D02*
X1900479Y-13223614D01*
X1900479Y-13223614D02*
X1890955Y-13261710D01*
X1890955Y-13261710D02*
X1881432Y-13280757D01*
X1881432Y-13280757D02*
X1871908Y-13290281D01*
X1871908Y-13290281D02*
X1852860Y-13299805D01*
X1852860Y-13299805D02*
X1833812Y-13299805D01*
X1833812Y-13299805D02*
X1814765Y-13290281D01*
X1814765Y-13290281D02*
X1805241Y-13280757D01*
X1805241Y-13280757D02*
X1795717Y-13261710D01*
X1795717Y-13261710D02*
X1786193Y-13223614D01*
X1786193Y-13223614D02*
X1786193Y-13175995D01*
X1786193Y-13175995D02*
X1795717Y-13137900D01*
X1795717Y-13137900D02*
X1805241Y-13118852D01*
X1805241Y-13118852D02*
X1814765Y-13109329D01*
X1814765Y-13109329D02*
X1833812Y-13099805D01*
X2024289Y-13099805D02*
X2043336Y-13099805D01*
X2043336Y-13099805D02*
X2062384Y-13109329D01*
X2062384Y-13109329D02*
X2071908Y-13118852D01*
X2071908Y-13118852D02*
X2081432Y-13137900D01*
X2081432Y-13137900D02*
X2090955Y-13175995D01*
X2090955Y-13175995D02*
X2090955Y-13223614D01*
X2090955Y-13223614D02*
X2081432Y-13261710D01*
X2081432Y-13261710D02*
X2071908Y-13280757D01*
X2071908Y-13280757D02*
X2062384Y-13290281D01*
X2062384Y-13290281D02*
X2043336Y-13299805D01*
X2043336Y-13299805D02*
X2024289Y-13299805D01*
X2024289Y-13299805D02*
X2005241Y-13290281D01*
X2005241Y-13290281D02*
X1995717Y-13280757D01*
X1995717Y-13280757D02*
X1986193Y-13261710D01*
X1986193Y-13261710D02*
X1976670Y-13223614D01*
X1976670Y-13223614D02*
X1976670Y-13175995D01*
X1976670Y-13175995D02*
X1986193Y-13137900D01*
X1986193Y-13137900D02*
X1995717Y-13118852D01*
X1995717Y-13118852D02*
X2005241Y-13109329D01*
X2005241Y-13109329D02*
X2024289Y-13099805D01*
X2176670Y-13299805D02*
X2176670Y-13166471D01*
X2176670Y-13185519D02*
X2186194Y-13175995D01*
X2186194Y-13175995D02*
X2205241Y-13166471D01*
X2205241Y-13166471D02*
X2233813Y-13166471D01*
X2233813Y-13166471D02*
X2252860Y-13175995D01*
X2252860Y-13175995D02*
X2262384Y-13195043D01*
X2262384Y-13195043D02*
X2262384Y-13299805D01*
X2262384Y-13195043D02*
X2271908Y-13175995D01*
X2271908Y-13175995D02*
X2290955Y-13166471D01*
X2290955Y-13166471D02*
X2319527Y-13166471D01*
X2319527Y-13166471D02*
X2338575Y-13175995D01*
X2338575Y-13175995D02*
X2348098Y-13195043D01*
X2348098Y-13195043D02*
X2348098Y-13299805D01*
X2443336Y-13299805D02*
X2443336Y-13166471D01*
X2443336Y-13185519D02*
X2452860Y-13175995D01*
X2452860Y-13175995D02*
X2471908Y-13166471D01*
X2471908Y-13166471D02*
X2500479Y-13166471D01*
X2500479Y-13166471D02*
X2519527Y-13175995D01*
X2519527Y-13175995D02*
X2529051Y-13195043D01*
X2529051Y-13195043D02*
X2529051Y-13299805D01*
X2529051Y-13195043D02*
X2538575Y-13175995D01*
X2538575Y-13175995D02*
X2557622Y-13166471D01*
X2557622Y-13166471D02*
X2586194Y-13166471D01*
X2586194Y-13166471D02*
X2605241Y-13175995D01*
X2605241Y-13175995D02*
X2614765Y-13195043D01*
X2614765Y-13195043D02*
X2614765Y-13299805D01*
X3005241Y-13090281D02*
X2833813Y-13347424D01*
X3262384Y-13099805D02*
X3281432Y-13099805D01*
X3281432Y-13099805D02*
X3300479Y-13109329D01*
X3300479Y-13109329D02*
X3310003Y-13118852D01*
X3310003Y-13118852D02*
X3319527Y-13137900D01*
X3319527Y-13137900D02*
X3329051Y-13175995D01*
X3329051Y-13175995D02*
X3329051Y-13223614D01*
X3329051Y-13223614D02*
X3319527Y-13261710D01*
X3319527Y-13261710D02*
X3310003Y-13280757D01*
X3310003Y-13280757D02*
X3300479Y-13290281D01*
X3300479Y-13290281D02*
X3281432Y-13299805D01*
X3281432Y-13299805D02*
X3262384Y-13299805D01*
X3262384Y-13299805D02*
X3243336Y-13290281D01*
X3243336Y-13290281D02*
X3233813Y-13280757D01*
X3233813Y-13280757D02*
X3224289Y-13261710D01*
X3224289Y-13261710D02*
X3214765Y-13223614D01*
X3214765Y-13223614D02*
X3214765Y-13175995D01*
X3214765Y-13175995D02*
X3224289Y-13137900D01*
X3224289Y-13137900D02*
X3233813Y-13118852D01*
X3233813Y-13118852D02*
X3243336Y-13109329D01*
X3243336Y-13109329D02*
X3262384Y-13099805D01*
X3414765Y-13280757D02*
X3424289Y-13290281D01*
X3424289Y-13290281D02*
X3414765Y-13299805D01*
X3414765Y-13299805D02*
X3405241Y-13290281D01*
X3405241Y-13290281D02*
X3414765Y-13280757D01*
X3414765Y-13280757D02*
X3414765Y-13299805D01*
X3614765Y-13299805D02*
X3500479Y-13299805D01*
X3557622Y-13299805D02*
X3557622Y-13099805D01*
X3557622Y-13099805D02*
X3538575Y-13128376D01*
X3538575Y-13128376D02*
X3519527Y-13147424D01*
X3519527Y-13147424D02*
X3500479Y-13156948D01*
X3805241Y-13299805D02*
X3690956Y-13299805D01*
X3748098Y-13299805D02*
X3748098Y-13099805D01*
X3748098Y-13099805D02*
X3729051Y-13128376D01*
X3729051Y-13128376D02*
X3710003Y-13147424D01*
X3710003Y-13147424D02*
X3690956Y-13156948D01*
X3919527Y-13185519D02*
X3900479Y-13175995D01*
X3900479Y-13175995D02*
X3890956Y-13166471D01*
X3890956Y-13166471D02*
X3881432Y-13147424D01*
X3881432Y-13147424D02*
X3881432Y-13137900D01*
X3881432Y-13137900D02*
X3890956Y-13118852D01*
X3890956Y-13118852D02*
X3900479Y-13109329D01*
X3900479Y-13109329D02*
X3919527Y-13099805D01*
X3919527Y-13099805D02*
X3957622Y-13099805D01*
X3957622Y-13099805D02*
X3976670Y-13109329D01*
X3976670Y-13109329D02*
X3986194Y-13118852D01*
X3986194Y-13118852D02*
X3995717Y-13137900D01*
X3995717Y-13137900D02*
X3995717Y-13147424D01*
X3995717Y-13147424D02*
X3986194Y-13166471D01*
X3986194Y-13166471D02*
X3976670Y-13175995D01*
X3976670Y-13175995D02*
X3957622Y-13185519D01*
X3957622Y-13185519D02*
X3919527Y-13185519D01*
X3919527Y-13185519D02*
X3900479Y-13195043D01*
X3900479Y-13195043D02*
X3890956Y-13204567D01*
X3890956Y-13204567D02*
X3881432Y-13223614D01*
X3881432Y-13223614D02*
X3881432Y-13261710D01*
X3881432Y-13261710D02*
X3890956Y-13280757D01*
X3890956Y-13280757D02*
X3900479Y-13290281D01*
X3900479Y-13290281D02*
X3919527Y-13299805D01*
X3919527Y-13299805D02*
X3957622Y-13299805D01*
X3957622Y-13299805D02*
X3976670Y-13290281D01*
X3976670Y-13290281D02*
X3986194Y-13280757D01*
X3986194Y-13280757D02*
X3995717Y-13261710D01*
X3995717Y-13261710D02*
X3995717Y-13223614D01*
X3995717Y-13223614D02*
X3986194Y-13204567D01*
X3986194Y-13204567D02*
X3976670Y-13195043D01*
X3976670Y-13195043D02*
X3957622Y-13185519D01*
X4186194Y-13299805D02*
X4071908Y-13299805D01*
X4129051Y-13299805D02*
X4129051Y-13099805D01*
X4129051Y-13099805D02*
X4110003Y-13128376D01*
X4110003Y-13128376D02*
X4090956Y-13147424D01*
X4090956Y-13147424D02*
X4071908Y-13156948D01*
X4262384Y-13099805D02*
X4262384Y-13137900D01*
X4338575Y-13099805D02*
X4338575Y-13137900D01*
X4633813Y-13375995D02*
X4624289Y-13366471D01*
X4624289Y-13366471D02*
X4605241Y-13337900D01*
X4605241Y-13337900D02*
X4595718Y-13318852D01*
X4595718Y-13318852D02*
X4586194Y-13290281D01*
X4586194Y-13290281D02*
X4576670Y-13242662D01*
X4576670Y-13242662D02*
X4576670Y-13204567D01*
X4576670Y-13204567D02*
X4586194Y-13156948D01*
X4586194Y-13156948D02*
X4595718Y-13128376D01*
X4595718Y-13128376D02*
X4605241Y-13109329D01*
X4605241Y-13109329D02*
X4624289Y-13080757D01*
X4624289Y-13080757D02*
X4633813Y-13071233D01*
X4738575Y-13185519D02*
X4719527Y-13175995D01*
X4719527Y-13175995D02*
X4710003Y-13166471D01*
X4710003Y-13166471D02*
X4700480Y-13147424D01*
X4700480Y-13147424D02*
X4700480Y-13137900D01*
X4700480Y-13137900D02*
X4710003Y-13118852D01*
X4710003Y-13118852D02*
X4719527Y-13109329D01*
X4719527Y-13109329D02*
X4738575Y-13099805D01*
X4738575Y-13099805D02*
X4776670Y-13099805D01*
X4776670Y-13099805D02*
X4795718Y-13109329D01*
X4795718Y-13109329D02*
X4805241Y-13118852D01*
X4805241Y-13118852D02*
X4814765Y-13137900D01*
X4814765Y-13137900D02*
X4814765Y-13147424D01*
X4814765Y-13147424D02*
X4805241Y-13166471D01*
X4805241Y-13166471D02*
X4795718Y-13175995D01*
X4795718Y-13175995D02*
X4776670Y-13185519D01*
X4776670Y-13185519D02*
X4738575Y-13185519D01*
X4738575Y-13185519D02*
X4719527Y-13195043D01*
X4719527Y-13195043D02*
X4710003Y-13204567D01*
X4710003Y-13204567D02*
X4700480Y-13223614D01*
X4700480Y-13223614D02*
X4700480Y-13261710D01*
X4700480Y-13261710D02*
X4710003Y-13280757D01*
X4710003Y-13280757D02*
X4719527Y-13290281D01*
X4719527Y-13290281D02*
X4738575Y-13299805D01*
X4738575Y-13299805D02*
X4776670Y-13299805D01*
X4776670Y-13299805D02*
X4795718Y-13290281D01*
X4795718Y-13290281D02*
X4805241Y-13280757D01*
X4805241Y-13280757D02*
X4814765Y-13261710D01*
X4814765Y-13261710D02*
X4814765Y-13223614D01*
X4814765Y-13223614D02*
X4805241Y-13204567D01*
X4805241Y-13204567D02*
X4795718Y-13195043D01*
X4795718Y-13195043D02*
X4776670Y-13185519D01*
X4986194Y-13166471D02*
X4986194Y-13299805D01*
X4938575Y-13090281D02*
X4890956Y-13233138D01*
X4890956Y-13233138D02*
X5014765Y-13233138D01*
X5243337Y-13299805D02*
X5243337Y-13099805D01*
X5329051Y-13299805D02*
X5329051Y-13195043D01*
X5329051Y-13195043D02*
X5319527Y-13175995D01*
X5319527Y-13175995D02*
X5300480Y-13166471D01*
X5300480Y-13166471D02*
X5271908Y-13166471D01*
X5271908Y-13166471D02*
X5252861Y-13175995D01*
X5252861Y-13175995D02*
X5243337Y-13185519D01*
X5452861Y-13299805D02*
X5433813Y-13290281D01*
X5433813Y-13290281D02*
X5424289Y-13280757D01*
X5424289Y-13280757D02*
X5414765Y-13261710D01*
X5414765Y-13261710D02*
X5414765Y-13204567D01*
X5414765Y-13204567D02*
X5424289Y-13185519D01*
X5424289Y-13185519D02*
X5433813Y-13175995D01*
X5433813Y-13175995D02*
X5452861Y-13166471D01*
X5452861Y-13166471D02*
X5481432Y-13166471D01*
X5481432Y-13166471D02*
X5500480Y-13175995D01*
X5500480Y-13175995D02*
X5510003Y-13185519D01*
X5510003Y-13185519D02*
X5519527Y-13204567D01*
X5519527Y-13204567D02*
X5519527Y-13261710D01*
X5519527Y-13261710D02*
X5510003Y-13280757D01*
X5510003Y-13280757D02*
X5500480Y-13290281D01*
X5500480Y-13290281D02*
X5481432Y-13299805D01*
X5481432Y-13299805D02*
X5452861Y-13299805D01*
X5633813Y-13299805D02*
X5614765Y-13290281D01*
X5614765Y-13290281D02*
X5605241Y-13271233D01*
X5605241Y-13271233D02*
X5605241Y-13099805D01*
X5786194Y-13290281D02*
X5767146Y-13299805D01*
X5767146Y-13299805D02*
X5729051Y-13299805D01*
X5729051Y-13299805D02*
X5710003Y-13290281D01*
X5710003Y-13290281D02*
X5700480Y-13271233D01*
X5700480Y-13271233D02*
X5700480Y-13195043D01*
X5700480Y-13195043D02*
X5710003Y-13175995D01*
X5710003Y-13175995D02*
X5729051Y-13166471D01*
X5729051Y-13166471D02*
X5767146Y-13166471D01*
X5767146Y-13166471D02*
X5786194Y-13175995D01*
X5786194Y-13175995D02*
X5795718Y-13195043D01*
X5795718Y-13195043D02*
X5795718Y-13214091D01*
X5795718Y-13214091D02*
X5700480Y-13233138D01*
X5871908Y-13290281D02*
X5890956Y-13299805D01*
X5890956Y-13299805D02*
X5929051Y-13299805D01*
X5929051Y-13299805D02*
X5948099Y-13290281D01*
X5948099Y-13290281D02*
X5957622Y-13271233D01*
X5957622Y-13271233D02*
X5957622Y-13261710D01*
X5957622Y-13261710D02*
X5948099Y-13242662D01*
X5948099Y-13242662D02*
X5929051Y-13233138D01*
X5929051Y-13233138D02*
X5900480Y-13233138D01*
X5900480Y-13233138D02*
X5881432Y-13223614D01*
X5881432Y-13223614D02*
X5871908Y-13204567D01*
X5871908Y-13204567D02*
X5871908Y-13195043D01*
X5871908Y-13195043D02*
X5881432Y-13175995D01*
X5881432Y-13175995D02*
X5900480Y-13166471D01*
X5900480Y-13166471D02*
X5929051Y-13166471D01*
X5929051Y-13166471D02*
X5948099Y-13175995D01*
X6024289Y-13375995D02*
X6033813Y-13366471D01*
X6033813Y-13366471D02*
X6052861Y-13337900D01*
X6052861Y-13337900D02*
X6062384Y-13318852D01*
X6062384Y-13318852D02*
X6071908Y-13290281D01*
X6071908Y-13290281D02*
X6081432Y-13242662D01*
X6081432Y-13242662D02*
X6081432Y-13204567D01*
X6081432Y-13204567D02*
X6071908Y-13156948D01*
X6071908Y-13156948D02*
X6062384Y-13128376D01*
X6062384Y-13128376D02*
X6052861Y-13109329D01*
X6052861Y-13109329D02*
X6033813Y-13080757D01*
X6033813Y-13080757D02*
X6024289Y-13071233D01*
X6386194Y-13375995D02*
X6376670Y-13366471D01*
X6376670Y-13366471D02*
X6357622Y-13337900D01*
X6357622Y-13337900D02*
X6348099Y-13318852D01*
X6348099Y-13318852D02*
X6338575Y-13290281D01*
X6338575Y-13290281D02*
X6329051Y-13242662D01*
X6329051Y-13242662D02*
X6329051Y-13204567D01*
X6329051Y-13204567D02*
X6338575Y-13156948D01*
X6338575Y-13156948D02*
X6348099Y-13128376D01*
X6348099Y-13128376D02*
X6357622Y-13109329D01*
X6357622Y-13109329D02*
X6376670Y-13080757D01*
X6376670Y-13080757D02*
X6386194Y-13071233D01*
X6462384Y-13166471D02*
X6462384Y-13299805D01*
X6462384Y-13185519D02*
X6471908Y-13175995D01*
X6471908Y-13175995D02*
X6490956Y-13166471D01*
X6490956Y-13166471D02*
X6519527Y-13166471D01*
X6519527Y-13166471D02*
X6538575Y-13175995D01*
X6538575Y-13175995D02*
X6548099Y-13195043D01*
X6548099Y-13195043D02*
X6548099Y-13299805D01*
X6671908Y-13299805D02*
X6652861Y-13290281D01*
X6652861Y-13290281D02*
X6643337Y-13280757D01*
X6643337Y-13280757D02*
X6633813Y-13261710D01*
X6633813Y-13261710D02*
X6633813Y-13204567D01*
X6633813Y-13204567D02*
X6643337Y-13185519D01*
X6643337Y-13185519D02*
X6652861Y-13175995D01*
X6652861Y-13175995D02*
X6671908Y-13166471D01*
X6671908Y-13166471D02*
X6700480Y-13166471D01*
X6700480Y-13166471D02*
X6719527Y-13175995D01*
X6719527Y-13175995D02*
X6729051Y-13185519D01*
X6729051Y-13185519D02*
X6738575Y-13204567D01*
X6738575Y-13204567D02*
X6738575Y-13261710D01*
X6738575Y-13261710D02*
X6729051Y-13280757D01*
X6729051Y-13280757D02*
X6719527Y-13290281D01*
X6719527Y-13290281D02*
X6700480Y-13299805D01*
X6700480Y-13299805D02*
X6671908Y-13299805D01*
X6795718Y-13166471D02*
X6871908Y-13166471D01*
X6824289Y-13099805D02*
X6824289Y-13271233D01*
X6824289Y-13271233D02*
X6833813Y-13290281D01*
X6833813Y-13290281D02*
X6852861Y-13299805D01*
X6852861Y-13299805D02*
X6871908Y-13299805D01*
X7090956Y-13166471D02*
X7090956Y-13366471D01*
X7090956Y-13175995D02*
X7110003Y-13166471D01*
X7110003Y-13166471D02*
X7148099Y-13166471D01*
X7148099Y-13166471D02*
X7167146Y-13175995D01*
X7167146Y-13175995D02*
X7176670Y-13185519D01*
X7176670Y-13185519D02*
X7186194Y-13204567D01*
X7186194Y-13204567D02*
X7186194Y-13261710D01*
X7186194Y-13261710D02*
X7176670Y-13280757D01*
X7176670Y-13280757D02*
X7167146Y-13290281D01*
X7167146Y-13290281D02*
X7148099Y-13299805D01*
X7148099Y-13299805D02*
X7110003Y-13299805D01*
X7110003Y-13299805D02*
X7090956Y-13290281D01*
X7300480Y-13299805D02*
X7281432Y-13290281D01*
X7281432Y-13290281D02*
X7271908Y-13271233D01*
X7271908Y-13271233D02*
X7271908Y-13099805D01*
X7462384Y-13299805D02*
X7462384Y-13195043D01*
X7462384Y-13195043D02*
X7452861Y-13175995D01*
X7452861Y-13175995D02*
X7433813Y-13166471D01*
X7433813Y-13166471D02*
X7395718Y-13166471D01*
X7395718Y-13166471D02*
X7376670Y-13175995D01*
X7462384Y-13290281D02*
X7443337Y-13299805D01*
X7443337Y-13299805D02*
X7395718Y-13299805D01*
X7395718Y-13299805D02*
X7376670Y-13290281D01*
X7376670Y-13290281D02*
X7367146Y-13271233D01*
X7367146Y-13271233D02*
X7367146Y-13252186D01*
X7367146Y-13252186D02*
X7376670Y-13233138D01*
X7376670Y-13233138D02*
X7395718Y-13223614D01*
X7395718Y-13223614D02*
X7443337Y-13223614D01*
X7443337Y-13223614D02*
X7462384Y-13214091D01*
X7529051Y-13166471D02*
X7605242Y-13166471D01*
X7557623Y-13099805D02*
X7557623Y-13271233D01*
X7557623Y-13271233D02*
X7567146Y-13290281D01*
X7567146Y-13290281D02*
X7586194Y-13299805D01*
X7586194Y-13299805D02*
X7605242Y-13299805D01*
X7748099Y-13290281D02*
X7729051Y-13299805D01*
X7729051Y-13299805D02*
X7690956Y-13299805D01*
X7690956Y-13299805D02*
X7671908Y-13290281D01*
X7671908Y-13290281D02*
X7662384Y-13271233D01*
X7662384Y-13271233D02*
X7662384Y-13195043D01*
X7662384Y-13195043D02*
X7671908Y-13175995D01*
X7671908Y-13175995D02*
X7690956Y-13166471D01*
X7690956Y-13166471D02*
X7729051Y-13166471D01*
X7729051Y-13166471D02*
X7748099Y-13175995D01*
X7748099Y-13175995D02*
X7757623Y-13195043D01*
X7757623Y-13195043D02*
X7757623Y-13214091D01*
X7757623Y-13214091D02*
X7662384Y-13233138D01*
X7929051Y-13299805D02*
X7929051Y-13099805D01*
X7929051Y-13290281D02*
X7910004Y-13299805D01*
X7910004Y-13299805D02*
X7871908Y-13299805D01*
X7871908Y-13299805D02*
X7852861Y-13290281D01*
X7852861Y-13290281D02*
X7843337Y-13280757D01*
X7843337Y-13280757D02*
X7833813Y-13261710D01*
X7833813Y-13261710D02*
X7833813Y-13204567D01*
X7833813Y-13204567D02*
X7843337Y-13185519D01*
X7843337Y-13185519D02*
X7852861Y-13175995D01*
X7852861Y-13175995D02*
X7871908Y-13166471D01*
X7871908Y-13166471D02*
X7910004Y-13166471D01*
X7910004Y-13166471D02*
X7929051Y-13175995D01*
X8005242Y-13375995D02*
X8014765Y-13366471D01*
X8014765Y-13366471D02*
X8033813Y-13337900D01*
X8033813Y-13337900D02*
X8043337Y-13318852D01*
X8043337Y-13318852D02*
X8052861Y-13290281D01*
X8052861Y-13290281D02*
X8062384Y-13242662D01*
X8062384Y-13242662D02*
X8062384Y-13204567D01*
X8062384Y-13204567D02*
X8052861Y-13156948D01*
X8052861Y-13156948D02*
X8043337Y-13128376D01*
X8043337Y-13128376D02*
X8033813Y-13109329D01*
X8033813Y-13109329D02*
X8014765Y-13080757D01*
X8014765Y-13080757D02*
X8005242Y-13071233D01*
X958750Y-13628321D02*
X1058750Y-13528321D01*
X958750Y-13428321D01*
X858750Y-13528321D01*
X958750Y-13628321D01*
X1405241Y-13486471D02*
X1405241Y-13619805D01*
X1357622Y-13410281D02*
X1310003Y-13553138D01*
X1310003Y-13553138D02*
X1433812Y-13553138D01*
X1510003Y-13600757D02*
X1519527Y-13610281D01*
X1519527Y-13610281D02*
X1510003Y-13619805D01*
X1510003Y-13619805D02*
X1500479Y-13610281D01*
X1500479Y-13610281D02*
X1510003Y-13600757D01*
X1510003Y-13600757D02*
X1510003Y-13619805D01*
X1710003Y-13619805D02*
X1595717Y-13619805D01*
X1652860Y-13619805D02*
X1652860Y-13419805D01*
X1652860Y-13419805D02*
X1633812Y-13448376D01*
X1633812Y-13448376D02*
X1614765Y-13467424D01*
X1614765Y-13467424D02*
X1595717Y-13476948D01*
X1833812Y-13419805D02*
X1852860Y-13419805D01*
X1852860Y-13419805D02*
X1871908Y-13429329D01*
X1871908Y-13429329D02*
X1881432Y-13438852D01*
X1881432Y-13438852D02*
X1890955Y-13457900D01*
X1890955Y-13457900D02*
X1900479Y-13495995D01*
X1900479Y-13495995D02*
X1900479Y-13543614D01*
X1900479Y-13543614D02*
X1890955Y-13581710D01*
X1890955Y-13581710D02*
X1881432Y-13600757D01*
X1881432Y-13600757D02*
X1871908Y-13610281D01*
X1871908Y-13610281D02*
X1852860Y-13619805D01*
X1852860Y-13619805D02*
X1833812Y-13619805D01*
X1833812Y-13619805D02*
X1814765Y-13610281D01*
X1814765Y-13610281D02*
X1805241Y-13600757D01*
X1805241Y-13600757D02*
X1795717Y-13581710D01*
X1795717Y-13581710D02*
X1786193Y-13543614D01*
X1786193Y-13543614D02*
X1786193Y-13495995D01*
X1786193Y-13495995D02*
X1795717Y-13457900D01*
X1795717Y-13457900D02*
X1805241Y-13438852D01*
X1805241Y-13438852D02*
X1814765Y-13429329D01*
X1814765Y-13429329D02*
X1833812Y-13419805D01*
X2024289Y-13419805D02*
X2043336Y-13419805D01*
X2043336Y-13419805D02*
X2062384Y-13429329D01*
X2062384Y-13429329D02*
X2071908Y-13438852D01*
X2071908Y-13438852D02*
X2081432Y-13457900D01*
X2081432Y-13457900D02*
X2090955Y-13495995D01*
X2090955Y-13495995D02*
X2090955Y-13543614D01*
X2090955Y-13543614D02*
X2081432Y-13581710D01*
X2081432Y-13581710D02*
X2071908Y-13600757D01*
X2071908Y-13600757D02*
X2062384Y-13610281D01*
X2062384Y-13610281D02*
X2043336Y-13619805D01*
X2043336Y-13619805D02*
X2024289Y-13619805D01*
X2024289Y-13619805D02*
X2005241Y-13610281D01*
X2005241Y-13610281D02*
X1995717Y-13600757D01*
X1995717Y-13600757D02*
X1986193Y-13581710D01*
X1986193Y-13581710D02*
X1976670Y-13543614D01*
X1976670Y-13543614D02*
X1976670Y-13495995D01*
X1976670Y-13495995D02*
X1986193Y-13457900D01*
X1986193Y-13457900D02*
X1995717Y-13438852D01*
X1995717Y-13438852D02*
X2005241Y-13429329D01*
X2005241Y-13429329D02*
X2024289Y-13419805D01*
X2176670Y-13619805D02*
X2176670Y-13486471D01*
X2176670Y-13505519D02*
X2186194Y-13495995D01*
X2186194Y-13495995D02*
X2205241Y-13486471D01*
X2205241Y-13486471D02*
X2233813Y-13486471D01*
X2233813Y-13486471D02*
X2252860Y-13495995D01*
X2252860Y-13495995D02*
X2262384Y-13515043D01*
X2262384Y-13515043D02*
X2262384Y-13619805D01*
X2262384Y-13515043D02*
X2271908Y-13495995D01*
X2271908Y-13495995D02*
X2290955Y-13486471D01*
X2290955Y-13486471D02*
X2319527Y-13486471D01*
X2319527Y-13486471D02*
X2338575Y-13495995D01*
X2338575Y-13495995D02*
X2348098Y-13515043D01*
X2348098Y-13515043D02*
X2348098Y-13619805D01*
X2443336Y-13619805D02*
X2443336Y-13486471D01*
X2443336Y-13505519D02*
X2452860Y-13495995D01*
X2452860Y-13495995D02*
X2471908Y-13486471D01*
X2471908Y-13486471D02*
X2500479Y-13486471D01*
X2500479Y-13486471D02*
X2519527Y-13495995D01*
X2519527Y-13495995D02*
X2529051Y-13515043D01*
X2529051Y-13515043D02*
X2529051Y-13619805D01*
X2529051Y-13515043D02*
X2538575Y-13495995D01*
X2538575Y-13495995D02*
X2557622Y-13486471D01*
X2557622Y-13486471D02*
X2586194Y-13486471D01*
X2586194Y-13486471D02*
X2605241Y-13495995D01*
X2605241Y-13495995D02*
X2614765Y-13515043D01*
X2614765Y-13515043D02*
X2614765Y-13619805D01*
X3005241Y-13410281D02*
X2833813Y-13667424D01*
X3262384Y-13419805D02*
X3281432Y-13419805D01*
X3281432Y-13419805D02*
X3300479Y-13429329D01*
X3300479Y-13429329D02*
X3310003Y-13438852D01*
X3310003Y-13438852D02*
X3319527Y-13457900D01*
X3319527Y-13457900D02*
X3329051Y-13495995D01*
X3329051Y-13495995D02*
X3329051Y-13543614D01*
X3329051Y-13543614D02*
X3319527Y-13581710D01*
X3319527Y-13581710D02*
X3310003Y-13600757D01*
X3310003Y-13600757D02*
X3300479Y-13610281D01*
X3300479Y-13610281D02*
X3281432Y-13619805D01*
X3281432Y-13619805D02*
X3262384Y-13619805D01*
X3262384Y-13619805D02*
X3243336Y-13610281D01*
X3243336Y-13610281D02*
X3233813Y-13600757D01*
X3233813Y-13600757D02*
X3224289Y-13581710D01*
X3224289Y-13581710D02*
X3214765Y-13543614D01*
X3214765Y-13543614D02*
X3214765Y-13495995D01*
X3214765Y-13495995D02*
X3224289Y-13457900D01*
X3224289Y-13457900D02*
X3233813Y-13438852D01*
X3233813Y-13438852D02*
X3243336Y-13429329D01*
X3243336Y-13429329D02*
X3262384Y-13419805D01*
X3414765Y-13600757D02*
X3424289Y-13610281D01*
X3424289Y-13610281D02*
X3414765Y-13619805D01*
X3414765Y-13619805D02*
X3405241Y-13610281D01*
X3405241Y-13610281D02*
X3414765Y-13600757D01*
X3414765Y-13600757D02*
X3414765Y-13619805D01*
X3614765Y-13619805D02*
X3500479Y-13619805D01*
X3557622Y-13619805D02*
X3557622Y-13419805D01*
X3557622Y-13419805D02*
X3538575Y-13448376D01*
X3538575Y-13448376D02*
X3519527Y-13467424D01*
X3519527Y-13467424D02*
X3500479Y-13476948D01*
X3786194Y-13419805D02*
X3748098Y-13419805D01*
X3748098Y-13419805D02*
X3729051Y-13429329D01*
X3729051Y-13429329D02*
X3719527Y-13438852D01*
X3719527Y-13438852D02*
X3700479Y-13467424D01*
X3700479Y-13467424D02*
X3690956Y-13505519D01*
X3690956Y-13505519D02*
X3690956Y-13581710D01*
X3690956Y-13581710D02*
X3700479Y-13600757D01*
X3700479Y-13600757D02*
X3710003Y-13610281D01*
X3710003Y-13610281D02*
X3729051Y-13619805D01*
X3729051Y-13619805D02*
X3767146Y-13619805D01*
X3767146Y-13619805D02*
X3786194Y-13610281D01*
X3786194Y-13610281D02*
X3795717Y-13600757D01*
X3795717Y-13600757D02*
X3805241Y-13581710D01*
X3805241Y-13581710D02*
X3805241Y-13534091D01*
X3805241Y-13534091D02*
X3795717Y-13515043D01*
X3795717Y-13515043D02*
X3786194Y-13505519D01*
X3786194Y-13505519D02*
X3767146Y-13495995D01*
X3767146Y-13495995D02*
X3729051Y-13495995D01*
X3729051Y-13495995D02*
X3710003Y-13505519D01*
X3710003Y-13505519D02*
X3700479Y-13515043D01*
X3700479Y-13515043D02*
X3690956Y-13534091D01*
X3995717Y-13619805D02*
X3881432Y-13619805D01*
X3938575Y-13619805D02*
X3938575Y-13419805D01*
X3938575Y-13419805D02*
X3919527Y-13448376D01*
X3919527Y-13448376D02*
X3900479Y-13467424D01*
X3900479Y-13467424D02*
X3881432Y-13476948D01*
X4167146Y-13486471D02*
X4167146Y-13619805D01*
X4119527Y-13410281D02*
X4071908Y-13553138D01*
X4071908Y-13553138D02*
X4195718Y-13553138D01*
X4262384Y-13419805D02*
X4262384Y-13457900D01*
X4338575Y-13419805D02*
X4338575Y-13457900D01*
X4633813Y-13695995D02*
X4624289Y-13686471D01*
X4624289Y-13686471D02*
X4605241Y-13657900D01*
X4605241Y-13657900D02*
X4595718Y-13638852D01*
X4595718Y-13638852D02*
X4586194Y-13610281D01*
X4586194Y-13610281D02*
X4576670Y-13562662D01*
X4576670Y-13562662D02*
X4576670Y-13524567D01*
X4576670Y-13524567D02*
X4586194Y-13476948D01*
X4586194Y-13476948D02*
X4595718Y-13448376D01*
X4595718Y-13448376D02*
X4605241Y-13429329D01*
X4605241Y-13429329D02*
X4624289Y-13400757D01*
X4624289Y-13400757D02*
X4633813Y-13391233D01*
X4795718Y-13486471D02*
X4795718Y-13619805D01*
X4748099Y-13410281D02*
X4700480Y-13553138D01*
X4700480Y-13553138D02*
X4824289Y-13553138D01*
X4890956Y-13438852D02*
X4900480Y-13429329D01*
X4900480Y-13429329D02*
X4919527Y-13419805D01*
X4919527Y-13419805D02*
X4967146Y-13419805D01*
X4967146Y-13419805D02*
X4986194Y-13429329D01*
X4986194Y-13429329D02*
X4995718Y-13438852D01*
X4995718Y-13438852D02*
X5005241Y-13457900D01*
X5005241Y-13457900D02*
X5005241Y-13476948D01*
X5005241Y-13476948D02*
X4995718Y-13505519D01*
X4995718Y-13505519D02*
X4881432Y-13619805D01*
X4881432Y-13619805D02*
X5005241Y-13619805D01*
X5243337Y-13619805D02*
X5243337Y-13419805D01*
X5329051Y-13619805D02*
X5329051Y-13515043D01*
X5329051Y-13515043D02*
X5319527Y-13495995D01*
X5319527Y-13495995D02*
X5300480Y-13486471D01*
X5300480Y-13486471D02*
X5271908Y-13486471D01*
X5271908Y-13486471D02*
X5252861Y-13495995D01*
X5252861Y-13495995D02*
X5243337Y-13505519D01*
X5452861Y-13619805D02*
X5433813Y-13610281D01*
X5433813Y-13610281D02*
X5424289Y-13600757D01*
X5424289Y-13600757D02*
X5414765Y-13581710D01*
X5414765Y-13581710D02*
X5414765Y-13524567D01*
X5414765Y-13524567D02*
X5424289Y-13505519D01*
X5424289Y-13505519D02*
X5433813Y-13495995D01*
X5433813Y-13495995D02*
X5452861Y-13486471D01*
X5452861Y-13486471D02*
X5481432Y-13486471D01*
X5481432Y-13486471D02*
X5500480Y-13495995D01*
X5500480Y-13495995D02*
X5510003Y-13505519D01*
X5510003Y-13505519D02*
X5519527Y-13524567D01*
X5519527Y-13524567D02*
X5519527Y-13581710D01*
X5519527Y-13581710D02*
X5510003Y-13600757D01*
X5510003Y-13600757D02*
X5500480Y-13610281D01*
X5500480Y-13610281D02*
X5481432Y-13619805D01*
X5481432Y-13619805D02*
X5452861Y-13619805D01*
X5633813Y-13619805D02*
X5614765Y-13610281D01*
X5614765Y-13610281D02*
X5605241Y-13591233D01*
X5605241Y-13591233D02*
X5605241Y-13419805D01*
X5786194Y-13610281D02*
X5767146Y-13619805D01*
X5767146Y-13619805D02*
X5729051Y-13619805D01*
X5729051Y-13619805D02*
X5710003Y-13610281D01*
X5710003Y-13610281D02*
X5700480Y-13591233D01*
X5700480Y-13591233D02*
X5700480Y-13515043D01*
X5700480Y-13515043D02*
X5710003Y-13495995D01*
X5710003Y-13495995D02*
X5729051Y-13486471D01*
X5729051Y-13486471D02*
X5767146Y-13486471D01*
X5767146Y-13486471D02*
X5786194Y-13495995D01*
X5786194Y-13495995D02*
X5795718Y-13515043D01*
X5795718Y-13515043D02*
X5795718Y-13534091D01*
X5795718Y-13534091D02*
X5700480Y-13553138D01*
X5871908Y-13610281D02*
X5890956Y-13619805D01*
X5890956Y-13619805D02*
X5929051Y-13619805D01*
X5929051Y-13619805D02*
X5948099Y-13610281D01*
X5948099Y-13610281D02*
X5957622Y-13591233D01*
X5957622Y-13591233D02*
X5957622Y-13581710D01*
X5957622Y-13581710D02*
X5948099Y-13562662D01*
X5948099Y-13562662D02*
X5929051Y-13553138D01*
X5929051Y-13553138D02*
X5900480Y-13553138D01*
X5900480Y-13553138D02*
X5881432Y-13543614D01*
X5881432Y-13543614D02*
X5871908Y-13524567D01*
X5871908Y-13524567D02*
X5871908Y-13515043D01*
X5871908Y-13515043D02*
X5881432Y-13495995D01*
X5881432Y-13495995D02*
X5900480Y-13486471D01*
X5900480Y-13486471D02*
X5929051Y-13486471D01*
X5929051Y-13486471D02*
X5948099Y-13495995D01*
X6024289Y-13695995D02*
X6033813Y-13686471D01*
X6033813Y-13686471D02*
X6052861Y-13657900D01*
X6052861Y-13657900D02*
X6062384Y-13638852D01*
X6062384Y-13638852D02*
X6071908Y-13610281D01*
X6071908Y-13610281D02*
X6081432Y-13562662D01*
X6081432Y-13562662D02*
X6081432Y-13524567D01*
X6081432Y-13524567D02*
X6071908Y-13476948D01*
X6071908Y-13476948D02*
X6062384Y-13448376D01*
X6062384Y-13448376D02*
X6052861Y-13429329D01*
X6052861Y-13429329D02*
X6033813Y-13400757D01*
X6033813Y-13400757D02*
X6024289Y-13391233D01*
X6386194Y-13695995D02*
X6376670Y-13686471D01*
X6376670Y-13686471D02*
X6357622Y-13657900D01*
X6357622Y-13657900D02*
X6348099Y-13638852D01*
X6348099Y-13638852D02*
X6338575Y-13610281D01*
X6338575Y-13610281D02*
X6329051Y-13562662D01*
X6329051Y-13562662D02*
X6329051Y-13524567D01*
X6329051Y-13524567D02*
X6338575Y-13476948D01*
X6338575Y-13476948D02*
X6348099Y-13448376D01*
X6348099Y-13448376D02*
X6357622Y-13429329D01*
X6357622Y-13429329D02*
X6376670Y-13400757D01*
X6376670Y-13400757D02*
X6386194Y-13391233D01*
X6462384Y-13486471D02*
X6462384Y-13619805D01*
X6462384Y-13505519D02*
X6471908Y-13495995D01*
X6471908Y-13495995D02*
X6490956Y-13486471D01*
X6490956Y-13486471D02*
X6519527Y-13486471D01*
X6519527Y-13486471D02*
X6538575Y-13495995D01*
X6538575Y-13495995D02*
X6548099Y-13515043D01*
X6548099Y-13515043D02*
X6548099Y-13619805D01*
X6671908Y-13619805D02*
X6652861Y-13610281D01*
X6652861Y-13610281D02*
X6643337Y-13600757D01*
X6643337Y-13600757D02*
X6633813Y-13581710D01*
X6633813Y-13581710D02*
X6633813Y-13524567D01*
X6633813Y-13524567D02*
X6643337Y-13505519D01*
X6643337Y-13505519D02*
X6652861Y-13495995D01*
X6652861Y-13495995D02*
X6671908Y-13486471D01*
X6671908Y-13486471D02*
X6700480Y-13486471D01*
X6700480Y-13486471D02*
X6719527Y-13495995D01*
X6719527Y-13495995D02*
X6729051Y-13505519D01*
X6729051Y-13505519D02*
X6738575Y-13524567D01*
X6738575Y-13524567D02*
X6738575Y-13581710D01*
X6738575Y-13581710D02*
X6729051Y-13600757D01*
X6729051Y-13600757D02*
X6719527Y-13610281D01*
X6719527Y-13610281D02*
X6700480Y-13619805D01*
X6700480Y-13619805D02*
X6671908Y-13619805D01*
X6795718Y-13486471D02*
X6871908Y-13486471D01*
X6824289Y-13419805D02*
X6824289Y-13591233D01*
X6824289Y-13591233D02*
X6833813Y-13610281D01*
X6833813Y-13610281D02*
X6852861Y-13619805D01*
X6852861Y-13619805D02*
X6871908Y-13619805D01*
X7090956Y-13486471D02*
X7090956Y-13686471D01*
X7090956Y-13495995D02*
X7110003Y-13486471D01*
X7110003Y-13486471D02*
X7148099Y-13486471D01*
X7148099Y-13486471D02*
X7167146Y-13495995D01*
X7167146Y-13495995D02*
X7176670Y-13505519D01*
X7176670Y-13505519D02*
X7186194Y-13524567D01*
X7186194Y-13524567D02*
X7186194Y-13581710D01*
X7186194Y-13581710D02*
X7176670Y-13600757D01*
X7176670Y-13600757D02*
X7167146Y-13610281D01*
X7167146Y-13610281D02*
X7148099Y-13619805D01*
X7148099Y-13619805D02*
X7110003Y-13619805D01*
X7110003Y-13619805D02*
X7090956Y-13610281D01*
X7300480Y-13619805D02*
X7281432Y-13610281D01*
X7281432Y-13610281D02*
X7271908Y-13591233D01*
X7271908Y-13591233D02*
X7271908Y-13419805D01*
X7462384Y-13619805D02*
X7462384Y-13515043D01*
X7462384Y-13515043D02*
X7452861Y-13495995D01*
X7452861Y-13495995D02*
X7433813Y-13486471D01*
X7433813Y-13486471D02*
X7395718Y-13486471D01*
X7395718Y-13486471D02*
X7376670Y-13495995D01*
X7462384Y-13610281D02*
X7443337Y-13619805D01*
X7443337Y-13619805D02*
X7395718Y-13619805D01*
X7395718Y-13619805D02*
X7376670Y-13610281D01*
X7376670Y-13610281D02*
X7367146Y-13591233D01*
X7367146Y-13591233D02*
X7367146Y-13572186D01*
X7367146Y-13572186D02*
X7376670Y-13553138D01*
X7376670Y-13553138D02*
X7395718Y-13543614D01*
X7395718Y-13543614D02*
X7443337Y-13543614D01*
X7443337Y-13543614D02*
X7462384Y-13534091D01*
X7529051Y-13486471D02*
X7605242Y-13486471D01*
X7557623Y-13419805D02*
X7557623Y-13591233D01*
X7557623Y-13591233D02*
X7567146Y-13610281D01*
X7567146Y-13610281D02*
X7586194Y-13619805D01*
X7586194Y-13619805D02*
X7605242Y-13619805D01*
X7748099Y-13610281D02*
X7729051Y-13619805D01*
X7729051Y-13619805D02*
X7690956Y-13619805D01*
X7690956Y-13619805D02*
X7671908Y-13610281D01*
X7671908Y-13610281D02*
X7662384Y-13591233D01*
X7662384Y-13591233D02*
X7662384Y-13515043D01*
X7662384Y-13515043D02*
X7671908Y-13495995D01*
X7671908Y-13495995D02*
X7690956Y-13486471D01*
X7690956Y-13486471D02*
X7729051Y-13486471D01*
X7729051Y-13486471D02*
X7748099Y-13495995D01*
X7748099Y-13495995D02*
X7757623Y-13515043D01*
X7757623Y-13515043D02*
X7757623Y-13534091D01*
X7757623Y-13534091D02*
X7662384Y-13553138D01*
X7929051Y-13619805D02*
X7929051Y-13419805D01*
X7929051Y-13610281D02*
X7910004Y-13619805D01*
X7910004Y-13619805D02*
X7871908Y-13619805D01*
X7871908Y-13619805D02*
X7852861Y-13610281D01*
X7852861Y-13610281D02*
X7843337Y-13600757D01*
X7843337Y-13600757D02*
X7833813Y-13581710D01*
X7833813Y-13581710D02*
X7833813Y-13524567D01*
X7833813Y-13524567D02*
X7843337Y-13505519D01*
X7843337Y-13505519D02*
X7852861Y-13495995D01*
X7852861Y-13495995D02*
X7871908Y-13486471D01*
X7871908Y-13486471D02*
X7910004Y-13486471D01*
X7910004Y-13486471D02*
X7929051Y-13495995D01*
X8005242Y-13695995D02*
X8014765Y-13686471D01*
X8014765Y-13686471D02*
X8033813Y-13657900D01*
X8033813Y-13657900D02*
X8043337Y-13638852D01*
X8043337Y-13638852D02*
X8052861Y-13610281D01*
X8052861Y-13610281D02*
X8062384Y-13562662D01*
X8062384Y-13562662D02*
X8062384Y-13524567D01*
X8062384Y-13524567D02*
X8052861Y-13476948D01*
X8052861Y-13476948D02*
X8043337Y-13448376D01*
X8043337Y-13448376D02*
X8033813Y-13429329D01*
X8033813Y-13429329D02*
X8014765Y-13400757D01*
X8014765Y-13400757D02*
X8005242Y-13391233D01*
X858750Y-13748321D02*
X1058750Y-13948321D01*
X1058750Y-13748321D02*
X858750Y-13948321D01*
X1058750Y-13848321D02*
G75*
G03*
X1058750Y-13848321I-100000J0D01*
G01*
X1405241Y-13806471D02*
X1405241Y-13939805D01*
X1357622Y-13730281D02*
X1310003Y-13873138D01*
X1310003Y-13873138D02*
X1433812Y-13873138D01*
X1510003Y-13920757D02*
X1519527Y-13930281D01*
X1519527Y-13930281D02*
X1510003Y-13939805D01*
X1510003Y-13939805D02*
X1500479Y-13930281D01*
X1500479Y-13930281D02*
X1510003Y-13920757D01*
X1510003Y-13920757D02*
X1510003Y-13939805D01*
X1586193Y-13739805D02*
X1710003Y-13739805D01*
X1710003Y-13739805D02*
X1643336Y-13815995D01*
X1643336Y-13815995D02*
X1671908Y-13815995D01*
X1671908Y-13815995D02*
X1690955Y-13825519D01*
X1690955Y-13825519D02*
X1700479Y-13835043D01*
X1700479Y-13835043D02*
X1710003Y-13854091D01*
X1710003Y-13854091D02*
X1710003Y-13901710D01*
X1710003Y-13901710D02*
X1700479Y-13920757D01*
X1700479Y-13920757D02*
X1690955Y-13930281D01*
X1690955Y-13930281D02*
X1671908Y-13939805D01*
X1671908Y-13939805D02*
X1614765Y-13939805D01*
X1614765Y-13939805D02*
X1595717Y-13930281D01*
X1595717Y-13930281D02*
X1586193Y-13920757D01*
X1833812Y-13739805D02*
X1852860Y-13739805D01*
X1852860Y-13739805D02*
X1871908Y-13749329D01*
X1871908Y-13749329D02*
X1881432Y-13758852D01*
X1881432Y-13758852D02*
X1890955Y-13777900D01*
X1890955Y-13777900D02*
X1900479Y-13815995D01*
X1900479Y-13815995D02*
X1900479Y-13863614D01*
X1900479Y-13863614D02*
X1890955Y-13901710D01*
X1890955Y-13901710D02*
X1881432Y-13920757D01*
X1881432Y-13920757D02*
X1871908Y-13930281D01*
X1871908Y-13930281D02*
X1852860Y-13939805D01*
X1852860Y-13939805D02*
X1833812Y-13939805D01*
X1833812Y-13939805D02*
X1814765Y-13930281D01*
X1814765Y-13930281D02*
X1805241Y-13920757D01*
X1805241Y-13920757D02*
X1795717Y-13901710D01*
X1795717Y-13901710D02*
X1786193Y-13863614D01*
X1786193Y-13863614D02*
X1786193Y-13815995D01*
X1786193Y-13815995D02*
X1795717Y-13777900D01*
X1795717Y-13777900D02*
X1805241Y-13758852D01*
X1805241Y-13758852D02*
X1814765Y-13749329D01*
X1814765Y-13749329D02*
X1833812Y-13739805D01*
X2024289Y-13739805D02*
X2043336Y-13739805D01*
X2043336Y-13739805D02*
X2062384Y-13749329D01*
X2062384Y-13749329D02*
X2071908Y-13758852D01*
X2071908Y-13758852D02*
X2081432Y-13777900D01*
X2081432Y-13777900D02*
X2090955Y-13815995D01*
X2090955Y-13815995D02*
X2090955Y-13863614D01*
X2090955Y-13863614D02*
X2081432Y-13901710D01*
X2081432Y-13901710D02*
X2071908Y-13920757D01*
X2071908Y-13920757D02*
X2062384Y-13930281D01*
X2062384Y-13930281D02*
X2043336Y-13939805D01*
X2043336Y-13939805D02*
X2024289Y-13939805D01*
X2024289Y-13939805D02*
X2005241Y-13930281D01*
X2005241Y-13930281D02*
X1995717Y-13920757D01*
X1995717Y-13920757D02*
X1986193Y-13901710D01*
X1986193Y-13901710D02*
X1976670Y-13863614D01*
X1976670Y-13863614D02*
X1976670Y-13815995D01*
X1976670Y-13815995D02*
X1986193Y-13777900D01*
X1986193Y-13777900D02*
X1995717Y-13758852D01*
X1995717Y-13758852D02*
X2005241Y-13749329D01*
X2005241Y-13749329D02*
X2024289Y-13739805D01*
X2176670Y-13939805D02*
X2176670Y-13806471D01*
X2176670Y-13825519D02*
X2186194Y-13815995D01*
X2186194Y-13815995D02*
X2205241Y-13806471D01*
X2205241Y-13806471D02*
X2233813Y-13806471D01*
X2233813Y-13806471D02*
X2252860Y-13815995D01*
X2252860Y-13815995D02*
X2262384Y-13835043D01*
X2262384Y-13835043D02*
X2262384Y-13939805D01*
X2262384Y-13835043D02*
X2271908Y-13815995D01*
X2271908Y-13815995D02*
X2290955Y-13806471D01*
X2290955Y-13806471D02*
X2319527Y-13806471D01*
X2319527Y-13806471D02*
X2338575Y-13815995D01*
X2338575Y-13815995D02*
X2348098Y-13835043D01*
X2348098Y-13835043D02*
X2348098Y-13939805D01*
X2443336Y-13939805D02*
X2443336Y-13806471D01*
X2443336Y-13825519D02*
X2452860Y-13815995D01*
X2452860Y-13815995D02*
X2471908Y-13806471D01*
X2471908Y-13806471D02*
X2500479Y-13806471D01*
X2500479Y-13806471D02*
X2519527Y-13815995D01*
X2519527Y-13815995D02*
X2529051Y-13835043D01*
X2529051Y-13835043D02*
X2529051Y-13939805D01*
X2529051Y-13835043D02*
X2538575Y-13815995D01*
X2538575Y-13815995D02*
X2557622Y-13806471D01*
X2557622Y-13806471D02*
X2586194Y-13806471D01*
X2586194Y-13806471D02*
X2605241Y-13815995D01*
X2605241Y-13815995D02*
X2614765Y-13835043D01*
X2614765Y-13835043D02*
X2614765Y-13939805D01*
X3005241Y-13730281D02*
X2833813Y-13987424D01*
X3262384Y-13739805D02*
X3281432Y-13739805D01*
X3281432Y-13739805D02*
X3300479Y-13749329D01*
X3300479Y-13749329D02*
X3310003Y-13758852D01*
X3310003Y-13758852D02*
X3319527Y-13777900D01*
X3319527Y-13777900D02*
X3329051Y-13815995D01*
X3329051Y-13815995D02*
X3329051Y-13863614D01*
X3329051Y-13863614D02*
X3319527Y-13901710D01*
X3319527Y-13901710D02*
X3310003Y-13920757D01*
X3310003Y-13920757D02*
X3300479Y-13930281D01*
X3300479Y-13930281D02*
X3281432Y-13939805D01*
X3281432Y-13939805D02*
X3262384Y-13939805D01*
X3262384Y-13939805D02*
X3243336Y-13930281D01*
X3243336Y-13930281D02*
X3233813Y-13920757D01*
X3233813Y-13920757D02*
X3224289Y-13901710D01*
X3224289Y-13901710D02*
X3214765Y-13863614D01*
X3214765Y-13863614D02*
X3214765Y-13815995D01*
X3214765Y-13815995D02*
X3224289Y-13777900D01*
X3224289Y-13777900D02*
X3233813Y-13758852D01*
X3233813Y-13758852D02*
X3243336Y-13749329D01*
X3243336Y-13749329D02*
X3262384Y-13739805D01*
X3414765Y-13920757D02*
X3424289Y-13930281D01*
X3424289Y-13930281D02*
X3414765Y-13939805D01*
X3414765Y-13939805D02*
X3405241Y-13930281D01*
X3405241Y-13930281D02*
X3414765Y-13920757D01*
X3414765Y-13920757D02*
X3414765Y-13939805D01*
X3614765Y-13939805D02*
X3500479Y-13939805D01*
X3557622Y-13939805D02*
X3557622Y-13739805D01*
X3557622Y-13739805D02*
X3538575Y-13768376D01*
X3538575Y-13768376D02*
X3519527Y-13787424D01*
X3519527Y-13787424D02*
X3500479Y-13796948D01*
X3786194Y-13739805D02*
X3748098Y-13739805D01*
X3748098Y-13739805D02*
X3729051Y-13749329D01*
X3729051Y-13749329D02*
X3719527Y-13758852D01*
X3719527Y-13758852D02*
X3700479Y-13787424D01*
X3700479Y-13787424D02*
X3690956Y-13825519D01*
X3690956Y-13825519D02*
X3690956Y-13901710D01*
X3690956Y-13901710D02*
X3700479Y-13920757D01*
X3700479Y-13920757D02*
X3710003Y-13930281D01*
X3710003Y-13930281D02*
X3729051Y-13939805D01*
X3729051Y-13939805D02*
X3767146Y-13939805D01*
X3767146Y-13939805D02*
X3786194Y-13930281D01*
X3786194Y-13930281D02*
X3795717Y-13920757D01*
X3795717Y-13920757D02*
X3805241Y-13901710D01*
X3805241Y-13901710D02*
X3805241Y-13854091D01*
X3805241Y-13854091D02*
X3795717Y-13835043D01*
X3795717Y-13835043D02*
X3786194Y-13825519D01*
X3786194Y-13825519D02*
X3767146Y-13815995D01*
X3767146Y-13815995D02*
X3729051Y-13815995D01*
X3729051Y-13815995D02*
X3710003Y-13825519D01*
X3710003Y-13825519D02*
X3700479Y-13835043D01*
X3700479Y-13835043D02*
X3690956Y-13854091D01*
X3900479Y-13939805D02*
X3938575Y-13939805D01*
X3938575Y-13939805D02*
X3957622Y-13930281D01*
X3957622Y-13930281D02*
X3967146Y-13920757D01*
X3967146Y-13920757D02*
X3986194Y-13892186D01*
X3986194Y-13892186D02*
X3995717Y-13854091D01*
X3995717Y-13854091D02*
X3995717Y-13777900D01*
X3995717Y-13777900D02*
X3986194Y-13758852D01*
X3986194Y-13758852D02*
X3976670Y-13749329D01*
X3976670Y-13749329D02*
X3957622Y-13739805D01*
X3957622Y-13739805D02*
X3919527Y-13739805D01*
X3919527Y-13739805D02*
X3900479Y-13749329D01*
X3900479Y-13749329D02*
X3890956Y-13758852D01*
X3890956Y-13758852D02*
X3881432Y-13777900D01*
X3881432Y-13777900D02*
X3881432Y-13825519D01*
X3881432Y-13825519D02*
X3890956Y-13844567D01*
X3890956Y-13844567D02*
X3900479Y-13854091D01*
X3900479Y-13854091D02*
X3919527Y-13863614D01*
X3919527Y-13863614D02*
X3957622Y-13863614D01*
X3957622Y-13863614D02*
X3976670Y-13854091D01*
X3976670Y-13854091D02*
X3986194Y-13844567D01*
X3986194Y-13844567D02*
X3995717Y-13825519D01*
X4062384Y-13739805D02*
X4186194Y-13739805D01*
X4186194Y-13739805D02*
X4119527Y-13815995D01*
X4119527Y-13815995D02*
X4148098Y-13815995D01*
X4148098Y-13815995D02*
X4167146Y-13825519D01*
X4167146Y-13825519D02*
X4176670Y-13835043D01*
X4176670Y-13835043D02*
X4186194Y-13854091D01*
X4186194Y-13854091D02*
X4186194Y-13901710D01*
X4186194Y-13901710D02*
X4176670Y-13920757D01*
X4176670Y-13920757D02*
X4167146Y-13930281D01*
X4167146Y-13930281D02*
X4148098Y-13939805D01*
X4148098Y-13939805D02*
X4090956Y-13939805D01*
X4090956Y-13939805D02*
X4071908Y-13930281D01*
X4071908Y-13930281D02*
X4062384Y-13920757D01*
X4262384Y-13739805D02*
X4262384Y-13777900D01*
X4338575Y-13739805D02*
X4338575Y-13777900D01*
X4633813Y-14015995D02*
X4624289Y-14006471D01*
X4624289Y-14006471D02*
X4605241Y-13977900D01*
X4605241Y-13977900D02*
X4595718Y-13958852D01*
X4595718Y-13958852D02*
X4586194Y-13930281D01*
X4586194Y-13930281D02*
X4576670Y-13882662D01*
X4576670Y-13882662D02*
X4576670Y-13844567D01*
X4576670Y-13844567D02*
X4586194Y-13796948D01*
X4586194Y-13796948D02*
X4595718Y-13768376D01*
X4595718Y-13768376D02*
X4605241Y-13749329D01*
X4605241Y-13749329D02*
X4624289Y-13720757D01*
X4624289Y-13720757D02*
X4633813Y-13711233D01*
X4814765Y-13939805D02*
X4700480Y-13939805D01*
X4757622Y-13939805D02*
X4757622Y-13739805D01*
X4757622Y-13739805D02*
X4738575Y-13768376D01*
X4738575Y-13768376D02*
X4719527Y-13787424D01*
X4719527Y-13787424D02*
X4700480Y-13796948D01*
X4938575Y-13739805D02*
X4957622Y-13739805D01*
X4957622Y-13739805D02*
X4976670Y-13749329D01*
X4976670Y-13749329D02*
X4986194Y-13758852D01*
X4986194Y-13758852D02*
X4995718Y-13777900D01*
X4995718Y-13777900D02*
X5005241Y-13815995D01*
X5005241Y-13815995D02*
X5005241Y-13863614D01*
X5005241Y-13863614D02*
X4995718Y-13901710D01*
X4995718Y-13901710D02*
X4986194Y-13920757D01*
X4986194Y-13920757D02*
X4976670Y-13930281D01*
X4976670Y-13930281D02*
X4957622Y-13939805D01*
X4957622Y-13939805D02*
X4938575Y-13939805D01*
X4938575Y-13939805D02*
X4919527Y-13930281D01*
X4919527Y-13930281D02*
X4910003Y-13920757D01*
X4910003Y-13920757D02*
X4900480Y-13901710D01*
X4900480Y-13901710D02*
X4890956Y-13863614D01*
X4890956Y-13863614D02*
X4890956Y-13815995D01*
X4890956Y-13815995D02*
X4900480Y-13777900D01*
X4900480Y-13777900D02*
X4910003Y-13758852D01*
X4910003Y-13758852D02*
X4919527Y-13749329D01*
X4919527Y-13749329D02*
X4938575Y-13739805D01*
X5243337Y-13939805D02*
X5243337Y-13739805D01*
X5329051Y-13939805D02*
X5329051Y-13835043D01*
X5329051Y-13835043D02*
X5319527Y-13815995D01*
X5319527Y-13815995D02*
X5300480Y-13806471D01*
X5300480Y-13806471D02*
X5271908Y-13806471D01*
X5271908Y-13806471D02*
X5252861Y-13815995D01*
X5252861Y-13815995D02*
X5243337Y-13825519D01*
X5452861Y-13939805D02*
X5433813Y-13930281D01*
X5433813Y-13930281D02*
X5424289Y-13920757D01*
X5424289Y-13920757D02*
X5414765Y-13901710D01*
X5414765Y-13901710D02*
X5414765Y-13844567D01*
X5414765Y-13844567D02*
X5424289Y-13825519D01*
X5424289Y-13825519D02*
X5433813Y-13815995D01*
X5433813Y-13815995D02*
X5452861Y-13806471D01*
X5452861Y-13806471D02*
X5481432Y-13806471D01*
X5481432Y-13806471D02*
X5500480Y-13815995D01*
X5500480Y-13815995D02*
X5510003Y-13825519D01*
X5510003Y-13825519D02*
X5519527Y-13844567D01*
X5519527Y-13844567D02*
X5519527Y-13901710D01*
X5519527Y-13901710D02*
X5510003Y-13920757D01*
X5510003Y-13920757D02*
X5500480Y-13930281D01*
X5500480Y-13930281D02*
X5481432Y-13939805D01*
X5481432Y-13939805D02*
X5452861Y-13939805D01*
X5633813Y-13939805D02*
X5614765Y-13930281D01*
X5614765Y-13930281D02*
X5605241Y-13911233D01*
X5605241Y-13911233D02*
X5605241Y-13739805D01*
X5786194Y-13930281D02*
X5767146Y-13939805D01*
X5767146Y-13939805D02*
X5729051Y-13939805D01*
X5729051Y-13939805D02*
X5710003Y-13930281D01*
X5710003Y-13930281D02*
X5700480Y-13911233D01*
X5700480Y-13911233D02*
X5700480Y-13835043D01*
X5700480Y-13835043D02*
X5710003Y-13815995D01*
X5710003Y-13815995D02*
X5729051Y-13806471D01*
X5729051Y-13806471D02*
X5767146Y-13806471D01*
X5767146Y-13806471D02*
X5786194Y-13815995D01*
X5786194Y-13815995D02*
X5795718Y-13835043D01*
X5795718Y-13835043D02*
X5795718Y-13854091D01*
X5795718Y-13854091D02*
X5700480Y-13873138D01*
X5871908Y-13930281D02*
X5890956Y-13939805D01*
X5890956Y-13939805D02*
X5929051Y-13939805D01*
X5929051Y-13939805D02*
X5948099Y-13930281D01*
X5948099Y-13930281D02*
X5957622Y-13911233D01*
X5957622Y-13911233D02*
X5957622Y-13901710D01*
X5957622Y-13901710D02*
X5948099Y-13882662D01*
X5948099Y-13882662D02*
X5929051Y-13873138D01*
X5929051Y-13873138D02*
X5900480Y-13873138D01*
X5900480Y-13873138D02*
X5881432Y-13863614D01*
X5881432Y-13863614D02*
X5871908Y-13844567D01*
X5871908Y-13844567D02*
X5871908Y-13835043D01*
X5871908Y-13835043D02*
X5881432Y-13815995D01*
X5881432Y-13815995D02*
X5900480Y-13806471D01*
X5900480Y-13806471D02*
X5929051Y-13806471D01*
X5929051Y-13806471D02*
X5948099Y-13815995D01*
X6024289Y-14015995D02*
X6033813Y-14006471D01*
X6033813Y-14006471D02*
X6052861Y-13977900D01*
X6052861Y-13977900D02*
X6062384Y-13958852D01*
X6062384Y-13958852D02*
X6071908Y-13930281D01*
X6071908Y-13930281D02*
X6081432Y-13882662D01*
X6081432Y-13882662D02*
X6081432Y-13844567D01*
X6081432Y-13844567D02*
X6071908Y-13796948D01*
X6071908Y-13796948D02*
X6062384Y-13768376D01*
X6062384Y-13768376D02*
X6052861Y-13749329D01*
X6052861Y-13749329D02*
X6033813Y-13720757D01*
X6033813Y-13720757D02*
X6024289Y-13711233D01*
X6386194Y-14015995D02*
X6376670Y-14006471D01*
X6376670Y-14006471D02*
X6357622Y-13977900D01*
X6357622Y-13977900D02*
X6348099Y-13958852D01*
X6348099Y-13958852D02*
X6338575Y-13930281D01*
X6338575Y-13930281D02*
X6329051Y-13882662D01*
X6329051Y-13882662D02*
X6329051Y-13844567D01*
X6329051Y-13844567D02*
X6338575Y-13796948D01*
X6338575Y-13796948D02*
X6348099Y-13768376D01*
X6348099Y-13768376D02*
X6357622Y-13749329D01*
X6357622Y-13749329D02*
X6376670Y-13720757D01*
X6376670Y-13720757D02*
X6386194Y-13711233D01*
X6462384Y-13806471D02*
X6462384Y-13939805D01*
X6462384Y-13825519D02*
X6471908Y-13815995D01*
X6471908Y-13815995D02*
X6490956Y-13806471D01*
X6490956Y-13806471D02*
X6519527Y-13806471D01*
X6519527Y-13806471D02*
X6538575Y-13815995D01*
X6538575Y-13815995D02*
X6548099Y-13835043D01*
X6548099Y-13835043D02*
X6548099Y-13939805D01*
X6671908Y-13939805D02*
X6652861Y-13930281D01*
X6652861Y-13930281D02*
X6643337Y-13920757D01*
X6643337Y-13920757D02*
X6633813Y-13901710D01*
X6633813Y-13901710D02*
X6633813Y-13844567D01*
X6633813Y-13844567D02*
X6643337Y-13825519D01*
X6643337Y-13825519D02*
X6652861Y-13815995D01*
X6652861Y-13815995D02*
X6671908Y-13806471D01*
X6671908Y-13806471D02*
X6700480Y-13806471D01*
X6700480Y-13806471D02*
X6719527Y-13815995D01*
X6719527Y-13815995D02*
X6729051Y-13825519D01*
X6729051Y-13825519D02*
X6738575Y-13844567D01*
X6738575Y-13844567D02*
X6738575Y-13901710D01*
X6738575Y-13901710D02*
X6729051Y-13920757D01*
X6729051Y-13920757D02*
X6719527Y-13930281D01*
X6719527Y-13930281D02*
X6700480Y-13939805D01*
X6700480Y-13939805D02*
X6671908Y-13939805D01*
X6795718Y-13806471D02*
X6871908Y-13806471D01*
X6824289Y-13739805D02*
X6824289Y-13911233D01*
X6824289Y-13911233D02*
X6833813Y-13930281D01*
X6833813Y-13930281D02*
X6852861Y-13939805D01*
X6852861Y-13939805D02*
X6871908Y-13939805D01*
X7090956Y-13806471D02*
X7090956Y-14006471D01*
X7090956Y-13815995D02*
X7110003Y-13806471D01*
X7110003Y-13806471D02*
X7148099Y-13806471D01*
X7148099Y-13806471D02*
X7167146Y-13815995D01*
X7167146Y-13815995D02*
X7176670Y-13825519D01*
X7176670Y-13825519D02*
X7186194Y-13844567D01*
X7186194Y-13844567D02*
X7186194Y-13901710D01*
X7186194Y-13901710D02*
X7176670Y-13920757D01*
X7176670Y-13920757D02*
X7167146Y-13930281D01*
X7167146Y-13930281D02*
X7148099Y-13939805D01*
X7148099Y-13939805D02*
X7110003Y-13939805D01*
X7110003Y-13939805D02*
X7090956Y-13930281D01*
X7300480Y-13939805D02*
X7281432Y-13930281D01*
X7281432Y-13930281D02*
X7271908Y-13911233D01*
X7271908Y-13911233D02*
X7271908Y-13739805D01*
X7462384Y-13939805D02*
X7462384Y-13835043D01*
X7462384Y-13835043D02*
X7452861Y-13815995D01*
X7452861Y-13815995D02*
X7433813Y-13806471D01*
X7433813Y-13806471D02*
X7395718Y-13806471D01*
X7395718Y-13806471D02*
X7376670Y-13815995D01*
X7462384Y-13930281D02*
X7443337Y-13939805D01*
X7443337Y-13939805D02*
X7395718Y-13939805D01*
X7395718Y-13939805D02*
X7376670Y-13930281D01*
X7376670Y-13930281D02*
X7367146Y-13911233D01*
X7367146Y-13911233D02*
X7367146Y-13892186D01*
X7367146Y-13892186D02*
X7376670Y-13873138D01*
X7376670Y-13873138D02*
X7395718Y-13863614D01*
X7395718Y-13863614D02*
X7443337Y-13863614D01*
X7443337Y-13863614D02*
X7462384Y-13854091D01*
X7529051Y-13806471D02*
X7605242Y-13806471D01*
X7557623Y-13739805D02*
X7557623Y-13911233D01*
X7557623Y-13911233D02*
X7567146Y-13930281D01*
X7567146Y-13930281D02*
X7586194Y-13939805D01*
X7586194Y-13939805D02*
X7605242Y-13939805D01*
X7748099Y-13930281D02*
X7729051Y-13939805D01*
X7729051Y-13939805D02*
X7690956Y-13939805D01*
X7690956Y-13939805D02*
X7671908Y-13930281D01*
X7671908Y-13930281D02*
X7662384Y-13911233D01*
X7662384Y-13911233D02*
X7662384Y-13835043D01*
X7662384Y-13835043D02*
X7671908Y-13815995D01*
X7671908Y-13815995D02*
X7690956Y-13806471D01*
X7690956Y-13806471D02*
X7729051Y-13806471D01*
X7729051Y-13806471D02*
X7748099Y-13815995D01*
X7748099Y-13815995D02*
X7757623Y-13835043D01*
X7757623Y-13835043D02*
X7757623Y-13854091D01*
X7757623Y-13854091D02*
X7662384Y-13873138D01*
X7929051Y-13939805D02*
X7929051Y-13739805D01*
X7929051Y-13930281D02*
X7910004Y-13939805D01*
X7910004Y-13939805D02*
X7871908Y-13939805D01*
X7871908Y-13939805D02*
X7852861Y-13930281D01*
X7852861Y-13930281D02*
X7843337Y-13920757D01*
X7843337Y-13920757D02*
X7833813Y-13901710D01*
X7833813Y-13901710D02*
X7833813Y-13844567D01*
X7833813Y-13844567D02*
X7843337Y-13825519D01*
X7843337Y-13825519D02*
X7852861Y-13815995D01*
X7852861Y-13815995D02*
X7871908Y-13806471D01*
X7871908Y-13806471D02*
X7910004Y-13806471D01*
X7910004Y-13806471D02*
X7929051Y-13815995D01*
X8005242Y-14015995D02*
X8014765Y-14006471D01*
X8014765Y-14006471D02*
X8033813Y-13977900D01*
X8033813Y-13977900D02*
X8043337Y-13958852D01*
X8043337Y-13958852D02*
X8052861Y-13930281D01*
X8052861Y-13930281D02*
X8062384Y-13882662D01*
X8062384Y-13882662D02*
X8062384Y-13844567D01*
X8062384Y-13844567D02*
X8052861Y-13796948D01*
X8052861Y-13796948D02*
X8043337Y-13768376D01*
X8043337Y-13768376D02*
X8033813Y-13749329D01*
X8033813Y-13749329D02*
X8014765Y-13720757D01*
X8014765Y-13720757D02*
X8005242Y-13711233D01*
M02*
