G04 #@! TF.GenerationSoftware,KiCad,Pcbnew,7.0.7*
G04 #@! TF.CreationDate,2023-09-12T00:09:30-04:00*
G04 #@! TF.ProjectId,corne-eclipse,636f726e-6973-4682-9d65-636c69707365,1*
G04 #@! TF.SameCoordinates,Original*
G04 #@! TF.FileFunction,Legend,Top*
G04 #@! TF.FilePolarity,Positive*
%FSLAX46Y46*%
G04 Gerber Fmt 4.6, Leading zero omitted, Abs format (unit mm)*
G04 Created by KiCad (PCBNEW 7.0.7) date 2023-09-12 00:09:30*
%MOMM*%
%LPD*%
G01*
G04 APERTURE LIST*
%ADD10C,0.150000*%
%ADD11C,0.125000*%
%ADD12C,0.100000*%
%ADD13C,0.120000*%
G04 APERTURE END LIST*
D10*
X223148159Y-80892009D02*
X222814826Y-80415818D01*
X222576731Y-80892009D02*
X222576731Y-79892009D01*
X222576731Y-79892009D02*
X222957683Y-79892009D01*
X222957683Y-79892009D02*
X223052921Y-79939628D01*
X223052921Y-79939628D02*
X223100540Y-79987247D01*
X223100540Y-79987247D02*
X223148159Y-80082485D01*
X223148159Y-80082485D02*
X223148159Y-80225342D01*
X223148159Y-80225342D02*
X223100540Y-80320580D01*
X223100540Y-80320580D02*
X223052921Y-80368199D01*
X223052921Y-80368199D02*
X222957683Y-80415818D01*
X222957683Y-80415818D02*
X222576731Y-80415818D01*
X223576731Y-80368199D02*
X223910064Y-80368199D01*
X224052921Y-80892009D02*
X223576731Y-80892009D01*
X223576731Y-80892009D02*
X223576731Y-79892009D01*
X223576731Y-79892009D02*
X224052921Y-79892009D01*
X224814826Y-80368199D02*
X224481493Y-80368199D01*
X224481493Y-80892009D02*
X224481493Y-79892009D01*
X224481493Y-79892009D02*
X224957683Y-79892009D01*
X225481493Y-79892009D02*
X225481493Y-80130104D01*
X225243398Y-80034866D02*
X225481493Y-80130104D01*
X225481493Y-80130104D02*
X225719588Y-80034866D01*
X225338636Y-80320580D02*
X225481493Y-80130104D01*
X225481493Y-80130104D02*
X225624350Y-80320580D01*
X226243398Y-79892009D02*
X226243398Y-80130104D01*
X226005303Y-80034866D02*
X226243398Y-80130104D01*
X226243398Y-80130104D02*
X226481493Y-80034866D01*
X226100541Y-80320580D02*
X226243398Y-80130104D01*
X226243398Y-80130104D02*
X226386255Y-80320580D01*
X70885875Y-95325366D02*
X70552542Y-94849175D01*
X70314447Y-95325366D02*
X70314447Y-94325366D01*
X70314447Y-94325366D02*
X70695399Y-94325366D01*
X70695399Y-94325366D02*
X70790637Y-94372985D01*
X70790637Y-94372985D02*
X70838256Y-94420604D01*
X70838256Y-94420604D02*
X70885875Y-94515842D01*
X70885875Y-94515842D02*
X70885875Y-94658699D01*
X70885875Y-94658699D02*
X70838256Y-94753937D01*
X70838256Y-94753937D02*
X70790637Y-94801556D01*
X70790637Y-94801556D02*
X70695399Y-94849175D01*
X70695399Y-94849175D02*
X70314447Y-94849175D01*
X71314447Y-94801556D02*
X71647780Y-94801556D01*
X71790637Y-95325366D02*
X71314447Y-95325366D01*
X71314447Y-95325366D02*
X71314447Y-94325366D01*
X71314447Y-94325366D02*
X71790637Y-94325366D01*
X72552542Y-94801556D02*
X72219209Y-94801556D01*
X72219209Y-95325366D02*
X72219209Y-94325366D01*
X72219209Y-94325366D02*
X72695399Y-94325366D01*
X73219209Y-94325366D02*
X73219209Y-94563461D01*
X72981114Y-94468223D02*
X73219209Y-94563461D01*
X73219209Y-94563461D02*
X73457304Y-94468223D01*
X73076352Y-94753937D02*
X73219209Y-94563461D01*
X73219209Y-94563461D02*
X73362066Y-94753937D01*
X73981114Y-94325366D02*
X73981114Y-94563461D01*
X73743019Y-94468223D02*
X73981114Y-94563461D01*
X73981114Y-94563461D02*
X74219209Y-94468223D01*
X73838257Y-94753937D02*
X73981114Y-94563461D01*
X73981114Y-94563461D02*
X74123971Y-94753937D01*
X131542453Y-60132363D02*
X131542453Y-60799030D01*
X131542453Y-60227601D02*
X131590072Y-60179982D01*
X131590072Y-60179982D02*
X131685310Y-60132363D01*
X131685310Y-60132363D02*
X131828167Y-60132363D01*
X131828167Y-60132363D02*
X131923405Y-60179982D01*
X131923405Y-60179982D02*
X131971024Y-60275220D01*
X131971024Y-60275220D02*
X131971024Y-60799030D01*
X132447215Y-60799030D02*
X132447215Y-60132363D01*
X132447215Y-59799030D02*
X132399596Y-59846649D01*
X132399596Y-59846649D02*
X132447215Y-59894268D01*
X132447215Y-59894268D02*
X132494834Y-59846649D01*
X132494834Y-59846649D02*
X132447215Y-59799030D01*
X132447215Y-59799030D02*
X132447215Y-59894268D01*
X133351976Y-60751411D02*
X133256738Y-60799030D01*
X133256738Y-60799030D02*
X133066262Y-60799030D01*
X133066262Y-60799030D02*
X132971024Y-60751411D01*
X132971024Y-60751411D02*
X132923405Y-60703791D01*
X132923405Y-60703791D02*
X132875786Y-60608553D01*
X132875786Y-60608553D02*
X132875786Y-60322839D01*
X132875786Y-60322839D02*
X132923405Y-60227601D01*
X132923405Y-60227601D02*
X132971024Y-60179982D01*
X132971024Y-60179982D02*
X133066262Y-60132363D01*
X133066262Y-60132363D02*
X133256738Y-60132363D01*
X133256738Y-60132363D02*
X133351976Y-60179982D01*
X134161500Y-60751411D02*
X134066262Y-60799030D01*
X134066262Y-60799030D02*
X133875786Y-60799030D01*
X133875786Y-60799030D02*
X133780548Y-60751411D01*
X133780548Y-60751411D02*
X133732929Y-60656172D01*
X133732929Y-60656172D02*
X133732929Y-60275220D01*
X133732929Y-60275220D02*
X133780548Y-60179982D01*
X133780548Y-60179982D02*
X133875786Y-60132363D01*
X133875786Y-60132363D02*
X134066262Y-60132363D01*
X134066262Y-60132363D02*
X134161500Y-60179982D01*
X134161500Y-60179982D02*
X134209119Y-60275220D01*
X134209119Y-60275220D02*
X134209119Y-60370458D01*
X134209119Y-60370458D02*
X133732929Y-60465696D01*
X134637691Y-60703791D02*
X134685310Y-60751411D01*
X134685310Y-60751411D02*
X134637691Y-60799030D01*
X134637691Y-60799030D02*
X134590072Y-60751411D01*
X134590072Y-60751411D02*
X134637691Y-60703791D01*
X134637691Y-60703791D02*
X134637691Y-60799030D01*
X134637691Y-60418077D02*
X134590072Y-59846649D01*
X134590072Y-59846649D02*
X134637691Y-59799030D01*
X134637691Y-59799030D02*
X134685310Y-59846649D01*
X134685310Y-59846649D02*
X134637691Y-60418077D01*
X134637691Y-60418077D02*
X134637691Y-59799030D01*
X135018643Y-60132363D02*
X135256738Y-60799030D01*
X135256738Y-60799030D02*
X135494833Y-60132363D01*
X135875786Y-60799030D02*
X135875786Y-60132363D01*
X135875786Y-59799030D02*
X135828167Y-59846649D01*
X135828167Y-59846649D02*
X135875786Y-59894268D01*
X135875786Y-59894268D02*
X135923405Y-59846649D01*
X135923405Y-59846649D02*
X135875786Y-59799030D01*
X135875786Y-59799030D02*
X135875786Y-59894268D01*
X136732928Y-60751411D02*
X136637690Y-60799030D01*
X136637690Y-60799030D02*
X136447214Y-60799030D01*
X136447214Y-60799030D02*
X136351976Y-60751411D01*
X136351976Y-60751411D02*
X136304357Y-60656172D01*
X136304357Y-60656172D02*
X136304357Y-60275220D01*
X136304357Y-60275220D02*
X136351976Y-60179982D01*
X136351976Y-60179982D02*
X136447214Y-60132363D01*
X136447214Y-60132363D02*
X136637690Y-60132363D01*
X136637690Y-60132363D02*
X136732928Y-60179982D01*
X136732928Y-60179982D02*
X136780547Y-60275220D01*
X136780547Y-60275220D02*
X136780547Y-60370458D01*
X136780547Y-60370458D02*
X136304357Y-60465696D01*
X137113881Y-60132363D02*
X137304357Y-60799030D01*
X137304357Y-60799030D02*
X137494833Y-60322839D01*
X137494833Y-60322839D02*
X137685309Y-60799030D01*
X137685309Y-60799030D02*
X137875785Y-60132363D01*
X159059380Y-60132363D02*
X159059380Y-60799030D01*
X159059380Y-60227601D02*
X159106999Y-60179982D01*
X159106999Y-60179982D02*
X159202237Y-60132363D01*
X159202237Y-60132363D02*
X159345094Y-60132363D01*
X159345094Y-60132363D02*
X159440332Y-60179982D01*
X159440332Y-60179982D02*
X159487951Y-60275220D01*
X159487951Y-60275220D02*
X159487951Y-60799030D01*
X159964142Y-60799030D02*
X159964142Y-60132363D01*
X159964142Y-59799030D02*
X159916523Y-59846649D01*
X159916523Y-59846649D02*
X159964142Y-59894268D01*
X159964142Y-59894268D02*
X160011761Y-59846649D01*
X160011761Y-59846649D02*
X159964142Y-59799030D01*
X159964142Y-59799030D02*
X159964142Y-59894268D01*
X160868903Y-60751411D02*
X160773665Y-60799030D01*
X160773665Y-60799030D02*
X160583189Y-60799030D01*
X160583189Y-60799030D02*
X160487951Y-60751411D01*
X160487951Y-60751411D02*
X160440332Y-60703791D01*
X160440332Y-60703791D02*
X160392713Y-60608553D01*
X160392713Y-60608553D02*
X160392713Y-60322839D01*
X160392713Y-60322839D02*
X160440332Y-60227601D01*
X160440332Y-60227601D02*
X160487951Y-60179982D01*
X160487951Y-60179982D02*
X160583189Y-60132363D01*
X160583189Y-60132363D02*
X160773665Y-60132363D01*
X160773665Y-60132363D02*
X160868903Y-60179982D01*
X161678427Y-60751411D02*
X161583189Y-60799030D01*
X161583189Y-60799030D02*
X161392713Y-60799030D01*
X161392713Y-60799030D02*
X161297475Y-60751411D01*
X161297475Y-60751411D02*
X161249856Y-60656172D01*
X161249856Y-60656172D02*
X161249856Y-60275220D01*
X161249856Y-60275220D02*
X161297475Y-60179982D01*
X161297475Y-60179982D02*
X161392713Y-60132363D01*
X161392713Y-60132363D02*
X161583189Y-60132363D01*
X161583189Y-60132363D02*
X161678427Y-60179982D01*
X161678427Y-60179982D02*
X161726046Y-60275220D01*
X161726046Y-60275220D02*
X161726046Y-60370458D01*
X161726046Y-60370458D02*
X161249856Y-60465696D01*
X162154618Y-60703791D02*
X162202237Y-60751411D01*
X162202237Y-60751411D02*
X162154618Y-60799030D01*
X162154618Y-60799030D02*
X162106999Y-60751411D01*
X162106999Y-60751411D02*
X162154618Y-60703791D01*
X162154618Y-60703791D02*
X162154618Y-60799030D01*
X162154618Y-60418077D02*
X162106999Y-59846649D01*
X162106999Y-59846649D02*
X162154618Y-59799030D01*
X162154618Y-59799030D02*
X162202237Y-59846649D01*
X162202237Y-59846649D02*
X162154618Y-60418077D01*
X162154618Y-60418077D02*
X162154618Y-59799030D01*
X162535570Y-60132363D02*
X162773665Y-60799030D01*
X162773665Y-60799030D02*
X163011760Y-60132363D01*
X163392713Y-60799030D02*
X163392713Y-60132363D01*
X163392713Y-59799030D02*
X163345094Y-59846649D01*
X163345094Y-59846649D02*
X163392713Y-59894268D01*
X163392713Y-59894268D02*
X163440332Y-59846649D01*
X163440332Y-59846649D02*
X163392713Y-59799030D01*
X163392713Y-59799030D02*
X163392713Y-59894268D01*
X164249855Y-60751411D02*
X164154617Y-60799030D01*
X164154617Y-60799030D02*
X163964141Y-60799030D01*
X163964141Y-60799030D02*
X163868903Y-60751411D01*
X163868903Y-60751411D02*
X163821284Y-60656172D01*
X163821284Y-60656172D02*
X163821284Y-60275220D01*
X163821284Y-60275220D02*
X163868903Y-60179982D01*
X163868903Y-60179982D02*
X163964141Y-60132363D01*
X163964141Y-60132363D02*
X164154617Y-60132363D01*
X164154617Y-60132363D02*
X164249855Y-60179982D01*
X164249855Y-60179982D02*
X164297474Y-60275220D01*
X164297474Y-60275220D02*
X164297474Y-60370458D01*
X164297474Y-60370458D02*
X163821284Y-60465696D01*
X164630808Y-60132363D02*
X164821284Y-60799030D01*
X164821284Y-60799030D02*
X165011760Y-60322839D01*
X165011760Y-60322839D02*
X165202236Y-60799030D01*
X165202236Y-60799030D02*
X165392712Y-60132363D01*
D11*
X139257024Y-38154389D02*
X139193214Y-38118675D01*
X139193214Y-38118675D02*
X139097500Y-38118675D01*
X139097500Y-38118675D02*
X139001786Y-38154389D01*
X139001786Y-38154389D02*
X138937976Y-38225818D01*
X138937976Y-38225818D02*
X138906071Y-38297246D01*
X138906071Y-38297246D02*
X138874167Y-38440103D01*
X138874167Y-38440103D02*
X138874167Y-38547246D01*
X138874167Y-38547246D02*
X138906071Y-38690103D01*
X138906071Y-38690103D02*
X138937976Y-38761532D01*
X138937976Y-38761532D02*
X139001786Y-38832961D01*
X139001786Y-38832961D02*
X139097500Y-38868675D01*
X139097500Y-38868675D02*
X139161309Y-38868675D01*
X139161309Y-38868675D02*
X139257024Y-38832961D01*
X139257024Y-38832961D02*
X139288928Y-38797246D01*
X139288928Y-38797246D02*
X139288928Y-38547246D01*
X139288928Y-38547246D02*
X139161309Y-38547246D01*
X139576071Y-38868675D02*
X139576071Y-38118675D01*
X139576071Y-38118675D02*
X139958928Y-38868675D01*
X139958928Y-38868675D02*
X139958928Y-38118675D01*
X140277976Y-38868675D02*
X140277976Y-38118675D01*
X140277976Y-38118675D02*
X140437500Y-38118675D01*
X140437500Y-38118675D02*
X140533214Y-38154389D01*
X140533214Y-38154389D02*
X140597024Y-38225818D01*
X140597024Y-38225818D02*
X140628929Y-38297246D01*
X140628929Y-38297246D02*
X140660833Y-38440103D01*
X140660833Y-38440103D02*
X140660833Y-38547246D01*
X140660833Y-38547246D02*
X140628929Y-38690103D01*
X140628929Y-38690103D02*
X140597024Y-38761532D01*
X140597024Y-38761532D02*
X140533214Y-38832961D01*
X140533214Y-38832961D02*
X140437500Y-38868675D01*
X140437500Y-38868675D02*
X140277976Y-38868675D01*
X137148928Y-33868675D02*
X137148928Y-33118675D01*
X137148928Y-33118675D02*
X137308452Y-33118675D01*
X137308452Y-33118675D02*
X137404166Y-33154389D01*
X137404166Y-33154389D02*
X137467976Y-33225818D01*
X137467976Y-33225818D02*
X137499881Y-33297246D01*
X137499881Y-33297246D02*
X137531785Y-33440103D01*
X137531785Y-33440103D02*
X137531785Y-33547246D01*
X137531785Y-33547246D02*
X137499881Y-33690103D01*
X137499881Y-33690103D02*
X137467976Y-33761532D01*
X137467976Y-33761532D02*
X137404166Y-33832961D01*
X137404166Y-33832961D02*
X137308452Y-33868675D01*
X137308452Y-33868675D02*
X137148928Y-33868675D01*
X137787024Y-33190103D02*
X137818928Y-33154389D01*
X137818928Y-33154389D02*
X137882738Y-33118675D01*
X137882738Y-33118675D02*
X138042262Y-33118675D01*
X138042262Y-33118675D02*
X138106071Y-33154389D01*
X138106071Y-33154389D02*
X138137976Y-33190103D01*
X138137976Y-33190103D02*
X138169881Y-33261532D01*
X138169881Y-33261532D02*
X138169881Y-33332961D01*
X138169881Y-33332961D02*
X138137976Y-33440103D01*
X138137976Y-33440103D02*
X137755119Y-33868675D01*
X137755119Y-33868675D02*
X138169881Y-33868675D01*
X138935595Y-33082961D02*
X138361309Y-34047246D01*
X139541785Y-33868675D02*
X139318452Y-33511532D01*
X139158928Y-33868675D02*
X139158928Y-33118675D01*
X139158928Y-33118675D02*
X139414166Y-33118675D01*
X139414166Y-33118675D02*
X139477976Y-33154389D01*
X139477976Y-33154389D02*
X139509881Y-33190103D01*
X139509881Y-33190103D02*
X139541785Y-33261532D01*
X139541785Y-33261532D02*
X139541785Y-33368675D01*
X139541785Y-33368675D02*
X139509881Y-33440103D01*
X139509881Y-33440103D02*
X139477976Y-33475818D01*
X139477976Y-33475818D02*
X139414166Y-33511532D01*
X139414166Y-33511532D02*
X139158928Y-33511532D01*
X139765119Y-33118675D02*
X140211785Y-33868675D01*
X140211785Y-33118675D02*
X139765119Y-33868675D01*
X140817976Y-33868675D02*
X140435119Y-33868675D01*
X140626547Y-33868675D02*
X140626547Y-33118675D01*
X140626547Y-33118675D02*
X140562738Y-33225818D01*
X140562738Y-33225818D02*
X140498928Y-33297246D01*
X140498928Y-33297246D02*
X140435119Y-33332961D01*
X138735833Y-48847246D02*
X138703929Y-48882961D01*
X138703929Y-48882961D02*
X138608214Y-48918675D01*
X138608214Y-48918675D02*
X138544405Y-48918675D01*
X138544405Y-48918675D02*
X138448691Y-48882961D01*
X138448691Y-48882961D02*
X138384881Y-48811532D01*
X138384881Y-48811532D02*
X138352976Y-48740103D01*
X138352976Y-48740103D02*
X138321072Y-48597246D01*
X138321072Y-48597246D02*
X138321072Y-48490103D01*
X138321072Y-48490103D02*
X138352976Y-48347246D01*
X138352976Y-48347246D02*
X138384881Y-48275818D01*
X138384881Y-48275818D02*
X138448691Y-48204389D01*
X138448691Y-48204389D02*
X138544405Y-48168675D01*
X138544405Y-48168675D02*
X138608214Y-48168675D01*
X138608214Y-48168675D02*
X138703929Y-48204389D01*
X138703929Y-48204389D02*
X138735833Y-48240103D01*
X139310119Y-48168675D02*
X139182500Y-48168675D01*
X139182500Y-48168675D02*
X139118691Y-48204389D01*
X139118691Y-48204389D02*
X139086786Y-48240103D01*
X139086786Y-48240103D02*
X139022976Y-48347246D01*
X139022976Y-48347246D02*
X138991072Y-48490103D01*
X138991072Y-48490103D02*
X138991072Y-48775818D01*
X138991072Y-48775818D02*
X139022976Y-48847246D01*
X139022976Y-48847246D02*
X139054881Y-48882961D01*
X139054881Y-48882961D02*
X139118691Y-48918675D01*
X139118691Y-48918675D02*
X139246310Y-48918675D01*
X139246310Y-48918675D02*
X139310119Y-48882961D01*
X139310119Y-48882961D02*
X139342024Y-48847246D01*
X139342024Y-48847246D02*
X139373929Y-48775818D01*
X139373929Y-48775818D02*
X139373929Y-48597246D01*
X139373929Y-48597246D02*
X139342024Y-48525818D01*
X139342024Y-48525818D02*
X139310119Y-48490103D01*
X139310119Y-48490103D02*
X139246310Y-48454389D01*
X139246310Y-48454389D02*
X139118691Y-48454389D01*
X139118691Y-48454389D02*
X139054881Y-48490103D01*
X139054881Y-48490103D02*
X139022976Y-48525818D01*
X139022976Y-48525818D02*
X138991072Y-48597246D01*
X140139643Y-48132961D02*
X139565357Y-49097246D01*
X140682024Y-48168675D02*
X140362976Y-48168675D01*
X140362976Y-48168675D02*
X140331072Y-48525818D01*
X140331072Y-48525818D02*
X140362976Y-48490103D01*
X140362976Y-48490103D02*
X140426786Y-48454389D01*
X140426786Y-48454389D02*
X140586310Y-48454389D01*
X140586310Y-48454389D02*
X140650119Y-48490103D01*
X140650119Y-48490103D02*
X140682024Y-48525818D01*
X140682024Y-48525818D02*
X140713929Y-48597246D01*
X140713929Y-48597246D02*
X140713929Y-48775818D01*
X140713929Y-48775818D02*
X140682024Y-48847246D01*
X140682024Y-48847246D02*
X140650119Y-48882961D01*
X140650119Y-48882961D02*
X140586310Y-48918675D01*
X140586310Y-48918675D02*
X140426786Y-48918675D01*
X140426786Y-48918675D02*
X140362976Y-48882961D01*
X140362976Y-48882961D02*
X140331072Y-48847246D01*
X129284881Y-54168675D02*
X128902024Y-54168675D01*
X129093452Y-54168675D02*
X129093452Y-53418675D01*
X129093452Y-53418675D02*
X129029643Y-53525818D01*
X129029643Y-53525818D02*
X128965833Y-53597246D01*
X128965833Y-53597246D02*
X128902024Y-53632961D01*
X129859166Y-53668675D02*
X129859166Y-54168675D01*
X129699642Y-53382961D02*
X129540119Y-53918675D01*
X129540119Y-53918675D02*
X129954880Y-53918675D01*
X130688690Y-53382961D02*
X130114404Y-54347246D01*
X131135357Y-53775818D02*
X131231071Y-53811532D01*
X131231071Y-53811532D02*
X131262976Y-53847246D01*
X131262976Y-53847246D02*
X131294880Y-53918675D01*
X131294880Y-53918675D02*
X131294880Y-54025818D01*
X131294880Y-54025818D02*
X131262976Y-54097246D01*
X131262976Y-54097246D02*
X131231071Y-54132961D01*
X131231071Y-54132961D02*
X131167261Y-54168675D01*
X131167261Y-54168675D02*
X130912023Y-54168675D01*
X130912023Y-54168675D02*
X130912023Y-53418675D01*
X130912023Y-53418675D02*
X131135357Y-53418675D01*
X131135357Y-53418675D02*
X131199166Y-53454389D01*
X131199166Y-53454389D02*
X131231071Y-53490103D01*
X131231071Y-53490103D02*
X131262976Y-53561532D01*
X131262976Y-53561532D02*
X131262976Y-53632961D01*
X131262976Y-53632961D02*
X131231071Y-53704389D01*
X131231071Y-53704389D02*
X131199166Y-53740103D01*
X131199166Y-53740103D02*
X131135357Y-53775818D01*
X131135357Y-53775818D02*
X130912023Y-53775818D01*
X131518214Y-53418675D02*
X131932976Y-53418675D01*
X131932976Y-53418675D02*
X131709642Y-53704389D01*
X131709642Y-53704389D02*
X131805357Y-53704389D01*
X131805357Y-53704389D02*
X131869166Y-53740103D01*
X131869166Y-53740103D02*
X131901071Y-53775818D01*
X131901071Y-53775818D02*
X131932976Y-53847246D01*
X131932976Y-53847246D02*
X131932976Y-54025818D01*
X131932976Y-54025818D02*
X131901071Y-54097246D01*
X131901071Y-54097246D02*
X131869166Y-54132961D01*
X131869166Y-54132961D02*
X131805357Y-54168675D01*
X131805357Y-54168675D02*
X131613928Y-54168675D01*
X131613928Y-54168675D02*
X131550119Y-54132961D01*
X131550119Y-54132961D02*
X131518214Y-54097246D01*
X129284881Y-56718675D02*
X128902024Y-56718675D01*
X129093452Y-56718675D02*
X129093452Y-55968675D01*
X129093452Y-55968675D02*
X129029643Y-56075818D01*
X129029643Y-56075818D02*
X128965833Y-56147246D01*
X128965833Y-56147246D02*
X128902024Y-56182961D01*
X129859166Y-55968675D02*
X129731547Y-55968675D01*
X129731547Y-55968675D02*
X129667738Y-56004389D01*
X129667738Y-56004389D02*
X129635833Y-56040103D01*
X129635833Y-56040103D02*
X129572023Y-56147246D01*
X129572023Y-56147246D02*
X129540119Y-56290103D01*
X129540119Y-56290103D02*
X129540119Y-56575818D01*
X129540119Y-56575818D02*
X129572023Y-56647246D01*
X129572023Y-56647246D02*
X129603928Y-56682961D01*
X129603928Y-56682961D02*
X129667738Y-56718675D01*
X129667738Y-56718675D02*
X129795357Y-56718675D01*
X129795357Y-56718675D02*
X129859166Y-56682961D01*
X129859166Y-56682961D02*
X129891071Y-56647246D01*
X129891071Y-56647246D02*
X129922976Y-56575818D01*
X129922976Y-56575818D02*
X129922976Y-56397246D01*
X129922976Y-56397246D02*
X129891071Y-56325818D01*
X129891071Y-56325818D02*
X129859166Y-56290103D01*
X129859166Y-56290103D02*
X129795357Y-56254389D01*
X129795357Y-56254389D02*
X129667738Y-56254389D01*
X129667738Y-56254389D02*
X129603928Y-56290103D01*
X129603928Y-56290103D02*
X129572023Y-56325818D01*
X129572023Y-56325818D02*
X129540119Y-56397246D01*
X130688690Y-55932961D02*
X130114404Y-56897246D01*
X131135357Y-56325818D02*
X131231071Y-56361532D01*
X131231071Y-56361532D02*
X131262976Y-56397246D01*
X131262976Y-56397246D02*
X131294880Y-56468675D01*
X131294880Y-56468675D02*
X131294880Y-56575818D01*
X131294880Y-56575818D02*
X131262976Y-56647246D01*
X131262976Y-56647246D02*
X131231071Y-56682961D01*
X131231071Y-56682961D02*
X131167261Y-56718675D01*
X131167261Y-56718675D02*
X130912023Y-56718675D01*
X130912023Y-56718675D02*
X130912023Y-55968675D01*
X130912023Y-55968675D02*
X131135357Y-55968675D01*
X131135357Y-55968675D02*
X131199166Y-56004389D01*
X131199166Y-56004389D02*
X131231071Y-56040103D01*
X131231071Y-56040103D02*
X131262976Y-56111532D01*
X131262976Y-56111532D02*
X131262976Y-56182961D01*
X131262976Y-56182961D02*
X131231071Y-56254389D01*
X131231071Y-56254389D02*
X131199166Y-56290103D01*
X131199166Y-56290103D02*
X131135357Y-56325818D01*
X131135357Y-56325818D02*
X130912023Y-56325818D01*
X131550119Y-56040103D02*
X131582023Y-56004389D01*
X131582023Y-56004389D02*
X131645833Y-55968675D01*
X131645833Y-55968675D02*
X131805357Y-55968675D01*
X131805357Y-55968675D02*
X131869166Y-56004389D01*
X131869166Y-56004389D02*
X131901071Y-56040103D01*
X131901071Y-56040103D02*
X131932976Y-56111532D01*
X131932976Y-56111532D02*
X131932976Y-56182961D01*
X131932976Y-56182961D02*
X131901071Y-56290103D01*
X131901071Y-56290103D02*
X131518214Y-56718675D01*
X131518214Y-56718675D02*
X131932976Y-56718675D01*
X137228690Y-31318675D02*
X137228690Y-30568675D01*
X137228690Y-30568675D02*
X137388214Y-30568675D01*
X137388214Y-30568675D02*
X137483928Y-30604389D01*
X137483928Y-30604389D02*
X137547738Y-30675818D01*
X137547738Y-30675818D02*
X137579643Y-30747246D01*
X137579643Y-30747246D02*
X137611547Y-30890103D01*
X137611547Y-30890103D02*
X137611547Y-30997246D01*
X137611547Y-30997246D02*
X137579643Y-31140103D01*
X137579643Y-31140103D02*
X137547738Y-31211532D01*
X137547738Y-31211532D02*
X137483928Y-31282961D01*
X137483928Y-31282961D02*
X137388214Y-31318675D01*
X137388214Y-31318675D02*
X137228690Y-31318675D01*
X137834881Y-30568675D02*
X138249643Y-30568675D01*
X138249643Y-30568675D02*
X138026309Y-30854389D01*
X138026309Y-30854389D02*
X138122024Y-30854389D01*
X138122024Y-30854389D02*
X138185833Y-30890103D01*
X138185833Y-30890103D02*
X138217738Y-30925818D01*
X138217738Y-30925818D02*
X138249643Y-30997246D01*
X138249643Y-30997246D02*
X138249643Y-31175818D01*
X138249643Y-31175818D02*
X138217738Y-31247246D01*
X138217738Y-31247246D02*
X138185833Y-31282961D01*
X138185833Y-31282961D02*
X138122024Y-31318675D01*
X138122024Y-31318675D02*
X137930595Y-31318675D01*
X137930595Y-31318675D02*
X137866786Y-31282961D01*
X137866786Y-31282961D02*
X137834881Y-31247246D01*
X139015357Y-30532961D02*
X138441071Y-31497246D01*
X139142976Y-30568675D02*
X139525833Y-30568675D01*
X139334405Y-31318675D02*
X139334405Y-30568675D01*
X139685357Y-30568675D02*
X140132023Y-31318675D01*
X140132023Y-30568675D02*
X139685357Y-31318675D01*
X140514880Y-30568675D02*
X140578690Y-30568675D01*
X140578690Y-30568675D02*
X140642499Y-30604389D01*
X140642499Y-30604389D02*
X140674404Y-30640103D01*
X140674404Y-30640103D02*
X140706309Y-30711532D01*
X140706309Y-30711532D02*
X140738214Y-30854389D01*
X140738214Y-30854389D02*
X140738214Y-31032961D01*
X140738214Y-31032961D02*
X140706309Y-31175818D01*
X140706309Y-31175818D02*
X140674404Y-31247246D01*
X140674404Y-31247246D02*
X140642499Y-31282961D01*
X140642499Y-31282961D02*
X140578690Y-31318675D01*
X140578690Y-31318675D02*
X140514880Y-31318675D01*
X140514880Y-31318675D02*
X140451071Y-31282961D01*
X140451071Y-31282961D02*
X140419166Y-31247246D01*
X140419166Y-31247246D02*
X140387261Y-31175818D01*
X140387261Y-31175818D02*
X140355357Y-31032961D01*
X140355357Y-31032961D02*
X140355357Y-30854389D01*
X140355357Y-30854389D02*
X140387261Y-30711532D01*
X140387261Y-30711532D02*
X140419166Y-30640103D01*
X140419166Y-30640103D02*
X140451071Y-30604389D01*
X140451071Y-30604389D02*
X140514880Y-30568675D01*
X133917023Y-26068675D02*
X133917023Y-26675818D01*
X133917023Y-26675818D02*
X133948928Y-26747246D01*
X133948928Y-26747246D02*
X133980833Y-26782961D01*
X133980833Y-26782961D02*
X134044642Y-26818675D01*
X134044642Y-26818675D02*
X134172261Y-26818675D01*
X134172261Y-26818675D02*
X134236071Y-26782961D01*
X134236071Y-26782961D02*
X134267976Y-26747246D01*
X134267976Y-26747246D02*
X134299880Y-26675818D01*
X134299880Y-26675818D02*
X134299880Y-26068675D01*
X134587024Y-26782961D02*
X134682738Y-26818675D01*
X134682738Y-26818675D02*
X134842262Y-26818675D01*
X134842262Y-26818675D02*
X134906071Y-26782961D01*
X134906071Y-26782961D02*
X134937976Y-26747246D01*
X134937976Y-26747246D02*
X134969881Y-26675818D01*
X134969881Y-26675818D02*
X134969881Y-26604389D01*
X134969881Y-26604389D02*
X134937976Y-26532961D01*
X134937976Y-26532961D02*
X134906071Y-26497246D01*
X134906071Y-26497246D02*
X134842262Y-26461532D01*
X134842262Y-26461532D02*
X134714643Y-26425818D01*
X134714643Y-26425818D02*
X134650833Y-26390103D01*
X134650833Y-26390103D02*
X134618928Y-26354389D01*
X134618928Y-26354389D02*
X134587024Y-26282961D01*
X134587024Y-26282961D02*
X134587024Y-26211532D01*
X134587024Y-26211532D02*
X134618928Y-26140103D01*
X134618928Y-26140103D02*
X134650833Y-26104389D01*
X134650833Y-26104389D02*
X134714643Y-26068675D01*
X134714643Y-26068675D02*
X134874166Y-26068675D01*
X134874166Y-26068675D02*
X134969881Y-26104389D01*
X135480357Y-26425818D02*
X135576071Y-26461532D01*
X135576071Y-26461532D02*
X135607976Y-26497246D01*
X135607976Y-26497246D02*
X135639880Y-26568675D01*
X135639880Y-26568675D02*
X135639880Y-26675818D01*
X135639880Y-26675818D02*
X135607976Y-26747246D01*
X135607976Y-26747246D02*
X135576071Y-26782961D01*
X135576071Y-26782961D02*
X135512261Y-26818675D01*
X135512261Y-26818675D02*
X135257023Y-26818675D01*
X135257023Y-26818675D02*
X135257023Y-26068675D01*
X135257023Y-26068675D02*
X135480357Y-26068675D01*
X135480357Y-26068675D02*
X135544166Y-26104389D01*
X135544166Y-26104389D02*
X135576071Y-26140103D01*
X135576071Y-26140103D02*
X135607976Y-26211532D01*
X135607976Y-26211532D02*
X135607976Y-26282961D01*
X135607976Y-26282961D02*
X135576071Y-26354389D01*
X135576071Y-26354389D02*
X135544166Y-26390103D01*
X135544166Y-26390103D02*
X135480357Y-26425818D01*
X135480357Y-26425818D02*
X135257023Y-26425818D01*
X128981786Y-41304389D02*
X129300833Y-41304389D01*
X128917976Y-41518675D02*
X129141309Y-40768675D01*
X129141309Y-40768675D02*
X129364643Y-41518675D01*
X129524167Y-40768675D02*
X129938929Y-40768675D01*
X129938929Y-40768675D02*
X129715595Y-41054389D01*
X129715595Y-41054389D02*
X129811310Y-41054389D01*
X129811310Y-41054389D02*
X129875119Y-41090103D01*
X129875119Y-41090103D02*
X129907024Y-41125818D01*
X129907024Y-41125818D02*
X129938929Y-41197246D01*
X129938929Y-41197246D02*
X129938929Y-41375818D01*
X129938929Y-41375818D02*
X129907024Y-41447246D01*
X129907024Y-41447246D02*
X129875119Y-41482961D01*
X129875119Y-41482961D02*
X129811310Y-41518675D01*
X129811310Y-41518675D02*
X129619881Y-41518675D01*
X129619881Y-41518675D02*
X129556072Y-41482961D01*
X129556072Y-41482961D02*
X129524167Y-41447246D01*
X130704643Y-40732961D02*
X130130357Y-41697246D01*
X131151310Y-41125818D02*
X130927976Y-41125818D01*
X130927976Y-41518675D02*
X130927976Y-40768675D01*
X130927976Y-40768675D02*
X131247024Y-40768675D01*
X131789405Y-41018675D02*
X131789405Y-41518675D01*
X131629881Y-40732961D02*
X131470358Y-41268675D01*
X131470358Y-41268675D02*
X131885119Y-41268675D01*
X129310095Y-36434175D02*
X129086762Y-36077032D01*
X128927238Y-36434175D02*
X128927238Y-35684175D01*
X128927238Y-35684175D02*
X129182476Y-35684175D01*
X129182476Y-35684175D02*
X129246286Y-35719889D01*
X129246286Y-35719889D02*
X129278191Y-35755603D01*
X129278191Y-35755603D02*
X129310095Y-35827032D01*
X129310095Y-35827032D02*
X129310095Y-35934175D01*
X129310095Y-35934175D02*
X129278191Y-36005603D01*
X129278191Y-36005603D02*
X129246286Y-36041318D01*
X129246286Y-36041318D02*
X129182476Y-36077032D01*
X129182476Y-36077032D02*
X128927238Y-36077032D01*
X129565334Y-36398461D02*
X129661048Y-36434175D01*
X129661048Y-36434175D02*
X129820572Y-36434175D01*
X129820572Y-36434175D02*
X129884381Y-36398461D01*
X129884381Y-36398461D02*
X129916286Y-36362746D01*
X129916286Y-36362746D02*
X129948191Y-36291318D01*
X129948191Y-36291318D02*
X129948191Y-36219889D01*
X129948191Y-36219889D02*
X129916286Y-36148461D01*
X129916286Y-36148461D02*
X129884381Y-36112746D01*
X129884381Y-36112746D02*
X129820572Y-36077032D01*
X129820572Y-36077032D02*
X129692953Y-36041318D01*
X129692953Y-36041318D02*
X129629143Y-36005603D01*
X129629143Y-36005603D02*
X129597238Y-35969889D01*
X129597238Y-35969889D02*
X129565334Y-35898461D01*
X129565334Y-35898461D02*
X129565334Y-35827032D01*
X129565334Y-35827032D02*
X129597238Y-35755603D01*
X129597238Y-35755603D02*
X129629143Y-35719889D01*
X129629143Y-35719889D02*
X129692953Y-35684175D01*
X129692953Y-35684175D02*
X129852476Y-35684175D01*
X129852476Y-35684175D02*
X129948191Y-35719889D01*
X130139619Y-35684175D02*
X130522476Y-35684175D01*
X130331048Y-36434175D02*
X130331048Y-35684175D01*
X135794881Y-43832961D02*
X135890595Y-43868675D01*
X135890595Y-43868675D02*
X136050119Y-43868675D01*
X136050119Y-43868675D02*
X136113928Y-43832961D01*
X136113928Y-43832961D02*
X136145833Y-43797246D01*
X136145833Y-43797246D02*
X136177738Y-43725818D01*
X136177738Y-43725818D02*
X136177738Y-43654389D01*
X136177738Y-43654389D02*
X136145833Y-43582961D01*
X136145833Y-43582961D02*
X136113928Y-43547246D01*
X136113928Y-43547246D02*
X136050119Y-43511532D01*
X136050119Y-43511532D02*
X135922500Y-43475818D01*
X135922500Y-43475818D02*
X135858690Y-43440103D01*
X135858690Y-43440103D02*
X135826785Y-43404389D01*
X135826785Y-43404389D02*
X135794881Y-43332961D01*
X135794881Y-43332961D02*
X135794881Y-43261532D01*
X135794881Y-43261532D02*
X135826785Y-43190103D01*
X135826785Y-43190103D02*
X135858690Y-43154389D01*
X135858690Y-43154389D02*
X135922500Y-43118675D01*
X135922500Y-43118675D02*
X136082023Y-43118675D01*
X136082023Y-43118675D02*
X136177738Y-43154389D01*
X136847737Y-43797246D02*
X136815833Y-43832961D01*
X136815833Y-43832961D02*
X136720118Y-43868675D01*
X136720118Y-43868675D02*
X136656309Y-43868675D01*
X136656309Y-43868675D02*
X136560595Y-43832961D01*
X136560595Y-43832961D02*
X136496785Y-43761532D01*
X136496785Y-43761532D02*
X136464880Y-43690103D01*
X136464880Y-43690103D02*
X136432976Y-43547246D01*
X136432976Y-43547246D02*
X136432976Y-43440103D01*
X136432976Y-43440103D02*
X136464880Y-43297246D01*
X136464880Y-43297246D02*
X136496785Y-43225818D01*
X136496785Y-43225818D02*
X136560595Y-43154389D01*
X136560595Y-43154389D02*
X136656309Y-43118675D01*
X136656309Y-43118675D02*
X136720118Y-43118675D01*
X136720118Y-43118675D02*
X136815833Y-43154389D01*
X136815833Y-43154389D02*
X136847737Y-43190103D01*
X137453928Y-43868675D02*
X137134880Y-43868675D01*
X137134880Y-43868675D02*
X137134880Y-43118675D01*
X138155833Y-43082961D02*
X137581547Y-44047246D01*
X138379166Y-43868675D02*
X138379166Y-43118675D01*
X138379166Y-43118675D02*
X138538690Y-43118675D01*
X138538690Y-43118675D02*
X138634404Y-43154389D01*
X138634404Y-43154389D02*
X138698214Y-43225818D01*
X138698214Y-43225818D02*
X138730119Y-43297246D01*
X138730119Y-43297246D02*
X138762023Y-43440103D01*
X138762023Y-43440103D02*
X138762023Y-43547246D01*
X138762023Y-43547246D02*
X138730119Y-43690103D01*
X138730119Y-43690103D02*
X138698214Y-43761532D01*
X138698214Y-43761532D02*
X138634404Y-43832961D01*
X138634404Y-43832961D02*
X138538690Y-43868675D01*
X138538690Y-43868675D02*
X138379166Y-43868675D01*
X139176785Y-43118675D02*
X139240595Y-43118675D01*
X139240595Y-43118675D02*
X139304404Y-43154389D01*
X139304404Y-43154389D02*
X139336309Y-43190103D01*
X139336309Y-43190103D02*
X139368214Y-43261532D01*
X139368214Y-43261532D02*
X139400119Y-43404389D01*
X139400119Y-43404389D02*
X139400119Y-43582961D01*
X139400119Y-43582961D02*
X139368214Y-43725818D01*
X139368214Y-43725818D02*
X139336309Y-43797246D01*
X139336309Y-43797246D02*
X139304404Y-43832961D01*
X139304404Y-43832961D02*
X139240595Y-43868675D01*
X139240595Y-43868675D02*
X139176785Y-43868675D01*
X139176785Y-43868675D02*
X139112976Y-43832961D01*
X139112976Y-43832961D02*
X139081071Y-43797246D01*
X139081071Y-43797246D02*
X139049166Y-43725818D01*
X139049166Y-43725818D02*
X139017262Y-43582961D01*
X139017262Y-43582961D02*
X139017262Y-43404389D01*
X139017262Y-43404389D02*
X139049166Y-43261532D01*
X139049166Y-43261532D02*
X139081071Y-43190103D01*
X139081071Y-43190103D02*
X139112976Y-43154389D01*
X139112976Y-43154389D02*
X139176785Y-43118675D01*
X140165833Y-43082961D02*
X139591547Y-44047246D01*
X140325357Y-43118675D02*
X140740119Y-43118675D01*
X140740119Y-43118675D02*
X140516785Y-43404389D01*
X140516785Y-43404389D02*
X140612500Y-43404389D01*
X140612500Y-43404389D02*
X140676309Y-43440103D01*
X140676309Y-43440103D02*
X140708214Y-43475818D01*
X140708214Y-43475818D02*
X140740119Y-43547246D01*
X140740119Y-43547246D02*
X140740119Y-43725818D01*
X140740119Y-43725818D02*
X140708214Y-43797246D01*
X140708214Y-43797246D02*
X140676309Y-43832961D01*
X140676309Y-43832961D02*
X140612500Y-43868675D01*
X140612500Y-43868675D02*
X140421071Y-43868675D01*
X140421071Y-43868675D02*
X140357262Y-43832961D01*
X140357262Y-43832961D02*
X140325357Y-43797246D01*
X129214380Y-31290675D02*
X128991047Y-30933532D01*
X128831523Y-31290675D02*
X128831523Y-30540675D01*
X128831523Y-30540675D02*
X129086761Y-30540675D01*
X129086761Y-30540675D02*
X129150571Y-30576389D01*
X129150571Y-30576389D02*
X129182476Y-30612103D01*
X129182476Y-30612103D02*
X129214380Y-30683532D01*
X129214380Y-30683532D02*
X129214380Y-30790675D01*
X129214380Y-30790675D02*
X129182476Y-30862103D01*
X129182476Y-30862103D02*
X129150571Y-30897818D01*
X129150571Y-30897818D02*
X129086761Y-30933532D01*
X129086761Y-30933532D02*
X128831523Y-30933532D01*
X129469619Y-31076389D02*
X129788666Y-31076389D01*
X129405809Y-31290675D02*
X129629142Y-30540675D01*
X129629142Y-30540675D02*
X129852476Y-31290675D01*
X130012000Y-30540675D02*
X130171524Y-31290675D01*
X130171524Y-31290675D02*
X130299143Y-30754961D01*
X130299143Y-30754961D02*
X130426762Y-31290675D01*
X130426762Y-31290675D02*
X130586286Y-30540675D01*
X128744166Y-38103675D02*
X128967499Y-38853675D01*
X128967499Y-38853675D02*
X129190833Y-38103675D01*
X129797023Y-38782246D02*
X129765119Y-38817961D01*
X129765119Y-38817961D02*
X129669404Y-38853675D01*
X129669404Y-38853675D02*
X129605595Y-38853675D01*
X129605595Y-38853675D02*
X129509881Y-38817961D01*
X129509881Y-38817961D02*
X129446071Y-38746532D01*
X129446071Y-38746532D02*
X129414166Y-38675103D01*
X129414166Y-38675103D02*
X129382262Y-38532246D01*
X129382262Y-38532246D02*
X129382262Y-38425103D01*
X129382262Y-38425103D02*
X129414166Y-38282246D01*
X129414166Y-38282246D02*
X129446071Y-38210818D01*
X129446071Y-38210818D02*
X129509881Y-38139389D01*
X129509881Y-38139389D02*
X129605595Y-38103675D01*
X129605595Y-38103675D02*
X129669404Y-38103675D01*
X129669404Y-38103675D02*
X129765119Y-38139389D01*
X129765119Y-38139389D02*
X129797023Y-38175103D01*
X130467023Y-38782246D02*
X130435119Y-38817961D01*
X130435119Y-38817961D02*
X130339404Y-38853675D01*
X130339404Y-38853675D02*
X130275595Y-38853675D01*
X130275595Y-38853675D02*
X130179881Y-38817961D01*
X130179881Y-38817961D02*
X130116071Y-38746532D01*
X130116071Y-38746532D02*
X130084166Y-38675103D01*
X130084166Y-38675103D02*
X130052262Y-38532246D01*
X130052262Y-38532246D02*
X130052262Y-38425103D01*
X130052262Y-38425103D02*
X130084166Y-38282246D01*
X130084166Y-38282246D02*
X130116071Y-38210818D01*
X130116071Y-38210818D02*
X130179881Y-38139389D01*
X130179881Y-38139389D02*
X130275595Y-38103675D01*
X130275595Y-38103675D02*
X130339404Y-38103675D01*
X130339404Y-38103675D02*
X130435119Y-38139389D01*
X130435119Y-38139389D02*
X130467023Y-38175103D01*
X138576310Y-56175818D02*
X138672024Y-56211532D01*
X138672024Y-56211532D02*
X138703929Y-56247246D01*
X138703929Y-56247246D02*
X138735833Y-56318675D01*
X138735833Y-56318675D02*
X138735833Y-56425818D01*
X138735833Y-56425818D02*
X138703929Y-56497246D01*
X138703929Y-56497246D02*
X138672024Y-56532961D01*
X138672024Y-56532961D02*
X138608214Y-56568675D01*
X138608214Y-56568675D02*
X138352976Y-56568675D01*
X138352976Y-56568675D02*
X138352976Y-55818675D01*
X138352976Y-55818675D02*
X138576310Y-55818675D01*
X138576310Y-55818675D02*
X138640119Y-55854389D01*
X138640119Y-55854389D02*
X138672024Y-55890103D01*
X138672024Y-55890103D02*
X138703929Y-55961532D01*
X138703929Y-55961532D02*
X138703929Y-56032961D01*
X138703929Y-56032961D02*
X138672024Y-56104389D01*
X138672024Y-56104389D02*
X138640119Y-56140103D01*
X138640119Y-56140103D02*
X138576310Y-56175818D01*
X138576310Y-56175818D02*
X138352976Y-56175818D01*
X139310119Y-56068675D02*
X139310119Y-56568675D01*
X139150595Y-55782961D02*
X138991072Y-56318675D01*
X138991072Y-56318675D02*
X139405833Y-56318675D01*
X140139643Y-55782961D02*
X139565357Y-56747246D01*
X140458691Y-56140103D02*
X140394881Y-56104389D01*
X140394881Y-56104389D02*
X140362976Y-56068675D01*
X140362976Y-56068675D02*
X140331072Y-55997246D01*
X140331072Y-55997246D02*
X140331072Y-55961532D01*
X140331072Y-55961532D02*
X140362976Y-55890103D01*
X140362976Y-55890103D02*
X140394881Y-55854389D01*
X140394881Y-55854389D02*
X140458691Y-55818675D01*
X140458691Y-55818675D02*
X140586310Y-55818675D01*
X140586310Y-55818675D02*
X140650119Y-55854389D01*
X140650119Y-55854389D02*
X140682024Y-55890103D01*
X140682024Y-55890103D02*
X140713929Y-55961532D01*
X140713929Y-55961532D02*
X140713929Y-55997246D01*
X140713929Y-55997246D02*
X140682024Y-56068675D01*
X140682024Y-56068675D02*
X140650119Y-56104389D01*
X140650119Y-56104389D02*
X140586310Y-56140103D01*
X140586310Y-56140103D02*
X140458691Y-56140103D01*
X140458691Y-56140103D02*
X140394881Y-56175818D01*
X140394881Y-56175818D02*
X140362976Y-56211532D01*
X140362976Y-56211532D02*
X140331072Y-56282961D01*
X140331072Y-56282961D02*
X140331072Y-56425818D01*
X140331072Y-56425818D02*
X140362976Y-56497246D01*
X140362976Y-56497246D02*
X140394881Y-56532961D01*
X140394881Y-56532961D02*
X140458691Y-56568675D01*
X140458691Y-56568675D02*
X140586310Y-56568675D01*
X140586310Y-56568675D02*
X140650119Y-56532961D01*
X140650119Y-56532961D02*
X140682024Y-56497246D01*
X140682024Y-56497246D02*
X140713929Y-56425818D01*
X140713929Y-56425818D02*
X140713929Y-56282961D01*
X140713929Y-56282961D02*
X140682024Y-56211532D01*
X140682024Y-56211532D02*
X140650119Y-56175818D01*
X140650119Y-56175818D02*
X140586310Y-56140103D01*
X129284881Y-51618675D02*
X128902024Y-51618675D01*
X129093452Y-51618675D02*
X129093452Y-50868675D01*
X129093452Y-50868675D02*
X129029643Y-50975818D01*
X129029643Y-50975818D02*
X128965833Y-51047246D01*
X128965833Y-51047246D02*
X128902024Y-51082961D01*
X129891071Y-50868675D02*
X129572023Y-50868675D01*
X129572023Y-50868675D02*
X129540119Y-51225818D01*
X129540119Y-51225818D02*
X129572023Y-51190103D01*
X129572023Y-51190103D02*
X129635833Y-51154389D01*
X129635833Y-51154389D02*
X129795357Y-51154389D01*
X129795357Y-51154389D02*
X129859166Y-51190103D01*
X129859166Y-51190103D02*
X129891071Y-51225818D01*
X129891071Y-51225818D02*
X129922976Y-51297246D01*
X129922976Y-51297246D02*
X129922976Y-51475818D01*
X129922976Y-51475818D02*
X129891071Y-51547246D01*
X129891071Y-51547246D02*
X129859166Y-51582961D01*
X129859166Y-51582961D02*
X129795357Y-51618675D01*
X129795357Y-51618675D02*
X129635833Y-51618675D01*
X129635833Y-51618675D02*
X129572023Y-51582961D01*
X129572023Y-51582961D02*
X129540119Y-51547246D01*
X130688690Y-50832961D02*
X130114404Y-51797246D01*
X131135357Y-51225818D02*
X131231071Y-51261532D01*
X131231071Y-51261532D02*
X131262976Y-51297246D01*
X131262976Y-51297246D02*
X131294880Y-51368675D01*
X131294880Y-51368675D02*
X131294880Y-51475818D01*
X131294880Y-51475818D02*
X131262976Y-51547246D01*
X131262976Y-51547246D02*
X131231071Y-51582961D01*
X131231071Y-51582961D02*
X131167261Y-51618675D01*
X131167261Y-51618675D02*
X130912023Y-51618675D01*
X130912023Y-51618675D02*
X130912023Y-50868675D01*
X130912023Y-50868675D02*
X131135357Y-50868675D01*
X131135357Y-50868675D02*
X131199166Y-50904389D01*
X131199166Y-50904389D02*
X131231071Y-50940103D01*
X131231071Y-50940103D02*
X131262976Y-51011532D01*
X131262976Y-51011532D02*
X131262976Y-51082961D01*
X131262976Y-51082961D02*
X131231071Y-51154389D01*
X131231071Y-51154389D02*
X131199166Y-51190103D01*
X131199166Y-51190103D02*
X131135357Y-51225818D01*
X131135357Y-51225818D02*
X130912023Y-51225818D01*
X131932976Y-51618675D02*
X131550119Y-51618675D01*
X131741547Y-51618675D02*
X131741547Y-50868675D01*
X131741547Y-50868675D02*
X131677738Y-50975818D01*
X131677738Y-50975818D02*
X131613928Y-51047246D01*
X131613928Y-51047246D02*
X131550119Y-51082961D01*
X133917023Y-26068675D02*
X133917023Y-26675818D01*
X133917023Y-26675818D02*
X133948928Y-26747246D01*
X133948928Y-26747246D02*
X133980833Y-26782961D01*
X133980833Y-26782961D02*
X134044642Y-26818675D01*
X134044642Y-26818675D02*
X134172261Y-26818675D01*
X134172261Y-26818675D02*
X134236071Y-26782961D01*
X134236071Y-26782961D02*
X134267976Y-26747246D01*
X134267976Y-26747246D02*
X134299880Y-26675818D01*
X134299880Y-26675818D02*
X134299880Y-26068675D01*
X134587024Y-26782961D02*
X134682738Y-26818675D01*
X134682738Y-26818675D02*
X134842262Y-26818675D01*
X134842262Y-26818675D02*
X134906071Y-26782961D01*
X134906071Y-26782961D02*
X134937976Y-26747246D01*
X134937976Y-26747246D02*
X134969881Y-26675818D01*
X134969881Y-26675818D02*
X134969881Y-26604389D01*
X134969881Y-26604389D02*
X134937976Y-26532961D01*
X134937976Y-26532961D02*
X134906071Y-26497246D01*
X134906071Y-26497246D02*
X134842262Y-26461532D01*
X134842262Y-26461532D02*
X134714643Y-26425818D01*
X134714643Y-26425818D02*
X134650833Y-26390103D01*
X134650833Y-26390103D02*
X134618928Y-26354389D01*
X134618928Y-26354389D02*
X134587024Y-26282961D01*
X134587024Y-26282961D02*
X134587024Y-26211532D01*
X134587024Y-26211532D02*
X134618928Y-26140103D01*
X134618928Y-26140103D02*
X134650833Y-26104389D01*
X134650833Y-26104389D02*
X134714643Y-26068675D01*
X134714643Y-26068675D02*
X134874166Y-26068675D01*
X134874166Y-26068675D02*
X134969881Y-26104389D01*
X135480357Y-26425818D02*
X135576071Y-26461532D01*
X135576071Y-26461532D02*
X135607976Y-26497246D01*
X135607976Y-26497246D02*
X135639880Y-26568675D01*
X135639880Y-26568675D02*
X135639880Y-26675818D01*
X135639880Y-26675818D02*
X135607976Y-26747246D01*
X135607976Y-26747246D02*
X135576071Y-26782961D01*
X135576071Y-26782961D02*
X135512261Y-26818675D01*
X135512261Y-26818675D02*
X135257023Y-26818675D01*
X135257023Y-26818675D02*
X135257023Y-26068675D01*
X135257023Y-26068675D02*
X135480357Y-26068675D01*
X135480357Y-26068675D02*
X135544166Y-26104389D01*
X135544166Y-26104389D02*
X135576071Y-26140103D01*
X135576071Y-26140103D02*
X135607976Y-26211532D01*
X135607976Y-26211532D02*
X135607976Y-26282961D01*
X135607976Y-26282961D02*
X135576071Y-26354389D01*
X135576071Y-26354389D02*
X135544166Y-26390103D01*
X135544166Y-26390103D02*
X135480357Y-26425818D01*
X135480357Y-26425818D02*
X135257023Y-26425818D01*
X128981786Y-46304389D02*
X129300833Y-46304389D01*
X128917976Y-46518675D02*
X129141309Y-45768675D01*
X129141309Y-45768675D02*
X129364643Y-46518675D01*
X129938929Y-46518675D02*
X129556072Y-46518675D01*
X129747500Y-46518675D02*
X129747500Y-45768675D01*
X129747500Y-45768675D02*
X129683691Y-45875818D01*
X129683691Y-45875818D02*
X129619881Y-45947246D01*
X129619881Y-45947246D02*
X129556072Y-45982961D01*
X130704643Y-45732961D02*
X130130357Y-46697246D01*
X131151310Y-46125818D02*
X130927976Y-46125818D01*
X130927976Y-46518675D02*
X130927976Y-45768675D01*
X130927976Y-45768675D02*
X131247024Y-45768675D01*
X131789405Y-45768675D02*
X131661786Y-45768675D01*
X131661786Y-45768675D02*
X131597977Y-45804389D01*
X131597977Y-45804389D02*
X131566072Y-45840103D01*
X131566072Y-45840103D02*
X131502262Y-45947246D01*
X131502262Y-45947246D02*
X131470358Y-46090103D01*
X131470358Y-46090103D02*
X131470358Y-46375818D01*
X131470358Y-46375818D02*
X131502262Y-46447246D01*
X131502262Y-46447246D02*
X131534167Y-46482961D01*
X131534167Y-46482961D02*
X131597977Y-46518675D01*
X131597977Y-46518675D02*
X131725596Y-46518675D01*
X131725596Y-46518675D02*
X131789405Y-46482961D01*
X131789405Y-46482961D02*
X131821310Y-46447246D01*
X131821310Y-46447246D02*
X131853215Y-46375818D01*
X131853215Y-46375818D02*
X131853215Y-46197246D01*
X131853215Y-46197246D02*
X131821310Y-46125818D01*
X131821310Y-46125818D02*
X131789405Y-46090103D01*
X131789405Y-46090103D02*
X131725596Y-46054389D01*
X131725596Y-46054389D02*
X131597977Y-46054389D01*
X131597977Y-46054389D02*
X131534167Y-46090103D01*
X131534167Y-46090103D02*
X131502262Y-46125818D01*
X131502262Y-46125818D02*
X131470358Y-46197246D01*
X138384881Y-53625818D02*
X138608215Y-53625818D01*
X138703929Y-54018675D02*
X138384881Y-54018675D01*
X138384881Y-54018675D02*
X138384881Y-53268675D01*
X138384881Y-53268675D02*
X138703929Y-53268675D01*
X139278214Y-53268675D02*
X139150595Y-53268675D01*
X139150595Y-53268675D02*
X139086786Y-53304389D01*
X139086786Y-53304389D02*
X139054881Y-53340103D01*
X139054881Y-53340103D02*
X138991071Y-53447246D01*
X138991071Y-53447246D02*
X138959167Y-53590103D01*
X138959167Y-53590103D02*
X138959167Y-53875818D01*
X138959167Y-53875818D02*
X138991071Y-53947246D01*
X138991071Y-53947246D02*
X139022976Y-53982961D01*
X139022976Y-53982961D02*
X139086786Y-54018675D01*
X139086786Y-54018675D02*
X139214405Y-54018675D01*
X139214405Y-54018675D02*
X139278214Y-53982961D01*
X139278214Y-53982961D02*
X139310119Y-53947246D01*
X139310119Y-53947246D02*
X139342024Y-53875818D01*
X139342024Y-53875818D02*
X139342024Y-53697246D01*
X139342024Y-53697246D02*
X139310119Y-53625818D01*
X139310119Y-53625818D02*
X139278214Y-53590103D01*
X139278214Y-53590103D02*
X139214405Y-53554389D01*
X139214405Y-53554389D02*
X139086786Y-53554389D01*
X139086786Y-53554389D02*
X139022976Y-53590103D01*
X139022976Y-53590103D02*
X138991071Y-53625818D01*
X138991071Y-53625818D02*
X138959167Y-53697246D01*
X140107738Y-53232961D02*
X139533452Y-54197246D01*
X140267262Y-53268675D02*
X140713928Y-53268675D01*
X140713928Y-53268675D02*
X140426786Y-54018675D01*
X138352976Y-51468675D02*
X138352976Y-50718675D01*
X138352976Y-50718675D02*
X138512500Y-50718675D01*
X138512500Y-50718675D02*
X138608214Y-50754389D01*
X138608214Y-50754389D02*
X138672024Y-50825818D01*
X138672024Y-50825818D02*
X138703929Y-50897246D01*
X138703929Y-50897246D02*
X138735833Y-51040103D01*
X138735833Y-51040103D02*
X138735833Y-51147246D01*
X138735833Y-51147246D02*
X138703929Y-51290103D01*
X138703929Y-51290103D02*
X138672024Y-51361532D01*
X138672024Y-51361532D02*
X138608214Y-51432961D01*
X138608214Y-51432961D02*
X138512500Y-51468675D01*
X138512500Y-51468675D02*
X138352976Y-51468675D01*
X138959167Y-50718675D02*
X139405833Y-50718675D01*
X139405833Y-50718675D02*
X139118691Y-51468675D01*
X140139643Y-50682961D02*
X139565357Y-51647246D01*
X140650119Y-50718675D02*
X140522500Y-50718675D01*
X140522500Y-50718675D02*
X140458691Y-50754389D01*
X140458691Y-50754389D02*
X140426786Y-50790103D01*
X140426786Y-50790103D02*
X140362976Y-50897246D01*
X140362976Y-50897246D02*
X140331072Y-51040103D01*
X140331072Y-51040103D02*
X140331072Y-51325818D01*
X140331072Y-51325818D02*
X140362976Y-51397246D01*
X140362976Y-51397246D02*
X140394881Y-51432961D01*
X140394881Y-51432961D02*
X140458691Y-51468675D01*
X140458691Y-51468675D02*
X140586310Y-51468675D01*
X140586310Y-51468675D02*
X140650119Y-51432961D01*
X140650119Y-51432961D02*
X140682024Y-51397246D01*
X140682024Y-51397246D02*
X140713929Y-51325818D01*
X140713929Y-51325818D02*
X140713929Y-51147246D01*
X140713929Y-51147246D02*
X140682024Y-51075818D01*
X140682024Y-51075818D02*
X140650119Y-51040103D01*
X140650119Y-51040103D02*
X140586310Y-51004389D01*
X140586310Y-51004389D02*
X140458691Y-51004389D01*
X140458691Y-51004389D02*
X140394881Y-51040103D01*
X140394881Y-51040103D02*
X140362976Y-51075818D01*
X140362976Y-51075818D02*
X140331072Y-51147246D01*
X129284881Y-59218675D02*
X128902024Y-59218675D01*
X129093452Y-59218675D02*
X129093452Y-58468675D01*
X129093452Y-58468675D02*
X129029643Y-58575818D01*
X129029643Y-58575818D02*
X128965833Y-58647246D01*
X128965833Y-58647246D02*
X128902024Y-58682961D01*
X129699642Y-58468675D02*
X129763452Y-58468675D01*
X129763452Y-58468675D02*
X129827261Y-58504389D01*
X129827261Y-58504389D02*
X129859166Y-58540103D01*
X129859166Y-58540103D02*
X129891071Y-58611532D01*
X129891071Y-58611532D02*
X129922976Y-58754389D01*
X129922976Y-58754389D02*
X129922976Y-58932961D01*
X129922976Y-58932961D02*
X129891071Y-59075818D01*
X129891071Y-59075818D02*
X129859166Y-59147246D01*
X129859166Y-59147246D02*
X129827261Y-59182961D01*
X129827261Y-59182961D02*
X129763452Y-59218675D01*
X129763452Y-59218675D02*
X129699642Y-59218675D01*
X129699642Y-59218675D02*
X129635833Y-59182961D01*
X129635833Y-59182961D02*
X129603928Y-59147246D01*
X129603928Y-59147246D02*
X129572023Y-59075818D01*
X129572023Y-59075818D02*
X129540119Y-58932961D01*
X129540119Y-58932961D02*
X129540119Y-58754389D01*
X129540119Y-58754389D02*
X129572023Y-58611532D01*
X129572023Y-58611532D02*
X129603928Y-58540103D01*
X129603928Y-58540103D02*
X129635833Y-58504389D01*
X129635833Y-58504389D02*
X129699642Y-58468675D01*
X130688690Y-58432961D02*
X130114404Y-59397246D01*
X131135357Y-58825818D02*
X131231071Y-58861532D01*
X131231071Y-58861532D02*
X131262976Y-58897246D01*
X131262976Y-58897246D02*
X131294880Y-58968675D01*
X131294880Y-58968675D02*
X131294880Y-59075818D01*
X131294880Y-59075818D02*
X131262976Y-59147246D01*
X131262976Y-59147246D02*
X131231071Y-59182961D01*
X131231071Y-59182961D02*
X131167261Y-59218675D01*
X131167261Y-59218675D02*
X130912023Y-59218675D01*
X130912023Y-59218675D02*
X130912023Y-58468675D01*
X130912023Y-58468675D02*
X131135357Y-58468675D01*
X131135357Y-58468675D02*
X131199166Y-58504389D01*
X131199166Y-58504389D02*
X131231071Y-58540103D01*
X131231071Y-58540103D02*
X131262976Y-58611532D01*
X131262976Y-58611532D02*
X131262976Y-58682961D01*
X131262976Y-58682961D02*
X131231071Y-58754389D01*
X131231071Y-58754389D02*
X131199166Y-58790103D01*
X131199166Y-58790103D02*
X131135357Y-58825818D01*
X131135357Y-58825818D02*
X130912023Y-58825818D01*
X131869166Y-58468675D02*
X131741547Y-58468675D01*
X131741547Y-58468675D02*
X131677738Y-58504389D01*
X131677738Y-58504389D02*
X131645833Y-58540103D01*
X131645833Y-58540103D02*
X131582023Y-58647246D01*
X131582023Y-58647246D02*
X131550119Y-58790103D01*
X131550119Y-58790103D02*
X131550119Y-59075818D01*
X131550119Y-59075818D02*
X131582023Y-59147246D01*
X131582023Y-59147246D02*
X131613928Y-59182961D01*
X131613928Y-59182961D02*
X131677738Y-59218675D01*
X131677738Y-59218675D02*
X131805357Y-59218675D01*
X131805357Y-59218675D02*
X131869166Y-59182961D01*
X131869166Y-59182961D02*
X131901071Y-59147246D01*
X131901071Y-59147246D02*
X131932976Y-59075818D01*
X131932976Y-59075818D02*
X131932976Y-58897246D01*
X131932976Y-58897246D02*
X131901071Y-58825818D01*
X131901071Y-58825818D02*
X131869166Y-58790103D01*
X131869166Y-58790103D02*
X131805357Y-58754389D01*
X131805357Y-58754389D02*
X131677738Y-58754389D01*
X131677738Y-58754389D02*
X131613928Y-58790103D01*
X131613928Y-58790103D02*
X131582023Y-58825818D01*
X131582023Y-58825818D02*
X131550119Y-58897246D01*
X138576310Y-58675818D02*
X138672024Y-58711532D01*
X138672024Y-58711532D02*
X138703929Y-58747246D01*
X138703929Y-58747246D02*
X138735833Y-58818675D01*
X138735833Y-58818675D02*
X138735833Y-58925818D01*
X138735833Y-58925818D02*
X138703929Y-58997246D01*
X138703929Y-58997246D02*
X138672024Y-59032961D01*
X138672024Y-59032961D02*
X138608214Y-59068675D01*
X138608214Y-59068675D02*
X138352976Y-59068675D01*
X138352976Y-59068675D02*
X138352976Y-58318675D01*
X138352976Y-58318675D02*
X138576310Y-58318675D01*
X138576310Y-58318675D02*
X138640119Y-58354389D01*
X138640119Y-58354389D02*
X138672024Y-58390103D01*
X138672024Y-58390103D02*
X138703929Y-58461532D01*
X138703929Y-58461532D02*
X138703929Y-58532961D01*
X138703929Y-58532961D02*
X138672024Y-58604389D01*
X138672024Y-58604389D02*
X138640119Y-58640103D01*
X138640119Y-58640103D02*
X138576310Y-58675818D01*
X138576310Y-58675818D02*
X138352976Y-58675818D01*
X139342024Y-58318675D02*
X139022976Y-58318675D01*
X139022976Y-58318675D02*
X138991072Y-58675818D01*
X138991072Y-58675818D02*
X139022976Y-58640103D01*
X139022976Y-58640103D02*
X139086786Y-58604389D01*
X139086786Y-58604389D02*
X139246310Y-58604389D01*
X139246310Y-58604389D02*
X139310119Y-58640103D01*
X139310119Y-58640103D02*
X139342024Y-58675818D01*
X139342024Y-58675818D02*
X139373929Y-58747246D01*
X139373929Y-58747246D02*
X139373929Y-58925818D01*
X139373929Y-58925818D02*
X139342024Y-58997246D01*
X139342024Y-58997246D02*
X139310119Y-59032961D01*
X139310119Y-59032961D02*
X139246310Y-59068675D01*
X139246310Y-59068675D02*
X139086786Y-59068675D01*
X139086786Y-59068675D02*
X139022976Y-59032961D01*
X139022976Y-59032961D02*
X138991072Y-58997246D01*
X140139643Y-58282961D02*
X139565357Y-59247246D01*
X140394881Y-59068675D02*
X140522500Y-59068675D01*
X140522500Y-59068675D02*
X140586310Y-59032961D01*
X140586310Y-59032961D02*
X140618214Y-58997246D01*
X140618214Y-58997246D02*
X140682024Y-58890103D01*
X140682024Y-58890103D02*
X140713929Y-58747246D01*
X140713929Y-58747246D02*
X140713929Y-58461532D01*
X140713929Y-58461532D02*
X140682024Y-58390103D01*
X140682024Y-58390103D02*
X140650119Y-58354389D01*
X140650119Y-58354389D02*
X140586310Y-58318675D01*
X140586310Y-58318675D02*
X140458691Y-58318675D01*
X140458691Y-58318675D02*
X140394881Y-58354389D01*
X140394881Y-58354389D02*
X140362976Y-58390103D01*
X140362976Y-58390103D02*
X140331072Y-58461532D01*
X140331072Y-58461532D02*
X140331072Y-58640103D01*
X140331072Y-58640103D02*
X140362976Y-58711532D01*
X140362976Y-58711532D02*
X140394881Y-58747246D01*
X140394881Y-58747246D02*
X140458691Y-58782961D01*
X140458691Y-58782961D02*
X140586310Y-58782961D01*
X140586310Y-58782961D02*
X140650119Y-58747246D01*
X140650119Y-58747246D02*
X140682024Y-58711532D01*
X140682024Y-58711532D02*
X140713929Y-58640103D01*
X135778929Y-41332961D02*
X135874643Y-41368675D01*
X135874643Y-41368675D02*
X136034167Y-41368675D01*
X136034167Y-41368675D02*
X136097976Y-41332961D01*
X136097976Y-41332961D02*
X136129881Y-41297246D01*
X136129881Y-41297246D02*
X136161786Y-41225818D01*
X136161786Y-41225818D02*
X136161786Y-41154389D01*
X136161786Y-41154389D02*
X136129881Y-41082961D01*
X136129881Y-41082961D02*
X136097976Y-41047246D01*
X136097976Y-41047246D02*
X136034167Y-41011532D01*
X136034167Y-41011532D02*
X135906548Y-40975818D01*
X135906548Y-40975818D02*
X135842738Y-40940103D01*
X135842738Y-40940103D02*
X135810833Y-40904389D01*
X135810833Y-40904389D02*
X135778929Y-40832961D01*
X135778929Y-40832961D02*
X135778929Y-40761532D01*
X135778929Y-40761532D02*
X135810833Y-40690103D01*
X135810833Y-40690103D02*
X135842738Y-40654389D01*
X135842738Y-40654389D02*
X135906548Y-40618675D01*
X135906548Y-40618675D02*
X136066071Y-40618675D01*
X136066071Y-40618675D02*
X136161786Y-40654389D01*
X136448928Y-41368675D02*
X136448928Y-40618675D01*
X136448928Y-40618675D02*
X136608452Y-40618675D01*
X136608452Y-40618675D02*
X136704166Y-40654389D01*
X136704166Y-40654389D02*
X136767976Y-40725818D01*
X136767976Y-40725818D02*
X136799881Y-40797246D01*
X136799881Y-40797246D02*
X136831785Y-40940103D01*
X136831785Y-40940103D02*
X136831785Y-41047246D01*
X136831785Y-41047246D02*
X136799881Y-41190103D01*
X136799881Y-41190103D02*
X136767976Y-41261532D01*
X136767976Y-41261532D02*
X136704166Y-41332961D01*
X136704166Y-41332961D02*
X136608452Y-41368675D01*
X136608452Y-41368675D02*
X136448928Y-41368675D01*
X137087024Y-41154389D02*
X137406071Y-41154389D01*
X137023214Y-41368675D02*
X137246547Y-40618675D01*
X137246547Y-40618675D02*
X137469881Y-41368675D01*
X138171786Y-40582961D02*
X137597500Y-41547246D01*
X138395119Y-41368675D02*
X138395119Y-40618675D01*
X138395119Y-40618675D02*
X138554643Y-40618675D01*
X138554643Y-40618675D02*
X138650357Y-40654389D01*
X138650357Y-40654389D02*
X138714167Y-40725818D01*
X138714167Y-40725818D02*
X138746072Y-40797246D01*
X138746072Y-40797246D02*
X138777976Y-40940103D01*
X138777976Y-40940103D02*
X138777976Y-41047246D01*
X138777976Y-41047246D02*
X138746072Y-41190103D01*
X138746072Y-41190103D02*
X138714167Y-41261532D01*
X138714167Y-41261532D02*
X138650357Y-41332961D01*
X138650357Y-41332961D02*
X138554643Y-41368675D01*
X138554643Y-41368675D02*
X138395119Y-41368675D01*
X139416072Y-41368675D02*
X139033215Y-41368675D01*
X139224643Y-41368675D02*
X139224643Y-40618675D01*
X139224643Y-40618675D02*
X139160834Y-40725818D01*
X139160834Y-40725818D02*
X139097024Y-40797246D01*
X139097024Y-40797246D02*
X139033215Y-40832961D01*
X140181786Y-40582961D02*
X139607500Y-41547246D01*
X140373215Y-40690103D02*
X140405119Y-40654389D01*
X140405119Y-40654389D02*
X140468929Y-40618675D01*
X140468929Y-40618675D02*
X140628453Y-40618675D01*
X140628453Y-40618675D02*
X140692262Y-40654389D01*
X140692262Y-40654389D02*
X140724167Y-40690103D01*
X140724167Y-40690103D02*
X140756072Y-40761532D01*
X140756072Y-40761532D02*
X140756072Y-40832961D01*
X140756072Y-40832961D02*
X140724167Y-40940103D01*
X140724167Y-40940103D02*
X140341310Y-41368675D01*
X140341310Y-41368675D02*
X140756072Y-41368675D01*
X128981786Y-43804389D02*
X129300833Y-43804389D01*
X128917976Y-44018675D02*
X129141309Y-43268675D01*
X129141309Y-43268675D02*
X129364643Y-44018675D01*
X129556072Y-43340103D02*
X129587976Y-43304389D01*
X129587976Y-43304389D02*
X129651786Y-43268675D01*
X129651786Y-43268675D02*
X129811310Y-43268675D01*
X129811310Y-43268675D02*
X129875119Y-43304389D01*
X129875119Y-43304389D02*
X129907024Y-43340103D01*
X129907024Y-43340103D02*
X129938929Y-43411532D01*
X129938929Y-43411532D02*
X129938929Y-43482961D01*
X129938929Y-43482961D02*
X129907024Y-43590103D01*
X129907024Y-43590103D02*
X129524167Y-44018675D01*
X129524167Y-44018675D02*
X129938929Y-44018675D01*
X130704643Y-43232961D02*
X130130357Y-44197246D01*
X131151310Y-43625818D02*
X130927976Y-43625818D01*
X130927976Y-44018675D02*
X130927976Y-43268675D01*
X130927976Y-43268675D02*
X131247024Y-43268675D01*
X131821310Y-43268675D02*
X131502262Y-43268675D01*
X131502262Y-43268675D02*
X131470358Y-43625818D01*
X131470358Y-43625818D02*
X131502262Y-43590103D01*
X131502262Y-43590103D02*
X131566072Y-43554389D01*
X131566072Y-43554389D02*
X131725596Y-43554389D01*
X131725596Y-43554389D02*
X131789405Y-43590103D01*
X131789405Y-43590103D02*
X131821310Y-43625818D01*
X131821310Y-43625818D02*
X131853215Y-43697246D01*
X131853215Y-43697246D02*
X131853215Y-43875818D01*
X131853215Y-43875818D02*
X131821310Y-43947246D01*
X131821310Y-43947246D02*
X131789405Y-43982961D01*
X131789405Y-43982961D02*
X131725596Y-44018675D01*
X131725596Y-44018675D02*
X131566072Y-44018675D01*
X131566072Y-44018675D02*
X131502262Y-43982961D01*
X131502262Y-43982961D02*
X131470358Y-43947246D01*
X139257024Y-38154389D02*
X139193214Y-38118675D01*
X139193214Y-38118675D02*
X139097500Y-38118675D01*
X139097500Y-38118675D02*
X139001786Y-38154389D01*
X139001786Y-38154389D02*
X138937976Y-38225818D01*
X138937976Y-38225818D02*
X138906071Y-38297246D01*
X138906071Y-38297246D02*
X138874167Y-38440103D01*
X138874167Y-38440103D02*
X138874167Y-38547246D01*
X138874167Y-38547246D02*
X138906071Y-38690103D01*
X138906071Y-38690103D02*
X138937976Y-38761532D01*
X138937976Y-38761532D02*
X139001786Y-38832961D01*
X139001786Y-38832961D02*
X139097500Y-38868675D01*
X139097500Y-38868675D02*
X139161309Y-38868675D01*
X139161309Y-38868675D02*
X139257024Y-38832961D01*
X139257024Y-38832961D02*
X139288928Y-38797246D01*
X139288928Y-38797246D02*
X139288928Y-38547246D01*
X139288928Y-38547246D02*
X139161309Y-38547246D01*
X139576071Y-38868675D02*
X139576071Y-38118675D01*
X139576071Y-38118675D02*
X139958928Y-38868675D01*
X139958928Y-38868675D02*
X139958928Y-38118675D01*
X140277976Y-38868675D02*
X140277976Y-38118675D01*
X140277976Y-38118675D02*
X140437500Y-38118675D01*
X140437500Y-38118675D02*
X140533214Y-38154389D01*
X140533214Y-38154389D02*
X140597024Y-38225818D01*
X140597024Y-38225818D02*
X140628929Y-38297246D01*
X140628929Y-38297246D02*
X140660833Y-38440103D01*
X140660833Y-38440103D02*
X140660833Y-38547246D01*
X140660833Y-38547246D02*
X140628929Y-38690103D01*
X140628929Y-38690103D02*
X140597024Y-38761532D01*
X140597024Y-38761532D02*
X140533214Y-38832961D01*
X140533214Y-38832961D02*
X140437500Y-38868675D01*
X140437500Y-38868675D02*
X140277976Y-38868675D01*
X128981786Y-48854389D02*
X129300833Y-48854389D01*
X128917976Y-49068675D02*
X129141309Y-48318675D01*
X129141309Y-48318675D02*
X129364643Y-49068675D01*
X129715595Y-48318675D02*
X129779405Y-48318675D01*
X129779405Y-48318675D02*
X129843214Y-48354389D01*
X129843214Y-48354389D02*
X129875119Y-48390103D01*
X129875119Y-48390103D02*
X129907024Y-48461532D01*
X129907024Y-48461532D02*
X129938929Y-48604389D01*
X129938929Y-48604389D02*
X129938929Y-48782961D01*
X129938929Y-48782961D02*
X129907024Y-48925818D01*
X129907024Y-48925818D02*
X129875119Y-48997246D01*
X129875119Y-48997246D02*
X129843214Y-49032961D01*
X129843214Y-49032961D02*
X129779405Y-49068675D01*
X129779405Y-49068675D02*
X129715595Y-49068675D01*
X129715595Y-49068675D02*
X129651786Y-49032961D01*
X129651786Y-49032961D02*
X129619881Y-48997246D01*
X129619881Y-48997246D02*
X129587976Y-48925818D01*
X129587976Y-48925818D02*
X129556072Y-48782961D01*
X129556072Y-48782961D02*
X129556072Y-48604389D01*
X129556072Y-48604389D02*
X129587976Y-48461532D01*
X129587976Y-48461532D02*
X129619881Y-48390103D01*
X129619881Y-48390103D02*
X129651786Y-48354389D01*
X129651786Y-48354389D02*
X129715595Y-48318675D01*
X130704643Y-48282961D02*
X130130357Y-49247246D01*
X131151310Y-48675818D02*
X130927976Y-48675818D01*
X130927976Y-49068675D02*
X130927976Y-48318675D01*
X130927976Y-48318675D02*
X131247024Y-48318675D01*
X131438453Y-48318675D02*
X131885119Y-48318675D01*
X131885119Y-48318675D02*
X131597977Y-49068675D01*
X139257024Y-35704389D02*
X139193214Y-35668675D01*
X139193214Y-35668675D02*
X139097500Y-35668675D01*
X139097500Y-35668675D02*
X139001786Y-35704389D01*
X139001786Y-35704389D02*
X138937976Y-35775818D01*
X138937976Y-35775818D02*
X138906071Y-35847246D01*
X138906071Y-35847246D02*
X138874167Y-35990103D01*
X138874167Y-35990103D02*
X138874167Y-36097246D01*
X138874167Y-36097246D02*
X138906071Y-36240103D01*
X138906071Y-36240103D02*
X138937976Y-36311532D01*
X138937976Y-36311532D02*
X139001786Y-36382961D01*
X139001786Y-36382961D02*
X139097500Y-36418675D01*
X139097500Y-36418675D02*
X139161309Y-36418675D01*
X139161309Y-36418675D02*
X139257024Y-36382961D01*
X139257024Y-36382961D02*
X139288928Y-36347246D01*
X139288928Y-36347246D02*
X139288928Y-36097246D01*
X139288928Y-36097246D02*
X139161309Y-36097246D01*
X139576071Y-36418675D02*
X139576071Y-35668675D01*
X139576071Y-35668675D02*
X139958928Y-36418675D01*
X139958928Y-36418675D02*
X139958928Y-35668675D01*
X140277976Y-36418675D02*
X140277976Y-35668675D01*
X140277976Y-35668675D02*
X140437500Y-35668675D01*
X140437500Y-35668675D02*
X140533214Y-35704389D01*
X140533214Y-35704389D02*
X140597024Y-35775818D01*
X140597024Y-35775818D02*
X140628929Y-35847246D01*
X140628929Y-35847246D02*
X140660833Y-35990103D01*
X140660833Y-35990103D02*
X140660833Y-36097246D01*
X140660833Y-36097246D02*
X140628929Y-36240103D01*
X140628929Y-36240103D02*
X140597024Y-36311532D01*
X140597024Y-36311532D02*
X140533214Y-36382961D01*
X140533214Y-36382961D02*
X140437500Y-36418675D01*
X140437500Y-36418675D02*
X140277976Y-36418675D01*
X129187024Y-33114389D02*
X129123214Y-33078675D01*
X129123214Y-33078675D02*
X129027500Y-33078675D01*
X129027500Y-33078675D02*
X128931786Y-33114389D01*
X128931786Y-33114389D02*
X128867976Y-33185818D01*
X128867976Y-33185818D02*
X128836071Y-33257246D01*
X128836071Y-33257246D02*
X128804167Y-33400103D01*
X128804167Y-33400103D02*
X128804167Y-33507246D01*
X128804167Y-33507246D02*
X128836071Y-33650103D01*
X128836071Y-33650103D02*
X128867976Y-33721532D01*
X128867976Y-33721532D02*
X128931786Y-33792961D01*
X128931786Y-33792961D02*
X129027500Y-33828675D01*
X129027500Y-33828675D02*
X129091309Y-33828675D01*
X129091309Y-33828675D02*
X129187024Y-33792961D01*
X129187024Y-33792961D02*
X129218928Y-33757246D01*
X129218928Y-33757246D02*
X129218928Y-33507246D01*
X129218928Y-33507246D02*
X129091309Y-33507246D01*
X129506071Y-33828675D02*
X129506071Y-33078675D01*
X129506071Y-33078675D02*
X129888928Y-33828675D01*
X129888928Y-33828675D02*
X129888928Y-33078675D01*
X130207976Y-33828675D02*
X130207976Y-33078675D01*
X130207976Y-33078675D02*
X130367500Y-33078675D01*
X130367500Y-33078675D02*
X130463214Y-33114389D01*
X130463214Y-33114389D02*
X130527024Y-33185818D01*
X130527024Y-33185818D02*
X130558929Y-33257246D01*
X130558929Y-33257246D02*
X130590833Y-33400103D01*
X130590833Y-33400103D02*
X130590833Y-33507246D01*
X130590833Y-33507246D02*
X130558929Y-33650103D01*
X130558929Y-33650103D02*
X130527024Y-33721532D01*
X130527024Y-33721532D02*
X130463214Y-33792961D01*
X130463214Y-33792961D02*
X130367500Y-33828675D01*
X130367500Y-33828675D02*
X130207976Y-33828675D01*
X138352976Y-46368675D02*
X138352976Y-45618675D01*
X138352976Y-45618675D02*
X138512500Y-45618675D01*
X138512500Y-45618675D02*
X138608214Y-45654389D01*
X138608214Y-45654389D02*
X138672024Y-45725818D01*
X138672024Y-45725818D02*
X138703929Y-45797246D01*
X138703929Y-45797246D02*
X138735833Y-45940103D01*
X138735833Y-45940103D02*
X138735833Y-46047246D01*
X138735833Y-46047246D02*
X138703929Y-46190103D01*
X138703929Y-46190103D02*
X138672024Y-46261532D01*
X138672024Y-46261532D02*
X138608214Y-46332961D01*
X138608214Y-46332961D02*
X138512500Y-46368675D01*
X138512500Y-46368675D02*
X138352976Y-46368675D01*
X139310119Y-45868675D02*
X139310119Y-46368675D01*
X139150595Y-45582961D02*
X138991072Y-46118675D01*
X138991072Y-46118675D02*
X139405833Y-46118675D01*
X140139643Y-45582961D02*
X139565357Y-46547246D01*
X140650119Y-45868675D02*
X140650119Y-46368675D01*
X140490595Y-45582961D02*
X140331072Y-46118675D01*
X140331072Y-46118675D02*
X140745833Y-46118675D01*
X156285095Y-36604175D02*
X156061762Y-36247032D01*
X155902238Y-36604175D02*
X155902238Y-35854175D01*
X155902238Y-35854175D02*
X156157476Y-35854175D01*
X156157476Y-35854175D02*
X156221286Y-35889889D01*
X156221286Y-35889889D02*
X156253191Y-35925603D01*
X156253191Y-35925603D02*
X156285095Y-35997032D01*
X156285095Y-35997032D02*
X156285095Y-36104175D01*
X156285095Y-36104175D02*
X156253191Y-36175603D01*
X156253191Y-36175603D02*
X156221286Y-36211318D01*
X156221286Y-36211318D02*
X156157476Y-36247032D01*
X156157476Y-36247032D02*
X155902238Y-36247032D01*
X156540334Y-36568461D02*
X156636048Y-36604175D01*
X156636048Y-36604175D02*
X156795572Y-36604175D01*
X156795572Y-36604175D02*
X156859381Y-36568461D01*
X156859381Y-36568461D02*
X156891286Y-36532746D01*
X156891286Y-36532746D02*
X156923191Y-36461318D01*
X156923191Y-36461318D02*
X156923191Y-36389889D01*
X156923191Y-36389889D02*
X156891286Y-36318461D01*
X156891286Y-36318461D02*
X156859381Y-36282746D01*
X156859381Y-36282746D02*
X156795572Y-36247032D01*
X156795572Y-36247032D02*
X156667953Y-36211318D01*
X156667953Y-36211318D02*
X156604143Y-36175603D01*
X156604143Y-36175603D02*
X156572238Y-36139889D01*
X156572238Y-36139889D02*
X156540334Y-36068461D01*
X156540334Y-36068461D02*
X156540334Y-35997032D01*
X156540334Y-35997032D02*
X156572238Y-35925603D01*
X156572238Y-35925603D02*
X156604143Y-35889889D01*
X156604143Y-35889889D02*
X156667953Y-35854175D01*
X156667953Y-35854175D02*
X156827476Y-35854175D01*
X156827476Y-35854175D02*
X156923191Y-35889889D01*
X157114619Y-35854175D02*
X157497476Y-35854175D01*
X157306048Y-36604175D02*
X157306048Y-35854175D01*
X165559881Y-53595818D02*
X165783215Y-53595818D01*
X165878929Y-53988675D02*
X165559881Y-53988675D01*
X165559881Y-53988675D02*
X165559881Y-53238675D01*
X165559881Y-53238675D02*
X165878929Y-53238675D01*
X166453214Y-53238675D02*
X166325595Y-53238675D01*
X166325595Y-53238675D02*
X166261786Y-53274389D01*
X166261786Y-53274389D02*
X166229881Y-53310103D01*
X166229881Y-53310103D02*
X166166071Y-53417246D01*
X166166071Y-53417246D02*
X166134167Y-53560103D01*
X166134167Y-53560103D02*
X166134167Y-53845818D01*
X166134167Y-53845818D02*
X166166071Y-53917246D01*
X166166071Y-53917246D02*
X166197976Y-53952961D01*
X166197976Y-53952961D02*
X166261786Y-53988675D01*
X166261786Y-53988675D02*
X166389405Y-53988675D01*
X166389405Y-53988675D02*
X166453214Y-53952961D01*
X166453214Y-53952961D02*
X166485119Y-53917246D01*
X166485119Y-53917246D02*
X166517024Y-53845818D01*
X166517024Y-53845818D02*
X166517024Y-53667246D01*
X166517024Y-53667246D02*
X166485119Y-53595818D01*
X166485119Y-53595818D02*
X166453214Y-53560103D01*
X166453214Y-53560103D02*
X166389405Y-53524389D01*
X166389405Y-53524389D02*
X166261786Y-53524389D01*
X166261786Y-53524389D02*
X166197976Y-53560103D01*
X166197976Y-53560103D02*
X166166071Y-53595818D01*
X166166071Y-53595818D02*
X166134167Y-53667246D01*
X167282738Y-53202961D02*
X166708452Y-54167246D01*
X167442262Y-53238675D02*
X167888928Y-53238675D01*
X167888928Y-53238675D02*
X167601786Y-53988675D01*
X155758666Y-38330675D02*
X155981999Y-39080675D01*
X155981999Y-39080675D02*
X156205333Y-38330675D01*
X156811523Y-39009246D02*
X156779619Y-39044961D01*
X156779619Y-39044961D02*
X156683904Y-39080675D01*
X156683904Y-39080675D02*
X156620095Y-39080675D01*
X156620095Y-39080675D02*
X156524381Y-39044961D01*
X156524381Y-39044961D02*
X156460571Y-38973532D01*
X156460571Y-38973532D02*
X156428666Y-38902103D01*
X156428666Y-38902103D02*
X156396762Y-38759246D01*
X156396762Y-38759246D02*
X156396762Y-38652103D01*
X156396762Y-38652103D02*
X156428666Y-38509246D01*
X156428666Y-38509246D02*
X156460571Y-38437818D01*
X156460571Y-38437818D02*
X156524381Y-38366389D01*
X156524381Y-38366389D02*
X156620095Y-38330675D01*
X156620095Y-38330675D02*
X156683904Y-38330675D01*
X156683904Y-38330675D02*
X156779619Y-38366389D01*
X156779619Y-38366389D02*
X156811523Y-38402103D01*
X157481523Y-39009246D02*
X157449619Y-39044961D01*
X157449619Y-39044961D02*
X157353904Y-39080675D01*
X157353904Y-39080675D02*
X157290095Y-39080675D01*
X157290095Y-39080675D02*
X157194381Y-39044961D01*
X157194381Y-39044961D02*
X157130571Y-38973532D01*
X157130571Y-38973532D02*
X157098666Y-38902103D01*
X157098666Y-38902103D02*
X157066762Y-38759246D01*
X157066762Y-38759246D02*
X157066762Y-38652103D01*
X157066762Y-38652103D02*
X157098666Y-38509246D01*
X157098666Y-38509246D02*
X157130571Y-38437818D01*
X157130571Y-38437818D02*
X157194381Y-38366389D01*
X157194381Y-38366389D02*
X157290095Y-38330675D01*
X157290095Y-38330675D02*
X157353904Y-38330675D01*
X157353904Y-38330675D02*
X157449619Y-38366389D01*
X157449619Y-38366389D02*
X157481523Y-38402103D01*
X165751310Y-56145818D02*
X165847024Y-56181532D01*
X165847024Y-56181532D02*
X165878929Y-56217246D01*
X165878929Y-56217246D02*
X165910833Y-56288675D01*
X165910833Y-56288675D02*
X165910833Y-56395818D01*
X165910833Y-56395818D02*
X165878929Y-56467246D01*
X165878929Y-56467246D02*
X165847024Y-56502961D01*
X165847024Y-56502961D02*
X165783214Y-56538675D01*
X165783214Y-56538675D02*
X165527976Y-56538675D01*
X165527976Y-56538675D02*
X165527976Y-55788675D01*
X165527976Y-55788675D02*
X165751310Y-55788675D01*
X165751310Y-55788675D02*
X165815119Y-55824389D01*
X165815119Y-55824389D02*
X165847024Y-55860103D01*
X165847024Y-55860103D02*
X165878929Y-55931532D01*
X165878929Y-55931532D02*
X165878929Y-56002961D01*
X165878929Y-56002961D02*
X165847024Y-56074389D01*
X165847024Y-56074389D02*
X165815119Y-56110103D01*
X165815119Y-56110103D02*
X165751310Y-56145818D01*
X165751310Y-56145818D02*
X165527976Y-56145818D01*
X166485119Y-56038675D02*
X166485119Y-56538675D01*
X166325595Y-55752961D02*
X166166072Y-56288675D01*
X166166072Y-56288675D02*
X166580833Y-56288675D01*
X167314643Y-55752961D02*
X166740357Y-56717246D01*
X167633691Y-56110103D02*
X167569881Y-56074389D01*
X167569881Y-56074389D02*
X167537976Y-56038675D01*
X167537976Y-56038675D02*
X167506072Y-55967246D01*
X167506072Y-55967246D02*
X167506072Y-55931532D01*
X167506072Y-55931532D02*
X167537976Y-55860103D01*
X167537976Y-55860103D02*
X167569881Y-55824389D01*
X167569881Y-55824389D02*
X167633691Y-55788675D01*
X167633691Y-55788675D02*
X167761310Y-55788675D01*
X167761310Y-55788675D02*
X167825119Y-55824389D01*
X167825119Y-55824389D02*
X167857024Y-55860103D01*
X167857024Y-55860103D02*
X167888929Y-55931532D01*
X167888929Y-55931532D02*
X167888929Y-55967246D01*
X167888929Y-55967246D02*
X167857024Y-56038675D01*
X167857024Y-56038675D02*
X167825119Y-56074389D01*
X167825119Y-56074389D02*
X167761310Y-56110103D01*
X167761310Y-56110103D02*
X167633691Y-56110103D01*
X167633691Y-56110103D02*
X167569881Y-56145818D01*
X167569881Y-56145818D02*
X167537976Y-56181532D01*
X167537976Y-56181532D02*
X167506072Y-56252961D01*
X167506072Y-56252961D02*
X167506072Y-56395818D01*
X167506072Y-56395818D02*
X167537976Y-56467246D01*
X167537976Y-56467246D02*
X167569881Y-56502961D01*
X167569881Y-56502961D02*
X167633691Y-56538675D01*
X167633691Y-56538675D02*
X167761310Y-56538675D01*
X167761310Y-56538675D02*
X167825119Y-56502961D01*
X167825119Y-56502961D02*
X167857024Y-56467246D01*
X167857024Y-56467246D02*
X167888929Y-56395818D01*
X167888929Y-56395818D02*
X167888929Y-56252961D01*
X167888929Y-56252961D02*
X167857024Y-56181532D01*
X167857024Y-56181532D02*
X167825119Y-56145818D01*
X167825119Y-56145818D02*
X167761310Y-56110103D01*
X164403690Y-31288675D02*
X164403690Y-30538675D01*
X164403690Y-30538675D02*
X164563214Y-30538675D01*
X164563214Y-30538675D02*
X164658928Y-30574389D01*
X164658928Y-30574389D02*
X164722738Y-30645818D01*
X164722738Y-30645818D02*
X164754643Y-30717246D01*
X164754643Y-30717246D02*
X164786547Y-30860103D01*
X164786547Y-30860103D02*
X164786547Y-30967246D01*
X164786547Y-30967246D02*
X164754643Y-31110103D01*
X164754643Y-31110103D02*
X164722738Y-31181532D01*
X164722738Y-31181532D02*
X164658928Y-31252961D01*
X164658928Y-31252961D02*
X164563214Y-31288675D01*
X164563214Y-31288675D02*
X164403690Y-31288675D01*
X165009881Y-30538675D02*
X165424643Y-30538675D01*
X165424643Y-30538675D02*
X165201309Y-30824389D01*
X165201309Y-30824389D02*
X165297024Y-30824389D01*
X165297024Y-30824389D02*
X165360833Y-30860103D01*
X165360833Y-30860103D02*
X165392738Y-30895818D01*
X165392738Y-30895818D02*
X165424643Y-30967246D01*
X165424643Y-30967246D02*
X165424643Y-31145818D01*
X165424643Y-31145818D02*
X165392738Y-31217246D01*
X165392738Y-31217246D02*
X165360833Y-31252961D01*
X165360833Y-31252961D02*
X165297024Y-31288675D01*
X165297024Y-31288675D02*
X165105595Y-31288675D01*
X165105595Y-31288675D02*
X165041786Y-31252961D01*
X165041786Y-31252961D02*
X165009881Y-31217246D01*
X166190357Y-30502961D02*
X165616071Y-31467246D01*
X166317976Y-30538675D02*
X166700833Y-30538675D01*
X166509405Y-31288675D02*
X166509405Y-30538675D01*
X166860357Y-30538675D02*
X167307023Y-31288675D01*
X167307023Y-30538675D02*
X166860357Y-31288675D01*
X167689880Y-30538675D02*
X167753690Y-30538675D01*
X167753690Y-30538675D02*
X167817499Y-30574389D01*
X167817499Y-30574389D02*
X167849404Y-30610103D01*
X167849404Y-30610103D02*
X167881309Y-30681532D01*
X167881309Y-30681532D02*
X167913214Y-30824389D01*
X167913214Y-30824389D02*
X167913214Y-31002961D01*
X167913214Y-31002961D02*
X167881309Y-31145818D01*
X167881309Y-31145818D02*
X167849404Y-31217246D01*
X167849404Y-31217246D02*
X167817499Y-31252961D01*
X167817499Y-31252961D02*
X167753690Y-31288675D01*
X167753690Y-31288675D02*
X167689880Y-31288675D01*
X167689880Y-31288675D02*
X167626071Y-31252961D01*
X167626071Y-31252961D02*
X167594166Y-31217246D01*
X167594166Y-31217246D02*
X167562261Y-31145818D01*
X167562261Y-31145818D02*
X167530357Y-31002961D01*
X167530357Y-31002961D02*
X167530357Y-30824389D01*
X167530357Y-30824389D02*
X167562261Y-30681532D01*
X167562261Y-30681532D02*
X167594166Y-30610103D01*
X167594166Y-30610103D02*
X167626071Y-30574389D01*
X167626071Y-30574389D02*
X167689880Y-30538675D01*
X156257024Y-33084389D02*
X156193214Y-33048675D01*
X156193214Y-33048675D02*
X156097500Y-33048675D01*
X156097500Y-33048675D02*
X156001786Y-33084389D01*
X156001786Y-33084389D02*
X155937976Y-33155818D01*
X155937976Y-33155818D02*
X155906071Y-33227246D01*
X155906071Y-33227246D02*
X155874167Y-33370103D01*
X155874167Y-33370103D02*
X155874167Y-33477246D01*
X155874167Y-33477246D02*
X155906071Y-33620103D01*
X155906071Y-33620103D02*
X155937976Y-33691532D01*
X155937976Y-33691532D02*
X156001786Y-33762961D01*
X156001786Y-33762961D02*
X156097500Y-33798675D01*
X156097500Y-33798675D02*
X156161309Y-33798675D01*
X156161309Y-33798675D02*
X156257024Y-33762961D01*
X156257024Y-33762961D02*
X156288928Y-33727246D01*
X156288928Y-33727246D02*
X156288928Y-33477246D01*
X156288928Y-33477246D02*
X156161309Y-33477246D01*
X156576071Y-33798675D02*
X156576071Y-33048675D01*
X156576071Y-33048675D02*
X156958928Y-33798675D01*
X156958928Y-33798675D02*
X156958928Y-33048675D01*
X157277976Y-33798675D02*
X157277976Y-33048675D01*
X157277976Y-33048675D02*
X157437500Y-33048675D01*
X157437500Y-33048675D02*
X157533214Y-33084389D01*
X157533214Y-33084389D02*
X157597024Y-33155818D01*
X157597024Y-33155818D02*
X157628929Y-33227246D01*
X157628929Y-33227246D02*
X157660833Y-33370103D01*
X157660833Y-33370103D02*
X157660833Y-33477246D01*
X157660833Y-33477246D02*
X157628929Y-33620103D01*
X157628929Y-33620103D02*
X157597024Y-33691532D01*
X157597024Y-33691532D02*
X157533214Y-33762961D01*
X157533214Y-33762961D02*
X157437500Y-33798675D01*
X157437500Y-33798675D02*
X157277976Y-33798675D01*
X156459881Y-51588675D02*
X156077024Y-51588675D01*
X156268452Y-51588675D02*
X156268452Y-50838675D01*
X156268452Y-50838675D02*
X156204643Y-50945818D01*
X156204643Y-50945818D02*
X156140833Y-51017246D01*
X156140833Y-51017246D02*
X156077024Y-51052961D01*
X157066071Y-50838675D02*
X156747023Y-50838675D01*
X156747023Y-50838675D02*
X156715119Y-51195818D01*
X156715119Y-51195818D02*
X156747023Y-51160103D01*
X156747023Y-51160103D02*
X156810833Y-51124389D01*
X156810833Y-51124389D02*
X156970357Y-51124389D01*
X156970357Y-51124389D02*
X157034166Y-51160103D01*
X157034166Y-51160103D02*
X157066071Y-51195818D01*
X157066071Y-51195818D02*
X157097976Y-51267246D01*
X157097976Y-51267246D02*
X157097976Y-51445818D01*
X157097976Y-51445818D02*
X157066071Y-51517246D01*
X157066071Y-51517246D02*
X157034166Y-51552961D01*
X157034166Y-51552961D02*
X156970357Y-51588675D01*
X156970357Y-51588675D02*
X156810833Y-51588675D01*
X156810833Y-51588675D02*
X156747023Y-51552961D01*
X156747023Y-51552961D02*
X156715119Y-51517246D01*
X157863690Y-50802961D02*
X157289404Y-51767246D01*
X158310357Y-51195818D02*
X158406071Y-51231532D01*
X158406071Y-51231532D02*
X158437976Y-51267246D01*
X158437976Y-51267246D02*
X158469880Y-51338675D01*
X158469880Y-51338675D02*
X158469880Y-51445818D01*
X158469880Y-51445818D02*
X158437976Y-51517246D01*
X158437976Y-51517246D02*
X158406071Y-51552961D01*
X158406071Y-51552961D02*
X158342261Y-51588675D01*
X158342261Y-51588675D02*
X158087023Y-51588675D01*
X158087023Y-51588675D02*
X158087023Y-50838675D01*
X158087023Y-50838675D02*
X158310357Y-50838675D01*
X158310357Y-50838675D02*
X158374166Y-50874389D01*
X158374166Y-50874389D02*
X158406071Y-50910103D01*
X158406071Y-50910103D02*
X158437976Y-50981532D01*
X158437976Y-50981532D02*
X158437976Y-51052961D01*
X158437976Y-51052961D02*
X158406071Y-51124389D01*
X158406071Y-51124389D02*
X158374166Y-51160103D01*
X158374166Y-51160103D02*
X158310357Y-51195818D01*
X158310357Y-51195818D02*
X158087023Y-51195818D01*
X159107976Y-51588675D02*
X158725119Y-51588675D01*
X158916547Y-51588675D02*
X158916547Y-50838675D01*
X158916547Y-50838675D02*
X158852738Y-50945818D01*
X158852738Y-50945818D02*
X158788928Y-51017246D01*
X158788928Y-51017246D02*
X158725119Y-51052961D01*
X156156786Y-43774389D02*
X156475833Y-43774389D01*
X156092976Y-43988675D02*
X156316309Y-43238675D01*
X156316309Y-43238675D02*
X156539643Y-43988675D01*
X156731072Y-43310103D02*
X156762976Y-43274389D01*
X156762976Y-43274389D02*
X156826786Y-43238675D01*
X156826786Y-43238675D02*
X156986310Y-43238675D01*
X156986310Y-43238675D02*
X157050119Y-43274389D01*
X157050119Y-43274389D02*
X157082024Y-43310103D01*
X157082024Y-43310103D02*
X157113929Y-43381532D01*
X157113929Y-43381532D02*
X157113929Y-43452961D01*
X157113929Y-43452961D02*
X157082024Y-43560103D01*
X157082024Y-43560103D02*
X156699167Y-43988675D01*
X156699167Y-43988675D02*
X157113929Y-43988675D01*
X157879643Y-43202961D02*
X157305357Y-44167246D01*
X158326310Y-43595818D02*
X158102976Y-43595818D01*
X158102976Y-43988675D02*
X158102976Y-43238675D01*
X158102976Y-43238675D02*
X158422024Y-43238675D01*
X158996310Y-43238675D02*
X158677262Y-43238675D01*
X158677262Y-43238675D02*
X158645358Y-43595818D01*
X158645358Y-43595818D02*
X158677262Y-43560103D01*
X158677262Y-43560103D02*
X158741072Y-43524389D01*
X158741072Y-43524389D02*
X158900596Y-43524389D01*
X158900596Y-43524389D02*
X158964405Y-43560103D01*
X158964405Y-43560103D02*
X158996310Y-43595818D01*
X158996310Y-43595818D02*
X159028215Y-43667246D01*
X159028215Y-43667246D02*
X159028215Y-43845818D01*
X159028215Y-43845818D02*
X158996310Y-43917246D01*
X158996310Y-43917246D02*
X158964405Y-43952961D01*
X158964405Y-43952961D02*
X158900596Y-43988675D01*
X158900596Y-43988675D02*
X158741072Y-43988675D01*
X158741072Y-43988675D02*
X158677262Y-43952961D01*
X158677262Y-43952961D02*
X158645358Y-43917246D01*
X166432024Y-38124389D02*
X166368214Y-38088675D01*
X166368214Y-38088675D02*
X166272500Y-38088675D01*
X166272500Y-38088675D02*
X166176786Y-38124389D01*
X166176786Y-38124389D02*
X166112976Y-38195818D01*
X166112976Y-38195818D02*
X166081071Y-38267246D01*
X166081071Y-38267246D02*
X166049167Y-38410103D01*
X166049167Y-38410103D02*
X166049167Y-38517246D01*
X166049167Y-38517246D02*
X166081071Y-38660103D01*
X166081071Y-38660103D02*
X166112976Y-38731532D01*
X166112976Y-38731532D02*
X166176786Y-38802961D01*
X166176786Y-38802961D02*
X166272500Y-38838675D01*
X166272500Y-38838675D02*
X166336309Y-38838675D01*
X166336309Y-38838675D02*
X166432024Y-38802961D01*
X166432024Y-38802961D02*
X166463928Y-38767246D01*
X166463928Y-38767246D02*
X166463928Y-38517246D01*
X166463928Y-38517246D02*
X166336309Y-38517246D01*
X166751071Y-38838675D02*
X166751071Y-38088675D01*
X166751071Y-38088675D02*
X167133928Y-38838675D01*
X167133928Y-38838675D02*
X167133928Y-38088675D01*
X167452976Y-38838675D02*
X167452976Y-38088675D01*
X167452976Y-38088675D02*
X167612500Y-38088675D01*
X167612500Y-38088675D02*
X167708214Y-38124389D01*
X167708214Y-38124389D02*
X167772024Y-38195818D01*
X167772024Y-38195818D02*
X167803929Y-38267246D01*
X167803929Y-38267246D02*
X167835833Y-38410103D01*
X167835833Y-38410103D02*
X167835833Y-38517246D01*
X167835833Y-38517246D02*
X167803929Y-38660103D01*
X167803929Y-38660103D02*
X167772024Y-38731532D01*
X167772024Y-38731532D02*
X167708214Y-38802961D01*
X167708214Y-38802961D02*
X167612500Y-38838675D01*
X167612500Y-38838675D02*
X167452976Y-38838675D01*
X156189380Y-31460675D02*
X155966047Y-31103532D01*
X155806523Y-31460675D02*
X155806523Y-30710675D01*
X155806523Y-30710675D02*
X156061761Y-30710675D01*
X156061761Y-30710675D02*
X156125571Y-30746389D01*
X156125571Y-30746389D02*
X156157476Y-30782103D01*
X156157476Y-30782103D02*
X156189380Y-30853532D01*
X156189380Y-30853532D02*
X156189380Y-30960675D01*
X156189380Y-30960675D02*
X156157476Y-31032103D01*
X156157476Y-31032103D02*
X156125571Y-31067818D01*
X156125571Y-31067818D02*
X156061761Y-31103532D01*
X156061761Y-31103532D02*
X155806523Y-31103532D01*
X156444619Y-31246389D02*
X156763666Y-31246389D01*
X156380809Y-31460675D02*
X156604142Y-30710675D01*
X156604142Y-30710675D02*
X156827476Y-31460675D01*
X156987000Y-30710675D02*
X157146524Y-31460675D01*
X157146524Y-31460675D02*
X157274143Y-30924961D01*
X157274143Y-30924961D02*
X157401762Y-31460675D01*
X157401762Y-31460675D02*
X157561286Y-30710675D01*
X165527976Y-51438675D02*
X165527976Y-50688675D01*
X165527976Y-50688675D02*
X165687500Y-50688675D01*
X165687500Y-50688675D02*
X165783214Y-50724389D01*
X165783214Y-50724389D02*
X165847024Y-50795818D01*
X165847024Y-50795818D02*
X165878929Y-50867246D01*
X165878929Y-50867246D02*
X165910833Y-51010103D01*
X165910833Y-51010103D02*
X165910833Y-51117246D01*
X165910833Y-51117246D02*
X165878929Y-51260103D01*
X165878929Y-51260103D02*
X165847024Y-51331532D01*
X165847024Y-51331532D02*
X165783214Y-51402961D01*
X165783214Y-51402961D02*
X165687500Y-51438675D01*
X165687500Y-51438675D02*
X165527976Y-51438675D01*
X166134167Y-50688675D02*
X166580833Y-50688675D01*
X166580833Y-50688675D02*
X166293691Y-51438675D01*
X167314643Y-50652961D02*
X166740357Y-51617246D01*
X167825119Y-50688675D02*
X167697500Y-50688675D01*
X167697500Y-50688675D02*
X167633691Y-50724389D01*
X167633691Y-50724389D02*
X167601786Y-50760103D01*
X167601786Y-50760103D02*
X167537976Y-50867246D01*
X167537976Y-50867246D02*
X167506072Y-51010103D01*
X167506072Y-51010103D02*
X167506072Y-51295818D01*
X167506072Y-51295818D02*
X167537976Y-51367246D01*
X167537976Y-51367246D02*
X167569881Y-51402961D01*
X167569881Y-51402961D02*
X167633691Y-51438675D01*
X167633691Y-51438675D02*
X167761310Y-51438675D01*
X167761310Y-51438675D02*
X167825119Y-51402961D01*
X167825119Y-51402961D02*
X167857024Y-51367246D01*
X167857024Y-51367246D02*
X167888929Y-51295818D01*
X167888929Y-51295818D02*
X167888929Y-51117246D01*
X167888929Y-51117246D02*
X167857024Y-51045818D01*
X167857024Y-51045818D02*
X167825119Y-51010103D01*
X167825119Y-51010103D02*
X167761310Y-50974389D01*
X167761310Y-50974389D02*
X167633691Y-50974389D01*
X167633691Y-50974389D02*
X167569881Y-51010103D01*
X167569881Y-51010103D02*
X167537976Y-51045818D01*
X167537976Y-51045818D02*
X167506072Y-51117246D01*
X165910833Y-48817246D02*
X165878929Y-48852961D01*
X165878929Y-48852961D02*
X165783214Y-48888675D01*
X165783214Y-48888675D02*
X165719405Y-48888675D01*
X165719405Y-48888675D02*
X165623691Y-48852961D01*
X165623691Y-48852961D02*
X165559881Y-48781532D01*
X165559881Y-48781532D02*
X165527976Y-48710103D01*
X165527976Y-48710103D02*
X165496072Y-48567246D01*
X165496072Y-48567246D02*
X165496072Y-48460103D01*
X165496072Y-48460103D02*
X165527976Y-48317246D01*
X165527976Y-48317246D02*
X165559881Y-48245818D01*
X165559881Y-48245818D02*
X165623691Y-48174389D01*
X165623691Y-48174389D02*
X165719405Y-48138675D01*
X165719405Y-48138675D02*
X165783214Y-48138675D01*
X165783214Y-48138675D02*
X165878929Y-48174389D01*
X165878929Y-48174389D02*
X165910833Y-48210103D01*
X166485119Y-48138675D02*
X166357500Y-48138675D01*
X166357500Y-48138675D02*
X166293691Y-48174389D01*
X166293691Y-48174389D02*
X166261786Y-48210103D01*
X166261786Y-48210103D02*
X166197976Y-48317246D01*
X166197976Y-48317246D02*
X166166072Y-48460103D01*
X166166072Y-48460103D02*
X166166072Y-48745818D01*
X166166072Y-48745818D02*
X166197976Y-48817246D01*
X166197976Y-48817246D02*
X166229881Y-48852961D01*
X166229881Y-48852961D02*
X166293691Y-48888675D01*
X166293691Y-48888675D02*
X166421310Y-48888675D01*
X166421310Y-48888675D02*
X166485119Y-48852961D01*
X166485119Y-48852961D02*
X166517024Y-48817246D01*
X166517024Y-48817246D02*
X166548929Y-48745818D01*
X166548929Y-48745818D02*
X166548929Y-48567246D01*
X166548929Y-48567246D02*
X166517024Y-48495818D01*
X166517024Y-48495818D02*
X166485119Y-48460103D01*
X166485119Y-48460103D02*
X166421310Y-48424389D01*
X166421310Y-48424389D02*
X166293691Y-48424389D01*
X166293691Y-48424389D02*
X166229881Y-48460103D01*
X166229881Y-48460103D02*
X166197976Y-48495818D01*
X166197976Y-48495818D02*
X166166072Y-48567246D01*
X167314643Y-48102961D02*
X166740357Y-49067246D01*
X167857024Y-48138675D02*
X167537976Y-48138675D01*
X167537976Y-48138675D02*
X167506072Y-48495818D01*
X167506072Y-48495818D02*
X167537976Y-48460103D01*
X167537976Y-48460103D02*
X167601786Y-48424389D01*
X167601786Y-48424389D02*
X167761310Y-48424389D01*
X167761310Y-48424389D02*
X167825119Y-48460103D01*
X167825119Y-48460103D02*
X167857024Y-48495818D01*
X167857024Y-48495818D02*
X167888929Y-48567246D01*
X167888929Y-48567246D02*
X167888929Y-48745818D01*
X167888929Y-48745818D02*
X167857024Y-48817246D01*
X167857024Y-48817246D02*
X167825119Y-48852961D01*
X167825119Y-48852961D02*
X167761310Y-48888675D01*
X167761310Y-48888675D02*
X167601786Y-48888675D01*
X167601786Y-48888675D02*
X167537976Y-48852961D01*
X167537976Y-48852961D02*
X167506072Y-48817246D01*
X156156786Y-41274389D02*
X156475833Y-41274389D01*
X156092976Y-41488675D02*
X156316309Y-40738675D01*
X156316309Y-40738675D02*
X156539643Y-41488675D01*
X156699167Y-40738675D02*
X157113929Y-40738675D01*
X157113929Y-40738675D02*
X156890595Y-41024389D01*
X156890595Y-41024389D02*
X156986310Y-41024389D01*
X156986310Y-41024389D02*
X157050119Y-41060103D01*
X157050119Y-41060103D02*
X157082024Y-41095818D01*
X157082024Y-41095818D02*
X157113929Y-41167246D01*
X157113929Y-41167246D02*
X157113929Y-41345818D01*
X157113929Y-41345818D02*
X157082024Y-41417246D01*
X157082024Y-41417246D02*
X157050119Y-41452961D01*
X157050119Y-41452961D02*
X156986310Y-41488675D01*
X156986310Y-41488675D02*
X156794881Y-41488675D01*
X156794881Y-41488675D02*
X156731072Y-41452961D01*
X156731072Y-41452961D02*
X156699167Y-41417246D01*
X157879643Y-40702961D02*
X157305357Y-41667246D01*
X158326310Y-41095818D02*
X158102976Y-41095818D01*
X158102976Y-41488675D02*
X158102976Y-40738675D01*
X158102976Y-40738675D02*
X158422024Y-40738675D01*
X158964405Y-40988675D02*
X158964405Y-41488675D01*
X158804881Y-40702961D02*
X158645358Y-41238675D01*
X158645358Y-41238675D02*
X159060119Y-41238675D01*
X156459881Y-56688675D02*
X156077024Y-56688675D01*
X156268452Y-56688675D02*
X156268452Y-55938675D01*
X156268452Y-55938675D02*
X156204643Y-56045818D01*
X156204643Y-56045818D02*
X156140833Y-56117246D01*
X156140833Y-56117246D02*
X156077024Y-56152961D01*
X157034166Y-55938675D02*
X156906547Y-55938675D01*
X156906547Y-55938675D02*
X156842738Y-55974389D01*
X156842738Y-55974389D02*
X156810833Y-56010103D01*
X156810833Y-56010103D02*
X156747023Y-56117246D01*
X156747023Y-56117246D02*
X156715119Y-56260103D01*
X156715119Y-56260103D02*
X156715119Y-56545818D01*
X156715119Y-56545818D02*
X156747023Y-56617246D01*
X156747023Y-56617246D02*
X156778928Y-56652961D01*
X156778928Y-56652961D02*
X156842738Y-56688675D01*
X156842738Y-56688675D02*
X156970357Y-56688675D01*
X156970357Y-56688675D02*
X157034166Y-56652961D01*
X157034166Y-56652961D02*
X157066071Y-56617246D01*
X157066071Y-56617246D02*
X157097976Y-56545818D01*
X157097976Y-56545818D02*
X157097976Y-56367246D01*
X157097976Y-56367246D02*
X157066071Y-56295818D01*
X157066071Y-56295818D02*
X157034166Y-56260103D01*
X157034166Y-56260103D02*
X156970357Y-56224389D01*
X156970357Y-56224389D02*
X156842738Y-56224389D01*
X156842738Y-56224389D02*
X156778928Y-56260103D01*
X156778928Y-56260103D02*
X156747023Y-56295818D01*
X156747023Y-56295818D02*
X156715119Y-56367246D01*
X157863690Y-55902961D02*
X157289404Y-56867246D01*
X158310357Y-56295818D02*
X158406071Y-56331532D01*
X158406071Y-56331532D02*
X158437976Y-56367246D01*
X158437976Y-56367246D02*
X158469880Y-56438675D01*
X158469880Y-56438675D02*
X158469880Y-56545818D01*
X158469880Y-56545818D02*
X158437976Y-56617246D01*
X158437976Y-56617246D02*
X158406071Y-56652961D01*
X158406071Y-56652961D02*
X158342261Y-56688675D01*
X158342261Y-56688675D02*
X158087023Y-56688675D01*
X158087023Y-56688675D02*
X158087023Y-55938675D01*
X158087023Y-55938675D02*
X158310357Y-55938675D01*
X158310357Y-55938675D02*
X158374166Y-55974389D01*
X158374166Y-55974389D02*
X158406071Y-56010103D01*
X158406071Y-56010103D02*
X158437976Y-56081532D01*
X158437976Y-56081532D02*
X158437976Y-56152961D01*
X158437976Y-56152961D02*
X158406071Y-56224389D01*
X158406071Y-56224389D02*
X158374166Y-56260103D01*
X158374166Y-56260103D02*
X158310357Y-56295818D01*
X158310357Y-56295818D02*
X158087023Y-56295818D01*
X158725119Y-56010103D02*
X158757023Y-55974389D01*
X158757023Y-55974389D02*
X158820833Y-55938675D01*
X158820833Y-55938675D02*
X158980357Y-55938675D01*
X158980357Y-55938675D02*
X159044166Y-55974389D01*
X159044166Y-55974389D02*
X159076071Y-56010103D01*
X159076071Y-56010103D02*
X159107976Y-56081532D01*
X159107976Y-56081532D02*
X159107976Y-56152961D01*
X159107976Y-56152961D02*
X159076071Y-56260103D01*
X159076071Y-56260103D02*
X158693214Y-56688675D01*
X158693214Y-56688675D02*
X159107976Y-56688675D01*
X164323928Y-33838675D02*
X164323928Y-33088675D01*
X164323928Y-33088675D02*
X164483452Y-33088675D01*
X164483452Y-33088675D02*
X164579166Y-33124389D01*
X164579166Y-33124389D02*
X164642976Y-33195818D01*
X164642976Y-33195818D02*
X164674881Y-33267246D01*
X164674881Y-33267246D02*
X164706785Y-33410103D01*
X164706785Y-33410103D02*
X164706785Y-33517246D01*
X164706785Y-33517246D02*
X164674881Y-33660103D01*
X164674881Y-33660103D02*
X164642976Y-33731532D01*
X164642976Y-33731532D02*
X164579166Y-33802961D01*
X164579166Y-33802961D02*
X164483452Y-33838675D01*
X164483452Y-33838675D02*
X164323928Y-33838675D01*
X164962024Y-33160103D02*
X164993928Y-33124389D01*
X164993928Y-33124389D02*
X165057738Y-33088675D01*
X165057738Y-33088675D02*
X165217262Y-33088675D01*
X165217262Y-33088675D02*
X165281071Y-33124389D01*
X165281071Y-33124389D02*
X165312976Y-33160103D01*
X165312976Y-33160103D02*
X165344881Y-33231532D01*
X165344881Y-33231532D02*
X165344881Y-33302961D01*
X165344881Y-33302961D02*
X165312976Y-33410103D01*
X165312976Y-33410103D02*
X164930119Y-33838675D01*
X164930119Y-33838675D02*
X165344881Y-33838675D01*
X166110595Y-33052961D02*
X165536309Y-34017246D01*
X166716785Y-33838675D02*
X166493452Y-33481532D01*
X166333928Y-33838675D02*
X166333928Y-33088675D01*
X166333928Y-33088675D02*
X166589166Y-33088675D01*
X166589166Y-33088675D02*
X166652976Y-33124389D01*
X166652976Y-33124389D02*
X166684881Y-33160103D01*
X166684881Y-33160103D02*
X166716785Y-33231532D01*
X166716785Y-33231532D02*
X166716785Y-33338675D01*
X166716785Y-33338675D02*
X166684881Y-33410103D01*
X166684881Y-33410103D02*
X166652976Y-33445818D01*
X166652976Y-33445818D02*
X166589166Y-33481532D01*
X166589166Y-33481532D02*
X166333928Y-33481532D01*
X166940119Y-33088675D02*
X167386785Y-33838675D01*
X167386785Y-33088675D02*
X166940119Y-33838675D01*
X167992976Y-33838675D02*
X167610119Y-33838675D01*
X167801547Y-33838675D02*
X167801547Y-33088675D01*
X167801547Y-33088675D02*
X167737738Y-33195818D01*
X167737738Y-33195818D02*
X167673928Y-33267246D01*
X167673928Y-33267246D02*
X167610119Y-33302961D01*
X161092023Y-26038675D02*
X161092023Y-26645818D01*
X161092023Y-26645818D02*
X161123928Y-26717246D01*
X161123928Y-26717246D02*
X161155833Y-26752961D01*
X161155833Y-26752961D02*
X161219642Y-26788675D01*
X161219642Y-26788675D02*
X161347261Y-26788675D01*
X161347261Y-26788675D02*
X161411071Y-26752961D01*
X161411071Y-26752961D02*
X161442976Y-26717246D01*
X161442976Y-26717246D02*
X161474880Y-26645818D01*
X161474880Y-26645818D02*
X161474880Y-26038675D01*
X161762024Y-26752961D02*
X161857738Y-26788675D01*
X161857738Y-26788675D02*
X162017262Y-26788675D01*
X162017262Y-26788675D02*
X162081071Y-26752961D01*
X162081071Y-26752961D02*
X162112976Y-26717246D01*
X162112976Y-26717246D02*
X162144881Y-26645818D01*
X162144881Y-26645818D02*
X162144881Y-26574389D01*
X162144881Y-26574389D02*
X162112976Y-26502961D01*
X162112976Y-26502961D02*
X162081071Y-26467246D01*
X162081071Y-26467246D02*
X162017262Y-26431532D01*
X162017262Y-26431532D02*
X161889643Y-26395818D01*
X161889643Y-26395818D02*
X161825833Y-26360103D01*
X161825833Y-26360103D02*
X161793928Y-26324389D01*
X161793928Y-26324389D02*
X161762024Y-26252961D01*
X161762024Y-26252961D02*
X161762024Y-26181532D01*
X161762024Y-26181532D02*
X161793928Y-26110103D01*
X161793928Y-26110103D02*
X161825833Y-26074389D01*
X161825833Y-26074389D02*
X161889643Y-26038675D01*
X161889643Y-26038675D02*
X162049166Y-26038675D01*
X162049166Y-26038675D02*
X162144881Y-26074389D01*
X162655357Y-26395818D02*
X162751071Y-26431532D01*
X162751071Y-26431532D02*
X162782976Y-26467246D01*
X162782976Y-26467246D02*
X162814880Y-26538675D01*
X162814880Y-26538675D02*
X162814880Y-26645818D01*
X162814880Y-26645818D02*
X162782976Y-26717246D01*
X162782976Y-26717246D02*
X162751071Y-26752961D01*
X162751071Y-26752961D02*
X162687261Y-26788675D01*
X162687261Y-26788675D02*
X162432023Y-26788675D01*
X162432023Y-26788675D02*
X162432023Y-26038675D01*
X162432023Y-26038675D02*
X162655357Y-26038675D01*
X162655357Y-26038675D02*
X162719166Y-26074389D01*
X162719166Y-26074389D02*
X162751071Y-26110103D01*
X162751071Y-26110103D02*
X162782976Y-26181532D01*
X162782976Y-26181532D02*
X162782976Y-26252961D01*
X162782976Y-26252961D02*
X162751071Y-26324389D01*
X162751071Y-26324389D02*
X162719166Y-26360103D01*
X162719166Y-26360103D02*
X162655357Y-26395818D01*
X162655357Y-26395818D02*
X162432023Y-26395818D01*
X161092023Y-26038675D02*
X161092023Y-26645818D01*
X161092023Y-26645818D02*
X161123928Y-26717246D01*
X161123928Y-26717246D02*
X161155833Y-26752961D01*
X161155833Y-26752961D02*
X161219642Y-26788675D01*
X161219642Y-26788675D02*
X161347261Y-26788675D01*
X161347261Y-26788675D02*
X161411071Y-26752961D01*
X161411071Y-26752961D02*
X161442976Y-26717246D01*
X161442976Y-26717246D02*
X161474880Y-26645818D01*
X161474880Y-26645818D02*
X161474880Y-26038675D01*
X161762024Y-26752961D02*
X161857738Y-26788675D01*
X161857738Y-26788675D02*
X162017262Y-26788675D01*
X162017262Y-26788675D02*
X162081071Y-26752961D01*
X162081071Y-26752961D02*
X162112976Y-26717246D01*
X162112976Y-26717246D02*
X162144881Y-26645818D01*
X162144881Y-26645818D02*
X162144881Y-26574389D01*
X162144881Y-26574389D02*
X162112976Y-26502961D01*
X162112976Y-26502961D02*
X162081071Y-26467246D01*
X162081071Y-26467246D02*
X162017262Y-26431532D01*
X162017262Y-26431532D02*
X161889643Y-26395818D01*
X161889643Y-26395818D02*
X161825833Y-26360103D01*
X161825833Y-26360103D02*
X161793928Y-26324389D01*
X161793928Y-26324389D02*
X161762024Y-26252961D01*
X161762024Y-26252961D02*
X161762024Y-26181532D01*
X161762024Y-26181532D02*
X161793928Y-26110103D01*
X161793928Y-26110103D02*
X161825833Y-26074389D01*
X161825833Y-26074389D02*
X161889643Y-26038675D01*
X161889643Y-26038675D02*
X162049166Y-26038675D01*
X162049166Y-26038675D02*
X162144881Y-26074389D01*
X162655357Y-26395818D02*
X162751071Y-26431532D01*
X162751071Y-26431532D02*
X162782976Y-26467246D01*
X162782976Y-26467246D02*
X162814880Y-26538675D01*
X162814880Y-26538675D02*
X162814880Y-26645818D01*
X162814880Y-26645818D02*
X162782976Y-26717246D01*
X162782976Y-26717246D02*
X162751071Y-26752961D01*
X162751071Y-26752961D02*
X162687261Y-26788675D01*
X162687261Y-26788675D02*
X162432023Y-26788675D01*
X162432023Y-26788675D02*
X162432023Y-26038675D01*
X162432023Y-26038675D02*
X162655357Y-26038675D01*
X162655357Y-26038675D02*
X162719166Y-26074389D01*
X162719166Y-26074389D02*
X162751071Y-26110103D01*
X162751071Y-26110103D02*
X162782976Y-26181532D01*
X162782976Y-26181532D02*
X162782976Y-26252961D01*
X162782976Y-26252961D02*
X162751071Y-26324389D01*
X162751071Y-26324389D02*
X162719166Y-26360103D01*
X162719166Y-26360103D02*
X162655357Y-26395818D01*
X162655357Y-26395818D02*
X162432023Y-26395818D01*
X166432024Y-38124389D02*
X166368214Y-38088675D01*
X166368214Y-38088675D02*
X166272500Y-38088675D01*
X166272500Y-38088675D02*
X166176786Y-38124389D01*
X166176786Y-38124389D02*
X166112976Y-38195818D01*
X166112976Y-38195818D02*
X166081071Y-38267246D01*
X166081071Y-38267246D02*
X166049167Y-38410103D01*
X166049167Y-38410103D02*
X166049167Y-38517246D01*
X166049167Y-38517246D02*
X166081071Y-38660103D01*
X166081071Y-38660103D02*
X166112976Y-38731532D01*
X166112976Y-38731532D02*
X166176786Y-38802961D01*
X166176786Y-38802961D02*
X166272500Y-38838675D01*
X166272500Y-38838675D02*
X166336309Y-38838675D01*
X166336309Y-38838675D02*
X166432024Y-38802961D01*
X166432024Y-38802961D02*
X166463928Y-38767246D01*
X166463928Y-38767246D02*
X166463928Y-38517246D01*
X166463928Y-38517246D02*
X166336309Y-38517246D01*
X166751071Y-38838675D02*
X166751071Y-38088675D01*
X166751071Y-38088675D02*
X167133928Y-38838675D01*
X167133928Y-38838675D02*
X167133928Y-38088675D01*
X167452976Y-38838675D02*
X167452976Y-38088675D01*
X167452976Y-38088675D02*
X167612500Y-38088675D01*
X167612500Y-38088675D02*
X167708214Y-38124389D01*
X167708214Y-38124389D02*
X167772024Y-38195818D01*
X167772024Y-38195818D02*
X167803929Y-38267246D01*
X167803929Y-38267246D02*
X167835833Y-38410103D01*
X167835833Y-38410103D02*
X167835833Y-38517246D01*
X167835833Y-38517246D02*
X167803929Y-38660103D01*
X167803929Y-38660103D02*
X167772024Y-38731532D01*
X167772024Y-38731532D02*
X167708214Y-38802961D01*
X167708214Y-38802961D02*
X167612500Y-38838675D01*
X167612500Y-38838675D02*
X167452976Y-38838675D01*
X156459881Y-54138675D02*
X156077024Y-54138675D01*
X156268452Y-54138675D02*
X156268452Y-53388675D01*
X156268452Y-53388675D02*
X156204643Y-53495818D01*
X156204643Y-53495818D02*
X156140833Y-53567246D01*
X156140833Y-53567246D02*
X156077024Y-53602961D01*
X157034166Y-53638675D02*
X157034166Y-54138675D01*
X156874642Y-53352961D02*
X156715119Y-53888675D01*
X156715119Y-53888675D02*
X157129880Y-53888675D01*
X157863690Y-53352961D02*
X157289404Y-54317246D01*
X158310357Y-53745818D02*
X158406071Y-53781532D01*
X158406071Y-53781532D02*
X158437976Y-53817246D01*
X158437976Y-53817246D02*
X158469880Y-53888675D01*
X158469880Y-53888675D02*
X158469880Y-53995818D01*
X158469880Y-53995818D02*
X158437976Y-54067246D01*
X158437976Y-54067246D02*
X158406071Y-54102961D01*
X158406071Y-54102961D02*
X158342261Y-54138675D01*
X158342261Y-54138675D02*
X158087023Y-54138675D01*
X158087023Y-54138675D02*
X158087023Y-53388675D01*
X158087023Y-53388675D02*
X158310357Y-53388675D01*
X158310357Y-53388675D02*
X158374166Y-53424389D01*
X158374166Y-53424389D02*
X158406071Y-53460103D01*
X158406071Y-53460103D02*
X158437976Y-53531532D01*
X158437976Y-53531532D02*
X158437976Y-53602961D01*
X158437976Y-53602961D02*
X158406071Y-53674389D01*
X158406071Y-53674389D02*
X158374166Y-53710103D01*
X158374166Y-53710103D02*
X158310357Y-53745818D01*
X158310357Y-53745818D02*
X158087023Y-53745818D01*
X158693214Y-53388675D02*
X159107976Y-53388675D01*
X159107976Y-53388675D02*
X158884642Y-53674389D01*
X158884642Y-53674389D02*
X158980357Y-53674389D01*
X158980357Y-53674389D02*
X159044166Y-53710103D01*
X159044166Y-53710103D02*
X159076071Y-53745818D01*
X159076071Y-53745818D02*
X159107976Y-53817246D01*
X159107976Y-53817246D02*
X159107976Y-53995818D01*
X159107976Y-53995818D02*
X159076071Y-54067246D01*
X159076071Y-54067246D02*
X159044166Y-54102961D01*
X159044166Y-54102961D02*
X158980357Y-54138675D01*
X158980357Y-54138675D02*
X158788928Y-54138675D01*
X158788928Y-54138675D02*
X158725119Y-54102961D01*
X158725119Y-54102961D02*
X158693214Y-54067246D01*
X156156786Y-48824389D02*
X156475833Y-48824389D01*
X156092976Y-49038675D02*
X156316309Y-48288675D01*
X156316309Y-48288675D02*
X156539643Y-49038675D01*
X156890595Y-48288675D02*
X156954405Y-48288675D01*
X156954405Y-48288675D02*
X157018214Y-48324389D01*
X157018214Y-48324389D02*
X157050119Y-48360103D01*
X157050119Y-48360103D02*
X157082024Y-48431532D01*
X157082024Y-48431532D02*
X157113929Y-48574389D01*
X157113929Y-48574389D02*
X157113929Y-48752961D01*
X157113929Y-48752961D02*
X157082024Y-48895818D01*
X157082024Y-48895818D02*
X157050119Y-48967246D01*
X157050119Y-48967246D02*
X157018214Y-49002961D01*
X157018214Y-49002961D02*
X156954405Y-49038675D01*
X156954405Y-49038675D02*
X156890595Y-49038675D01*
X156890595Y-49038675D02*
X156826786Y-49002961D01*
X156826786Y-49002961D02*
X156794881Y-48967246D01*
X156794881Y-48967246D02*
X156762976Y-48895818D01*
X156762976Y-48895818D02*
X156731072Y-48752961D01*
X156731072Y-48752961D02*
X156731072Y-48574389D01*
X156731072Y-48574389D02*
X156762976Y-48431532D01*
X156762976Y-48431532D02*
X156794881Y-48360103D01*
X156794881Y-48360103D02*
X156826786Y-48324389D01*
X156826786Y-48324389D02*
X156890595Y-48288675D01*
X157879643Y-48252961D02*
X157305357Y-49217246D01*
X158326310Y-48645818D02*
X158102976Y-48645818D01*
X158102976Y-49038675D02*
X158102976Y-48288675D01*
X158102976Y-48288675D02*
X158422024Y-48288675D01*
X158613453Y-48288675D02*
X159060119Y-48288675D01*
X159060119Y-48288675D02*
X158772977Y-49038675D01*
X156156786Y-46274389D02*
X156475833Y-46274389D01*
X156092976Y-46488675D02*
X156316309Y-45738675D01*
X156316309Y-45738675D02*
X156539643Y-46488675D01*
X157113929Y-46488675D02*
X156731072Y-46488675D01*
X156922500Y-46488675D02*
X156922500Y-45738675D01*
X156922500Y-45738675D02*
X156858691Y-45845818D01*
X156858691Y-45845818D02*
X156794881Y-45917246D01*
X156794881Y-45917246D02*
X156731072Y-45952961D01*
X157879643Y-45702961D02*
X157305357Y-46667246D01*
X158326310Y-46095818D02*
X158102976Y-46095818D01*
X158102976Y-46488675D02*
X158102976Y-45738675D01*
X158102976Y-45738675D02*
X158422024Y-45738675D01*
X158964405Y-45738675D02*
X158836786Y-45738675D01*
X158836786Y-45738675D02*
X158772977Y-45774389D01*
X158772977Y-45774389D02*
X158741072Y-45810103D01*
X158741072Y-45810103D02*
X158677262Y-45917246D01*
X158677262Y-45917246D02*
X158645358Y-46060103D01*
X158645358Y-46060103D02*
X158645358Y-46345818D01*
X158645358Y-46345818D02*
X158677262Y-46417246D01*
X158677262Y-46417246D02*
X158709167Y-46452961D01*
X158709167Y-46452961D02*
X158772977Y-46488675D01*
X158772977Y-46488675D02*
X158900596Y-46488675D01*
X158900596Y-46488675D02*
X158964405Y-46452961D01*
X158964405Y-46452961D02*
X158996310Y-46417246D01*
X158996310Y-46417246D02*
X159028215Y-46345818D01*
X159028215Y-46345818D02*
X159028215Y-46167246D01*
X159028215Y-46167246D02*
X158996310Y-46095818D01*
X158996310Y-46095818D02*
X158964405Y-46060103D01*
X158964405Y-46060103D02*
X158900596Y-46024389D01*
X158900596Y-46024389D02*
X158772977Y-46024389D01*
X158772977Y-46024389D02*
X158709167Y-46060103D01*
X158709167Y-46060103D02*
X158677262Y-46095818D01*
X158677262Y-46095818D02*
X158645358Y-46167246D01*
X166432024Y-35674389D02*
X166368214Y-35638675D01*
X166368214Y-35638675D02*
X166272500Y-35638675D01*
X166272500Y-35638675D02*
X166176786Y-35674389D01*
X166176786Y-35674389D02*
X166112976Y-35745818D01*
X166112976Y-35745818D02*
X166081071Y-35817246D01*
X166081071Y-35817246D02*
X166049167Y-35960103D01*
X166049167Y-35960103D02*
X166049167Y-36067246D01*
X166049167Y-36067246D02*
X166081071Y-36210103D01*
X166081071Y-36210103D02*
X166112976Y-36281532D01*
X166112976Y-36281532D02*
X166176786Y-36352961D01*
X166176786Y-36352961D02*
X166272500Y-36388675D01*
X166272500Y-36388675D02*
X166336309Y-36388675D01*
X166336309Y-36388675D02*
X166432024Y-36352961D01*
X166432024Y-36352961D02*
X166463928Y-36317246D01*
X166463928Y-36317246D02*
X166463928Y-36067246D01*
X166463928Y-36067246D02*
X166336309Y-36067246D01*
X166751071Y-36388675D02*
X166751071Y-35638675D01*
X166751071Y-35638675D02*
X167133928Y-36388675D01*
X167133928Y-36388675D02*
X167133928Y-35638675D01*
X167452976Y-36388675D02*
X167452976Y-35638675D01*
X167452976Y-35638675D02*
X167612500Y-35638675D01*
X167612500Y-35638675D02*
X167708214Y-35674389D01*
X167708214Y-35674389D02*
X167772024Y-35745818D01*
X167772024Y-35745818D02*
X167803929Y-35817246D01*
X167803929Y-35817246D02*
X167835833Y-35960103D01*
X167835833Y-35960103D02*
X167835833Y-36067246D01*
X167835833Y-36067246D02*
X167803929Y-36210103D01*
X167803929Y-36210103D02*
X167772024Y-36281532D01*
X167772024Y-36281532D02*
X167708214Y-36352961D01*
X167708214Y-36352961D02*
X167612500Y-36388675D01*
X167612500Y-36388675D02*
X167452976Y-36388675D01*
X156459881Y-59188675D02*
X156077024Y-59188675D01*
X156268452Y-59188675D02*
X156268452Y-58438675D01*
X156268452Y-58438675D02*
X156204643Y-58545818D01*
X156204643Y-58545818D02*
X156140833Y-58617246D01*
X156140833Y-58617246D02*
X156077024Y-58652961D01*
X156874642Y-58438675D02*
X156938452Y-58438675D01*
X156938452Y-58438675D02*
X157002261Y-58474389D01*
X157002261Y-58474389D02*
X157034166Y-58510103D01*
X157034166Y-58510103D02*
X157066071Y-58581532D01*
X157066071Y-58581532D02*
X157097976Y-58724389D01*
X157097976Y-58724389D02*
X157097976Y-58902961D01*
X157097976Y-58902961D02*
X157066071Y-59045818D01*
X157066071Y-59045818D02*
X157034166Y-59117246D01*
X157034166Y-59117246D02*
X157002261Y-59152961D01*
X157002261Y-59152961D02*
X156938452Y-59188675D01*
X156938452Y-59188675D02*
X156874642Y-59188675D01*
X156874642Y-59188675D02*
X156810833Y-59152961D01*
X156810833Y-59152961D02*
X156778928Y-59117246D01*
X156778928Y-59117246D02*
X156747023Y-59045818D01*
X156747023Y-59045818D02*
X156715119Y-58902961D01*
X156715119Y-58902961D02*
X156715119Y-58724389D01*
X156715119Y-58724389D02*
X156747023Y-58581532D01*
X156747023Y-58581532D02*
X156778928Y-58510103D01*
X156778928Y-58510103D02*
X156810833Y-58474389D01*
X156810833Y-58474389D02*
X156874642Y-58438675D01*
X157863690Y-58402961D02*
X157289404Y-59367246D01*
X158310357Y-58795818D02*
X158406071Y-58831532D01*
X158406071Y-58831532D02*
X158437976Y-58867246D01*
X158437976Y-58867246D02*
X158469880Y-58938675D01*
X158469880Y-58938675D02*
X158469880Y-59045818D01*
X158469880Y-59045818D02*
X158437976Y-59117246D01*
X158437976Y-59117246D02*
X158406071Y-59152961D01*
X158406071Y-59152961D02*
X158342261Y-59188675D01*
X158342261Y-59188675D02*
X158087023Y-59188675D01*
X158087023Y-59188675D02*
X158087023Y-58438675D01*
X158087023Y-58438675D02*
X158310357Y-58438675D01*
X158310357Y-58438675D02*
X158374166Y-58474389D01*
X158374166Y-58474389D02*
X158406071Y-58510103D01*
X158406071Y-58510103D02*
X158437976Y-58581532D01*
X158437976Y-58581532D02*
X158437976Y-58652961D01*
X158437976Y-58652961D02*
X158406071Y-58724389D01*
X158406071Y-58724389D02*
X158374166Y-58760103D01*
X158374166Y-58760103D02*
X158310357Y-58795818D01*
X158310357Y-58795818D02*
X158087023Y-58795818D01*
X159044166Y-58438675D02*
X158916547Y-58438675D01*
X158916547Y-58438675D02*
X158852738Y-58474389D01*
X158852738Y-58474389D02*
X158820833Y-58510103D01*
X158820833Y-58510103D02*
X158757023Y-58617246D01*
X158757023Y-58617246D02*
X158725119Y-58760103D01*
X158725119Y-58760103D02*
X158725119Y-59045818D01*
X158725119Y-59045818D02*
X158757023Y-59117246D01*
X158757023Y-59117246D02*
X158788928Y-59152961D01*
X158788928Y-59152961D02*
X158852738Y-59188675D01*
X158852738Y-59188675D02*
X158980357Y-59188675D01*
X158980357Y-59188675D02*
X159044166Y-59152961D01*
X159044166Y-59152961D02*
X159076071Y-59117246D01*
X159076071Y-59117246D02*
X159107976Y-59045818D01*
X159107976Y-59045818D02*
X159107976Y-58867246D01*
X159107976Y-58867246D02*
X159076071Y-58795818D01*
X159076071Y-58795818D02*
X159044166Y-58760103D01*
X159044166Y-58760103D02*
X158980357Y-58724389D01*
X158980357Y-58724389D02*
X158852738Y-58724389D01*
X158852738Y-58724389D02*
X158788928Y-58760103D01*
X158788928Y-58760103D02*
X158757023Y-58795818D01*
X158757023Y-58795818D02*
X158725119Y-58867246D01*
X162969881Y-43802961D02*
X163065595Y-43838675D01*
X163065595Y-43838675D02*
X163225119Y-43838675D01*
X163225119Y-43838675D02*
X163288928Y-43802961D01*
X163288928Y-43802961D02*
X163320833Y-43767246D01*
X163320833Y-43767246D02*
X163352738Y-43695818D01*
X163352738Y-43695818D02*
X163352738Y-43624389D01*
X163352738Y-43624389D02*
X163320833Y-43552961D01*
X163320833Y-43552961D02*
X163288928Y-43517246D01*
X163288928Y-43517246D02*
X163225119Y-43481532D01*
X163225119Y-43481532D02*
X163097500Y-43445818D01*
X163097500Y-43445818D02*
X163033690Y-43410103D01*
X163033690Y-43410103D02*
X163001785Y-43374389D01*
X163001785Y-43374389D02*
X162969881Y-43302961D01*
X162969881Y-43302961D02*
X162969881Y-43231532D01*
X162969881Y-43231532D02*
X163001785Y-43160103D01*
X163001785Y-43160103D02*
X163033690Y-43124389D01*
X163033690Y-43124389D02*
X163097500Y-43088675D01*
X163097500Y-43088675D02*
X163257023Y-43088675D01*
X163257023Y-43088675D02*
X163352738Y-43124389D01*
X164022737Y-43767246D02*
X163990833Y-43802961D01*
X163990833Y-43802961D02*
X163895118Y-43838675D01*
X163895118Y-43838675D02*
X163831309Y-43838675D01*
X163831309Y-43838675D02*
X163735595Y-43802961D01*
X163735595Y-43802961D02*
X163671785Y-43731532D01*
X163671785Y-43731532D02*
X163639880Y-43660103D01*
X163639880Y-43660103D02*
X163607976Y-43517246D01*
X163607976Y-43517246D02*
X163607976Y-43410103D01*
X163607976Y-43410103D02*
X163639880Y-43267246D01*
X163639880Y-43267246D02*
X163671785Y-43195818D01*
X163671785Y-43195818D02*
X163735595Y-43124389D01*
X163735595Y-43124389D02*
X163831309Y-43088675D01*
X163831309Y-43088675D02*
X163895118Y-43088675D01*
X163895118Y-43088675D02*
X163990833Y-43124389D01*
X163990833Y-43124389D02*
X164022737Y-43160103D01*
X164628928Y-43838675D02*
X164309880Y-43838675D01*
X164309880Y-43838675D02*
X164309880Y-43088675D01*
X165330833Y-43052961D02*
X164756547Y-44017246D01*
X165554166Y-43838675D02*
X165554166Y-43088675D01*
X165554166Y-43088675D02*
X165713690Y-43088675D01*
X165713690Y-43088675D02*
X165809404Y-43124389D01*
X165809404Y-43124389D02*
X165873214Y-43195818D01*
X165873214Y-43195818D02*
X165905119Y-43267246D01*
X165905119Y-43267246D02*
X165937023Y-43410103D01*
X165937023Y-43410103D02*
X165937023Y-43517246D01*
X165937023Y-43517246D02*
X165905119Y-43660103D01*
X165905119Y-43660103D02*
X165873214Y-43731532D01*
X165873214Y-43731532D02*
X165809404Y-43802961D01*
X165809404Y-43802961D02*
X165713690Y-43838675D01*
X165713690Y-43838675D02*
X165554166Y-43838675D01*
X166351785Y-43088675D02*
X166415595Y-43088675D01*
X166415595Y-43088675D02*
X166479404Y-43124389D01*
X166479404Y-43124389D02*
X166511309Y-43160103D01*
X166511309Y-43160103D02*
X166543214Y-43231532D01*
X166543214Y-43231532D02*
X166575119Y-43374389D01*
X166575119Y-43374389D02*
X166575119Y-43552961D01*
X166575119Y-43552961D02*
X166543214Y-43695818D01*
X166543214Y-43695818D02*
X166511309Y-43767246D01*
X166511309Y-43767246D02*
X166479404Y-43802961D01*
X166479404Y-43802961D02*
X166415595Y-43838675D01*
X166415595Y-43838675D02*
X166351785Y-43838675D01*
X166351785Y-43838675D02*
X166287976Y-43802961D01*
X166287976Y-43802961D02*
X166256071Y-43767246D01*
X166256071Y-43767246D02*
X166224166Y-43695818D01*
X166224166Y-43695818D02*
X166192262Y-43552961D01*
X166192262Y-43552961D02*
X166192262Y-43374389D01*
X166192262Y-43374389D02*
X166224166Y-43231532D01*
X166224166Y-43231532D02*
X166256071Y-43160103D01*
X166256071Y-43160103D02*
X166287976Y-43124389D01*
X166287976Y-43124389D02*
X166351785Y-43088675D01*
X167340833Y-43052961D02*
X166766547Y-44017246D01*
X167500357Y-43088675D02*
X167915119Y-43088675D01*
X167915119Y-43088675D02*
X167691785Y-43374389D01*
X167691785Y-43374389D02*
X167787500Y-43374389D01*
X167787500Y-43374389D02*
X167851309Y-43410103D01*
X167851309Y-43410103D02*
X167883214Y-43445818D01*
X167883214Y-43445818D02*
X167915119Y-43517246D01*
X167915119Y-43517246D02*
X167915119Y-43695818D01*
X167915119Y-43695818D02*
X167883214Y-43767246D01*
X167883214Y-43767246D02*
X167851309Y-43802961D01*
X167851309Y-43802961D02*
X167787500Y-43838675D01*
X167787500Y-43838675D02*
X167596071Y-43838675D01*
X167596071Y-43838675D02*
X167532262Y-43802961D01*
X167532262Y-43802961D02*
X167500357Y-43767246D01*
X162953929Y-41302961D02*
X163049643Y-41338675D01*
X163049643Y-41338675D02*
X163209167Y-41338675D01*
X163209167Y-41338675D02*
X163272976Y-41302961D01*
X163272976Y-41302961D02*
X163304881Y-41267246D01*
X163304881Y-41267246D02*
X163336786Y-41195818D01*
X163336786Y-41195818D02*
X163336786Y-41124389D01*
X163336786Y-41124389D02*
X163304881Y-41052961D01*
X163304881Y-41052961D02*
X163272976Y-41017246D01*
X163272976Y-41017246D02*
X163209167Y-40981532D01*
X163209167Y-40981532D02*
X163081548Y-40945818D01*
X163081548Y-40945818D02*
X163017738Y-40910103D01*
X163017738Y-40910103D02*
X162985833Y-40874389D01*
X162985833Y-40874389D02*
X162953929Y-40802961D01*
X162953929Y-40802961D02*
X162953929Y-40731532D01*
X162953929Y-40731532D02*
X162985833Y-40660103D01*
X162985833Y-40660103D02*
X163017738Y-40624389D01*
X163017738Y-40624389D02*
X163081548Y-40588675D01*
X163081548Y-40588675D02*
X163241071Y-40588675D01*
X163241071Y-40588675D02*
X163336786Y-40624389D01*
X163623928Y-41338675D02*
X163623928Y-40588675D01*
X163623928Y-40588675D02*
X163783452Y-40588675D01*
X163783452Y-40588675D02*
X163879166Y-40624389D01*
X163879166Y-40624389D02*
X163942976Y-40695818D01*
X163942976Y-40695818D02*
X163974881Y-40767246D01*
X163974881Y-40767246D02*
X164006785Y-40910103D01*
X164006785Y-40910103D02*
X164006785Y-41017246D01*
X164006785Y-41017246D02*
X163974881Y-41160103D01*
X163974881Y-41160103D02*
X163942976Y-41231532D01*
X163942976Y-41231532D02*
X163879166Y-41302961D01*
X163879166Y-41302961D02*
X163783452Y-41338675D01*
X163783452Y-41338675D02*
X163623928Y-41338675D01*
X164262024Y-41124389D02*
X164581071Y-41124389D01*
X164198214Y-41338675D02*
X164421547Y-40588675D01*
X164421547Y-40588675D02*
X164644881Y-41338675D01*
X165346786Y-40552961D02*
X164772500Y-41517246D01*
X165570119Y-41338675D02*
X165570119Y-40588675D01*
X165570119Y-40588675D02*
X165729643Y-40588675D01*
X165729643Y-40588675D02*
X165825357Y-40624389D01*
X165825357Y-40624389D02*
X165889167Y-40695818D01*
X165889167Y-40695818D02*
X165921072Y-40767246D01*
X165921072Y-40767246D02*
X165952976Y-40910103D01*
X165952976Y-40910103D02*
X165952976Y-41017246D01*
X165952976Y-41017246D02*
X165921072Y-41160103D01*
X165921072Y-41160103D02*
X165889167Y-41231532D01*
X165889167Y-41231532D02*
X165825357Y-41302961D01*
X165825357Y-41302961D02*
X165729643Y-41338675D01*
X165729643Y-41338675D02*
X165570119Y-41338675D01*
X166591072Y-41338675D02*
X166208215Y-41338675D01*
X166399643Y-41338675D02*
X166399643Y-40588675D01*
X166399643Y-40588675D02*
X166335834Y-40695818D01*
X166335834Y-40695818D02*
X166272024Y-40767246D01*
X166272024Y-40767246D02*
X166208215Y-40802961D01*
X167356786Y-40552961D02*
X166782500Y-41517246D01*
X167548215Y-40660103D02*
X167580119Y-40624389D01*
X167580119Y-40624389D02*
X167643929Y-40588675D01*
X167643929Y-40588675D02*
X167803453Y-40588675D01*
X167803453Y-40588675D02*
X167867262Y-40624389D01*
X167867262Y-40624389D02*
X167899167Y-40660103D01*
X167899167Y-40660103D02*
X167931072Y-40731532D01*
X167931072Y-40731532D02*
X167931072Y-40802961D01*
X167931072Y-40802961D02*
X167899167Y-40910103D01*
X167899167Y-40910103D02*
X167516310Y-41338675D01*
X167516310Y-41338675D02*
X167931072Y-41338675D01*
X165527976Y-46338675D02*
X165527976Y-45588675D01*
X165527976Y-45588675D02*
X165687500Y-45588675D01*
X165687500Y-45588675D02*
X165783214Y-45624389D01*
X165783214Y-45624389D02*
X165847024Y-45695818D01*
X165847024Y-45695818D02*
X165878929Y-45767246D01*
X165878929Y-45767246D02*
X165910833Y-45910103D01*
X165910833Y-45910103D02*
X165910833Y-46017246D01*
X165910833Y-46017246D02*
X165878929Y-46160103D01*
X165878929Y-46160103D02*
X165847024Y-46231532D01*
X165847024Y-46231532D02*
X165783214Y-46302961D01*
X165783214Y-46302961D02*
X165687500Y-46338675D01*
X165687500Y-46338675D02*
X165527976Y-46338675D01*
X166485119Y-45838675D02*
X166485119Y-46338675D01*
X166325595Y-45552961D02*
X166166072Y-46088675D01*
X166166072Y-46088675D02*
X166580833Y-46088675D01*
X167314643Y-45552961D02*
X166740357Y-46517246D01*
X167825119Y-45838675D02*
X167825119Y-46338675D01*
X167665595Y-45552961D02*
X167506072Y-46088675D01*
X167506072Y-46088675D02*
X167920833Y-46088675D01*
X165751310Y-58645818D02*
X165847024Y-58681532D01*
X165847024Y-58681532D02*
X165878929Y-58717246D01*
X165878929Y-58717246D02*
X165910833Y-58788675D01*
X165910833Y-58788675D02*
X165910833Y-58895818D01*
X165910833Y-58895818D02*
X165878929Y-58967246D01*
X165878929Y-58967246D02*
X165847024Y-59002961D01*
X165847024Y-59002961D02*
X165783214Y-59038675D01*
X165783214Y-59038675D02*
X165527976Y-59038675D01*
X165527976Y-59038675D02*
X165527976Y-58288675D01*
X165527976Y-58288675D02*
X165751310Y-58288675D01*
X165751310Y-58288675D02*
X165815119Y-58324389D01*
X165815119Y-58324389D02*
X165847024Y-58360103D01*
X165847024Y-58360103D02*
X165878929Y-58431532D01*
X165878929Y-58431532D02*
X165878929Y-58502961D01*
X165878929Y-58502961D02*
X165847024Y-58574389D01*
X165847024Y-58574389D02*
X165815119Y-58610103D01*
X165815119Y-58610103D02*
X165751310Y-58645818D01*
X165751310Y-58645818D02*
X165527976Y-58645818D01*
X166517024Y-58288675D02*
X166197976Y-58288675D01*
X166197976Y-58288675D02*
X166166072Y-58645818D01*
X166166072Y-58645818D02*
X166197976Y-58610103D01*
X166197976Y-58610103D02*
X166261786Y-58574389D01*
X166261786Y-58574389D02*
X166421310Y-58574389D01*
X166421310Y-58574389D02*
X166485119Y-58610103D01*
X166485119Y-58610103D02*
X166517024Y-58645818D01*
X166517024Y-58645818D02*
X166548929Y-58717246D01*
X166548929Y-58717246D02*
X166548929Y-58895818D01*
X166548929Y-58895818D02*
X166517024Y-58967246D01*
X166517024Y-58967246D02*
X166485119Y-59002961D01*
X166485119Y-59002961D02*
X166421310Y-59038675D01*
X166421310Y-59038675D02*
X166261786Y-59038675D01*
X166261786Y-59038675D02*
X166197976Y-59002961D01*
X166197976Y-59002961D02*
X166166072Y-58967246D01*
X167314643Y-58252961D02*
X166740357Y-59217246D01*
X167569881Y-59038675D02*
X167697500Y-59038675D01*
X167697500Y-59038675D02*
X167761310Y-59002961D01*
X167761310Y-59002961D02*
X167793214Y-58967246D01*
X167793214Y-58967246D02*
X167857024Y-58860103D01*
X167857024Y-58860103D02*
X167888929Y-58717246D01*
X167888929Y-58717246D02*
X167888929Y-58431532D01*
X167888929Y-58431532D02*
X167857024Y-58360103D01*
X167857024Y-58360103D02*
X167825119Y-58324389D01*
X167825119Y-58324389D02*
X167761310Y-58288675D01*
X167761310Y-58288675D02*
X167633691Y-58288675D01*
X167633691Y-58288675D02*
X167569881Y-58324389D01*
X167569881Y-58324389D02*
X167537976Y-58360103D01*
X167537976Y-58360103D02*
X167506072Y-58431532D01*
X167506072Y-58431532D02*
X167506072Y-58610103D01*
X167506072Y-58610103D02*
X167537976Y-58681532D01*
X167537976Y-58681532D02*
X167569881Y-58717246D01*
X167569881Y-58717246D02*
X167633691Y-58752961D01*
X167633691Y-58752961D02*
X167761310Y-58752961D01*
X167761310Y-58752961D02*
X167825119Y-58717246D01*
X167825119Y-58717246D02*
X167857024Y-58681532D01*
X167857024Y-58681532D02*
X167888929Y-58610103D01*
D10*
X132817353Y-70934137D02*
X132817353Y-71648422D01*
X132817353Y-71648422D02*
X132769734Y-71791279D01*
X132769734Y-71791279D02*
X132674496Y-71886518D01*
X132674496Y-71886518D02*
X132531639Y-71934137D01*
X132531639Y-71934137D02*
X132436401Y-71934137D01*
X133245925Y-71886518D02*
X133388782Y-71934137D01*
X133388782Y-71934137D02*
X133626877Y-71934137D01*
X133626877Y-71934137D02*
X133722115Y-71886518D01*
X133722115Y-71886518D02*
X133769734Y-71838898D01*
X133769734Y-71838898D02*
X133817353Y-71743660D01*
X133817353Y-71743660D02*
X133817353Y-71648422D01*
X133817353Y-71648422D02*
X133769734Y-71553184D01*
X133769734Y-71553184D02*
X133722115Y-71505565D01*
X133722115Y-71505565D02*
X133626877Y-71457946D01*
X133626877Y-71457946D02*
X133436401Y-71410327D01*
X133436401Y-71410327D02*
X133341163Y-71362708D01*
X133341163Y-71362708D02*
X133293544Y-71315089D01*
X133293544Y-71315089D02*
X133245925Y-71219851D01*
X133245925Y-71219851D02*
X133245925Y-71124613D01*
X133245925Y-71124613D02*
X133293544Y-71029375D01*
X133293544Y-71029375D02*
X133341163Y-70981756D01*
X133341163Y-70981756D02*
X133436401Y-70934137D01*
X133436401Y-70934137D02*
X133674496Y-70934137D01*
X133674496Y-70934137D02*
X133817353Y-70981756D01*
X134103068Y-70934137D02*
X134674496Y-70934137D01*
X134388782Y-71934137D02*
X134388782Y-70934137D01*
D12*
X134149551Y-68925983D02*
X134911456Y-68925983D01*
X134530503Y-69306936D02*
X134530503Y-68545031D01*
X132132522Y-68925983D02*
X132894427Y-68925983D01*
D10*
X143180104Y-66620592D02*
X142703913Y-66953925D01*
X143180104Y-67192020D02*
X142180104Y-67192020D01*
X142180104Y-67192020D02*
X142180104Y-66811068D01*
X142180104Y-66811068D02*
X142227723Y-66715830D01*
X142227723Y-66715830D02*
X142275342Y-66668211D01*
X142275342Y-66668211D02*
X142370580Y-66620592D01*
X142370580Y-66620592D02*
X142513437Y-66620592D01*
X142513437Y-66620592D02*
X142608675Y-66668211D01*
X142608675Y-66668211D02*
X142656294Y-66715830D01*
X142656294Y-66715830D02*
X142703913Y-66811068D01*
X142703913Y-66811068D02*
X142703913Y-67192020D01*
X142656294Y-66192020D02*
X142656294Y-65858687D01*
X143180104Y-65715830D02*
X143180104Y-66192020D01*
X143180104Y-66192020D02*
X142180104Y-66192020D01*
X142180104Y-66192020D02*
X142180104Y-65715830D01*
X143132485Y-65334877D02*
X143180104Y-65192020D01*
X143180104Y-65192020D02*
X143180104Y-64953925D01*
X143180104Y-64953925D02*
X143132485Y-64858687D01*
X143132485Y-64858687D02*
X143084865Y-64811068D01*
X143084865Y-64811068D02*
X142989627Y-64763449D01*
X142989627Y-64763449D02*
X142894389Y-64763449D01*
X142894389Y-64763449D02*
X142799151Y-64811068D01*
X142799151Y-64811068D02*
X142751532Y-64858687D01*
X142751532Y-64858687D02*
X142703913Y-64953925D01*
X142703913Y-64953925D02*
X142656294Y-65144401D01*
X142656294Y-65144401D02*
X142608675Y-65239639D01*
X142608675Y-65239639D02*
X142561056Y-65287258D01*
X142561056Y-65287258D02*
X142465818Y-65334877D01*
X142465818Y-65334877D02*
X142370580Y-65334877D01*
X142370580Y-65334877D02*
X142275342Y-65287258D01*
X142275342Y-65287258D02*
X142227723Y-65239639D01*
X142227723Y-65239639D02*
X142180104Y-65144401D01*
X142180104Y-65144401D02*
X142180104Y-64906306D01*
X142180104Y-64906306D02*
X142227723Y-64763449D01*
X142656294Y-64334877D02*
X142656294Y-64001544D01*
X143180104Y-63858687D02*
X143180104Y-64334877D01*
X143180104Y-64334877D02*
X142180104Y-64334877D01*
X142180104Y-64334877D02*
X142180104Y-63858687D01*
X142180104Y-63572972D02*
X142180104Y-63001544D01*
X143180104Y-63287258D02*
X142180104Y-63287258D01*
X162633214Y-71011227D02*
X162633214Y-71725512D01*
X162633214Y-71725512D02*
X162585595Y-71868369D01*
X162585595Y-71868369D02*
X162490357Y-71963608D01*
X162490357Y-71963608D02*
X162347500Y-72011227D01*
X162347500Y-72011227D02*
X162252262Y-72011227D01*
X163061786Y-71963608D02*
X163204643Y-72011227D01*
X163204643Y-72011227D02*
X163442738Y-72011227D01*
X163442738Y-72011227D02*
X163537976Y-71963608D01*
X163537976Y-71963608D02*
X163585595Y-71915988D01*
X163585595Y-71915988D02*
X163633214Y-71820750D01*
X163633214Y-71820750D02*
X163633214Y-71725512D01*
X163633214Y-71725512D02*
X163585595Y-71630274D01*
X163585595Y-71630274D02*
X163537976Y-71582655D01*
X163537976Y-71582655D02*
X163442738Y-71535036D01*
X163442738Y-71535036D02*
X163252262Y-71487417D01*
X163252262Y-71487417D02*
X163157024Y-71439798D01*
X163157024Y-71439798D02*
X163109405Y-71392179D01*
X163109405Y-71392179D02*
X163061786Y-71296941D01*
X163061786Y-71296941D02*
X163061786Y-71201703D01*
X163061786Y-71201703D02*
X163109405Y-71106465D01*
X163109405Y-71106465D02*
X163157024Y-71058846D01*
X163157024Y-71058846D02*
X163252262Y-71011227D01*
X163252262Y-71011227D02*
X163490357Y-71011227D01*
X163490357Y-71011227D02*
X163633214Y-71058846D01*
X163918929Y-71011227D02*
X164490357Y-71011227D01*
X164204643Y-72011227D02*
X164204643Y-71011227D01*
D12*
X163973464Y-69023203D02*
X164735369Y-69023203D01*
X164354416Y-69404156D02*
X164354416Y-68642251D01*
X161971197Y-69012467D02*
X162733102Y-69012467D01*
D10*
X154572427Y-66620592D02*
X154096236Y-66953925D01*
X154572427Y-67192020D02*
X153572427Y-67192020D01*
X153572427Y-67192020D02*
X153572427Y-66811068D01*
X153572427Y-66811068D02*
X153620046Y-66715830D01*
X153620046Y-66715830D02*
X153667665Y-66668211D01*
X153667665Y-66668211D02*
X153762903Y-66620592D01*
X153762903Y-66620592D02*
X153905760Y-66620592D01*
X153905760Y-66620592D02*
X154000998Y-66668211D01*
X154000998Y-66668211D02*
X154048617Y-66715830D01*
X154048617Y-66715830D02*
X154096236Y-66811068D01*
X154096236Y-66811068D02*
X154096236Y-67192020D01*
X154048617Y-66192020D02*
X154048617Y-65858687D01*
X154572427Y-65715830D02*
X154572427Y-66192020D01*
X154572427Y-66192020D02*
X153572427Y-66192020D01*
X153572427Y-66192020D02*
X153572427Y-65715830D01*
X154524808Y-65334877D02*
X154572427Y-65192020D01*
X154572427Y-65192020D02*
X154572427Y-64953925D01*
X154572427Y-64953925D02*
X154524808Y-64858687D01*
X154524808Y-64858687D02*
X154477188Y-64811068D01*
X154477188Y-64811068D02*
X154381950Y-64763449D01*
X154381950Y-64763449D02*
X154286712Y-64763449D01*
X154286712Y-64763449D02*
X154191474Y-64811068D01*
X154191474Y-64811068D02*
X154143855Y-64858687D01*
X154143855Y-64858687D02*
X154096236Y-64953925D01*
X154096236Y-64953925D02*
X154048617Y-65144401D01*
X154048617Y-65144401D02*
X154000998Y-65239639D01*
X154000998Y-65239639D02*
X153953379Y-65287258D01*
X153953379Y-65287258D02*
X153858141Y-65334877D01*
X153858141Y-65334877D02*
X153762903Y-65334877D01*
X153762903Y-65334877D02*
X153667665Y-65287258D01*
X153667665Y-65287258D02*
X153620046Y-65239639D01*
X153620046Y-65239639D02*
X153572427Y-65144401D01*
X153572427Y-65144401D02*
X153572427Y-64906306D01*
X153572427Y-64906306D02*
X153620046Y-64763449D01*
X154048617Y-64334877D02*
X154048617Y-64001544D01*
X154572427Y-63858687D02*
X154572427Y-64334877D01*
X154572427Y-64334877D02*
X153572427Y-64334877D01*
X153572427Y-64334877D02*
X153572427Y-63858687D01*
X153572427Y-63572972D02*
X153572427Y-63001544D01*
X154572427Y-63287258D02*
X153572427Y-63287258D01*
D13*
X221381493Y-83537190D02*
X221981493Y-83537190D01*
X221681493Y-83837190D02*
X221381493Y-83537190D01*
X221981493Y-83537190D02*
X221681493Y-83837190D01*
X223081493Y-81737190D02*
X223081493Y-93537190D01*
X227181493Y-81737190D02*
X223081493Y-81737190D01*
X227181493Y-93537190D02*
X223081493Y-93537190D01*
X228681493Y-87637190D02*
X229681493Y-87637190D01*
X229181493Y-87137190D02*
X229181493Y-88137190D01*
X231181493Y-81737190D02*
X235281493Y-81737190D01*
X235281493Y-81737190D02*
X235281493Y-84137190D01*
X235281493Y-86337190D02*
X235281493Y-88937190D01*
X235281493Y-91137190D02*
X235281493Y-93537190D01*
X235281493Y-93537190D02*
X231181493Y-93537190D01*
X232181493Y-87637190D02*
G75*
G03*
X232181493Y-87637190I-3000000J0D01*
G01*
X70519209Y-87670547D02*
G75*
G03*
X70519209Y-87670547I-3000000J0D01*
G01*
X75319209Y-91770547D02*
X74719209Y-91770547D01*
X73619209Y-93570547D02*
X73619209Y-81770547D01*
X61419209Y-88970547D02*
X61419209Y-86370547D01*
X68019209Y-87670547D02*
X67019209Y-87670547D01*
X69519209Y-93570547D02*
X73619209Y-93570547D01*
X67519209Y-88170547D02*
X67519209Y-87170547D01*
X61419209Y-84170547D02*
X61419209Y-81770547D01*
X61419209Y-93570547D02*
X61419209Y-91170547D01*
X65519209Y-93570547D02*
X61419209Y-93570547D01*
X69519209Y-81770547D02*
X73619209Y-81770547D01*
X75019209Y-91470547D02*
X75319209Y-91770547D01*
X74719209Y-91770547D02*
X75019209Y-91470547D01*
X61419209Y-81770547D02*
X65519209Y-81770547D01*
D10*
X128431500Y-61478211D02*
X140884314Y-61478211D01*
X128431500Y-63778211D02*
X128431500Y-61478211D01*
X128431500Y-63778211D02*
X140840438Y-63768990D01*
X140884314Y-61478211D02*
X140884314Y-63778211D01*
X155948427Y-61478211D02*
X168401241Y-61478211D01*
X155948427Y-63778211D02*
X155948427Y-61478211D01*
X155948427Y-63778211D02*
X168357365Y-63768990D01*
X168401241Y-61478211D02*
X168401241Y-63778211D01*
X126062500Y-29828211D02*
X126062500Y-30678211D01*
X126062500Y-29828211D02*
X126912500Y-29828211D01*
X126062500Y-59128211D02*
X126062500Y-60028211D01*
X126062500Y-60028211D02*
X126912500Y-60028211D01*
X131062500Y-24228211D02*
X131062500Y-25528211D01*
X131062500Y-25528211D02*
X138562500Y-25528211D01*
X134312500Y-24578211D02*
X135312500Y-24578211D01*
X134462500Y-24728211D02*
X135162500Y-24728211D01*
X134562500Y-24878211D02*
X135062500Y-24878211D01*
X134662500Y-25028211D02*
X134962500Y-25028211D01*
X134812500Y-25228211D02*
X134312500Y-24578211D01*
X135312500Y-24578211D02*
X134812500Y-25228211D01*
X138562500Y-24228211D02*
X131062500Y-24228211D01*
X138562500Y-25528211D02*
X138562500Y-24228211D01*
X143562500Y-29828211D02*
X142762500Y-29828211D01*
X143562500Y-29828211D02*
X143562500Y-30678211D01*
X143562500Y-59178211D02*
X143562500Y-60028211D01*
X143562500Y-60028211D02*
X142702500Y-60028211D01*
X153237500Y-29798211D02*
X153237500Y-30648211D01*
X153237500Y-29798211D02*
X154087500Y-29798211D01*
X153237500Y-59098211D02*
X153237500Y-59998211D01*
X153237500Y-59998211D02*
X154087500Y-59998211D01*
X158237500Y-24198211D02*
X158237500Y-25498211D01*
X158237500Y-25498211D02*
X165737500Y-25498211D01*
X161487500Y-24548211D02*
X162487500Y-24548211D01*
X161637500Y-24698211D02*
X162337500Y-24698211D01*
X161737500Y-24848211D02*
X162237500Y-24848211D01*
X161837500Y-24998211D02*
X162137500Y-24998211D01*
X161987500Y-25198211D02*
X161487500Y-24548211D01*
X162487500Y-24548211D02*
X161987500Y-25198211D01*
X165737500Y-24198211D02*
X158237500Y-24198211D01*
X165737500Y-25498211D02*
X165737500Y-24198211D01*
X170737500Y-29798211D02*
X169937500Y-29798211D01*
X170737500Y-29798211D02*
X170737500Y-30648211D01*
X170737500Y-59148211D02*
X170737500Y-59998211D01*
X170737500Y-59998211D02*
X169877500Y-59998211D01*
D13*
X129471639Y-65629318D02*
X130491639Y-65629318D01*
X129471639Y-69879318D02*
X129471639Y-65629318D01*
X130491639Y-65629318D02*
X130491639Y-67229318D01*
X130491639Y-67229318D02*
X131771639Y-67229318D01*
X131191639Y-73449318D02*
X135871639Y-73449318D01*
X131771639Y-67229318D02*
X131771639Y-64339318D01*
X136571639Y-65629318D02*
X136571639Y-67229318D01*
X136571639Y-67229318D02*
X135291639Y-67229318D01*
X137591639Y-65629318D02*
X136571639Y-65629318D01*
X137591639Y-69879318D02*
X137591639Y-65629318D01*
D10*
X144325285Y-62318211D02*
X144075285Y-62318211D01*
X144325285Y-62318211D02*
X144325285Y-68018211D01*
X141125285Y-62318211D02*
X141375285Y-62318211D01*
X141125285Y-62318211D02*
X141125285Y-68018211D01*
X144325285Y-68018211D02*
X144075285Y-68018211D01*
X141125285Y-68018211D02*
X141375285Y-68018211D01*
D13*
X159287500Y-65706408D02*
X160307500Y-65706408D01*
X159287500Y-69956408D02*
X159287500Y-65706408D01*
X160307500Y-65706408D02*
X160307500Y-67306408D01*
X160307500Y-67306408D02*
X161587500Y-67306408D01*
X161007500Y-73526408D02*
X165687500Y-73526408D01*
X161587500Y-67306408D02*
X161587500Y-64416408D01*
X166387500Y-65706408D02*
X166387500Y-67306408D01*
X166387500Y-67306408D02*
X165107500Y-67306408D01*
X167407500Y-65706408D02*
X166387500Y-65706408D01*
X167407500Y-69956408D02*
X167407500Y-65706408D01*
D10*
X155717608Y-62318211D02*
X155467608Y-62318211D01*
X155717608Y-62318211D02*
X155717608Y-68018211D01*
X152517608Y-62318211D02*
X152767608Y-62318211D01*
X152517608Y-62318211D02*
X152517608Y-68018211D01*
X155717608Y-68018211D02*
X155467608Y-68018211D01*
X152517608Y-68018211D02*
X152767608Y-68018211D01*
M02*
