%TF.GenerationSoftware,KiCad,Pcbnew,7.0.7*%
%TF.CreationDate,2023-09-12T00:09:27-04:00*%
%TF.ProjectId,corne-eclipse,636f726e-6973-4682-9d65-636c69707365,1*%
%TF.SameCoordinates,Original*%
%TF.FileFunction,Drillmap*%
%TF.FilePolarity,Positive*%
%FSLAX45Y45*%
G04 Gerber Fmt 4.5, Leading zero omitted, Abs format (unit mm)*
G04 Created by KiCad (PCBNEW 7.0.7) date 2023-09-12 00:09:27*
%MOMM*%
%LPD*%
G01*
G04 APERTURE LIST*
%ADD10C,0.200000*%
%ADD11C,0.030000*%
%ADD12C,0.040000*%
%ADD13C,0.081280*%
%ADD14C,0.100000*%
%ADD15C,0.130000*%
%ADD16C,0.150000*%
%ADD17C,0.220000*%
%ADD18C,0.620000*%
G04 APERTURE END LIST*
D10*
X1780750Y-8202852D02*
X1781250Y-8225821D01*
X1781250Y-8225821D02*
X1781230Y-8226021D01*
X1781230Y-8226021D02*
X1781230Y-8226021D01*
X1781230Y-8226021D02*
X1778960Y-8249121D01*
X1778960Y-8249121D02*
X1778960Y-8249121D01*
X1778960Y-8249121D02*
X1778960Y-8249121D01*
X1778960Y-8249121D02*
X1778960Y-8249221D01*
X1778960Y-8249221D02*
X1778860Y-8249621D01*
X1778860Y-8249621D02*
X1778770Y-8250121D01*
X1778770Y-8250121D02*
X1772080Y-8272221D01*
X1772080Y-8272221D02*
X1772060Y-8272321D01*
X1772060Y-8272321D02*
X1771880Y-8272721D01*
X1771880Y-8272721D02*
X1771700Y-8273221D01*
X1771700Y-8273221D02*
X1760820Y-8293621D01*
X1760820Y-8293621D02*
X1760790Y-8293721D01*
X1760790Y-8293721D02*
X1760540Y-8294021D01*
X1760540Y-8294021D02*
X1760280Y-8294421D01*
X1760280Y-8294421D02*
X1745640Y-8312421D01*
X1745640Y-8312421D02*
X1745640Y-8312421D01*
X1745640Y-8312421D02*
X1745640Y-8312421D01*
X1745640Y-8312421D02*
X1745590Y-8312421D01*
X1745590Y-8312421D02*
X1745270Y-8312821D01*
X1745270Y-8312821D02*
X1744950Y-8313121D01*
X1744950Y-8313121D02*
X1727090Y-8327921D01*
X1727090Y-8327921D02*
X1727040Y-8327921D01*
X1727040Y-8327921D02*
X1726660Y-8328121D01*
X1726660Y-8328121D02*
X1726280Y-8328421D01*
X1726280Y-8328421D02*
X1705900Y-8339421D01*
X1705900Y-8339421D02*
X1705900Y-8339421D01*
X1705900Y-8339421D02*
X1705900Y-8339421D01*
X1705900Y-8339421D02*
X1705830Y-8339521D01*
X1705830Y-8339521D02*
X1705420Y-8339621D01*
X1705420Y-8339621D02*
X1705000Y-8339821D01*
X1705000Y-8339821D02*
X1682860Y-8346721D01*
X1682860Y-8346721D02*
X1682790Y-8346721D01*
X1682790Y-8346721D02*
X1682350Y-8346821D01*
X1682350Y-8346821D02*
X1681900Y-8346821D01*
X1681900Y-8346821D02*
X1658850Y-8349321D01*
X1658850Y-8349321D02*
X1658780Y-8349321D01*
X1658780Y-8349321D02*
X1658560Y-8349321D01*
X1658560Y-8349321D02*
X1658350Y-8349321D01*
X1658350Y-8349321D02*
X1657750Y-8349321D01*
X1657750Y-8349321D02*
X1657740Y-8349321D01*
X1657740Y-8349321D02*
X1182520Y-8349321D01*
X1182520Y-8349321D02*
X1181940Y-8349321D01*
X1181940Y-8349321D02*
X1159630Y-8351621D01*
X1159630Y-8351621D02*
X1138430Y-8358221D01*
X1138430Y-8358221D02*
X1118910Y-8368821D01*
X1118910Y-8368821D02*
X1101800Y-8382921D01*
X1101800Y-8382921D02*
X1087780Y-8400121D01*
X1087780Y-8400121D02*
X1077360Y-8419721D01*
X1077360Y-8419721D02*
X1070940Y-8441021D01*
X1070940Y-8441021D02*
X1068750Y-8463321D01*
X1068750Y-11550521D02*
X1068750Y-11551121D01*
X1068750Y-11551121D02*
X1071100Y-11573421D01*
X1071100Y-11573421D02*
X1077660Y-11594621D01*
X1077660Y-11594621D02*
X1088220Y-11614121D01*
X1088220Y-11614121D02*
X1102360Y-11631221D01*
X1102360Y-11631221D02*
X1119570Y-11645321D01*
X1119570Y-11645321D02*
X1139160Y-11655721D01*
X1139160Y-11655721D02*
X1160410Y-11662121D01*
X1160410Y-11662121D02*
X1182740Y-11664321D01*
X1182740Y-11664321D02*
X28505750Y-11663421D01*
X28505550Y-1104671D02*
X1182520Y-1105571D01*
X1182520Y-1105571D02*
X1181940Y-1105571D01*
X1181940Y-1105571D02*
X1159630Y-1107921D01*
X1159630Y-1107921D02*
X1138430Y-1114481D01*
X1138430Y-1114481D02*
X1118910Y-1125041D01*
X1118910Y-1125041D02*
X1101800Y-1139191D01*
X1101800Y-1139191D02*
X1087780Y-1156391D01*
X1087780Y-1156391D02*
X1077360Y-1175981D01*
X1077360Y-1175981D02*
X1070940Y-1197231D01*
X1070940Y-1197231D02*
X1068750Y-1219571D01*
X1068750Y-1219571D02*
X1068750Y-1575551D01*
X1068750Y-1575551D02*
X1068750Y-1576131D01*
X1068750Y-1576131D02*
X1071100Y-1598441D01*
X1071100Y-1598441D02*
X1077660Y-1619641D01*
X1077660Y-1619641D02*
X1088220Y-1639171D01*
X1088220Y-1639171D02*
X1102360Y-1656271D01*
X1102360Y-1656271D02*
X1119570Y-1670301D01*
X1119570Y-1670301D02*
X1139160Y-1680721D01*
X1139160Y-1680721D02*
X1160410Y-1687131D01*
X1160410Y-1687131D02*
X1182740Y-1689321D01*
X1182740Y-1689321D02*
X5457740Y-1689321D01*
X5457740Y-1689321D02*
X5457990Y-1689351D01*
X5457990Y-1689351D02*
X5457990Y-1689351D01*
X5457990Y-1689351D02*
X5481050Y-1691611D01*
X5481050Y-1691611D02*
X5481050Y-1691611D01*
X5481050Y-1691611D02*
X5481050Y-1691611D01*
X5481050Y-1691611D02*
X5481120Y-1691611D01*
X5481120Y-1691611D02*
X5481560Y-1691711D01*
X5481560Y-1691711D02*
X5482010Y-1691801D01*
X5482010Y-1691801D02*
X5504200Y-1698501D01*
X5504200Y-1698501D02*
X5504260Y-1698521D01*
X5504260Y-1698521D02*
X5504680Y-1698691D01*
X5504680Y-1698691D02*
X5505100Y-1698871D01*
X5505100Y-1698871D02*
X5525560Y-1709751D01*
X5525560Y-1709751D02*
X5525560Y-1709751D01*
X5525560Y-1709751D02*
X5525560Y-1709751D01*
X5525560Y-1709751D02*
X5525620Y-1709781D01*
X5525620Y-1709781D02*
X5526000Y-1710041D01*
X5526000Y-1710041D02*
X5526380Y-1710291D01*
X5526380Y-1710291D02*
X5544340Y-1724941D01*
X5544340Y-1724941D02*
X5544390Y-1724981D01*
X5544390Y-1724981D02*
X5544700Y-1725301D01*
X5544700Y-1725301D02*
X5545030Y-1725621D01*
X5545030Y-1725621D02*
X5559800Y-1743481D01*
X5559800Y-1743481D02*
X5559840Y-1743531D01*
X5559840Y-1743531D02*
X5560090Y-1743911D01*
X5560090Y-1743911D02*
X5560350Y-1744291D01*
X5560350Y-1744291D02*
X5571370Y-1764681D01*
X5571370Y-1764681D02*
X5571370Y-1764681D01*
X5571370Y-1764681D02*
X5571370Y-1764681D01*
X5571370Y-1764681D02*
X5571400Y-1764741D01*
X5571400Y-1764741D02*
X5571570Y-1765161D01*
X5571570Y-1765161D02*
X5571750Y-1765581D01*
X5571750Y-1765581D02*
X5578600Y-1787721D01*
X5578600Y-1787721D02*
X5578620Y-1787781D01*
X5578620Y-1787781D02*
X5578710Y-1788231D01*
X5578710Y-1788231D02*
X5578800Y-1788671D01*
X5578800Y-1788671D02*
X5581220Y-1811721D01*
X5581220Y-1811721D02*
X5581230Y-1811791D01*
X5581230Y-1811791D02*
X5581220Y-1812011D01*
X5581220Y-1812011D02*
X5581250Y-1812231D01*
X5581250Y-1812231D02*
X5581250Y-1812821D01*
X5581250Y-1812821D02*
X5581250Y-1812831D01*
X5581250Y-1812831D02*
X5581750Y-2102846D01*
X4455751Y-8202928D02*
X4456251Y-8225521D01*
X4456251Y-8225521D02*
X4456251Y-8226121D01*
X4456251Y-8226121D02*
X4458601Y-8248421D01*
X4458601Y-8248421D02*
X4465161Y-8269621D01*
X4465161Y-8269621D02*
X4475721Y-8289121D01*
X4475721Y-8289121D02*
X4489861Y-8306221D01*
X4489861Y-8306221D02*
X4507071Y-8320321D01*
X4507071Y-8320321D02*
X4526661Y-8330721D01*
X4526661Y-8330721D02*
X4547911Y-8337121D01*
X4547911Y-8337121D02*
X4570241Y-8339321D01*
X4570241Y-8339321D02*
X4807741Y-8339321D01*
X4807741Y-8339321D02*
X4807991Y-8339321D01*
X4807991Y-8339321D02*
X4807991Y-8339321D01*
X4807991Y-8339321D02*
X4831051Y-8341621D01*
X4831051Y-8341621D02*
X4831051Y-8341621D01*
X4831051Y-8341621D02*
X4831051Y-8341621D01*
X4831051Y-8341621D02*
X4831121Y-8341621D01*
X4831121Y-8341621D02*
X4831561Y-8341721D01*
X4831561Y-8341721D02*
X4832011Y-8341821D01*
X4832011Y-8341821D02*
X4854201Y-8348521D01*
X4854201Y-8348521D02*
X4854261Y-8348521D01*
X4854261Y-8348521D02*
X4854681Y-8348721D01*
X4854681Y-8348721D02*
X4855101Y-8348821D01*
X4855101Y-8348821D02*
X4875561Y-8359721D01*
X4875561Y-8359721D02*
X4875561Y-8359721D01*
X4875561Y-8359721D02*
X4875561Y-8359721D01*
X4875561Y-8359721D02*
X4875621Y-8359821D01*
X4875621Y-8359821D02*
X4876001Y-8360021D01*
X4876001Y-8360021D02*
X4876381Y-8360321D01*
X4876381Y-8360321D02*
X4894341Y-8374921D01*
X4894341Y-8374921D02*
X4894391Y-8375021D01*
X4894391Y-8375021D02*
X4894701Y-8375321D01*
X4894701Y-8375321D02*
X4895031Y-8375621D01*
X4895031Y-8375621D02*
X4909801Y-8393521D01*
X4909801Y-8393521D02*
X4909841Y-8393521D01*
X4909841Y-8393521D02*
X4910091Y-8393921D01*
X4910091Y-8393921D02*
X4910351Y-8394321D01*
X4910351Y-8394321D02*
X4921371Y-8414721D01*
X4921371Y-8414721D02*
X4921371Y-8414721D01*
X4921371Y-8414721D02*
X4921371Y-8414721D01*
X4921371Y-8414721D02*
X4921401Y-8414721D01*
X4921401Y-8414721D02*
X4921571Y-8415121D01*
X4921571Y-8415121D02*
X4921751Y-8415621D01*
X4921751Y-8415621D02*
X4928601Y-8437721D01*
X4928601Y-8437721D02*
X4928621Y-8437821D01*
X4928621Y-8437821D02*
X4928711Y-8438221D01*
X4928711Y-8438221D02*
X4928801Y-8438721D01*
X4928801Y-8438721D02*
X4931221Y-8461721D01*
X4931221Y-8461721D02*
X4931231Y-8461821D01*
X4931231Y-8461821D02*
X4931221Y-8462021D01*
X4931221Y-8462021D02*
X4931251Y-8462221D01*
X4931251Y-8462221D02*
X4931251Y-8462821D01*
X4931251Y-8462821D02*
X4931251Y-8462821D01*
X4931251Y-8462821D02*
X4931251Y-11180521D01*
X4931251Y-11180521D02*
X4931251Y-11181121D01*
X4931251Y-11181121D02*
X4933601Y-11203421D01*
X4933601Y-11203421D02*
X4940161Y-11224621D01*
X4940161Y-11224621D02*
X4950721Y-11244121D01*
X4950721Y-11244121D02*
X4964861Y-11261221D01*
X4964861Y-11261221D02*
X4982071Y-11275321D01*
X4982071Y-11275321D02*
X5001661Y-11285721D01*
X5001661Y-11285721D02*
X5022911Y-11292121D01*
X5022911Y-11292121D02*
X5045241Y-11294321D01*
X5045241Y-11294321D02*
X24762549Y-11293421D01*
X19718050Y-1698421D02*
X9970050Y-1699321D01*
X9970050Y-1699321D02*
X9969450Y-1699321D01*
X9969450Y-1699321D02*
X9947150Y-1701671D01*
X9947150Y-1701671D02*
X9925950Y-1708231D01*
X9925950Y-1708231D02*
X9906450Y-1718791D01*
X9906450Y-1718791D02*
X9889350Y-1732941D01*
X9889350Y-1732941D02*
X9875250Y-1750141D01*
X9875250Y-1750141D02*
X9864850Y-1769731D01*
X9864850Y-1769731D02*
X9858450Y-1790981D01*
X9858450Y-1790981D02*
X9856250Y-1813321D01*
X9856250Y-1813321D02*
X9856750Y-2102694D01*
X2256750Y-8202852D02*
X2256250Y-8225521D01*
X2256250Y-8225521D02*
X2256250Y-8226121D01*
X2256250Y-8226121D02*
X2258600Y-8248421D01*
X2258600Y-8248421D02*
X2265160Y-8269621D01*
X2265160Y-8269621D02*
X2275720Y-8289121D01*
X2275720Y-8289121D02*
X2289860Y-8306221D01*
X2289860Y-8306221D02*
X2307070Y-8320321D01*
X2307070Y-8320321D02*
X2326660Y-8330721D01*
X2326660Y-8330721D02*
X2347910Y-8337121D01*
X2347910Y-8337121D02*
X2370240Y-8339321D01*
X2370240Y-8339321D02*
X3858061Y-8339321D01*
X3857481Y-8339321D02*
X3858061Y-8339321D01*
X3858061Y-8339321D02*
X3880371Y-8337021D01*
X3880371Y-8337021D02*
X3901571Y-8330421D01*
X3901571Y-8330421D02*
X3921091Y-8319821D01*
X3921091Y-8319821D02*
X3938201Y-8305721D01*
X3938201Y-8305721D02*
X3952221Y-8288521D01*
X3952221Y-8288521D02*
X3962641Y-8268921D01*
X3962641Y-8268921D02*
X3969061Y-8247621D01*
X3969061Y-8247621D02*
X3971251Y-8225321D01*
X3971251Y-8225321D02*
X3971751Y-8202852D01*
X9372750Y-2102846D02*
X9371250Y-1813091D01*
X9371250Y-1813091D02*
X9371250Y-1812511D01*
X9371250Y-1812511D02*
X9368900Y-1790201D01*
X9368900Y-1790201D02*
X9362340Y-1769001D01*
X9362340Y-1769001D02*
X9351780Y-1749481D01*
X9351780Y-1749481D02*
X9337630Y-1732381D01*
X9337630Y-1732381D02*
X9320430Y-1718351D01*
X9320430Y-1718351D02*
X9300840Y-1707931D01*
X9300840Y-1707931D02*
X9279590Y-1701511D01*
X9279590Y-1701511D02*
X9257260Y-1699321D01*
X9257260Y-1699321D02*
X6170020Y-1699321D01*
X6170020Y-1699321D02*
X6169440Y-1699321D01*
X6169440Y-1699321D02*
X6147130Y-1701671D01*
X6147130Y-1701671D02*
X6125930Y-1708231D01*
X6125930Y-1708231D02*
X6106410Y-1718791D01*
X6106410Y-1718791D02*
X6089300Y-1732941D01*
X6089300Y-1732941D02*
X6075280Y-1750141D01*
X6075280Y-1750141D02*
X6064860Y-1769731D01*
X6064860Y-1769731D02*
X6058440Y-1790981D01*
X6058440Y-1790981D02*
X6056250Y-1813321D01*
X6056250Y-1813321D02*
X6057750Y-2102694D01*
X1068750Y-8463321D02*
X1068750Y-11550521D01*
X23631750Y-2103494D02*
X23631950Y-1812191D01*
X23631950Y-1812191D02*
X23631950Y-1811611D01*
X23631950Y-1811611D02*
X23629650Y-1789301D01*
X23629650Y-1789301D02*
X23623050Y-1768101D01*
X23623050Y-1768101D02*
X23612550Y-1748581D01*
X23612550Y-1748581D02*
X23598350Y-1731481D01*
X23598350Y-1731481D02*
X23581150Y-1717451D01*
X23581150Y-1717451D02*
X23561550Y-1707031D01*
X23561550Y-1707031D02*
X23540350Y-1700611D01*
X23540350Y-1700611D02*
X23518050Y-1698421D01*
X23518050Y-1698421D02*
X20430750Y-1698421D01*
X20430750Y-1698421D02*
X20430150Y-1698421D01*
X20430150Y-1698421D02*
X20407850Y-1700771D01*
X20407850Y-1700771D02*
X20386650Y-1707331D01*
X20386650Y-1707331D02*
X20367150Y-1717891D01*
X20367150Y-1717891D02*
X20350050Y-1732041D01*
X20350050Y-1732041D02*
X20336050Y-1749241D01*
X20336050Y-1749241D02*
X20325650Y-1768831D01*
X20325650Y-1768831D02*
X20319150Y-1790081D01*
X20319150Y-1790081D02*
X20317050Y-1812421D01*
X20317050Y-1812421D02*
X20316750Y-2103646D01*
X28030250Y-8348421D02*
X28007150Y-8346121D01*
X28586450Y-11629821D02*
X28600450Y-11612621D01*
X19781150Y-1717451D02*
X19761550Y-1707031D01*
X19798350Y-1731481D02*
X19781150Y-1717451D01*
X28619450Y-8461621D02*
X28619550Y-11549421D01*
X19832750Y-2103494D02*
X19831950Y-1812191D01*
X19831950Y-1812191D02*
X19831950Y-1811611D01*
X19831950Y-1811611D02*
X19829650Y-1789301D01*
X19829650Y-1789301D02*
X19823050Y-1768101D01*
X19823050Y-1768101D02*
X19812550Y-1748581D01*
X19812550Y-1748581D02*
X19798350Y-1731481D01*
X19761550Y-1707031D02*
X19740350Y-1700611D01*
X19740350Y-1700611D02*
X19718050Y-1698421D01*
X25717749Y-8203552D02*
X25717049Y-8224621D01*
X25717049Y-8224621D02*
X25717049Y-8225221D01*
X25717049Y-8225221D02*
X25719349Y-8247521D01*
X25719349Y-8247521D02*
X25725949Y-8268721D01*
X25725949Y-8268721D02*
X25736449Y-8288221D01*
X25736449Y-8288221D02*
X25750649Y-8305321D01*
X25750649Y-8305321D02*
X25767849Y-8319421D01*
X25767849Y-8319421D02*
X25787449Y-8329821D01*
X25787449Y-8329821D02*
X25808649Y-8336221D01*
X25808649Y-8336221D02*
X25830949Y-8338421D01*
X25830949Y-8338421D02*
X27318250Y-8338421D01*
X27318250Y-8338421D02*
X27318850Y-8338421D01*
X27318850Y-8338421D02*
X27341150Y-8336121D01*
X27341150Y-8336121D02*
X27362350Y-8329521D01*
X27362350Y-8329521D02*
X27381850Y-8318921D01*
X27381850Y-8318921D02*
X27398950Y-8304821D01*
X27398950Y-8304821D02*
X27412950Y-8287621D01*
X27412950Y-8287621D02*
X27423350Y-8268021D01*
X27423350Y-8268021D02*
X27429850Y-8246721D01*
X27429850Y-8246721D02*
X27431950Y-8224421D01*
X27431950Y-8224421D02*
X27432750Y-8203552D01*
X23161950Y-11293421D02*
X23162550Y-11293421D01*
X24762549Y-11293421D02*
X24784849Y-11291121D01*
X24784849Y-11291121D02*
X24806049Y-11284521D01*
X24806049Y-11284521D02*
X24825549Y-11273921D01*
X24825549Y-11273921D02*
X24842649Y-11259821D01*
X24842649Y-11259821D02*
X24856749Y-11242621D01*
X24856749Y-11242621D02*
X24867149Y-11223021D01*
X24867149Y-11223021D02*
X24873549Y-11201721D01*
X24873549Y-11201721D02*
X24875749Y-11179421D01*
X24875749Y-11179421D02*
X24875749Y-8461921D01*
X24875749Y-8461921D02*
X24875749Y-8461721D01*
X24875749Y-8461721D02*
X24875749Y-8461721D01*
X24875749Y-8461721D02*
X24878049Y-8438621D01*
X24878049Y-8438621D02*
X24878049Y-8438621D01*
X24878049Y-8438621D02*
X24878049Y-8438621D01*
X24878049Y-8438621D02*
X24878049Y-8438521D01*
X24878049Y-8438521D02*
X24878149Y-8438121D01*
X24878149Y-8438121D02*
X24878249Y-8437621D01*
X24878249Y-8437621D02*
X24884949Y-8415521D01*
X24884949Y-8415521D02*
X24884949Y-8415421D01*
X24884949Y-8415421D02*
X24885149Y-8415021D01*
X24885149Y-8415021D02*
X24885249Y-8414621D01*
X24885249Y-8414621D02*
X24896149Y-8394121D01*
X24896149Y-8394121D02*
X24896149Y-8394121D01*
X24896149Y-8394121D02*
X24896149Y-8394121D01*
X24896149Y-8394121D02*
X24896249Y-8394021D01*
X24896249Y-8394021D02*
X24896449Y-8393721D01*
X24896449Y-8393721D02*
X24896749Y-8393321D01*
X24896749Y-8393321D02*
X24911349Y-8375321D01*
X24911349Y-8375321D02*
X24911449Y-8375321D01*
X24911449Y-8375321D02*
X24911749Y-8374921D01*
X24911749Y-8374921D02*
X24912049Y-8374621D01*
X24912049Y-8374621D02*
X24929949Y-8359921D01*
X24929949Y-8359921D02*
X24929949Y-8359821D01*
X24929949Y-8359821D02*
X24930349Y-8359621D01*
X24930349Y-8359621D02*
X24930749Y-8359321D01*
X24930749Y-8359321D02*
X24951149Y-8348321D01*
X24951149Y-8348321D02*
X24951149Y-8348321D01*
X24951149Y-8348321D02*
X24951149Y-8348321D01*
X24951149Y-8348321D02*
X24951149Y-8348221D01*
X24951149Y-8348221D02*
X24951549Y-8348121D01*
X24951549Y-8348121D02*
X24952049Y-8347921D01*
X24952049Y-8347921D02*
X24974149Y-8341121D01*
X24974149Y-8341121D02*
X24974149Y-8341121D01*
X24974149Y-8341121D02*
X24974249Y-8341021D01*
X24974249Y-8341021D02*
X24974649Y-8340921D01*
X24974649Y-8340921D02*
X24975049Y-8340921D01*
X24975049Y-8340921D02*
X24998149Y-8338421D01*
X24998149Y-8338421D02*
X24998249Y-8338421D01*
X24998249Y-8338421D02*
X24998449Y-8338421D01*
X24998449Y-8338421D02*
X24998649Y-8338421D01*
X24998649Y-8338421D02*
X24999249Y-8338421D01*
X24999249Y-8338421D02*
X24999249Y-8338421D01*
X24999249Y-8338421D02*
X25118249Y-8338421D01*
X25118249Y-8338421D02*
X25118849Y-8338421D01*
X25118849Y-8338421D02*
X25141149Y-8336121D01*
X25141149Y-8336121D02*
X25162349Y-8329521D01*
X25162349Y-8329521D02*
X25181849Y-8318921D01*
X25181849Y-8318921D02*
X25198949Y-8304821D01*
X25198949Y-8304821D02*
X25212949Y-8287621D01*
X25212949Y-8287621D02*
X25223349Y-8268021D01*
X25223349Y-8268021D02*
X25229849Y-8246721D01*
X25229849Y-8246721D02*
X25232049Y-8224421D01*
X25232049Y-8224421D02*
X25232749Y-8203628D01*
X24109250Y-1788551D02*
X24109350Y-1788111D01*
X24109350Y-1788111D02*
X24109450Y-1787661D01*
X24109450Y-1787661D02*
X24116150Y-1765471D01*
X24116150Y-1765471D02*
X24116150Y-1765411D01*
X24116150Y-1765411D02*
X24116350Y-1764991D01*
X24116350Y-1764991D02*
X24116550Y-1764571D01*
X24116550Y-1764571D02*
X24127450Y-1744111D01*
X24127450Y-1744111D02*
X24127450Y-1744111D01*
X24127450Y-1744111D02*
X24127450Y-1744111D01*
X24127450Y-1744111D02*
X24127450Y-1744051D01*
X24127450Y-1744051D02*
X24127750Y-1743671D01*
X24127750Y-1743671D02*
X24127950Y-1743301D01*
X24127950Y-1743301D02*
X24142650Y-1725341D01*
X24142650Y-1725341D02*
X24142650Y-1725281D01*
X24142650Y-1725281D02*
X24142950Y-1724971D01*
X24142950Y-1724971D02*
X24143350Y-1724641D01*
X24143350Y-1724641D02*
X24161150Y-1709871D01*
X24161150Y-1709871D02*
X24161250Y-1709831D01*
X24161250Y-1709831D02*
X24161550Y-1709581D01*
X24161550Y-1709581D02*
X24161950Y-1709331D01*
X24161950Y-1709331D02*
X24182350Y-1698301D01*
X24182350Y-1698301D02*
X24182350Y-1698301D01*
X24182350Y-1698301D02*
X24182350Y-1698301D01*
X24182350Y-1698301D02*
X24182450Y-1698271D01*
X24182450Y-1698271D02*
X24182850Y-1698101D01*
X24182850Y-1698101D02*
X24183250Y-1697921D01*
X24183250Y-1697921D02*
X24205350Y-1691071D01*
X24205350Y-1691071D02*
X24205350Y-1691071D01*
X24205350Y-1691071D02*
X24205450Y-1691051D01*
X24205450Y-1691051D02*
X24205950Y-1690971D01*
X24205950Y-1690971D02*
X24206350Y-1690871D01*
X24206350Y-1690871D02*
X24229350Y-1688451D01*
X24229350Y-1688451D02*
X24229450Y-1688451D01*
X24229450Y-1688451D02*
X24229650Y-1688451D01*
X24229650Y-1688451D02*
X24229950Y-1688421D01*
X24229950Y-1688421D02*
X24230450Y-1688421D01*
X24230450Y-1688421D02*
X24230550Y-1688421D01*
X24230550Y-1688421D02*
X28505750Y-1688421D01*
X28505750Y-1688421D02*
X28506350Y-1688421D01*
X28506350Y-1688421D02*
X28528650Y-1686081D01*
X28528650Y-1686081D02*
X28549850Y-1679511D01*
X28549850Y-1679511D02*
X28569350Y-1668961D01*
X28569350Y-1668961D02*
X28586450Y-1654811D01*
X28586450Y-1654811D02*
X28600450Y-1637611D01*
X28600450Y-1637611D02*
X28610850Y-1618011D01*
X28610850Y-1618011D02*
X28617350Y-1596761D01*
X28617350Y-1596761D02*
X28619550Y-1574431D01*
X28619550Y-1574431D02*
X28619450Y-1218441D01*
X28619450Y-1218441D02*
X28619450Y-1217861D01*
X28619450Y-1217861D02*
X28617150Y-1195551D01*
X28617150Y-1195551D02*
X28610550Y-1174351D01*
X28610550Y-1174351D02*
X28600050Y-1154831D01*
X28600050Y-1154831D02*
X28585850Y-1137731D01*
X28585850Y-1137731D02*
X28568650Y-1123701D01*
X28568650Y-1123701D02*
X28549050Y-1113281D01*
X28549050Y-1113281D02*
X28527850Y-1106861D01*
X28527850Y-1106861D02*
X28505550Y-1104671D01*
X24107750Y-2103646D02*
X24106950Y-1811931D01*
X24106950Y-1811931D02*
X24107050Y-1811681D01*
X24107050Y-1811681D02*
X24109250Y-1788621D01*
X24109250Y-1788621D02*
X24109250Y-1788621D01*
X24109250Y-1788621D02*
X24109250Y-1788621D01*
X24109250Y-1788621D02*
X24109250Y-1788551D01*
X27907050Y-8225921D02*
X27907050Y-8225721D01*
X27907050Y-8225721D02*
X27907050Y-8225521D01*
X27907050Y-8225521D02*
X27907050Y-8224921D01*
X27907050Y-8224921D02*
X27906950Y-8224921D01*
X27906950Y-8224921D02*
X27907750Y-8203628D01*
X27916550Y-8272121D02*
X27909650Y-8250021D01*
X27909650Y-8250021D02*
X27909650Y-8249921D01*
X27909650Y-8249921D02*
X27909550Y-8249521D01*
X27909550Y-8249521D02*
X27909450Y-8249121D01*
X27909450Y-8249121D02*
X27907050Y-8226021D01*
X27907050Y-8226021D02*
X27907050Y-8225921D01*
X28505750Y-11663421D02*
X28506350Y-11663421D01*
X28506350Y-11663421D02*
X28528650Y-11661121D01*
X28528650Y-11661121D02*
X28549850Y-11654521D01*
X28549850Y-11654521D02*
X28569350Y-11643921D01*
X28569350Y-11643921D02*
X28586450Y-11629821D01*
X28600450Y-11612621D02*
X28610850Y-11593021D01*
X28610850Y-11593021D02*
X28617350Y-11571721D01*
X28617350Y-11571721D02*
X28619550Y-11549421D01*
X28619450Y-8461621D02*
X28617150Y-8439321D01*
X28617150Y-8439321D02*
X28610550Y-8418121D01*
X28610550Y-8418121D02*
X28600050Y-8398621D01*
X28600050Y-8398621D02*
X28585850Y-8381521D01*
X28585850Y-8381521D02*
X28568650Y-8367421D01*
X28568650Y-8367421D02*
X28549050Y-8357021D01*
X28549050Y-8357021D02*
X28527850Y-8350621D01*
X28527850Y-8350621D02*
X28505550Y-8348421D01*
X28505550Y-8348421D02*
X28030550Y-8348421D01*
X28030550Y-8348421D02*
X28030250Y-8348421D01*
X28030250Y-8348421D02*
X28030250Y-8348421D01*
X28007150Y-8346121D02*
X28007150Y-8346121D01*
X28007150Y-8346121D02*
X28007150Y-8346121D01*
X28007150Y-8346121D02*
X28007150Y-8346121D01*
X28007150Y-8346121D02*
X28006650Y-8346021D01*
X28006650Y-8346021D02*
X28006250Y-8345921D01*
X28006250Y-8345921D02*
X27984050Y-8339221D01*
X27984050Y-8339221D02*
X27983950Y-8339221D01*
X27983950Y-8339221D02*
X27983550Y-8339021D01*
X27983550Y-8339021D02*
X27983150Y-8338921D01*
X27983150Y-8338921D02*
X27962650Y-8328021D01*
X27962650Y-8328021D02*
X27962650Y-8328021D01*
X27962650Y-8328021D02*
X27962650Y-8327921D01*
X27962650Y-8327921D02*
X27962250Y-8327721D01*
X27962250Y-8327721D02*
X27961850Y-8327421D01*
X27961850Y-8327421D02*
X27943950Y-8312821D01*
X27943950Y-8312821D02*
X27943950Y-8312821D01*
X27943950Y-8312821D02*
X27943950Y-8312821D01*
X27943950Y-8312821D02*
X27943850Y-8312721D01*
X27943850Y-8312721D02*
X27943550Y-8312421D01*
X27943550Y-8312421D02*
X27943250Y-8312121D01*
X27943250Y-8312121D02*
X27928450Y-8294221D01*
X27928450Y-8294221D02*
X27928450Y-8294221D01*
X27928450Y-8294221D02*
X27928150Y-8293821D01*
X27928150Y-8293821D02*
X27927950Y-8293421D01*
X27927950Y-8293421D02*
X27916850Y-8273021D01*
X27916850Y-8273021D02*
X27916850Y-8273021D01*
X27916850Y-8273021D02*
X27916850Y-8273021D01*
X27916850Y-8273021D02*
X27916850Y-8273021D01*
X27916850Y-8273021D02*
X27916650Y-8272621D01*
X27916650Y-8272621D02*
X27916550Y-8272121D01*
X18162950Y-10168621D02*
X18183119Y-10163198D01*
X18203571Y-10159021D01*
X18224248Y-10156100D01*
X18228406Y-10155667D01*
X15218179Y-8663393D02*
X15209231Y-8645506D01*
X15201683Y-8624044D01*
X15197065Y-8601780D01*
X15195456Y-8579011D01*
X15195470Y-8576144D01*
X19170618Y-2303392D02*
X19170618Y-2153532D01*
X17320484Y-2353430D02*
X19120580Y-2353430D01*
X15195470Y-2628639D02*
X15200402Y-2606969D01*
X15213664Y-2590069D01*
X15232967Y-2580227D01*
X15245458Y-2578651D01*
X15195522Y-2628512D02*
X15195522Y-8575916D01*
X25717749Y-8203552D02*
X27432750Y-8203552D01*
X28570463Y-2628639D02*
X28570640Y-8153514D01*
X24820588Y-2578474D02*
X28520450Y-2578651D01*
X21120574Y-1878450D02*
X22820594Y-1878450D01*
X21070536Y-2053456D02*
X21070536Y-1928488D01*
X19220656Y-2103494D02*
X19832750Y-2103494D01*
X18162950Y-10168621D02*
X16733542Y-10994730D01*
X17270700Y-2403468D02*
X17270471Y-2528639D01*
X17270471Y-2403645D02*
X17275397Y-2381967D01*
X17288657Y-2365059D01*
X17307962Y-2355211D01*
X17320458Y-2353633D01*
X24770550Y-2153532D02*
X24770550Y-2528436D01*
X22920670Y-2103494D02*
X23631750Y-2103494D01*
X22870632Y-1928488D02*
X22870632Y-2053456D01*
X15245559Y-2578474D02*
X17220459Y-2578651D01*
X28570463Y-8153641D02*
X28565527Y-8175317D01*
X28552258Y-8192219D01*
X28532947Y-8202057D01*
X28520451Y-8203628D01*
X28520451Y-8203628D02*
X28520450Y-8203628D01*
X28520450Y-2578651D02*
X28542128Y-2583576D01*
X28559037Y-2596837D01*
X28568885Y-2616143D01*
X28570463Y-2628638D01*
X28570463Y-2628638D02*
X28570463Y-2628639D01*
X24820461Y-2578651D02*
X24798783Y-2573726D01*
X24781874Y-2560465D01*
X24772026Y-2541159D01*
X24770449Y-2528664D01*
X24770449Y-2528664D02*
X24770449Y-2528639D01*
X24720462Y-2103646D02*
X24742131Y-2108579D01*
X24759030Y-2121840D01*
X24768873Y-2141142D01*
X24770449Y-2153634D01*
X22920466Y-2103646D02*
X22898788Y-2098721D01*
X22881880Y-2085461D01*
X22872032Y-2066154D01*
X22870454Y-2053659D01*
X22870454Y-2053659D02*
X22870454Y-2053634D01*
X22820467Y-1878628D02*
X22842143Y-1883564D01*
X22859045Y-1896833D01*
X22868883Y-1916144D01*
X22870454Y-1928640D01*
X22870454Y-1928640D02*
X22870454Y-1928640D01*
X21070459Y-1928640D02*
X21075384Y-1906962D01*
X21088645Y-1890053D01*
X21107951Y-1880205D01*
X21120447Y-1878628D01*
X21120447Y-1878628D02*
X21120447Y-1878628D01*
X21070459Y-2053634D02*
X21065534Y-2075312D01*
X21052274Y-2092221D01*
X21032967Y-2102069D01*
X21020472Y-2103646D01*
X21020472Y-2103646D02*
X21020447Y-2103646D01*
X19170465Y-2153634D02*
X19175398Y-2131964D01*
X19188659Y-2115065D01*
X19207961Y-2105223D01*
X19220452Y-2103646D01*
X19170465Y-2303646D02*
X19165529Y-2325322D01*
X19152260Y-2342224D01*
X19132949Y-2352062D01*
X19120453Y-2353633D01*
X16540730Y-10956782D02*
X15218128Y-8663546D01*
X16541040Y-10957244D02*
X16540730Y-10956782D01*
X16733542Y-10994730D02*
X16715136Y-11005208D01*
X16695861Y-11012608D01*
X16676044Y-11016993D01*
X16656010Y-11018426D01*
X16629527Y-11015855D01*
X16604014Y-11008301D01*
X16585982Y-10999455D01*
X16569258Y-10987955D01*
X16554168Y-10973863D01*
X16541040Y-10957244D01*
X21930807Y-9664000D02*
X18228406Y-10155667D01*
X24839109Y-8218284D02*
X23820163Y-9649344D01*
X17270471Y-2528639D02*
X17265546Y-2550317D01*
X17252285Y-2567226D01*
X17232978Y-2577074D01*
X17220483Y-2578651D01*
X17220483Y-2578651D02*
X17220459Y-2578651D01*
X4815035Y-8202828D02*
X4455751Y-8202928D01*
X1169050Y-8202828D02*
X1780750Y-8202852D01*
X4969038Y-2102846D02*
X5581750Y-2102846D01*
X8669053Y-2102846D02*
X9372750Y-2102846D01*
X12469017Y-2577851D02*
X12469041Y-2577851D01*
X12419029Y-2527839D02*
X12423954Y-2549517D01*
X12437215Y-2566426D01*
X12456521Y-2576274D01*
X12469017Y-2577851D01*
X7758693Y-9663200D02*
X11461094Y-10154867D01*
X12955958Y-10993930D02*
X12974364Y-11004408D01*
X12993639Y-11011808D01*
X13013456Y-11016193D01*
X13033490Y-11017626D01*
X13059973Y-11015055D01*
X13085486Y-11007501D01*
X13103518Y-10998655D01*
X13120242Y-10987155D01*
X13135332Y-10973063D01*
X13148460Y-10956444D01*
X13148460Y-10956444D02*
X13148770Y-10955982D01*
X13148770Y-10955982D02*
X14471372Y-8662746D01*
X10519035Y-2302846D02*
X10523971Y-2324522D01*
X10537240Y-2341424D01*
X10556551Y-2351262D01*
X10569047Y-2352833D01*
X10519035Y-2152834D02*
X10514102Y-2131164D01*
X10500841Y-2114265D01*
X10481539Y-2104423D01*
X10469048Y-2102846D01*
X8669028Y-2102846D02*
X8669053Y-2102846D01*
X8619041Y-2052834D02*
X8623966Y-2074512D01*
X8637226Y-2091421D01*
X8656533Y-2101269D01*
X8669028Y-2102846D01*
X8569053Y-1877828D02*
X8569053Y-1877828D01*
X8619041Y-1927840D02*
X8614116Y-1906162D01*
X8600855Y-1889253D01*
X8581549Y-1879405D01*
X8569053Y-1877828D01*
X6819046Y-1927840D02*
X6819046Y-1927840D01*
X6869033Y-1877828D02*
X6847357Y-1882764D01*
X6830455Y-1896033D01*
X6820616Y-1915344D01*
X6819046Y-1927840D01*
X6819046Y-2052859D02*
X6819046Y-2052834D01*
X6769033Y-2102846D02*
X6790712Y-2097921D01*
X6807620Y-2084661D01*
X6817468Y-2065354D01*
X6819046Y-2052859D01*
X4969038Y-2102846D02*
X4947369Y-2107779D01*
X4930469Y-2121040D01*
X4920627Y-2140342D01*
X4919051Y-2152834D01*
X4919051Y-2527864D02*
X4919051Y-2527839D01*
X4869039Y-2577851D02*
X4890717Y-2572926D01*
X4907626Y-2559665D01*
X4917474Y-2540359D01*
X4919051Y-2527864D01*
X1119037Y-2627838D02*
X1119037Y-2627839D01*
X1169050Y-2577851D02*
X1147372Y-2582776D01*
X1130463Y-2596037D01*
X1120615Y-2615343D01*
X1119037Y-2627838D01*
X1169049Y-8202828D02*
X1169050Y-8202828D01*
X1119037Y-8152841D02*
X1123973Y-8174517D01*
X1137242Y-8191419D01*
X1156553Y-8201257D01*
X1169049Y-8202828D01*
X14443940Y-2577674D02*
X12469041Y-2577851D01*
X6819046Y-1927840D02*
X6818868Y-2052656D01*
X6768830Y-2102694D02*
X6057750Y-2102694D01*
X4918950Y-2152732D02*
X4918950Y-2527636D01*
X12419029Y-2402845D02*
X12414103Y-2381167D01*
X12400843Y-2364259D01*
X12381538Y-2354411D01*
X12369042Y-2352833D01*
X12418800Y-2402668D02*
X12419029Y-2527839D01*
X11526550Y-10167821D02*
X12955958Y-10993930D01*
X10468844Y-2102694D02*
X9856750Y-2102694D01*
X8618964Y-2052656D02*
X8618964Y-1927688D01*
X8568926Y-1877650D02*
X6868906Y-1877650D01*
X4868912Y-2577674D02*
X1169050Y-2577851D01*
X1119037Y-2627839D02*
X1118860Y-8152714D01*
X3971751Y-8202852D02*
X2256750Y-8202852D01*
X14493978Y-2627712D02*
X14493978Y-8575116D01*
X14494030Y-2627839D02*
X14489097Y-2606169D01*
X14475836Y-2589269D01*
X14456533Y-2579427D01*
X14444042Y-2577851D01*
X12369016Y-2352630D02*
X10568920Y-2352630D01*
X10518882Y-2302592D02*
X10518882Y-2152732D01*
X14471321Y-8662593D02*
X14480269Y-8644706D01*
X14487817Y-8623244D01*
X14492435Y-8600980D01*
X14494044Y-8578211D01*
X14494030Y-8575344D01*
X24839109Y-8218284D02*
X24856462Y-8206986D01*
X24874465Y-8203628D01*
X4850391Y-8217484D02*
X4833038Y-8206186D01*
X4815035Y-8202828D01*
X11526550Y-10167821D02*
X11506380Y-10162398D01*
X11485928Y-10158221D01*
X11465252Y-10155300D01*
X11461094Y-10154867D01*
X21020447Y-2103646D02*
X20316750Y-2103646D01*
X5869337Y-9648544D02*
X5886690Y-9659842D01*
X5904694Y-9663200D01*
X23784806Y-9664000D02*
X21930807Y-9664000D01*
X4850391Y-8217484D02*
X5869337Y-9648544D01*
X5904694Y-9663200D02*
X7758693Y-9663200D01*
X24870750Y-8203628D02*
X25232749Y-8203628D01*
X24720462Y-2103646D02*
X24107750Y-2103646D01*
X28520450Y-8203628D02*
X27907750Y-8203628D01*
X23820163Y-9649344D02*
X23802810Y-9660642D01*
X23784806Y-9664000D01*
D11*
X3011750Y-6755821D02*
X3041750Y-6785821D01*
X3041750Y-6755821D02*
X3011750Y-6785821D01*
X3011750Y-7263821D02*
X3041750Y-7293821D01*
X3041750Y-7263821D02*
X3011750Y-7293821D01*
X5043750Y-6855000D02*
X5073750Y-6885000D01*
X5073750Y-6855000D02*
X5043750Y-6885000D01*
X5503923Y-7638076D02*
X5533923Y-7668076D01*
X5533923Y-7638076D02*
X5503923Y-7668076D01*
X6067817Y-7612390D02*
X6097817Y-7642390D01*
X6097817Y-7612390D02*
X6067817Y-7642390D01*
X7075750Y-7617000D02*
X7105750Y-7647000D01*
X7105750Y-7617000D02*
X7075750Y-7647000D01*
X7486942Y-9318482D02*
X7516942Y-9348482D01*
X7516942Y-9318482D02*
X7486942Y-9348482D01*
X7775300Y-8983040D02*
X7805300Y-9013040D01*
X7805300Y-8983040D02*
X7775300Y-9013040D01*
X7885002Y-8813241D02*
X7915002Y-8843241D01*
X7915002Y-8813241D02*
X7885002Y-8843241D01*
X9070633Y-5157405D02*
X9100633Y-5187405D01*
X9100633Y-5157405D02*
X9070633Y-5187405D01*
X9334643Y-5581032D02*
X9364643Y-5611032D01*
X9364643Y-5581032D02*
X9334643Y-5611032D01*
X12155750Y-7517821D02*
X12185750Y-7547821D01*
X12185750Y-7517821D02*
X12155750Y-7547821D01*
X12527278Y-8025821D02*
X12557278Y-8055821D01*
X12557278Y-8025821D02*
X12527278Y-8055821D01*
X13425750Y-5809821D02*
X13455750Y-5839821D01*
X13455750Y-5809821D02*
X13425750Y-5839821D01*
X13425750Y-7263821D02*
X13455750Y-7293821D01*
X13455750Y-7263821D02*
X13425750Y-7293821D01*
X13679750Y-6755821D02*
X13709750Y-6785821D01*
X13709750Y-6755821D02*
X13679750Y-6785821D01*
X13790766Y-5941968D02*
X13820766Y-5971968D01*
X13820766Y-5941968D02*
X13790766Y-5971968D01*
X13932375Y-5485396D02*
X13962375Y-5515396D01*
X13962375Y-5485396D02*
X13932375Y-5515396D01*
X14028708Y-7014042D02*
X14058708Y-7044042D01*
X14058708Y-7014042D02*
X14028708Y-7044042D01*
X14187750Y-7363000D02*
X14217750Y-7393000D01*
X14217750Y-7363000D02*
X14187750Y-7393000D01*
X14219251Y-6541071D02*
X14249251Y-6571071D01*
X14249251Y-6541071D02*
X14219251Y-6571071D01*
X15397366Y-6514442D02*
X15427366Y-6544442D01*
X15427366Y-6514442D02*
X15397366Y-6544442D01*
X15839510Y-4730813D02*
X15869510Y-4760813D01*
X15869510Y-4730813D02*
X15839510Y-4760813D01*
X15965750Y-5739821D02*
X15995750Y-5769821D01*
X15995750Y-5739821D02*
X15965750Y-5769821D01*
X16473750Y-7263821D02*
X16503750Y-7293821D01*
X16503750Y-7263821D02*
X16473750Y-7293821D01*
X16767389Y-5661518D02*
X16797389Y-5691518D01*
X16797389Y-5661518D02*
X16767389Y-5691518D01*
X17136051Y-6342971D02*
X17166051Y-6372971D01*
X17166051Y-6342971D02*
X17136051Y-6372971D01*
X18680578Y-5394566D02*
X18710578Y-5424566D01*
X18710578Y-5394566D02*
X18680578Y-5424566D01*
X19267750Y-5077000D02*
X19297750Y-5107000D01*
X19297750Y-5077000D02*
X19267750Y-5107000D01*
X19521750Y-5585000D02*
X19551750Y-5615000D01*
X19551750Y-5585000D02*
X19521750Y-5615000D01*
X20398186Y-5482934D02*
X20428186Y-5512934D01*
X20428186Y-5482934D02*
X20398186Y-5512934D01*
X20567814Y-5129457D02*
X20597814Y-5159457D01*
X20597814Y-5129457D02*
X20567814Y-5159457D01*
X20643750Y-9152895D02*
X20673750Y-9182895D01*
X20673750Y-9152895D02*
X20643750Y-9182895D01*
X20947359Y-6157448D02*
X20977359Y-6187448D01*
X20977359Y-6157448D02*
X20947359Y-6187448D01*
X21168298Y-4924565D02*
X21198298Y-4954565D01*
X21198298Y-4924565D02*
X21168298Y-4954565D01*
X22440916Y-9241266D02*
X22470916Y-9271266D01*
X22470916Y-9241266D02*
X22440916Y-9271266D01*
X23137138Y-6755180D02*
X23167138Y-6785180D01*
X23167138Y-6755180D02*
X23137138Y-6785180D01*
X23331750Y-5237770D02*
X23361750Y-5267770D01*
X23361750Y-5237770D02*
X23331750Y-5267770D01*
X24093750Y-5839000D02*
X24123750Y-5869000D01*
X24123750Y-5839000D02*
X24093750Y-5869000D01*
X24364200Y-6093000D02*
X24394200Y-6123000D01*
X24394200Y-6093000D02*
X24364200Y-6123000D01*
X24855750Y-5839000D02*
X24885750Y-5869000D01*
X24885750Y-5839000D02*
X24855750Y-5869000D01*
X24855750Y-6501821D02*
X24885750Y-6531821D01*
X24885750Y-6501821D02*
X24855750Y-6531821D01*
X24855750Y-7263821D02*
X24885750Y-7293821D01*
X24885750Y-7263821D02*
X24855750Y-7293821D01*
D12*
X1320750Y-3421321D02*
G75*
G03*
X1320750Y-3421321I-20000J0D01*
G01*
X1320750Y-4921321D02*
G75*
G03*
X1320750Y-4921321I-20000J0D01*
G01*
X1320750Y-5321321D02*
G75*
G03*
X1320750Y-5321321I-20000J0D01*
G01*
X1320750Y-6571321D02*
G75*
G03*
X1320750Y-6571321I-20000J0D01*
G01*
X1320750Y-6821321D02*
G75*
G03*
X1320750Y-6821321I-20000J0D01*
G01*
X2380750Y-8041321D02*
G75*
G03*
X2380750Y-8041321I-20000J0D01*
G01*
X2420750Y-6151321D02*
G75*
G03*
X2420750Y-6151321I-20000J0D01*
G01*
X2430750Y-3911321D02*
G75*
G03*
X2430750Y-3911321I-20000J0D01*
G01*
X2450750Y-4257822D02*
G75*
G03*
X2450750Y-4257822I-20000J0D01*
G01*
X2450750Y-5801321D02*
G75*
G03*
X2450750Y-5801321I-20000J0D01*
G01*
X2460273Y-4061820D02*
G75*
G03*
X2460273Y-4061820I-20000J0D01*
G01*
X3190750Y-5341321D02*
G75*
G03*
X3190750Y-5341321I-20000J0D01*
G01*
X3216484Y-4920312D02*
G75*
G03*
X3216484Y-4920312I-20000J0D01*
G01*
X3220750Y-3421321D02*
G75*
G03*
X3220750Y-3421321I-20000J0D01*
G01*
X3230750Y-6821321D02*
G75*
G03*
X3230750Y-6821321I-20000J0D01*
G01*
X3299695Y-6490266D02*
G75*
G03*
X3299695Y-6490266I-20000J0D01*
G01*
X3313250Y-5681321D02*
G75*
G03*
X3313250Y-5681321I-20000J0D01*
G01*
X3323250Y-3761321D02*
G75*
G03*
X3323250Y-3761321I-20000J0D01*
G01*
X3330750Y-4771321D02*
G75*
G03*
X3330750Y-4771321I-20000J0D01*
G01*
X3400750Y-3821321D02*
G75*
G03*
X3400750Y-3821321I-20000J0D01*
G01*
X3492750Y-6172821D02*
G75*
G03*
X3492750Y-6172821I-20000J0D01*
G01*
X3530750Y-7831321D02*
G75*
G03*
X3530750Y-7831321I-20000J0D01*
G01*
X3560750Y-4501321D02*
G75*
G03*
X3560750Y-4501321I-20000J0D01*
G01*
X3560750Y-5941321D02*
G75*
G03*
X3560750Y-5941321I-20000J0D01*
G01*
X3570750Y-4021321D02*
G75*
G03*
X3570750Y-4021321I-20000J0D01*
G01*
X3570750Y-6411321D02*
G75*
G03*
X3570750Y-6411321I-20000J0D01*
G01*
X4290750Y-5771321D02*
G75*
G03*
X4290750Y-5771321I-20000J0D01*
G01*
X4290750Y-7671321D02*
G75*
G03*
X4290750Y-7671321I-20000J0D01*
G01*
X4310750Y-3871321D02*
G75*
G03*
X4310750Y-3871321I-20000J0D01*
G01*
X5050750Y-3411321D02*
G75*
G03*
X5050750Y-3411321I-20000J0D01*
G01*
X5120750Y-2951321D02*
G75*
G03*
X5120750Y-2951321I-20000J0D01*
G01*
X5120750Y-4451321D02*
G75*
G03*
X5120750Y-4451321I-20000J0D01*
G01*
X5120750Y-4851321D02*
G75*
G03*
X5120750Y-4851321I-20000J0D01*
G01*
X5120750Y-6351321D02*
G75*
G03*
X5120750Y-6351321I-20000J0D01*
G01*
X5130750Y-2551321D02*
G75*
G03*
X5130750Y-2551321I-20000J0D01*
G01*
X5277708Y-6018279D02*
G75*
G03*
X5277708Y-6018279I-20000J0D01*
G01*
X6087717Y-7454354D02*
G75*
G03*
X6087717Y-7454354I-20000J0D01*
G01*
X6090750Y-5566321D02*
G75*
G03*
X6090750Y-5566321I-20000J0D01*
G01*
X6210750Y-3431321D02*
G75*
G03*
X6210750Y-3431321I-20000J0D01*
G01*
X6223251Y-7221321D02*
G75*
G03*
X6223251Y-7221321I-20000J0D01*
G01*
X6230751Y-3696320D02*
G75*
G03*
X6230751Y-3696320I-20000J0D01*
G01*
X6243251Y-5361321D02*
G75*
G03*
X6243251Y-5361321I-20000J0D01*
G01*
X6258750Y-3525516D02*
G75*
G03*
X6258750Y-3525516I-20000J0D01*
G01*
X6958250Y-6031321D02*
G75*
G03*
X6958250Y-6031321I-20000J0D01*
G01*
X6958250Y-6741321D02*
G75*
G03*
X6958250Y-6741321I-20000J0D01*
G01*
X7020750Y-2711321D02*
G75*
G03*
X7020750Y-2711321I-20000J0D01*
G01*
X7020750Y-4211321D02*
G75*
G03*
X7020750Y-4211321I-20000J0D01*
G01*
X7020750Y-4611321D02*
G75*
G03*
X7020750Y-4611321I-20000J0D01*
G01*
X7020750Y-6111321D02*
G75*
G03*
X7020750Y-6111321I-20000J0D01*
G01*
X7020750Y-6471321D02*
G75*
G03*
X7020750Y-6471321I-20000J0D01*
G01*
X7083250Y-3061321D02*
G75*
G03*
X7083250Y-3061321I-20000J0D01*
G01*
X7083250Y-6871321D02*
G75*
G03*
X7083250Y-6871321I-20000J0D01*
G01*
X7090750Y-6741321D02*
G75*
G03*
X7090750Y-6741321I-20000J0D01*
G01*
X7120750Y-3151321D02*
G75*
G03*
X7120750Y-3151321I-20000J0D01*
G01*
X7211169Y-5750319D02*
G75*
G03*
X7211169Y-5750319I-20000J0D01*
G01*
X7295750Y-7344821D02*
G75*
G03*
X7295750Y-7344821I-20000J0D01*
G01*
X7350750Y-3311321D02*
G75*
G03*
X7350750Y-3311321I-20000J0D01*
G01*
X7360750Y-5211321D02*
G75*
G03*
X7360750Y-5211321I-20000J0D01*
G01*
X7360750Y-7111321D02*
G75*
G03*
X7360750Y-7111321I-20000J0D01*
G01*
X7370750Y-3791321D02*
G75*
G03*
X7370750Y-3791321I-20000J0D01*
G01*
X7370750Y-7581321D02*
G75*
G03*
X7370750Y-7581321I-20000J0D01*
G01*
X7970750Y-8331321D02*
G75*
G03*
X7970750Y-8331321I-20000J0D01*
G01*
X8100750Y-3161321D02*
G75*
G03*
X8100750Y-3161321I-20000J0D01*
G01*
X8100750Y-5071321D02*
G75*
G03*
X8100750Y-5071321I-20000J0D01*
G01*
X8100750Y-6971321D02*
G75*
G03*
X8100750Y-6971321I-20000J0D01*
G01*
X8310750Y-9311321D02*
G75*
G03*
X8310750Y-9311321I-20000J0D01*
G01*
X8920750Y-2951321D02*
G75*
G03*
X8920750Y-2951321I-20000J0D01*
G01*
X8920750Y-4451321D02*
G75*
G03*
X8920750Y-4451321I-20000J0D01*
G01*
X8920750Y-4851321D02*
G75*
G03*
X8920750Y-4851321I-20000J0D01*
G01*
X8920750Y-6351321D02*
G75*
G03*
X8920750Y-6351321I-20000J0D01*
G01*
X8920750Y-6751321D02*
G75*
G03*
X8920750Y-6751321I-20000J0D01*
G01*
X9050750Y-9171321D02*
G75*
G03*
X9050750Y-9171321I-20000J0D01*
G01*
X9396750Y-6108000D02*
G75*
G03*
X9396750Y-6108000I-20000J0D01*
G01*
X9880750Y-5576321D02*
G75*
G03*
X9880750Y-5576321I-20000J0D01*
G01*
X9900750Y-7471321D02*
G75*
G03*
X9900750Y-7471321I-20000J0D01*
G01*
X10008250Y-3646321D02*
G75*
G03*
X10008250Y-3646321I-20000J0D01*
G01*
X10010750Y-7231321D02*
G75*
G03*
X10010750Y-7231321I-20000J0D01*
G01*
X10020750Y-8421321D02*
G75*
G03*
X10020750Y-8421321I-20000J0D01*
G01*
X10064370Y-3401164D02*
G75*
G03*
X10064370Y-3401164I-20000J0D01*
G01*
X10079750Y-3488821D02*
G75*
G03*
X10079750Y-3488821I-20000J0D01*
G01*
X10105750Y-5391321D02*
G75*
G03*
X10105750Y-5391321I-20000J0D01*
G01*
X10290750Y-9461321D02*
G75*
G03*
X10290750Y-9461321I-20000J0D01*
G01*
X10820750Y-3181321D02*
G75*
G03*
X10820750Y-3181321I-20000J0D01*
G01*
X10820750Y-4691321D02*
G75*
G03*
X10820750Y-4691321I-20000J0D01*
G01*
X10820750Y-5081321D02*
G75*
G03*
X10820750Y-5081321I-20000J0D01*
G01*
X10820750Y-6581321D02*
G75*
G03*
X10820750Y-6581321I-20000J0D01*
G01*
X10820750Y-6981321D02*
G75*
G03*
X10820750Y-6981321I-20000J0D01*
G01*
X10883250Y-7341321D02*
G75*
G03*
X10883250Y-7341321I-20000J0D01*
G01*
X10906251Y-3540193D02*
G75*
G03*
X10906251Y-3540193I-20000J0D01*
G01*
X10967301Y-6183203D02*
G75*
G03*
X10967301Y-6183203I-20000J0D01*
G01*
X10976252Y-3581321D02*
G75*
G03*
X10976252Y-3581321I-20000J0D01*
G01*
X11040750Y-9571321D02*
G75*
G03*
X11040750Y-9571321I-20000J0D01*
G01*
X11150750Y-5681321D02*
G75*
G03*
X11150750Y-5681321I-20000J0D01*
G01*
X11160750Y-3791321D02*
G75*
G03*
X11160750Y-3791321I-20000J0D01*
G01*
X11160750Y-7591321D02*
G75*
G03*
X11160750Y-7591321I-20000J0D01*
G01*
X11160750Y-8081321D02*
G75*
G03*
X11160750Y-8081321I-20000J0D01*
G01*
X11170750Y-4271321D02*
G75*
G03*
X11170750Y-4271321I-20000J0D01*
G01*
X11810750Y-5811321D02*
G75*
G03*
X11810750Y-5811321I-20000J0D01*
G01*
X11880750Y-5541321D02*
G75*
G03*
X11880750Y-5541321I-20000J0D01*
G01*
X11900750Y-3641321D02*
G75*
G03*
X11900750Y-3641321I-20000J0D01*
G01*
X11900750Y-7441321D02*
G75*
G03*
X11900750Y-7441321I-20000J0D01*
G01*
X11910750Y-5411321D02*
G75*
G03*
X11910750Y-5411321I-20000J0D01*
G01*
X11920750Y-8161321D02*
G75*
G03*
X11920750Y-8161321I-20000J0D01*
G01*
X12280750Y-9801321D02*
G75*
G03*
X12280750Y-9801321I-20000J0D01*
G01*
X12380750Y-5321321D02*
G75*
G03*
X12380750Y-5321321I-20000J0D01*
G01*
X12480750Y-6801321D02*
G75*
G03*
X12480750Y-6801321I-20000J0D01*
G01*
X12500750Y-3531321D02*
G75*
G03*
X12500750Y-3531321I-20000J0D01*
G01*
X12500750Y-6981321D02*
G75*
G03*
X12500750Y-6981321I-20000J0D01*
G01*
X12515751Y-3991321D02*
G75*
G03*
X12515751Y-3991321I-20000J0D01*
G01*
X12649750Y-7631321D02*
G75*
G03*
X12649750Y-7631321I-20000J0D01*
G01*
X12669374Y-8539056D02*
G75*
G03*
X12669374Y-8539056I-20000J0D01*
G01*
X13290750Y-10011321D02*
G75*
G03*
X13290750Y-10011321I-20000J0D01*
G01*
X13540069Y-9311998D02*
G75*
G03*
X13540069Y-9311998I-20000J0D01*
G01*
X16053750Y-9364321D02*
G75*
G03*
X16053750Y-9364321I-20000J0D01*
G01*
X16508750Y-7786821D02*
G75*
G03*
X16508750Y-7786821I-20000J0D01*
G01*
X16540750Y-9946321D02*
G75*
G03*
X16540750Y-9946321I-20000J0D01*
G01*
X17016750Y-8568321D02*
G75*
G03*
X17016750Y-8568321I-20000J0D01*
G01*
X17126376Y-3039723D02*
G75*
G03*
X17126376Y-3039723I-20000J0D01*
G01*
X17198750Y-5990321D02*
G75*
G03*
X17198750Y-5990321I-20000J0D01*
G01*
X17205749Y-3931321D02*
G75*
G03*
X17205749Y-3931321I-20000J0D01*
G01*
X17213450Y-3521321D02*
G75*
G03*
X17213450Y-3521321I-20000J0D01*
G01*
X17270750Y-8294821D02*
G75*
G03*
X17270750Y-8294821I-20000J0D01*
G01*
X17273750Y-5772321D02*
G75*
G03*
X17273750Y-5772321I-20000J0D01*
G01*
X17290750Y-5105321D02*
G75*
G03*
X17290750Y-5105321I-20000J0D01*
G01*
X17355750Y-4002321D02*
G75*
G03*
X17355750Y-4002321I-20000J0D01*
G01*
X17355750Y-4527321D02*
G75*
G03*
X17355750Y-4527321I-20000J0D01*
G01*
X17449750Y-6202321D02*
G75*
G03*
X17449750Y-6202321I-20000J0D01*
G01*
X17461750Y-6968321D02*
G75*
G03*
X17461750Y-6968321I-20000J0D01*
G01*
X17470750Y-3181321D02*
G75*
G03*
X17470750Y-3181321I-20000J0D01*
G01*
X17470750Y-4681321D02*
G75*
G03*
X17470750Y-4681321I-20000J0D01*
G01*
X17470750Y-6591321D02*
G75*
G03*
X17470750Y-6591321I-20000J0D01*
G01*
X17480750Y-5091321D02*
G75*
G03*
X17480750Y-5091321I-20000J0D01*
G01*
X17543250Y-5742322D02*
G75*
G03*
X17543250Y-5742322I-20000J0D01*
G01*
X17543250Y-6150821D02*
G75*
G03*
X17543250Y-6150821I-20000J0D01*
G01*
X17718750Y-7369321D02*
G75*
G03*
X17718750Y-7369321I-20000J0D01*
G01*
X17723750Y-8139321D02*
G75*
G03*
X17723750Y-8139321I-20000J0D01*
G01*
X17724249Y-8266321D02*
G75*
G03*
X17724249Y-8266321I-20000J0D01*
G01*
X17745344Y-4347760D02*
G75*
G03*
X17745344Y-4347760I-20000J0D01*
G01*
X17790750Y-7604321D02*
G75*
G03*
X17790750Y-7604321I-20000J0D01*
G01*
X17797750Y-3565321D02*
G75*
G03*
X17797750Y-3565321I-20000J0D01*
G01*
X17813750Y-5687321D02*
G75*
G03*
X17813750Y-5687321I-20000J0D01*
G01*
X17823751Y-3791321D02*
G75*
G03*
X17823751Y-3791321I-20000J0D01*
G01*
X18138750Y-8790321D02*
G75*
G03*
X18138750Y-8790321I-20000J0D01*
G01*
X18553750Y-5539321D02*
G75*
G03*
X18553750Y-5539321I-20000J0D01*
G01*
X18556750Y-7453321D02*
G75*
G03*
X18556750Y-7453321I-20000J0D01*
G01*
X18714750Y-9649321D02*
G75*
G03*
X18714750Y-9649321I-20000J0D01*
G01*
X19333750Y-6088321D02*
G75*
G03*
X19333750Y-6088321I-20000J0D01*
G01*
X19370750Y-2941321D02*
G75*
G03*
X19370750Y-2941321I-20000J0D01*
G01*
X19370750Y-4451321D02*
G75*
G03*
X19370750Y-4451321I-20000J0D01*
G01*
X19370750Y-4831321D02*
G75*
G03*
X19370750Y-4831321I-20000J0D01*
G01*
X19370750Y-6351321D02*
G75*
G03*
X19370750Y-6351321I-20000J0D01*
G01*
X19371750Y-6733321D02*
G75*
G03*
X19371750Y-6733321I-20000J0D01*
G01*
X19705750Y-7337321D02*
G75*
G03*
X19705750Y-7337321I-20000J0D01*
G01*
X19710750Y-5437321D02*
G75*
G03*
X19710750Y-5437321I-20000J0D01*
G01*
X20328750Y-8334321D02*
G75*
G03*
X20328750Y-8334321I-20000J0D01*
G01*
X20452750Y-7224321D02*
G75*
G03*
X20452750Y-7224321I-20000J0D01*
G01*
X20459750Y-5315321D02*
G75*
G03*
X20459750Y-5315321I-20000J0D01*
G01*
X20463750Y-3419321D02*
G75*
G03*
X20463750Y-3419321I-20000J0D01*
G01*
X21270750Y-2701321D02*
G75*
G03*
X21270750Y-2701321I-20000J0D01*
G01*
X21270750Y-4211321D02*
G75*
G03*
X21270750Y-4211321I-20000J0D01*
G01*
X21270750Y-4611321D02*
G75*
G03*
X21270750Y-4611321I-20000J0D01*
G01*
X21270750Y-6121321D02*
G75*
G03*
X21270750Y-6121321I-20000J0D01*
G01*
X21275750Y-6499321D02*
G75*
G03*
X21275750Y-6499321I-20000J0D01*
G01*
X21396750Y-9174321D02*
G75*
G03*
X21396750Y-9174321I-20000J0D01*
G01*
X21452750Y-7477321D02*
G75*
G03*
X21452750Y-7477321I-20000J0D01*
G01*
X21535249Y-3871707D02*
G75*
G03*
X21535249Y-3871707I-20000J0D01*
G01*
X21541750Y-7678321D02*
G75*
G03*
X21541750Y-7678321I-20000J0D01*
G01*
X21545750Y-6892321D02*
G75*
G03*
X21545750Y-6892321I-20000J0D01*
G01*
X21547459Y-5801771D02*
G75*
G03*
X21547459Y-5801771I-20000J0D01*
G01*
X21549750Y-3106321D02*
G75*
G03*
X21549750Y-3106321I-20000J0D01*
G01*
X21609750Y-5216321D02*
G75*
G03*
X21609750Y-5216321I-20000J0D01*
G01*
X21620750Y-7114321D02*
G75*
G03*
X21620750Y-7114321I-20000J0D01*
G01*
X21624750Y-3311321D02*
G75*
G03*
X21624750Y-3311321I-20000J0D01*
G01*
X22343217Y-5089854D02*
G75*
G03*
X22343217Y-5089854I-20000J0D01*
G01*
X22346717Y-6973354D02*
G75*
G03*
X22346717Y-6973354I-20000J0D01*
G01*
X23143445Y-5752126D02*
G75*
G03*
X23143445Y-5752126I-20000J0D01*
G01*
X23170750Y-2931321D02*
G75*
G03*
X23170750Y-2931321I-20000J0D01*
G01*
X23170750Y-4451321D02*
G75*
G03*
X23170750Y-4451321I-20000J0D01*
G01*
X23180750Y-4851321D02*
G75*
G03*
X23180750Y-4851321I-20000J0D01*
G01*
X23180750Y-6351321D02*
G75*
G03*
X23180750Y-6351321I-20000J0D01*
G01*
X23510750Y-7336321D02*
G75*
G03*
X23510750Y-7336321I-20000J0D01*
G01*
X23517750Y-5436321D02*
G75*
G03*
X23517750Y-5436321I-20000J0D01*
G01*
X24247750Y-5330321D02*
G75*
G03*
X24247750Y-5330321I-20000J0D01*
G01*
X24253750Y-3415321D02*
G75*
G03*
X24253750Y-3415321I-20000J0D01*
G01*
X25019750Y-6310822D02*
G75*
G03*
X25019750Y-6310822I-20000J0D01*
G01*
X25070750Y-3411321D02*
G75*
G03*
X25070750Y-3411321I-20000J0D01*
G01*
X25070750Y-4931321D02*
G75*
G03*
X25070750Y-4931321I-20000J0D01*
G01*
X25070750Y-5321321D02*
G75*
G03*
X25070750Y-5321321I-20000J0D01*
G01*
X25070750Y-6821321D02*
G75*
G03*
X25070750Y-6821321I-20000J0D01*
G01*
X25337249Y-6474223D02*
G75*
G03*
X25337249Y-6474223I-20000J0D01*
G01*
X25351499Y-4596486D02*
G75*
G03*
X25351499Y-4596486I-20000J0D01*
G01*
X25377750Y-5701321D02*
G75*
G03*
X25377750Y-5701321I-20000J0D01*
G01*
X25395750Y-3795321D02*
G75*
G03*
X25395750Y-3795321I-20000J0D01*
G01*
X25420750Y-5943321D02*
G75*
G03*
X25420750Y-5943321I-20000J0D01*
G01*
X25436750Y-4036321D02*
G75*
G03*
X25436750Y-4036321I-20000J0D01*
G01*
X26150750Y-5775321D02*
G75*
G03*
X26150750Y-5775321I-20000J0D01*
G01*
X26152750Y-7676321D02*
G75*
G03*
X26152750Y-7676321I-20000J0D01*
G01*
X26946166Y-6139117D02*
G75*
G03*
X26946166Y-6139117I-20000J0D01*
G01*
X26948250Y-4622321D02*
G75*
G03*
X26948250Y-4622321I-20000J0D01*
G01*
X26970750Y-6831321D02*
G75*
G03*
X26970750Y-6831321I-20000J0D01*
G01*
X26974750Y-6555821D02*
G75*
G03*
X26974750Y-6555821I-20000J0D01*
G01*
X26979251Y-4921321D02*
G75*
G03*
X26979251Y-4921321I-20000J0D01*
G01*
X26980750Y-3421321D02*
G75*
G03*
X26980750Y-3421321I-20000J0D01*
G01*
X26981750Y-5356321D02*
G75*
G03*
X26981750Y-5356321I-20000J0D01*
G01*
X27317750Y-5918321D02*
G75*
G03*
X27317750Y-5918321I-20000J0D01*
G01*
X27331750Y-7826321D02*
G75*
G03*
X27331750Y-7826321I-20000J0D01*
G01*
X28051750Y-3897321D02*
G75*
G03*
X28051750Y-3897321I-20000J0D01*
G01*
X28056750Y-5790321D02*
G75*
G03*
X28056750Y-5790321I-20000J0D01*
G01*
D13*
X12720390Y-3054381D02*
X12720390Y-3135661D01*
X12679750Y-3095021D02*
X12761030Y-3095021D01*
X12720390Y-3308381D02*
X12720390Y-3389661D01*
X12679750Y-3349021D02*
X12761030Y-3349021D01*
X12720390Y-3562381D02*
X12720390Y-3643661D01*
X12679750Y-3603021D02*
X12761030Y-3603021D01*
X12720390Y-3816381D02*
X12720390Y-3897661D01*
X12679750Y-3857021D02*
X12761030Y-3857021D01*
X12720390Y-4070381D02*
X12720390Y-4151661D01*
X12679750Y-4111021D02*
X12761030Y-4111021D01*
X12720390Y-4324381D02*
X12720390Y-4405661D01*
X12679750Y-4365021D02*
X12761030Y-4365021D01*
X12720390Y-4578381D02*
X12720390Y-4659661D01*
X12679750Y-4619021D02*
X12761030Y-4619021D01*
X12720390Y-4832381D02*
X12720390Y-4913661D01*
X12679750Y-4873021D02*
X12761030Y-4873021D01*
X12720390Y-5086381D02*
X12720390Y-5167661D01*
X12679750Y-5127021D02*
X12761030Y-5127021D01*
X12720390Y-5340381D02*
X12720390Y-5421661D01*
X12679750Y-5381021D02*
X12761030Y-5381021D01*
X12720390Y-5594381D02*
X12720390Y-5675661D01*
X12679750Y-5635021D02*
X12761030Y-5635021D01*
X12720390Y-5848381D02*
X12720390Y-5929661D01*
X12679750Y-5889021D02*
X12761030Y-5889021D01*
X12958150Y-6222181D02*
X12958150Y-6303461D01*
X12917510Y-6262821D02*
X12998790Y-6262821D01*
X13212150Y-6222181D02*
X13212150Y-6303461D01*
X13171510Y-6262821D02*
X13252790Y-6262821D01*
X13466150Y-6222181D02*
X13466150Y-6303461D01*
X13425510Y-6262821D02*
X13506790Y-6262821D01*
X13720150Y-6222181D02*
X13720150Y-6303461D01*
X13679510Y-6262821D02*
X13760790Y-6262821D01*
X13923796Y-7194540D02*
X13923796Y-7275820D01*
X13883156Y-7235180D02*
X13964436Y-7235180D01*
X13923796Y-7448540D02*
X13923796Y-7529820D01*
X13883156Y-7489180D02*
X13964436Y-7489180D01*
X13923796Y-7702540D02*
X13923796Y-7783820D01*
X13883156Y-7743180D02*
X13964436Y-7743180D01*
X13974150Y-6222181D02*
X13974150Y-6303461D01*
X13933510Y-6262821D02*
X14014790Y-6262821D01*
X14242390Y-3054381D02*
X14242390Y-3135661D01*
X14201750Y-3095021D02*
X14283030Y-3095021D01*
X14242390Y-3308381D02*
X14242390Y-3389661D01*
X14201750Y-3349021D02*
X14283030Y-3349021D01*
X14242390Y-3562381D02*
X14242390Y-3643661D01*
X14201750Y-3603021D02*
X14283030Y-3603021D01*
X14242390Y-3816381D02*
X14242390Y-3897661D01*
X14201750Y-3857021D02*
X14283030Y-3857021D01*
X14242390Y-4070381D02*
X14242390Y-4151661D01*
X14201750Y-4111021D02*
X14283030Y-4111021D01*
X14242390Y-4324381D02*
X14242390Y-4405661D01*
X14201750Y-4365021D02*
X14283030Y-4365021D01*
X14242390Y-4578381D02*
X14242390Y-4659661D01*
X14201750Y-4619021D02*
X14283030Y-4619021D01*
X14242390Y-4832381D02*
X14242390Y-4913661D01*
X14201750Y-4873021D02*
X14283030Y-4873021D01*
X14242390Y-5086381D02*
X14242390Y-5167661D01*
X14201750Y-5127021D02*
X14283030Y-5127021D01*
X14242390Y-5340381D02*
X14242390Y-5421661D01*
X14201750Y-5381021D02*
X14283030Y-5381021D01*
X14242390Y-5594381D02*
X14242390Y-5675661D01*
X14201750Y-5635021D02*
X14283030Y-5635021D01*
X14242390Y-5848381D02*
X14242390Y-5929661D01*
X14201750Y-5889021D02*
X14283030Y-5889021D01*
X15437890Y-3051381D02*
X15437890Y-3132661D01*
X15397250Y-3092021D02*
X15478530Y-3092021D01*
X15437890Y-3305381D02*
X15437890Y-3386661D01*
X15397250Y-3346021D02*
X15478530Y-3346021D01*
X15437890Y-3559381D02*
X15437890Y-3640661D01*
X15397250Y-3600021D02*
X15478530Y-3600021D01*
X15437890Y-3813381D02*
X15437890Y-3894661D01*
X15397250Y-3854021D02*
X15478530Y-3854021D01*
X15437890Y-4067381D02*
X15437890Y-4148661D01*
X15397250Y-4108021D02*
X15478530Y-4108021D01*
X15437890Y-4321381D02*
X15437890Y-4402661D01*
X15397250Y-4362021D02*
X15478530Y-4362021D01*
X15437890Y-4575381D02*
X15437890Y-4656661D01*
X15397250Y-4616021D02*
X15478530Y-4616021D01*
X15437890Y-4829381D02*
X15437890Y-4910661D01*
X15397250Y-4870021D02*
X15478530Y-4870021D01*
X15437890Y-5083381D02*
X15437890Y-5164661D01*
X15397250Y-5124021D02*
X15478530Y-5124021D01*
X15437890Y-5337381D02*
X15437890Y-5418661D01*
X15397250Y-5378021D02*
X15478530Y-5378021D01*
X15437890Y-5591381D02*
X15437890Y-5672661D01*
X15397250Y-5632021D02*
X15478530Y-5632021D01*
X15437890Y-5845381D02*
X15437890Y-5926661D01*
X15397250Y-5886021D02*
X15478530Y-5886021D01*
X15709843Y-6222181D02*
X15709843Y-6303461D01*
X15669203Y-6262821D02*
X15750483Y-6262821D01*
X15769057Y-7195248D02*
X15769057Y-7276528D01*
X15728417Y-7235888D02*
X15809697Y-7235888D01*
X15769057Y-7449248D02*
X15769057Y-7530528D01*
X15728417Y-7489888D02*
X15809697Y-7489888D01*
X15769057Y-7703248D02*
X15769057Y-7784528D01*
X15728417Y-7743888D02*
X15809697Y-7743888D01*
X15963843Y-6222181D02*
X15963843Y-6303461D01*
X15923203Y-6262821D02*
X16004483Y-6262821D01*
X16217843Y-6222181D02*
X16217843Y-6303461D01*
X16177203Y-6262821D02*
X16258483Y-6262821D01*
X16471843Y-6222181D02*
X16471843Y-6303461D01*
X16431203Y-6262821D02*
X16512483Y-6262821D01*
X16725843Y-6222181D02*
X16725843Y-6303461D01*
X16685203Y-6262821D02*
X16766483Y-6262821D01*
X16959890Y-3051381D02*
X16959890Y-3132661D01*
X16919250Y-3092021D02*
X17000530Y-3092021D01*
X16959890Y-3305381D02*
X16959890Y-3386661D01*
X16919250Y-3346021D02*
X17000530Y-3346021D01*
X16959890Y-3559381D02*
X16959890Y-3640661D01*
X16919250Y-3600021D02*
X17000530Y-3600021D01*
X16959890Y-3813381D02*
X16959890Y-3894661D01*
X16919250Y-3854021D02*
X17000530Y-3854021D01*
X16959890Y-4067381D02*
X16959890Y-4148661D01*
X16919250Y-4108021D02*
X17000530Y-4108021D01*
X16959890Y-4321381D02*
X16959890Y-4402661D01*
X16919250Y-4362021D02*
X17000530Y-4362021D01*
X16959890Y-4575381D02*
X16959890Y-4656661D01*
X16919250Y-4616021D02*
X17000530Y-4616021D01*
X16959890Y-4829381D02*
X16959890Y-4910661D01*
X16919250Y-4870021D02*
X17000530Y-4870021D01*
X16959890Y-5083381D02*
X16959890Y-5164661D01*
X16919250Y-5124021D02*
X17000530Y-5124021D01*
X16959890Y-5337381D02*
X16959890Y-5418661D01*
X16919250Y-5378021D02*
X17000530Y-5378021D01*
X16959890Y-5591381D02*
X16959890Y-5672661D01*
X16919250Y-5632021D02*
X17000530Y-5632021D01*
X16959890Y-5845381D02*
X16959890Y-5926661D01*
X16919250Y-5886021D02*
X17000530Y-5886021D01*
D14*
X6087277Y-8552410D02*
X6087277Y-8481699D01*
X6016565Y-8481699D01*
X6016565Y-8552410D01*
X6087277Y-8552410D01*
X6087277Y-9052410D02*
X6087277Y-8981699D01*
X6016565Y-8981699D01*
X6016565Y-9052410D01*
X6087277Y-9052410D01*
X7537277Y-8552410D02*
X7537277Y-8481699D01*
X7466565Y-8481699D01*
X7466565Y-8552410D01*
X7537277Y-8552410D01*
X7537277Y-8802410D02*
X7537277Y-8731699D01*
X7466565Y-8731699D01*
X7466565Y-8802410D01*
X7537277Y-8802410D01*
X7537277Y-9052410D02*
X7537277Y-8981699D01*
X7466565Y-8981699D01*
X7466565Y-9052410D01*
X7537277Y-9052410D01*
X22203505Y-8549075D02*
X22203505Y-8478363D01*
X22132794Y-8478363D01*
X22132794Y-8549075D01*
X22203505Y-8549075D01*
X22203505Y-8799075D02*
X22203505Y-8728363D01*
X22132794Y-8728363D01*
X22132794Y-8799075D01*
X22203505Y-8799075D01*
X22203505Y-9049075D02*
X22203505Y-8978363D01*
X22132794Y-8978363D01*
X22132794Y-9049075D01*
X22203505Y-9049075D01*
X23653505Y-8549075D02*
X23653505Y-8478363D01*
X23582794Y-8478363D01*
X23582794Y-8549075D01*
X23653505Y-8549075D01*
X23653505Y-9049075D02*
X23653505Y-8978363D01*
X23582794Y-8978363D01*
X23582794Y-9049075D01*
X23653505Y-9049075D01*
D15*
X14272528Y-6256821D02*
X14337528Y-6191821D01*
X14272528Y-6126821D01*
X14207528Y-6191821D01*
X14272528Y-6256821D01*
X14272528Y-6906821D02*
X14337528Y-6841821D01*
X14272528Y-6776821D01*
X14207528Y-6841821D01*
X14272528Y-6906821D01*
X15411761Y-6256821D02*
X15476761Y-6191821D01*
X15411761Y-6126821D01*
X15346761Y-6191821D01*
X15411761Y-6256821D01*
X15411761Y-6906821D02*
X15476761Y-6841821D01*
X15411761Y-6776821D01*
X15346761Y-6841821D01*
X15411761Y-6906821D01*
D16*
X6676921Y-8132055D02*
X6826921Y-8282055D01*
X6826921Y-8132055D02*
X6676921Y-8282055D01*
X6826921Y-8207055D02*
G75*
G03*
X6826921Y-8207055I-75000J0D01*
G01*
D10*
X6816921Y-8132055D02*
X6686921Y-8132055D01*
X6686921Y-8132055D02*
G75*
G03*
X6686921Y-8282055I0J-75000D01*
G01*
X6686921Y-8282055D02*
X6816921Y-8282055D01*
X6816921Y-8282055D02*
G75*
G03*
X6816921Y-8132055I0J75000D01*
G01*
D16*
X6676921Y-9252055D02*
X6826921Y-9402055D01*
X6826921Y-9252055D02*
X6676921Y-9402055D01*
X6826921Y-9327055D02*
G75*
G03*
X6826921Y-9327055I-75000J0D01*
G01*
D10*
X6816921Y-9252055D02*
X6686921Y-9252055D01*
X6686921Y-9252055D02*
G75*
G03*
X6686921Y-9402055I0J-75000D01*
G01*
X6686921Y-9402055D02*
X6816921Y-9402055D01*
X6816921Y-9402055D02*
G75*
G03*
X6816921Y-9252055I0J75000D01*
G01*
D16*
X22843149Y-8128719D02*
X22993149Y-8278719D01*
X22993149Y-8128719D02*
X22843149Y-8278719D01*
X22993149Y-8203719D02*
G75*
G03*
X22993149Y-8203719I-75000J0D01*
G01*
D10*
X22853149Y-8278719D02*
X22983149Y-8278719D01*
X22983149Y-8278719D02*
G75*
G03*
X22983149Y-8128719I0J75000D01*
G01*
X22983149Y-8128719D02*
X22853149Y-8128719D01*
X22853149Y-8128719D02*
G75*
G03*
X22853149Y-8278719I0J-75000D01*
G01*
D16*
X22843149Y-9248719D02*
X22993149Y-9398719D01*
X22993149Y-9248719D02*
X22843149Y-9398719D01*
X22993149Y-9323719D02*
G75*
G03*
X22993149Y-9323719I-75000J0D01*
G01*
D10*
X22853149Y-9398719D02*
X22983149Y-9398719D01*
X22983149Y-9398719D02*
G75*
G03*
X22983149Y-9248719I0J75000D01*
G01*
X22983149Y-9248719D02*
X22853149Y-9248719D01*
X22853149Y-9248719D02*
G75*
G03*
X22853149Y-9398719I0J-75000D01*
G01*
D17*
X6726750Y-5644821D02*
X6946750Y-5864821D01*
X6946750Y-5644821D02*
X6726750Y-5864821D01*
X6836750Y-5644821D02*
X6836750Y-5864821D01*
X6726750Y-5754821D02*
X6946750Y-5754821D01*
X8631750Y-3739821D02*
X8851750Y-3959821D01*
X8851750Y-3739821D02*
X8631750Y-3959821D01*
X8741750Y-3739821D02*
X8741750Y-3959821D01*
X8631750Y-3849821D02*
X8851750Y-3849821D01*
X8631750Y-7549821D02*
X8851750Y-7769821D01*
X8851750Y-7549821D02*
X8631750Y-7769821D01*
X8741750Y-7549821D02*
X8741750Y-7769821D01*
X8631750Y-7659821D02*
X8851750Y-7659821D01*
X10536750Y-5644821D02*
X10756750Y-5864821D01*
X10756750Y-5644821D02*
X10536750Y-5864821D01*
X10646750Y-5644821D02*
X10646750Y-5864821D01*
X10536750Y-5754821D02*
X10756750Y-5754821D01*
X18918750Y-5644821D02*
X19138750Y-5864821D01*
X19138750Y-5644821D02*
X18918750Y-5864821D01*
X19028750Y-5644821D02*
X19028750Y-5864821D01*
X18918750Y-5754821D02*
X19138750Y-5754821D01*
X20823750Y-3739821D02*
X21043750Y-3959821D01*
X21043750Y-3739821D02*
X20823750Y-3959821D01*
X20933750Y-3739821D02*
X20933750Y-3959821D01*
X20823750Y-3849821D02*
X21043750Y-3849821D01*
X20823750Y-7549821D02*
X21043750Y-7769821D01*
X21043750Y-7549821D02*
X20823750Y-7769821D01*
X20933750Y-7549821D02*
X20933750Y-7769821D01*
X20823750Y-7659821D02*
X21043750Y-7659821D01*
X22728750Y-5644821D02*
X22948750Y-5864821D01*
X22948750Y-5644821D02*
X22728750Y-5864821D01*
X22838750Y-5644821D02*
X22838750Y-5864821D01*
X22728750Y-5754821D02*
X22948750Y-5754821D01*
D18*
X8431750Y-5444821D02*
X9051750Y-6064821D01*
X9051750Y-5444821D02*
X8431750Y-6064821D01*
X8960955Y-5974026D02*
X8960955Y-5535616D01*
X8522545Y-5535616D01*
X8522545Y-5974026D01*
X8960955Y-5974026D01*
X20623750Y-5444821D02*
X21243750Y-6064821D01*
X21243750Y-5444821D02*
X20623750Y-6064821D01*
X21152955Y-5974026D02*
X21152955Y-5535616D01*
X20714545Y-5535616D01*
X20714545Y-5974026D01*
X21152955Y-5974026D01*
D10*
X1319527Y-11985805D02*
X1319527Y-11785805D01*
X1319527Y-11785805D02*
X1367146Y-11785805D01*
X1367146Y-11785805D02*
X1395717Y-11795329D01*
X1395717Y-11795329D02*
X1414765Y-11814376D01*
X1414765Y-11814376D02*
X1424289Y-11833424D01*
X1424289Y-11833424D02*
X1433812Y-11871519D01*
X1433812Y-11871519D02*
X1433812Y-11900091D01*
X1433812Y-11900091D02*
X1424289Y-11938186D01*
X1424289Y-11938186D02*
X1414765Y-11957233D01*
X1414765Y-11957233D02*
X1395717Y-11976281D01*
X1395717Y-11976281D02*
X1367146Y-11985805D01*
X1367146Y-11985805D02*
X1319527Y-11985805D01*
X1519527Y-11985805D02*
X1519527Y-11852471D01*
X1519527Y-11890567D02*
X1529051Y-11871519D01*
X1529051Y-11871519D02*
X1538574Y-11861995D01*
X1538574Y-11861995D02*
X1557622Y-11852471D01*
X1557622Y-11852471D02*
X1576670Y-11852471D01*
X1643336Y-11985805D02*
X1643336Y-11852471D01*
X1643336Y-11785805D02*
X1633812Y-11795329D01*
X1633812Y-11795329D02*
X1643336Y-11804852D01*
X1643336Y-11804852D02*
X1652860Y-11795329D01*
X1652860Y-11795329D02*
X1643336Y-11785805D01*
X1643336Y-11785805D02*
X1643336Y-11804852D01*
X1767146Y-11985805D02*
X1748098Y-11976281D01*
X1748098Y-11976281D02*
X1738574Y-11957233D01*
X1738574Y-11957233D02*
X1738574Y-11785805D01*
X1871908Y-11985805D02*
X1852860Y-11976281D01*
X1852860Y-11976281D02*
X1843336Y-11957233D01*
X1843336Y-11957233D02*
X1843336Y-11785805D01*
X2100479Y-11985805D02*
X2100479Y-11785805D01*
X2100479Y-11785805D02*
X2167146Y-11928662D01*
X2167146Y-11928662D02*
X2233813Y-11785805D01*
X2233813Y-11785805D02*
X2233813Y-11985805D01*
X2414765Y-11985805D02*
X2414765Y-11881043D01*
X2414765Y-11881043D02*
X2405241Y-11861995D01*
X2405241Y-11861995D02*
X2386194Y-11852471D01*
X2386194Y-11852471D02*
X2348098Y-11852471D01*
X2348098Y-11852471D02*
X2329051Y-11861995D01*
X2414765Y-11976281D02*
X2395717Y-11985805D01*
X2395717Y-11985805D02*
X2348098Y-11985805D01*
X2348098Y-11985805D02*
X2329051Y-11976281D01*
X2329051Y-11976281D02*
X2319527Y-11957233D01*
X2319527Y-11957233D02*
X2319527Y-11938186D01*
X2319527Y-11938186D02*
X2329051Y-11919138D01*
X2329051Y-11919138D02*
X2348098Y-11909614D01*
X2348098Y-11909614D02*
X2395717Y-11909614D01*
X2395717Y-11909614D02*
X2414765Y-11900091D01*
X2510003Y-11852471D02*
X2510003Y-12052471D01*
X2510003Y-11861995D02*
X2529051Y-11852471D01*
X2529051Y-11852471D02*
X2567146Y-11852471D01*
X2567146Y-11852471D02*
X2586194Y-11861995D01*
X2586194Y-11861995D02*
X2595717Y-11871519D01*
X2595717Y-11871519D02*
X2605241Y-11890567D01*
X2605241Y-11890567D02*
X2605241Y-11947710D01*
X2605241Y-11947710D02*
X2595717Y-11966757D01*
X2595717Y-11966757D02*
X2586194Y-11976281D01*
X2586194Y-11976281D02*
X2567146Y-11985805D01*
X2567146Y-11985805D02*
X2529051Y-11985805D01*
X2529051Y-11985805D02*
X2510003Y-11976281D01*
X2690955Y-11966757D02*
X2700479Y-11976281D01*
X2700479Y-11976281D02*
X2690955Y-11985805D01*
X2690955Y-11985805D02*
X2681432Y-11976281D01*
X2681432Y-11976281D02*
X2690955Y-11966757D01*
X2690955Y-11966757D02*
X2690955Y-11985805D01*
X2690955Y-11861995D02*
X2700479Y-11871519D01*
X2700479Y-11871519D02*
X2690955Y-11881043D01*
X2690955Y-11881043D02*
X2681432Y-11871519D01*
X2681432Y-11871519D02*
X2690955Y-11861995D01*
X2690955Y-11861995D02*
X2690955Y-11881043D01*
D11*
X1028750Y-12299321D02*
X1058750Y-12329321D01*
X1058750Y-12299321D02*
X1028750Y-12329321D01*
D10*
X1357622Y-12205805D02*
X1376670Y-12205805D01*
X1376670Y-12205805D02*
X1395717Y-12215329D01*
X1395717Y-12215329D02*
X1405241Y-12224852D01*
X1405241Y-12224852D02*
X1414765Y-12243900D01*
X1414765Y-12243900D02*
X1424289Y-12281995D01*
X1424289Y-12281995D02*
X1424289Y-12329614D01*
X1424289Y-12329614D02*
X1414765Y-12367710D01*
X1414765Y-12367710D02*
X1405241Y-12386757D01*
X1405241Y-12386757D02*
X1395717Y-12396281D01*
X1395717Y-12396281D02*
X1376670Y-12405805D01*
X1376670Y-12405805D02*
X1357622Y-12405805D01*
X1357622Y-12405805D02*
X1338574Y-12396281D01*
X1338574Y-12396281D02*
X1329051Y-12386757D01*
X1329051Y-12386757D02*
X1319527Y-12367710D01*
X1319527Y-12367710D02*
X1310003Y-12329614D01*
X1310003Y-12329614D02*
X1310003Y-12281995D01*
X1310003Y-12281995D02*
X1319527Y-12243900D01*
X1319527Y-12243900D02*
X1329051Y-12224852D01*
X1329051Y-12224852D02*
X1338574Y-12215329D01*
X1338574Y-12215329D02*
X1357622Y-12205805D01*
X1510003Y-12386757D02*
X1519527Y-12396281D01*
X1519527Y-12396281D02*
X1510003Y-12405805D01*
X1510003Y-12405805D02*
X1500479Y-12396281D01*
X1500479Y-12396281D02*
X1510003Y-12386757D01*
X1510003Y-12386757D02*
X1510003Y-12405805D01*
X1586193Y-12205805D02*
X1710003Y-12205805D01*
X1710003Y-12205805D02*
X1643336Y-12281995D01*
X1643336Y-12281995D02*
X1671908Y-12281995D01*
X1671908Y-12281995D02*
X1690955Y-12291519D01*
X1690955Y-12291519D02*
X1700479Y-12301043D01*
X1700479Y-12301043D02*
X1710003Y-12320091D01*
X1710003Y-12320091D02*
X1710003Y-12367710D01*
X1710003Y-12367710D02*
X1700479Y-12386757D01*
X1700479Y-12386757D02*
X1690955Y-12396281D01*
X1690955Y-12396281D02*
X1671908Y-12405805D01*
X1671908Y-12405805D02*
X1614765Y-12405805D01*
X1614765Y-12405805D02*
X1595717Y-12396281D01*
X1595717Y-12396281D02*
X1586193Y-12386757D01*
X1833812Y-12205805D02*
X1852860Y-12205805D01*
X1852860Y-12205805D02*
X1871908Y-12215329D01*
X1871908Y-12215329D02*
X1881432Y-12224852D01*
X1881432Y-12224852D02*
X1890955Y-12243900D01*
X1890955Y-12243900D02*
X1900479Y-12281995D01*
X1900479Y-12281995D02*
X1900479Y-12329614D01*
X1900479Y-12329614D02*
X1890955Y-12367710D01*
X1890955Y-12367710D02*
X1881432Y-12386757D01*
X1881432Y-12386757D02*
X1871908Y-12396281D01*
X1871908Y-12396281D02*
X1852860Y-12405805D01*
X1852860Y-12405805D02*
X1833812Y-12405805D01*
X1833812Y-12405805D02*
X1814765Y-12396281D01*
X1814765Y-12396281D02*
X1805241Y-12386757D01*
X1805241Y-12386757D02*
X1795717Y-12367710D01*
X1795717Y-12367710D02*
X1786193Y-12329614D01*
X1786193Y-12329614D02*
X1786193Y-12281995D01*
X1786193Y-12281995D02*
X1795717Y-12243900D01*
X1795717Y-12243900D02*
X1805241Y-12224852D01*
X1805241Y-12224852D02*
X1814765Y-12215329D01*
X1814765Y-12215329D02*
X1833812Y-12205805D01*
X2024289Y-12205805D02*
X2043336Y-12205805D01*
X2043336Y-12205805D02*
X2062384Y-12215329D01*
X2062384Y-12215329D02*
X2071908Y-12224852D01*
X2071908Y-12224852D02*
X2081432Y-12243900D01*
X2081432Y-12243900D02*
X2090955Y-12281995D01*
X2090955Y-12281995D02*
X2090955Y-12329614D01*
X2090955Y-12329614D02*
X2081432Y-12367710D01*
X2081432Y-12367710D02*
X2071908Y-12386757D01*
X2071908Y-12386757D02*
X2062384Y-12396281D01*
X2062384Y-12396281D02*
X2043336Y-12405805D01*
X2043336Y-12405805D02*
X2024289Y-12405805D01*
X2024289Y-12405805D02*
X2005241Y-12396281D01*
X2005241Y-12396281D02*
X1995717Y-12386757D01*
X1995717Y-12386757D02*
X1986193Y-12367710D01*
X1986193Y-12367710D02*
X1976670Y-12329614D01*
X1976670Y-12329614D02*
X1976670Y-12281995D01*
X1976670Y-12281995D02*
X1986193Y-12243900D01*
X1986193Y-12243900D02*
X1995717Y-12224852D01*
X1995717Y-12224852D02*
X2005241Y-12215329D01*
X2005241Y-12215329D02*
X2024289Y-12205805D01*
X2176670Y-12405805D02*
X2176670Y-12272471D01*
X2176670Y-12291519D02*
X2186194Y-12281995D01*
X2186194Y-12281995D02*
X2205241Y-12272471D01*
X2205241Y-12272471D02*
X2233813Y-12272471D01*
X2233813Y-12272471D02*
X2252860Y-12281995D01*
X2252860Y-12281995D02*
X2262384Y-12301043D01*
X2262384Y-12301043D02*
X2262384Y-12405805D01*
X2262384Y-12301043D02*
X2271908Y-12281995D01*
X2271908Y-12281995D02*
X2290955Y-12272471D01*
X2290955Y-12272471D02*
X2319527Y-12272471D01*
X2319527Y-12272471D02*
X2338575Y-12281995D01*
X2338575Y-12281995D02*
X2348098Y-12301043D01*
X2348098Y-12301043D02*
X2348098Y-12405805D01*
X2443336Y-12405805D02*
X2443336Y-12272471D01*
X2443336Y-12291519D02*
X2452860Y-12281995D01*
X2452860Y-12281995D02*
X2471908Y-12272471D01*
X2471908Y-12272471D02*
X2500479Y-12272471D01*
X2500479Y-12272471D02*
X2519527Y-12281995D01*
X2519527Y-12281995D02*
X2529051Y-12301043D01*
X2529051Y-12301043D02*
X2529051Y-12405805D01*
X2529051Y-12301043D02*
X2538575Y-12281995D01*
X2538575Y-12281995D02*
X2557622Y-12272471D01*
X2557622Y-12272471D02*
X2586194Y-12272471D01*
X2586194Y-12272471D02*
X2605241Y-12281995D01*
X2605241Y-12281995D02*
X2614765Y-12301043D01*
X2614765Y-12301043D02*
X2614765Y-12405805D01*
X3005241Y-12196281D02*
X2833813Y-12453424D01*
X3262384Y-12205805D02*
X3281432Y-12205805D01*
X3281432Y-12205805D02*
X3300479Y-12215329D01*
X3300479Y-12215329D02*
X3310003Y-12224852D01*
X3310003Y-12224852D02*
X3319527Y-12243900D01*
X3319527Y-12243900D02*
X3329051Y-12281995D01*
X3329051Y-12281995D02*
X3329051Y-12329614D01*
X3329051Y-12329614D02*
X3319527Y-12367710D01*
X3319527Y-12367710D02*
X3310003Y-12386757D01*
X3310003Y-12386757D02*
X3300479Y-12396281D01*
X3300479Y-12396281D02*
X3281432Y-12405805D01*
X3281432Y-12405805D02*
X3262384Y-12405805D01*
X3262384Y-12405805D02*
X3243336Y-12396281D01*
X3243336Y-12396281D02*
X3233813Y-12386757D01*
X3233813Y-12386757D02*
X3224289Y-12367710D01*
X3224289Y-12367710D02*
X3214765Y-12329614D01*
X3214765Y-12329614D02*
X3214765Y-12281995D01*
X3214765Y-12281995D02*
X3224289Y-12243900D01*
X3224289Y-12243900D02*
X3233813Y-12224852D01*
X3233813Y-12224852D02*
X3243336Y-12215329D01*
X3243336Y-12215329D02*
X3262384Y-12205805D01*
X3414765Y-12386757D02*
X3424289Y-12396281D01*
X3424289Y-12396281D02*
X3414765Y-12405805D01*
X3414765Y-12405805D02*
X3405241Y-12396281D01*
X3405241Y-12396281D02*
X3414765Y-12386757D01*
X3414765Y-12386757D02*
X3414765Y-12405805D01*
X3548098Y-12205805D02*
X3567146Y-12205805D01*
X3567146Y-12205805D02*
X3586194Y-12215329D01*
X3586194Y-12215329D02*
X3595717Y-12224852D01*
X3595717Y-12224852D02*
X3605241Y-12243900D01*
X3605241Y-12243900D02*
X3614765Y-12281995D01*
X3614765Y-12281995D02*
X3614765Y-12329614D01*
X3614765Y-12329614D02*
X3605241Y-12367710D01*
X3605241Y-12367710D02*
X3595717Y-12386757D01*
X3595717Y-12386757D02*
X3586194Y-12396281D01*
X3586194Y-12396281D02*
X3567146Y-12405805D01*
X3567146Y-12405805D02*
X3548098Y-12405805D01*
X3548098Y-12405805D02*
X3529051Y-12396281D01*
X3529051Y-12396281D02*
X3519527Y-12386757D01*
X3519527Y-12386757D02*
X3510003Y-12367710D01*
X3510003Y-12367710D02*
X3500479Y-12329614D01*
X3500479Y-12329614D02*
X3500479Y-12281995D01*
X3500479Y-12281995D02*
X3510003Y-12243900D01*
X3510003Y-12243900D02*
X3519527Y-12224852D01*
X3519527Y-12224852D02*
X3529051Y-12215329D01*
X3529051Y-12215329D02*
X3548098Y-12205805D01*
X3805241Y-12405805D02*
X3690956Y-12405805D01*
X3748098Y-12405805D02*
X3748098Y-12205805D01*
X3748098Y-12205805D02*
X3729051Y-12234376D01*
X3729051Y-12234376D02*
X3710003Y-12253424D01*
X3710003Y-12253424D02*
X3690956Y-12262948D01*
X3995717Y-12405805D02*
X3881432Y-12405805D01*
X3938575Y-12405805D02*
X3938575Y-12205805D01*
X3938575Y-12205805D02*
X3919527Y-12234376D01*
X3919527Y-12234376D02*
X3900479Y-12253424D01*
X3900479Y-12253424D02*
X3881432Y-12262948D01*
X4110003Y-12291519D02*
X4090956Y-12281995D01*
X4090956Y-12281995D02*
X4081432Y-12272471D01*
X4081432Y-12272471D02*
X4071908Y-12253424D01*
X4071908Y-12253424D02*
X4071908Y-12243900D01*
X4071908Y-12243900D02*
X4081432Y-12224852D01*
X4081432Y-12224852D02*
X4090956Y-12215329D01*
X4090956Y-12215329D02*
X4110003Y-12205805D01*
X4110003Y-12205805D02*
X4148098Y-12205805D01*
X4148098Y-12205805D02*
X4167146Y-12215329D01*
X4167146Y-12215329D02*
X4176670Y-12224852D01*
X4176670Y-12224852D02*
X4186194Y-12243900D01*
X4186194Y-12243900D02*
X4186194Y-12253424D01*
X4186194Y-12253424D02*
X4176670Y-12272471D01*
X4176670Y-12272471D02*
X4167146Y-12281995D01*
X4167146Y-12281995D02*
X4148098Y-12291519D01*
X4148098Y-12291519D02*
X4110003Y-12291519D01*
X4110003Y-12291519D02*
X4090956Y-12301043D01*
X4090956Y-12301043D02*
X4081432Y-12310567D01*
X4081432Y-12310567D02*
X4071908Y-12329614D01*
X4071908Y-12329614D02*
X4071908Y-12367710D01*
X4071908Y-12367710D02*
X4081432Y-12386757D01*
X4081432Y-12386757D02*
X4090956Y-12396281D01*
X4090956Y-12396281D02*
X4110003Y-12405805D01*
X4110003Y-12405805D02*
X4148098Y-12405805D01*
X4148098Y-12405805D02*
X4167146Y-12396281D01*
X4167146Y-12396281D02*
X4176670Y-12386757D01*
X4176670Y-12386757D02*
X4186194Y-12367710D01*
X4186194Y-12367710D02*
X4186194Y-12329614D01*
X4186194Y-12329614D02*
X4176670Y-12310567D01*
X4176670Y-12310567D02*
X4167146Y-12301043D01*
X4167146Y-12301043D02*
X4148098Y-12291519D01*
X4262384Y-12205805D02*
X4262384Y-12243900D01*
X4338575Y-12205805D02*
X4338575Y-12243900D01*
X4633813Y-12481995D02*
X4624289Y-12472471D01*
X4624289Y-12472471D02*
X4605241Y-12443900D01*
X4605241Y-12443900D02*
X4595718Y-12424852D01*
X4595718Y-12424852D02*
X4586194Y-12396281D01*
X4586194Y-12396281D02*
X4576670Y-12348662D01*
X4576670Y-12348662D02*
X4576670Y-12310567D01*
X4576670Y-12310567D02*
X4586194Y-12262948D01*
X4586194Y-12262948D02*
X4595718Y-12234376D01*
X4595718Y-12234376D02*
X4605241Y-12215329D01*
X4605241Y-12215329D02*
X4624289Y-12186757D01*
X4624289Y-12186757D02*
X4633813Y-12177233D01*
X4795718Y-12272471D02*
X4795718Y-12405805D01*
X4748099Y-12196281D02*
X4700480Y-12339138D01*
X4700480Y-12339138D02*
X4824289Y-12339138D01*
X4881432Y-12205805D02*
X5005241Y-12205805D01*
X5005241Y-12205805D02*
X4938575Y-12281995D01*
X4938575Y-12281995D02*
X4967146Y-12281995D01*
X4967146Y-12281995D02*
X4986194Y-12291519D01*
X4986194Y-12291519D02*
X4995718Y-12301043D01*
X4995718Y-12301043D02*
X5005241Y-12320091D01*
X5005241Y-12320091D02*
X5005241Y-12367710D01*
X5005241Y-12367710D02*
X4995718Y-12386757D01*
X4995718Y-12386757D02*
X4986194Y-12396281D01*
X4986194Y-12396281D02*
X4967146Y-12405805D01*
X4967146Y-12405805D02*
X4910003Y-12405805D01*
X4910003Y-12405805D02*
X4890956Y-12396281D01*
X4890956Y-12396281D02*
X4881432Y-12386757D01*
X5243337Y-12405805D02*
X5243337Y-12205805D01*
X5329051Y-12405805D02*
X5329051Y-12301043D01*
X5329051Y-12301043D02*
X5319527Y-12281995D01*
X5319527Y-12281995D02*
X5300480Y-12272471D01*
X5300480Y-12272471D02*
X5271908Y-12272471D01*
X5271908Y-12272471D02*
X5252861Y-12281995D01*
X5252861Y-12281995D02*
X5243337Y-12291519D01*
X5452861Y-12405805D02*
X5433813Y-12396281D01*
X5433813Y-12396281D02*
X5424289Y-12386757D01*
X5424289Y-12386757D02*
X5414765Y-12367710D01*
X5414765Y-12367710D02*
X5414765Y-12310567D01*
X5414765Y-12310567D02*
X5424289Y-12291519D01*
X5424289Y-12291519D02*
X5433813Y-12281995D01*
X5433813Y-12281995D02*
X5452861Y-12272471D01*
X5452861Y-12272471D02*
X5481432Y-12272471D01*
X5481432Y-12272471D02*
X5500480Y-12281995D01*
X5500480Y-12281995D02*
X5510003Y-12291519D01*
X5510003Y-12291519D02*
X5519527Y-12310567D01*
X5519527Y-12310567D02*
X5519527Y-12367710D01*
X5519527Y-12367710D02*
X5510003Y-12386757D01*
X5510003Y-12386757D02*
X5500480Y-12396281D01*
X5500480Y-12396281D02*
X5481432Y-12405805D01*
X5481432Y-12405805D02*
X5452861Y-12405805D01*
X5633813Y-12405805D02*
X5614765Y-12396281D01*
X5614765Y-12396281D02*
X5605241Y-12377233D01*
X5605241Y-12377233D02*
X5605241Y-12205805D01*
X5786194Y-12396281D02*
X5767146Y-12405805D01*
X5767146Y-12405805D02*
X5729051Y-12405805D01*
X5729051Y-12405805D02*
X5710003Y-12396281D01*
X5710003Y-12396281D02*
X5700480Y-12377233D01*
X5700480Y-12377233D02*
X5700480Y-12301043D01*
X5700480Y-12301043D02*
X5710003Y-12281995D01*
X5710003Y-12281995D02*
X5729051Y-12272471D01*
X5729051Y-12272471D02*
X5767146Y-12272471D01*
X5767146Y-12272471D02*
X5786194Y-12281995D01*
X5786194Y-12281995D02*
X5795718Y-12301043D01*
X5795718Y-12301043D02*
X5795718Y-12320091D01*
X5795718Y-12320091D02*
X5700480Y-12339138D01*
X5871908Y-12396281D02*
X5890956Y-12405805D01*
X5890956Y-12405805D02*
X5929051Y-12405805D01*
X5929051Y-12405805D02*
X5948099Y-12396281D01*
X5948099Y-12396281D02*
X5957622Y-12377233D01*
X5957622Y-12377233D02*
X5957622Y-12367710D01*
X5957622Y-12367710D02*
X5948099Y-12348662D01*
X5948099Y-12348662D02*
X5929051Y-12339138D01*
X5929051Y-12339138D02*
X5900480Y-12339138D01*
X5900480Y-12339138D02*
X5881432Y-12329614D01*
X5881432Y-12329614D02*
X5871908Y-12310567D01*
X5871908Y-12310567D02*
X5871908Y-12301043D01*
X5871908Y-12301043D02*
X5881432Y-12281995D01*
X5881432Y-12281995D02*
X5900480Y-12272471D01*
X5900480Y-12272471D02*
X5929051Y-12272471D01*
X5929051Y-12272471D02*
X5948099Y-12281995D01*
X6024289Y-12481995D02*
X6033813Y-12472471D01*
X6033813Y-12472471D02*
X6052861Y-12443900D01*
X6052861Y-12443900D02*
X6062384Y-12424852D01*
X6062384Y-12424852D02*
X6071908Y-12396281D01*
X6071908Y-12396281D02*
X6081432Y-12348662D01*
X6081432Y-12348662D02*
X6081432Y-12310567D01*
X6081432Y-12310567D02*
X6071908Y-12262948D01*
X6071908Y-12262948D02*
X6062384Y-12234376D01*
X6062384Y-12234376D02*
X6052861Y-12215329D01*
X6052861Y-12215329D02*
X6033813Y-12186757D01*
X6033813Y-12186757D02*
X6024289Y-12177233D01*
D12*
X1058750Y-12578321D02*
G75*
G03*
X1058750Y-12578321I-20000J0D01*
G01*
D10*
X1357622Y-12469805D02*
X1376670Y-12469805D01*
X1376670Y-12469805D02*
X1395717Y-12479329D01*
X1395717Y-12479329D02*
X1405241Y-12488852D01*
X1405241Y-12488852D02*
X1414765Y-12507900D01*
X1414765Y-12507900D02*
X1424289Y-12545995D01*
X1424289Y-12545995D02*
X1424289Y-12593614D01*
X1424289Y-12593614D02*
X1414765Y-12631710D01*
X1414765Y-12631710D02*
X1405241Y-12650757D01*
X1405241Y-12650757D02*
X1395717Y-12660281D01*
X1395717Y-12660281D02*
X1376670Y-12669805D01*
X1376670Y-12669805D02*
X1357622Y-12669805D01*
X1357622Y-12669805D02*
X1338574Y-12660281D01*
X1338574Y-12660281D02*
X1329051Y-12650757D01*
X1329051Y-12650757D02*
X1319527Y-12631710D01*
X1319527Y-12631710D02*
X1310003Y-12593614D01*
X1310003Y-12593614D02*
X1310003Y-12545995D01*
X1310003Y-12545995D02*
X1319527Y-12507900D01*
X1319527Y-12507900D02*
X1329051Y-12488852D01*
X1329051Y-12488852D02*
X1338574Y-12479329D01*
X1338574Y-12479329D02*
X1357622Y-12469805D01*
X1510003Y-12650757D02*
X1519527Y-12660281D01*
X1519527Y-12660281D02*
X1510003Y-12669805D01*
X1510003Y-12669805D02*
X1500479Y-12660281D01*
X1500479Y-12660281D02*
X1510003Y-12650757D01*
X1510003Y-12650757D02*
X1510003Y-12669805D01*
X1690955Y-12536471D02*
X1690955Y-12669805D01*
X1643336Y-12460281D02*
X1595717Y-12603138D01*
X1595717Y-12603138D02*
X1719527Y-12603138D01*
X1833812Y-12469805D02*
X1852860Y-12469805D01*
X1852860Y-12469805D02*
X1871908Y-12479329D01*
X1871908Y-12479329D02*
X1881432Y-12488852D01*
X1881432Y-12488852D02*
X1890955Y-12507900D01*
X1890955Y-12507900D02*
X1900479Y-12545995D01*
X1900479Y-12545995D02*
X1900479Y-12593614D01*
X1900479Y-12593614D02*
X1890955Y-12631710D01*
X1890955Y-12631710D02*
X1881432Y-12650757D01*
X1881432Y-12650757D02*
X1871908Y-12660281D01*
X1871908Y-12660281D02*
X1852860Y-12669805D01*
X1852860Y-12669805D02*
X1833812Y-12669805D01*
X1833812Y-12669805D02*
X1814765Y-12660281D01*
X1814765Y-12660281D02*
X1805241Y-12650757D01*
X1805241Y-12650757D02*
X1795717Y-12631710D01*
X1795717Y-12631710D02*
X1786193Y-12593614D01*
X1786193Y-12593614D02*
X1786193Y-12545995D01*
X1786193Y-12545995D02*
X1795717Y-12507900D01*
X1795717Y-12507900D02*
X1805241Y-12488852D01*
X1805241Y-12488852D02*
X1814765Y-12479329D01*
X1814765Y-12479329D02*
X1833812Y-12469805D01*
X2024289Y-12469805D02*
X2043336Y-12469805D01*
X2043336Y-12469805D02*
X2062384Y-12479329D01*
X2062384Y-12479329D02*
X2071908Y-12488852D01*
X2071908Y-12488852D02*
X2081432Y-12507900D01*
X2081432Y-12507900D02*
X2090955Y-12545995D01*
X2090955Y-12545995D02*
X2090955Y-12593614D01*
X2090955Y-12593614D02*
X2081432Y-12631710D01*
X2081432Y-12631710D02*
X2071908Y-12650757D01*
X2071908Y-12650757D02*
X2062384Y-12660281D01*
X2062384Y-12660281D02*
X2043336Y-12669805D01*
X2043336Y-12669805D02*
X2024289Y-12669805D01*
X2024289Y-12669805D02*
X2005241Y-12660281D01*
X2005241Y-12660281D02*
X1995717Y-12650757D01*
X1995717Y-12650757D02*
X1986193Y-12631710D01*
X1986193Y-12631710D02*
X1976670Y-12593614D01*
X1976670Y-12593614D02*
X1976670Y-12545995D01*
X1976670Y-12545995D02*
X1986193Y-12507900D01*
X1986193Y-12507900D02*
X1995717Y-12488852D01*
X1995717Y-12488852D02*
X2005241Y-12479329D01*
X2005241Y-12479329D02*
X2024289Y-12469805D01*
X2176670Y-12669805D02*
X2176670Y-12536471D01*
X2176670Y-12555519D02*
X2186194Y-12545995D01*
X2186194Y-12545995D02*
X2205241Y-12536471D01*
X2205241Y-12536471D02*
X2233813Y-12536471D01*
X2233813Y-12536471D02*
X2252860Y-12545995D01*
X2252860Y-12545995D02*
X2262384Y-12565043D01*
X2262384Y-12565043D02*
X2262384Y-12669805D01*
X2262384Y-12565043D02*
X2271908Y-12545995D01*
X2271908Y-12545995D02*
X2290955Y-12536471D01*
X2290955Y-12536471D02*
X2319527Y-12536471D01*
X2319527Y-12536471D02*
X2338575Y-12545995D01*
X2338575Y-12545995D02*
X2348098Y-12565043D01*
X2348098Y-12565043D02*
X2348098Y-12669805D01*
X2443336Y-12669805D02*
X2443336Y-12536471D01*
X2443336Y-12555519D02*
X2452860Y-12545995D01*
X2452860Y-12545995D02*
X2471908Y-12536471D01*
X2471908Y-12536471D02*
X2500479Y-12536471D01*
X2500479Y-12536471D02*
X2519527Y-12545995D01*
X2519527Y-12545995D02*
X2529051Y-12565043D01*
X2529051Y-12565043D02*
X2529051Y-12669805D01*
X2529051Y-12565043D02*
X2538575Y-12545995D01*
X2538575Y-12545995D02*
X2557622Y-12536471D01*
X2557622Y-12536471D02*
X2586194Y-12536471D01*
X2586194Y-12536471D02*
X2605241Y-12545995D01*
X2605241Y-12545995D02*
X2614765Y-12565043D01*
X2614765Y-12565043D02*
X2614765Y-12669805D01*
X3005241Y-12460281D02*
X2833813Y-12717424D01*
X3262384Y-12469805D02*
X3281432Y-12469805D01*
X3281432Y-12469805D02*
X3300479Y-12479329D01*
X3300479Y-12479329D02*
X3310003Y-12488852D01*
X3310003Y-12488852D02*
X3319527Y-12507900D01*
X3319527Y-12507900D02*
X3329051Y-12545995D01*
X3329051Y-12545995D02*
X3329051Y-12593614D01*
X3329051Y-12593614D02*
X3319527Y-12631710D01*
X3319527Y-12631710D02*
X3310003Y-12650757D01*
X3310003Y-12650757D02*
X3300479Y-12660281D01*
X3300479Y-12660281D02*
X3281432Y-12669805D01*
X3281432Y-12669805D02*
X3262384Y-12669805D01*
X3262384Y-12669805D02*
X3243336Y-12660281D01*
X3243336Y-12660281D02*
X3233813Y-12650757D01*
X3233813Y-12650757D02*
X3224289Y-12631710D01*
X3224289Y-12631710D02*
X3214765Y-12593614D01*
X3214765Y-12593614D02*
X3214765Y-12545995D01*
X3214765Y-12545995D02*
X3224289Y-12507900D01*
X3224289Y-12507900D02*
X3233813Y-12488852D01*
X3233813Y-12488852D02*
X3243336Y-12479329D01*
X3243336Y-12479329D02*
X3262384Y-12469805D01*
X3414765Y-12650757D02*
X3424289Y-12660281D01*
X3424289Y-12660281D02*
X3414765Y-12669805D01*
X3414765Y-12669805D02*
X3405241Y-12660281D01*
X3405241Y-12660281D02*
X3414765Y-12650757D01*
X3414765Y-12650757D02*
X3414765Y-12669805D01*
X3548098Y-12469805D02*
X3567146Y-12469805D01*
X3567146Y-12469805D02*
X3586194Y-12479329D01*
X3586194Y-12479329D02*
X3595717Y-12488852D01*
X3595717Y-12488852D02*
X3605241Y-12507900D01*
X3605241Y-12507900D02*
X3614765Y-12545995D01*
X3614765Y-12545995D02*
X3614765Y-12593614D01*
X3614765Y-12593614D02*
X3605241Y-12631710D01*
X3605241Y-12631710D02*
X3595717Y-12650757D01*
X3595717Y-12650757D02*
X3586194Y-12660281D01*
X3586194Y-12660281D02*
X3567146Y-12669805D01*
X3567146Y-12669805D02*
X3548098Y-12669805D01*
X3548098Y-12669805D02*
X3529051Y-12660281D01*
X3529051Y-12660281D02*
X3519527Y-12650757D01*
X3519527Y-12650757D02*
X3510003Y-12631710D01*
X3510003Y-12631710D02*
X3500479Y-12593614D01*
X3500479Y-12593614D02*
X3500479Y-12545995D01*
X3500479Y-12545995D02*
X3510003Y-12507900D01*
X3510003Y-12507900D02*
X3519527Y-12488852D01*
X3519527Y-12488852D02*
X3529051Y-12479329D01*
X3529051Y-12479329D02*
X3548098Y-12469805D01*
X3805241Y-12669805D02*
X3690956Y-12669805D01*
X3748098Y-12669805D02*
X3748098Y-12469805D01*
X3748098Y-12469805D02*
X3729051Y-12498376D01*
X3729051Y-12498376D02*
X3710003Y-12517424D01*
X3710003Y-12517424D02*
X3690956Y-12526948D01*
X3986194Y-12469805D02*
X3890956Y-12469805D01*
X3890956Y-12469805D02*
X3881432Y-12565043D01*
X3881432Y-12565043D02*
X3890956Y-12555519D01*
X3890956Y-12555519D02*
X3910003Y-12545995D01*
X3910003Y-12545995D02*
X3957622Y-12545995D01*
X3957622Y-12545995D02*
X3976670Y-12555519D01*
X3976670Y-12555519D02*
X3986194Y-12565043D01*
X3986194Y-12565043D02*
X3995717Y-12584091D01*
X3995717Y-12584091D02*
X3995717Y-12631710D01*
X3995717Y-12631710D02*
X3986194Y-12650757D01*
X3986194Y-12650757D02*
X3976670Y-12660281D01*
X3976670Y-12660281D02*
X3957622Y-12669805D01*
X3957622Y-12669805D02*
X3910003Y-12669805D01*
X3910003Y-12669805D02*
X3890956Y-12660281D01*
X3890956Y-12660281D02*
X3881432Y-12650757D01*
X4062384Y-12469805D02*
X4195718Y-12469805D01*
X4195718Y-12469805D02*
X4110003Y-12669805D01*
X4262384Y-12469805D02*
X4262384Y-12507900D01*
X4338575Y-12469805D02*
X4338575Y-12507900D01*
X4633813Y-12745995D02*
X4624289Y-12736471D01*
X4624289Y-12736471D02*
X4605241Y-12707900D01*
X4605241Y-12707900D02*
X4595718Y-12688852D01*
X4595718Y-12688852D02*
X4586194Y-12660281D01*
X4586194Y-12660281D02*
X4576670Y-12612662D01*
X4576670Y-12612662D02*
X4576670Y-12574567D01*
X4576670Y-12574567D02*
X4586194Y-12526948D01*
X4586194Y-12526948D02*
X4595718Y-12498376D01*
X4595718Y-12498376D02*
X4605241Y-12479329D01*
X4605241Y-12479329D02*
X4624289Y-12450757D01*
X4624289Y-12450757D02*
X4633813Y-12441233D01*
X4700480Y-12488852D02*
X4710003Y-12479329D01*
X4710003Y-12479329D02*
X4729051Y-12469805D01*
X4729051Y-12469805D02*
X4776670Y-12469805D01*
X4776670Y-12469805D02*
X4795718Y-12479329D01*
X4795718Y-12479329D02*
X4805241Y-12488852D01*
X4805241Y-12488852D02*
X4814765Y-12507900D01*
X4814765Y-12507900D02*
X4814765Y-12526948D01*
X4814765Y-12526948D02*
X4805241Y-12555519D01*
X4805241Y-12555519D02*
X4690956Y-12669805D01*
X4690956Y-12669805D02*
X4814765Y-12669805D01*
X4938575Y-12469805D02*
X4957622Y-12469805D01*
X4957622Y-12469805D02*
X4976670Y-12479329D01*
X4976670Y-12479329D02*
X4986194Y-12488852D01*
X4986194Y-12488852D02*
X4995718Y-12507900D01*
X4995718Y-12507900D02*
X5005241Y-12545995D01*
X5005241Y-12545995D02*
X5005241Y-12593614D01*
X5005241Y-12593614D02*
X4995718Y-12631710D01*
X4995718Y-12631710D02*
X4986194Y-12650757D01*
X4986194Y-12650757D02*
X4976670Y-12660281D01*
X4976670Y-12660281D02*
X4957622Y-12669805D01*
X4957622Y-12669805D02*
X4938575Y-12669805D01*
X4938575Y-12669805D02*
X4919527Y-12660281D01*
X4919527Y-12660281D02*
X4910003Y-12650757D01*
X4910003Y-12650757D02*
X4900480Y-12631710D01*
X4900480Y-12631710D02*
X4890956Y-12593614D01*
X4890956Y-12593614D02*
X4890956Y-12545995D01*
X4890956Y-12545995D02*
X4900480Y-12507900D01*
X4900480Y-12507900D02*
X4910003Y-12488852D01*
X4910003Y-12488852D02*
X4919527Y-12479329D01*
X4919527Y-12479329D02*
X4938575Y-12469805D01*
X5119527Y-12555519D02*
X5100480Y-12545995D01*
X5100480Y-12545995D02*
X5090956Y-12536471D01*
X5090956Y-12536471D02*
X5081432Y-12517424D01*
X5081432Y-12517424D02*
X5081432Y-12507900D01*
X5081432Y-12507900D02*
X5090956Y-12488852D01*
X5090956Y-12488852D02*
X5100480Y-12479329D01*
X5100480Y-12479329D02*
X5119527Y-12469805D01*
X5119527Y-12469805D02*
X5157622Y-12469805D01*
X5157622Y-12469805D02*
X5176670Y-12479329D01*
X5176670Y-12479329D02*
X5186194Y-12488852D01*
X5186194Y-12488852D02*
X5195718Y-12507900D01*
X5195718Y-12507900D02*
X5195718Y-12517424D01*
X5195718Y-12517424D02*
X5186194Y-12536471D01*
X5186194Y-12536471D02*
X5176670Y-12545995D01*
X5176670Y-12545995D02*
X5157622Y-12555519D01*
X5157622Y-12555519D02*
X5119527Y-12555519D01*
X5119527Y-12555519D02*
X5100480Y-12565043D01*
X5100480Y-12565043D02*
X5090956Y-12574567D01*
X5090956Y-12574567D02*
X5081432Y-12593614D01*
X5081432Y-12593614D02*
X5081432Y-12631710D01*
X5081432Y-12631710D02*
X5090956Y-12650757D01*
X5090956Y-12650757D02*
X5100480Y-12660281D01*
X5100480Y-12660281D02*
X5119527Y-12669805D01*
X5119527Y-12669805D02*
X5157622Y-12669805D01*
X5157622Y-12669805D02*
X5176670Y-12660281D01*
X5176670Y-12660281D02*
X5186194Y-12650757D01*
X5186194Y-12650757D02*
X5195718Y-12631710D01*
X5195718Y-12631710D02*
X5195718Y-12593614D01*
X5195718Y-12593614D02*
X5186194Y-12574567D01*
X5186194Y-12574567D02*
X5176670Y-12565043D01*
X5176670Y-12565043D02*
X5157622Y-12555519D01*
X5433813Y-12669805D02*
X5433813Y-12469805D01*
X5519527Y-12669805D02*
X5519527Y-12565043D01*
X5519527Y-12565043D02*
X5510003Y-12545995D01*
X5510003Y-12545995D02*
X5490956Y-12536471D01*
X5490956Y-12536471D02*
X5462384Y-12536471D01*
X5462384Y-12536471D02*
X5443337Y-12545995D01*
X5443337Y-12545995D02*
X5433813Y-12555519D01*
X5643337Y-12669805D02*
X5624289Y-12660281D01*
X5624289Y-12660281D02*
X5614765Y-12650757D01*
X5614765Y-12650757D02*
X5605241Y-12631710D01*
X5605241Y-12631710D02*
X5605241Y-12574567D01*
X5605241Y-12574567D02*
X5614765Y-12555519D01*
X5614765Y-12555519D02*
X5624289Y-12545995D01*
X5624289Y-12545995D02*
X5643337Y-12536471D01*
X5643337Y-12536471D02*
X5671908Y-12536471D01*
X5671908Y-12536471D02*
X5690956Y-12545995D01*
X5690956Y-12545995D02*
X5700480Y-12555519D01*
X5700480Y-12555519D02*
X5710003Y-12574567D01*
X5710003Y-12574567D02*
X5710003Y-12631710D01*
X5710003Y-12631710D02*
X5700480Y-12650757D01*
X5700480Y-12650757D02*
X5690956Y-12660281D01*
X5690956Y-12660281D02*
X5671908Y-12669805D01*
X5671908Y-12669805D02*
X5643337Y-12669805D01*
X5824289Y-12669805D02*
X5805241Y-12660281D01*
X5805241Y-12660281D02*
X5795718Y-12641233D01*
X5795718Y-12641233D02*
X5795718Y-12469805D01*
X5976670Y-12660281D02*
X5957622Y-12669805D01*
X5957622Y-12669805D02*
X5919527Y-12669805D01*
X5919527Y-12669805D02*
X5900480Y-12660281D01*
X5900480Y-12660281D02*
X5890956Y-12641233D01*
X5890956Y-12641233D02*
X5890956Y-12565043D01*
X5890956Y-12565043D02*
X5900480Y-12545995D01*
X5900480Y-12545995D02*
X5919527Y-12536471D01*
X5919527Y-12536471D02*
X5957622Y-12536471D01*
X5957622Y-12536471D02*
X5976670Y-12545995D01*
X5976670Y-12545995D02*
X5986194Y-12565043D01*
X5986194Y-12565043D02*
X5986194Y-12584091D01*
X5986194Y-12584091D02*
X5890956Y-12603138D01*
X6062384Y-12660281D02*
X6081432Y-12669805D01*
X6081432Y-12669805D02*
X6119527Y-12669805D01*
X6119527Y-12669805D02*
X6138575Y-12660281D01*
X6138575Y-12660281D02*
X6148099Y-12641233D01*
X6148099Y-12641233D02*
X6148099Y-12631710D01*
X6148099Y-12631710D02*
X6138575Y-12612662D01*
X6138575Y-12612662D02*
X6119527Y-12603138D01*
X6119527Y-12603138D02*
X6090956Y-12603138D01*
X6090956Y-12603138D02*
X6071908Y-12593614D01*
X6071908Y-12593614D02*
X6062384Y-12574567D01*
X6062384Y-12574567D02*
X6062384Y-12565043D01*
X6062384Y-12565043D02*
X6071908Y-12545995D01*
X6071908Y-12545995D02*
X6090956Y-12536471D01*
X6090956Y-12536471D02*
X6119527Y-12536471D01*
X6119527Y-12536471D02*
X6138575Y-12545995D01*
X6214765Y-12745995D02*
X6224289Y-12736471D01*
X6224289Y-12736471D02*
X6243337Y-12707900D01*
X6243337Y-12707900D02*
X6252861Y-12688852D01*
X6252861Y-12688852D02*
X6262384Y-12660281D01*
X6262384Y-12660281D02*
X6271908Y-12612662D01*
X6271908Y-12612662D02*
X6271908Y-12574567D01*
X6271908Y-12574567D02*
X6262384Y-12526948D01*
X6262384Y-12526948D02*
X6252861Y-12498376D01*
X6252861Y-12498376D02*
X6243337Y-12479329D01*
X6243337Y-12479329D02*
X6224289Y-12450757D01*
X6224289Y-12450757D02*
X6214765Y-12441233D01*
D13*
X1018110Y-12801681D02*
X1018110Y-12882961D01*
X977470Y-12842321D02*
X1058750Y-12842321D01*
D10*
X1357622Y-12733805D02*
X1376670Y-12733805D01*
X1376670Y-12733805D02*
X1395717Y-12743329D01*
X1395717Y-12743329D02*
X1405241Y-12752852D01*
X1405241Y-12752852D02*
X1414765Y-12771900D01*
X1414765Y-12771900D02*
X1424289Y-12809995D01*
X1424289Y-12809995D02*
X1424289Y-12857614D01*
X1424289Y-12857614D02*
X1414765Y-12895710D01*
X1414765Y-12895710D02*
X1405241Y-12914757D01*
X1405241Y-12914757D02*
X1395717Y-12924281D01*
X1395717Y-12924281D02*
X1376670Y-12933805D01*
X1376670Y-12933805D02*
X1357622Y-12933805D01*
X1357622Y-12933805D02*
X1338574Y-12924281D01*
X1338574Y-12924281D02*
X1329051Y-12914757D01*
X1329051Y-12914757D02*
X1319527Y-12895710D01*
X1319527Y-12895710D02*
X1310003Y-12857614D01*
X1310003Y-12857614D02*
X1310003Y-12809995D01*
X1310003Y-12809995D02*
X1319527Y-12771900D01*
X1319527Y-12771900D02*
X1329051Y-12752852D01*
X1329051Y-12752852D02*
X1338574Y-12743329D01*
X1338574Y-12743329D02*
X1357622Y-12733805D01*
X1510003Y-12914757D02*
X1519527Y-12924281D01*
X1519527Y-12924281D02*
X1510003Y-12933805D01*
X1510003Y-12933805D02*
X1500479Y-12924281D01*
X1500479Y-12924281D02*
X1510003Y-12914757D01*
X1510003Y-12914757D02*
X1510003Y-12933805D01*
X1633812Y-12819519D02*
X1614765Y-12809995D01*
X1614765Y-12809995D02*
X1605241Y-12800471D01*
X1605241Y-12800471D02*
X1595717Y-12781424D01*
X1595717Y-12781424D02*
X1595717Y-12771900D01*
X1595717Y-12771900D02*
X1605241Y-12752852D01*
X1605241Y-12752852D02*
X1614765Y-12743329D01*
X1614765Y-12743329D02*
X1633812Y-12733805D01*
X1633812Y-12733805D02*
X1671908Y-12733805D01*
X1671908Y-12733805D02*
X1690955Y-12743329D01*
X1690955Y-12743329D02*
X1700479Y-12752852D01*
X1700479Y-12752852D02*
X1710003Y-12771900D01*
X1710003Y-12771900D02*
X1710003Y-12781424D01*
X1710003Y-12781424D02*
X1700479Y-12800471D01*
X1700479Y-12800471D02*
X1690955Y-12809995D01*
X1690955Y-12809995D02*
X1671908Y-12819519D01*
X1671908Y-12819519D02*
X1633812Y-12819519D01*
X1633812Y-12819519D02*
X1614765Y-12829043D01*
X1614765Y-12829043D02*
X1605241Y-12838567D01*
X1605241Y-12838567D02*
X1595717Y-12857614D01*
X1595717Y-12857614D02*
X1595717Y-12895710D01*
X1595717Y-12895710D02*
X1605241Y-12914757D01*
X1605241Y-12914757D02*
X1614765Y-12924281D01*
X1614765Y-12924281D02*
X1633812Y-12933805D01*
X1633812Y-12933805D02*
X1671908Y-12933805D01*
X1671908Y-12933805D02*
X1690955Y-12924281D01*
X1690955Y-12924281D02*
X1700479Y-12914757D01*
X1700479Y-12914757D02*
X1710003Y-12895710D01*
X1710003Y-12895710D02*
X1710003Y-12857614D01*
X1710003Y-12857614D02*
X1700479Y-12838567D01*
X1700479Y-12838567D02*
X1690955Y-12829043D01*
X1690955Y-12829043D02*
X1671908Y-12819519D01*
X1900479Y-12933805D02*
X1786193Y-12933805D01*
X1843336Y-12933805D02*
X1843336Y-12733805D01*
X1843336Y-12733805D02*
X1824289Y-12762376D01*
X1824289Y-12762376D02*
X1805241Y-12781424D01*
X1805241Y-12781424D02*
X1786193Y-12790948D01*
X1967146Y-12733805D02*
X2090955Y-12733805D01*
X2090955Y-12733805D02*
X2024289Y-12809995D01*
X2024289Y-12809995D02*
X2052860Y-12809995D01*
X2052860Y-12809995D02*
X2071908Y-12819519D01*
X2071908Y-12819519D02*
X2081432Y-12829043D01*
X2081432Y-12829043D02*
X2090955Y-12848091D01*
X2090955Y-12848091D02*
X2090955Y-12895710D01*
X2090955Y-12895710D02*
X2081432Y-12914757D01*
X2081432Y-12914757D02*
X2071908Y-12924281D01*
X2071908Y-12924281D02*
X2052860Y-12933805D01*
X2052860Y-12933805D02*
X1995717Y-12933805D01*
X1995717Y-12933805D02*
X1976670Y-12924281D01*
X1976670Y-12924281D02*
X1967146Y-12914757D01*
X2176670Y-12933805D02*
X2176670Y-12800471D01*
X2176670Y-12819519D02*
X2186194Y-12809995D01*
X2186194Y-12809995D02*
X2205241Y-12800471D01*
X2205241Y-12800471D02*
X2233813Y-12800471D01*
X2233813Y-12800471D02*
X2252860Y-12809995D01*
X2252860Y-12809995D02*
X2262384Y-12829043D01*
X2262384Y-12829043D02*
X2262384Y-12933805D01*
X2262384Y-12829043D02*
X2271908Y-12809995D01*
X2271908Y-12809995D02*
X2290955Y-12800471D01*
X2290955Y-12800471D02*
X2319527Y-12800471D01*
X2319527Y-12800471D02*
X2338575Y-12809995D01*
X2338575Y-12809995D02*
X2348098Y-12829043D01*
X2348098Y-12829043D02*
X2348098Y-12933805D01*
X2443336Y-12933805D02*
X2443336Y-12800471D01*
X2443336Y-12819519D02*
X2452860Y-12809995D01*
X2452860Y-12809995D02*
X2471908Y-12800471D01*
X2471908Y-12800471D02*
X2500479Y-12800471D01*
X2500479Y-12800471D02*
X2519527Y-12809995D01*
X2519527Y-12809995D02*
X2529051Y-12829043D01*
X2529051Y-12829043D02*
X2529051Y-12933805D01*
X2529051Y-12829043D02*
X2538575Y-12809995D01*
X2538575Y-12809995D02*
X2557622Y-12800471D01*
X2557622Y-12800471D02*
X2586194Y-12800471D01*
X2586194Y-12800471D02*
X2605241Y-12809995D01*
X2605241Y-12809995D02*
X2614765Y-12829043D01*
X2614765Y-12829043D02*
X2614765Y-12933805D01*
X3005241Y-12724281D02*
X2833813Y-12981424D01*
X3262384Y-12733805D02*
X3281432Y-12733805D01*
X3281432Y-12733805D02*
X3300479Y-12743329D01*
X3300479Y-12743329D02*
X3310003Y-12752852D01*
X3310003Y-12752852D02*
X3319527Y-12771900D01*
X3319527Y-12771900D02*
X3329051Y-12809995D01*
X3329051Y-12809995D02*
X3329051Y-12857614D01*
X3329051Y-12857614D02*
X3319527Y-12895710D01*
X3319527Y-12895710D02*
X3310003Y-12914757D01*
X3310003Y-12914757D02*
X3300479Y-12924281D01*
X3300479Y-12924281D02*
X3281432Y-12933805D01*
X3281432Y-12933805D02*
X3262384Y-12933805D01*
X3262384Y-12933805D02*
X3243336Y-12924281D01*
X3243336Y-12924281D02*
X3233813Y-12914757D01*
X3233813Y-12914757D02*
X3224289Y-12895710D01*
X3224289Y-12895710D02*
X3214765Y-12857614D01*
X3214765Y-12857614D02*
X3214765Y-12809995D01*
X3214765Y-12809995D02*
X3224289Y-12771900D01*
X3224289Y-12771900D02*
X3233813Y-12752852D01*
X3233813Y-12752852D02*
X3243336Y-12743329D01*
X3243336Y-12743329D02*
X3262384Y-12733805D01*
X3414765Y-12914757D02*
X3424289Y-12924281D01*
X3424289Y-12924281D02*
X3414765Y-12933805D01*
X3414765Y-12933805D02*
X3405241Y-12924281D01*
X3405241Y-12924281D02*
X3414765Y-12914757D01*
X3414765Y-12914757D02*
X3414765Y-12933805D01*
X3548098Y-12733805D02*
X3567146Y-12733805D01*
X3567146Y-12733805D02*
X3586194Y-12743329D01*
X3586194Y-12743329D02*
X3595717Y-12752852D01*
X3595717Y-12752852D02*
X3605241Y-12771900D01*
X3605241Y-12771900D02*
X3614765Y-12809995D01*
X3614765Y-12809995D02*
X3614765Y-12857614D01*
X3614765Y-12857614D02*
X3605241Y-12895710D01*
X3605241Y-12895710D02*
X3595717Y-12914757D01*
X3595717Y-12914757D02*
X3586194Y-12924281D01*
X3586194Y-12924281D02*
X3567146Y-12933805D01*
X3567146Y-12933805D02*
X3548098Y-12933805D01*
X3548098Y-12933805D02*
X3529051Y-12924281D01*
X3529051Y-12924281D02*
X3519527Y-12914757D01*
X3519527Y-12914757D02*
X3510003Y-12895710D01*
X3510003Y-12895710D02*
X3500479Y-12857614D01*
X3500479Y-12857614D02*
X3500479Y-12809995D01*
X3500479Y-12809995D02*
X3510003Y-12771900D01*
X3510003Y-12771900D02*
X3519527Y-12752852D01*
X3519527Y-12752852D02*
X3529051Y-12743329D01*
X3529051Y-12743329D02*
X3548098Y-12733805D01*
X3681432Y-12733805D02*
X3805241Y-12733805D01*
X3805241Y-12733805D02*
X3738575Y-12809995D01*
X3738575Y-12809995D02*
X3767146Y-12809995D01*
X3767146Y-12809995D02*
X3786194Y-12819519D01*
X3786194Y-12819519D02*
X3795717Y-12829043D01*
X3795717Y-12829043D02*
X3805241Y-12848091D01*
X3805241Y-12848091D02*
X3805241Y-12895710D01*
X3805241Y-12895710D02*
X3795717Y-12914757D01*
X3795717Y-12914757D02*
X3786194Y-12924281D01*
X3786194Y-12924281D02*
X3767146Y-12933805D01*
X3767146Y-12933805D02*
X3710003Y-12933805D01*
X3710003Y-12933805D02*
X3690956Y-12924281D01*
X3690956Y-12924281D02*
X3681432Y-12914757D01*
X3881432Y-12752852D02*
X3890956Y-12743329D01*
X3890956Y-12743329D02*
X3910003Y-12733805D01*
X3910003Y-12733805D02*
X3957622Y-12733805D01*
X3957622Y-12733805D02*
X3976670Y-12743329D01*
X3976670Y-12743329D02*
X3986194Y-12752852D01*
X3986194Y-12752852D02*
X3995717Y-12771900D01*
X3995717Y-12771900D02*
X3995717Y-12790948D01*
X3995717Y-12790948D02*
X3986194Y-12819519D01*
X3986194Y-12819519D02*
X3871908Y-12933805D01*
X3871908Y-12933805D02*
X3995717Y-12933805D01*
X4119527Y-12733805D02*
X4138575Y-12733805D01*
X4138575Y-12733805D02*
X4157622Y-12743329D01*
X4157622Y-12743329D02*
X4167146Y-12752852D01*
X4167146Y-12752852D02*
X4176670Y-12771900D01*
X4176670Y-12771900D02*
X4186194Y-12809995D01*
X4186194Y-12809995D02*
X4186194Y-12857614D01*
X4186194Y-12857614D02*
X4176670Y-12895710D01*
X4176670Y-12895710D02*
X4167146Y-12914757D01*
X4167146Y-12914757D02*
X4157622Y-12924281D01*
X4157622Y-12924281D02*
X4138575Y-12933805D01*
X4138575Y-12933805D02*
X4119527Y-12933805D01*
X4119527Y-12933805D02*
X4100479Y-12924281D01*
X4100479Y-12924281D02*
X4090956Y-12914757D01*
X4090956Y-12914757D02*
X4081432Y-12895710D01*
X4081432Y-12895710D02*
X4071908Y-12857614D01*
X4071908Y-12857614D02*
X4071908Y-12809995D01*
X4071908Y-12809995D02*
X4081432Y-12771900D01*
X4081432Y-12771900D02*
X4090956Y-12752852D01*
X4090956Y-12752852D02*
X4100479Y-12743329D01*
X4100479Y-12743329D02*
X4119527Y-12733805D01*
X4262384Y-12733805D02*
X4262384Y-12771900D01*
X4338575Y-12733805D02*
X4338575Y-12771900D01*
X4633813Y-13009995D02*
X4624289Y-13000471D01*
X4624289Y-13000471D02*
X4605241Y-12971900D01*
X4605241Y-12971900D02*
X4595718Y-12952852D01*
X4595718Y-12952852D02*
X4586194Y-12924281D01*
X4586194Y-12924281D02*
X4576670Y-12876662D01*
X4576670Y-12876662D02*
X4576670Y-12838567D01*
X4576670Y-12838567D02*
X4586194Y-12790948D01*
X4586194Y-12790948D02*
X4595718Y-12762376D01*
X4595718Y-12762376D02*
X4605241Y-12743329D01*
X4605241Y-12743329D02*
X4624289Y-12714757D01*
X4624289Y-12714757D02*
X4633813Y-12705233D01*
X4795718Y-12733805D02*
X4757622Y-12733805D01*
X4757622Y-12733805D02*
X4738575Y-12743329D01*
X4738575Y-12743329D02*
X4729051Y-12752852D01*
X4729051Y-12752852D02*
X4710003Y-12781424D01*
X4710003Y-12781424D02*
X4700480Y-12819519D01*
X4700480Y-12819519D02*
X4700480Y-12895710D01*
X4700480Y-12895710D02*
X4710003Y-12914757D01*
X4710003Y-12914757D02*
X4719527Y-12924281D01*
X4719527Y-12924281D02*
X4738575Y-12933805D01*
X4738575Y-12933805D02*
X4776670Y-12933805D01*
X4776670Y-12933805D02*
X4795718Y-12924281D01*
X4795718Y-12924281D02*
X4805241Y-12914757D01*
X4805241Y-12914757D02*
X4814765Y-12895710D01*
X4814765Y-12895710D02*
X4814765Y-12848091D01*
X4814765Y-12848091D02*
X4805241Y-12829043D01*
X4805241Y-12829043D02*
X4795718Y-12819519D01*
X4795718Y-12819519D02*
X4776670Y-12809995D01*
X4776670Y-12809995D02*
X4738575Y-12809995D01*
X4738575Y-12809995D02*
X4719527Y-12819519D01*
X4719527Y-12819519D02*
X4710003Y-12829043D01*
X4710003Y-12829043D02*
X4700480Y-12848091D01*
X4986194Y-12800471D02*
X4986194Y-12933805D01*
X4938575Y-12724281D02*
X4890956Y-12867138D01*
X4890956Y-12867138D02*
X5014765Y-12867138D01*
X5243337Y-12933805D02*
X5243337Y-12733805D01*
X5329051Y-12933805D02*
X5329051Y-12829043D01*
X5329051Y-12829043D02*
X5319527Y-12809995D01*
X5319527Y-12809995D02*
X5300480Y-12800471D01*
X5300480Y-12800471D02*
X5271908Y-12800471D01*
X5271908Y-12800471D02*
X5252861Y-12809995D01*
X5252861Y-12809995D02*
X5243337Y-12819519D01*
X5452861Y-12933805D02*
X5433813Y-12924281D01*
X5433813Y-12924281D02*
X5424289Y-12914757D01*
X5424289Y-12914757D02*
X5414765Y-12895710D01*
X5414765Y-12895710D02*
X5414765Y-12838567D01*
X5414765Y-12838567D02*
X5424289Y-12819519D01*
X5424289Y-12819519D02*
X5433813Y-12809995D01*
X5433813Y-12809995D02*
X5452861Y-12800471D01*
X5452861Y-12800471D02*
X5481432Y-12800471D01*
X5481432Y-12800471D02*
X5500480Y-12809995D01*
X5500480Y-12809995D02*
X5510003Y-12819519D01*
X5510003Y-12819519D02*
X5519527Y-12838567D01*
X5519527Y-12838567D02*
X5519527Y-12895710D01*
X5519527Y-12895710D02*
X5510003Y-12914757D01*
X5510003Y-12914757D02*
X5500480Y-12924281D01*
X5500480Y-12924281D02*
X5481432Y-12933805D01*
X5481432Y-12933805D02*
X5452861Y-12933805D01*
X5633813Y-12933805D02*
X5614765Y-12924281D01*
X5614765Y-12924281D02*
X5605241Y-12905233D01*
X5605241Y-12905233D02*
X5605241Y-12733805D01*
X5786194Y-12924281D02*
X5767146Y-12933805D01*
X5767146Y-12933805D02*
X5729051Y-12933805D01*
X5729051Y-12933805D02*
X5710003Y-12924281D01*
X5710003Y-12924281D02*
X5700480Y-12905233D01*
X5700480Y-12905233D02*
X5700480Y-12829043D01*
X5700480Y-12829043D02*
X5710003Y-12809995D01*
X5710003Y-12809995D02*
X5729051Y-12800471D01*
X5729051Y-12800471D02*
X5767146Y-12800471D01*
X5767146Y-12800471D02*
X5786194Y-12809995D01*
X5786194Y-12809995D02*
X5795718Y-12829043D01*
X5795718Y-12829043D02*
X5795718Y-12848091D01*
X5795718Y-12848091D02*
X5700480Y-12867138D01*
X5871908Y-12924281D02*
X5890956Y-12933805D01*
X5890956Y-12933805D02*
X5929051Y-12933805D01*
X5929051Y-12933805D02*
X5948099Y-12924281D01*
X5948099Y-12924281D02*
X5957622Y-12905233D01*
X5957622Y-12905233D02*
X5957622Y-12895710D01*
X5957622Y-12895710D02*
X5948099Y-12876662D01*
X5948099Y-12876662D02*
X5929051Y-12867138D01*
X5929051Y-12867138D02*
X5900480Y-12867138D01*
X5900480Y-12867138D02*
X5881432Y-12857614D01*
X5881432Y-12857614D02*
X5871908Y-12838567D01*
X5871908Y-12838567D02*
X5871908Y-12829043D01*
X5871908Y-12829043D02*
X5881432Y-12809995D01*
X5881432Y-12809995D02*
X5900480Y-12800471D01*
X5900480Y-12800471D02*
X5929051Y-12800471D01*
X5929051Y-12800471D02*
X5948099Y-12809995D01*
X6024289Y-13009995D02*
X6033813Y-13000471D01*
X6033813Y-13000471D02*
X6052861Y-12971900D01*
X6052861Y-12971900D02*
X6062384Y-12952852D01*
X6062384Y-12952852D02*
X6071908Y-12924281D01*
X6071908Y-12924281D02*
X6081432Y-12876662D01*
X6081432Y-12876662D02*
X6081432Y-12838567D01*
X6081432Y-12838567D02*
X6071908Y-12790948D01*
X6071908Y-12790948D02*
X6062384Y-12762376D01*
X6062384Y-12762376D02*
X6052861Y-12743329D01*
X6052861Y-12743329D02*
X6033813Y-12714757D01*
X6033813Y-12714757D02*
X6024289Y-12705233D01*
D14*
X1044106Y-13141677D02*
X1044106Y-13070965D01*
X973394Y-13070965D01*
X973394Y-13141677D01*
X1044106Y-13141677D01*
D10*
X1424289Y-13197805D02*
X1310003Y-13197805D01*
X1367146Y-13197805D02*
X1367146Y-12997805D01*
X1367146Y-12997805D02*
X1348098Y-13026376D01*
X1348098Y-13026376D02*
X1329051Y-13045424D01*
X1329051Y-13045424D02*
X1310003Y-13054948D01*
X1510003Y-13178757D02*
X1519527Y-13188281D01*
X1519527Y-13188281D02*
X1510003Y-13197805D01*
X1510003Y-13197805D02*
X1500479Y-13188281D01*
X1500479Y-13188281D02*
X1510003Y-13178757D01*
X1510003Y-13178757D02*
X1510003Y-13197805D01*
X1643336Y-12997805D02*
X1662384Y-12997805D01*
X1662384Y-12997805D02*
X1681432Y-13007329D01*
X1681432Y-13007329D02*
X1690955Y-13016852D01*
X1690955Y-13016852D02*
X1700479Y-13035900D01*
X1700479Y-13035900D02*
X1710003Y-13073995D01*
X1710003Y-13073995D02*
X1710003Y-13121614D01*
X1710003Y-13121614D02*
X1700479Y-13159710D01*
X1700479Y-13159710D02*
X1690955Y-13178757D01*
X1690955Y-13178757D02*
X1681432Y-13188281D01*
X1681432Y-13188281D02*
X1662384Y-13197805D01*
X1662384Y-13197805D02*
X1643336Y-13197805D01*
X1643336Y-13197805D02*
X1624289Y-13188281D01*
X1624289Y-13188281D02*
X1614765Y-13178757D01*
X1614765Y-13178757D02*
X1605241Y-13159710D01*
X1605241Y-13159710D02*
X1595717Y-13121614D01*
X1595717Y-13121614D02*
X1595717Y-13073995D01*
X1595717Y-13073995D02*
X1605241Y-13035900D01*
X1605241Y-13035900D02*
X1614765Y-13016852D01*
X1614765Y-13016852D02*
X1624289Y-13007329D01*
X1624289Y-13007329D02*
X1643336Y-12997805D01*
X1833812Y-12997805D02*
X1852860Y-12997805D01*
X1852860Y-12997805D02*
X1871908Y-13007329D01*
X1871908Y-13007329D02*
X1881432Y-13016852D01*
X1881432Y-13016852D02*
X1890955Y-13035900D01*
X1890955Y-13035900D02*
X1900479Y-13073995D01*
X1900479Y-13073995D02*
X1900479Y-13121614D01*
X1900479Y-13121614D02*
X1890955Y-13159710D01*
X1890955Y-13159710D02*
X1881432Y-13178757D01*
X1881432Y-13178757D02*
X1871908Y-13188281D01*
X1871908Y-13188281D02*
X1852860Y-13197805D01*
X1852860Y-13197805D02*
X1833812Y-13197805D01*
X1833812Y-13197805D02*
X1814765Y-13188281D01*
X1814765Y-13188281D02*
X1805241Y-13178757D01*
X1805241Y-13178757D02*
X1795717Y-13159710D01*
X1795717Y-13159710D02*
X1786193Y-13121614D01*
X1786193Y-13121614D02*
X1786193Y-13073995D01*
X1786193Y-13073995D02*
X1795717Y-13035900D01*
X1795717Y-13035900D02*
X1805241Y-13016852D01*
X1805241Y-13016852D02*
X1814765Y-13007329D01*
X1814765Y-13007329D02*
X1833812Y-12997805D01*
X2024289Y-12997805D02*
X2043336Y-12997805D01*
X2043336Y-12997805D02*
X2062384Y-13007329D01*
X2062384Y-13007329D02*
X2071908Y-13016852D01*
X2071908Y-13016852D02*
X2081432Y-13035900D01*
X2081432Y-13035900D02*
X2090955Y-13073995D01*
X2090955Y-13073995D02*
X2090955Y-13121614D01*
X2090955Y-13121614D02*
X2081432Y-13159710D01*
X2081432Y-13159710D02*
X2071908Y-13178757D01*
X2071908Y-13178757D02*
X2062384Y-13188281D01*
X2062384Y-13188281D02*
X2043336Y-13197805D01*
X2043336Y-13197805D02*
X2024289Y-13197805D01*
X2024289Y-13197805D02*
X2005241Y-13188281D01*
X2005241Y-13188281D02*
X1995717Y-13178757D01*
X1995717Y-13178757D02*
X1986193Y-13159710D01*
X1986193Y-13159710D02*
X1976670Y-13121614D01*
X1976670Y-13121614D02*
X1976670Y-13073995D01*
X1976670Y-13073995D02*
X1986193Y-13035900D01*
X1986193Y-13035900D02*
X1995717Y-13016852D01*
X1995717Y-13016852D02*
X2005241Y-13007329D01*
X2005241Y-13007329D02*
X2024289Y-12997805D01*
X2176670Y-13197805D02*
X2176670Y-13064471D01*
X2176670Y-13083519D02*
X2186194Y-13073995D01*
X2186194Y-13073995D02*
X2205241Y-13064471D01*
X2205241Y-13064471D02*
X2233813Y-13064471D01*
X2233813Y-13064471D02*
X2252860Y-13073995D01*
X2252860Y-13073995D02*
X2262384Y-13093043D01*
X2262384Y-13093043D02*
X2262384Y-13197805D01*
X2262384Y-13093043D02*
X2271908Y-13073995D01*
X2271908Y-13073995D02*
X2290955Y-13064471D01*
X2290955Y-13064471D02*
X2319527Y-13064471D01*
X2319527Y-13064471D02*
X2338575Y-13073995D01*
X2338575Y-13073995D02*
X2348098Y-13093043D01*
X2348098Y-13093043D02*
X2348098Y-13197805D01*
X2443336Y-13197805D02*
X2443336Y-13064471D01*
X2443336Y-13083519D02*
X2452860Y-13073995D01*
X2452860Y-13073995D02*
X2471908Y-13064471D01*
X2471908Y-13064471D02*
X2500479Y-13064471D01*
X2500479Y-13064471D02*
X2519527Y-13073995D01*
X2519527Y-13073995D02*
X2529051Y-13093043D01*
X2529051Y-13093043D02*
X2529051Y-13197805D01*
X2529051Y-13093043D02*
X2538575Y-13073995D01*
X2538575Y-13073995D02*
X2557622Y-13064471D01*
X2557622Y-13064471D02*
X2586194Y-13064471D01*
X2586194Y-13064471D02*
X2605241Y-13073995D01*
X2605241Y-13073995D02*
X2614765Y-13093043D01*
X2614765Y-13093043D02*
X2614765Y-13197805D01*
X3005241Y-12988281D02*
X2833813Y-13245424D01*
X3262384Y-12997805D02*
X3281432Y-12997805D01*
X3281432Y-12997805D02*
X3300479Y-13007329D01*
X3300479Y-13007329D02*
X3310003Y-13016852D01*
X3310003Y-13016852D02*
X3319527Y-13035900D01*
X3319527Y-13035900D02*
X3329051Y-13073995D01*
X3329051Y-13073995D02*
X3329051Y-13121614D01*
X3329051Y-13121614D02*
X3319527Y-13159710D01*
X3319527Y-13159710D02*
X3310003Y-13178757D01*
X3310003Y-13178757D02*
X3300479Y-13188281D01*
X3300479Y-13188281D02*
X3281432Y-13197805D01*
X3281432Y-13197805D02*
X3262384Y-13197805D01*
X3262384Y-13197805D02*
X3243336Y-13188281D01*
X3243336Y-13188281D02*
X3233813Y-13178757D01*
X3233813Y-13178757D02*
X3224289Y-13159710D01*
X3224289Y-13159710D02*
X3214765Y-13121614D01*
X3214765Y-13121614D02*
X3214765Y-13073995D01*
X3214765Y-13073995D02*
X3224289Y-13035900D01*
X3224289Y-13035900D02*
X3233813Y-13016852D01*
X3233813Y-13016852D02*
X3243336Y-13007329D01*
X3243336Y-13007329D02*
X3262384Y-12997805D01*
X3414765Y-13178757D02*
X3424289Y-13188281D01*
X3424289Y-13188281D02*
X3414765Y-13197805D01*
X3414765Y-13197805D02*
X3405241Y-13188281D01*
X3405241Y-13188281D02*
X3414765Y-13178757D01*
X3414765Y-13178757D02*
X3414765Y-13197805D01*
X3548098Y-12997805D02*
X3567146Y-12997805D01*
X3567146Y-12997805D02*
X3586194Y-13007329D01*
X3586194Y-13007329D02*
X3595717Y-13016852D01*
X3595717Y-13016852D02*
X3605241Y-13035900D01*
X3605241Y-13035900D02*
X3614765Y-13073995D01*
X3614765Y-13073995D02*
X3614765Y-13121614D01*
X3614765Y-13121614D02*
X3605241Y-13159710D01*
X3605241Y-13159710D02*
X3595717Y-13178757D01*
X3595717Y-13178757D02*
X3586194Y-13188281D01*
X3586194Y-13188281D02*
X3567146Y-13197805D01*
X3567146Y-13197805D02*
X3548098Y-13197805D01*
X3548098Y-13197805D02*
X3529051Y-13188281D01*
X3529051Y-13188281D02*
X3519527Y-13178757D01*
X3519527Y-13178757D02*
X3510003Y-13159710D01*
X3510003Y-13159710D02*
X3500479Y-13121614D01*
X3500479Y-13121614D02*
X3500479Y-13073995D01*
X3500479Y-13073995D02*
X3510003Y-13035900D01*
X3510003Y-13035900D02*
X3519527Y-13016852D01*
X3519527Y-13016852D02*
X3529051Y-13007329D01*
X3529051Y-13007329D02*
X3548098Y-12997805D01*
X3681432Y-12997805D02*
X3805241Y-12997805D01*
X3805241Y-12997805D02*
X3738575Y-13073995D01*
X3738575Y-13073995D02*
X3767146Y-13073995D01*
X3767146Y-13073995D02*
X3786194Y-13083519D01*
X3786194Y-13083519D02*
X3795717Y-13093043D01*
X3795717Y-13093043D02*
X3805241Y-13112091D01*
X3805241Y-13112091D02*
X3805241Y-13159710D01*
X3805241Y-13159710D02*
X3795717Y-13178757D01*
X3795717Y-13178757D02*
X3786194Y-13188281D01*
X3786194Y-13188281D02*
X3767146Y-13197805D01*
X3767146Y-13197805D02*
X3710003Y-13197805D01*
X3710003Y-13197805D02*
X3690956Y-13188281D01*
X3690956Y-13188281D02*
X3681432Y-13178757D01*
X3900479Y-13197805D02*
X3938575Y-13197805D01*
X3938575Y-13197805D02*
X3957622Y-13188281D01*
X3957622Y-13188281D02*
X3967146Y-13178757D01*
X3967146Y-13178757D02*
X3986194Y-13150186D01*
X3986194Y-13150186D02*
X3995717Y-13112091D01*
X3995717Y-13112091D02*
X3995717Y-13035900D01*
X3995717Y-13035900D02*
X3986194Y-13016852D01*
X3986194Y-13016852D02*
X3976670Y-13007329D01*
X3976670Y-13007329D02*
X3957622Y-12997805D01*
X3957622Y-12997805D02*
X3919527Y-12997805D01*
X3919527Y-12997805D02*
X3900479Y-13007329D01*
X3900479Y-13007329D02*
X3890956Y-13016852D01*
X3890956Y-13016852D02*
X3881432Y-13035900D01*
X3881432Y-13035900D02*
X3881432Y-13083519D01*
X3881432Y-13083519D02*
X3890956Y-13102567D01*
X3890956Y-13102567D02*
X3900479Y-13112091D01*
X3900479Y-13112091D02*
X3919527Y-13121614D01*
X3919527Y-13121614D02*
X3957622Y-13121614D01*
X3957622Y-13121614D02*
X3976670Y-13112091D01*
X3976670Y-13112091D02*
X3986194Y-13102567D01*
X3986194Y-13102567D02*
X3995717Y-13083519D01*
X4167146Y-13064471D02*
X4167146Y-13197805D01*
X4119527Y-12988281D02*
X4071908Y-13131138D01*
X4071908Y-13131138D02*
X4195718Y-13131138D01*
X4262384Y-12997805D02*
X4262384Y-13035900D01*
X4338575Y-12997805D02*
X4338575Y-13035900D01*
X4633813Y-13273995D02*
X4624289Y-13264471D01*
X4624289Y-13264471D02*
X4605241Y-13235900D01*
X4605241Y-13235900D02*
X4595718Y-13216852D01*
X4595718Y-13216852D02*
X4586194Y-13188281D01*
X4586194Y-13188281D02*
X4576670Y-13140662D01*
X4576670Y-13140662D02*
X4576670Y-13102567D01*
X4576670Y-13102567D02*
X4586194Y-13054948D01*
X4586194Y-13054948D02*
X4595718Y-13026376D01*
X4595718Y-13026376D02*
X4605241Y-13007329D01*
X4605241Y-13007329D02*
X4624289Y-12978757D01*
X4624289Y-12978757D02*
X4633813Y-12969233D01*
X4814765Y-13197805D02*
X4700480Y-13197805D01*
X4757622Y-13197805D02*
X4757622Y-12997805D01*
X4757622Y-12997805D02*
X4738575Y-13026376D01*
X4738575Y-13026376D02*
X4719527Y-13045424D01*
X4719527Y-13045424D02*
X4700480Y-13054948D01*
X4938575Y-12997805D02*
X4957622Y-12997805D01*
X4957622Y-12997805D02*
X4976670Y-13007329D01*
X4976670Y-13007329D02*
X4986194Y-13016852D01*
X4986194Y-13016852D02*
X4995718Y-13035900D01*
X4995718Y-13035900D02*
X5005241Y-13073995D01*
X5005241Y-13073995D02*
X5005241Y-13121614D01*
X5005241Y-13121614D02*
X4995718Y-13159710D01*
X4995718Y-13159710D02*
X4986194Y-13178757D01*
X4986194Y-13178757D02*
X4976670Y-13188281D01*
X4976670Y-13188281D02*
X4957622Y-13197805D01*
X4957622Y-13197805D02*
X4938575Y-13197805D01*
X4938575Y-13197805D02*
X4919527Y-13188281D01*
X4919527Y-13188281D02*
X4910003Y-13178757D01*
X4910003Y-13178757D02*
X4900480Y-13159710D01*
X4900480Y-13159710D02*
X4890956Y-13121614D01*
X4890956Y-13121614D02*
X4890956Y-13073995D01*
X4890956Y-13073995D02*
X4900480Y-13035900D01*
X4900480Y-13035900D02*
X4910003Y-13016852D01*
X4910003Y-13016852D02*
X4919527Y-13007329D01*
X4919527Y-13007329D02*
X4938575Y-12997805D01*
X5243337Y-13197805D02*
X5243337Y-12997805D01*
X5329051Y-13197805D02*
X5329051Y-13093043D01*
X5329051Y-13093043D02*
X5319527Y-13073995D01*
X5319527Y-13073995D02*
X5300480Y-13064471D01*
X5300480Y-13064471D02*
X5271908Y-13064471D01*
X5271908Y-13064471D02*
X5252861Y-13073995D01*
X5252861Y-13073995D02*
X5243337Y-13083519D01*
X5452861Y-13197805D02*
X5433813Y-13188281D01*
X5433813Y-13188281D02*
X5424289Y-13178757D01*
X5424289Y-13178757D02*
X5414765Y-13159710D01*
X5414765Y-13159710D02*
X5414765Y-13102567D01*
X5414765Y-13102567D02*
X5424289Y-13083519D01*
X5424289Y-13083519D02*
X5433813Y-13073995D01*
X5433813Y-13073995D02*
X5452861Y-13064471D01*
X5452861Y-13064471D02*
X5481432Y-13064471D01*
X5481432Y-13064471D02*
X5500480Y-13073995D01*
X5500480Y-13073995D02*
X5510003Y-13083519D01*
X5510003Y-13083519D02*
X5519527Y-13102567D01*
X5519527Y-13102567D02*
X5519527Y-13159710D01*
X5519527Y-13159710D02*
X5510003Y-13178757D01*
X5510003Y-13178757D02*
X5500480Y-13188281D01*
X5500480Y-13188281D02*
X5481432Y-13197805D01*
X5481432Y-13197805D02*
X5452861Y-13197805D01*
X5633813Y-13197805D02*
X5614765Y-13188281D01*
X5614765Y-13188281D02*
X5605241Y-13169233D01*
X5605241Y-13169233D02*
X5605241Y-12997805D01*
X5786194Y-13188281D02*
X5767146Y-13197805D01*
X5767146Y-13197805D02*
X5729051Y-13197805D01*
X5729051Y-13197805D02*
X5710003Y-13188281D01*
X5710003Y-13188281D02*
X5700480Y-13169233D01*
X5700480Y-13169233D02*
X5700480Y-13093043D01*
X5700480Y-13093043D02*
X5710003Y-13073995D01*
X5710003Y-13073995D02*
X5729051Y-13064471D01*
X5729051Y-13064471D02*
X5767146Y-13064471D01*
X5767146Y-13064471D02*
X5786194Y-13073995D01*
X5786194Y-13073995D02*
X5795718Y-13093043D01*
X5795718Y-13093043D02*
X5795718Y-13112091D01*
X5795718Y-13112091D02*
X5700480Y-13131138D01*
X5871908Y-13188281D02*
X5890956Y-13197805D01*
X5890956Y-13197805D02*
X5929051Y-13197805D01*
X5929051Y-13197805D02*
X5948099Y-13188281D01*
X5948099Y-13188281D02*
X5957622Y-13169233D01*
X5957622Y-13169233D02*
X5957622Y-13159710D01*
X5957622Y-13159710D02*
X5948099Y-13140662D01*
X5948099Y-13140662D02*
X5929051Y-13131138D01*
X5929051Y-13131138D02*
X5900480Y-13131138D01*
X5900480Y-13131138D02*
X5881432Y-13121614D01*
X5881432Y-13121614D02*
X5871908Y-13102567D01*
X5871908Y-13102567D02*
X5871908Y-13093043D01*
X5871908Y-13093043D02*
X5881432Y-13073995D01*
X5881432Y-13073995D02*
X5900480Y-13064471D01*
X5900480Y-13064471D02*
X5929051Y-13064471D01*
X5929051Y-13064471D02*
X5948099Y-13073995D01*
X6024289Y-13273995D02*
X6033813Y-13264471D01*
X6033813Y-13264471D02*
X6052861Y-13235900D01*
X6052861Y-13235900D02*
X6062384Y-13216852D01*
X6062384Y-13216852D02*
X6071908Y-13188281D01*
X6071908Y-13188281D02*
X6081432Y-13140662D01*
X6081432Y-13140662D02*
X6081432Y-13102567D01*
X6081432Y-13102567D02*
X6071908Y-13054948D01*
X6071908Y-13054948D02*
X6062384Y-13026376D01*
X6062384Y-13026376D02*
X6052861Y-13007329D01*
X6052861Y-13007329D02*
X6033813Y-12978757D01*
X6033813Y-12978757D02*
X6024289Y-12969233D01*
D15*
X993750Y-13435321D02*
X1058750Y-13370321D01*
X993750Y-13305321D01*
X928750Y-13370321D01*
X993750Y-13435321D01*
D10*
X1424289Y-13461805D02*
X1310003Y-13461805D01*
X1367146Y-13461805D02*
X1367146Y-13261805D01*
X1367146Y-13261805D02*
X1348098Y-13290376D01*
X1348098Y-13290376D02*
X1329051Y-13309424D01*
X1329051Y-13309424D02*
X1310003Y-13318948D01*
X1510003Y-13442757D02*
X1519527Y-13452281D01*
X1519527Y-13452281D02*
X1510003Y-13461805D01*
X1510003Y-13461805D02*
X1500479Y-13452281D01*
X1500479Y-13452281D02*
X1510003Y-13442757D01*
X1510003Y-13442757D02*
X1510003Y-13461805D01*
X1586193Y-13261805D02*
X1710003Y-13261805D01*
X1710003Y-13261805D02*
X1643336Y-13337995D01*
X1643336Y-13337995D02*
X1671908Y-13337995D01*
X1671908Y-13337995D02*
X1690955Y-13347519D01*
X1690955Y-13347519D02*
X1700479Y-13357043D01*
X1700479Y-13357043D02*
X1710003Y-13376091D01*
X1710003Y-13376091D02*
X1710003Y-13423710D01*
X1710003Y-13423710D02*
X1700479Y-13442757D01*
X1700479Y-13442757D02*
X1690955Y-13452281D01*
X1690955Y-13452281D02*
X1671908Y-13461805D01*
X1671908Y-13461805D02*
X1614765Y-13461805D01*
X1614765Y-13461805D02*
X1595717Y-13452281D01*
X1595717Y-13452281D02*
X1586193Y-13442757D01*
X1833812Y-13261805D02*
X1852860Y-13261805D01*
X1852860Y-13261805D02*
X1871908Y-13271329D01*
X1871908Y-13271329D02*
X1881432Y-13280852D01*
X1881432Y-13280852D02*
X1890955Y-13299900D01*
X1890955Y-13299900D02*
X1900479Y-13337995D01*
X1900479Y-13337995D02*
X1900479Y-13385614D01*
X1900479Y-13385614D02*
X1890955Y-13423710D01*
X1890955Y-13423710D02*
X1881432Y-13442757D01*
X1881432Y-13442757D02*
X1871908Y-13452281D01*
X1871908Y-13452281D02*
X1852860Y-13461805D01*
X1852860Y-13461805D02*
X1833812Y-13461805D01*
X1833812Y-13461805D02*
X1814765Y-13452281D01*
X1814765Y-13452281D02*
X1805241Y-13442757D01*
X1805241Y-13442757D02*
X1795717Y-13423710D01*
X1795717Y-13423710D02*
X1786193Y-13385614D01*
X1786193Y-13385614D02*
X1786193Y-13337995D01*
X1786193Y-13337995D02*
X1795717Y-13299900D01*
X1795717Y-13299900D02*
X1805241Y-13280852D01*
X1805241Y-13280852D02*
X1814765Y-13271329D01*
X1814765Y-13271329D02*
X1833812Y-13261805D01*
X2024289Y-13261805D02*
X2043336Y-13261805D01*
X2043336Y-13261805D02*
X2062384Y-13271329D01*
X2062384Y-13271329D02*
X2071908Y-13280852D01*
X2071908Y-13280852D02*
X2081432Y-13299900D01*
X2081432Y-13299900D02*
X2090955Y-13337995D01*
X2090955Y-13337995D02*
X2090955Y-13385614D01*
X2090955Y-13385614D02*
X2081432Y-13423710D01*
X2081432Y-13423710D02*
X2071908Y-13442757D01*
X2071908Y-13442757D02*
X2062384Y-13452281D01*
X2062384Y-13452281D02*
X2043336Y-13461805D01*
X2043336Y-13461805D02*
X2024289Y-13461805D01*
X2024289Y-13461805D02*
X2005241Y-13452281D01*
X2005241Y-13452281D02*
X1995717Y-13442757D01*
X1995717Y-13442757D02*
X1986193Y-13423710D01*
X1986193Y-13423710D02*
X1976670Y-13385614D01*
X1976670Y-13385614D02*
X1976670Y-13337995D01*
X1976670Y-13337995D02*
X1986193Y-13299900D01*
X1986193Y-13299900D02*
X1995717Y-13280852D01*
X1995717Y-13280852D02*
X2005241Y-13271329D01*
X2005241Y-13271329D02*
X2024289Y-13261805D01*
X2176670Y-13461805D02*
X2176670Y-13328471D01*
X2176670Y-13347519D02*
X2186194Y-13337995D01*
X2186194Y-13337995D02*
X2205241Y-13328471D01*
X2205241Y-13328471D02*
X2233813Y-13328471D01*
X2233813Y-13328471D02*
X2252860Y-13337995D01*
X2252860Y-13337995D02*
X2262384Y-13357043D01*
X2262384Y-13357043D02*
X2262384Y-13461805D01*
X2262384Y-13357043D02*
X2271908Y-13337995D01*
X2271908Y-13337995D02*
X2290955Y-13328471D01*
X2290955Y-13328471D02*
X2319527Y-13328471D01*
X2319527Y-13328471D02*
X2338575Y-13337995D01*
X2338575Y-13337995D02*
X2348098Y-13357043D01*
X2348098Y-13357043D02*
X2348098Y-13461805D01*
X2443336Y-13461805D02*
X2443336Y-13328471D01*
X2443336Y-13347519D02*
X2452860Y-13337995D01*
X2452860Y-13337995D02*
X2471908Y-13328471D01*
X2471908Y-13328471D02*
X2500479Y-13328471D01*
X2500479Y-13328471D02*
X2519527Y-13337995D01*
X2519527Y-13337995D02*
X2529051Y-13357043D01*
X2529051Y-13357043D02*
X2529051Y-13461805D01*
X2529051Y-13357043D02*
X2538575Y-13337995D01*
X2538575Y-13337995D02*
X2557622Y-13328471D01*
X2557622Y-13328471D02*
X2586194Y-13328471D01*
X2586194Y-13328471D02*
X2605241Y-13337995D01*
X2605241Y-13337995D02*
X2614765Y-13357043D01*
X2614765Y-13357043D02*
X2614765Y-13461805D01*
X3005241Y-13252281D02*
X2833813Y-13509424D01*
X3262384Y-13261805D02*
X3281432Y-13261805D01*
X3281432Y-13261805D02*
X3300479Y-13271329D01*
X3300479Y-13271329D02*
X3310003Y-13280852D01*
X3310003Y-13280852D02*
X3319527Y-13299900D01*
X3319527Y-13299900D02*
X3329051Y-13337995D01*
X3329051Y-13337995D02*
X3329051Y-13385614D01*
X3329051Y-13385614D02*
X3319527Y-13423710D01*
X3319527Y-13423710D02*
X3310003Y-13442757D01*
X3310003Y-13442757D02*
X3300479Y-13452281D01*
X3300479Y-13452281D02*
X3281432Y-13461805D01*
X3281432Y-13461805D02*
X3262384Y-13461805D01*
X3262384Y-13461805D02*
X3243336Y-13452281D01*
X3243336Y-13452281D02*
X3233813Y-13442757D01*
X3233813Y-13442757D02*
X3224289Y-13423710D01*
X3224289Y-13423710D02*
X3214765Y-13385614D01*
X3214765Y-13385614D02*
X3214765Y-13337995D01*
X3214765Y-13337995D02*
X3224289Y-13299900D01*
X3224289Y-13299900D02*
X3233813Y-13280852D01*
X3233813Y-13280852D02*
X3243336Y-13271329D01*
X3243336Y-13271329D02*
X3262384Y-13261805D01*
X3414765Y-13442757D02*
X3424289Y-13452281D01*
X3424289Y-13452281D02*
X3414765Y-13461805D01*
X3414765Y-13461805D02*
X3405241Y-13452281D01*
X3405241Y-13452281D02*
X3414765Y-13442757D01*
X3414765Y-13442757D02*
X3414765Y-13461805D01*
X3548098Y-13261805D02*
X3567146Y-13261805D01*
X3567146Y-13261805D02*
X3586194Y-13271329D01*
X3586194Y-13271329D02*
X3595717Y-13280852D01*
X3595717Y-13280852D02*
X3605241Y-13299900D01*
X3605241Y-13299900D02*
X3614765Y-13337995D01*
X3614765Y-13337995D02*
X3614765Y-13385614D01*
X3614765Y-13385614D02*
X3605241Y-13423710D01*
X3605241Y-13423710D02*
X3595717Y-13442757D01*
X3595717Y-13442757D02*
X3586194Y-13452281D01*
X3586194Y-13452281D02*
X3567146Y-13461805D01*
X3567146Y-13461805D02*
X3548098Y-13461805D01*
X3548098Y-13461805D02*
X3529051Y-13452281D01*
X3529051Y-13452281D02*
X3519527Y-13442757D01*
X3519527Y-13442757D02*
X3510003Y-13423710D01*
X3510003Y-13423710D02*
X3500479Y-13385614D01*
X3500479Y-13385614D02*
X3500479Y-13337995D01*
X3500479Y-13337995D02*
X3510003Y-13299900D01*
X3510003Y-13299900D02*
X3519527Y-13280852D01*
X3519527Y-13280852D02*
X3529051Y-13271329D01*
X3529051Y-13271329D02*
X3548098Y-13261805D01*
X3795717Y-13261805D02*
X3700479Y-13261805D01*
X3700479Y-13261805D02*
X3690956Y-13357043D01*
X3690956Y-13357043D02*
X3700479Y-13347519D01*
X3700479Y-13347519D02*
X3719527Y-13337995D01*
X3719527Y-13337995D02*
X3767146Y-13337995D01*
X3767146Y-13337995D02*
X3786194Y-13347519D01*
X3786194Y-13347519D02*
X3795717Y-13357043D01*
X3795717Y-13357043D02*
X3805241Y-13376091D01*
X3805241Y-13376091D02*
X3805241Y-13423710D01*
X3805241Y-13423710D02*
X3795717Y-13442757D01*
X3795717Y-13442757D02*
X3786194Y-13452281D01*
X3786194Y-13452281D02*
X3767146Y-13461805D01*
X3767146Y-13461805D02*
X3719527Y-13461805D01*
X3719527Y-13461805D02*
X3700479Y-13452281D01*
X3700479Y-13452281D02*
X3690956Y-13442757D01*
X3995717Y-13461805D02*
X3881432Y-13461805D01*
X3938575Y-13461805D02*
X3938575Y-13261805D01*
X3938575Y-13261805D02*
X3919527Y-13290376D01*
X3919527Y-13290376D02*
X3900479Y-13309424D01*
X3900479Y-13309424D02*
X3881432Y-13318948D01*
X4071908Y-13280852D02*
X4081432Y-13271329D01*
X4081432Y-13271329D02*
X4100479Y-13261805D01*
X4100479Y-13261805D02*
X4148098Y-13261805D01*
X4148098Y-13261805D02*
X4167146Y-13271329D01*
X4167146Y-13271329D02*
X4176670Y-13280852D01*
X4176670Y-13280852D02*
X4186194Y-13299900D01*
X4186194Y-13299900D02*
X4186194Y-13318948D01*
X4186194Y-13318948D02*
X4176670Y-13347519D01*
X4176670Y-13347519D02*
X4062384Y-13461805D01*
X4062384Y-13461805D02*
X4186194Y-13461805D01*
X4262384Y-13261805D02*
X4262384Y-13299900D01*
X4338575Y-13261805D02*
X4338575Y-13299900D01*
X4633813Y-13537995D02*
X4624289Y-13528471D01*
X4624289Y-13528471D02*
X4605241Y-13499900D01*
X4605241Y-13499900D02*
X4595718Y-13480852D01*
X4595718Y-13480852D02*
X4586194Y-13452281D01*
X4586194Y-13452281D02*
X4576670Y-13404662D01*
X4576670Y-13404662D02*
X4576670Y-13366567D01*
X4576670Y-13366567D02*
X4586194Y-13318948D01*
X4586194Y-13318948D02*
X4595718Y-13290376D01*
X4595718Y-13290376D02*
X4605241Y-13271329D01*
X4605241Y-13271329D02*
X4624289Y-13242757D01*
X4624289Y-13242757D02*
X4633813Y-13233233D01*
X4795718Y-13328471D02*
X4795718Y-13461805D01*
X4748099Y-13252281D02*
X4700480Y-13395138D01*
X4700480Y-13395138D02*
X4824289Y-13395138D01*
X5052861Y-13461805D02*
X5052861Y-13261805D01*
X5138575Y-13461805D02*
X5138575Y-13357043D01*
X5138575Y-13357043D02*
X5129051Y-13337995D01*
X5129051Y-13337995D02*
X5110003Y-13328471D01*
X5110003Y-13328471D02*
X5081432Y-13328471D01*
X5081432Y-13328471D02*
X5062384Y-13337995D01*
X5062384Y-13337995D02*
X5052861Y-13347519D01*
X5262384Y-13461805D02*
X5243337Y-13452281D01*
X5243337Y-13452281D02*
X5233813Y-13442757D01*
X5233813Y-13442757D02*
X5224289Y-13423710D01*
X5224289Y-13423710D02*
X5224289Y-13366567D01*
X5224289Y-13366567D02*
X5233813Y-13347519D01*
X5233813Y-13347519D02*
X5243337Y-13337995D01*
X5243337Y-13337995D02*
X5262384Y-13328471D01*
X5262384Y-13328471D02*
X5290956Y-13328471D01*
X5290956Y-13328471D02*
X5310003Y-13337995D01*
X5310003Y-13337995D02*
X5319527Y-13347519D01*
X5319527Y-13347519D02*
X5329051Y-13366567D01*
X5329051Y-13366567D02*
X5329051Y-13423710D01*
X5329051Y-13423710D02*
X5319527Y-13442757D01*
X5319527Y-13442757D02*
X5310003Y-13452281D01*
X5310003Y-13452281D02*
X5290956Y-13461805D01*
X5290956Y-13461805D02*
X5262384Y-13461805D01*
X5443337Y-13461805D02*
X5424289Y-13452281D01*
X5424289Y-13452281D02*
X5414765Y-13433233D01*
X5414765Y-13433233D02*
X5414765Y-13261805D01*
X5595718Y-13452281D02*
X5576670Y-13461805D01*
X5576670Y-13461805D02*
X5538575Y-13461805D01*
X5538575Y-13461805D02*
X5519527Y-13452281D01*
X5519527Y-13452281D02*
X5510003Y-13433233D01*
X5510003Y-13433233D02*
X5510003Y-13357043D01*
X5510003Y-13357043D02*
X5519527Y-13337995D01*
X5519527Y-13337995D02*
X5538575Y-13328471D01*
X5538575Y-13328471D02*
X5576670Y-13328471D01*
X5576670Y-13328471D02*
X5595718Y-13337995D01*
X5595718Y-13337995D02*
X5605241Y-13357043D01*
X5605241Y-13357043D02*
X5605241Y-13376091D01*
X5605241Y-13376091D02*
X5510003Y-13395138D01*
X5681432Y-13452281D02*
X5700480Y-13461805D01*
X5700480Y-13461805D02*
X5738575Y-13461805D01*
X5738575Y-13461805D02*
X5757622Y-13452281D01*
X5757622Y-13452281D02*
X5767146Y-13433233D01*
X5767146Y-13433233D02*
X5767146Y-13423710D01*
X5767146Y-13423710D02*
X5757622Y-13404662D01*
X5757622Y-13404662D02*
X5738575Y-13395138D01*
X5738575Y-13395138D02*
X5710003Y-13395138D01*
X5710003Y-13395138D02*
X5690956Y-13385614D01*
X5690956Y-13385614D02*
X5681432Y-13366567D01*
X5681432Y-13366567D02*
X5681432Y-13357043D01*
X5681432Y-13357043D02*
X5690956Y-13337995D01*
X5690956Y-13337995D02*
X5710003Y-13328471D01*
X5710003Y-13328471D02*
X5738575Y-13328471D01*
X5738575Y-13328471D02*
X5757622Y-13337995D01*
X5833813Y-13537995D02*
X5843337Y-13528471D01*
X5843337Y-13528471D02*
X5862384Y-13499900D01*
X5862384Y-13499900D02*
X5871908Y-13480852D01*
X5871908Y-13480852D02*
X5881432Y-13452281D01*
X5881432Y-13452281D02*
X5890956Y-13404662D01*
X5890956Y-13404662D02*
X5890956Y-13366567D01*
X5890956Y-13366567D02*
X5881432Y-13318948D01*
X5881432Y-13318948D02*
X5871908Y-13290376D01*
X5871908Y-13290376D02*
X5862384Y-13271329D01*
X5862384Y-13271329D02*
X5843337Y-13242757D01*
X5843337Y-13242757D02*
X5833813Y-13233233D01*
D16*
X908750Y-13559321D02*
X1058750Y-13709321D01*
X1058750Y-13559321D02*
X908750Y-13709321D01*
X1058750Y-13634321D02*
G75*
G03*
X1058750Y-13634321I-75000J0D01*
G01*
D10*
X1424289Y-13725805D02*
X1310003Y-13725805D01*
X1367146Y-13725805D02*
X1367146Y-13525805D01*
X1367146Y-13525805D02*
X1348098Y-13554376D01*
X1348098Y-13554376D02*
X1329051Y-13573424D01*
X1329051Y-13573424D02*
X1310003Y-13582948D01*
X1510003Y-13706757D02*
X1519527Y-13716281D01*
X1519527Y-13716281D02*
X1510003Y-13725805D01*
X1510003Y-13725805D02*
X1500479Y-13716281D01*
X1500479Y-13716281D02*
X1510003Y-13706757D01*
X1510003Y-13706757D02*
X1510003Y-13725805D01*
X1700479Y-13525805D02*
X1605241Y-13525805D01*
X1605241Y-13525805D02*
X1595717Y-13621043D01*
X1595717Y-13621043D02*
X1605241Y-13611519D01*
X1605241Y-13611519D02*
X1624289Y-13601995D01*
X1624289Y-13601995D02*
X1671908Y-13601995D01*
X1671908Y-13601995D02*
X1690955Y-13611519D01*
X1690955Y-13611519D02*
X1700479Y-13621043D01*
X1700479Y-13621043D02*
X1710003Y-13640091D01*
X1710003Y-13640091D02*
X1710003Y-13687710D01*
X1710003Y-13687710D02*
X1700479Y-13706757D01*
X1700479Y-13706757D02*
X1690955Y-13716281D01*
X1690955Y-13716281D02*
X1671908Y-13725805D01*
X1671908Y-13725805D02*
X1624289Y-13725805D01*
X1624289Y-13725805D02*
X1605241Y-13716281D01*
X1605241Y-13716281D02*
X1595717Y-13706757D01*
X1833812Y-13525805D02*
X1852860Y-13525805D01*
X1852860Y-13525805D02*
X1871908Y-13535329D01*
X1871908Y-13535329D02*
X1881432Y-13544852D01*
X1881432Y-13544852D02*
X1890955Y-13563900D01*
X1890955Y-13563900D02*
X1900479Y-13601995D01*
X1900479Y-13601995D02*
X1900479Y-13649614D01*
X1900479Y-13649614D02*
X1890955Y-13687710D01*
X1890955Y-13687710D02*
X1881432Y-13706757D01*
X1881432Y-13706757D02*
X1871908Y-13716281D01*
X1871908Y-13716281D02*
X1852860Y-13725805D01*
X1852860Y-13725805D02*
X1833812Y-13725805D01*
X1833812Y-13725805D02*
X1814765Y-13716281D01*
X1814765Y-13716281D02*
X1805241Y-13706757D01*
X1805241Y-13706757D02*
X1795717Y-13687710D01*
X1795717Y-13687710D02*
X1786193Y-13649614D01*
X1786193Y-13649614D02*
X1786193Y-13601995D01*
X1786193Y-13601995D02*
X1795717Y-13563900D01*
X1795717Y-13563900D02*
X1805241Y-13544852D01*
X1805241Y-13544852D02*
X1814765Y-13535329D01*
X1814765Y-13535329D02*
X1833812Y-13525805D01*
X2024289Y-13525805D02*
X2043336Y-13525805D01*
X2043336Y-13525805D02*
X2062384Y-13535329D01*
X2062384Y-13535329D02*
X2071908Y-13544852D01*
X2071908Y-13544852D02*
X2081432Y-13563900D01*
X2081432Y-13563900D02*
X2090955Y-13601995D01*
X2090955Y-13601995D02*
X2090955Y-13649614D01*
X2090955Y-13649614D02*
X2081432Y-13687710D01*
X2081432Y-13687710D02*
X2071908Y-13706757D01*
X2071908Y-13706757D02*
X2062384Y-13716281D01*
X2062384Y-13716281D02*
X2043336Y-13725805D01*
X2043336Y-13725805D02*
X2024289Y-13725805D01*
X2024289Y-13725805D02*
X2005241Y-13716281D01*
X2005241Y-13716281D02*
X1995717Y-13706757D01*
X1995717Y-13706757D02*
X1986193Y-13687710D01*
X1986193Y-13687710D02*
X1976670Y-13649614D01*
X1976670Y-13649614D02*
X1976670Y-13601995D01*
X1976670Y-13601995D02*
X1986193Y-13563900D01*
X1986193Y-13563900D02*
X1995717Y-13544852D01*
X1995717Y-13544852D02*
X2005241Y-13535329D01*
X2005241Y-13535329D02*
X2024289Y-13525805D01*
X2176670Y-13725805D02*
X2176670Y-13592471D01*
X2176670Y-13611519D02*
X2186194Y-13601995D01*
X2186194Y-13601995D02*
X2205241Y-13592471D01*
X2205241Y-13592471D02*
X2233813Y-13592471D01*
X2233813Y-13592471D02*
X2252860Y-13601995D01*
X2252860Y-13601995D02*
X2262384Y-13621043D01*
X2262384Y-13621043D02*
X2262384Y-13725805D01*
X2262384Y-13621043D02*
X2271908Y-13601995D01*
X2271908Y-13601995D02*
X2290955Y-13592471D01*
X2290955Y-13592471D02*
X2319527Y-13592471D01*
X2319527Y-13592471D02*
X2338575Y-13601995D01*
X2338575Y-13601995D02*
X2348098Y-13621043D01*
X2348098Y-13621043D02*
X2348098Y-13725805D01*
X2443336Y-13725805D02*
X2443336Y-13592471D01*
X2443336Y-13611519D02*
X2452860Y-13601995D01*
X2452860Y-13601995D02*
X2471908Y-13592471D01*
X2471908Y-13592471D02*
X2500479Y-13592471D01*
X2500479Y-13592471D02*
X2519527Y-13601995D01*
X2519527Y-13601995D02*
X2529051Y-13621043D01*
X2529051Y-13621043D02*
X2529051Y-13725805D01*
X2529051Y-13621043D02*
X2538575Y-13601995D01*
X2538575Y-13601995D02*
X2557622Y-13592471D01*
X2557622Y-13592471D02*
X2586194Y-13592471D01*
X2586194Y-13592471D02*
X2605241Y-13601995D01*
X2605241Y-13601995D02*
X2614765Y-13621043D01*
X2614765Y-13621043D02*
X2614765Y-13725805D01*
X3005241Y-13516281D02*
X2833813Y-13773424D01*
X3262384Y-13525805D02*
X3281432Y-13525805D01*
X3281432Y-13525805D02*
X3300479Y-13535329D01*
X3300479Y-13535329D02*
X3310003Y-13544852D01*
X3310003Y-13544852D02*
X3319527Y-13563900D01*
X3319527Y-13563900D02*
X3329051Y-13601995D01*
X3329051Y-13601995D02*
X3329051Y-13649614D01*
X3329051Y-13649614D02*
X3319527Y-13687710D01*
X3319527Y-13687710D02*
X3310003Y-13706757D01*
X3310003Y-13706757D02*
X3300479Y-13716281D01*
X3300479Y-13716281D02*
X3281432Y-13725805D01*
X3281432Y-13725805D02*
X3262384Y-13725805D01*
X3262384Y-13725805D02*
X3243336Y-13716281D01*
X3243336Y-13716281D02*
X3233813Y-13706757D01*
X3233813Y-13706757D02*
X3224289Y-13687710D01*
X3224289Y-13687710D02*
X3214765Y-13649614D01*
X3214765Y-13649614D02*
X3214765Y-13601995D01*
X3214765Y-13601995D02*
X3224289Y-13563900D01*
X3224289Y-13563900D02*
X3233813Y-13544852D01*
X3233813Y-13544852D02*
X3243336Y-13535329D01*
X3243336Y-13535329D02*
X3262384Y-13525805D01*
X3414765Y-13706757D02*
X3424289Y-13716281D01*
X3424289Y-13716281D02*
X3414765Y-13725805D01*
X3414765Y-13725805D02*
X3405241Y-13716281D01*
X3405241Y-13716281D02*
X3414765Y-13706757D01*
X3414765Y-13706757D02*
X3414765Y-13725805D01*
X3548098Y-13525805D02*
X3567146Y-13525805D01*
X3567146Y-13525805D02*
X3586194Y-13535329D01*
X3586194Y-13535329D02*
X3595717Y-13544852D01*
X3595717Y-13544852D02*
X3605241Y-13563900D01*
X3605241Y-13563900D02*
X3614765Y-13601995D01*
X3614765Y-13601995D02*
X3614765Y-13649614D01*
X3614765Y-13649614D02*
X3605241Y-13687710D01*
X3605241Y-13687710D02*
X3595717Y-13706757D01*
X3595717Y-13706757D02*
X3586194Y-13716281D01*
X3586194Y-13716281D02*
X3567146Y-13725805D01*
X3567146Y-13725805D02*
X3548098Y-13725805D01*
X3548098Y-13725805D02*
X3529051Y-13716281D01*
X3529051Y-13716281D02*
X3519527Y-13706757D01*
X3519527Y-13706757D02*
X3510003Y-13687710D01*
X3510003Y-13687710D02*
X3500479Y-13649614D01*
X3500479Y-13649614D02*
X3500479Y-13601995D01*
X3500479Y-13601995D02*
X3510003Y-13563900D01*
X3510003Y-13563900D02*
X3519527Y-13544852D01*
X3519527Y-13544852D02*
X3529051Y-13535329D01*
X3529051Y-13535329D02*
X3548098Y-13525805D01*
X3795717Y-13525805D02*
X3700479Y-13525805D01*
X3700479Y-13525805D02*
X3690956Y-13621043D01*
X3690956Y-13621043D02*
X3700479Y-13611519D01*
X3700479Y-13611519D02*
X3719527Y-13601995D01*
X3719527Y-13601995D02*
X3767146Y-13601995D01*
X3767146Y-13601995D02*
X3786194Y-13611519D01*
X3786194Y-13611519D02*
X3795717Y-13621043D01*
X3795717Y-13621043D02*
X3805241Y-13640091D01*
X3805241Y-13640091D02*
X3805241Y-13687710D01*
X3805241Y-13687710D02*
X3795717Y-13706757D01*
X3795717Y-13706757D02*
X3786194Y-13716281D01*
X3786194Y-13716281D02*
X3767146Y-13725805D01*
X3767146Y-13725805D02*
X3719527Y-13725805D01*
X3719527Y-13725805D02*
X3700479Y-13716281D01*
X3700479Y-13716281D02*
X3690956Y-13706757D01*
X3900479Y-13725805D02*
X3938575Y-13725805D01*
X3938575Y-13725805D02*
X3957622Y-13716281D01*
X3957622Y-13716281D02*
X3967146Y-13706757D01*
X3967146Y-13706757D02*
X3986194Y-13678186D01*
X3986194Y-13678186D02*
X3995717Y-13640091D01*
X3995717Y-13640091D02*
X3995717Y-13563900D01*
X3995717Y-13563900D02*
X3986194Y-13544852D01*
X3986194Y-13544852D02*
X3976670Y-13535329D01*
X3976670Y-13535329D02*
X3957622Y-13525805D01*
X3957622Y-13525805D02*
X3919527Y-13525805D01*
X3919527Y-13525805D02*
X3900479Y-13535329D01*
X3900479Y-13535329D02*
X3890956Y-13544852D01*
X3890956Y-13544852D02*
X3881432Y-13563900D01*
X3881432Y-13563900D02*
X3881432Y-13611519D01*
X3881432Y-13611519D02*
X3890956Y-13630567D01*
X3890956Y-13630567D02*
X3900479Y-13640091D01*
X3900479Y-13640091D02*
X3919527Y-13649614D01*
X3919527Y-13649614D02*
X3957622Y-13649614D01*
X3957622Y-13649614D02*
X3976670Y-13640091D01*
X3976670Y-13640091D02*
X3986194Y-13630567D01*
X3986194Y-13630567D02*
X3995717Y-13611519D01*
X4186194Y-13725805D02*
X4071908Y-13725805D01*
X4129051Y-13725805D02*
X4129051Y-13525805D01*
X4129051Y-13525805D02*
X4110003Y-13554376D01*
X4110003Y-13554376D02*
X4090956Y-13573424D01*
X4090956Y-13573424D02*
X4071908Y-13582948D01*
X4262384Y-13525805D02*
X4262384Y-13563900D01*
X4338575Y-13525805D02*
X4338575Y-13563900D01*
X4633813Y-13801995D02*
X4624289Y-13792471D01*
X4624289Y-13792471D02*
X4605241Y-13763900D01*
X4605241Y-13763900D02*
X4595718Y-13744852D01*
X4595718Y-13744852D02*
X4586194Y-13716281D01*
X4586194Y-13716281D02*
X4576670Y-13668662D01*
X4576670Y-13668662D02*
X4576670Y-13630567D01*
X4576670Y-13630567D02*
X4586194Y-13582948D01*
X4586194Y-13582948D02*
X4595718Y-13554376D01*
X4595718Y-13554376D02*
X4605241Y-13535329D01*
X4605241Y-13535329D02*
X4624289Y-13506757D01*
X4624289Y-13506757D02*
X4633813Y-13497233D01*
X4748099Y-13525805D02*
X4767146Y-13525805D01*
X4767146Y-13525805D02*
X4786194Y-13535329D01*
X4786194Y-13535329D02*
X4795718Y-13544852D01*
X4795718Y-13544852D02*
X4805241Y-13563900D01*
X4805241Y-13563900D02*
X4814765Y-13601995D01*
X4814765Y-13601995D02*
X4814765Y-13649614D01*
X4814765Y-13649614D02*
X4805241Y-13687710D01*
X4805241Y-13687710D02*
X4795718Y-13706757D01*
X4795718Y-13706757D02*
X4786194Y-13716281D01*
X4786194Y-13716281D02*
X4767146Y-13725805D01*
X4767146Y-13725805D02*
X4748099Y-13725805D01*
X4748099Y-13725805D02*
X4729051Y-13716281D01*
X4729051Y-13716281D02*
X4719527Y-13706757D01*
X4719527Y-13706757D02*
X4710003Y-13687710D01*
X4710003Y-13687710D02*
X4700480Y-13649614D01*
X4700480Y-13649614D02*
X4700480Y-13601995D01*
X4700480Y-13601995D02*
X4710003Y-13563900D01*
X4710003Y-13563900D02*
X4719527Y-13544852D01*
X4719527Y-13544852D02*
X4729051Y-13535329D01*
X4729051Y-13535329D02*
X4748099Y-13525805D01*
X5052861Y-13725805D02*
X5052861Y-13525805D01*
X5138575Y-13725805D02*
X5138575Y-13621043D01*
X5138575Y-13621043D02*
X5129051Y-13601995D01*
X5129051Y-13601995D02*
X5110003Y-13592471D01*
X5110003Y-13592471D02*
X5081432Y-13592471D01*
X5081432Y-13592471D02*
X5062384Y-13601995D01*
X5062384Y-13601995D02*
X5052861Y-13611519D01*
X5262384Y-13725805D02*
X5243337Y-13716281D01*
X5243337Y-13716281D02*
X5233813Y-13706757D01*
X5233813Y-13706757D02*
X5224289Y-13687710D01*
X5224289Y-13687710D02*
X5224289Y-13630567D01*
X5224289Y-13630567D02*
X5233813Y-13611519D01*
X5233813Y-13611519D02*
X5243337Y-13601995D01*
X5243337Y-13601995D02*
X5262384Y-13592471D01*
X5262384Y-13592471D02*
X5290956Y-13592471D01*
X5290956Y-13592471D02*
X5310003Y-13601995D01*
X5310003Y-13601995D02*
X5319527Y-13611519D01*
X5319527Y-13611519D02*
X5329051Y-13630567D01*
X5329051Y-13630567D02*
X5329051Y-13687710D01*
X5329051Y-13687710D02*
X5319527Y-13706757D01*
X5319527Y-13706757D02*
X5310003Y-13716281D01*
X5310003Y-13716281D02*
X5290956Y-13725805D01*
X5290956Y-13725805D02*
X5262384Y-13725805D01*
X5443337Y-13725805D02*
X5424289Y-13716281D01*
X5424289Y-13716281D02*
X5414765Y-13697233D01*
X5414765Y-13697233D02*
X5414765Y-13525805D01*
X5595718Y-13716281D02*
X5576670Y-13725805D01*
X5576670Y-13725805D02*
X5538575Y-13725805D01*
X5538575Y-13725805D02*
X5519527Y-13716281D01*
X5519527Y-13716281D02*
X5510003Y-13697233D01*
X5510003Y-13697233D02*
X5510003Y-13621043D01*
X5510003Y-13621043D02*
X5519527Y-13601995D01*
X5519527Y-13601995D02*
X5538575Y-13592471D01*
X5538575Y-13592471D02*
X5576670Y-13592471D01*
X5576670Y-13592471D02*
X5595718Y-13601995D01*
X5595718Y-13601995D02*
X5605241Y-13621043D01*
X5605241Y-13621043D02*
X5605241Y-13640091D01*
X5605241Y-13640091D02*
X5510003Y-13659138D01*
X5681432Y-13716281D02*
X5700480Y-13725805D01*
X5700480Y-13725805D02*
X5738575Y-13725805D01*
X5738575Y-13725805D02*
X5757622Y-13716281D01*
X5757622Y-13716281D02*
X5767146Y-13697233D01*
X5767146Y-13697233D02*
X5767146Y-13687710D01*
X5767146Y-13687710D02*
X5757622Y-13668662D01*
X5757622Y-13668662D02*
X5738575Y-13659138D01*
X5738575Y-13659138D02*
X5710003Y-13659138D01*
X5710003Y-13659138D02*
X5690956Y-13649614D01*
X5690956Y-13649614D02*
X5681432Y-13630567D01*
X5681432Y-13630567D02*
X5681432Y-13621043D01*
X5681432Y-13621043D02*
X5690956Y-13601995D01*
X5690956Y-13601995D02*
X5710003Y-13592471D01*
X5710003Y-13592471D02*
X5738575Y-13592471D01*
X5738575Y-13592471D02*
X5757622Y-13601995D01*
X6005242Y-13649614D02*
X6157623Y-13649614D01*
X6081432Y-13725805D02*
X6081432Y-13573424D01*
X6490956Y-13592471D02*
X6490956Y-13725805D01*
X6443337Y-13516281D02*
X6395718Y-13659138D01*
X6395718Y-13659138D02*
X6519527Y-13659138D01*
X6738575Y-13716281D02*
X6757623Y-13725805D01*
X6757623Y-13725805D02*
X6795718Y-13725805D01*
X6795718Y-13725805D02*
X6814765Y-13716281D01*
X6814765Y-13716281D02*
X6824289Y-13697233D01*
X6824289Y-13697233D02*
X6824289Y-13687710D01*
X6824289Y-13687710D02*
X6814765Y-13668662D01*
X6814765Y-13668662D02*
X6795718Y-13659138D01*
X6795718Y-13659138D02*
X6767146Y-13659138D01*
X6767146Y-13659138D02*
X6748099Y-13649614D01*
X6748099Y-13649614D02*
X6738575Y-13630567D01*
X6738575Y-13630567D02*
X6738575Y-13621043D01*
X6738575Y-13621043D02*
X6748099Y-13601995D01*
X6748099Y-13601995D02*
X6767146Y-13592471D01*
X6767146Y-13592471D02*
X6795718Y-13592471D01*
X6795718Y-13592471D02*
X6814765Y-13601995D01*
X6938575Y-13725805D02*
X6919527Y-13716281D01*
X6919527Y-13716281D02*
X6910004Y-13697233D01*
X6910004Y-13697233D02*
X6910004Y-13525805D01*
X7043337Y-13725805D02*
X7024289Y-13716281D01*
X7024289Y-13716281D02*
X7014765Y-13706757D01*
X7014765Y-13706757D02*
X7005242Y-13687710D01*
X7005242Y-13687710D02*
X7005242Y-13630567D01*
X7005242Y-13630567D02*
X7014765Y-13611519D01*
X7014765Y-13611519D02*
X7024289Y-13601995D01*
X7024289Y-13601995D02*
X7043337Y-13592471D01*
X7043337Y-13592471D02*
X7071908Y-13592471D01*
X7071908Y-13592471D02*
X7090956Y-13601995D01*
X7090956Y-13601995D02*
X7100480Y-13611519D01*
X7100480Y-13611519D02*
X7110004Y-13630567D01*
X7110004Y-13630567D02*
X7110004Y-13687710D01*
X7110004Y-13687710D02*
X7100480Y-13706757D01*
X7100480Y-13706757D02*
X7090956Y-13716281D01*
X7090956Y-13716281D02*
X7071908Y-13725805D01*
X7071908Y-13725805D02*
X7043337Y-13725805D01*
X7167146Y-13592471D02*
X7243337Y-13592471D01*
X7195718Y-13525805D02*
X7195718Y-13697233D01*
X7195718Y-13697233D02*
X7205242Y-13716281D01*
X7205242Y-13716281D02*
X7224289Y-13725805D01*
X7224289Y-13725805D02*
X7243337Y-13725805D01*
X7300480Y-13716281D02*
X7319527Y-13725805D01*
X7319527Y-13725805D02*
X7357623Y-13725805D01*
X7357623Y-13725805D02*
X7376670Y-13716281D01*
X7376670Y-13716281D02*
X7386194Y-13697233D01*
X7386194Y-13697233D02*
X7386194Y-13687710D01*
X7386194Y-13687710D02*
X7376670Y-13668662D01*
X7376670Y-13668662D02*
X7357623Y-13659138D01*
X7357623Y-13659138D02*
X7329051Y-13659138D01*
X7329051Y-13659138D02*
X7310004Y-13649614D01*
X7310004Y-13649614D02*
X7300480Y-13630567D01*
X7300480Y-13630567D02*
X7300480Y-13621043D01*
X7300480Y-13621043D02*
X7310004Y-13601995D01*
X7310004Y-13601995D02*
X7329051Y-13592471D01*
X7329051Y-13592471D02*
X7357623Y-13592471D01*
X7357623Y-13592471D02*
X7376670Y-13601995D01*
X7452861Y-13801995D02*
X7462385Y-13792471D01*
X7462385Y-13792471D02*
X7481432Y-13763900D01*
X7481432Y-13763900D02*
X7490956Y-13744852D01*
X7490956Y-13744852D02*
X7500480Y-13716281D01*
X7500480Y-13716281D02*
X7510004Y-13668662D01*
X7510004Y-13668662D02*
X7510004Y-13630567D01*
X7510004Y-13630567D02*
X7500480Y-13582948D01*
X7500480Y-13582948D02*
X7490956Y-13554376D01*
X7490956Y-13554376D02*
X7481432Y-13535329D01*
X7481432Y-13535329D02*
X7462385Y-13506757D01*
X7462385Y-13506757D02*
X7452861Y-13497233D01*
X858750Y-13804321D02*
X1058750Y-14004321D01*
X1058750Y-13804321D02*
X858750Y-14004321D01*
X958750Y-13804321D02*
X958750Y-14004321D01*
X858750Y-13904321D02*
X1058750Y-13904321D01*
X1310003Y-13814852D02*
X1319527Y-13805329D01*
X1319527Y-13805329D02*
X1338574Y-13795805D01*
X1338574Y-13795805D02*
X1386194Y-13795805D01*
X1386194Y-13795805D02*
X1405241Y-13805329D01*
X1405241Y-13805329D02*
X1414765Y-13814852D01*
X1414765Y-13814852D02*
X1424289Y-13833900D01*
X1424289Y-13833900D02*
X1424289Y-13852948D01*
X1424289Y-13852948D02*
X1414765Y-13881519D01*
X1414765Y-13881519D02*
X1300479Y-13995805D01*
X1300479Y-13995805D02*
X1424289Y-13995805D01*
X1510003Y-13976757D02*
X1519527Y-13986281D01*
X1519527Y-13986281D02*
X1510003Y-13995805D01*
X1510003Y-13995805D02*
X1500479Y-13986281D01*
X1500479Y-13986281D02*
X1510003Y-13976757D01*
X1510003Y-13976757D02*
X1510003Y-13995805D01*
X1595717Y-13814852D02*
X1605241Y-13805329D01*
X1605241Y-13805329D02*
X1624289Y-13795805D01*
X1624289Y-13795805D02*
X1671908Y-13795805D01*
X1671908Y-13795805D02*
X1690955Y-13805329D01*
X1690955Y-13805329D02*
X1700479Y-13814852D01*
X1700479Y-13814852D02*
X1710003Y-13833900D01*
X1710003Y-13833900D02*
X1710003Y-13852948D01*
X1710003Y-13852948D02*
X1700479Y-13881519D01*
X1700479Y-13881519D02*
X1586193Y-13995805D01*
X1586193Y-13995805D02*
X1710003Y-13995805D01*
X1833812Y-13795805D02*
X1852860Y-13795805D01*
X1852860Y-13795805D02*
X1871908Y-13805329D01*
X1871908Y-13805329D02*
X1881432Y-13814852D01*
X1881432Y-13814852D02*
X1890955Y-13833900D01*
X1890955Y-13833900D02*
X1900479Y-13871995D01*
X1900479Y-13871995D02*
X1900479Y-13919614D01*
X1900479Y-13919614D02*
X1890955Y-13957710D01*
X1890955Y-13957710D02*
X1881432Y-13976757D01*
X1881432Y-13976757D02*
X1871908Y-13986281D01*
X1871908Y-13986281D02*
X1852860Y-13995805D01*
X1852860Y-13995805D02*
X1833812Y-13995805D01*
X1833812Y-13995805D02*
X1814765Y-13986281D01*
X1814765Y-13986281D02*
X1805241Y-13976757D01*
X1805241Y-13976757D02*
X1795717Y-13957710D01*
X1795717Y-13957710D02*
X1786193Y-13919614D01*
X1786193Y-13919614D02*
X1786193Y-13871995D01*
X1786193Y-13871995D02*
X1795717Y-13833900D01*
X1795717Y-13833900D02*
X1805241Y-13814852D01*
X1805241Y-13814852D02*
X1814765Y-13805329D01*
X1814765Y-13805329D02*
X1833812Y-13795805D01*
X2024289Y-13795805D02*
X2043336Y-13795805D01*
X2043336Y-13795805D02*
X2062384Y-13805329D01*
X2062384Y-13805329D02*
X2071908Y-13814852D01*
X2071908Y-13814852D02*
X2081432Y-13833900D01*
X2081432Y-13833900D02*
X2090955Y-13871995D01*
X2090955Y-13871995D02*
X2090955Y-13919614D01*
X2090955Y-13919614D02*
X2081432Y-13957710D01*
X2081432Y-13957710D02*
X2071908Y-13976757D01*
X2071908Y-13976757D02*
X2062384Y-13986281D01*
X2062384Y-13986281D02*
X2043336Y-13995805D01*
X2043336Y-13995805D02*
X2024289Y-13995805D01*
X2024289Y-13995805D02*
X2005241Y-13986281D01*
X2005241Y-13986281D02*
X1995717Y-13976757D01*
X1995717Y-13976757D02*
X1986193Y-13957710D01*
X1986193Y-13957710D02*
X1976670Y-13919614D01*
X1976670Y-13919614D02*
X1976670Y-13871995D01*
X1976670Y-13871995D02*
X1986193Y-13833900D01*
X1986193Y-13833900D02*
X1995717Y-13814852D01*
X1995717Y-13814852D02*
X2005241Y-13805329D01*
X2005241Y-13805329D02*
X2024289Y-13795805D01*
X2176670Y-13995805D02*
X2176670Y-13862471D01*
X2176670Y-13881519D02*
X2186194Y-13871995D01*
X2186194Y-13871995D02*
X2205241Y-13862471D01*
X2205241Y-13862471D02*
X2233813Y-13862471D01*
X2233813Y-13862471D02*
X2252860Y-13871995D01*
X2252860Y-13871995D02*
X2262384Y-13891043D01*
X2262384Y-13891043D02*
X2262384Y-13995805D01*
X2262384Y-13891043D02*
X2271908Y-13871995D01*
X2271908Y-13871995D02*
X2290955Y-13862471D01*
X2290955Y-13862471D02*
X2319527Y-13862471D01*
X2319527Y-13862471D02*
X2338575Y-13871995D01*
X2338575Y-13871995D02*
X2348098Y-13891043D01*
X2348098Y-13891043D02*
X2348098Y-13995805D01*
X2443336Y-13995805D02*
X2443336Y-13862471D01*
X2443336Y-13881519D02*
X2452860Y-13871995D01*
X2452860Y-13871995D02*
X2471908Y-13862471D01*
X2471908Y-13862471D02*
X2500479Y-13862471D01*
X2500479Y-13862471D02*
X2519527Y-13871995D01*
X2519527Y-13871995D02*
X2529051Y-13891043D01*
X2529051Y-13891043D02*
X2529051Y-13995805D01*
X2529051Y-13891043D02*
X2538575Y-13871995D01*
X2538575Y-13871995D02*
X2557622Y-13862471D01*
X2557622Y-13862471D02*
X2586194Y-13862471D01*
X2586194Y-13862471D02*
X2605241Y-13871995D01*
X2605241Y-13871995D02*
X2614765Y-13891043D01*
X2614765Y-13891043D02*
X2614765Y-13995805D01*
X3005241Y-13786281D02*
X2833813Y-14043424D01*
X3262384Y-13795805D02*
X3281432Y-13795805D01*
X3281432Y-13795805D02*
X3300479Y-13805329D01*
X3300479Y-13805329D02*
X3310003Y-13814852D01*
X3310003Y-13814852D02*
X3319527Y-13833900D01*
X3319527Y-13833900D02*
X3329051Y-13871995D01*
X3329051Y-13871995D02*
X3329051Y-13919614D01*
X3329051Y-13919614D02*
X3319527Y-13957710D01*
X3319527Y-13957710D02*
X3310003Y-13976757D01*
X3310003Y-13976757D02*
X3300479Y-13986281D01*
X3300479Y-13986281D02*
X3281432Y-13995805D01*
X3281432Y-13995805D02*
X3262384Y-13995805D01*
X3262384Y-13995805D02*
X3243336Y-13986281D01*
X3243336Y-13986281D02*
X3233813Y-13976757D01*
X3233813Y-13976757D02*
X3224289Y-13957710D01*
X3224289Y-13957710D02*
X3214765Y-13919614D01*
X3214765Y-13919614D02*
X3214765Y-13871995D01*
X3214765Y-13871995D02*
X3224289Y-13833900D01*
X3224289Y-13833900D02*
X3233813Y-13814852D01*
X3233813Y-13814852D02*
X3243336Y-13805329D01*
X3243336Y-13805329D02*
X3262384Y-13795805D01*
X3414765Y-13976757D02*
X3424289Y-13986281D01*
X3424289Y-13986281D02*
X3414765Y-13995805D01*
X3414765Y-13995805D02*
X3405241Y-13986281D01*
X3405241Y-13986281D02*
X3414765Y-13976757D01*
X3414765Y-13976757D02*
X3414765Y-13995805D01*
X3548098Y-13795805D02*
X3567146Y-13795805D01*
X3567146Y-13795805D02*
X3586194Y-13805329D01*
X3586194Y-13805329D02*
X3595717Y-13814852D01*
X3595717Y-13814852D02*
X3605241Y-13833900D01*
X3605241Y-13833900D02*
X3614765Y-13871995D01*
X3614765Y-13871995D02*
X3614765Y-13919614D01*
X3614765Y-13919614D02*
X3605241Y-13957710D01*
X3605241Y-13957710D02*
X3595717Y-13976757D01*
X3595717Y-13976757D02*
X3586194Y-13986281D01*
X3586194Y-13986281D02*
X3567146Y-13995805D01*
X3567146Y-13995805D02*
X3548098Y-13995805D01*
X3548098Y-13995805D02*
X3529051Y-13986281D01*
X3529051Y-13986281D02*
X3519527Y-13976757D01*
X3519527Y-13976757D02*
X3510003Y-13957710D01*
X3510003Y-13957710D02*
X3500479Y-13919614D01*
X3500479Y-13919614D02*
X3500479Y-13871995D01*
X3500479Y-13871995D02*
X3510003Y-13833900D01*
X3510003Y-13833900D02*
X3519527Y-13814852D01*
X3519527Y-13814852D02*
X3529051Y-13805329D01*
X3529051Y-13805329D02*
X3548098Y-13795805D01*
X3729051Y-13881519D02*
X3710003Y-13871995D01*
X3710003Y-13871995D02*
X3700479Y-13862471D01*
X3700479Y-13862471D02*
X3690956Y-13843424D01*
X3690956Y-13843424D02*
X3690956Y-13833900D01*
X3690956Y-13833900D02*
X3700479Y-13814852D01*
X3700479Y-13814852D02*
X3710003Y-13805329D01*
X3710003Y-13805329D02*
X3729051Y-13795805D01*
X3729051Y-13795805D02*
X3767146Y-13795805D01*
X3767146Y-13795805D02*
X3786194Y-13805329D01*
X3786194Y-13805329D02*
X3795717Y-13814852D01*
X3795717Y-13814852D02*
X3805241Y-13833900D01*
X3805241Y-13833900D02*
X3805241Y-13843424D01*
X3805241Y-13843424D02*
X3795717Y-13862471D01*
X3795717Y-13862471D02*
X3786194Y-13871995D01*
X3786194Y-13871995D02*
X3767146Y-13881519D01*
X3767146Y-13881519D02*
X3729051Y-13881519D01*
X3729051Y-13881519D02*
X3710003Y-13891043D01*
X3710003Y-13891043D02*
X3700479Y-13900567D01*
X3700479Y-13900567D02*
X3690956Y-13919614D01*
X3690956Y-13919614D02*
X3690956Y-13957710D01*
X3690956Y-13957710D02*
X3700479Y-13976757D01*
X3700479Y-13976757D02*
X3710003Y-13986281D01*
X3710003Y-13986281D02*
X3729051Y-13995805D01*
X3729051Y-13995805D02*
X3767146Y-13995805D01*
X3767146Y-13995805D02*
X3786194Y-13986281D01*
X3786194Y-13986281D02*
X3795717Y-13976757D01*
X3795717Y-13976757D02*
X3805241Y-13957710D01*
X3805241Y-13957710D02*
X3805241Y-13919614D01*
X3805241Y-13919614D02*
X3795717Y-13900567D01*
X3795717Y-13900567D02*
X3786194Y-13891043D01*
X3786194Y-13891043D02*
X3767146Y-13881519D01*
X3976670Y-13795805D02*
X3938575Y-13795805D01*
X3938575Y-13795805D02*
X3919527Y-13805329D01*
X3919527Y-13805329D02*
X3910003Y-13814852D01*
X3910003Y-13814852D02*
X3890956Y-13843424D01*
X3890956Y-13843424D02*
X3881432Y-13881519D01*
X3881432Y-13881519D02*
X3881432Y-13957710D01*
X3881432Y-13957710D02*
X3890956Y-13976757D01*
X3890956Y-13976757D02*
X3900479Y-13986281D01*
X3900479Y-13986281D02*
X3919527Y-13995805D01*
X3919527Y-13995805D02*
X3957622Y-13995805D01*
X3957622Y-13995805D02*
X3976670Y-13986281D01*
X3976670Y-13986281D02*
X3986194Y-13976757D01*
X3986194Y-13976757D02*
X3995717Y-13957710D01*
X3995717Y-13957710D02*
X3995717Y-13910091D01*
X3995717Y-13910091D02*
X3986194Y-13891043D01*
X3986194Y-13891043D02*
X3976670Y-13881519D01*
X3976670Y-13881519D02*
X3957622Y-13871995D01*
X3957622Y-13871995D02*
X3919527Y-13871995D01*
X3919527Y-13871995D02*
X3900479Y-13881519D01*
X3900479Y-13881519D02*
X3890956Y-13891043D01*
X3890956Y-13891043D02*
X3881432Y-13910091D01*
X4167146Y-13795805D02*
X4129051Y-13795805D01*
X4129051Y-13795805D02*
X4110003Y-13805329D01*
X4110003Y-13805329D02*
X4100479Y-13814852D01*
X4100479Y-13814852D02*
X4081432Y-13843424D01*
X4081432Y-13843424D02*
X4071908Y-13881519D01*
X4071908Y-13881519D02*
X4071908Y-13957710D01*
X4071908Y-13957710D02*
X4081432Y-13976757D01*
X4081432Y-13976757D02*
X4090956Y-13986281D01*
X4090956Y-13986281D02*
X4110003Y-13995805D01*
X4110003Y-13995805D02*
X4148098Y-13995805D01*
X4148098Y-13995805D02*
X4167146Y-13986281D01*
X4167146Y-13986281D02*
X4176670Y-13976757D01*
X4176670Y-13976757D02*
X4186194Y-13957710D01*
X4186194Y-13957710D02*
X4186194Y-13910091D01*
X4186194Y-13910091D02*
X4176670Y-13891043D01*
X4176670Y-13891043D02*
X4167146Y-13881519D01*
X4167146Y-13881519D02*
X4148098Y-13871995D01*
X4148098Y-13871995D02*
X4110003Y-13871995D01*
X4110003Y-13871995D02*
X4090956Y-13881519D01*
X4090956Y-13881519D02*
X4081432Y-13891043D01*
X4081432Y-13891043D02*
X4071908Y-13910091D01*
X4262384Y-13795805D02*
X4262384Y-13833900D01*
X4338575Y-13795805D02*
X4338575Y-13833900D01*
X4633813Y-14071995D02*
X4624289Y-14062471D01*
X4624289Y-14062471D02*
X4605241Y-14033900D01*
X4605241Y-14033900D02*
X4595718Y-14014852D01*
X4595718Y-14014852D02*
X4586194Y-13986281D01*
X4586194Y-13986281D02*
X4576670Y-13938662D01*
X4576670Y-13938662D02*
X4576670Y-13900567D01*
X4576670Y-13900567D02*
X4586194Y-13852948D01*
X4586194Y-13852948D02*
X4595718Y-13824376D01*
X4595718Y-13824376D02*
X4605241Y-13805329D01*
X4605241Y-13805329D02*
X4624289Y-13776757D01*
X4624289Y-13776757D02*
X4633813Y-13767233D01*
X4738575Y-13881519D02*
X4719527Y-13871995D01*
X4719527Y-13871995D02*
X4710003Y-13862471D01*
X4710003Y-13862471D02*
X4700480Y-13843424D01*
X4700480Y-13843424D02*
X4700480Y-13833900D01*
X4700480Y-13833900D02*
X4710003Y-13814852D01*
X4710003Y-13814852D02*
X4719527Y-13805329D01*
X4719527Y-13805329D02*
X4738575Y-13795805D01*
X4738575Y-13795805D02*
X4776670Y-13795805D01*
X4776670Y-13795805D02*
X4795718Y-13805329D01*
X4795718Y-13805329D02*
X4805241Y-13814852D01*
X4805241Y-13814852D02*
X4814765Y-13833900D01*
X4814765Y-13833900D02*
X4814765Y-13843424D01*
X4814765Y-13843424D02*
X4805241Y-13862471D01*
X4805241Y-13862471D02*
X4795718Y-13871995D01*
X4795718Y-13871995D02*
X4776670Y-13881519D01*
X4776670Y-13881519D02*
X4738575Y-13881519D01*
X4738575Y-13881519D02*
X4719527Y-13891043D01*
X4719527Y-13891043D02*
X4710003Y-13900567D01*
X4710003Y-13900567D02*
X4700480Y-13919614D01*
X4700480Y-13919614D02*
X4700480Y-13957710D01*
X4700480Y-13957710D02*
X4710003Y-13976757D01*
X4710003Y-13976757D02*
X4719527Y-13986281D01*
X4719527Y-13986281D02*
X4738575Y-13995805D01*
X4738575Y-13995805D02*
X4776670Y-13995805D01*
X4776670Y-13995805D02*
X4795718Y-13986281D01*
X4795718Y-13986281D02*
X4805241Y-13976757D01*
X4805241Y-13976757D02*
X4814765Y-13957710D01*
X4814765Y-13957710D02*
X4814765Y-13919614D01*
X4814765Y-13919614D02*
X4805241Y-13900567D01*
X4805241Y-13900567D02*
X4795718Y-13891043D01*
X4795718Y-13891043D02*
X4776670Y-13881519D01*
X5052861Y-13995805D02*
X5052861Y-13795805D01*
X5138575Y-13995805D02*
X5138575Y-13891043D01*
X5138575Y-13891043D02*
X5129051Y-13871995D01*
X5129051Y-13871995D02*
X5110003Y-13862471D01*
X5110003Y-13862471D02*
X5081432Y-13862471D01*
X5081432Y-13862471D02*
X5062384Y-13871995D01*
X5062384Y-13871995D02*
X5052861Y-13881519D01*
X5262384Y-13995805D02*
X5243337Y-13986281D01*
X5243337Y-13986281D02*
X5233813Y-13976757D01*
X5233813Y-13976757D02*
X5224289Y-13957710D01*
X5224289Y-13957710D02*
X5224289Y-13900567D01*
X5224289Y-13900567D02*
X5233813Y-13881519D01*
X5233813Y-13881519D02*
X5243337Y-13871995D01*
X5243337Y-13871995D02*
X5262384Y-13862471D01*
X5262384Y-13862471D02*
X5290956Y-13862471D01*
X5290956Y-13862471D02*
X5310003Y-13871995D01*
X5310003Y-13871995D02*
X5319527Y-13881519D01*
X5319527Y-13881519D02*
X5329051Y-13900567D01*
X5329051Y-13900567D02*
X5329051Y-13957710D01*
X5329051Y-13957710D02*
X5319527Y-13976757D01*
X5319527Y-13976757D02*
X5310003Y-13986281D01*
X5310003Y-13986281D02*
X5290956Y-13995805D01*
X5290956Y-13995805D02*
X5262384Y-13995805D01*
X5443337Y-13995805D02*
X5424289Y-13986281D01*
X5424289Y-13986281D02*
X5414765Y-13967233D01*
X5414765Y-13967233D02*
X5414765Y-13795805D01*
X5595718Y-13986281D02*
X5576670Y-13995805D01*
X5576670Y-13995805D02*
X5538575Y-13995805D01*
X5538575Y-13995805D02*
X5519527Y-13986281D01*
X5519527Y-13986281D02*
X5510003Y-13967233D01*
X5510003Y-13967233D02*
X5510003Y-13891043D01*
X5510003Y-13891043D02*
X5519527Y-13871995D01*
X5519527Y-13871995D02*
X5538575Y-13862471D01*
X5538575Y-13862471D02*
X5576670Y-13862471D01*
X5576670Y-13862471D02*
X5595718Y-13871995D01*
X5595718Y-13871995D02*
X5605241Y-13891043D01*
X5605241Y-13891043D02*
X5605241Y-13910091D01*
X5605241Y-13910091D02*
X5510003Y-13929138D01*
X5681432Y-13986281D02*
X5700480Y-13995805D01*
X5700480Y-13995805D02*
X5738575Y-13995805D01*
X5738575Y-13995805D02*
X5757622Y-13986281D01*
X5757622Y-13986281D02*
X5767146Y-13967233D01*
X5767146Y-13967233D02*
X5767146Y-13957710D01*
X5767146Y-13957710D02*
X5757622Y-13938662D01*
X5757622Y-13938662D02*
X5738575Y-13929138D01*
X5738575Y-13929138D02*
X5710003Y-13929138D01*
X5710003Y-13929138D02*
X5690956Y-13919614D01*
X5690956Y-13919614D02*
X5681432Y-13900567D01*
X5681432Y-13900567D02*
X5681432Y-13891043D01*
X5681432Y-13891043D02*
X5690956Y-13871995D01*
X5690956Y-13871995D02*
X5710003Y-13862471D01*
X5710003Y-13862471D02*
X5738575Y-13862471D01*
X5738575Y-13862471D02*
X5757622Y-13871995D01*
X5833813Y-14071995D02*
X5843337Y-14062471D01*
X5843337Y-14062471D02*
X5862384Y-14033900D01*
X5862384Y-14033900D02*
X5871908Y-14014852D01*
X5871908Y-14014852D02*
X5881432Y-13986281D01*
X5881432Y-13986281D02*
X5890956Y-13938662D01*
X5890956Y-13938662D02*
X5890956Y-13900567D01*
X5890956Y-13900567D02*
X5881432Y-13852948D01*
X5881432Y-13852948D02*
X5871908Y-13824376D01*
X5871908Y-13824376D02*
X5862384Y-13805329D01*
X5862384Y-13805329D02*
X5843337Y-13776757D01*
X5843337Y-13776757D02*
X5833813Y-13767233D01*
X858750Y-14124321D02*
X1058750Y-14324321D01*
X1058750Y-14124321D02*
X858750Y-14324321D01*
X1029461Y-14295032D02*
X1029461Y-14153610D01*
X888039Y-14153610D01*
X888039Y-14295032D01*
X1029461Y-14295032D01*
X1405241Y-14115805D02*
X1367146Y-14115805D01*
X1367146Y-14115805D02*
X1348098Y-14125329D01*
X1348098Y-14125329D02*
X1338574Y-14134852D01*
X1338574Y-14134852D02*
X1319527Y-14163424D01*
X1319527Y-14163424D02*
X1310003Y-14201519D01*
X1310003Y-14201519D02*
X1310003Y-14277710D01*
X1310003Y-14277710D02*
X1319527Y-14296757D01*
X1319527Y-14296757D02*
X1329051Y-14306281D01*
X1329051Y-14306281D02*
X1348098Y-14315805D01*
X1348098Y-14315805D02*
X1386194Y-14315805D01*
X1386194Y-14315805D02*
X1405241Y-14306281D01*
X1405241Y-14306281D02*
X1414765Y-14296757D01*
X1414765Y-14296757D02*
X1424289Y-14277710D01*
X1424289Y-14277710D02*
X1424289Y-14230091D01*
X1424289Y-14230091D02*
X1414765Y-14211043D01*
X1414765Y-14211043D02*
X1405241Y-14201519D01*
X1405241Y-14201519D02*
X1386194Y-14191995D01*
X1386194Y-14191995D02*
X1348098Y-14191995D01*
X1348098Y-14191995D02*
X1329051Y-14201519D01*
X1329051Y-14201519D02*
X1319527Y-14211043D01*
X1319527Y-14211043D02*
X1310003Y-14230091D01*
X1510003Y-14296757D02*
X1519527Y-14306281D01*
X1519527Y-14306281D02*
X1510003Y-14315805D01*
X1510003Y-14315805D02*
X1500479Y-14306281D01*
X1500479Y-14306281D02*
X1510003Y-14296757D01*
X1510003Y-14296757D02*
X1510003Y-14315805D01*
X1595717Y-14134852D02*
X1605241Y-14125329D01*
X1605241Y-14125329D02*
X1624289Y-14115805D01*
X1624289Y-14115805D02*
X1671908Y-14115805D01*
X1671908Y-14115805D02*
X1690955Y-14125329D01*
X1690955Y-14125329D02*
X1700479Y-14134852D01*
X1700479Y-14134852D02*
X1710003Y-14153900D01*
X1710003Y-14153900D02*
X1710003Y-14172948D01*
X1710003Y-14172948D02*
X1700479Y-14201519D01*
X1700479Y-14201519D02*
X1586193Y-14315805D01*
X1586193Y-14315805D02*
X1710003Y-14315805D01*
X1833812Y-14115805D02*
X1852860Y-14115805D01*
X1852860Y-14115805D02*
X1871908Y-14125329D01*
X1871908Y-14125329D02*
X1881432Y-14134852D01*
X1881432Y-14134852D02*
X1890955Y-14153900D01*
X1890955Y-14153900D02*
X1900479Y-14191995D01*
X1900479Y-14191995D02*
X1900479Y-14239614D01*
X1900479Y-14239614D02*
X1890955Y-14277710D01*
X1890955Y-14277710D02*
X1881432Y-14296757D01*
X1881432Y-14296757D02*
X1871908Y-14306281D01*
X1871908Y-14306281D02*
X1852860Y-14315805D01*
X1852860Y-14315805D02*
X1833812Y-14315805D01*
X1833812Y-14315805D02*
X1814765Y-14306281D01*
X1814765Y-14306281D02*
X1805241Y-14296757D01*
X1805241Y-14296757D02*
X1795717Y-14277710D01*
X1795717Y-14277710D02*
X1786193Y-14239614D01*
X1786193Y-14239614D02*
X1786193Y-14191995D01*
X1786193Y-14191995D02*
X1795717Y-14153900D01*
X1795717Y-14153900D02*
X1805241Y-14134852D01*
X1805241Y-14134852D02*
X1814765Y-14125329D01*
X1814765Y-14125329D02*
X1833812Y-14115805D01*
X2024289Y-14115805D02*
X2043336Y-14115805D01*
X2043336Y-14115805D02*
X2062384Y-14125329D01*
X2062384Y-14125329D02*
X2071908Y-14134852D01*
X2071908Y-14134852D02*
X2081432Y-14153900D01*
X2081432Y-14153900D02*
X2090955Y-14191995D01*
X2090955Y-14191995D02*
X2090955Y-14239614D01*
X2090955Y-14239614D02*
X2081432Y-14277710D01*
X2081432Y-14277710D02*
X2071908Y-14296757D01*
X2071908Y-14296757D02*
X2062384Y-14306281D01*
X2062384Y-14306281D02*
X2043336Y-14315805D01*
X2043336Y-14315805D02*
X2024289Y-14315805D01*
X2024289Y-14315805D02*
X2005241Y-14306281D01*
X2005241Y-14306281D02*
X1995717Y-14296757D01*
X1995717Y-14296757D02*
X1986193Y-14277710D01*
X1986193Y-14277710D02*
X1976670Y-14239614D01*
X1976670Y-14239614D02*
X1976670Y-14191995D01*
X1976670Y-14191995D02*
X1986193Y-14153900D01*
X1986193Y-14153900D02*
X1995717Y-14134852D01*
X1995717Y-14134852D02*
X2005241Y-14125329D01*
X2005241Y-14125329D02*
X2024289Y-14115805D01*
X2176670Y-14315805D02*
X2176670Y-14182471D01*
X2176670Y-14201519D02*
X2186194Y-14191995D01*
X2186194Y-14191995D02*
X2205241Y-14182471D01*
X2205241Y-14182471D02*
X2233813Y-14182471D01*
X2233813Y-14182471D02*
X2252860Y-14191995D01*
X2252860Y-14191995D02*
X2262384Y-14211043D01*
X2262384Y-14211043D02*
X2262384Y-14315805D01*
X2262384Y-14211043D02*
X2271908Y-14191995D01*
X2271908Y-14191995D02*
X2290955Y-14182471D01*
X2290955Y-14182471D02*
X2319527Y-14182471D01*
X2319527Y-14182471D02*
X2338575Y-14191995D01*
X2338575Y-14191995D02*
X2348098Y-14211043D01*
X2348098Y-14211043D02*
X2348098Y-14315805D01*
X2443336Y-14315805D02*
X2443336Y-14182471D01*
X2443336Y-14201519D02*
X2452860Y-14191995D01*
X2452860Y-14191995D02*
X2471908Y-14182471D01*
X2471908Y-14182471D02*
X2500479Y-14182471D01*
X2500479Y-14182471D02*
X2519527Y-14191995D01*
X2519527Y-14191995D02*
X2529051Y-14211043D01*
X2529051Y-14211043D02*
X2529051Y-14315805D01*
X2529051Y-14211043D02*
X2538575Y-14191995D01*
X2538575Y-14191995D02*
X2557622Y-14182471D01*
X2557622Y-14182471D02*
X2586194Y-14182471D01*
X2586194Y-14182471D02*
X2605241Y-14191995D01*
X2605241Y-14191995D02*
X2614765Y-14211043D01*
X2614765Y-14211043D02*
X2614765Y-14315805D01*
X3005241Y-14106281D02*
X2833813Y-14363424D01*
X3262384Y-14115805D02*
X3281432Y-14115805D01*
X3281432Y-14115805D02*
X3300479Y-14125329D01*
X3300479Y-14125329D02*
X3310003Y-14134852D01*
X3310003Y-14134852D02*
X3319527Y-14153900D01*
X3319527Y-14153900D02*
X3329051Y-14191995D01*
X3329051Y-14191995D02*
X3329051Y-14239614D01*
X3329051Y-14239614D02*
X3319527Y-14277710D01*
X3319527Y-14277710D02*
X3310003Y-14296757D01*
X3310003Y-14296757D02*
X3300479Y-14306281D01*
X3300479Y-14306281D02*
X3281432Y-14315805D01*
X3281432Y-14315805D02*
X3262384Y-14315805D01*
X3262384Y-14315805D02*
X3243336Y-14306281D01*
X3243336Y-14306281D02*
X3233813Y-14296757D01*
X3233813Y-14296757D02*
X3224289Y-14277710D01*
X3224289Y-14277710D02*
X3214765Y-14239614D01*
X3214765Y-14239614D02*
X3214765Y-14191995D01*
X3214765Y-14191995D02*
X3224289Y-14153900D01*
X3224289Y-14153900D02*
X3233813Y-14134852D01*
X3233813Y-14134852D02*
X3243336Y-14125329D01*
X3243336Y-14125329D02*
X3262384Y-14115805D01*
X3414765Y-14296757D02*
X3424289Y-14306281D01*
X3424289Y-14306281D02*
X3414765Y-14315805D01*
X3414765Y-14315805D02*
X3405241Y-14306281D01*
X3405241Y-14306281D02*
X3414765Y-14296757D01*
X3414765Y-14296757D02*
X3414765Y-14315805D01*
X3500479Y-14134852D02*
X3510003Y-14125329D01*
X3510003Y-14125329D02*
X3529051Y-14115805D01*
X3529051Y-14115805D02*
X3576670Y-14115805D01*
X3576670Y-14115805D02*
X3595717Y-14125329D01*
X3595717Y-14125329D02*
X3605241Y-14134852D01*
X3605241Y-14134852D02*
X3614765Y-14153900D01*
X3614765Y-14153900D02*
X3614765Y-14172948D01*
X3614765Y-14172948D02*
X3605241Y-14201519D01*
X3605241Y-14201519D02*
X3490956Y-14315805D01*
X3490956Y-14315805D02*
X3614765Y-14315805D01*
X3786194Y-14182471D02*
X3786194Y-14315805D01*
X3738575Y-14106281D02*
X3690956Y-14249138D01*
X3690956Y-14249138D02*
X3814765Y-14249138D01*
X3976670Y-14182471D02*
X3976670Y-14315805D01*
X3929051Y-14106281D02*
X3881432Y-14249138D01*
X3881432Y-14249138D02*
X4005241Y-14249138D01*
X4186194Y-14315805D02*
X4071908Y-14315805D01*
X4129051Y-14315805D02*
X4129051Y-14115805D01*
X4129051Y-14115805D02*
X4110003Y-14144376D01*
X4110003Y-14144376D02*
X4090956Y-14163424D01*
X4090956Y-14163424D02*
X4071908Y-14172948D01*
X4262384Y-14115805D02*
X4262384Y-14153900D01*
X4338575Y-14115805D02*
X4338575Y-14153900D01*
X4633813Y-14391995D02*
X4624289Y-14382471D01*
X4624289Y-14382471D02*
X4605241Y-14353900D01*
X4605241Y-14353900D02*
X4595718Y-14334852D01*
X4595718Y-14334852D02*
X4586194Y-14306281D01*
X4586194Y-14306281D02*
X4576670Y-14258662D01*
X4576670Y-14258662D02*
X4576670Y-14220567D01*
X4576670Y-14220567D02*
X4586194Y-14172948D01*
X4586194Y-14172948D02*
X4595718Y-14144376D01*
X4595718Y-14144376D02*
X4605241Y-14125329D01*
X4605241Y-14125329D02*
X4624289Y-14096757D01*
X4624289Y-14096757D02*
X4633813Y-14087233D01*
X4700480Y-14134852D02*
X4710003Y-14125329D01*
X4710003Y-14125329D02*
X4729051Y-14115805D01*
X4729051Y-14115805D02*
X4776670Y-14115805D01*
X4776670Y-14115805D02*
X4795718Y-14125329D01*
X4795718Y-14125329D02*
X4805241Y-14134852D01*
X4805241Y-14134852D02*
X4814765Y-14153900D01*
X4814765Y-14153900D02*
X4814765Y-14172948D01*
X4814765Y-14172948D02*
X4805241Y-14201519D01*
X4805241Y-14201519D02*
X4690956Y-14315805D01*
X4690956Y-14315805D02*
X4814765Y-14315805D01*
X5052861Y-14315805D02*
X5052861Y-14115805D01*
X5138575Y-14315805D02*
X5138575Y-14211043D01*
X5138575Y-14211043D02*
X5129051Y-14191995D01*
X5129051Y-14191995D02*
X5110003Y-14182471D01*
X5110003Y-14182471D02*
X5081432Y-14182471D01*
X5081432Y-14182471D02*
X5062384Y-14191995D01*
X5062384Y-14191995D02*
X5052861Y-14201519D01*
X5262384Y-14315805D02*
X5243337Y-14306281D01*
X5243337Y-14306281D02*
X5233813Y-14296757D01*
X5233813Y-14296757D02*
X5224289Y-14277710D01*
X5224289Y-14277710D02*
X5224289Y-14220567D01*
X5224289Y-14220567D02*
X5233813Y-14201519D01*
X5233813Y-14201519D02*
X5243337Y-14191995D01*
X5243337Y-14191995D02*
X5262384Y-14182471D01*
X5262384Y-14182471D02*
X5290956Y-14182471D01*
X5290956Y-14182471D02*
X5310003Y-14191995D01*
X5310003Y-14191995D02*
X5319527Y-14201519D01*
X5319527Y-14201519D02*
X5329051Y-14220567D01*
X5329051Y-14220567D02*
X5329051Y-14277710D01*
X5329051Y-14277710D02*
X5319527Y-14296757D01*
X5319527Y-14296757D02*
X5310003Y-14306281D01*
X5310003Y-14306281D02*
X5290956Y-14315805D01*
X5290956Y-14315805D02*
X5262384Y-14315805D01*
X5443337Y-14315805D02*
X5424289Y-14306281D01*
X5424289Y-14306281D02*
X5414765Y-14287233D01*
X5414765Y-14287233D02*
X5414765Y-14115805D01*
X5595718Y-14306281D02*
X5576670Y-14315805D01*
X5576670Y-14315805D02*
X5538575Y-14315805D01*
X5538575Y-14315805D02*
X5519527Y-14306281D01*
X5519527Y-14306281D02*
X5510003Y-14287233D01*
X5510003Y-14287233D02*
X5510003Y-14211043D01*
X5510003Y-14211043D02*
X5519527Y-14191995D01*
X5519527Y-14191995D02*
X5538575Y-14182471D01*
X5538575Y-14182471D02*
X5576670Y-14182471D01*
X5576670Y-14182471D02*
X5595718Y-14191995D01*
X5595718Y-14191995D02*
X5605241Y-14211043D01*
X5605241Y-14211043D02*
X5605241Y-14230091D01*
X5605241Y-14230091D02*
X5510003Y-14249138D01*
X5681432Y-14306281D02*
X5700480Y-14315805D01*
X5700480Y-14315805D02*
X5738575Y-14315805D01*
X5738575Y-14315805D02*
X5757622Y-14306281D01*
X5757622Y-14306281D02*
X5767146Y-14287233D01*
X5767146Y-14287233D02*
X5767146Y-14277710D01*
X5767146Y-14277710D02*
X5757622Y-14258662D01*
X5757622Y-14258662D02*
X5738575Y-14249138D01*
X5738575Y-14249138D02*
X5710003Y-14249138D01*
X5710003Y-14249138D02*
X5690956Y-14239614D01*
X5690956Y-14239614D02*
X5681432Y-14220567D01*
X5681432Y-14220567D02*
X5681432Y-14211043D01*
X5681432Y-14211043D02*
X5690956Y-14191995D01*
X5690956Y-14191995D02*
X5710003Y-14182471D01*
X5710003Y-14182471D02*
X5738575Y-14182471D01*
X5738575Y-14182471D02*
X5757622Y-14191995D01*
X5833813Y-14391995D02*
X5843337Y-14382471D01*
X5843337Y-14382471D02*
X5862384Y-14353900D01*
X5862384Y-14353900D02*
X5871908Y-14334852D01*
X5871908Y-14334852D02*
X5881432Y-14306281D01*
X5881432Y-14306281D02*
X5890956Y-14258662D01*
X5890956Y-14258662D02*
X5890956Y-14220567D01*
X5890956Y-14220567D02*
X5881432Y-14172948D01*
X5881432Y-14172948D02*
X5871908Y-14144376D01*
X5871908Y-14144376D02*
X5862384Y-14125329D01*
X5862384Y-14125329D02*
X5843337Y-14096757D01*
X5843337Y-14096757D02*
X5833813Y-14087233D01*
M02*
