M48
; DRILL file {KiCad 7.0.7} date Tue Sep 12 00:09:26 2023
; FORMAT={-:-/ absolute / inch / decimal}
; #@! TF.CreationDate,2023-09-12T00:09:26-04:00
; #@! TF.GenerationSoftware,Kicad,Pcbnew,7.0.7
; #@! TF.FileFunction,NonPlated,1,2,NPTH
FMAT,2
INCH
; #@! TA.AperFunction,NonPlated,NPTH,ComponentDrill
T1C0.0118
; #@! TA.AperFunction,NonPlated,NPTH,ComponentDrill
T2C0.0748
; #@! TA.AperFunction,NonPlated,NPTH,ComponentDrill
T3C0.0866
; #@! TA.AperFunction,NonPlated,NPTH,ComponentDrill
T4C0.1181
; #@! TA.AperFunction,NonPlated,NPTH,ComponentDrill
T5C0.1614
; #@! TA.AperFunction,NonPlated,NPTH,ComponentDrill
T6C0.1693
%
G90
G05
T1
X0.7003Y-3.2356
X0.7237Y-3.2356
X0.747Y-3.2356
X0.7704Y-3.2356
X0.7938Y-3.2356
X0.8172Y-3.2356
X0.8406Y-3.2356
X0.8639Y-3.2356
X0.8873Y-3.2356
X1.5649Y-3.2357
X1.5883Y-3.2357
X1.6117Y-3.2357
X1.635Y-3.2357
X1.6584Y-3.2357
X1.6818Y-3.2357
X1.7052Y-3.2357
X1.7285Y-3.2357
X1.7519Y-3.2357
X2.1993Y-0.8219
X2.2227Y-0.8219
X2.246Y-0.8219
X2.2694Y-0.8219
X2.2928Y-0.8219
X2.3162Y-0.8219
X2.3395Y-0.8219
X2.3629Y-0.8219
X2.3863Y-0.8219
X3.6942Y-0.8221
X3.7176Y-0.8221
X3.7409Y-0.8221
X3.7643Y-0.8221
X3.7877Y-0.8221
X3.8111Y-0.8221
X3.8344Y-0.8221
X3.8578Y-0.8221
X3.8812Y-0.8221
X7.8095Y-0.8226
X7.8329Y-0.8226
X7.8563Y-0.8226
X7.8797Y-0.8226
X7.9031Y-0.8226
X7.9264Y-0.8226
X7.9498Y-0.8226
X7.9732Y-0.8226
X7.9966Y-0.8226
X9.3021Y-0.822
X9.3255Y-0.822
X9.3489Y-0.822
X9.3723Y-0.822
X9.3956Y-0.822
X9.419Y-0.822
X9.4424Y-0.822
X9.4658Y-0.822
X9.4892Y-0.822
X9.9357Y-3.2363
X9.9591Y-3.2363
X9.9824Y-3.2363
X10.0058Y-3.2363
X10.0292Y-3.2363
X10.0526Y-3.2363
X10.0759Y-3.2363
X10.0993Y-3.2363
X10.1227Y-3.2363
X10.7984Y-3.2359
X10.8218Y-3.2359
X10.8452Y-3.2359
X10.8686Y-3.2359
X10.8919Y-3.2359
X10.9153Y-3.2359
X10.9387Y-3.2359
X10.9621Y-3.2359
X10.9855Y-3.2359
T2
X0.5916Y-1.3696
X0.5916Y-2.1176
X0.5916Y-2.8657
X0.9916Y-1.3696
X0.9916Y-2.1176
X0.9916Y-2.8657
X1.3397Y-1.3696
X1.3397Y-2.1176
X1.3397Y-2.8657
X1.7397Y-1.3696
X1.7397Y-2.1176
X1.7397Y-2.8657
X2.0877Y-1.1826
X2.0877Y-1.9306
X2.0877Y-2.6787
X2.4877Y-1.1826
X2.4877Y-1.9306
X2.4877Y-2.6787
X2.8357Y-1.0891
X2.8357Y-1.8371
X2.8357Y-2.5852
X3.2097Y-3.4513
X3.2357Y-1.0891
X3.2357Y-1.8371
X3.2357Y-2.5852
X3.5838Y-1.1826
X3.5838Y-1.9306
X3.5838Y-2.6787
X3.6097Y-3.4513
X3.9838Y-1.1826
X3.9838Y-1.9306
X3.9838Y-2.6787
X4.0433Y-3.5078
X4.3318Y-1.2761
X4.3318Y-2.0241
X4.3318Y-2.7722
X4.4297Y-3.6113
X4.7318Y-1.2761
X4.7318Y-2.0241
X4.7318Y-2.7722
X5.0125Y-3.8804
X5.2125Y-3.534
X6.4695Y-3.5338
X6.6695Y-3.8802
X6.9499Y-1.2761
X6.9502Y-2.0239
X6.9502Y-2.772
X7.2523Y-3.6111
X7.3499Y-1.2761
X7.3502Y-2.0239
X7.3502Y-2.772
X7.6386Y-3.5076
X7.6982Y-1.1824
X7.6982Y-1.9304
X7.6982Y-2.6785
X8.0722Y-3.4511
X8.0982Y-1.1824
X8.0982Y-1.9304
X8.0982Y-2.6785
X8.4462Y-1.0889
X8.4462Y-2.585
X8.4463Y-1.8383
X8.4722Y-3.4511
X8.8462Y-1.0889
X8.8462Y-2.585
X8.8463Y-1.8383
X9.1943Y-1.1824
X9.1943Y-1.9304
X9.1943Y-2.6785
X9.5943Y-1.1824
X9.5943Y-1.9304
X9.5943Y-2.6785
X9.9423Y-1.3694
X9.9423Y-2.1174
X9.9423Y-2.8655
X10.3423Y-1.3694
X10.3423Y-2.1174
X10.3423Y-2.8655
X10.6903Y-1.3694
X10.6903Y-2.1174
X10.6903Y-2.8655
X11.0903Y-1.3694
X11.0903Y-2.1174
X11.0903Y-2.8655
T3
X5.0342Y-2.8843
X5.6024Y-3.2198
X6.0795Y-3.2202
X6.6477Y-2.8847
T4
X0.6416Y-1.2696
X0.6416Y-2.0176
X0.6416Y-2.7657
X0.8916Y-1.1696
X0.8916Y-1.9176
X0.8916Y-2.6657
X1.3897Y-1.2696
X1.3897Y-2.0176
X1.3897Y-2.7657
X1.6397Y-1.1696
X1.6397Y-1.9176
X1.6397Y-2.6657
X2.1377Y-1.0826
X2.1377Y-1.8306
X2.1377Y-2.5787
X2.3877Y-0.9826
X2.3877Y-1.7306
X2.3877Y-2.4787
X2.8857Y-0.9891
X2.8857Y-1.7371
X2.8857Y-2.4852
X3.1357Y-0.8891
X3.1357Y-1.6371
X3.1357Y-2.3852
X3.2597Y-3.3513
X3.5097Y-3.2513
X3.6338Y-1.0826
X3.6338Y-1.8306
X3.6338Y-2.5787
X3.8838Y-0.9826
X3.8838Y-1.7306
X3.8838Y-2.4787
X4.1175Y-3.4242
X4.3818Y-1.1761
X4.3818Y-1.9241
X4.3818Y-2.6722
X4.3849Y-3.3923
X4.6318Y-1.0761
X4.6318Y-1.8241
X4.6318Y-2.5722
X4.9509Y-3.7871
X4.9893Y-3.5206
X6.5811Y-3.5271
X6.7927Y-3.6936
X6.9999Y-1.1761
X7.0002Y-1.9239
X7.0002Y-2.672
X7.2499Y-1.0761
X7.2502Y-1.8239
X7.2502Y-2.572
X7.2747Y-3.5016
X7.4903Y-3.3403
X7.7482Y-1.0824
X7.7482Y-1.8304
X7.7482Y-2.5785
X7.9982Y-0.9824
X7.9982Y-1.7304
X7.9982Y-2.4785
X8.1222Y-3.3511
X8.3722Y-3.2511
X8.4962Y-0.9889
X8.4962Y-2.485
X8.4963Y-1.7383
X8.7462Y-0.8889
X8.7462Y-2.385
X8.7463Y-1.6383
X9.2443Y-1.0824
X9.2443Y-1.8304
X9.2443Y-2.5785
X9.4943Y-0.9824
X9.4943Y-1.7304
X9.4943Y-2.4785
X9.9923Y-1.2694
X9.9923Y-2.0174
X9.9923Y-2.7655
X10.2423Y-1.1694
X10.2423Y-1.9174
X10.2423Y-2.6655
X10.7403Y-1.2694
X10.7403Y-2.0174
X10.7403Y-2.7655
X10.9903Y-1.1694
X10.9903Y-1.9174
X10.9903Y-2.6655
T5
X0.7916Y-1.3696
X0.7916Y-2.1176
X0.7916Y-2.8657
X1.5397Y-1.3696
X1.5397Y-2.1176
X1.5397Y-2.8657
X2.2877Y-1.1826
X2.2877Y-1.9306
X2.2877Y-2.6787
X3.0357Y-1.0891
X3.0357Y-1.8371
X3.0357Y-2.5852
X3.4097Y-3.4513
X3.7838Y-1.1826
X3.7838Y-1.9306
X3.7838Y-2.6787
X4.2365Y-3.5596
X4.5318Y-1.2761
X4.5318Y-2.0241
X4.5318Y-2.7722
X5.1125Y-3.7072
X6.5695Y-3.707
X7.1499Y-1.2761
X7.1502Y-2.0239
X7.1502Y-2.772
X7.4455Y-3.5594
X7.8982Y-1.1824
X7.8982Y-1.9304
X7.8982Y-2.6785
X8.2722Y-3.4511
X8.6462Y-1.0889
X8.6462Y-2.585
X8.6463Y-1.8383
X9.3943Y-1.1824
X9.3943Y-1.9304
X9.3943Y-2.6785
X10.1423Y-1.3694
X10.1423Y-2.1174
X10.1423Y-2.8655
X10.8903Y-1.3694
X10.8903Y-2.1174
X10.8903Y-2.8655
T6
X1.1656Y-1.7436
X1.1656Y-2.4917
X2.1147Y-3.2254
X4.1565Y-1.6053
X4.6981Y-3.4702
X6.9838Y-3.4706
X7.5254Y-1.6057
X9.5671Y-3.2258
X10.5157Y-1.7431
X10.5157Y-2.4911
T0
M30
