M48
; DRILL file {KiCad 7.0.7} date Tue Sep 12 00:09:26 2023
; FORMAT={-:-/ absolute / inch / decimal}
; #@! TF.CreationDate,2023-09-12T00:09:26-04:00
; #@! TF.GenerationSoftware,Kicad,Pcbnew,7.0.7
; #@! TF.FileFunction,Plated,1,2,PTH
FMAT,2
INCH
; #@! TA.AperFunction,Plated,PTH,ViaDrill
T1C0.0118
; #@! TA.AperFunction,Plated,PTH,ViaDrill
T2C0.0157
; #@! TA.AperFunction,Plated,PTH,ComponentDrill
T3C0.0320
; #@! TA.AperFunction,Plated,PTH,ComponentDrill
T4C0.0394
; #@! TA.AperFunction,Plated,PTH,ComponentDrill
T5C0.0512
; #@! TA.AperFunction,Plated,PTH,ComponentDrill
T6C0.0591
; #@! TA.AperFunction,Plated,PTH,ComponentDrill
T7C0.0866
; #@! TA.AperFunction,Plated,PTH,ComponentDrill
T8C0.2441
%
G90
G05
T1
X1.1916Y-2.6657
X1.1916Y-2.8657
X1.9916Y-2.7047
X2.1728Y-3.013
X2.3948Y-3.0029
X2.7916Y-3.0047
X2.9535Y-3.6746
X3.067Y-3.5425
X3.1102Y-3.4757
X3.577Y-2.0364
X3.681Y-2.2032
X4.7916Y-2.9657
X4.9379Y-3.1657
X5.2916Y-2.2932
X5.2916Y-2.8657
X5.3916Y-2.6657
X5.4353Y-2.3453
X5.4911Y-2.1655
X5.529Y-2.7673
X5.5916Y-2.9047
X5.604Y-2.5811
X6.0679Y-2.5706
X6.2419Y-1.8684
X6.2916Y-2.2657
X6.4916Y-2.8657
X6.6072Y-2.2348
X6.7524Y-2.5031
X7.3605Y-2.1298
X7.5916Y-2.0047
X7.6916Y-2.2047
X8.0367Y-2.1645
X8.1035Y-2.0254
X8.1334Y-3.6094
X8.2529Y-2.4301
X8.3399Y-1.9447
X8.8409Y-3.6442
X9.115Y-2.6654
X9.1916Y-2.068
X9.4916Y-2.3047
X9.5981Y-2.4047
X9.7916Y-2.3047
X9.7916Y-2.5657
X9.7916Y-2.8657
T2
X0.5121Y-1.347
X0.5121Y-1.9375
X0.5121Y-2.095
X0.5121Y-2.5871
X0.5121Y-2.6856
X0.9294Y-3.1659
X0.9452Y-2.4218
X0.9491Y-1.5399
X0.957Y-1.6763
X0.957Y-2.284
X0.9607Y-1.5991
X1.2483Y-2.1029
X1.2585Y-1.9371
X1.2601Y-1.347
X1.2641Y-2.6856
X1.2912Y-2.5552
X1.2966Y-2.2367
X1.3005Y-1.4808
X1.3034Y-1.8785
X1.331Y-1.5045
X1.3672Y-2.4302
X1.3822Y-3.0832
X1.394Y-1.7722
X1.394Y-2.3391
X1.3979Y-1.5832
X1.3979Y-2.5241
X1.6814Y-2.2722
X1.6814Y-3.0202
X1.6893Y-1.5241
X1.9806Y-1.343
X2.0082Y-1.1619
X2.0082Y-1.7525
X2.0082Y-1.91
X2.0082Y-2.5005
X2.0121Y-1.0045
X2.07Y-2.3694
X2.3889Y-2.9348
X2.3901Y-2.1915
X2.4373Y-1.3509
X2.4422Y-2.843
X2.4452Y-1.4552
X2.4501Y-2.1108
X2.4562Y-1.388
X2.7316Y-2.3745
X2.7316Y-2.6541
X2.7562Y-1.0674
X2.7562Y-1.658
X2.7562Y-1.8155
X2.7562Y-2.406
X2.7562Y-2.5478
X2.7808Y-1.2052
X2.7808Y-2.7052
X2.7838Y-2.6541
X2.7956Y-1.2407
X2.8312Y-2.2639
X2.8645Y-2.8917
X2.8861Y-1.3037
X2.8901Y-2.0517
X2.8901Y-2.7997
X2.894Y-1.4926
X2.894Y-2.9848
X3.1302Y-3.28
X3.1814Y-1.2446
X3.1814Y-1.9966
X3.1814Y-2.7446
X3.2641Y-3.6659
X3.5042Y-1.1619
X3.5042Y-1.7525
X3.5042Y-1.91
X3.5042Y-2.5005
X3.5042Y-2.658
X3.5554Y-3.6108
X3.6916Y-2.4047
X3.8822Y-2.1954
X3.8901Y-2.9415
X3.9324Y-1.4356
X3.9334Y-2.847
X3.9373Y-3.3155
X3.9545Y-1.339
X3.9605Y-1.3736
X3.9708Y-2.1226
X4.0436Y-3.7249
X4.2523Y-1.2525
X4.2523Y-1.847
X4.2523Y-2.0005
X4.2523Y-2.5911
X4.2523Y-2.7486
X4.2769Y-2.8903
X4.2859Y-1.3938
X4.31Y-2.4343
X4.3135Y-1.41
X4.3389Y-3.7682
X4.3822Y-2.2367
X4.3861Y-1.4926
X4.3861Y-2.9887
X4.3861Y-3.1816
X4.3901Y-1.6816
X4.642Y-2.2879
X4.6696Y-2.1816
X4.6775Y-1.4336
X4.6775Y-2.9297
X4.6814Y-2.1304
X4.6853Y-3.2131
X4.8271Y-3.8588
X4.8664Y-2.095
X4.9058Y-2.6777
X4.9137Y-1.3903
X4.9137Y-2.7486
X4.9196Y-1.5714
X4.9723Y-3.0045
X4.9801Y-3.3618
X5.2247Y-3.9415
X5.3229Y-3.6661
X6.3125Y-3.6867
X6.4916Y-3.0657
X6.5042Y-3.9159
X6.6916Y-3.3734
X6.7348Y-1.1967
X6.7633Y-2.3584
X6.766Y-1.5478
X6.7691Y-1.3863
X6.7916Y-3.2657
X6.7928Y-2.2726
X6.7995Y-2.01
X6.8251Y-1.5757
X6.8251Y-1.7824
X6.8621Y-2.4419
X6.8668Y-2.7434
X6.8704Y-1.2525
X6.8704Y-1.843
X6.8704Y-2.595
X6.8743Y-2.0045
X6.8989Y-2.2608
X6.8989Y-2.4216
X6.968Y-2.9013
X6.97Y-3.2045
X6.9702Y-3.2545
X6.9785Y-1.7117
X6.9964Y-2.9938
X6.9991Y-1.4037
X7.0054Y-2.2391
X7.0094Y-1.4926
X7.1334Y-3.4608
X7.2968Y-2.1808
X7.2979Y-2.9344
X7.3601Y-3.7989
X7.6038Y-2.397
X7.6184Y-1.158
X7.6184Y-1.7525
X7.6184Y-1.9021
X7.6184Y-2.5005
X7.6188Y-2.6509
X7.7503Y-2.8887
X7.7523Y-2.1407
X7.9956Y-3.2812
X8.0444Y-2.8442
X8.0471Y-2.0926
X8.0487Y-1.3462
X8.3664Y-1.0635
X8.3664Y-1.658
X8.3664Y-1.8155
X8.3664Y-2.41
X8.3684Y-2.5588
X8.416Y-3.6119
X8.4381Y-2.9438
X8.4706Y-1.5243
X8.4731Y-3.023
X8.4747Y-2.7135
X8.4754Y-2.2842
X8.4763Y-1.223
X8.4999Y-2.0537
X8.5042Y-2.8009
X8.5058Y-1.3037
X8.7887Y-2.0039
X8.79Y-2.7454
X9.1037Y-2.2646
X9.1145Y-1.1541
X9.1145Y-1.7525
X9.1184Y-1.91
X9.1184Y-2.5005
X9.2483Y-2.8883
X9.2511Y-2.1403
X9.5385Y-2.0986
X9.5408Y-1.3446
X9.8424Y-2.4846
X9.8625Y-1.343
X9.8625Y-1.9415
X9.8625Y-2.095
X9.8625Y-2.6856
X9.9674Y-2.5489
X9.973Y-1.8096
X9.9834Y-2.2446
X9.9905Y-1.4942
X10.0003Y-2.3399
X10.0066Y-1.5891
X10.2877Y-2.2737
X10.2885Y-3.0222
X10.6009Y-2.417
X10.6017Y-1.8198
X10.6105Y-2.6895
X10.6121Y-2.581
X10.6139Y-1.9375
X10.6145Y-1.347
X10.6149Y-2.1088
X10.7471Y-2.33
X10.7527Y-3.0812
X11.0361Y-1.5344
X11.0381Y-2.2797
T3
X5.008Y-1.2185
X5.008Y-1.3185
X5.008Y-1.4185
X5.008Y-1.5185
X5.008Y-1.6185
X5.008Y-1.7185
X5.008Y-1.8185
X5.008Y-1.9185
X5.008Y-2.0185
X5.008Y-2.1185
X5.008Y-2.2185
X5.008Y-2.3185
X5.1016Y-2.4657
X5.2016Y-2.4657
X5.3016Y-2.4657
X5.4016Y-2.4657
X5.4818Y-2.8485
X5.4818Y-2.9485
X5.4818Y-3.0485
X5.5016Y-2.4657
X5.6072Y-1.2185
X5.6072Y-1.3185
X5.6072Y-1.4185
X5.6072Y-1.5185
X5.6072Y-1.6185
X5.6072Y-1.7185
X5.6072Y-1.8185
X5.6072Y-1.9185
X5.6072Y-2.0185
X5.6072Y-2.1185
X5.6072Y-2.2185
X5.6072Y-2.3185
X6.0779Y-1.2173
X6.0779Y-1.3173
X6.0779Y-1.4173
X6.0779Y-1.5173
X6.0779Y-1.6173
X6.0779Y-1.7173
X6.0779Y-1.8173
X6.0779Y-1.9173
X6.0779Y-2.0173
X6.0779Y-2.1173
X6.0779Y-2.2173
X6.0779Y-2.3173
X6.185Y-2.4657
X6.2083Y-2.8488
X6.2083Y-2.9488
X6.2083Y-3.0488
X6.285Y-2.4657
X6.385Y-2.4657
X6.485Y-2.4657
X6.585Y-2.4657
X6.6771Y-1.2173
X6.6771Y-1.3173
X6.6771Y-1.4173
X6.6771Y-1.5173
X6.6771Y-1.6173
X6.6771Y-1.7173
X6.6771Y-1.8173
X6.6771Y-1.9173
X6.6771Y-2.0173
X6.6771Y-2.1173
X6.6771Y-2.2173
X6.6771Y-2.3173
T4
X2.3826Y-3.3532
X2.3826Y-3.55
X2.9535Y-3.3532
X2.9535Y-3.4516
X2.9535Y-3.55
X8.7276Y-3.3519
X8.7276Y-3.4503
X8.7276Y-3.5487
X9.2985Y-3.3519
X9.2985Y-3.5487
T5
X5.6191Y-2.4377
X5.6191Y-2.6936
X6.0676Y-2.4377
X6.0676Y-2.6936
T7
X2.6916Y-2.2657
X3.4416Y-1.5157
X3.4416Y-3.0157
X4.1916Y-2.2657
X7.4916Y-2.2657
X8.2416Y-1.5157
X8.2416Y-3.0157
X8.9916Y-2.2657
T8
X3.4416Y-2.2657
X8.2416Y-2.2657
T6
G00X2.6838Y-3.2311
M15
G01X2.6326Y-3.2311
M16
G05
G00X2.6838Y-3.6721
M15
G01X2.6326Y-3.6721
M16
G05
G00X8.9973Y-3.2298
M15
G01X9.0485Y-3.2298
M16
G05
G00X8.9973Y-3.6708
M15
G01X9.0485Y-3.6708
M16
G05
T0
M30
