  0
SECTION
  2
HEADER
  9
$ACADVER
  1
AC1027
  9
$ACADMAINTVER
 70
105
  9
$DWGCODEPAGE
  3
ANSI_1252
  9
$LASTSAVEDBY
  1
ezdxf
  9
$REQUIREDVERSIONS
160
0
  9
$INSBASE
 10
0.0
 20
0.0
 30
0.0
  9
$EXTMIN
 10
1e+20
 20
1e+20
 30
1e+20
  9
$EXTMAX
 10
-1e+20
 20
-1e+20
 30
-1e+20
  9
$LIMMIN
 10
0.0
 20
0.0
  9
$LIMMAX
 10
420.0
 20
297.0
  9
$ORTHOMODE
 70
0
  9
$REGENMODE
 70
1
  9
$FILLMODE
 70
1
  9
$QTEXTMODE
 70
0
  9
$MIRRTEXT
 70
1
  9
$LTSCALE
 40
1.0
  9
$ATTMODE
 70
1
  9
$TEXTSIZE
 40
2.5
  9
$TRACEWID
 40
1.0
  9
$TEXTSTYLE
  7
Standard
  9
$CLAYER
  8
0
  9
$CELTYPE
  6
ByLayer
  9
$CECOLOR
 62
256
  9
$CELTSCALE
 40
1.0
  9
$DISPSILH
 70
0
  9
$DIMSCALE
 40
1.0
  9
$DIMASZ
 40
2.5
  9
$DIMEXO
 40
0.625
  9
$DIMDLI
 40
3.75
  9
$DIMRND
 40
0.0
  9
$DIMDLE
 40
0.0
  9
$DIMEXE
 40
1.25
  9
$DIMTP
 40
0.0
  9
$DIMTM
 40
0.0
  9
$DIMTXT
 40
2.5
  9
$DIMCEN
 40
2.5
  9
$DIMTSZ
 40
0.0
  9
$DIMTOL
 70
0
  9
$DIMLIM
 70
0
  9
$DIMTIH
 70
0
  9
$DIMTOH
 70
0
  9
$DIMSE1
 70
0
  9
$DIMSE2
 70
0
  9
$DIMTAD
 70
1
  9
$DIMZIN
 70
8
  9
$DIMBLK
  1

  9
$DIMASO
 70
1
  9
$DIMSHO
 70
1
  9
$DIMPOST
  1

  9
$DIMAPOST
  1

  9
$DIMALT
 70
0
  9
$DIMALTD
 70
3
  9
$DIMALTF
 40
0.03937007874
  9
$DIMLFAC
 40
1.0
  9
$DIMTOFL
 70
1
  9
$DIMTVP
 40
0.0
  9
$DIMTIX
 70
0
  9
$DIMSOXD
 70
0
  9
$DIMSAH
 70
0
  9
$DIMBLK1
  1

  9
$DIMBLK2
  1

  9
$DIMSTYLE
  2
ISO-25
  9
$DIMCLRD
 70
0
  9
$DIMCLRE
 70
0
  9
$DIMCLRT
 70
0
  9
$DIMTFAC
 40
1.0
  9
$DIMGAP
 40
0.625
  9
$DIMJUST
 70
0
  9
$DIMSD1
 70
0
  9
$DIMSD2
 70
0
  9
$DIMTOLJ
 70
0
  9
$DIMTZIN
 70
8
  9
$DIMALTZ
 70
0
  9
$DIMALTTZ
 70
0
  9
$DIMUPT
 70
0
  9
$DIMDEC
 70
2
  9
$DIMTDEC
 70
2
  9
$DIMALTU
 70
2
  9
$DIMALTTD
 70
3
  9
$DIMTXSTY
  7
Standard
  9
$DIMAUNIT
 70
0
  9
$DIMADEC
 70
0
  9
$DIMALTRND
 40
0.0
  9
$DIMAZIN
 70
0
  9
$DIMDSEP
 70
44
  9
$DIMATFIT
 70
3
  9
$DIMFRAC
 70
0
  9
$DIMLDRBLK
  1

  9
$DIMLUNIT
 70
2
  9
$DIMLWD
 70
-2
  9
$DIMLWE
 70
-2
  9
$DIMTMOVE
 70
0
  9
$DIMFXL
 40
1.0
  9
$DIMFXLON
 70
0
  9
$DIMJOGANG
 40
0.785398163397
  9
$DIMTFILL
 70
0
  9
$DIMTFILLCLR
 70
0
  9
$DIMARCSYM
 70
0
  9
$DIMLTYPE
  6

  9
$DIMLTEX1
  6

  9
$DIMLTEX2
  6

  9
$DIMTXTDIRECTION
 70
0
  9
$LUNITS
 70
2
  9
$LUPREC
 70
4
  9
$SKETCHINC
 40
1.0
  9
$FILLETRAD
 40
10.0
  9
$AUNITS
 70
0
  9
$AUPREC
 70
2
  9
$MENU
  1
.
  9
$ELEVATION
 40
0.0
  9
$PELEVATION
 40
0.0
  9
$THICKNESS
 40
0.0
  9
$LIMCHECK
 70
0
  9
$CHAMFERA
 40
0.0
  9
$CHAMFERB
 40
0.0
  9
$CHAMFERC
 40
0.0
  9
$CHAMFERD
 40
0.0
  9
$SKPOLY
 70
0
  9
$TDCREATE
 40
2461168.1012962963
  9
$TDUCREATE
 40
2458532.153996898
  9
$TDUPDATE
 40
2461168.1012962963
  9
$TDUUPDATE
 40
2458532.1544311
  9
$TDINDWG
 40
0.0
  9
$TDUSRTIMER
 40
0.0
  9
$USRTIMER
 70
1
  9
$ANGBASE
 50
0.0
  9
$ANGDIR
 70
0
  9
$PDMODE
 70
0
  9
$PDSIZE
 40
0.0
  9
$PLINEWID
 40
0.0
  9
$SPLFRAME
 70
0
  9
$SPLINETYPE
 70
6
  9
$SPLINESEGS
 70
8
  9
$HANDSEED
  5
39
  9
$SURFTAB1
 70
6
  9
$SURFTAB2
 70
6
  9
$SURFTYPE
 70
6
  9
$SURFU
 70
6
  9
$SURFV
 70
6
  9
$UCSBASE
  2

  9
$UCSNAME
  2

  9
$UCSORG
 10
0.0
 20
0.0
 30
0.0
  9
$UCSXDIR
 10
1.0
 20
0.0
 30
0.0
  9
$UCSYDIR
 10
0.0
 20
1.0
 30
0.0
  9
$UCSORTHOREF
  2

  9
$UCSORTHOVIEW
 70
0
  9
$UCSORGTOP
 10
0.0
 20
0.0
 30
0.0
  9
$UCSORGBOTTOM
 10
0.0
 20
0.0
 30
0.0
  9
$UCSORGLEFT
 10
0.0
 20
0.0
 30
0.0
  9
$UCSORGRIGHT
 10
0.0
 20
0.0
 30
0.0
  9
$UCSORGFRONT
 10
0.0
 20
0.0
 30
0.0
  9
$UCSORGBACK
 10
0.0
 20
0.0
 30
0.0
  9
$PUCSBASE
  2

  9
$PUCSNAME
  2

  9
$PUCSORG
 10
0.0
 20
0.0
 30
0.0
  9
$PUCSXDIR
 10
1.0
 20
0.0
 30
0.0
  9
$PUCSYDIR
 10
0.0
 20
1.0
 30
0.0
  9
$PUCSORTHOREF
  2

  9
$PUCSORTHOVIEW
 70
0
  9
$PUCSORGTOP
 10
0.0
 20
0.0
 30
0.0
  9
$PUCSORGBOTTOM
 10
0.0
 20
0.0
 30
0.0
  9
$PUCSORGLEFT
 10
0.0
 20
0.0
 30
0.0
  9
$PUCSORGRIGHT
 10
0.0
 20
0.0
 30
0.0
  9
$PUCSORGFRONT
 10
0.0
 20
0.0
 30
0.0
  9
$PUCSORGBACK
 10
0.0
 20
0.0
 30
0.0
  9
$USERI1
 70
0
  9
$USERI2
 70
0
  9
$USERI3
 70
0
  9
$USERI4
 70
0
  9
$USERI5
 70
0
  9
$USERR1
 40
0.0
  9
$USERR2
 40
0.0
  9
$USERR3
 40
0.0
  9
$USERR4
 40
0.0
  9
$USERR5
 40
0.0
  9
$WORLDVIEW
 70
1
  9
$SHADEDGE
 70
3
  9
$SHADEDIF
 70
70
  9
$TILEMODE
 70
1
  9
$MAXACTVP
 70
64
  9
$PINSBASE
 10
0.0
 20
0.0
 30
0.0
  9
$PLIMCHECK
 70
0
  9
$PEXTMIN
 10
1e+20
 20
1e+20
 30
1e+20
  9
$PEXTMAX
 10
-1e+20
 20
-1e+20
 30
-1e+20
  9
$PLIMMIN
 10
0.0
 20
0.0
  9
$PLIMMAX
 10
420.0
 20
297.0
  9
$UNITMODE
 70
0
  9
$VISRETAIN
 70
1
  9
$PLINEGEN
 70
0
  9
$PSLTSCALE
 70
1
  9
$TREEDEPTH
 70
3020
  9
$CMLSTYLE
  2
Standard
  9
$CMLJUST
 70
0
  9
$CMLSCALE
 40
20.0
  9
$PROXYGRAPHICS
 70
1
  9
$MEASUREMENT
 70
1
  9
$CELWEIGHT
370
-1
  9
$ENDCAPS
280
0
  9
$JOINSTYLE
280
0
  9
$LWDISPLAY
290
0
  9
$INSUNITS
 70
6
  9
$HYPERLINKBASE
  1

  9
$STYLESHEET
  1

  9
$XEDIT
290
1
  9
$CEPSNTYPE
380
0
  9
$PSTYLEMODE
290
1
  9
$FINGERPRINTGUID
  2
{A4CF4E00-C843-406B-AB7A-4AC087362510}
  9
$VERSIONGUID
  2
{8AB89689-DED1-4E83-A1EC-58B203B0DE77}
  9
$EXTNAMES
290
1
  9
$PSVPSCALE
 40
0.0
  9
$OLESTARTUP
290
0
  9
$SORTENTS
280
127
  9
$INDEXCTL
280
0
  9
$HIDETEXT
280
1
  9
$XCLIPFRAME
280
1
  9
$HALOGAP
280
0
  9
$OBSCOLOR
 70
257
  9
$OBSLTYPE
280
0
  9
$INTERSECTIONDISPLAY
280
0
  9
$INTERSECTIONCOLOR
 70
257
  9
$DIMASSOC
280
2
  9
$PROJECTNAME
  1

  9
$CAMERADISPLAY
290
0
  9
$LENSLENGTH
 40
50.0
  9
$CAMERAHEIGHT
 40
0.0
  9
$STEPSPERSEC
 40
24.0
  9
$STEPSIZE
 40
100.0
  9
$3DDWFPREC
 40
2.0
  9
$PSOLWIDTH
 40
0.005
  9
$PSOLHEIGHT
 40
0.08
  9
$LOFTANG1
 40
1.570796326795
  9
$LOFTANG2
 40
1.570796326795
  9
$LOFTMAG1
 40
0.0
  9
$LOFTMAG2
 40
0.0
  9
$LOFTPARAM
 70
7
  9
$LOFTNORMALS
280
1
  9
$LATITUDE
 40
37.795
  9
$LONGITUDE
 40
-122.394
  9
$NORTHDIRECTION
 40
0.0
  9
$TIMEZONE
 70
-8000
  9
$LIGHTGLYPHDISPLAY
280
1
  9
$TILEMODELIGHTSYNCH
280
1
  9
$CMATERIAL
347
20
  9
$SOLIDHIST
280
0
  9
$SHOWHIST
280
1
  9
$DWFFRAME
280
2
  9
$DGNFRAME
280
2
  9
$REALWORLDSCALE
290
1
  9
$INTERFERECOLOR
 62
256
  9
$CSHADOW
280
0
  9
$SHADOWPLANELOCATION
 40
0.0
  0
ENDSEC
  0
SECTION
  2
CLASSES
  0
CLASS
  1
ACDBDICTIONARYWDFLT
  2
AcDbDictionaryWithDefault
  3
ObjectDBX Classes
 90
0
 91
0
280
0
281
0
  0
CLASS
  1
SUN
  2
AcDbSun
  3
SCENEOE
 90
1153
 91
0
280
0
281
0
  0
CLASS
  1
VISUALSTYLE
  2
AcDbVisualStyle
  3
ObjectDBX Classes
 90
4095
 91
0
280
0
281
0
  0
CLASS
  1
MATERIAL
  2
AcDbMaterial
  3
ObjectDBX Classes
 90
1153
 91
0
280
0
281
0
  0
CLASS
  1
SCALE
  2
AcDbScale
  3
ObjectDBX Classes
 90
1153
 91
0
280
0
281
0
  0
CLASS
  1
TABLESTYLE
  2
AcDbTableStyle
  3
ObjectDBX Classes
 90
4095
 91
0
280
0
281
0
  0
CLASS
  1
MLEADERSTYLE
  2
AcDbMLeaderStyle
  3
ACDB_MLEADERSTYLE_CLASS
 90
4095
 91
0
280
0
281
0
  0
CLASS
  1
DICTIONARYVAR
  2
AcDbDictionaryVar
  3
ObjectDBX Classes
 90
0
 91
0
280
0
281
0
  0
CLASS
  1
CELLSTYLEMAP
  2
AcDbCellStyleMap
  3
ObjectDBX Classes
 90
1152
 91
0
280
0
281
0
  0
CLASS
  1
MENTALRAYRENDERSETTINGS
  2
AcDbMentalRayRenderSettings
  3
SCENEOE
 90
1024
 91
0
280
0
281
0
  0
CLASS
  1
ACDBDETAILVIEWSTYLE
  2
AcDbDetailViewStyle
  3
ObjectDBX Classes
 90
1025
 91
0
280
0
281
0
  0
CLASS
  1
ACDBSECTIONVIEWSTYLE
  2
AcDbSectionViewStyle
  3
ObjectDBX Classes
 90
1025
 91
0
280
0
281
0
  0
CLASS
  1
RASTERVARIABLES
  2
AcDbRasterVariables
  3
ISM
 90
0
 91
0
280
0
281
0
  0
CLASS
  1
ACDBPLACEHOLDER
  2
AcDbPlaceHolder
  3
ObjectDBX Classes
 90
0
 91
0
280
0
281
0
  0
CLASS
  1
LAYOUT
  2
AcDbLayout
  3
ObjectDBX Classes
 90
0
 91
0
280
0
281
0
  0
ENDSEC
  0
SECTION
  2
TABLES
  0
TABLE
  2
VPORT
  5
8
330
0
100
AcDbSymbolTable
 70
1
  0
VPORT
  5
23
330
8
100
AcDbSymbolTableRecord
100
AcDbViewportTableRecord
  2
*Active
 70
0
 10
0.0
 20
0.0
 11
1.0
 21
1.0
 12
0.0
 22
0.0
 13
0.0
 23
0.0
 14
0.5
 24
0.5
 15
0.5
 25
0.5
 16
0.0
 26
0.0
 36
1.0
 17
0.0
 27
0.0
 37
0.0
 40
1000.0
 41
1.34
 42
50.0
 43
0.0
 44
0.0
 50
0.0
 51
0.0
 71
0
 72
1000
 73
1
 74
3
 75
0
 76
0
 77
0
 78
0
281
0
 65
0
146
0.0
  0
ENDTAB
  0
TABLE
  2
LTYPE
  5
2
330
0
100
AcDbSymbolTable
 70
3
  0
LTYPE
  5
24
330
2
100
AcDbSymbolTableRecord
100
AcDbLinetypeTableRecord
  2
ByBlock
 70
0
  3

 72
65
 73
0
 40
0.0
  0
LTYPE
  5
25
330
2
100
AcDbSymbolTableRecord
100
AcDbLinetypeTableRecord
  2
ByLayer
 70
0
  3

 72
65
 73
0
 40
0.0
  0
LTYPE
  5
26
330
2
100
AcDbSymbolTableRecord
100
AcDbLinetypeTableRecord
  2
Continuous
 70
0
  3

 72
65
 73
0
 40
0.0
  0
ENDTAB
  0
TABLE
  2
LAYER
  5
1
330
0
100
AcDbSymbolTable
 70
2
  0
LAYER
  5
27
330
1
100
AcDbSymbolTableRecord
100
AcDbLayerTableRecord
  2
0
 70
0
 62
7
  6
Continuous
370
-3
390
13
347
21
  0
LAYER
  5
28
330
1
100
AcDbSymbolTableRecord
100
AcDbLayerTableRecord
  2
Defpoints
 70
0
 62
7
  6
Continuous
290
0
370
-3
390
13
347
21
  0
ENDTAB
  0
TABLE
  2
STYLE
  5
5
330
0
100
AcDbSymbolTable
 70
1
  0
STYLE
  5
29
330
5
100
AcDbSymbolTableRecord
100
AcDbTextStyleTableRecord
  2
Standard
 70
0
 40
0.0
 41
1.0
 50
0.0
 71
0
 42
2.5
  3
txt
  4

  0
ENDTAB
  0
TABLE
  2
VIEW
  5
7
330
0
100
AcDbSymbolTable
 70
0
  0
ENDTAB
  0
TABLE
  2
UCS
  5
6
330
0
100
AcDbSymbolTable
 70
0
  0
ENDTAB
  0
TABLE
  2
APPID
  5
3
330
0
100
AcDbSymbolTable
 70
3
  0
APPID
  5
2A
330
3
100
AcDbSymbolTableRecord
100
AcDbRegAppTableRecord
  2
ACAD
 70
0
  0
APPID
  5
36
330
3
100
AcDbSymbolTableRecord
100
AcDbRegAppTableRecord
  2
HATCHBACKGROUNDCOLOR
 70
0
  0
APPID
  5
37
330
3
100
AcDbSymbolTableRecord
100
AcDbRegAppTableRecord
  2
EZDXF
 70
0
  0
ENDTAB
  0
TABLE
  2
DIMSTYLE
  5
4
330
0
100
AcDbSymbolTable
 70
1
100
AcDbDimStyleTable
  0
DIMSTYLE
105
2B
330
4
100
AcDbSymbolTableRecord
100
AcDbDimStyleTableRecord
  2
Standard
 70
0
 40
1.0
 41
2.5
 42
0.625
 43
3.75
 44
1.25
 45
0.0
 46
0.0
 47
0.0
 48
0.0
 49
2.5
140
2.5
141
2.5
142
0.0
143
0.03937007874
144
1.0
145
0.0
146
1.0
147
0.625
148
0.0
 69
0
 70
0
 71
0
 72
0
 73
0
 74
0
 75
0
 76
0
 77
1
 78
8
 79
3
170
0
171
3
172
1
173
0
174
0
175
0
176
0
177
0
178
0
179
2
271
2
272
2
273
2
274
3
275
0
276
0
277
2
278
44
279
0
280
0
281
0
282
0
283
0
284
8
285
0
286
0
288
0
289
3
290
0
371
-2
372
-2
  0
ENDTAB
  0
TABLE
  2
BLOCK_RECORD
  5
9
330
0
100
AcDbSymbolTable
 70
2
  0
BLOCK_RECORD
  5
17
330
9
100
AcDbSymbolTableRecord
100
AcDbBlockTableRecord
  2
*Model_Space
340
1A
 70
0
280
1
281
0
  0
BLOCK_RECORD
  5
1B
330
9
100
AcDbSymbolTableRecord
100
AcDbBlockTableRecord
  2
*Paper_Space
340
1E
 70
0
280
1
281
0
  0
ENDTAB
  0
ENDSEC
  0
SECTION
  2
BLOCKS
  0
BLOCK
  5
18
330
17
100
AcDbEntity
  8
0
100
AcDbBlockBegin
  2
*Model_Space
 70
0
 10
0.0
 20
0.0
 30
0.0
  3
*Model_Space
  1

  0
ENDBLK
  5
19
330
17
100
AcDbEntity
  8
0
100
AcDbBlockEnd
  0
BLOCK
  5
1C
330
1B
100
AcDbEntity
  8
0
100
AcDbBlockBegin
  2
*Paper_Space
 70
0
 10
0.0
 20
0.0
 30
0.0
  3
*Paper_Space
  1

  0
ENDBLK
  5
1D
330
1B
100
AcDbEntity
  8
0
100
AcDbBlockEnd
  0
ENDSEC
  0
SECTION
  2
ENTITIES
  0
LWPOLYLINE
  5
2F
330
17
100
AcDbEntity
  8
0
100
AcDbPolyline
 90
446
 70
1
 10
75.57194678585158
 20
-14.69113127985556
 10
75.57197927028919
 20
-14.691129684
 10
77.57510403073366
 20
-14.691129684
 10
77.57524010589732
 20
-14.691122999055876
 10
77.57537487058278
 20
-14.691103008603175
 10
77.57550702693243
 20
-14.69106990516088
 10
77.57563530220838
 20
-14.691024007533239
 10
77.57575846104962
 20
-14.690965757739496
 10
77.57587531736917
 20
-14.690895716757007
 10
77.57598474577678
 20
-14.690814559118722
 10
77.57608569241708
 20
-14.690723066417064
 10
77.57617718511874
 20
-14.690622119776762
 10
77.57625834275701
 20
-14.690512691369149
 10
77.57632838373951
 20
-14.690395835049605
 10
77.57638663353325
 20
-14.690272676208373
 10
77.57643253116089
 20
-14.690144400932416
 10
77.57646563460318
 20
-14.690012244582764
 10
77.5764856250559
 20
-14.689877479897309
 10
77.57649231
 20
-14.689741404733642
 10
77.57649231
 20
-7.492517201266357
 10
77.5764856250559
 20
-7.49238112610269
 10
77.57646563460318
 20
-7.4922463614172345
 10
77.57643253116089
 20
-7.492114205067583
 10
77.57638663353325
 20
-7.491985929791626
 10
77.57632838373951
 20
-7.491862770950393
 10
77.57625834275701
 20
-7.49174591463085
 10
77.57617718511874
 20
-7.491636486223236
 10
77.57608569241708
 20
-7.491535539582935
 10
77.57598474577678
 20
-7.491444046881276
 10
77.57587531736917
 20
-7.491362889242991
 10
77.57575846104962
 20
-7.491292848260502
 10
77.57563530220838
 20
-7.491234598466759
 10
77.57550702693243
 20
-7.4911887008391185
 10
77.57537487058278
 20
-7.4911555973968245
 10
77.57524010589732
 20
-7.491135606944122
 10
77.57510403073366
 20
-7.491128922
 10
75.57200978840753
 20
-7.491128922
 10
75.57197730387071
 20
-7.491127326134019
 10
75.57197570810116
 20
-7.4910948415926315
 10
75.57207488989883
 20
25.918840660721468
 10
75.57207648584989
 20
25.91887314514537
 10
75.57210897027866
 20
25.918874741
 10
77.57510403073366
 20
25.918874741
 10
77.57524010589732
 20
25.91888142594412
 10
77.57537487058278
 20
25.918901416396825
 10
77.57550702693243
 20
25.91893451983912
 10
77.57563530220838
 20
25.91898041746676
 10
77.57575846104962
 20
25.9190386672605
 10
77.57587531736917
 20
25.91910870824299
 10
77.57598474577678
 20
25.919189865881275
 10
77.57608569241708
 20
25.919281358582936
 10
77.57617718511874
 20
25.919382305223237
 10
77.57625834275701
 20
25.919491733630853
 10
77.57632838373951
 20
25.919608589950393
 10
77.57638663353325
 20
25.919731748791627
 10
77.57643253116089
 20
25.919860024067585
 10
77.57646563460318
 20
25.919992180417236
 10
77.5764856250559
 20
25.92012694510269
 10
77.57649231
 20
25.920263020266358
 10
77.57649231
 20
33.11748531673364
 10
77.5764856250559
 20
33.11762139189731
 10
77.57646563460318
 20
33.117756156582765
 10
77.57643253116089
 20
33.117888312932415
 10
77.57638663353325
 20
33.11801658820837
 10
77.57632838373951
 20
33.118139747049604
 10
77.57625834275701
 20
33.11825660336915
 10
77.57617718511874
 20
33.118366031776766
 10
77.57608569241708
 20
33.11846697841706
 10
77.57598474577678
 20
33.118558471118725
 10
77.57587531736917
 20
33.11863962875701
 10
77.57575846104962
 20
33.118709669739495
 10
77.57563530220838
 20
33.11876791953324
 10
77.57550702693243
 20
33.11881381716088
 10
77.57537487058278
 20
33.118846920603175
 10
77.57524010589732
 20
33.118866911055875
 10
77.57510403073366
 20
33.118873596
 10
75.57213185841144
 20
33.118873596
 10
75.57209937387135
 20
33.11887519186633
 10
75.57209777810742
 20
33.118907676411524
 10
75.57211303690265
 20
37.9598613919996
 10
75.57211440608334
 20
37.95989215087739
 10
75.57212118127826
 20
37.95992206069748
 10
75.6087309504354
 20
38.093822290085086
 10
75.60873771377038
 20
38.09384543840085
 10
75.66908910416912
 20
38.28782115527436
 10
75.66909907003098
 20
38.28784894924808
 10
75.66911136744804
 20
38.287875793184504
 10
75.75251338247504
 20
38.45116406518584
 10
75.75255712440686
 20
38.451238006126495
 10
75.87532876212224
 20
38.63216944625703
 10
75.87537671284457
 20
38.63223211754385
 10
76.01055907157034
 20
38.78950000596288
 10
76.01062462730899
 20
38.78956660996445
 10
76.15206152301876
 20
38.91509681235671
 10
76.15214222577929
 20
38.915158489195676
 10
76.314736987549
 20
39.021506230195264
 10
76.31481284611904
 20
39.02154929126961
 10
76.50728730083503
 20
39.115323200401974
 10
76.50736300184447
 20
39.1153546910583
 10
76.70868241969673
 20
39.185453447169195
 10
76.70873771027402
 20
39.18547015347088
 10
76.8211692940472
 20
39.2143939862434
 10
76.82119771440102
 20
39.214400038806176
 10
76.82122664467947
 20
39.214401245
 10
112.61961391773364
 20
39.214401245
 10
112.61974999289731
 20
39.21440792994412
 10
112.61988475758277
 20
39.21442792039682
 10
112.62001691393242
 20
39.21446102383912
 10
112.62014518920837
 20
39.21450692146676
 10
112.6202683480496
 20
39.2145651712605
 10
112.62038520436916
 20
39.21463521224299
 10
112.62049463277677
 20
39.21471636988127
 10
112.62059557941707
 20
39.21480786258294
 10
112.62068707211873
 20
39.21490880922323
 10
112.620768229757
 20
39.21501823763085
 10
112.6208382707395
 20
39.215135093950394
 10
112.62089652053324
 20
39.21525825279163
 10
112.62094241816088
 20
39.21538652806758
 10
112.62097552160317
 20
39.21551868441723
 10
112.62099551205588
 20
39.21565344910269
 10
112.621002197
 20
39.215789524266356
 10
112.621002197
 20
41.680555719126566
 10
112.62100366493209
 20
41.68058749481475
 10
112.62101376614017
 20
41.68061765795077
 10
112.74570839445593
 20
42.00276706167099
 10
112.74571647495011
 20
42.00278701301692
 10
112.87614101535597
 20
42.3109910782467
 10
112.87618420052884
 20
42.31107625252649
 10
113.04721100464877
 20
42.59757780442012
 10
113.04724294774125
 20
42.59762654101775
 10
113.25008212823954
 20
42.88044348864231
 10
113.25013550043828
 20
42.880509061816554
 10
113.4703403767862
 20
43.11966055793197
 10
113.47039768145422
 20
43.11971602394073
 10
113.72308586228174
 20
43.33759932185628
 10
113.72314459871632
 20
43.33764472248626
 10
114.01111842730305
 20
43.536563524614905
 10
114.01117643547786
 20
43.53659951181999
 10
114.29785816193572
 20
43.69547389370383
 10
114.29793898369776
 20
43.695512095660845
 10
114.60985575208302
 20
43.819026346367934
 10
114.60991758437952
 20
43.819047519851594
 10
114.93943426657954
 20
43.91480026697467
 10
114.93950333577641
 20
43.91481655748803
 10
115.20294420485044
 20
43.96287784997968
 10
115.20297252775637
 20
43.9628818167829
 10
115.20300108138561
 20
43.96288343319324
 10
132.21464011549523
 20
44.22230209423254
 10
132.21477256522908
 20
44.2223104581836
 10
132.21490361112018
 20
44.222331431073194
 10
132.2150320556002
 20
44.222364821239715
 10
132.21515672487396
 20
44.22241032354572
 10
132.21527647964612
 20
44.22246752216651
 10
132.2153902255327
 20
44.22253589439011
 10
132.21549692306218
 20
44.22261481539411
 10
132.21559559717477
 20
44.22270356395565
 10
132.21568534613303
 20
44.22280132904229
 10
132.2157653497623
 20
44.22290721722375
 10
132.21583487694616
 20
44.22302026083647
 10
132.21589329230753
 20
44.223139426826705
 10
132.2159400620152
 20
44.223263626191105
 10
132.21597475866224
 20
44.22339172392862
 10
132.21599706517193
 20
44.22352254941275
 10
132.3386342889539
 20
45.231549623548325
 10
132.33863979705038
 20
45.23158190988111
 10
132.33866197562236
 20
45.23160601086367
 10
132.56857996297464
 20
45.45860253925178
 10
132.5686291758465
 20
45.45864669883862
 10
132.81750589579516
 20
45.66141395004854
 10
132.81756735696806
 20
45.66145865375457
 10
133.0790382639444
 20
45.830545207329074
 10
133.07910599778134
 20
45.830583792325946
 10
133.35736046274923
 20
45.9689940314815
 10
133.35742362375115
 20
45.96902162487952
 10
133.67425845124123
 20
46.089070414826814
 10
133.67431410651295
 20
46.08908885357328
 10
133.97750141647217
 20
46.175503491247994
 10
133.97757767575587
 20
46.17552064682304
 10
134.21792831146303
 20
46.21551806791102
 10
134.21795664022554
 20
46.215521589498785
 10
134.21798516277846
 20
46.21552276607733
 10
153.98428513284583
 20
46.215576171922095
 10
153.98431386560168
 20
46.2155749780258
 10
153.9843424002465
 20
46.215571404413744
 10
154.22380882634297
 20
46.17542134481078
 10
154.2238831276832
 20
46.1754046481419
 10
154.5282449367135
 20
46.08921126333516
 10
154.52830327723282
 20
46.089191911823264
 10
154.84561227177326
 20
45.96808999321465
 10
154.8456707374312
 20
45.9680645431519
 10
155.12712921291342
 20
45.8298295309153
 10
155.12720179597227
 20
45.82978828441385
 10
155.38130057854536
 20
45.664403644598075
 10
155.3813617651233
 20
45.664358876428935
 10
155.63028528699138
 20
45.46043899440193
 10
155.63033285625494
 20
45.46039621189714
 10
155.86226573478774
 20
45.23159838593597
 10
155.8622879361266
 20
45.231574278618545
 10
155.86229344812782
 20
45.231541972581475
 10
155.98491542423602
 20
44.22352257949595
 10
155.984937729375
 20
44.223391751610954
 10
155.98497242508418
 20
44.223263651406114
 10
155.9850191942852
 20
44.22313944956815
 10
155.98507760956204
 20
44.22302028115728
 10
155.98514713706703
 20
44.222907235234025
 10
155.98522714139978
 20
44.22280134490651
 10
155.9853168914138
 20
44.22270357788905
 10
155.9854155668984
 20
44.222614827658354
 10
155.98552226607464
 20
44.222535905288204
 10
155.9856360138362
 20
44.222467532037186
 10
155.985755770661
 20
44.2224103327572
 10
155.9858804421111
 20
44.222364830183075
 10
155.98600888883453
 20
44.222331440155365
 10
155.98613993697785
 20
44.222310467820044
 10
155.9862723889136
 20
44.22230210483985
 10
173.00058135991316
 20
43.96299787884989
 10
173.00061023251214
 20
43.96299623118523
 10
173.00063886696847
 20
43.962992180299715
 10
173.2590289852106
 20
43.91535827150117
 10
173.25909762672597
 20
43.91534196943252
 10
173.58935546659222
 20
43.818925230952786
 10
173.58941556257443
 20
43.81890465704894
 10
173.90640692219705
 20
43.693894517176005
 10
173.90648737387886
 20
43.69385666233368
 10
174.19963179271068
 20
43.53220466272918
 10
174.19968900683213
 20
43.53216939447243
 10
174.48095324446788
 20
43.33938661084772
 10
174.48101879773043
 20
43.33933565402473
 10
174.72445784902783
 20
43.12553703849807
 10
174.7245136582636
 20
43.1254821450319
 10
174.95633628218576
 20
42.87016604655192
 10
174.9563582029958
 20
42.870139306518105
 10
174.95636444201784
 20
42.870105297314204
 10
175.10361883742888
 20
41.751674553656756
 10
175.10364432202832
 20
41.75153585881715
 10
175.10368374512976
 20
41.75140046479064
 10
175.10373669997298
 20
41.7512697685477
 10
175.10380264017974
 20
41.75114511858791
 10
175.1038808853912
 20
41.75102780102644
 10
175.10397062828773
 20
41.750919026324134
 10
175.10407094291884
 20
41.75081991679821
 10
175.1041807942567
 20
41.750731495042366
 10
175.10429904887565
 20
41.750654673375884
 10
175.10442448664642
 20
41.75059024443047
 10
175.10455581332533
 20
41.75053887297204
 10
175.10469167390812
 20
41.75050108904176
 10
175.10483066661047
 20
41.750477282487246
 10
175.10497135733144
 20
41.750467698940085
 10
191.72813638115358
 20
41.464478025740995
 10
191.72816455926807
 20
41.46447639067438
 10
191.72819251067352
 20
41.464472466583
 10
191.98740219225746
 20
41.417240804225
 10
191.98745093847165
 20
41.417230097663946
 10
192.2981490210241
 20
41.33717568461714
 10
192.29822412592074
 20
41.33715170583857
 10
192.5865137825566
 20
41.226689995124254
 10
192.58658036401934
 20
41.22666038486117
 10
192.87991439074696
 20
41.077285508556116
 10
192.87997174548943
 20
41.077252774513916
 10
193.14635947616927
 20
40.90791914581152
 10
193.14642354475876
 20
40.90787310224292
 10
193.38586958536266
 20
40.71422325289449
 10
193.38591795655287
 20
40.71418025032358
 10
193.57562022239307
 20
40.52898598749625
 10
193.5756560088276
 20
40.528952268338976
 10
194.96266088547722
 20
39.267685285826396
 10
194.98620601439688
 20
39.246276892102976
 10
195.0340567855675
 20
39.202761745840164
 10
195.03415545873364
 20
39.20268000559719
 10
195.03426124786145
 20
39.20260771091219
 10
195.03437325178672
 20
39.20254547762714
 10
195.03449051640447
 20
39.20249383587599
 10
195.03461204279662
 20
39.202453225568775
 10
195.03473679574114
 20
39.2024239926442
 10
195.03486371253058
 20
39.20240638612281
 10
195.0349917120249
 20
39.20240055598569
 10
213.1307391166076
 20
39.21411893941106
 10
213.13076772466945
 20
39.21411777440652
 10
213.13079565310235
 20
39.214111927377935
 10
213.2444155445104
 20
39.18540956031721
 10
213.24447524909198
 20
39.18539158814026
 10
213.4402383026127
 20
39.116728086106505
 10
213.440314017824
 20
39.11669638125728
 10
213.63233168747973
 20
39.02257126795774
 10
213.63240571197113
 20
39.022529158138035
 10
213.79679224846012
 20
38.91514480117802
 10
213.79681337555814
 20
38.915129845045215
 10
213.79683332706307
 20
38.915113353300335
 10
213.94328184066362
 20
38.78455132324653
 10
213.94334165803443
 20
38.78449102684116
 10
214.08185014612764
 20
38.62661178888668
 10
214.08190291928298
 20
38.62654349056139
 10
214.19824609906607
 20
38.45486561514588
 10
214.19829371707323
 20
38.45478383762053
 10
214.28698354825514
 20
38.275322288837806
 10
214.2870166884175
 20
38.27524328617934
 10
214.3500395066873
 20
38.0944263689081
 10
214.35006034394547
 20
38.0943542397224
 10
214.37705108781176
 20
37.977546841486436
 10
214.3770577239641
 20
37.97750829191718
 10
214.37705996238245
 20
37.97746923942345
 10
214.3852538839828
 20
25.288903952352115
 10
214.3852523078734
 20
25.288871455094924
 10
214.3852198116405
 20
25.288869858
 10
211.06393405526637
 20
25.288869858
 10
211.0637979801027
 20
25.28886317305588
 10
211.06366321541725
 20
25.288843182603177
 10
211.0635310590676
 20
25.288810079160882
 10
211.06340278379164
 20
25.288764181533242
 10
211.0632796249504
 20
25.2887059317395
 10
211.06316276863086
 20
25.28863589075701
 10
211.06305334022326
 20
25.288554733118726
 10
211.06295239358295
 20
25.288463240417066
 10
211.0628609008813
 20
25.288362293776764
 10
211.062779743243
 20
25.28825286536915
 10
211.06270970226052
 20
25.28813600904961
 10
211.06265145246678
 20
25.288012850208375
 10
211.06260555483914
 20
25.287884574932416
 10
211.06257245139685
 20
25.287752418582766
 10
211.06255246094415
 20
25.28761765389731
 10
211.062545776
 20
25.287481578733644
 10
211.062545776
 20
-24.32721165073364
 10
211.06255246094415
 20
-24.327347725897308
 10
211.06257245139685
 20
-24.327482490582764
 10
211.06260555483914
 20
-24.327614646932414
 10
211.06265145246678
 20
-24.327742922208373
 10
211.06270970226052
 20
-24.327866081049606
 10
211.062779743243
 20
-24.327982937369146
 10
211.0628609008813
 20
-24.32809236577676
 10
211.06295239358295
 20
-24.328193312417064
 10
211.06305334022326
 20
-24.328284805118724
 10
211.06316276863086
 20
-24.328365962757008
 10
211.0632796249504
 20
-24.328436003739498
 10
211.06340278379164
 20
-24.32849425353324
 10
211.0635310590676
 20
-24.32854015116088
 10
211.06366321541725
 20
-24.328573254603175
 10
211.0637979801027
 20
-24.328593245055878
 10
211.06393405526637
 20
-24.32859993
 10
214.39982248665694
 20
-24.32859993
 10
214.39985497113972
 20
-24.328601525860304
 10
214.399856567
 20
-24.32863401034284
 10
214.399856567
 20
-24.3287316384042
 10
214.39985405861395
 20
-24.328773195077343
 10
214.39984656987943
 20
-24.32881414831796
 10
214.37101102566226
 20
-24.446062429753415
 10
214.37100034465104
 20
-24.446097656791355
 10
214.3709859799274
 20
-24.44613154901687
 10
214.31916336087252
 20
-24.552291282381454
 10
214.31914083806686
 20
-24.552333640613522
 10
199.2946836341338
 20
-50.59488825267311
 10
199.29466041069585
 20
-50.59492337243381
 10
199.29463308732858
 20
-50.594955406154746
 10
199.2163468545628
 20
-50.6761464939512
 10
199.2162986823798
 20
-50.67619190300483
 10
199.06608592836375
 20
-50.80482148772944
 10
199.06602183416567
 20
-50.80487021956894
 10
198.8814418204602
 20
-50.92899002127909
 10
198.88137322411868
 20
-50.929030628165606
 10
198.7190521325446
 20
-51.01291762524727
 10
198.71902413655505
 20
-51.012930547837755
 10
198.71899510181234
 20
-51.01294092822647
 10
198.52506700439392
 20
-51.072676823079306
 10
198.52501174147577
 20
-51.072691383113366
 10
198.31988376216333
 20
-51.11779147021582
 10
198.31985456995983
 20
-51.11779658985965
 10
198.3198250468926
 20
-51.117799194468816
 10
198.11648628165935
 20
-51.12699367604685
 10
198.11642387379155
 20
-51.12699368824333
 10
197.91403147529329
 20
-51.117921267238344
 10
197.9140016353358
 20
-51.11791863252673
 10
197.91397213477538
 20
-51.11791342851989
 10
197.71079472770427
 20
-51.0729315551194
 10
197.71077516335086
 20
-51.07292692551072
 10
197.57804890419231
 20
-51.03948222694385
 10
197.5780186677155
 20
-51.039473122605564
 10
197.5779907081043
 20
-51.039458731158014
 10
181.6729527859442
 20
-41.92016413695609
 10
181.6728336378229
 20
-41.920103254854965
 10
181.67270918211352
 20
-41.92005412562274
 10
180.7267351254897
 20
-41.59839365775393
 10
180.72660679571544
 20
-41.59835680314154
 10
180.72647551906388
 20
-41.59833244674237
 10
143.16843496168636
 20
-36.48384311565512
 10
143.16823404221813
 20
-36.48383048657092
 10
124.76373461134901
 20
-36.66411559039846
 10
124.76370258676032
 20
-36.66411441734849
 10
124.76367132888733
 20
-36.66410735366035
 10
124.69597936775277
 20
-36.645470908147914
 10
124.69594293536514
 20
-36.6454597936968
 10
124.52606626138527
 20
-36.588494818016244
 10
124.5260128283321
 20
-36.58847441376104
 10
124.35164194426653
 20
-36.51351415227294
 10
124.35156198752114
 20
-36.513473462399936
 10
124.20967848385794
 20
-36.42929423197548
 10
124.20960568761389
 20
-36.42924452789678
 10
124.06347937107327
 20
-36.315206812214974
 10
124.06347374170949
 20
-36.315202442232945
 10
123.99212380395635
 20
-36.26010757053644
 10
123.99209724488315
 20
-36.260084823523016
 10
123.99207581083212
 20
-36.26005719396584
 10
114.67971749652226
 20
-22.910404230673425
 10
114.67961990938204
 20
-22.910280039596618
 10
114.45568723179588
 20
-22.6564629855973
 10
114.45559236133805
 20
-22.65636552506468
 10
114.45548840935007
 20
-22.65627781563884
 10
114.15577155732063
 20
-22.427556064473684
 10
114.15567510843854
 20
-22.4274887303365
 10
114.15557330572037
 20
-22.42742980258873
 10
113.80938488124974
 20
-22.24616943830126
 10
113.80927845970372
 20
-22.24611934173535
 10
113.80916817946478
 20
-22.24607843354211
 10
113.45044731669836
 20
-22.13004691123528
 10
113.45031595487781
 20
-22.130011429506062
 10
113.45018175053222
 20
-22.12998897789966
 10
113.11400269910895
 20
-22.090566547320943
 10
113.11384098673992
 20
-22.090557099291985
 10
76.82209638628402
 20
-22.091135024536197
 10
76.82206736344298
 20
-22.091133806698632
 10
76.82203905344184
 20
-22.09112777132316
 10
76.69597458645529
 20
-22.058709832146302
 10
76.69593253793896
 20
-22.058697592428768
 10
76.49903273842473
 20
-21.99457777570145
 10
76.49900854383414
 20
-21.994568888492243
 10
76.49898507689248
 20
-21.994558227190392
 10
76.31845591078554
 20
-21.904295552017587
 10
76.31838716590073
 20
-21.90425611793297
 10
76.15210219943255
 20
-21.795793730964025
 10
76.15209702900536
 20
-21.795790088912316
 10
76.15205881323256
 20
-21.79575952138926
 10
76.01496115274907
 20
-21.674603715352358
 10
76.01489034678849
 20
-21.674531264281654
 10
75.87752454820064
 20
-21.511702992895938
 10
75.87748302628769
 20
-21.51164853282868
 10
75.75228453444831
 20
-21.329441102808122
 10
75.75223737937803
 20
-21.329361594822274
 10
75.67045387959865
 20
-21.167804101721885
 10
75.67044181624233
 20
-21.167777552964743
 10
75.67043202927091
 20
-21.167750083412756
 10
75.63953399849447
 20
-21.067916874828732
 10
75.60863017271828
 20
-20.968066852341718
 10
75.60862472276162
 20
-20.96804833587413
 10
75.57193840862885
 20
-20.836688829530473
 10
75.57193133985673
 20
-20.83665821954204
 10
75.57192993207825
 20
-20.836626965008342
 10
75.57194518991538
 20
-14.69116376428921
 10
75.57194678585158
 20
-14.69113127985556
  0
LWPOLYLINE
  5
30
330
17
100
AcDbEntity
  8
0
100
AcDbPolyline
 90
113
 70
1
 10
185.50125086611362
 20
-25.610967461001692
 10
185.50122583885263
 20
-25.611084849122424
 10
185.50121104466032
 20
-25.611203960274533
 10
185.4872221551102
 20
-25.784971721453612
 10
185.48721767843458
 20
-25.78508376863619
 10
185.4872222594541
 20
-25.785195811601206
 10
185.5012104829173
 20
-25.956955348504433
 10
185.5012263171683
 20
-25.957079867503836
 10
185.50125333361345
 20
-25.95720244734071
 10
185.5451934009703
 20
-26.12095690086074
 10
185.54523273073363
 20
-26.121080197676907
 10
185.5452833710433
 20
-26.121199296351108
 10
185.62317173520017
 20
-26.282991761653914
 10
185.623269955898
 20
-26.28316333630367
 10
185.72101844404364
 20
-26.428777842250962
 10
185.72110241111034
 20
-26.4288902113768
 10
185.72119728914177
 20
-26.428993533435854
 10
185.8431346857558
 20
-26.54900373733365
 10
185.8432189370263
 20
-26.54908012166003
 10
185.84330915749044
 20
-26.549149353948376
 10
185.86311447517
 20
-26.563096715802345
 10
185.86323550454415
 20
-26.563172935846023
 10
186.14506303548734
 20
-26.720994059679214
 10
186.14516803132764
 20
-26.721047142759108
 10
186.14527714469318
 20
-26.721091145183017
 10
186.1453895919356
 20
-26.721125750927087
 10
186.3131149632008
 20
-26.765056544695152
 10
186.3132178825624
 20
-26.76507936394474
 10
186.3133222367289
 20
-26.765094307875888
 10
186.48507140024296
 20
-26.783066108653475
 10
186.4852142421422
 20
-26.783073646310275
 10
186.48535710143645
 20
-26.78306644585876
 10
186.66111132000657
 20
-26.76509487231709
 10
186.6612235177129
 20
-26.765078748097984
 10
186.66133402602594
 20
-26.76505352452777
 10
186.8231058824555
 20
-26.721109516334604
 10
186.82321021240898
 20
-26.721076712044916
 10
186.82331163638142
 20
-26.72103579703025
 10
186.98310660905062
 20
-26.64913110710659
 10
186.9832128441371
 20
-26.649077720441223
 10
186.98331412168213
 20
-26.649015439717736
 10
187.1311152452552
 20
-26.549158257930543
 10
187.13122153097325
 20
-26.549078794625363
 10
187.13131974381426
 20
-26.54898954604782
 10
187.25512925940905
 20
-26.425172412343564
 10
187.25521410702964
 20
-26.42507949499273
 10
187.2552901931253
 20
-26.42497927693618
 10
187.3531451086514
 20
-26.28317574102603
 10
187.35320632291
 20
-26.283078684693187
 10
187.35325931273982
 20
-26.28297690456184
 10
187.42915890758266
 20
-26.121200750466823
 10
187.42920868815605
 20
-26.121080227239315
 10
187.42924694103897
 20
-26.120955565012462
 10
187.47119446234552
 20
-25.957188053569347
 10
187.4712175837512
 20
-25.957080090707304
 10
187.47123205245288
 20
-25.95697063187644
 10
187.4872015244962
 20
-25.783207385619345
 10
187.48720735032498
 20
-25.783081051693635
 10
187.48720165527374
 20
-25.78295471180501
 10
187.47123164176506
 20
-25.6071893221937
 10
187.4712178342802
 20
-25.607083059751837
 10
187.47119587206168
 20
-25.606978178799572
 10
187.46009072255526
 20
-25.56256564844515
 10
187.460083985465
 20
-25.562539766910007
 10
187.42724716068835
 20
-25.44119871415952
 10
187.42721064146883
 20
-25.441083808536014
 10
187.42716429006168
 20
-25.440972504884844
 10
187.35325943946316
 20
-25.28318564885696
 10
187.35320628945274
 20
-25.2830834421645
 10
187.35314484855178
 20
-25.2829859939871
 10
187.25529018943791
 20
-25.141186639002093
 10
187.25521410766405
 20
-25.141086428597838
 10
187.25512926562374
 20
-25.140993517943823
 10
187.13131517286982
 20
-25.017171806798746
 10
187.13122189381917
 20
-25.017086647786375
 10
187.13112126109124
 20
-25.017010318940255
 10
186.98331286311972
 20
-24.915148237668053
 10
186.98321283332342
 20
-24.91508540558615
 10
186.98310782420106
 20
-24.91503130461681
 10
186.82518604715023
 20
-24.84199662429943
 10
186.82507963515192
 20
-24.841952671390306
 10
186.82496994714208
 20
-24.841917686935265
 10
186.66134991800172
 20
-24.797115372416553
 10
186.66122331232262
 20
-24.797086991601248
 10
186.66109461001636
 20
-24.797070554295647
 10
186.48732511981353
 20
-24.783090064356912
 10
186.48721313688978
 20
-24.783085593120028
 10
186.4871011582003
 20
-24.783090169173622
 10
186.31534515658836
 20
-24.79707048601879
 10
186.31521710959086
 20
-24.797086930996898
 10
186.31509114383118
 20
-24.797115199322985
 10
186.14732814178262
 20
-24.843051939597807
 10
186.1472184409672
 20
-24.84308692873055
 10
186.1471120170267
 20
-24.84313088840747
 10
185.98732707202223
 20
-24.91703104452374
 10
185.98721596567947
 20
-24.917088646039616
 10
185.98711049815944
 20
-24.917156019300297
 10
185.8453126289406
 20
-25.017013351765968
 10
185.84521815443208
 20
-25.017086148992284
 10
185.84513027685392
 20
-25.017166786453647
 10
185.72130644254074
 20
-25.140998239757327
 10
185.72122585403338
 20
-25.141086070539
 10
185.72115309696332
 20
-25.141180490677147
 10
185.63249315086154
 20
-25.2670684153679
 10
185.6324706074063
 20
-25.267101424125084
 10
185.62326317882489
 20
-25.2810089603008
 10
185.6231758694776
 20
-25.281160866847927
 10
185.58273748087146
 20
-25.36308796612777
 10
185.5827312638887
 20
-25.363100725494284
 10
185.5452858990626
 20
-25.440959639436652
 10
185.54523327125557
 20
-25.44108427695526
 10
185.54519302532168
 20
-25.441213445302488
 10
185.50125086611362
 20
-25.610967461001692
  0
LWPOLYLINE
  5
31
330
17
100
AcDbEntity
  8
0
100
AcDbPolyline
 90
119
 70
1
 10
132.64846343377502
 20
6.696756115957471
 10
132.64845275878807
 20
6.696584285311922
 10
132.64845275878807
 20
3.9207558647700136
 10
132.64846344911635
 20
3.9205839111742344
 10
132.9924540829393
 20
1.164737545718354
 10
132.9924762608708
 20
1.1646091989234846
 10
133.29243604495693
 20
-0.18926447405321142
 10
133.29246959852222
 20
-0.18938845213986077
 10
134.14043094510626
 20
-2.831247692913265
 10
134.14049321153348
 20
-2.831407152218412
 10
135.3064206477971
 20
-5.347248624106824
 10
135.30650410930963
 20
-5.347402476127038
 10
136.77641249144136
 20
-7.691256209687419
 10
136.77651383874382
 20
-7.6913973476844415
 10
138.52440500743182
 20
-9.829263379370756
 10
138.5245225820411
 20
-9.82939017280476
 10
140.52241331225565
 20
-11.731285534653825
 10
140.52251263458365
 20
-11.731371504235012
 10
141.60640844272447
 20
-12.583287275286335
 10
141.60651636723145
 20
-12.583364064483959
 10
143.92437989742496
 20
-14.071283624963238
 10
143.92453295336446
 20
-14.071368749898411
 10
146.40640572492447
 20
-15.253302658086229
 10
146.40652381649573
 20
-15.25335234837633
 10
147.69639257322092
 20
-15.727305614352739
 10
147.69652326085046
 20
-15.727346441686363
 10
150.35236294799094
 20
-16.415307074868352
 10
150.35253415027637
 20
-16.41534011179419
 10
153.07635843366475
 20
-16.765319948542416
 10
153.07653535699384
 20
-16.765331268311538
 10
155.79437528753735
 20
-16.765331268311545
 10
155.79455221086644
 20
-16.765319948542423
 10
158.51837649425474
 20
-16.415340111794215
 10
158.51854769654017
 20
-16.415307074868377
 10
161.17436670326197
 20
-15.727351798679154
 10
161.17453713273432
 20
-15.727295672653517
 10
163.72239782950828
 20
-14.701352460341818
 10
163.72251543069683
 20
-14.701298610518833
 10
164.94439930754632
 20
-14.071361286857446
 10
164.94451357023993
 20
-14.071295325876147
 10
167.26038158480597
 20
-12.58337366191658
 10
167.26051696342344
 20
-12.583274639203994
 10
169.39638411779697
 20
-10.81338557913766
 10
169.3965154973864
 20
-10.81326142821398
 10
171.2764130545522
 20
-8.789378713651082
 10
171.27649946728084
 20
-8.789276165544829
 10
172.11441776207846
 20
-7.691380289505661
 10
172.1144898501835
 20
-7.691276334750244
 10
173.58642066519087
 20
-5.347384928769308
 10
173.58648630232776
 20
-5.347268275401987
 10
174.20642302678985
 20
-4.109385910907342
 10
174.20647452036619
 20
-4.109270184796548
 10
175.21842836028674
 20
-1.523411749949383
 10
175.21848143167426
 20
-1.523246299331546
 10
175.89845268766783
 20
1.1646122539520565
 10
175.89847783974488
 20
1.164734581632883
 10
176.11644461324065
 20
2.5346060140307594
 10
176.11645919943174
 20
2.5347382525735394
 10
176.28844682155662
 20
5.308584131080285
 10
176.28844682156392
 20
5.308755956810554
 10
176.11645918969492
 20
8.082605806960547
 10
176.1164446527861
 20
8.082737735621423
 10
175.8984778505199
 20
9.45460806443746
 10
175.89845264898094
 20
9.454730702799077
 10
175.2184814764941
 20
12.142583204252293
 10
175.2184282724291
 20
12.14274899353052
 10
174.20647446927762
 20
14.72660854142022
 10
174.2064231085511
 20
14.726723928189429
 10
173.5864861827454
 20
15.964606694724587
 10
173.58642082890844
 20
15.964722896774973
 10
172.85012365971568
 20
17.138196748690802
 10
172.85011370347567
 20
17.138212383630265
 10
172.0924828061256
 20
18.310620918514463
 10
172.09241965018023
 20
18.31071065938271
 10
171.25449576049238
 20
19.406615140282856
 10
171.25441055434158
 20
19.40671621693192
 10
169.3744950132552
 20
21.43262091373152
 10
169.3744020735182
 20
21.432712095137582
 10
168.34651529705178
 20
22.350623988350776
 10
168.34641288271018
 20
22.350707049329372
 10
166.12653543247492
 20
23.982619845328514
 10
166.12638829145797
 20
23.982714344358406
 10
163.72251436327704
 20
25.320637740510733
 10
163.72239873186578
 20
25.32069522428689
 10
162.4645091243465
 20
25.874642679926442
 10
162.46438254746317
 20
25.874691190461732
 10
159.8565289228861
 20
26.730645393559996
 10
159.8563589061999
 20
26.73068950220032
 10
157.16052468916166
 20
27.25065727724129
 10
157.16039730417828
 20
27.25067576962287
 10
155.79453171804352
 20
27.38466553278093
 10
155.79439618012987
 20
27.38467216491601
 10
153.07651446442162
 20
27.38467216491799
 10
153.07637892650797
 20
27.384665532782908
 10
151.7105133403531
 20
27.250675769622884
 10
151.7103859553697
 20
27.250657277241306
 10
149.01455173833148
 20
26.730689502200352
 10
149.01438172164526
 20
26.730645393560028
 10
146.40652810002592
 20
25.874691191432564
 10
146.40640151745833
 20
25.874642678394043
 10
145.14852716848972
 20
25.32069522329721
 10
145.14841154276272
 20
25.320637742024285
 10
142.7445373503568
 20
23.98271419881236
 10
142.744390689777
 20
23.98262005281044
 10
140.52253225031527
 20
22.350720330980295
 10
140.52239685118312
 20
22.350606946417976
 10
138.52452258204121
 20
20.44872725471404
 10
138.52440500743194
 20
20.448600461280037
 10
136.7765140079507
 20
18.310734636552535
 10
136.7764123777918
 20
18.31059304733231
 10
135.3065037138354
 20
15.964740088877395
 10
135.30642089040532
 20
15.964587453977469
 10
134.1404935019245
 20
13.452751266631541
 10
134.14043078677992
 20
13.452590750042566
 10
133.2924695381361
 20
10.808729206868817
 10
133.29243607815152
 20
10.80860552057214
 10
132.99247627436498
 20
9.454733665848032
 10
132.99245408100282
 20
9.454605195699699
 10
132.64846343377502
 20
6.696756115957471
  0
LWPOLYLINE
  5
32
330
17
100
AcDbEntity
  8
0
100
AcDbPolyline
 90
113
 70
1
 10
171.74477930159432
 20
23.098554893350876
 10
171.74472667851052
 20
23.09843026503189
 10
171.74468643542141
 20
23.098301106599628
 10
171.70074427621253
 20
22.92855090003031
 10
171.70071924748294
 20
22.92843350711917
 10
171.70070445266995
 20
22.928314391014467
 10
171.68671556301854
 20
22.754542818966957
 10
171.6867110865388
 20
22.754430772993715
 10
171.68671566755776
 20
22.75431873124589
 10
171.7007038911204
 20
22.582559193121543
 10
171.7007197253714
 20
22.582434674122144
 10
171.70074674181657
 20
22.58231209428527
 10
171.7446868075033
 20
22.41855764698934
 10
171.74472613948964
 20
22.418434344184003
 10
171.74477678311848
 20
22.41831523998671
 10
171.82266514902577
 20
22.25652658088772
 10
171.82276335482624
 20
22.2563550316867
 10
171.92051185855857
 20
22.110736697892115
 10
171.92059582962352
 20
22.110624321290413
 10
171.92069071301188
 20
22.110520992770745
 10
172.04262809395894
 20
21.990510804292327
 10
172.04271234522943
 20
21.990434419965947
 10
172.04280256569356
 20
21.9903651876776
 10
172.06260788337312
 20
21.97641782582363
 10
172.06272891274727
 20
21.976341605779954
 10
172.34455643061077
 20
21.81852048927128
 10
172.3446614354066
 20
21.818467402130626
 10
172.3447705583511
 20
21.818423397191722
 10
172.34488301559608
 20
21.81838879054928
 10
172.51260838518633
 20
21.77446180569789
 10
172.51271129052182
 20
21.77443899127876
 10
172.51281563017739
 20
21.77442404999128
 10
172.68456480844608
 20
21.756452247669767
 10
172.68470765034533
 20
21.756444710012968
 10
172.68485050963957
 20
21.75645191046448
 10
172.8606047434555
 20
21.774423485565098
 10
172.86071692619427
 20
21.774439607005398
 10
172.86082742009287
 20
21.774464825373386
 10
173.02259927524577
 20
21.818405023596185
 10
173.02270362024996
 20
21.818437830732268
 10
173.02280505855367
 20
21.81847875088157
 10
173.18260001725375
 20
21.890383434519386
 10
173.18270625234024
 20
21.890436821184753
 10
173.18280752988525
 20
21.89049910190824
 10
173.3306086534583
 20
21.990356283695434
 10
173.33071493917637
 20
21.990435747000614
 10
173.33081315201738
 20
21.990524995578156
 10
173.45462266139768
 20
22.114342123067562
 10
173.45470751459834
 20
22.114435047115016
 10
173.45478360501548
 20
22.114535272823662
 10
173.55263852662264
 20
22.256342626909134
 10
173.55269973219066
 20
22.256439671001655
 10
173.55275271547018
 20
22.256541437644238
 10
173.62865231201988
 20
22.418313785921608
 10
173.62870209580862
 20
22.418434314613915
 10
173.62874035081552
 20
22.41855898275634
 10
173.67068787020236
 20
22.582326486704652
 10
173.67071099184432
 20
22.582434450933267
 10
173.67072546056355
 20
22.58254391115961
 10
173.68669493295457
 20
22.75631097071175
 10
173.68670075853095
 20
22.75643730461809
 10
173.68669506323292
 20
22.75656364446458
 10
173.67072505005365
 20
22.932325220809673
 10
173.67071124258769
 20
22.93243148188778
 10
173.67068928059564
 20
22.93253636150325
 10
173.65957516804514
 20
22.976984737522614
 10
173.65956842890293
 20
22.977010626640112
 10
173.6267405668238
 20
23.098315837725885
 10
173.62670405051952
 20
23.098430733410485
 10
173.6266577037099
 20
23.09854202775921
 10
173.55275284944557
 20
23.25633270114215
 10
173.55269969717867
 20
23.25643491391056
 10
173.55263825307335
 20
23.256532367671007
 10
173.45478359764104
 20
23.39833171732115
 10
173.45470751586717
 20
23.398431927725404
 10
173.45462267382686
 20
23.39852483837942
 10
173.3308085897211
 20
23.522346540875812
 10
173.33071530134964
 20
23.5224317076504
 10
173.33061465796703
 20
23.52250804250014
 10
173.18280626243686
 20
23.624366312595154
 10
173.18270624207935
 20
23.6244291369202
 10
173.18260124349368
 20
23.62448323188056
 10
173.0246789433159
 20
23.69751815413045
 10
173.02457254508968
 20
23.697562102008803
 10
173.02446287159086
 20
23.697597083749834
 10
172.86084333974452
 20
23.74240297734808
 10
172.86071672022365
 20
23.74243136337298
 10
172.86058800347607
 20
23.742447803213764
 10
172.68681852801666
 20
23.75642829196633
 10
172.6867065450929
 20
23.756432763203215
 10
172.68659456640341
 20
23.75642818714962
 10
172.51483857953252
 20
23.742447871504318
 10
172.5147105180949
 20
23.742431423984268
 10
172.51458453849224
 20
23.742403150455342
 10
172.34682152186252
 20
23.69646259685512
 10
172.3467118483637
 20
23.69642761511409
 10
172.34660545013747
 20
23.696383667235736
 10
172.18682049373538
 20
23.62248731533113
 10
172.18670937445305
 20
23.622429709183653
 10
172.18660389512482
 20
23.622362329109077
 10
172.04480603714373
 20
23.522505004557274
 10
172.0447115626352
 20
23.522432207330958
 10
172.04462368505705
 20
23.522351569869596
 10
171.92079985074386
 20
23.398520116565916
 10
171.9207192622365
 20
23.398432285784242
 10
171.92064650516645
 20
23.398337865646095
 10
171.83198655906466
 20
23.272449940955344
 10
171.83196401560943
 20
23.27241693219816
 10
171.8227565907145
 20
23.258509401590764
 10
171.8226692754793
 20
23.258357483114782
 10
171.7822299834302
 20
23.17642657543162
 10
171.78222376666125
 20
23.17641381619585
 10
171.74477930159432
 20
23.098554893350876
  0
LWPOLYLINE
  5
33
330
17
100
AcDbEntity
  8
0
100
AcDbPolyline
 90
113
 70
1
 10
120.19782113868477
 20
-18.433421915357265
 10
120.19772669685584
 20
-18.433494685087183
 10
120.19763884699688
 20
-18.433575289646143
 10
120.07379978205807
 20
-18.55740673559483
 10
120.07371914459773
 20
-18.55749461317215
 10
120.07364634737226
 20
-18.557589087679666
 10
119.98510954822586
 20
-18.683311747763025
 10
119.98508697622404
 20
-18.68334480224473
 10
119.97577165966669
 20
-18.697417584043844
 10
119.97568445529375
 20
-18.69756930743397
 10
119.9350992288897
 20
-18.77977781156296
 10
119.93509298778594
 20
-18.779790618533426
 10
119.89777921468193
 20
-18.857368129234885
 10
119.89772656259912
 20
-18.857492817670316
 10
119.89768630271223
 20
-18.85762204069172
 10
119.8537517770036
 20
-19.02737599753274
 10
119.85372675450664
 20
-19.027493387735916
 10
119.85371196533006
 20
-19.02761250056231
 10
119.83973069024029
 20
-19.201380320908253
 10
119.83972621841635
 20
-19.20149230745792
 10
119.83973079447163
 20
-19.20160428979685
 10
119.85371140393654
 20
-19.373363886405762
 10
119.8537272327799
 20
-19.37348840656056
 10
119.8537542439849
 20
-19.3736109880275
 10
119.89768667079753
 20
-19.537365357156116
 10
119.89772602416097
 20
-19.537488733680732
 10
119.89777670253294
 20
-19.53760790648239
 10
119.97568031824608
 20
-19.699400397116705
 10
119.9757784371473
 20
-19.699571793067616
 10
120.07351129962191
 20
-19.845185692378237
 10
120.07359530392512
 20
-19.84529812223132
 10
120.07369023042004
 20
-19.84540149609351
 10
120.19563560134277
 20
-19.96541228105308
 10
120.19571985227152
 20
-19.96548866061393
 10
120.19581007183261
 20
-19.96555788840536
 10
120.2155927878127
 20
-19.979488585141585
 10
120.21571377534575
 20
-19.97956477761433
 10
120.49756394528143
 20
-20.137402593081475
 10
120.49766894511548
 20
-20.13745567937162
 10
120.49777806289126
 20
-20.137499684261766
 10
120.49789051486198
 20
-20.13753429168341
 10
120.66561587562744
 20
-20.18146508270137
 10
120.6657187981243
 20
-20.181487902522164
 10
120.66582315549468
 20
-20.181502846545413
 10
120.83757994217781
 20
-20.199474647822225
 10
120.83772278701497
 20
-20.199482184826632
 10
120.83786564914932
 20
-20.199474983125118
 10
121.01360462890396
 20
-20.18150340980967
 10
121.01371680421926
 20
-20.181487288737067
 10
121.01382729088365
 20
-20.18146207193052
 10
121.17561439860414
 20
-20.137518060261613
 10
121.17571875657013
 20
-20.137485248701733
 10
121.1758202070432
 20
-20.13744432212058
 10
121.33560752158158
 20
-20.065539649606233
 10
121.3357137593945
 20
-20.065486258994408
 10
121.33581503912929
 20
-20.06542397379837
 10
121.48360856490774
 20
-19.96556677794405
 10
121.48371481944989
 20
-19.96548733625047
 10
121.48381300576013
 20
-19.965398114846725
 10
121.60763017497696
 20
-19.841580945629925
 10
121.60771502295414
 20
-19.84148803389178
 10
121.60779111019521
 20
-19.841387821606784
 10
121.70565363567941
 20
-19.6995842984013
 10
121.70571486605328
 20
-19.699487222390022
 10
121.70576786846568
 20
-19.699385420352073
 10
121.781667426533
 20
-19.537609344642185
 10
121.78171722758627
 20
-19.53748876437146
 10
121.78175549006164
 20
-19.53736404176095
 10
121.82368778803621
 20
-19.373596476851603
 10
121.82371087941156
 20
-19.373488631173608
 10
121.82372533701762
 20
-19.373379292802007
 10
121.83971004734347
 20
-19.199616043971442
 10
121.83971588422554
 20
-19.199489590503557
 10
121.83971017836762
 20
-19.199363131055833
 10
121.8237249262498
 20
-19.023597740931518
 10
121.82371112951351
 20
-19.02349159702958
 10
121.82368919613644
 20
-19.023386831554248
 10
121.81254469726547
 20
-18.9788007368706
 10
121.81253793139219
 20
-18.978774740203438
 10
121.77974806898081
 20
-18.857607226242962
 10
121.77971155921661
 20
-18.857492346430174
 10
121.77966522167199
 20
-18.857381066754463
 10
121.70576800277121
 20
-18.699594237717864
 10
121.70571483055043
 20
-18.699491983168834
 10
121.70565335984331
 20
-18.699394491476752
 10
121.60779110650745
 20
-18.557595171968188
 10
121.6077150235886
 20
-18.557494967335522
 10
121.60763018119208
 20
-18.557402062294198
 10
121.48380843461257
 20
-18.43358031571467
 10
121.48371518219923
 20
-18.433495183936262
 10
121.48361458056625
 20
-18.433418877031414
 10
121.33581378043542
 20
-18.331556781183714
 10
121.33571374858393
 20
-18.331493944657304
 10
121.33560873687586
 20
-18.331439839745013
 10
121.17771652870196
 20
-18.258415352258524
 10
121.1776101056572
 20
-18.258371393089252
 10
121.17750040580229
 20
-18.25833640430738
 10
121.01384319940001
 20
-18.213523909938512
 10
121.01371659851367
 20
-18.213495529964554
 10
121.01358790111536
 20
-18.213479092598103
 10
120.83983366705647
 20
-18.199498604152144
 10
120.83972168178768
 20
-18.19949413213134
 10
120.83960970070538
 20
-18.19949870778441
 10
120.66784607465641
 20
-18.21347902509643
 10
120.667718025148
 20
-18.21349547004688
 10
120.6675920569364
 20
-18.21352373880457
 10
120.49982906955735
 20
-18.25946047506259
 10
120.49971935689655
 20
-18.25949546852243
 10
120.49961292190933
 20
-18.259539434460034
 10
120.33983560444713
 20
-18.3334395866094
 10
120.33972451007364
 20
-18.333497183840613
 10
120.33961905347643
 20
-18.333564550798176
 10
120.19782113868477
 20
-18.433421915357265
  0
LWPOLYLINE
  5
34
330
17
100
AcDbEntity
  8
0
100
AcDbPolyline
 90
121
 70
1
 10
96.10333081347909
 20
17.418736171413286
 10
96.10334958582851
 20
17.41870327890228
 10
96.10516867872961
 20
17.415065093100058
 10
96.10523875439122
 20
17.414941248355685
 10
96.10532113911182
 20
17.414825227336603
 10
96.1054149673703
 20
17.414718248941718
 10
96.1055192534214
 20
17.414621437069513
 10
96.10563290165206
 20
17.414535808810573
 10
96.24725798356558
 20
17.318797740382628
 10
96.24734693716532
 20
17.318742380286007
 10
96.24743981249017
 20
17.31869388639731
 10
96.2835404967009
 20
17.301545631012313
 10
96.28356647888567
 20
17.301533615895178
 10
96.40522871023602
 20
17.246787932257316
 10
96.4053360830549
 20
17.246744901090416
 10
96.40544666549158
 20
17.24671095807554
 10
96.57323155413167
 20
17.20276838528773
 10
96.57333445946718
 20
17.2027455708686
 10
96.57343879912275
 20
17.20273062958112
 10
96.74518797126952
 20
17.184758827900207
 10
96.74533081925892
 20
17.184751290236232
 10
96.74547368458015
 20
17.184758491934005
 10
96.92121269293486
 20
17.202730068174176
 10
96.92132483702606
 20
17.2027461834503
 10
96.92143529361981
 20
17.202771389406184
 10
97.08323764543724
 20
17.24671159297234
 10
97.08334204646268
 20
17.24674441464606
 10
97.08344353776327
 20
17.24678535792732
 10
97.24322318020629
 20
17.318690006746316
 10
97.24332942074561
 20
17.318743401304964
 10
97.24343070267008
 20
17.31880569097395
 10
97.39121663065292
 20
17.418662900896145
 10
97.39132285401956
 20
17.41874232097775
 10
97.39142101379805
 20
17.41883151520889
 10
97.51524583042396
 20
17.542648713721285
 10
97.51533068433805
 20
17.542741626543542
 10
97.51540677704634
 20
17.542841840709315
 10
97.61327688792164
 20
17.684649124978474
 10
97.61333815241032
 20
17.684746254895508
 10
97.61339117968356
 20
17.68484811591185
 10
97.6892755130702
 20
17.846620410168708
 10
97.68932526944721
 20
17.846740892266492
 10
97.68936350634567
 20
17.846865509972037
 10
97.73131105422009
 20
18.01063312513879
 10
97.73133416557764
 20
18.010741029889534
 10
97.73134863352814
 20
18.010850429379886
 10
97.74733333861485
 20
18.184617430767883
 10
97.74733917524402
 20
18.184743884216402
 10
97.74733346913885
 20
18.18487034362193
 10
97.73134822275723
 20
18.360631861034467
 10
97.73133441612764
 20
18.360738062075264
 10
97.73131246410671
 20
18.36084288284069
 10
97.72019833699026
 20
18.405291317113132
 10
97.72019159784806
 20
18.40531720623063
 10
97.68736372129901
 20
18.526622470785508
 10
97.68732722390484
 20
18.5267373148483
 10
97.68728090481805
 20
18.52684856124482
 10
97.6133913139467
 20
18.684639180645323
 10
97.61333811726253
 20
18.684741489127273
 10
97.61327661354414
 20
18.68483902991521
 10
97.51540676967015
 20
18.826638308615426
 10
97.51533068560681
 20
18.826738507476648
 10
97.51524584285458
 20
18.82683140690548
 10
97.39141645109636
 20
18.950653180268763
 10
97.39132321600013
 20
18.95073829257683
 10
97.39122263480732
 20
18.950814583544886
 10
97.2434294349589
 20
19.052672882790887
 10
97.24332941049104
 20
19.052735716004523
 10
97.24322440673413
 20
19.05278981885049
 10
97.08536124823064
 20
19.125804352676226
 10
97.08525482791066
 20
19.125848313075416
 10
97.08514513072095
 20
19.125883303470818
 10
96.92145124043093
 20
19.17070955953116
 10
96.92132463049634
 20
19.1707379438731
 10
96.92119592356555
 20
19.17075438383565
 10
96.74745696039422
 20
19.184734869602178
 10
96.74734497277932
 20
19.184739342407067
 10
96.74723298930314
 20
19.184734767154506
 10
96.57546175355904
 20
19.170754450575505
 10
96.5753336870998
 20
19.17073800311083
 10
96.57520770259352
 20
19.170709728718688
 10
96.40744471530249
 20
19.124769183152633
 10
96.40733501811278
 20
19.12473419275723
 10
96.4072285977928
 20
19.12469023235804
 10
96.24745886434695
 20
19.05079387352681
 10
96.24734779941504
 20
19.050736293497295
 10
96.24724236893714
 20
19.05066894891153
 10
96.10542923849388
 20
18.950811599565913
 10
96.10533473343594
 20
18.950738784513604
 10
96.1052468289911
 20
18.95065812444667
 10
95.98142301968919
 20
18.82682669615576
 10
95.98134243118182
 20
18.826738865374086
 10
95.98126967411177
 20
18.82664444523594
 10
95.89258473746966
 20
18.70072103657083
 10
95.89256213675823
 20
18.70068794132291
 10
95.88337969557969
 20
18.686815896256753
 10
95.88329248531723
 20
18.686664160936807
 10
95.84285276508297
 20
18.604748413083573
 10
95.84284654779118
 20
18.604735655303323
 10
95.80538727072562
 20
18.526861570980085
 10
95.80533459908966
 20
18.526736840827848
 10
95.80529432809664
 20
18.52660757304674
 10
95.7613674358815
 20
18.35685748419185
 10
95.7613424166813
 20
18.35674008711867
 10
95.7613276319006
 20
18.356620967668416
 10
95.7473539711752
 20
18.18284927728474
 10
95.74734950439584
 20
18.182737352576684
 10
95.74735407548901
 20
18.182625432080357
 10
95.76132707104969
 20
18.010865774544847
 10
95.7613428944852
 20
18.01074125323536
 10
95.76136990044972
 20
18.010618670139024
 10
95.80529469892737
 20
17.84686433991425
 10
95.80533405964167
 20
17.846740927450682
 10
95.80538475181655
 20
17.84662172088459
 10
95.88328833428925
 20
17.684833109123712
 10
95.88338649403794
 20
17.684661655571457
 10
95.98116378716871
 20
17.53900043350673
 10
95.9812477850585
 20
17.538888024554296
 10
95.98134270152832
 20
17.538784669429436
 10
96.10330531964802
 20
17.418764178251216
 10
96.10333081347909
 20
17.418736171413286
  0
LWPOLYLINE
  5
35
330
17
100
AcDbEntity
  8
0
100
AcDbPolyline
 90
113
 70
1
 10
95.79441518399562
 20
-1.1684593052269665
 10
95.79445454248666
 20
-1.1685827117006276
 10
95.79450523134108
 20
-1.16870191274339
 10
95.87240881206351
 20
-1.330494330707957
 10
95.87250698671112
 20
-1.3306658097099284
 10
95.97028426647292
 20
-1.476323206110524
 10
95.97036826036465
 20
-1.4764356075869314
 10
95.97046317147733
 20
-1.4765389562513385
 10
96.09232736869856
 20
-1.5964625937807957
 10
96.09241402992376
 20
-1.5965409756869355
 10
96.09250697564767
 20
-1.5966117922356533
 10
96.09260554740605
 20
-1.5966745417345505
 10
96.37233751799984
 20
-1.75862296726394
 10
96.37246341022458
 20
-1.7586875215528863
 10
96.39434920717906
 20
-1.7685357127535122
 10
96.39445656609004
 20
-1.768578739008544
 10
96.3945671338976
 20
-1.7686126794611654
 10
96.56235202374769
 20
-1.8125590623953483
 10
96.5624549431093
 20
-1.8125818816449355
 10
96.56255929727581
 20
-1.8125968255760845
 10
96.73430845466795
 20
-1.8305686257130749
 10
96.73445130265736
 20
-1.8305761633770494
 10
96.73459416797859
 20
-1.8305689616792777
 10
96.91033316109004
 20
-1.812597386997925
 10
96.91044532014642
 20
-1.8125812689437355
 10
96.91055579115259
 20
-1.8125560577875814
 10
97.07235814424655
 20
-1.7686120442507032
 10
97.07246253022335
 20
-1.7685792254215957
 10
97.07256400719498
 20
-1.7685382872740598
 10
97.23234366360474
 20
-1.6966336321696964
 10
97.23244990414406
 20
-1.6965802376110464
 10
97.23255118606853
 20
-1.696517947942061
 10
97.38033711405136
 20
-1.5966607380198727
 10
97.380443337418
 20
-1.5965813179382695
 10
97.38054149719649
 20
-1.5964921237071286
 10
97.50436632003755
 20
-1.4726749189799715
 10
97.50445116837084
 20
-1.4725820128543223
 10
97.50452725675679
 20
-1.4724818063407301
 10
97.60239736155009
 20
-1.3306783402450535
 10
97.6024586347303
 20
-1.330581198088739
 10
97.6025116685529
 20
-1.330479323583564
 10
97.67839600023319
 20
-1.1687032235099741
 10
97.67844575339592
 20
-1.1685827468766183
 10
97.6784839881709
 20
-1.168458135085969
 10
97.72043153796515
 20
-1.0046905124239598
 10
97.72045464908615
 20
-1.0045826090410583
 10
97.7204691170189
 20
-1.0044732109474859
 10
97.73645382175754
 20
-0.8307100228532751
 10
97.7364596586396
 20
-0.8305835693853895
 10
97.73645395278169
 20
-0.8304571099376681
 10
97.72046870607033
 20
-0.6546917792601851
 10
97.72045489942164
 20
-0.6545855768543593
 10
97.72043294717398
 20
-0.6544807547508975
 10
97.70932778310194
 20
-0.6100681661445854
 10
97.70932104601167
 20
-0.6100422846094402
 10
97.6764842067652
 20
-0.4887011783889797
 10
97.67644770645617
 20
-0.4885863243880495
 10
97.67640138277312
 20
-0.4884750686894245
 10
97.60251179556744
 20
-0.3306882666440073
 10
97.60245860113854
 20
-0.33058596423762915
 10
97.60239710062406
 20
-0.3304884290320118
 10
97.50452725306859
 20
-0.18868914499785952
 10
97.50445116900525
 20
-0.1885889461366346
 10
97.50436632625302
 20
-0.18849604670780365
 10
97.38053692584586
 20
-0.06467426469611565
 10
97.38044370007083
 20
-0.06458916015048319
 10
97.38034312953236
 20
-0.06451287518729185
 10
97.23254992724318
 20
0.037349235236755415
 10
97.2324498933366
 20
0.037412076208051134
 10
97.23234487904287
 20
0.037466185063657564
 10
97.07448223460017
 20
0.11048048112708211
 10
97.0743758005082
 20
0.11052444655729499
 10
97.07426608880736
 20
0.1105594396664532
 10
96.91057171028967
 20
0.15538211247628303
 10
96.91044511419689
 20
0.15541049160872641
 10
96.9103164217074
 20
0.15542692903599187
 10
96.73657744379267
 20
0.16940741598889272
 10
96.73646545617777
 20
0.1694118887937827
 10
96.7363534727016
 20
0.16940731354122196
 10
96.5645822222164
 20
0.15542699576245822
 10
96.56445417019731
 20
0.15541055083967723
 10
96.56432819953399
 20
0.15538228165042017
 10
96.39656522682525
 20
0.10944554940941402
 10
96.39645550231816
 20
0.10941055162202974
 10
96.39634905628354
 20
0.10936657942293926
 10
96.2365793342352
 20
0.03546641638013728
 10
96.2364682822432
 20
0.0354088409834912
 10
96.23636286357429
 20
0.03534150321195826
 10
96.09454972189234
 20
-0.06451585404736207
 10
96.09445521683439
 20
-0.06458866909966936
 10
96.09436731238955
 20
-0.06466932916660448
 10
95.97054350308761
 20
-0.18850075745752698
 10
95.97046291458024
 20
-0.1885885882392002
 10
95.9703901575102
 20
-0.18868300837735014
 10
95.88170522086811
 20
-0.31460641704244013
 10
95.88168262015668
 20
-0.31463951229035736
 10
95.87250017529169
 20
-0.3285115629256813
 10
95.87241297091875
 20
-0.3286632863158079
 10
95.83197415448407
 20
-0.4105752257674692
 10
95.8319679369785
 20
-0.4105879836783942
 10
95.79450775979726
 20
-0.48846205909850743
 10
95.79445508343709
 20
-0.488586798449547
 10
95.79441480959979
 20
-0.4887160761454142
 10
95.75048791738537
 20
-0.6584699741279539
 10
95.75046289965279
 20
-0.6585873664129863
 10
95.75044811549215
 20
-0.65870648091304
 10
95.73647445486779
 20
-0.8324743604271735
 10
95.73646998789295
 20
-0.8325862863432811
 10
95.73647455898669
 20
-0.8326982080554854
 10
95.75044755444813
 20
-1.0044578643711666
 10
95.75046337788363
 20
-1.0045823856806544
 10
95.75049038384816
 20
-1.004704968776991
 10
95.79441518399562
 20
-1.1684593052269665
  0
ENDSEC
  0
SECTION
  2
OBJECTS
  0
DICTIONARY
  5
A
330
0
100
AcDbDictionary
281
1
  3
ACAD_COLOR
350
B
  3
ACAD_GROUP
350
C
  3
ACAD_LAYOUT
350
D
  3
ACAD_MATERIAL
350
E
  3
ACAD_MLEADERSTYLE
350
F
  3
ACAD_MLINESTYLE
350
10
  3
ACAD_PLOTSETTINGS
350
11
  3
ACAD_PLOTSTYLENAME
350
12
  3
ACAD_SCALELIST
350
14
  3
ACAD_TABLESTYLE
350
15
  3
ACAD_VISUALSTYLE
350
16
  3
EZDXF_META
350
2D
  0
DICTIONARY
  5
B
330
A
100
AcDbDictionary
281
1
  0
DICTIONARY
  5
C
330
A
100
AcDbDictionary
281
1
  0
DICTIONARY
  5
D
330
A
100
AcDbDictionary
281
1
  3
Model
350
1A
  3
Layout1
350
1E
  0
DICTIONARY
  5
E
330
A
100
AcDbDictionary
281
1
  3
ByBlock
350
1F
  3
ByLayer
350
20
  3
Global
350
21
  0
DICTIONARY
  5
F
330
A
100
AcDbDictionary
281
1
  3
Standard
350
2C
  0
DICTIONARY
  5
10
330
A
100
AcDbDictionary
281
1
  3
Standard
350
22
  0
DICTIONARY
  5
11
330
A
100
AcDbDictionary
281
1
  0
ACDBDICTIONARYWDFLT
  5
12
330
A
100
AcDbDictionary
281
1
  3
Normal
350
13
100
AcDbDictionaryWithDefault
340
13
  0
ACDBPLACEHOLDER
  5
13
330
12
  0
DICTIONARY
  5
14
330
A
100
AcDbDictionary
281
1
  0
DICTIONARY
  5
15
330
A
100
AcDbDictionary
281
1
  0
DICTIONARY
  5
16
330
A
100
AcDbDictionary
281
1
  0
LAYOUT
  5
1A
330
D
100
AcDbPlotSettings
  1

  4
A3
  6

 40
7.5
 41
20.0
 42
7.5
 43
20.0
 44
420.0
 45
297.0
 46
0.0
 47
0.0
 48
0.0
 49
0.0
140
0.0
141
0.0
142
1.0
143
1.0
 70
1024
 72
1
 73
0
 74
5
  7

 75
16
 76
0
 77
2
 78
300
147
1.0
148
0.0
149
0.0
100
AcDbLayout
  1
Model
 70
1
 71
0
 10
0.0
 20
0.0
 11
420.0
 21
297.0
 12
0.0
 22
0.0
 32
0.0
 14
1e+20
 24
1e+20
 34
1e+20
 15
-1e+20
 25
-1e+20
 35
-1e+20
146
0.0
 13
0.0
 23
0.0
 33
0.0
 16
1.0
 26
0.0
 36
0.0
 17
0.0
 27
1.0
 37
0.0
 76
1
330
17
  0
LAYOUT
  5
1E
330
D
100
AcDbPlotSettings
  1

  4
A3
  6

 40
7.5
 41
20.0
 42
7.5
 43
20.0
 44
420.0
 45
297.0
 46
0.0
 47
0.0
 48
0.0
 49
0.0
140
0.0
141
0.0
142
1.0
143
1.0
 70
0
 72
1
 73
0
 74
5
  7

 75
16
 76
0
 77
2
 78
300
147
1.0
148
0.0
149
0.0
100
AcDbLayout
  1
Layout1
 70
1
 71
1
 10
0.0
 20
0.0
 11
420.0
 21
297.0
 12
0.0
 22
0.0
 32
0.0
 14
1e+20
 24
1e+20
 34
1e+20
 15
-1e+20
 25
-1e+20
 35
-1e+20
146
0.0
 13
0.0
 23
0.0
 33
0.0
 16
1.0
 26
0.0
 36
0.0
 17
0.0
 27
1.0
 37
0.0
 76
1
330
1B
  0
MATERIAL
  5
1F
102
{ACAD_REACTORS
330
E
102
}
330
E
100
AcDbMaterial
  1
ByBlock
  2

 70
0
 40
1.0
 71
1
 41
1.0
 91
-1023410177
 42
1.0
 72
1
  3

 73
1
 74
1
 75
1
 44
0.5
 73
0
 45
1.0
 46
1.0
 77
1
  4

 78
1
 79
1
170
1
 48
1.0
171
1
  6

172
1
173
1
174
1
140
1.0
141
1.0
175
1
  7

176
1
177
1
178
1
143
1.0
179
1
  8

270
1
271
1
272
1
145
1.0
146
1.0
273
1
  9

274
1
275
1
276
1
 42
1.0
 72
1
  3

 73
1
 74
1
 75
1
 94
63
  0
MATERIAL
  5
20
102
{ACAD_REACTORS
330
E
102
}
330
E
100
AcDbMaterial
  1
ByLayer
  2

 70
0
 40
1.0
 71
1
 41
1.0
 91
-1023410177
 42
1.0
 72
1
  3

 73
1
 74
1
 75
1
 44
0.5
 73
0
 45
1.0
 46
1.0
 77
1
  4

 78
1
 79
1
170
1
 48
1.0
171
1
  6

172
1
173
1
174
1
140
1.0
141
1.0
175
1
  7

176
1
177
1
178
1
143
1.0
179
1
  8

270
1
271
1
272
1
145
1.0
146
1.0
273
1
  9

274
1
275
1
276
1
 42
1.0
 72
1
  3

 73
1
 74
1
 75
1
 94
63
  0
MATERIAL
  5
21
102
{ACAD_REACTORS
330
E
102
}
330
E
100
AcDbMaterial
  1
Global
  2

 70
0
 40
1.0
 71
1
 41
1.0
 91
-1023410177
 42
1.0
 72
1
  3

 73
1
 74
1
 75
1
 44
0.5
 73
0
 45
1.0
 46
1.0
 77
1
  4

 78
1
 79
1
170
1
 48
1.0
171
1
  6

172
1
173
1
174
1
140
1.0
141
1.0
175
1
  7

176
1
177
1
178
1
143
1.0
179
1
  8

270
1
271
1
272
1
145
1.0
146
1.0
273
1
  9

274
1
275
1
276
1
 42
1.0
 72
1
  3

 73
1
 74
1
 75
1
 94
63
  0
MLINESTYLE
  5
22
102
{ACAD_REACTORS
330
10
102
}
330
10
100
AcDbMlineStyle
  2
Standard
 70
0
  3

 62
256
 51
90.0
 52
90.0
 71
2
 49
0.5
 62
256
  6
BYLAYER
 49
-0.5
 62
256
  6
BYLAYER
  0
MLEADERSTYLE
  5
2C
102
{ACAD_REACTORS
330
F
102
}
330
F
100
AcDbMLeaderStyle
179
2
170
2
171
1
172
0
 90
2
 40
0.0
 41
0.0
173
1
 91
-1056964608
 92
-2
290
1
 42
2.0
291
1
 43
8.0
  3
Standard
 44
4.0
300

342
29
174
1
175
1
176
0
178
1
 93
-1056964608
 45
4.0
292
0
297
0
 46
4.0
 94
-1056964608
 47
1.0
 49
1.0
140
1.0
294
1
141
0.0
177
0
142
1.0
295
0
296
0
143
3.75
271
0
272
9
273
9
  0
DICTIONARY
  5
2D
330
A
100
AcDbDictionary
280
1
281
1
  3
CREATED_BY_EZDXF
350
2E
  3
WRITTEN_BY_EZDXF
350
38
  0
DICTIONARYVAR
  5
2E
330
2D
100
DictionaryVariables
280
0
  1
1.4.3 @ 2026-05-07T06:25:52.390058+00:00
  0
DICTIONARYVAR
  5
38
330
2D
100
DictionaryVariables
280
0
  1
1.4.3 @ 2026-05-07T06:25:52.393808+00:00
  0
ENDSEC
  0
EOF
