<svg
  width="138.8279mm"
  height="97.3426mm"
  viewBox="75.571930 -46.215576 138.827927 97.342570"
  xmlns="http://www.w3.org/2000/svg">
  <path d="M75.571947,14.691131L75.571979,14.691130L77.575104,14.691130L77.575240,14.691123L77.575375,14.691103L77.575507,14.691070L77.575635,14.691024L77.575758,14.690966L77.575875,14.690896L77.575985,14.690815L77.576086,14.690723L77.576177,14.690622L77.576258,14.690513L77.576328,14.690396L77.576387,14.690273L77.576433,14.690144L77.576466,14.690012L77.576486,14.689877L77.576492,14.689741L77.576492,7.492517L77.576486,7.492381L77.576466,7.492246L77.576433,7.492114L77.576387,7.491986L77.576328,7.491863L77.576258,7.491746L77.576177,7.491636L77.576086,7.491536L77.575985,7.491444L77.575875,7.491363L77.575758,7.491293L77.575635,7.491235L77.575507,7.491189L77.575375,7.491156L77.575240,7.491136L77.575104,7.491129L75.572010,7.491129L75.571977,7.491127L75.571976,7.491095L75.572075,-25.918841L75.572076,-25.918873L75.572109,-25.918875L77.575104,-25.918875L77.575240,-25.918881L77.575375,-25.918901L77.575507,-25.918935L77.575635,-25.918980L77.575758,-25.919039L77.575875,-25.919109L77.575985,-25.919190L77.576086,-25.919281L77.576177,-25.919382L77.576258,-25.919492L77.576328,-25.919609L77.576387,-25.919732L77.576433,-25.919860L77.576466,-25.919992L77.576486,-25.920127L77.576492,-25.920263L77.576492,-33.117485L77.576486,-33.117621L77.576466,-33.117756L77.576433,-33.117888L77.576387,-33.118017L77.576328,-33.118140L77.576258,-33.118257L77.576177,-33.118366L77.576086,-33.118467L77.575985,-33.118558L77.575875,-33.118640L77.575758,-33.118710L77.575635,-33.118768L77.575507,-33.118814L77.575375,-33.118847L77.575240,-33.118867L77.575104,-33.118874L75.572132,-33.118874L75.572099,-33.118875L75.572098,-33.118908L75.572113,-37.959861L75.572114,-37.959892L75.572121,-37.959922L75.608731,-38.093822L75.608738,-38.093845L75.669089,-38.287821L75.669099,-38.287849L75.669111,-38.287876L75.752513,-38.451164L75.752557,-38.451238L75.875329,-38.632169L75.875377,-38.632232L76.010559,-38.789500L76.010625,-38.789567L76.152062,-38.915097L76.152142,-38.915158L76.314737,-39.021506L76.314813,-39.021549L76.507287,-39.115323L76.507363,-39.115355L76.708682,-39.185453L76.708738,-39.185470L76.821169,-39.214394L76.821198,-39.214400L76.821227,-39.214401L112.619614,-39.214401L112.619750,-39.214408L112.619885,-39.214428L112.620017,-39.214461L112.620145,-39.214507L112.620268,-39.214565L112.620385,-39.214635L112.620495,-39.214716L112.620596,-39.214808L112.620687,-39.214909L112.620768,-39.215018L112.620838,-39.215135L112.620897,-39.215258L112.620942,-39.215387L112.620976,-39.215519L112.620996,-39.215653L112.621002,-39.215790L112.621002,-41.680556L112.621004,-41.680587L112.621014,-41.680618L112.745708,-42.002767L112.745716,-42.002787L112.876141,-42.310991L112.876184,-42.311076L113.047211,-42.597578L113.047243,-42.597627L113.250082,-42.880443L113.250136,-42.880509L113.470340,-43.119661L113.470398,-43.119716L113.723086,-43.337599L113.723145,-43.337645L114.011118,-43.536564L114.011176,-43.536600L114.297858,-43.695474L114.297939,-43.695512L114.609856,-43.819026L114.609918,-43.819048L114.939434,-43.914800L114.939503,-43.914817L115.202944,-43.962878L115.202973,-43.962882L115.203001,-43.962883L132.214640,-44.222302L132.214773,-44.222310L132.214904,-44.222331L132.215032,-44.222365L132.215157,-44.222410L132.215276,-44.222468L132.215390,-44.222536L132.215497,-44.222615L132.215596,-44.222704L132.215685,-44.222801L132.215765,-44.222907L132.215835,-44.223020L132.215893,-44.223139L132.215940,-44.223264L132.215975,-44.223392L132.215997,-44.223523L132.338634,-45.231550L132.338640,-45.231582L132.338662,-45.231606L132.568580,-45.458603L132.568629,-45.458647L132.817506,-45.661414L132.817567,-45.661459L133.079038,-45.830545L133.079106,-45.830584L133.357360,-45.968994L133.357424,-45.969022L133.674258,-46.089070L133.674314,-46.089089L133.977501,-46.175503L133.977578,-46.175521L134.217928,-46.215518L134.217957,-46.215522L134.217985,-46.215523L153.984285,-46.215576L153.984314,-46.215575L153.984342,-46.215571L154.223809,-46.175421L154.223883,-46.175405L154.528245,-46.089211L154.528303,-46.089192L154.845612,-45.968090L154.845671,-45.968065L155.127129,-45.829830L155.127202,-45.829788L155.381301,-45.664404L155.381362,-45.664359L155.630285,-45.460439L155.630333,-45.460396L155.862266,-45.231598L155.862288,-45.231574L155.862293,-45.231542L155.984915,-44.223523L155.984938,-44.223392L155.984972,-44.223264L155.985019,-44.223139L155.985078,-44.223020L155.985147,-44.222907L155.985227,-44.222801L155.985317,-44.222704L155.985416,-44.222615L155.985522,-44.222536L155.985636,-44.222468L155.985756,-44.222410L155.985880,-44.222365L155.986009,-44.222331L155.986140,-44.222310L155.986272,-44.222302L173.000581,-43.962998L173.000610,-43.962996L173.000639,-43.962992L173.259029,-43.915358L173.259098,-43.915342L173.589355,-43.818925L173.589416,-43.818905L173.906407,-43.693895L173.906487,-43.693857L174.199632,-43.532205L174.199689,-43.532169L174.480953,-43.339387L174.481019,-43.339336L174.724458,-43.125537L174.724514,-43.125482L174.956336,-42.870166L174.956358,-42.870139L174.956364,-42.870105L175.103619,-41.751675L175.103644,-41.751536L175.103684,-41.751400L175.103737,-41.751270L175.103803,-41.751145L175.103881,-41.751028L175.103971,-41.750919L175.104071,-41.750820L175.104181,-41.750731L175.104299,-41.750655L175.104424,-41.750590L175.104556,-41.750539L175.104692,-41.750501L175.104831,-41.750477L175.104971,-41.750468L191.728136,-41.464478L191.728165,-41.464476L191.728193,-41.464472L191.987402,-41.417241L191.987451,-41.417230L192.298149,-41.337176L192.298224,-41.337152L192.586514,-41.226690L192.586580,-41.226660L192.879914,-41.077286L192.879972,-41.077253L193.146359,-40.907919L193.146424,-40.907873L193.385870,-40.714223L193.385918,-40.714180L193.575620,-40.528986L193.575656,-40.528952L194.962661,-39.267685L194.986206,-39.246277L195.034057,-39.202762L195.034155,-39.202680L195.034261,-39.202608L195.034373,-39.202545L195.034491,-39.202494L195.034612,-39.202453L195.034737,-39.202424L195.034864,-39.202406L195.034992,-39.202401L213.130739,-39.214119L213.130768,-39.214118L213.130796,-39.214112L213.244416,-39.185410L213.244475,-39.185392L213.440238,-39.116728L213.440314,-39.116696L213.632332,-39.022571L213.632406,-39.022529L213.796792,-38.915145L213.796813,-38.915130L213.796833,-38.915113L213.943282,-38.784551L213.943342,-38.784491L214.081850,-38.626612L214.081903,-38.626543L214.198246,-38.454866L214.198294,-38.454784L214.286984,-38.275322L214.287017,-38.275243L214.350040,-38.094426L214.350060,-38.094354L214.377051,-37.977547L214.377058,-37.977508L214.377060,-37.977469L214.385254,-25.288904L214.385252,-25.288871L214.385220,-25.288870L211.063934,-25.288870L211.063798,-25.288863L211.063663,-25.288843L211.063531,-25.288810L211.063403,-25.288764L211.063280,-25.288706L211.063163,-25.288636L211.063053,-25.288555L211.062952,-25.288463L211.062861,-25.288362L211.062780,-25.288253L211.062710,-25.288136L211.062651,-25.288013L211.062606,-25.287885L211.062572,-25.287752L211.062552,-25.287618L211.062546,-25.287482L211.062546,24.327212L211.062552,24.327348L211.062572,24.327482L211.062606,24.327615L211.062651,24.327743L211.062710,24.327866L211.062780,24.327983L211.062861,24.328092L211.062952,24.328193L211.063053,24.328285L211.063163,24.328366L211.063280,24.328436L211.063403,24.328494L211.063531,24.328540L211.063663,24.328573L211.063798,24.328593L211.063934,24.328600L214.399822,24.328600L214.399855,24.328602L214.399857,24.328634L214.399857,24.328732L214.399854,24.328773L214.399847,24.328814L214.371011,24.446062L214.371000,24.446098L214.370986,24.446132L214.319163,24.552291L214.319141,24.552334L199.294684,50.594888L199.294660,50.594923L199.294633,50.594955L199.216347,50.676146L199.216299,50.676192L199.066086,50.804821L199.066022,50.804870L198.881442,50.928990L198.881373,50.929031L198.719052,51.012918L198.719024,51.012931L198.718995,51.012941L198.525067,51.072677L198.525012,51.072691L198.319884,51.117791L198.319855,51.117797L198.319825,51.117799L198.116486,51.126994L198.116424,51.126994L197.914031,51.117921L197.914002,51.117919L197.913972,51.117913L197.710795,51.072932L197.710775,51.072927L197.578049,51.039482L197.578019,51.039473L197.577991,51.039459L181.672953,41.920164L181.672834,41.920103L181.672709,41.920054L180.726735,41.598394L180.726607,41.598357L180.726476,41.598332L143.168435,36.483843L143.168234,36.483830L124.763735,36.664116L124.763703,36.664114L124.763671,36.664107L124.695979,36.645471L124.695943,36.645460L124.526066,36.588495L124.526013,36.588474L124.351642,36.513514L124.351562,36.513473L124.209678,36.429294L124.209606,36.429245L124.063479,36.315207L124.063474,36.315202L123.992124,36.260108L123.992097,36.260085L123.992076,36.260057L114.679717,22.910404L114.679620,22.910280L114.455687,22.656463L114.455592,22.656366L114.455488,22.656278L114.155772,22.427556L114.155675,22.427489L114.155573,22.427430L113.809385,22.246169L113.809278,22.246119L113.809168,22.246078L113.450447,22.130047L113.450316,22.130011L113.450182,22.129989L113.114003,22.090567L113.113841,22.090557L76.822096,22.091135L76.822067,22.091134L76.822039,22.091128L76.695975,22.058710L76.695933,22.058698L76.499033,21.994578L76.499009,21.994569L76.498985,21.994558L76.318456,21.904296L76.318387,21.904256L76.152102,21.795794L76.152097,21.795790L76.152059,21.795760L76.014961,21.674604L76.014890,21.674531L75.877525,21.511703L75.877483,21.511649L75.752285,21.329441L75.752237,21.329362L75.670454,21.167804L75.670442,21.167778L75.670432,21.167750L75.639534,21.067917L75.608630,20.968067L75.608625,20.968048L75.571938,20.836689L75.571931,20.836658L75.571930,20.836627L75.571945,14.691164L75.571947,14.691131Z M185.501251,25.610967L185.501226,25.611085L185.501211,25.611204L185.487222,25.784972L185.487218,25.785084L185.487222,25.785196L185.501210,25.956955L185.501226,25.957080L185.501253,25.957202L185.545193,26.120957L185.545233,26.121080L185.545283,26.121199L185.623172,26.282992L185.623270,26.283163L185.721018,26.428778L185.721102,26.428890L185.721197,26.428994L185.843135,26.549004L185.843219,26.549080L185.843309,26.549149L185.863114,26.563097L185.863236,26.563173L186.145063,26.720994L186.145168,26.721047L186.145277,26.721091L186.145390,26.721126L186.313115,26.765057L186.313218,26.765079L186.313322,26.765094L186.485071,26.783066L186.485214,26.783074L186.485357,26.783066L186.661111,26.765095L186.661224,26.765079L186.661334,26.765054L186.823106,26.721110L186.823210,26.721077L186.823312,26.721036L186.983107,26.649131L186.983213,26.649078L186.983314,26.649015L187.131115,26.549158L187.131222,26.549079L187.131320,26.548990L187.255129,26.425172L187.255214,26.425079L187.255290,26.424979L187.353145,26.283176L187.353206,26.283079L187.353259,26.282977L187.429159,26.121201L187.429209,26.121080L187.429247,26.120956L187.471194,25.957188L187.471218,25.957080L187.471232,25.956971L187.487202,25.783207L187.487207,25.783081L187.487202,25.782955L187.471232,25.607189L187.471218,25.607083L187.471196,25.606978L187.460091,25.562566L187.460084,25.562540L187.427247,25.441199L187.427211,25.441084L187.427164,25.440973L187.353259,25.283186L187.353206,25.283083L187.353145,25.282986L187.255290,25.141187L187.255214,25.141086L187.255129,25.140994L187.131315,25.017172L187.131222,25.017087L187.131121,25.017010L186.983313,24.915148L186.983213,24.915085L186.983108,24.915031L186.825186,24.841997L186.825080,24.841953L186.824970,24.841918L186.661350,24.797115L186.661223,24.797087L186.661095,24.797071L186.487325,24.783090L186.487213,24.783086L186.487101,24.783090L186.315345,24.797070L186.315217,24.797087L186.315091,24.797115L186.147328,24.843052L186.147218,24.843087L186.147112,24.843131L185.987327,24.917031L185.987216,24.917089L185.987110,24.917156L185.845313,25.017013L185.845218,25.017086L185.845130,25.017167L185.721306,25.140998L185.721226,25.141086L185.721153,25.141180L185.632493,25.267068L185.632471,25.267101L185.623263,25.281009L185.623176,25.281161L185.582737,25.363088L185.582731,25.363101L185.545286,25.440960L185.545233,25.441084L185.545193,25.441213L185.501251,25.610967Z M132.648463,-6.696756L132.648453,-6.696584L132.648453,-3.920756L132.648463,-3.920584L132.992454,-1.164738L132.992476,-1.164609L133.292436,0.189264L133.292470,0.189388L134.140431,2.831248L134.140493,2.831407L135.306421,5.347249L135.306504,5.347402L136.776412,7.691256L136.776514,7.691397L138.524405,9.829263L138.524523,9.829390L140.522413,11.731286L140.522513,11.731372L141.606408,12.583287L141.606516,12.583364L143.924380,14.071284L143.924533,14.071369L146.406406,15.253303L146.406524,15.253352L147.696393,15.727306L147.696523,15.727346L150.352363,16.415307L150.352534,16.415340L153.076358,16.765320L153.076535,16.765331L155.794375,16.765331L155.794552,16.765320L158.518376,16.415340L158.518548,16.415307L161.174367,15.727352L161.174537,15.727296L163.722398,14.701352L163.722515,14.701299L164.944399,14.071361L164.944514,14.071295L167.260382,12.583374L167.260517,12.583275L169.396384,10.813386L169.396515,10.813261L171.276413,8.789379L171.276499,8.789276L172.114418,7.691380L172.114490,7.691276L173.586421,5.347385L173.586486,5.347268L174.206423,4.109386L174.206475,4.109270L175.218428,1.523412L175.218481,1.523246L175.898453,-1.164612L175.898478,-1.164735L176.116445,-2.534606L176.116459,-2.534738L176.288447,-5.308584L176.288447,-5.308756L176.116459,-8.082606L176.116445,-8.082738L175.898478,-9.454608L175.898453,-9.454731L175.218481,-12.142583L175.218428,-12.142749L174.206474,-14.726609L174.206423,-14.726724L173.586486,-15.964607L173.586421,-15.964723L172.850124,-17.138197L172.850114,-17.138212L172.092483,-18.310621L172.092420,-18.310711L171.254496,-19.406615L171.254411,-19.406716L169.374495,-21.432621L169.374402,-21.432712L168.346515,-22.350624L168.346413,-22.350707L166.126535,-23.982620L166.126388,-23.982714L163.722514,-25.320638L163.722399,-25.320695L162.464509,-25.874643L162.464383,-25.874691L159.856529,-26.730645L159.856359,-26.730690L157.160525,-27.250657L157.160397,-27.250676L155.794532,-27.384666L155.794396,-27.384672L153.076514,-27.384672L153.076379,-27.384666L151.710513,-27.250676L151.710386,-27.250657L149.014552,-26.730690L149.014382,-26.730645L146.406528,-25.874691L146.406402,-25.874643L145.148527,-25.320695L145.148412,-25.320638L142.744537,-23.982714L142.744391,-23.982620L140.522532,-22.350720L140.522397,-22.350607L138.524523,-20.448727L138.524405,-20.448600L136.776514,-18.310735L136.776412,-18.310593L135.306504,-15.964740L135.306421,-15.964587L134.140494,-13.452751L134.140431,-13.452591L133.292470,-10.808729L133.292436,-10.808606L132.992476,-9.454734L132.992454,-9.454605L132.648463,-6.696756Z M171.744779,-23.098555L171.744727,-23.098430L171.744686,-23.098301L171.700744,-22.928551L171.700719,-22.928434L171.700704,-22.928314L171.686716,-22.754543L171.686711,-22.754431L171.686716,-22.754319L171.700704,-22.582559L171.700720,-22.582435L171.700747,-22.582312L171.744687,-22.418558L171.744726,-22.418434L171.744777,-22.418315L171.822665,-22.256527L171.822763,-22.256355L171.920512,-22.110737L171.920596,-22.110624L171.920691,-22.110521L172.042628,-21.990511L172.042712,-21.990434L172.042803,-21.990365L172.062608,-21.976418L172.062729,-21.976342L172.344556,-21.818520L172.344661,-21.818467L172.344771,-21.818423L172.344883,-21.818389L172.512608,-21.774462L172.512711,-21.774439L172.512816,-21.774424L172.684565,-21.756452L172.684708,-21.756445L172.684851,-21.756452L172.860605,-21.774423L172.860717,-21.774440L172.860827,-21.774465L173.022599,-21.818405L173.022704,-21.818438L173.022805,-21.818479L173.182600,-21.890383L173.182706,-21.890437L173.182808,-21.890499L173.330609,-21.990356L173.330715,-21.990436L173.330813,-21.990525L173.454623,-22.114342L173.454708,-22.114435L173.454784,-22.114535L173.552639,-22.256343L173.552700,-22.256440L173.552753,-22.256541L173.628652,-22.418314L173.628702,-22.418434L173.628740,-22.418559L173.670688,-22.582326L173.670711,-22.582434L173.670725,-22.582544L173.686695,-22.756311L173.686701,-22.756437L173.686695,-22.756564L173.670725,-22.932325L173.670711,-22.932431L173.670689,-22.932536L173.659575,-22.976985L173.659568,-22.977011L173.626741,-23.098316L173.626704,-23.098431L173.626658,-23.098542L173.552753,-23.256333L173.552700,-23.256435L173.552638,-23.256532L173.454784,-23.398332L173.454708,-23.398432L173.454623,-23.398525L173.330809,-23.522347L173.330715,-23.522432L173.330615,-23.522508L173.182806,-23.624366L173.182706,-23.624429L173.182601,-23.624483L173.024679,-23.697518L173.024573,-23.697562L173.024463,-23.697597L172.860843,-23.742403L172.860717,-23.742431L172.860588,-23.742448L172.686819,-23.756428L172.686707,-23.756433L172.686595,-23.756428L172.514839,-23.742448L172.514711,-23.742431L172.514585,-23.742403L172.346822,-23.696463L172.346712,-23.696428L172.346605,-23.696384L172.186820,-23.622487L172.186709,-23.622430L172.186604,-23.622362L172.044806,-23.522505L172.044712,-23.522432L172.044624,-23.522352L171.920800,-23.398520L171.920719,-23.398432L171.920647,-23.398338L171.831987,-23.272450L171.831964,-23.272417L171.822757,-23.258509L171.822669,-23.258357L171.782230,-23.176427L171.782224,-23.176414L171.744779,-23.098555Z M120.197821,18.433422L120.197727,18.433495L120.197639,18.433575L120.073800,18.557407L120.073719,18.557495L120.073646,18.557589L119.985110,18.683312L119.985087,18.683345L119.975772,18.697418L119.975684,18.697569L119.935099,18.779778L119.935093,18.779791L119.897779,18.857368L119.897727,18.857493L119.897686,18.857622L119.853752,19.027376L119.853727,19.027493L119.853712,19.027613L119.839731,19.201380L119.839726,19.201492L119.839731,19.201604L119.853711,19.373364L119.853727,19.373488L119.853754,19.373611L119.897687,19.537365L119.897726,19.537489L119.897777,19.537608L119.975680,19.699400L119.975778,19.699572L120.073511,19.845186L120.073595,19.845298L120.073690,19.845401L120.195636,19.965412L120.195720,19.965489L120.195810,19.965558L120.215593,19.979489L120.215714,19.979565L120.497564,20.137403L120.497669,20.137456L120.497778,20.137500L120.497891,20.137534L120.665616,20.181465L120.665719,20.181488L120.665823,20.181503L120.837580,20.199475L120.837723,20.199482L120.837866,20.199475L121.013605,20.181503L121.013717,20.181487L121.013827,20.181462L121.175614,20.137518L121.175719,20.137485L121.175820,20.137444L121.335608,20.065540L121.335714,20.065486L121.335815,20.065424L121.483609,19.965567L121.483715,19.965487L121.483813,19.965398L121.607630,19.841581L121.607715,19.841488L121.607791,19.841388L121.705654,19.699584L121.705715,19.699487L121.705768,19.699385L121.781667,19.537609L121.781717,19.537489L121.781755,19.537364L121.823688,19.373596L121.823711,19.373489L121.823725,19.373379L121.839710,19.199616L121.839716,19.199490L121.839710,19.199363L121.823725,19.023598L121.823711,19.023492L121.823689,19.023387L121.812545,18.978801L121.812538,18.978775L121.779748,18.857607L121.779712,18.857492L121.779665,18.857381L121.705768,18.699594L121.705715,18.699492L121.705653,18.699394L121.607791,18.557595L121.607715,18.557495L121.607630,18.557402L121.483808,18.433580L121.483715,18.433495L121.483615,18.433419L121.335814,18.331557L121.335714,18.331494L121.335609,18.331440L121.177717,18.258415L121.177610,18.258371L121.177500,18.258336L121.013843,18.213524L121.013717,18.213496L121.013588,18.213479L120.839834,18.199499L120.839722,18.199494L120.839610,18.199499L120.667846,18.213479L120.667718,18.213495L120.667592,18.213524L120.499829,18.259460L120.499719,18.259495L120.499613,18.259539L120.339836,18.333440L120.339725,18.333497L120.339619,18.333565L120.197821,18.433422Z M96.103331,-17.418736L96.103350,-17.418703L96.105169,-17.415065L96.105239,-17.414941L96.105321,-17.414825L96.105415,-17.414718L96.105519,-17.414621L96.105633,-17.414536L96.247258,-17.318798L96.247347,-17.318742L96.247440,-17.318694L96.283540,-17.301546L96.283566,-17.301534L96.405229,-17.246788L96.405336,-17.246745L96.405447,-17.246711L96.573232,-17.202768L96.573334,-17.202746L96.573439,-17.202731L96.745188,-17.184759L96.745331,-17.184751L96.745474,-17.184758L96.921213,-17.202730L96.921325,-17.202746L96.921435,-17.202771L97.083238,-17.246712L97.083342,-17.246744L97.083444,-17.246785L97.243223,-17.318690L97.243329,-17.318743L97.243431,-17.318806L97.391217,-17.418663L97.391323,-17.418742L97.391421,-17.418832L97.515246,-17.542649L97.515331,-17.542742L97.515407,-17.542842L97.613277,-17.684649L97.613338,-17.684746L97.613391,-17.684848L97.689276,-17.846620L97.689325,-17.846741L97.689364,-17.846866L97.731311,-18.010633L97.731334,-18.010741L97.731349,-18.010850L97.747333,-18.184617L97.747339,-18.184744L97.747333,-18.184870L97.731348,-18.360632L97.731334,-18.360738L97.731312,-18.360843L97.720198,-18.405291L97.720192,-18.405317L97.687364,-18.526622L97.687327,-18.526737L97.687281,-18.526849L97.613391,-18.684639L97.613338,-18.684741L97.613277,-18.684839L97.515407,-18.826638L97.515331,-18.826739L97.515246,-18.826831L97.391416,-18.950653L97.391323,-18.950738L97.391223,-18.950815L97.243429,-19.052673L97.243329,-19.052736L97.243224,-19.052790L97.085361,-19.125804L97.085255,-19.125848L97.085145,-19.125883L96.921451,-19.170710L96.921325,-19.170738L96.921196,-19.170754L96.747457,-19.184735L96.747345,-19.184739L96.747233,-19.184735L96.575462,-19.170754L96.575334,-19.170738L96.575208,-19.170710L96.407445,-19.124769L96.407335,-19.124734L96.407229,-19.124690L96.247459,-19.050794L96.247348,-19.050736L96.247242,-19.050669L96.105429,-18.950812L96.105335,-18.950739L96.105247,-18.950658L95.981423,-18.826827L95.981342,-18.826739L95.981270,-18.826644L95.892585,-18.700721L95.892562,-18.700688L95.883380,-18.686816L95.883292,-18.686664L95.842853,-18.604748L95.842847,-18.604736L95.805387,-18.526862L95.805335,-18.526737L95.805294,-18.526608L95.761367,-18.356857L95.761342,-18.356740L95.761328,-18.356621L95.747354,-18.182849L95.747350,-18.182737L95.747354,-18.182625L95.761327,-18.010866L95.761343,-18.010741L95.761370,-18.010619L95.805295,-17.846864L95.805334,-17.846741L95.805385,-17.846622L95.883288,-17.684833L95.883386,-17.684662L95.981164,-17.539000L95.981248,-17.538888L95.981343,-17.538785L96.103305,-17.418764L96.103331,-17.418736Z M95.794415,1.168459L95.794455,1.168583L95.794505,1.168702L95.872409,1.330494L95.872507,1.330666L95.970284,1.476323L95.970368,1.476436L95.970463,1.476539L96.092327,1.596463L96.092414,1.596541L96.092507,1.596612L96.092606,1.596675L96.372338,1.758623L96.372463,1.758688L96.394349,1.768536L96.394457,1.768579L96.394567,1.768613L96.562352,1.812559L96.562455,1.812582L96.562559,1.812597L96.734308,1.830569L96.734451,1.830576L96.734594,1.830569L96.910333,1.812597L96.910445,1.812581L96.910556,1.812556L97.072358,1.768612L97.072463,1.768579L97.072564,1.768538L97.232344,1.696634L97.232450,1.696580L97.232551,1.696518L97.380337,1.596661L97.380443,1.596581L97.380541,1.596492L97.504366,1.472675L97.504451,1.472582L97.504527,1.472482L97.602397,1.330678L97.602459,1.330581L97.602512,1.330479L97.678396,1.168703L97.678446,1.168583L97.678484,1.168458L97.720432,1.004691L97.720455,1.004583L97.720469,1.004473L97.736454,0.830710L97.736460,0.830584L97.736454,0.830457L97.720469,0.654692L97.720455,0.654586L97.720433,0.654481L97.709328,0.610068L97.709321,0.610042L97.676484,0.488701L97.676448,0.488586L97.676401,0.488475L97.602512,0.330688L97.602459,0.330586L97.602397,0.330488L97.504527,0.188689L97.504451,0.188589L97.504366,0.188496L97.380537,0.064674L97.380444,0.064589L97.380343,0.064513L97.232550,-0.037349L97.232450,-0.037412L97.232345,-0.037466L97.074482,-0.110480L97.074376,-0.110524L97.074266,-0.110559L96.910572,-0.155382L96.910445,-0.155410L96.910316,-0.155427L96.736577,-0.169407L96.736465,-0.169412L96.736353,-0.169407L96.564582,-0.155427L96.564454,-0.155411L96.564328,-0.155382L96.396565,-0.109446L96.396456,-0.109411L96.396349,-0.109367L96.236579,-0.035466L96.236468,-0.035409L96.236363,-0.035342L96.094550,0.064516L96.094455,0.064589L96.094367,0.064669L95.970544,0.188501L95.970463,0.188589L95.970390,0.188683L95.881705,0.314606L95.881683,0.314640L95.872500,0.328512L95.872413,0.328663L95.831974,0.410575L95.831968,0.410588L95.794508,0.488462L95.794455,0.488587L95.794415,0.488716L95.750488,0.658470L95.750463,0.658587L95.750448,0.658706L95.736474,0.832474L95.736470,0.832586L95.736475,0.832698L95.750448,1.004458L95.750463,1.004582L95.750490,1.004705L95.794415,1.168459Z" fill="black" fill-rule="evenodd" stroke="black" stroke-width="0.1"/>
</svg>