<?xml version="1.0" standalone="no"?>
 <!DOCTYPE svg PUBLIC "-//W3C//DTD SVG 1.1//EN" 
 "http://www.w3.org/Graphics/SVG/1.1/DTD/svg11.dtd"> 
<svg
  xmlns:svg="http://www.w3.org/2000/svg"
  xmlns="http://www.w3.org/2000/svg"
  xmlns:xlink="http://www.w3.org/1999/xlink"
  xmlns:inkscape="http://www.inkscape.org/namespaces/inkscape"
  version="1.1"
  width="197.9168mm" height="91.6178mm" viewBox="0.0000 0.0000 197.9168 91.6178">
<title>SVG Image created as base_plate.svg date 2026-05-07T01:13:55 </title>
  <desc>Image generated by PCBNEW </desc>
<g style="fill:#000000; fill-opacity:1.0000;stroke:#000000; stroke-opacity:1.0000;
stroke-linecap:round; stroke-linejoin:round;"
 transform="translate(0 0) scale(1 1)">
</g>
<g style="fill:none; 
stroke:#000000; stroke-width:0.2000; stroke-opacity:1; 
stroke-linecap:round; stroke-linejoin:round;">
<path d="M0.1000,0.1000 C0.1000,0.1000 0.1000,0.1000 0.1000,0.1000" />
<path d="M64.0848 34.8516
L64.0857 62.8937
" />
<path d="M64.0857,7.6437 C64.0857,7.6437 64.0857,7.6437 64.0857,7.6437" />
<path d="M64.0857 7.6437
L64.0848 34.8516
" />
<path d="M64.0857,62.8937 C64.0857,63.1698 64.3096,63.3936 64.5858,63.3936" />
<path d="M64.5858,63.3936 C64.5858,63.3936 64.5858,63.3936 64.5858,63.3936" />
<path d="M64.5858,7.1438 C64.3097,7.1437 64.0857,7.3675 64.0857,7.6437" />
<path d="M64.5858 63.3936
L76.7670 63.3938
" />
</g>
<g style="fill:none; 
stroke:#000000; stroke-width:0.2646; stroke-opacity:1; 
stroke-linecap:round; stroke-linejoin:round;">
<path d="M81.4727 25.8727
L81.4741 25.8161
" />
<path d="M81.4727 44.9226
L81.4741 44.8660
" />
<path d="M81.4741 25.8161
L81.4784 25.7602
" />
<path d="M81.4741 25.9293
L81.4727 25.8727
" />
<path d="M81.4741 44.8660
L81.4784 44.8102
" />
<path d="M81.4741 44.9792
L81.4727 44.9226
" />
<path d="M81.4784 25.7602
L81.4854 25.7052
" />
<path d="M81.4784 25.9851
L81.4741 25.9293
" />
<path d="M81.4784 44.8102
L81.4854 44.7551
" />
<path d="M81.4784 45.0351
L81.4741 44.9792
" />
<path d="M81.4854 25.7052
L81.4950 25.6510
" />
<path d="M81.4854 26.0402
L81.4784 25.9851
" />
<path d="M81.4854 44.7551
L81.4950 44.7009
" />
<path d="M81.4854 45.0901
L81.4784 45.0351
" />
<path d="M81.4950 25.6510
L81.5073 25.5978
" />
<path d="M81.4950 26.0944
L81.4854 26.0402
" />
<path d="M81.4950 44.7009
L81.5073 44.6477
" />
<path d="M81.4950 45.1443
L81.4854 45.0901
" />
<path d="M81.5073 25.5978
L81.5222 25.5456
" />
<path d="M81.5073 26.1476
L81.4950 26.0944
" />
<path d="M81.5073 44.6477
L81.5222 44.5955
" />
<path d="M81.5073 45.1975
L81.4950 45.1443
" />
<path d="M81.5222 25.5456
L81.5394 25.4945
" />
<path d="M81.5222 26.1998
L81.5073 26.1476
" />
<path d="M81.5222 44.5955
L81.5394 44.5444
" />
<path d="M81.5222 45.2497
L81.5073 45.1975
" />
<path d="M81.5394 25.4945
L81.5591 25.4445
" />
<path d="M81.5394 26.2509
L81.5222 26.1998
" />
<path d="M81.5394 44.5444
L81.5591 44.4945
" />
<path d="M81.5394 45.3008
L81.5222 45.2497
" />
<path d="M81.5591 25.4445
L81.5812 25.3958
" />
<path d="M81.5591 26.3008
L81.5394 26.2509
" />
<path d="M81.5591 44.4945
L81.5812 44.4457
" />
<path d="M81.5591 45.3508
L81.5394 45.3008
" />
<path d="M81.5812 25.3958
L81.6055 25.3484
" />
<path d="M81.5812 26.3496
L81.5591 26.3008
" />
<path d="M81.5812 44.4457
L81.6055 44.3983
" />
<path d="M81.5812 45.3995
L81.5591 45.3508
" />
<path d="M81.6055 25.3484
L81.6319 25.3023
" />
<path d="M81.6055 26.3970
L81.5812 26.3496
" />
<path d="M81.6055 44.3983
L81.6319 44.3522
" />
<path d="M81.6055 45.4469
L81.5812 45.3995
" />
<path d="M81.6319 25.3023
L81.6606 25.2577
" />
<path d="M81.6319 26.4430
L81.6055 26.3970
" />
<path d="M81.6319 44.3522
L81.6606 44.3076
" />
<path d="M81.6319 45.4930
L81.6055 45.4469
" />
<path d="M81.6606 25.2577
L81.6912 25.2146
" />
<path d="M81.6606 26.4877
L81.6319 26.4430
" />
<path d="M81.6606 44.3076
L81.6912 44.2645
" />
<path d="M81.6606 45.5376
L81.6319 45.4930
" />
<path d="M81.6912 25.2146
L81.7239 25.1730
" />
<path d="M81.6912 26.5308
L81.6606 26.4877
" />
<path d="M81.6912 44.2645
L81.7239 44.2229
" />
<path d="M81.6912 45.5807
L81.6606 45.5376
" />
<path d="M81.7239 25.1730
L81.7585 25.1331
" />
<path d="M81.7239 26.5724
L81.6912 26.5308
" />
<path d="M81.7239 44.2229
L81.7585 44.1830
" />
<path d="M81.7239 45.6223
L81.6912 45.5807
" />
<path d="M81.7585 25.1331
L81.7949 25.0949
" />
<path d="M81.7585 26.6123
L81.7239 26.5724
" />
<path d="M81.7585 44.1830
L81.7949 44.1448
" />
<path d="M81.7585 45.6622
L81.7239 45.6223
" />
<path d="M81.7949 25.0949
L81.8331 25.0585
" />
<path d="M81.7949 26.6505
L81.7585 26.6123
" />
<path d="M81.7949 44.1448
L81.8331 44.1084
" />
<path d="M81.7949 45.7004
L81.7585 45.6622
" />
<path d="M81.8331 25.0585
L81.8730 25.0239
" />
<path d="M81.8331 26.6869
L81.7949 26.6505
" />
<path d="M81.8331 44.1084
L81.8730 44.0738
" />
<path d="M81.8331 45.7368
L81.7949 45.7004
" />
<path d="M81.8730 25.0239
L81.9145 24.9912
" />
<path d="M81.8730 26.7215
L81.8331 26.6869
" />
<path d="M81.8730 44.0738
L81.9145 44.0412
" />
<path d="M81.8730 45.7714
L81.8331 45.7368
" />
<path d="M81.9145 24.9912
L81.9577 24.9606
" />
<path d="M81.9145 26.7541
L81.8730 26.7215
" />
<path d="M81.9145 44.0412
L81.9577 44.0105
" />
<path d="M81.9145 45.8041
L81.8730 45.7714
" />
<path d="M81.9577 24.9606
L82.0023 24.9320
" />
<path d="M81.9577 26.7848
L81.9145 26.7541
" />
<path d="M81.9577 44.0105
L82.0023 43.9819
" />
<path d="M81.9577 45.8347
L81.9145 45.8041
" />
<path d="M82.0023 24.9320
L82.0484 24.9055
" />
<path d="M82.0023 26.8134
L81.9577 26.7848
" />
<path d="M82.0023 43.9819
L82.0484 43.9554
" />
<path d="M82.0023 45.8633
L81.9577 45.8347
" />
<path d="M82.0484 24.9055
L82.0958 24.8812
" />
<path d="M82.0484 26.8399
L82.0023 26.8134
" />
<path d="M82.0484 43.9554
L82.0958 43.9311
" />
<path d="M82.0484 45.8898
L82.0023 45.8633
" />
<path d="M82.0958 24.8812
L82.1445 24.8592
" />
<path d="M82.0958 26.8642
L82.0484 26.8399
" />
<path d="M82.0958 43.9311
L82.1445 43.9091
" />
<path d="M82.0958 45.9141
L82.0484 45.8898
" />
<path d="M82.1445 24.8592
L82.1945 24.8395
" />
<path d="M82.1445 26.8862
L82.0958 26.8642
" />
<path d="M82.1445 43.9091
L82.1945 43.8894
" />
<path d="M82.1445 45.9361
L82.0958 45.9141
" />
<path d="M82.1945 24.8395
L82.2456 24.8222
" />
<path d="M82.1945 26.9059
L82.1445 26.8862
" />
<path d="M82.1945 43.8894
L82.2456 43.8721
" />
<path d="M82.1945 45.9558
L82.1445 45.9361
" />
<path d="M82.2456 24.8222
L82.2978 24.8073
" />
<path d="M82.2456 26.9232
L82.1945 26.9059
" />
<path d="M82.2456 43.8721
L82.2978 43.8573
" />
<path d="M82.2456 45.9731
L82.1945 45.9558
" />
<path d="M82.2978 24.8073
L82.3510 24.7951
" />
<path d="M82.2978 26.9380
L82.2456 26.9232
" />
<path d="M82.2978 43.8573
L82.3510 43.8450
" />
<path d="M82.2978 45.9879
L82.2456 45.9731
" />
<path d="M82.3510 24.7951
L82.4052 24.7854
" />
<path d="M82.3510 26.9503
L82.2978 26.9380
" />
<path d="M82.3510 43.8450
L82.4052 43.8353
" />
<path d="M82.3510 46.0002
L82.2978 45.9879
" />
<path d="M82.4052 24.7854
L82.4602 24.7784
" />
<path d="M82.4052 26.9600
L82.3510 26.9503
" />
<path d="M82.4052 43.8353
L82.4602 43.8283
" />
<path d="M82.4052 46.0099
L82.3510 46.0002
" />
<path d="M82.4602 24.7784
L82.5161 24.7742
" />
<path d="M82.4602 26.9670
L82.4052 26.9600
" />
<path d="M82.4602 43.8283
L82.5161 43.8241
" />
<path d="M82.4602 46.0169
L82.4052 46.0099
" />
<path d="M82.5161 24.7742
L82.5727 24.7727
" />
<path d="M82.5161 26.9712
L82.4602 26.9670
" />
<path d="M82.5161 43.8241
L82.5727 43.8227
" />
<path d="M82.5161 46.0211
L82.4602 46.0169
" />
<path d="M82.5727 24.7727
L82.6293 24.7742
" />
<path d="M82.5727 26.9726
L82.5161 26.9712
" />
<path d="M82.5727 43.8227
L82.6293 43.8241
" />
<path d="M82.5727 46.0226
L82.5161 46.0211
" />
<path d="M82.6293 24.7742
L82.6851 24.7784
" />
<path d="M82.6293 26.9712
L82.5727 26.9726
" />
<path d="M82.6293 43.8241
L82.6851 43.8283
" />
<path d="M82.6293 46.0211
L82.5727 46.0226
" />
<path d="M82.6851 24.7784
L82.7402 24.7854
" />
<path d="M82.6851 26.9670
L82.6293 26.9712
" />
<path d="M82.6851 43.8283
L82.7402 43.8353
" />
<path d="M82.6851 46.0169
L82.6293 46.0211
" />
<path d="M82.7402 24.7854
L82.7943 24.7951
" />
<path d="M82.7402 26.9600
L82.6851 26.9670
" />
<path d="M82.7402 43.8353
L82.7943 43.8450
" />
<path d="M82.7402 46.0099
L82.6851 46.0169
" />
<path d="M82.7943 24.7951
L82.8476 24.8073
" />
<path d="M82.7943 26.9503
L82.7402 26.9600
" />
<path d="M82.7943 43.8450
L82.8476 43.8573
" />
<path d="M82.7943 46.0002
L82.7402 46.0099
" />
<path d="M82.8476 24.8073
L82.8998 24.8222
" />
<path d="M82.8476 26.9380
L82.7943 26.9503
" />
<path d="M82.8476 43.8573
L82.8998 43.8721
" />
<path d="M82.8476 45.9879
L82.7943 46.0002
" />
<path d="M82.8998 24.8222
L82.9509 24.8395
" />
<path d="M82.8998 26.9232
L82.8476 26.9380
" />
<path d="M82.8998 43.8721
L82.9509 43.8894
" />
<path d="M82.8998 45.9731
L82.8476 45.9879
" />
<path d="M82.9509 24.8395
L83.0008 24.8592
" />
<path d="M82.9509 26.9059
L82.8998 26.9232
" />
<path d="M82.9509 43.8894
L83.0008 43.9091
" />
<path d="M82.9509 45.9558
L82.8998 45.9731
" />
<path d="M83.0008 24.8592
L83.0495 24.8812
" />
<path d="M83.0008 26.8862
L82.9509 26.9059
" />
<path d="M83.0008 43.9091
L83.0495 43.9311
" />
<path d="M83.0008 45.9361
L82.9509 45.9558
" />
<path d="M83.0495 24.8812
L83.0970 24.9055
" />
<path d="M83.0495 26.8642
L83.0008 26.8862
" />
<path d="M83.0495 43.9311
L83.0970 43.9554
" />
<path d="M83.0495 45.9141
L83.0008 45.9361
" />
<path d="M83.0970 24.9055
L83.1430 24.9320
" />
<path d="M83.0970 26.8399
L83.0495 26.8642
" />
<path d="M83.0970 43.9554
L83.1430 43.9819
" />
<path d="M83.0970 45.8898
L83.0495 45.9141
" />
<path d="M83.1430 24.9320
L83.1877 24.9606
" />
<path d="M83.1430 26.8134
L83.0970 26.8399
" />
<path d="M83.1430 43.9819
L83.1877 44.0105
" />
<path d="M83.1430 45.8633
L83.0970 45.8898
" />
<path d="M83.1877 24.9606
L83.2308 24.9912
" />
<path d="M83.1877 26.7848
L83.1430 26.8134
" />
<path d="M83.1877 44.0105
L83.2308 44.0412
" />
<path d="M83.1877 45.8347
L83.1430 45.8633
" />
<path d="M83.2308 24.9912
L83.2723 25.0239
" />
<path d="M83.2308 26.7541
L83.1877 26.7848
" />
<path d="M83.2308 44.0412
L83.2723 44.0738
" />
<path d="M83.2308 45.8041
L83.1877 45.8347
" />
<path d="M83.2723 25.0239
L83.3122 25.0585
" />
<path d="M83.2723 26.7215
L83.2308 26.7541
" />
<path d="M83.2723 44.0738
L83.3122 44.1084
" />
<path d="M83.2723 45.7714
L83.2308 45.8041
" />
<path d="M83.3122 25.0585
L83.3504 25.0949
" />
<path d="M83.3122 26.6869
L83.2723 26.7215
" />
<path d="M83.3122 44.1084
L83.3504 44.1448
" />
<path d="M83.3122 45.7368
L83.2723 45.7714
" />
<path d="M83.3504 25.0949
L83.3869 25.1331
" />
<path d="M83.3504 26.6505
L83.3122 26.6869
" />
<path d="M83.3504 44.1448
L83.3869 44.1830
" />
<path d="M83.3504 45.7004
L83.3122 45.7368
" />
<path d="M83.3869 25.1331
L83.4214 25.1730
" />
<path d="M83.3869 26.6123
L83.3504 26.6505
" />
<path d="M83.3869 44.1830
L83.4214 44.2229
" />
<path d="M83.3869 45.6622
L83.3504 45.7004
" />
<path d="M83.4214 25.1730
L83.4541 25.2146
" />
<path d="M83.4214 26.5724
L83.3869 26.6123
" />
<path d="M83.4214 44.2229
L83.4541 44.2645
" />
<path d="M83.4214 45.6223
L83.3869 45.6622
" />
<path d="M83.4541 25.2146
L83.4848 25.2577
" />
<path d="M83.4541 26.5308
L83.4214 26.5724
" />
<path d="M83.4541 44.2645
L83.4848 44.3076
" />
<path d="M83.4541 45.5807
L83.4214 45.6223
" />
<path d="M83.4848 25.2577
L83.5134 25.3023
" />
<path d="M83.4848 26.4877
L83.4541 26.5308
" />
<path d="M83.4848 44.3076
L83.5134 44.3522
" />
<path d="M83.4848 45.5376
L83.4541 45.5807
" />
<path d="M83.5134 25.3023
L83.5399 25.3484
" />
<path d="M83.5134 26.4430
L83.4848 26.4877
" />
<path d="M83.5134 44.3522
L83.5399 44.3983
" />
<path d="M83.5134 45.4930
L83.4848 45.5376
" />
<path d="M83.5399 25.3484
L83.5642 25.3958
" />
<path d="M83.5399 26.3970
L83.5134 26.4430
" />
<path d="M83.5399 44.3983
L83.5642 44.4457
" />
<path d="M83.5399 45.4469
L83.5134 45.4930
" />
<path d="M83.5642 25.3958
L83.5862 25.4445
" />
<path d="M83.5642 26.3496
L83.5399 26.3970
" />
<path d="M83.5642 44.4457
L83.5862 44.4945
" />
<path d="M83.5642 45.3995
L83.5399 45.4469
" />
<path d="M83.5862 25.4445
L83.6059 25.4945
" />
<path d="M83.5862 26.3008
L83.5642 26.3496
" />
<path d="M83.5862 44.4945
L83.6059 44.5444
" />
<path d="M83.5862 45.3508
L83.5642 45.3995
" />
<path d="M83.6059 25.4945
L83.6232 25.5456
" />
<path d="M83.6059 26.2509
L83.5862 26.3008
" />
<path d="M83.6059 44.5444
L83.6232 44.5955
" />
<path d="M83.6059 45.3008
L83.5862 45.3508
" />
<path d="M83.6232 25.5456
L83.6380 25.5978
" />
<path d="M83.6232 26.1998
L83.6059 26.2509
" />
<path d="M83.6232 44.5955
L83.6380 44.6477
" />
<path d="M83.6232 45.2497
L83.6059 45.3008
" />
<path d="M83.6380 25.5978
L83.6503 25.6510
" />
<path d="M83.6380 26.1476
L83.6232 26.1998
" />
<path d="M83.6380 44.6477
L83.6503 44.7009
" />
<path d="M83.6380 45.1975
L83.6232 45.2497
" />
<path d="M83.6503 25.6510
L83.6599 25.7052
" />
<path d="M83.6503 26.0944
L83.6380 26.1476
" />
<path d="M83.6503 44.7009
L83.6599 44.7551
" />
<path d="M83.6503 45.1443
L83.6380 45.1975
" />
<path d="M83.6599 25.7052
L83.6669 25.7602
" />
<path d="M83.6599 26.0402
L83.6503 26.0944
" />
<path d="M83.6599 44.7551
L83.6669 44.8102
" />
<path d="M83.6599 45.0901
L83.6503 45.1443
" />
<path d="M83.6669 25.7602
L83.6712 25.8161
" />
<path d="M83.6669 25.9851
L83.6599 26.0402
" />
<path d="M83.6669 44.8102
L83.6712 44.8660
" />
<path d="M83.6669 45.0351
L83.6599 45.0901
" />
<path d="M83.6712 25.8161
L83.6726 25.8727
" />
<path d="M83.6712 25.9293
L83.6669 25.9851
" />
<path d="M83.6712 44.8660
L83.6726 44.9226
" />
<path d="M83.6712 44.9792
L83.6669 45.0351
" />
<path d="M83.6726 25.8727
L83.6712 25.9293
" />
<path d="M83.6726 44.9226
L83.6712 44.9792
" />
</g>
<g style="fill:none; 
stroke:#000000; stroke-width:0.2000; stroke-opacity:1; 
stroke-linecap:round; stroke-linejoin:round;">
<path d="M97.4528 63.3946
L76.7670 63.3938
" />
<path d="M101.0456 63.3936
L97.4528 63.3946
" />
<path d="M101.3992,63.5401 C101.3055,63.4463 101.1783,63.3936 101.0456,63.3936" />
<path d="M101.3992 63.5401
L111.5887 77.8507
" />
<path d="M101.5844 7.1420
L64.5858 7.1438
" />
<path d="M101.5857,7.1438 C101.8618,7.1439 102.0857,6.9201 102.0858,6.6439" />
<path d="M102.0848 2.8926
L102.0848 6.6416
" />
<path d="M102.0858,6.6439 C102.0858,6.6438 102.0858,6.6438 102.0858,6.6437" />
<path d="M102.5857,2.3937 C102.3096,2.3938 102.0859,2.6176 102.0858,2.8936" />
<path d="M102.5857 2.3937
L113.6428 2.3937
" />
</g>
<g style="fill:none; 
stroke:#000000; stroke-width:0.2646; stroke-opacity:1; 
stroke-linecap:round; stroke-linejoin:round;">
<path d="M105.4788 63.2691
L105.4802 63.2125
" />
<path d="M105.4802 63.2125
L105.4845 63.1566
" />
<path d="M105.4802 63.3257
L105.4788 63.2691
" />
<path d="M105.4845 63.1566
L105.4915 63.1016
" />
<path d="M105.4845 63.3816
L105.4802 63.3257
" />
<path d="M105.4915 63.1016
L105.5011 63.0474
" />
<path d="M105.4915 63.4366
L105.4845 63.3816
" />
<path d="M105.5011 63.0474
L105.5134 62.9942
" />
<path d="M105.5011 63.4908
L105.4915 63.4366
" />
<path d="M105.5134 62.9942
L105.5282 62.9420
" />
<path d="M105.5134 63.5440
L105.5011 63.4908
" />
<path d="M105.5282 62.9420
L105.5455 62.8909
" />
<path d="M105.5282 63.5962
L105.5134 63.5440
" />
<path d="M105.5455 62.8909
L105.5652 62.8409
" />
<path d="M105.5455 63.6473
L105.5282 63.5962
" />
<path d="M105.5652 62.8409
L105.5872 62.7922
" />
<path d="M105.5652 63.6972
L105.5455 63.6473
" />
<path d="M105.5872 62.7922
L105.6115 62.7448
" />
<path d="M105.5872 63.7460
L105.5652 63.6972
" />
<path d="M105.6115 62.7448
L105.6380 62.6987
" />
<path d="M105.6115 63.7934
L105.5872 63.7460
" />
<path d="M105.6380 62.6987
L105.6666 62.6541
" />
<path d="M105.6380 63.8395
L105.6115 63.7934
" />
<path d="M105.6666 62.6541
L105.6973 62.6110
" />
<path d="M105.6666 63.8841
L105.6380 63.8395
" />
<path d="M105.6973 62.6110
L105.7300 62.5694
" />
<path d="M105.6973 63.9272
L105.6666 63.8841
" />
<path d="M105.7300 62.5694
L105.7645 62.5295
" />
<path d="M105.7300 63.9688
L105.6973 63.9272
" />
<path d="M105.7645 62.5295
L105.8010 62.4913
" />
<path d="M105.7645 64.0087
L105.7300 63.9688
" />
<path d="M105.8010 62.4913
L105.8392 62.4549
" />
<path d="M105.8010 64.0469
L105.7645 64.0087
" />
<path d="M105.8392 62.4549
L105.8791 62.4203
" />
<path d="M105.8392 64.0833
L105.8010 64.0469
" />
<path d="M105.8791 62.4203
L105.9206 62.3877
" />
<path d="M105.8791 64.1179
L105.8392 64.0833
" />
<path d="M105.9206 62.3877
L105.9637 62.3570
" />
<path d="M105.9206 64.1505
L105.8791 64.1179
" />
<path d="M105.9637 62.3570
L106.0084 62.3284
" />
<path d="M105.9637 64.1812
L105.9206 64.1505
" />
<path d="M106.0084 62.3284
L106.0544 62.3019
" />
<path d="M106.0084 64.2098
L105.9637 64.1812
" />
<path d="M106.0544 62.3019
L106.1019 62.2776
" />
<path d="M106.0544 64.2363
L106.0084 64.2098
" />
<path d="M106.1019 62.2776
L106.1506 62.2556
" />
<path d="M106.1019 64.2606
L106.0544 64.2363
" />
<path d="M106.1506 62.2556
L106.2005 62.2359
" />
<path d="M106.1506 64.2826
L106.1019 64.2606
" />
<path d="M106.2005 62.2359
L106.2516 62.2186
" />
<path d="M106.2005 64.3023
L106.1506 64.2826
" />
<path d="M106.2516 62.2186
L106.3038 62.2038
" />
<path d="M106.2516 64.3196
L106.2005 64.3023
" />
<path d="M106.3038 62.2038
L106.3571 62.1915
" />
<path d="M106.3038 64.3344
L106.2516 64.3196
" />
<path d="M106.3571 62.1915
L106.4112 62.1818
" />
<path d="M106.3571 64.3467
L106.3038 64.3344
" />
<path d="M106.4112 62.1818
L106.4663 62.1748
" />
<path d="M106.4112 64.3564
L106.3571 64.3467
" />
<path d="M106.4663 62.1748
L106.5221 62.1706
" />
<path d="M106.4663 64.3634
L106.4112 64.3564
" />
<path d="M106.5221 62.1706
L106.5787 62.1691
" />
<path d="M106.5221 64.3676
L106.4663 64.3634
" />
<path d="M106.5787 62.1691
L106.6353 62.1706
" />
<path d="M106.5787 64.3691
L106.5221 64.3676
" />
<path d="M106.6353 62.1706
L106.6912 62.1748
" />
<path d="M106.6353 64.3676
L106.5787 64.3691
" />
<path d="M106.6912 62.1748
L106.7462 62.1818
" />
<path d="M106.6912 64.3634
L106.6353 64.3676
" />
<path d="M106.7462 62.1818
L106.8004 62.1915
" />
<path d="M106.7462 64.3564
L106.6912 64.3634
" />
<path d="M106.8004 62.1915
L106.8536 62.2038
" />
<path d="M106.8004 64.3467
L106.7462 64.3564
" />
<path d="M106.8536 62.2038
L106.9058 62.2186
" />
<path d="M106.8536 64.3344
L106.8004 64.3467
" />
<path d="M106.9058 62.2186
L106.9569 62.2359
" />
<path d="M106.9058 64.3196
L106.8536 64.3344
" />
<path d="M106.9569 62.2359
L107.0069 62.2556
" />
<path d="M106.9569 64.3023
L106.9058 64.3196
" />
<path d="M107.0069 62.2556
L107.0556 62.2776
" />
<path d="M107.0069 64.2826
L106.9569 64.3023
" />
<path d="M107.0556 62.2776
L107.1030 62.3019
" />
<path d="M107.0556 64.2606
L107.0069 64.2826
" />
<path d="M107.1030 62.3019
L107.1491 62.3284
" />
<path d="M107.1030 64.2363
L107.0556 64.2606
" />
<path d="M107.1491 62.3284
L107.1937 62.3570
" />
<path d="M107.1491 64.2098
L107.1030 64.2363
" />
<path d="M107.1937 62.3570
L107.2369 62.3877
" />
<path d="M107.1937 64.1812
L107.1491 64.2098
" />
<path d="M107.2369 62.3877
L107.2784 62.4203
" />
<path d="M107.2369 64.1505
L107.1937 64.1812
" />
<path d="M107.2784 62.4203
L107.3183 62.4549
" />
<path d="M107.2784 64.1179
L107.2369 64.1505
" />
<path d="M107.3183 62.4549
L107.3565 62.4913
" />
<path d="M107.3183 64.0833
L107.2784 64.1179
" />
<path d="M107.3565 62.4913
L107.3929 62.5295
" />
<path d="M107.3565 64.0469
L107.3183 64.0833
" />
<path d="M107.3929 62.5295
L107.4275 62.5694
" />
<path d="M107.3929 64.0087
L107.3565 64.0469
" />
<path d="M107.4275 62.5694
L107.4602 62.6110
" />
<path d="M107.4275 63.9688
L107.3929 64.0087
" />
<path d="M107.4602 62.6110
L107.4908 62.6541
" />
<path d="M107.4602 63.9272
L107.4275 63.9688
" />
<path d="M107.4908 62.6541
L107.5194 62.6987
" />
<path d="M107.4908 63.8841
L107.4602 63.9272
" />
<path d="M107.5194 62.6987
L107.5459 62.7448
" />
<path d="M107.5194 63.8395
L107.4908 63.8841
" />
<path d="M107.5459 62.7448
L107.5702 62.7922
" />
<path d="M107.5459 63.7934
L107.5194 63.8395
" />
<path d="M107.5702 62.7922
L107.5923 62.8409
" />
<path d="M107.5702 63.7460
L107.5459 63.7934
" />
<path d="M107.5923 62.8409
L107.6119 62.8909
" />
<path d="M107.5923 63.6972
L107.5702 63.7460
" />
<path d="M107.6119 62.8909
L107.6292 62.9420
" />
<path d="M107.6119 63.6473
L107.5923 63.6972
" />
<path d="M107.6292 62.9420
L107.6441 62.9942
" />
<path d="M107.6292 63.5962
L107.6119 63.6473
" />
<path d="M107.6441 62.9942
L107.6563 63.0474
" />
<path d="M107.6441 63.5440
L107.6292 63.5962
" />
<path d="M107.6563 63.0474
L107.6660 63.1016
" />
<path d="M107.6563 63.4908
L107.6441 63.5440
" />
<path d="M107.6660 63.1016
L107.6730 63.1566
" />
<path d="M107.6660 63.4366
L107.6563 63.4908
" />
<path d="M107.6730 63.1566
L107.6773 63.2125
" />
<path d="M107.6730 63.3816
L107.6660 63.4366
" />
<path d="M107.6773 63.2125
L107.6787 63.2691
" />
<path d="M107.6773 63.3257
L107.6730 63.3816
" />
<path d="M107.6787 63.2691
L107.6773 63.3257
" />
</g>
<g style="fill:none; 
stroke:#000000; stroke-width:0.2000; stroke-opacity:1; 
stroke-linecap:round; stroke-linejoin:round;">
<path d="M111.5887,77.8507 C111.6824,77.9445 111.8096,77.9972 111.9422,77.9973" />
<path d="M111.9422 77.9973
L127.7670 77.9973
" />
<path d="M120.5836 2.3922
L113.4728 2.3922
" />
<path d="M120.5856,2.3937 C120.8618,2.3938 121.0857,2.1700 121.0858,1.8939" />
<path d="M121.0858,0.6437 C121.0858,0.6437 121.0858,0.6437 121.0858,0.6437" />
<path d="M121.0858 0.6437
L121.0840 1.8918
" />
<path d="M121.0858,1.8939 C121.0858,1.8938 121.0858,1.8937 121.0858,1.8936" />
<path d="M121.5856,0.1436 C121.3095,0.1436 121.0857,0.3675 121.0858,0.6437" />
<path d="M125.6139,0.1080 C125.6139,0.1080 125.6139,0.1080 125.6139,0.1080" />
<path d="M127.7670 77.9973
L130.4822 77.9973
" />
<path d="M130.4822 77.9973
L167.5062 82.9139
" />
<path d="M138.5846 0.1418
L121.5844 0.1418
" />
<path d="M139.0849 1.8918
L139.0849 0.6422
" />
<path d="M139.0857,0.6437 C139.0858,0.3675 138.8620,0.1436 138.5858,0.1436" />
<path d="M139.0857,1.8936 C139.0856,2.1698 139.3094,2.3937 139.5856,2.3937" />
<path d="M139.5856,2.3937 C139.5857,2.3937 139.5857,2.3937 139.5858,2.3937" />
<path d="M139.5858 2.3937
L151.4628 2.3922
" />
</g>
<g style="fill:none; 
stroke:#000000; stroke-width:0.2646; stroke-opacity:1; 
stroke-linecap:round; stroke-linejoin:round;">
<path d="M157.4727 21.3727
L157.4741 21.3161
" />
<path d="M157.4741 21.3161
L157.4784 21.2602
" />
<path d="M157.4741 21.4293
L157.4727 21.3727
" />
<path d="M157.4784 21.2602
L157.4854 21.2052
" />
<path d="M157.4784 21.4852
L157.4741 21.4293
" />
<path d="M157.4854 21.2052
L157.4951 21.1510
" />
<path d="M157.4854 21.5403
L157.4784 21.4852
" />
<path d="M157.4951 21.1510
L157.5073 21.0978
" />
<path d="M157.4951 21.5945
L157.4854 21.5403
" />
<path d="M157.5073 21.0978
L157.5222 21.0456
" />
<path d="M157.5073 21.6477
L157.4951 21.5945
" />
<path d="M157.5222 21.0456
L157.5395 20.9945
" />
<path d="M157.5222 21.6999
L157.5073 21.6477
" />
<path d="M157.5395 20.9945
L157.5592 20.9445
" />
<path d="M157.5395 21.7510
L157.5222 21.6999
" />
<path d="M157.5592 20.9445
L157.5812 20.8958
" />
<path d="M157.5592 21.8010
L157.5395 21.7510
" />
<path d="M157.5812 20.8958
L157.6055 20.8484
" />
<path d="M157.5812 21.8497
L157.5592 21.8010
" />
</g>
<g style="fill:none; 
stroke:#000000; stroke-width:0.2000; stroke-opacity:1; 
stroke-linecap:round; stroke-linejoin:round;">
<path d="M157.5837 2.3922
L151.4628 2.3922
" />
</g>
<g style="fill:none; 
stroke:#000000; stroke-width:0.2646; stroke-opacity:1; 
stroke-linecap:round; stroke-linejoin:round;">
<path d="M157.6055 20.8484
L157.6320 20.8023
" />
<path d="M157.6055 21.8972
L157.5812 21.8497
" />
<path d="M157.6320 20.8023
L157.6606 20.7577
" />
<path d="M157.6320 21.9432
L157.6055 21.8972
" />
<path d="M157.6606 20.7577
L157.6912 20.7146
" />
<path d="M157.6606 21.9878
L157.6320 21.9432
" />
<path d="M157.6912 20.7146
L157.7239 20.6730
" />
<path d="M157.6912 22.0310
L157.6606 21.9878
" />
<path d="M157.7239 20.6730
L157.7585 20.6331
" />
<path d="M157.7239 22.0725
L157.6912 22.0310
" />
<path d="M157.7585 20.6331
L157.7949 20.5949
" />
<path d="M157.7585 22.1124
L157.7239 22.0725
" />
<path d="M157.7949 20.5949
L157.8331 20.5585
" />
<path d="M157.7949 22.1506
L157.7585 22.1124
" />
<path d="M157.8331 20.5585
L157.8730 20.5239
" />
<path d="M157.8331 22.1870
L157.7949 22.1506
" />
<path d="M157.8730 20.5239
L157.9145 20.4913
" />
<path d="M157.8730 22.2216
L157.8331 22.1870
" />
<path d="M157.9145 20.4913
L157.9577 20.4606
" />
<path d="M157.9145 22.2542
L157.8730 22.2216
" />
<path d="M157.9577 20.4606
L158.0023 20.4320
" />
<path d="M157.9577 22.2849
L157.9145 22.2542
" />
<path d="M158.0023 20.4320
L158.0484 20.4055
" />
<path d="M158.0023 22.3135
L157.9577 22.2849
" />
<path d="M158.0484 20.4055
L158.0958 20.3812
" />
<path d="M158.0484 22.3400
L158.0023 22.3135
" />
</g>
<g style="fill:none; 
stroke:#000000; stroke-width:0.2000; stroke-opacity:1; 
stroke-linecap:round; stroke-linejoin:round;">
<path d="M158.0841 4.3912
L158.0841 2.8926
" />
<path d="M158.0856,2.8936 C158.0856,2.6176 157.8618,2.3938 157.5858,2.3937" />
<path d="M158.0856,4.3937 C158.0857,4.6699 158.3096,4.8937 158.5858,4.8936" />
</g>
<g style="fill:none; 
stroke:#000000; stroke-width:0.2646; stroke-opacity:1; 
stroke-linecap:round; stroke-linejoin:round;">
<path d="M158.0958 20.3812
L158.1445 20.3592
" />
<path d="M158.0958 22.3643
L158.0484 22.3400
" />
<path d="M158.1445 20.3592
L158.1945 20.3395
" />
<path d="M158.1445 22.3863
L158.0958 22.3643
" />
<path d="M158.1945 20.3395
L158.2456 20.3222
" />
<path d="M158.1945 22.4060
L158.1445 22.3863
" />
<path d="M158.2456 20.3222
L158.2978 20.3074
" />
<path d="M158.2456 22.4232
L158.1945 22.4060
" />
<path d="M158.2978 20.3074
L158.3510 20.2951
" />
<path d="M158.2978 22.4381
L158.2456 22.4232
" />
<path d="M158.3510 20.2951
L158.4052 20.2854
" />
<path d="M158.3510 22.4503
L158.2978 22.4381
" />
<path d="M158.4052 20.2854
L158.4602 20.2784
" />
<path d="M158.4052 22.4600
L158.3510 22.4503
" />
<path d="M158.4602 20.2784
L158.5161 20.2742
" />
<path d="M158.4602 22.4670
L158.4052 22.4600
" />
<path d="M158.5161 20.2742
L158.5727 20.2727
" />
<path d="M158.5161 22.4712
L158.4602 22.4670
" />
<path d="M158.5727 20.2727
L158.6293 20.2742
" />
<path d="M158.5727 22.4727
L158.5161 22.4712
" />
<path d="M158.6293 20.2742
L158.6851 20.2784
" />
<path d="M158.6293 22.4712
L158.5727 22.4727
" />
<path d="M158.6851 20.2784
L158.7402 20.2854
" />
<path d="M158.6851 22.4670
L158.6293 22.4712
" />
<path d="M158.7402 20.2854
L158.7943 20.2951
" />
<path d="M158.7402 22.4600
L158.6851 22.4670
" />
<path d="M158.7943 20.2951
L158.8476 20.3074
" />
<path d="M158.7943 22.4503
L158.7402 22.4600
" />
<path d="M158.8476 20.3074
L158.8998 20.3222
" />
<path d="M158.8476 22.4381
L158.7943 22.4503
" />
<path d="M158.8998 20.3222
L158.9509 20.3395
" />
<path d="M158.8998 22.4232
L158.8476 22.4381
" />
<path d="M158.9509 20.3395
L159.0008 20.3592
" />
<path d="M158.9509 22.4060
L158.8998 22.4232
" />
<path d="M159.0008 20.3592
L159.0495 20.3812
" />
<path d="M159.0008 22.3863
L158.9509 22.4060
" />
<path d="M159.0495 20.3812
L159.0970 20.4055
" />
<path d="M159.0495 22.3643
L159.0008 22.3863
" />
<path d="M159.0970 20.4055
L159.1430 20.4320
" />
<path d="M159.0970 22.3400
L159.0495 22.3643
" />
<path d="M159.1430 20.4320
L159.1877 20.4606
" />
<path d="M159.1430 22.3135
L159.0970 22.3400
" />
<path d="M159.1877 20.4606
L159.2308 20.4913
" />
<path d="M159.1877 22.2849
L159.1430 22.3135
" />
<path d="M159.2308 20.4913
L159.2723 20.5239
" />
<path d="M159.2308 22.2542
L159.1877 22.2849
" />
<path d="M159.2723 20.5239
L159.3122 20.5585
" />
<path d="M159.2723 22.2216
L159.2308 22.2542
" />
<path d="M159.3122 20.5585
L159.3504 20.5949
" />
<path d="M159.3122 22.1870
L159.2723 22.2216
" />
<path d="M159.3504 20.5949
L159.3869 20.6331
" />
<path d="M159.3504 22.1506
L159.3122 22.1870
" />
<path d="M159.3869 20.6331
L159.4214 20.6730
" />
<path d="M159.3869 22.1124
L159.3504 22.1506
" />
<path d="M159.4214 20.6730
L159.4541 20.7146
" />
<path d="M159.4214 22.0725
L159.3869 22.1124
" />
<path d="M159.4541 20.7146
L159.4848 20.7577
" />
<path d="M159.4541 22.0310
L159.4214 22.0725
" />
<path d="M159.4848 20.7577
L159.5134 20.8023
" />
<path d="M159.4848 21.9878
L159.4541 22.0310
" />
<path d="M159.5134 20.8023
L159.5399 20.8484
" />
<path d="M159.5134 21.9432
L159.4848 21.9878
" />
<path d="M159.5399 20.8484
L159.5642 20.8958
" />
<path d="M159.5399 21.8972
L159.5134 21.9432
" />
<path d="M159.5642 20.8958
L159.5862 20.9445
" />
<path d="M159.5642 21.8497
L159.5399 21.8972
" />
<path d="M159.5862 20.9445
L159.6059 20.9945
" />
<path d="M159.5862 21.8010
L159.5642 21.8497
" />
<path d="M159.6059 20.9945
L159.6232 21.0456
" />
<path d="M159.6059 21.7510
L159.5862 21.8010
" />
<path d="M159.6232 21.0456
L159.6380 21.0978
" />
<path d="M159.6232 21.6999
L159.6059 21.7510
" />
<path d="M159.6380 21.0978
L159.6503 21.1510
" />
<path d="M159.6380 21.6477
L159.6232 21.6999
" />
<path d="M159.6503 21.1510
L159.6599 21.2052
" />
<path d="M159.6503 21.5945
L159.6380 21.6477
" />
<path d="M159.6599 21.2052
L159.6669 21.2602
" />
<path d="M159.6599 21.5403
L159.6503 21.5945
" />
<path d="M159.6669 21.2602
L159.6712 21.3161
" />
<path d="M159.6669 21.4852
L159.6599 21.5403
" />
<path d="M159.6712 21.3161
L159.6726 21.3727
" />
<path d="M159.6712 21.4293
L159.6669 21.4852
" />
<path d="M159.6726 21.3727
L159.6712 21.4293
" />
</g>
<g style="fill:none; 
stroke:#000000; stroke-width:0.2000; stroke-opacity:1; 
stroke-linecap:round; stroke-linejoin:round;">
<path d="M168.1608,83.0435 C167.9474,82.9790 167.7281,82.9357 167.5062,82.9139" />
<path d="M168.1608 83.0435
L182.4549 91.3046
" />
</g>
<g style="fill:none; 
stroke:#000000; stroke-width:0.2646; stroke-opacity:1; 
stroke-linecap:round; stroke-linejoin:round;">
<path d="M171.2227 69.8726
L171.2242 69.8161
" />
<path d="M171.2242 69.8161
L171.2284 69.7602
" />
<path d="M171.2242 69.9293
L171.2227 69.8726
" />
<path d="M171.2284 69.7602
L171.2354 69.7052
" />
<path d="M171.2284 69.9851
L171.2242 69.9293
" />
<path d="M171.2354 69.7052
L171.2451 69.6511
" />
<path d="M171.2354 70.0402
L171.2284 69.9851
" />
<path d="M171.2451 69.6511
L171.2574 69.5979
" />
<path d="M171.2451 70.0944
L171.2354 70.0402
" />
<path d="M171.2574 69.5979
L171.2722 69.5457
" />
<path d="M171.2574 70.1476
L171.2451 70.0944
" />
<path d="M171.2722 69.5457
L171.2895 69.4946
" />
<path d="M171.2722 70.1998
L171.2574 70.1476
" />
<path d="M171.2895 69.4946
L171.3092 69.4447
" />
<path d="M171.2895 70.2510
L171.2722 70.1998
" />
<path d="M171.3092 69.4447
L171.3312 69.3960
" />
<path d="M171.3092 70.3009
L171.2895 70.2510
" />
<path d="M171.3312 69.3960
L171.3555 69.3486
" />
<path d="M171.3312 70.3497
L171.3092 70.3009
" />
<path d="M171.3555 69.3486
L171.3820 69.3025
" />
<path d="M171.3555 70.3971
L171.3312 70.3497
" />
<path d="M171.3820 69.3025
L171.4106 69.2579
" />
<path d="M171.3820 70.4431
L171.3555 70.3971
" />
<path d="M171.4106 69.2579
L171.4413 69.2148
" />
<path d="M171.4106 70.4878
L171.3820 70.4431
" />
<path d="M171.4413 69.2148
L171.4739 69.1732
" />
<path d="M171.4413 70.5309
L171.4106 70.4878
" />
<path d="M171.4739 69.1732
L171.5085 69.1333
" />
<path d="M171.4739 70.5724
L171.4413 70.5309
" />
<path d="M171.5085 69.1333
L171.5449 69.0951
" />
<path d="M171.5085 70.6124
L171.4739 70.5724
" />
<path d="M171.5449 69.0951
L171.5831 69.0587
" />
<path d="M171.5449 70.6505
L171.5085 70.6124
" />
<path d="M171.5831 69.0587
L171.6230 69.0242
" />
<path d="M171.5831 70.6870
L171.5449 70.6505
" />
<path d="M171.6230 69.0242
L171.6646 68.9915
" />
<path d="M171.6230 70.7215
L171.5831 70.6870
" />
<path d="M171.6646 68.9915
L171.7077 68.9609
" />
<path d="M171.6646 70.7542
L171.6230 70.7215
" />
<path d="M171.7077 68.9609
L171.7523 68.9322
" />
<path d="M171.7077 70.7848
L171.6646 70.7542
" />
<path d="M171.7523 68.9322
L171.7984 68.9058
" />
<path d="M171.7523 70.8134
L171.7077 70.7848
" />
<path d="M171.7984 68.9058
L171.8458 68.8815
" />
<path d="M171.7984 70.8399
L171.7523 70.8134
" />
<path d="M171.8458 68.8815
L171.8946 68.8595
" />
<path d="M171.8458 70.8642
L171.7984 70.8399
" />
<path d="M171.8946 68.8595
L171.9445 68.8398
" />
<path d="M171.8946 70.8862
L171.8458 70.8642
" />
<path d="M171.9445 68.8398
L171.9956 68.8225
" />
<path d="M171.9445 70.9059
L171.8946 70.8862
" />
<path d="M171.9956 68.8225
L172.0478 68.8076
" />
<path d="M171.9956 70.9232
L171.9445 70.9059
" />
<path d="M172.0478 68.8076
L172.1010 68.7954
" />
<path d="M172.0478 70.9380
L171.9956 70.9232
" />
<path d="M172.1010 68.7954
L172.1552 68.7857
" />
<path d="M172.1010 70.9503
L172.0478 70.9380
" />
<path d="M172.1552 68.7857
L172.2102 68.7787
" />
<path d="M172.1552 70.9599
L172.1010 70.9503
" />
<path d="M172.2102 68.7787
L172.2661 68.7744
" />
<path d="M172.2102 70.9669
L172.1552 70.9599
" />
<path d="M172.2661 68.7744
L172.3227 68.7730
" />
<path d="M172.2661 70.9712
L172.2102 70.9669
" />
<path d="M172.3227 68.7730
L172.3793 68.7744
" />
<path d="M172.3227 70.9726
L172.2661 70.9712
" />
<path d="M172.3793 68.7744
L172.4352 68.7787
" />
<path d="M172.3793 70.9712
L172.3227 70.9726
" />
<path d="M172.4352 68.7787
L172.4902 68.7857
" />
<path d="M172.4352 70.9669
L172.3793 70.9712
" />
<path d="M172.4902 68.7857
L172.5444 68.7954
" />
<path d="M172.4902 70.9599
L172.4352 70.9669
" />
<path d="M172.5444 68.7954
L172.5976 68.8076
" />
<path d="M172.5444 70.9503
L172.4902 70.9599
" />
<path d="M172.5976 68.8076
L172.6498 68.8225
" />
<path d="M172.5976 70.9380
L172.5444 70.9503
" />
<path d="M172.6498 68.8225
L172.7009 68.8398
" />
<path d="M172.6498 70.9232
L172.5976 70.9380
" />
<path d="M172.7009 68.8398
L172.7509 68.8595
" />
<path d="M172.7009 70.9059
L172.6498 70.9232
" />
<path d="M172.7509 68.8595
L172.7996 68.8815
" />
<path d="M172.7509 70.8862
L172.7009 70.9059
" />
<path d="M172.7996 68.8815
L172.8470 68.9058
" />
<path d="M172.7996 70.8642
L172.7509 70.8862
" />
<path d="M172.8470 68.9058
L172.8931 68.9322
" />
<path d="M172.8470 70.8399
L172.7996 70.8642
" />
<path d="M172.8931 68.9322
L172.9377 68.9609
" />
<path d="M172.8931 70.8134
L172.8470 70.8399
" />
<path d="M172.9377 68.9609
L172.9808 68.9915
" />
<path d="M172.9377 70.7848
L172.8931 70.8134
" />
<path d="M172.9808 68.9915
L173.0224 69.0242
" />
<path d="M172.9808 70.7542
L172.9377 70.7848
" />
<path d="M173.0224 69.0242
L173.0623 69.0587
" />
<path d="M173.0224 70.7215
L172.9808 70.7542
" />
<path d="M173.0623 69.0587
L173.1005 69.0951
" />
<path d="M173.0623 70.6870
L173.0224 70.7215
" />
<path d="M173.1005 69.0951
L173.1369 69.1333
" />
<path d="M173.1005 70.6505
L173.0623 70.6870
" />
<path d="M173.1369 69.1333
L173.1715 69.1732
" />
<path d="M173.1369 70.6124
L173.1005 70.6505
" />
<path d="M173.1715 69.1732
L173.2041 69.2148
" />
<path d="M173.1715 70.5724
L173.1369 70.6124
" />
<path d="M173.2041 69.2148
L173.2348 69.2579
" />
<path d="M173.2041 70.5309
L173.1715 70.5724
" />
<path d="M173.2348 69.2579
L173.2634 69.3025
" />
<path d="M173.2348 70.4878
L173.2041 70.5309
" />
<path d="M173.2634 69.3025
L173.2899 69.3486
" />
<path d="M173.2634 70.4431
L173.2348 70.4878
" />
<path d="M173.2899 69.3486
L173.3142 69.3960
" />
<path d="M173.2899 70.3971
L173.2634 70.4431
" />
<path d="M173.3142 69.3960
L173.3362 69.4447
" />
<path d="M173.3142 70.3497
L173.2899 70.3971
" />
<path d="M173.3362 69.4447
L173.3559 69.4946
" />
<path d="M173.3362 70.3009
L173.3142 70.3497
" />
<path d="M173.3559 69.4946
L173.3732 69.5457
" />
<path d="M173.3559 70.2510
L173.3362 70.3009
" />
<path d="M173.3732 69.5457
L173.3880 69.5979
" />
<path d="M173.3732 70.1998
L173.3559 70.2510
" />
<path d="M173.3880 69.5979
L173.4003 69.6511
" />
<path d="M173.3880 70.1476
L173.3732 70.1998
" />
<path d="M173.4003 69.6511
L173.4100 69.7052
" />
<path d="M173.4003 70.0944
L173.3880 70.1476
" />
<path d="M173.4100 69.7052
L173.4170 69.7602
" />
<path d="M173.4100 70.0402
L173.4003 70.0944
" />
<path d="M173.4170 69.7602
L173.4212 69.8161
" />
<path d="M173.4170 69.9851
L173.4100 70.0402
" />
<path d="M173.4212 69.8161
L173.4227 69.8726
" />
<path d="M173.4212 69.9293
L173.4170 69.9851
" />
<path d="M173.4227 69.8726
L173.4212 69.9293
" />
</g>
<g style="fill:none; 
stroke:#000000; stroke-width:0.2000; stroke-opacity:1; 
stroke-linecap:round; stroke-linejoin:round;">
<path d="M176.5855 4.8916
L158.5845 4.8916
" />
<path d="M177.0833 5.3920
L177.0856 6.6437
" />
<path d="M177.0856,5.3937 C177.0856,5.1176 176.8619,4.8937 176.5857,4.8936" />
<path d="M177.0856,6.6437 C177.0855,6.9198 177.3093,7.1437 177.5855,7.1438" />
<path d="M177.5855,7.1438 C177.5855,7.1438 177.5856,7.1438 177.5857,7.1438" />
<path d="M182.4557,91.3061 C183.0908,91.7342 183.9526,91.5663 184.3807,90.9313" />
<path d="M184.3807,90.9313 C184.3817,90.9297 184.3827,90.9282 184.3838,90.9266" />
<path d="M184.3830 90.9251
L197.6090 67.9927
" />
<path d="M197.3347 7.1420
L177.5857 7.1438
" />
<path d="M197.6085,67.9912 C197.7612,67.7261 197.8397,67.4247 197.8356,67.1187" />
<path d="M197.8351 7.6424
L197.8351 67.1164
" />
<path d="M197.8356,7.6437 C197.8355,7.3676 197.6118,7.1439 197.3357,7.1438" />
</g>
<g style="fill:#000000; fill-opacity:1.0000; stroke:none;">
<circle cx="140.3128" cy="38.9135" r="3.1000" /> 
<circle cx="121.2628" cy="38.9135" r="1.1000" /> 
<circle cx="140.3128" cy="19.8635" r="1.1000" /> 
<circle cx="140.3128" cy="57.9635" r="1.1000" /> 
</g> 
</svg>
