<?xml version="1.0" standalone="no"?>
 <!DOCTYPE svg PUBLIC "-//W3C//DTD SVG 1.1//EN" 
 "http://www.w3.org/Graphics/SVG/1.1/DTD/svg11.dtd"> 
<svg
  xmlns:svg="http://www.w3.org/2000/svg"
  xmlns="http://www.w3.org/2000/svg"
  xmlns:xlink="http://www.w3.org/1999/xlink"
  xmlns:inkscape="http://www.inkscape.org/namespaces/inkscape"
  version="1.1"
  width="133.7310mm" height="91.3892mm" viewBox="0.0000 0.0000 133.7310 91.3892">
<title>SVG Image created as base_plate.svg date 2026-05-07T02:25:54 </title>
  <desc>Image generated by PCBNEW </desc>
<g style="fill:#000000; fill-opacity:1.0000;stroke:#000000; stroke-opacity:1.0000;
stroke-linecap:round; stroke-linejoin:round;"
 transform="translate(0 0) scale(1 1)">
</g>
<g style="fill:none; 
stroke:#000000; stroke-width:0.2000; stroke-opacity:1; 
stroke-linecap:round; stroke-linejoin:round;">
<path d="M0.0000 34.7100
L0.0000 62.7500
" />
<path d="M0.0000 7.5000
L0.0000 34.7100
" />
<path d="M0.0000,62.7500 C0.0000,63.0300 0.2200,63.2500 0.5000,63.2500" />
<path d="M0.5000,7.0000 C0.2200,7.0000 0.0000,7.2300 0.0000,7.5000" />
<path d="M0.5000 63.2500
L12.6800 63.2500
" />
</g>
<g style="fill:none; 
stroke:#000000; stroke-width:0.2646; stroke-opacity:1; 
stroke-linecap:round; stroke-linejoin:round;">
<path d="M17.3800 25.7300
L17.3800 25.6700
" />
<path d="M17.3800 44.7800
L17.3800 44.7200
" />
<path d="M17.3800 25.6700
L17.3900 25.6200
" />
<path d="M17.3800 25.7900
L17.3800 25.7300
" />
<path d="M17.3800 44.7200
L17.3900 44.6700
" />
<path d="M17.3800 44.8400
L17.3800 44.7800
" />
<path d="M17.3900 25.6200
L17.4000 25.5600
" />
<path d="M17.3900 25.8400
L17.3800 25.7900
" />
<path d="M17.3900 44.6700
L17.4000 44.6100
" />
<path d="M17.3900 44.8900
L17.3800 44.8400
" />
<path d="M17.4000 25.5600
L17.4100 25.5100
" />
<path d="M17.4000 25.9000
L17.3900 25.8400
" />
<path d="M17.4000 44.6100
L17.4100 44.5600
" />
<path d="M17.4000 44.9500
L17.3900 44.8900
" />
<path d="M17.4100 25.5100
L17.4200 25.4600
" />
<path d="M17.4100 25.9500
L17.4000 25.9000
" />
<path d="M17.4100 44.5600
L17.4200 44.5100
" />
<path d="M17.4100 45.0000
L17.4000 44.9500
" />
<path d="M17.4200 25.4600
L17.4300 25.4000
" />
<path d="M17.4200 26.0100
L17.4100 25.9500
" />
<path d="M17.4200 44.5100
L17.4300 44.4500
" />
<path d="M17.4200 45.0600
L17.4100 45.0000
" />
<path d="M17.4300 25.4000
L17.4500 25.3500
" />
<path d="M17.4300 26.0600
L17.4200 26.0100
" />
<path d="M17.4300 44.4500
L17.4500 44.4000
" />
<path d="M17.4300 45.1100
L17.4200 45.0600
" />
<path d="M17.4500 25.3500
L17.4700 25.3000
" />
<path d="M17.4500 26.1100
L17.4300 26.0600
" />
<path d="M17.4500 44.4000
L17.4700 44.3500
" />
<path d="M17.4500 45.1600
L17.4300 45.1100
" />
<path d="M17.4700 25.3000
L17.4900 25.2500
" />
<path d="M17.4700 26.1600
L17.4500 26.1100
" />
<path d="M17.4700 44.3500
L17.4900 44.3000
" />
<path d="M17.4700 45.2100
L17.4500 45.1600
" />
<path d="M17.4900 25.2500
L17.5200 25.2100
" />
<path d="M17.4900 26.2100
L17.4700 26.1600
" />
<path d="M17.4900 44.3000
L17.5200 44.2600
" />
<path d="M17.4900 45.2600
L17.4700 45.2100
" />
<path d="M17.5200 25.2100
L17.5400 25.1600
" />
<path d="M17.5200 26.2600
L17.4900 26.2100
" />
<path d="M17.5200 44.2600
L17.5400 44.2100
" />
<path d="M17.5200 45.3100
L17.4900 45.2600
" />
<path d="M17.5400 25.1600
L17.5700 25.1200
" />
<path d="M17.5400 26.3000
L17.5200 26.2600
" />
<path d="M17.5400 44.2100
L17.5700 44.1700
" />
<path d="M17.5400 45.3500
L17.5200 45.3100
" />
<path d="M17.5700 25.1200
L17.6000 25.0700
" />
<path d="M17.5700 26.3500
L17.5400 26.3000
" />
<path d="M17.5700 44.1700
L17.6000 44.1200
" />
<path d="M17.5700 45.4000
L17.5400 45.3500
" />
<path d="M17.6000 25.0700
L17.6300 25.0300
" />
<path d="M17.6000 26.3900
L17.5700 26.3500
" />
<path d="M17.6000 44.1200
L17.6300 44.0800
" />
<path d="M17.6000 45.4400
L17.5700 45.4000
" />
<path d="M17.6300 25.0300
L17.6700 24.9900
" />
<path d="M17.6300 26.4300
L17.6000 26.3900
" />
<path d="M17.6300 44.0800
L17.6700 44.0400
" />
<path d="M17.6300 45.4800
L17.6000 45.4400
" />
<path d="M17.6700 24.9900
L17.7100 24.9500
" />
<path d="M17.6700 26.4700
L17.6300 26.4300
" />
<path d="M17.6700 44.0400
L17.7100 44.0000
" />
<path d="M17.6700 45.5200
L17.6300 45.4800
" />
<path d="M17.7100 24.9500
L17.7400 24.9200
" />
<path d="M17.7100 26.5100
L17.6700 26.4700
" />
<path d="M17.7100 44.0000
L17.7400 43.9700
" />
<path d="M17.7100 45.5600
L17.6700 45.5200
" />
<path d="M17.7400 24.9200
L17.7800 24.8800
" />
<path d="M17.7400 26.5500
L17.7100 26.5100
" />
<path d="M17.7400 43.9700
L17.7800 43.9300
" />
<path d="M17.7400 45.6000
L17.7100 45.5600
" />
<path d="M17.7800 24.8800
L17.8300 24.8500
" />
<path d="M17.7800 26.5800
L17.7400 26.5500
" />
<path d="M17.7800 43.9300
L17.8300 43.9000
" />
<path d="M17.7800 45.6300
L17.7400 45.6000
" />
<path d="M17.8300 24.8500
L17.8700 24.8200
" />
<path d="M17.8300 26.6100
L17.7800 26.5800
" />
<path d="M17.8300 43.9000
L17.8700 43.8700
" />
<path d="M17.8300 45.6600
L17.7800 45.6300
" />
<path d="M17.8700 24.8200
L17.9100 24.7900
" />
<path d="M17.8700 26.6400
L17.8300 26.6100
" />
<path d="M17.8700 43.8700
L17.9100 43.8400
" />
<path d="M17.8700 45.6900
L17.8300 45.6600
" />
<path d="M17.9100 24.7900
L17.9600 24.7600
" />
<path d="M17.9100 26.6700
L17.8700 26.6400
" />
<path d="M17.9100 43.8400
L17.9600 43.8100
" />
<path d="M17.9100 45.7200
L17.8700 45.6900
" />
<path d="M17.9600 24.7600
L18.0100 24.7400
" />
<path d="M17.9600 26.7000
L17.9100 26.6700
" />
<path d="M17.9600 43.8100
L18.0100 43.7900
" />
<path d="M17.9600 45.7500
L17.9100 45.7200
" />
<path d="M18.0100 24.7400
L18.0600 24.7200
" />
<path d="M18.0100 26.7200
L17.9600 26.7000
" />
<path d="M18.0100 43.7900
L18.0600 43.7700
" />
<path d="M18.0100 45.7700
L17.9600 45.7500
" />
<path d="M18.0600 24.7200
L18.1000 24.7000
" />
<path d="M18.0600 26.7400
L18.0100 26.7200
" />
<path d="M18.0600 43.7700
L18.1000 43.7500
" />
<path d="M18.0600 45.7900
L18.0100 45.7700
" />
<path d="M18.1000 24.7000
L18.1600 24.6800
" />
<path d="M18.1000 26.7600
L18.0600 26.7400
" />
<path d="M18.1000 43.7500
L18.1600 43.7300
" />
<path d="M18.1000 45.8100
L18.0600 45.7900
" />
<path d="M18.1600 24.6800
L18.2100 24.6700
" />
<path d="M18.1600 26.7800
L18.1000 26.7600
" />
<path d="M18.1600 43.7300
L18.2100 43.7200
" />
<path d="M18.1600 45.8300
L18.1000 45.8100
" />
<path d="M18.2100 24.6700
L18.2600 24.6500
" />
<path d="M18.2100 26.8000
L18.1600 26.7800
" />
<path d="M18.2100 43.7200
L18.2600 43.7000
" />
<path d="M18.2100 45.8500
L18.1600 45.8300
" />
<path d="M18.2600 24.6500
L18.3200 24.6400
" />
<path d="M18.2600 26.8100
L18.2100 26.8000
" />
<path d="M18.2600 43.7000
L18.3200 43.6900
" />
<path d="M18.2600 45.8600
L18.2100 45.8500
" />
<path d="M18.3200 24.6400
L18.3700 24.6400
" />
<path d="M18.3200 26.8200
L18.2600 26.8100
" />
<path d="M18.3200 43.6900
L18.3700 43.6900
" />
<path d="M18.3200 45.8700
L18.2600 45.8600
" />
<path d="M18.3700 24.6400
L18.4300 24.6300
" />
<path d="M18.3700 26.8300
L18.3200 26.8200
" />
<path d="M18.3700 43.6900
L18.4300 43.6800
" />
<path d="M18.3700 45.8800
L18.3200 45.8700
" />
<path d="M18.4300 24.6300
L18.4800 24.6300
" />
<path d="M18.4300 26.8300
L18.3700 26.8300
" />
<path d="M18.4300 43.6800
L18.4800 43.6800
" />
<path d="M18.4300 45.8800
L18.3700 45.8800
" />
<path d="M18.4800 24.6300
L18.5400 24.6300
" />
<path d="M18.4800 26.8300
L18.4300 26.8300
" />
<path d="M18.4800 43.6800
L18.5400 43.6800
" />
<path d="M18.4800 45.8800
L18.4300 45.8800
" />
<path d="M18.5400 24.6300
L18.6000 24.6400
" />
<path d="M18.5400 26.8300
L18.4800 26.8300
" />
<path d="M18.5400 43.6800
L18.6000 43.6900
" />
<path d="M18.5400 45.8800
L18.4800 45.8800
" />
<path d="M18.6000 24.6400
L18.6500 24.6400
" />
<path d="M18.6000 26.8300
L18.5400 26.8300
" />
<path d="M18.6000 43.6900
L18.6500 43.6900
" />
<path d="M18.6000 45.8800
L18.5400 45.8800
" />
<path d="M18.6500 24.6400
L18.7000 24.6500
" />
<path d="M18.6500 26.8200
L18.6000 26.8300
" />
<path d="M18.6500 43.6900
L18.7000 43.7000
" />
<path d="M18.6500 45.8700
L18.6000 45.8800
" />
<path d="M18.7000 24.6500
L18.7600 24.6700
" />
<path d="M18.7000 26.8100
L18.6500 26.8200
" />
<path d="M18.7000 43.7000
L18.7600 43.7200
" />
<path d="M18.7000 45.8600
L18.6500 45.8700
" />
<path d="M18.7600 24.6700
L18.8100 24.6800
" />
<path d="M18.7600 26.8000
L18.7000 26.8100
" />
<path d="M18.7600 43.7200
L18.8100 43.7300
" />
<path d="M18.7600 45.8500
L18.7000 45.8600
" />
<path d="M18.8100 24.6800
L18.8600 24.7000
" />
<path d="M18.8100 26.7800
L18.7600 26.8000
" />
<path d="M18.8100 43.7300
L18.8600 43.7500
" />
<path d="M18.8100 45.8300
L18.7600 45.8500
" />
<path d="M18.8600 24.7000
L18.9100 24.7200
" />
<path d="M18.8600 26.7600
L18.8100 26.7800
" />
<path d="M18.8600 43.7500
L18.9100 43.7700
" />
<path d="M18.8600 45.8100
L18.8100 45.8300
" />
<path d="M18.9100 24.7200
L18.9600 24.7400
" />
<path d="M18.9100 26.7400
L18.8600 26.7600
" />
<path d="M18.9100 43.7700
L18.9600 43.7900
" />
<path d="M18.9100 45.7900
L18.8600 45.8100
" />
<path d="M18.9600 24.7400
L19.0100 24.7600
" />
<path d="M18.9600 26.7200
L18.9100 26.7400
" />
<path d="M18.9600 43.7900
L19.0100 43.8100
" />
<path d="M18.9600 45.7700
L18.9100 45.7900
" />
<path d="M19.0100 24.7600
L19.0500 24.7900
" />
<path d="M19.0100 26.7000
L18.9600 26.7200
" />
<path d="M19.0100 43.8100
L19.0500 43.8400
" />
<path d="M19.0100 45.7500
L18.9600 45.7700
" />
<path d="M19.0500 24.7900
L19.1000 24.8200
" />
<path d="M19.0500 26.6700
L19.0100 26.7000
" />
<path d="M19.0500 43.8400
L19.1000 43.8700
" />
<path d="M19.0500 45.7200
L19.0100 45.7500
" />
<path d="M19.1000 24.8200
L19.1400 24.8500
" />
<path d="M19.1000 26.6400
L19.0500 26.6700
" />
<path d="M19.1000 43.8700
L19.1400 43.9000
" />
<path d="M19.1000 45.6900
L19.0500 45.7200
" />
<path d="M19.1400 24.8500
L19.1800 24.8800
" />
<path d="M19.1400 26.6100
L19.1000 26.6400
" />
<path d="M19.1400 43.9000
L19.1800 43.9300
" />
<path d="M19.1400 45.6600
L19.1000 45.6900
" />
<path d="M19.1800 24.8800
L19.2200 24.9200
" />
<path d="M19.1800 26.5800
L19.1400 26.6100
" />
<path d="M19.1800 43.9300
L19.2200 43.9700
" />
<path d="M19.1800 45.6300
L19.1400 45.6600
" />
<path d="M19.2200 24.9200
L19.2600 24.9500
" />
<path d="M19.2200 26.5500
L19.1800 26.5800
" />
<path d="M19.2200 43.9700
L19.2600 44.0000
" />
<path d="M19.2200 45.6000
L19.1800 45.6300
" />
<path d="M19.2600 24.9500
L19.3000 24.9900
" />
<path d="M19.2600 26.5100
L19.2200 26.5500
" />
<path d="M19.2600 44.0000
L19.3000 44.0400
" />
<path d="M19.2600 45.5600
L19.2200 45.6000
" />
<path d="M19.3000 24.9900
L19.3300 25.0300
" />
<path d="M19.3000 26.4700
L19.2600 26.5100
" />
<path d="M19.3000 44.0400
L19.3300 44.0800
" />
<path d="M19.3000 45.5200
L19.2600 45.5600
" />
<path d="M19.3300 25.0300
L19.3600 25.0700
" />
<path d="M19.3300 26.4300
L19.3000 26.4700
" />
<path d="M19.3300 44.0800
L19.3600 44.1200
" />
<path d="M19.3300 45.4800
L19.3000 45.5200
" />
<path d="M19.3600 25.0700
L19.4000 25.1200
" />
<path d="M19.3600 26.3900
L19.3300 26.4300
" />
<path d="M19.3600 44.1200
L19.4000 44.1700
" />
<path d="M19.3600 45.4400
L19.3300 45.4800
" />
<path d="M19.4000 25.1200
L19.4200 25.1600
" />
<path d="M19.4000 26.3500
L19.3600 26.3900
" />
<path d="M19.4000 44.1700
L19.4200 44.2100
" />
<path d="M19.4000 45.4000
L19.3600 45.4400
" />
<path d="M19.4200 25.1600
L19.4500 25.2100
" />
<path d="M19.4200 26.3000
L19.4000 26.3500
" />
<path d="M19.4200 44.2100
L19.4500 44.2600
" />
<path d="M19.4200 45.3500
L19.4000 45.4000
" />
<path d="M19.4500 25.2100
L19.4700 25.2500
" />
<path d="M19.4500 26.2600
L19.4200 26.3000
" />
<path d="M19.4500 44.2600
L19.4700 44.3000
" />
<path d="M19.4500 45.3100
L19.4200 45.3500
" />
<path d="M19.4700 25.2500
L19.5000 25.3000
" />
<path d="M19.4700 26.2100
L19.4500 26.2600
" />
<path d="M19.4700 44.3000
L19.5000 44.3500
" />
<path d="M19.4700 45.2600
L19.4500 45.3100
" />
<path d="M19.5000 25.3000
L19.5200 25.3500
" />
<path d="M19.5000 26.1600
L19.4700 26.2100
" />
<path d="M19.5000 44.3500
L19.5200 44.4000
" />
<path d="M19.5000 45.2100
L19.4700 45.2600
" />
<path d="M19.5200 25.3500
L19.5300 25.4000
" />
<path d="M19.5200 26.1100
L19.5000 26.1600
" />
<path d="M19.5200 44.4000
L19.5300 44.4500
" />
<path d="M19.5200 45.1600
L19.5000 45.2100
" />
<path d="M19.5300 25.4000
L19.5500 25.4600
" />
<path d="M19.5300 26.0600
L19.5200 26.1100
" />
<path d="M19.5300 44.4500
L19.5500 44.5100
" />
<path d="M19.5300 45.1100
L19.5200 45.1600
" />
<path d="M19.5500 25.4600
L19.5600 25.5100
" />
<path d="M19.5500 26.0100
L19.5300 26.0600
" />
<path d="M19.5500 44.5100
L19.5600 44.5600
" />
<path d="M19.5500 45.0600
L19.5300 45.1100
" />
<path d="M19.5600 25.5100
L19.5700 25.5600
" />
<path d="M19.5600 25.9500
L19.5500 26.0100
" />
<path d="M19.5600 44.5600
L19.5700 44.6100
" />
<path d="M19.5600 45.0000
L19.5500 45.0600
" />
<path d="M19.5700 25.5600
L19.5800 25.6200
" />
<path d="M19.5700 25.9000
L19.5600 25.9500
" />
<path d="M19.5700 44.6100
L19.5800 44.6700
" />
<path d="M19.5700 44.9500
L19.5600 45.0000
" />
<path d="M19.5800 25.6200
L19.5800 25.6700
" />
<path d="M19.5800 25.8400
L19.5700 25.9000
" />
<path d="M19.5800 44.6700
L19.5800 44.7200
" />
<path d="M19.5800 44.8900
L19.5700 44.9500
" />
<path d="M19.5800 25.6700
L19.5800 25.7300
" />
<path d="M19.5800 25.7900
L19.5800 25.8400
" />
<path d="M19.5800 44.7200
L19.5800 44.7800
" />
<path d="M19.5800 44.8400
L19.5800 44.8900
" />
<path d="M19.5800 25.7300
L19.5800 25.7900
" />
<path d="M19.5800 44.7800
L19.5800 44.8400
" />
</g>
<g style="fill:none; 
stroke:#000000; stroke-width:0.2000; stroke-opacity:1; 
stroke-linecap:round; stroke-linejoin:round;">
<path d="M33.3600 63.2500
L12.6800 63.2500
" />
<path d="M36.9600 63.2500
L33.3600 63.2500
" />
<path d="M37.3100,63.4000 C37.2200,63.3000 37.0900,63.2500 36.9600,63.2500" />
<path d="M37.3100 63.4000
L47.5000 77.7100
" />
<path d="M37.5000 7.0000
L0.5000 7.0000
" />
<path d="M37.5000,7.0000 C37.7700,7.0000 38.0000,6.7800 38.0000,6.5000" />
<path d="M38.0000 2.7500
L38.0000 6.5000
" />
<path d="M38.5000,2.2500 C38.2200,2.2500 38.0000,2.4800 38.0000,2.7500" />
<path d="M38.5000 2.2500
L49.4600 2.2500
" />
</g>
<g style="fill:none; 
stroke:#000000; stroke-width:0.2646; stroke-opacity:1; 
stroke-linecap:round; stroke-linejoin:round;">
<path d="M41.3900 63.1300
L41.3900 63.0700
" />
<path d="M41.3900 63.0700
L41.3900 63.0100
" />
<path d="M41.3900 63.1800
L41.3900 63.1300
" />
<path d="M41.3900 63.0100
L41.4000 62.9600
" />
<path d="M41.3900 63.2400
L41.3900 63.1800
" />
<path d="M41.4000 62.9600
L41.4100 62.9100
" />
<path d="M41.4000 63.2900
L41.3900 63.2400
" />
<path d="M41.4100 62.9100
L41.4200 62.8500
" />
<path d="M41.4100 63.3500
L41.4000 63.2900
" />
<path d="M41.4200 62.8500
L41.4400 62.8000
" />
<path d="M41.4200 63.4000
L41.4100 63.3500
" />
<path d="M41.4400 62.8000
L41.4600 62.7500
" />
<path d="M41.4400 63.4500
L41.4200 63.4000
" />
<path d="M41.4600 62.7500
L41.4800 62.7000
" />
<path d="M41.4600 63.5100
L41.4400 63.4500
" />
<path d="M41.4800 62.7000
L41.5000 62.6500
" />
<path d="M41.4800 63.5600
L41.4600 63.5100
" />
<path d="M41.5000 62.6500
L41.5200 62.6000
" />
<path d="M41.5000 63.6000
L41.4800 63.5600
" />
<path d="M41.5200 62.6000
L41.5500 62.5600
" />
<path d="M41.5200 63.6500
L41.5000 63.6000
" />
<path d="M41.5500 62.5600
L41.5800 62.5100
" />
<path d="M41.5500 63.7000
L41.5200 63.6500
" />
<path d="M41.5800 62.5100
L41.6100 62.4700
" />
<path d="M41.5800 63.7400
L41.5500 63.7000
" />
<path d="M41.6100 62.4700
L41.6400 62.4300
" />
<path d="M41.6100 63.7900
L41.5800 63.7400
" />
<path d="M41.6400 62.4300
L41.6800 62.3900
" />
<path d="M41.6400 63.8300
L41.6100 63.7900
" />
<path d="M41.6800 62.3900
L41.7100 62.3500
" />
<path d="M41.6800 63.8700
L41.6400 63.8300
" />
<path d="M41.7100 62.3500
L41.7500 62.3100
" />
<path d="M41.7100 63.9100
L41.6800 63.8700
" />
<path d="M41.7500 62.3100
L41.7900 62.2800
" />
<path d="M41.7500 63.9400
L41.7100 63.9100
" />
<path d="M41.7900 62.2800
L41.8300 62.2500
" />
<path d="M41.7900 63.9800
L41.7500 63.9400
" />
<path d="M41.8300 62.2500
L41.8700 62.2200
" />
<path d="M41.8300 64.0100
L41.7900 63.9800
" />
<path d="M41.8700 62.2200
L41.9200 62.1900
" />
<path d="M41.8700 64.0400
L41.8300 64.0100
" />
<path d="M41.9200 62.1900
L41.9600 62.1600
" />
<path d="M41.9200 64.0700
L41.8700 64.0400
" />
<path d="M41.9600 62.1600
L42.0100 62.1400
" />
<path d="M41.9600 64.0900
L41.9200 64.0700
" />
<path d="M42.0100 62.1400
L42.0600 62.1100
" />
<path d="M42.0100 64.1200
L41.9600 64.0900
" />
<path d="M42.0600 62.1100
L42.1100 62.0900
" />
<path d="M42.0600 64.1400
L42.0100 64.1200
" />
<path d="M42.1100 62.0900
L42.1600 62.0800
" />
<path d="M42.1100 64.1600
L42.0600 64.1400
" />
<path d="M42.1600 62.0800
L42.2100 62.0600
" />
<path d="M42.1600 64.1800
L42.1100 64.1600
" />
<path d="M42.2100 62.0600
L42.2700 62.0500
" />
<path d="M42.2100 64.1900
L42.1600 64.1800
" />
<path d="M42.2700 62.0500
L42.3200 62.0400
" />
<path d="M42.2700 64.2000
L42.2100 64.1900
" />
<path d="M42.3200 62.0400
L42.3800 62.0300
" />
<path d="M42.3200 64.2100
L42.2700 64.2000
" />
<path d="M42.3800 62.0300
L42.4300 62.0300
" />
<path d="M42.3800 64.2200
L42.3200 64.2100
" />
<path d="M42.4300 62.0300
L42.4900 62.0300
" />
<path d="M42.4300 64.2300
L42.3800 64.2200
" />
<path d="M42.4900 62.0300
L42.5500 62.0300
" />
<path d="M42.4900 64.2300
L42.4300 64.2300
" />
<path d="M42.5500 62.0300
L42.6000 62.0300
" />
<path d="M42.5500 64.2300
L42.4900 64.2300
" />
<path d="M42.6000 62.0300
L42.6600 62.0400
" />
<path d="M42.6000 64.2200
L42.5500 64.2300
" />
<path d="M42.6600 62.0400
L42.7100 62.0500
" />
<path d="M42.6600 64.2100
L42.6000 64.2200
" />
<path d="M42.7100 62.0500
L42.7600 62.0600
" />
<path d="M42.7100 64.2000
L42.6600 64.2100
" />
<path d="M42.7600 62.0600
L42.8200 62.0800
" />
<path d="M42.7600 64.1900
L42.7100 64.2000
" />
<path d="M42.8200 62.0800
L42.8700 62.0900
" />
<path d="M42.8200 64.1800
L42.7600 64.1900
" />
<path d="M42.8700 62.0900
L42.9200 62.1100
" />
<path d="M42.8700 64.1600
L42.8200 64.1800
" />
<path d="M42.9200 62.1100
L42.9700 62.1400
" />
<path d="M42.9200 64.1400
L42.8700 64.1600
" />
<path d="M42.9700 62.1400
L43.0100 62.1600
" />
<path d="M42.9700 64.1200
L42.9200 64.1400
" />
<path d="M43.0100 62.1600
L43.0600 62.1900
" />
<path d="M43.0100 64.0900
L42.9700 64.1200
" />
<path d="M43.0600 62.1900
L43.1000 62.2200
" />
<path d="M43.0600 64.0700
L43.0100 64.0900
" />
<path d="M43.1000 62.2200
L43.1500 62.2500
" />
<path d="M43.1000 64.0400
L43.0600 64.0700
" />
<path d="M43.1500 62.2500
L43.1900 62.2800
" />
<path d="M43.1500 64.0100
L43.1000 64.0400
" />
<path d="M43.1900 62.2800
L43.2300 62.3100
" />
<path d="M43.1900 63.9800
L43.1500 64.0100
" />
<path d="M43.2300 62.3100
L43.2700 62.3500
" />
<path d="M43.2300 63.9400
L43.1900 63.9800
" />
<path d="M43.2700 62.3500
L43.3000 62.3900
" />
<path d="M43.2700 63.9100
L43.2300 63.9400
" />
<path d="M43.3000 62.3900
L43.3400 62.4300
" />
<path d="M43.3000 63.8700
L43.2700 63.9100
" />
<path d="M43.3400 62.4300
L43.3700 62.4700
" />
<path d="M43.3400 63.8300
L43.3000 63.8700
" />
<path d="M43.3700 62.4700
L43.4000 62.5100
" />
<path d="M43.3700 63.7900
L43.3400 63.8300
" />
<path d="M43.4000 62.5100
L43.4300 62.5600
" />
<path d="M43.4000 63.7400
L43.3700 63.7900
" />
<path d="M43.4300 62.5600
L43.4600 62.6000
" />
<path d="M43.4300 63.7000
L43.4000 63.7400
" />
<path d="M43.4600 62.6000
L43.4800 62.6500
" />
<path d="M43.4600 63.6500
L43.4300 63.7000
" />
<path d="M43.4800 62.6500
L43.5000 62.7000
" />
<path d="M43.4800 63.6000
L43.4600 63.6500
" />
<path d="M43.5000 62.7000
L43.5200 62.7500
" />
<path d="M43.5000 63.5600
L43.4800 63.6000
" />
<path d="M43.5200 62.7500
L43.5400 62.8000
" />
<path d="M43.5200 63.5100
L43.5000 63.5600
" />
<path d="M43.5400 62.8000
L43.5500 62.8500
" />
<path d="M43.5400 63.4500
L43.5200 63.5100
" />
<path d="M43.5500 62.8500
L43.5700 62.9100
" />
<path d="M43.5500 63.4000
L43.5400 63.4500
" />
<path d="M43.5700 62.9100
L43.5800 62.9600
" />
<path d="M43.5700 63.3500
L43.5500 63.4000
" />
<path d="M43.5800 62.9600
L43.5800 63.0100
" />
<path d="M43.5800 63.2900
L43.5700 63.3500
" />
<path d="M43.5800 63.0100
L43.5900 63.0700
" />
<path d="M43.5800 63.2400
L43.5800 63.2900
" />
<path d="M43.5900 63.0700
L43.5900 63.1300
" />
<path d="M43.5900 63.1800
L43.5800 63.2400
" />
<path d="M43.5900 63.1300
L43.5900 63.1800
" />
</g>
<g style="fill:none; 
stroke:#000000; stroke-width:0.2000; stroke-opacity:1; 
stroke-linecap:round; stroke-linejoin:round;">
<path d="M47.5000,77.7100 C47.5900,77.8000 47.7200,77.8600 47.8500,77.8600" />
<path d="M47.8500 77.8600
L63.6800 77.8600
" />
<path d="M56.5000 2.2500
L49.4600 2.2500
" />
<path d="M56.5000,2.2500 C56.7700,2.2500 57.0000,2.0300 57.0000,1.7500" />
<path d="M57.0000 0.5000
L57.0000 1.7500
" />
<path d="M57.5000,0.0000 C57.2200,0.0000 57.0000,0.2300 57.0000,0.5000" />
<path d="M63.6800 77.8600
L66.3900 77.8600
" />
<path d="M66.3900 77.8600
L103.4200 82.7700
" />
<path d="M74.5000 0.0000
L57.5000 0.0000
" />
<path d="M75.0000 1.7500
L75.0000 0.5000
" />
<path d="M75.0000,0.5000 C75.0000,0.2300 74.7700,0.0000 74.5000,0.0000" />
<path d="M75.0000,1.7500 C75.0000,2.0300 75.2200,2.2500 75.5000,2.2500" />
<path d="M75.5000 2.2500
L87.3700 2.2500
" />
</g>
<g style="fill:none; 
stroke:#000000; stroke-width:0.2646; stroke-opacity:1; 
stroke-linecap:round; stroke-linejoin:round;">
<path d="M93.3800 21.2300
L93.3800 21.1700
" />
<path d="M93.3800 21.1700
L93.3900 21.1200
" />
<path d="M93.3800 21.2900
L93.3800 21.2300
" />
<path d="M93.3900 21.1200
L93.4000 21.0600
" />
<path d="M93.3900 21.3400
L93.3800 21.2900
" />
<path d="M93.4000 21.0600
L93.4100 21.0100
" />
<path d="M93.4000 21.4000
L93.3900 21.3400
" />
<path d="M93.4100 21.0100
L93.4200 20.9600
" />
<path d="M93.4100 21.4500
L93.4000 21.4000
" />
<path d="M93.4200 20.9600
L93.4300 20.9000
" />
<path d="M93.4200 21.5100
L93.4100 21.4500
" />
<path d="M93.4300 20.9000
L93.4500 20.8500
" />
<path d="M93.4300 21.5600
L93.4200 21.5100
" />
<path d="M93.4500 20.8500
L93.4700 20.8000
" />
<path d="M93.4500 21.6100
L93.4300 21.5600
" />
<path d="M93.4700 20.8000
L93.4900 20.7500
" />
<path d="M93.4700 21.6600
L93.4500 21.6100
" />
<path d="M93.4900 20.7500
L93.5200 20.7100
" />
<path d="M93.4900 21.7100
L93.4700 21.6600
" />
</g>
<g style="fill:none; 
stroke:#000000; stroke-width:0.2000; stroke-opacity:1; 
stroke-linecap:round; stroke-linejoin:round;">
<path d="M93.5000 2.2500
L87.3700 2.2500
" />
</g>
<g style="fill:none; 
stroke:#000000; stroke-width:0.2646; stroke-opacity:1; 
stroke-linecap:round; stroke-linejoin:round;">
<path d="M93.5200 20.7100
L93.5400 20.6600
" />
<path d="M93.5200 21.7600
L93.4900 21.7100
" />
<path d="M93.5400 20.6600
L93.5700 20.6200
" />
<path d="M93.5400 21.8000
L93.5200 21.7600
" />
<path d="M93.5700 20.6200
L93.6000 20.5700
" />
<path d="M93.5700 21.8500
L93.5400 21.8000
" />
<path d="M93.6000 20.5700
L93.6300 20.5300
" />
<path d="M93.6000 21.8900
L93.5700 21.8500
" />
<path d="M93.6300 20.5300
L93.6700 20.4900
" />
<path d="M93.6300 21.9300
L93.6000 21.8900
" />
<path d="M93.6700 20.4900
L93.7100 20.4500
" />
<path d="M93.6700 21.9700
L93.6300 21.9300
" />
<path d="M93.7100 20.4500
L93.7400 20.4200
" />
<path d="M93.7100 22.0100
L93.6700 21.9700
" />
<path d="M93.7400 20.4200
L93.7800 20.3800
" />
<path d="M93.7400 22.0500
L93.7100 22.0100
" />
<path d="M93.7800 20.3800
L93.8300 20.3500
" />
<path d="M93.7800 22.0800
L93.7400 22.0500
" />
<path d="M93.8300 20.3500
L93.8700 20.3200
" />
<path d="M93.8300 22.1100
L93.7800 22.0800
" />
<path d="M93.8700 20.3200
L93.9100 20.2900
" />
<path d="M93.8700 22.1400
L93.8300 22.1100
" />
<path d="M93.9100 20.2900
L93.9600 20.2600
" />
<path d="M93.9100 22.1700
L93.8700 22.1400
" />
<path d="M93.9600 20.2600
L94.0100 20.2400
" />
<path d="M93.9600 22.2000
L93.9100 22.1700
" />
</g>
<g style="fill:none; 
stroke:#000000; stroke-width:0.2000; stroke-opacity:1; 
stroke-linecap:round; stroke-linejoin:round;">
<path d="M94.0000 4.2500
L94.0000 2.7500
" />
<path d="M94.0000,2.7500 C94.0000,2.4800 93.7700,2.2500 93.5000,2.2500" />
<path d="M94.0000,4.2500 C94.0000,4.5300 94.2200,4.7500 94.5000,4.7500" />
</g>
<g style="fill:none; 
stroke:#000000; stroke-width:0.2646; stroke-opacity:1; 
stroke-linecap:round; stroke-linejoin:round;">
<path d="M94.0100 20.2400
L94.0600 20.2200
" />
<path d="M94.0100 22.2200
L93.9600 22.2000
" />
<path d="M94.0600 20.2200
L94.1100 20.2000
" />
<path d="M94.0600 22.2400
L94.0100 22.2200
" />
<path d="M94.1100 20.2000
L94.1600 20.1800
" />
<path d="M94.1100 22.2600
L94.0600 22.2400
" />
<path d="M94.1600 20.1800
L94.2100 20.1700
" />
<path d="M94.1600 22.2800
L94.1100 22.2600
" />
<path d="M94.2100 20.1700
L94.2600 20.1500
" />
<path d="M94.2100 22.3000
L94.1600 22.2800
" />
<path d="M94.2600 20.1500
L94.3200 20.1400
" />
<path d="M94.2600 22.3100
L94.2100 22.3000
" />
<path d="M94.3200 20.1400
L94.3700 20.1400
" />
<path d="M94.3200 22.3200
L94.2600 22.3100
" />
<path d="M94.3700 20.1400
L94.4300 20.1300
" />
<path d="M94.3700 22.3300
L94.3200 22.3200
" />
<path d="M94.4300 20.1300
L94.4800 20.1300
" />
<path d="M94.4300 22.3300
L94.3700 22.3300
" />
<path d="M94.4800 20.1300
L94.5400 20.1300
" />
<path d="M94.4800 22.3300
L94.4300 22.3300
" />
<path d="M94.5400 20.1300
L94.6000 20.1400
" />
<path d="M94.5400 22.3300
L94.4800 22.3300
" />
<path d="M94.6000 20.1400
L94.6500 20.1400
" />
<path d="M94.6000 22.3300
L94.5400 22.3300
" />
<path d="M94.6500 20.1400
L94.7000 20.1500
" />
<path d="M94.6500 22.3200
L94.6000 22.3300
" />
<path d="M94.7000 20.1500
L94.7600 20.1700
" />
<path d="M94.7000 22.3100
L94.6500 22.3200
" />
<path d="M94.7600 20.1700
L94.8100 20.1800
" />
<path d="M94.7600 22.3000
L94.7000 22.3100
" />
<path d="M94.8100 20.1800
L94.8600 20.2000
" />
<path d="M94.8100 22.2800
L94.7600 22.3000
" />
<path d="M94.8600 20.2000
L94.9100 20.2200
" />
<path d="M94.8600 22.2600
L94.8100 22.2800
" />
<path d="M94.9100 20.2200
L94.9600 20.2400
" />
<path d="M94.9100 22.2400
L94.8600 22.2600
" />
<path d="M94.9600 20.2400
L95.0100 20.2600
" />
<path d="M94.9600 22.2200
L94.9100 22.2400
" />
<path d="M95.0100 20.2600
L95.0500 20.2900
" />
<path d="M95.0100 22.2000
L94.9600 22.2200
" />
<path d="M95.0500 20.2900
L95.1000 20.3200
" />
<path d="M95.0500 22.1700
L95.0100 22.2000
" />
<path d="M95.1000 20.3200
L95.1400 20.3500
" />
<path d="M95.1000 22.1400
L95.0500 22.1700
" />
<path d="M95.1400 20.3500
L95.1800 20.3800
" />
<path d="M95.1400 22.1100
L95.1000 22.1400
" />
<path d="M95.1800 20.3800
L95.2200 20.4200
" />
<path d="M95.1800 22.0800
L95.1400 22.1100
" />
<path d="M95.2200 20.4200
L95.2600 20.4500
" />
<path d="M95.2200 22.0500
L95.1800 22.0800
" />
<path d="M95.2600 20.4500
L95.3000 20.4900
" />
<path d="M95.2600 22.0100
L95.2200 22.0500
" />
<path d="M95.3000 20.4900
L95.3300 20.5300
" />
<path d="M95.3000 21.9700
L95.2600 22.0100
" />
<path d="M95.3300 20.5300
L95.3600 20.5700
" />
<path d="M95.3300 21.9300
L95.3000 21.9700
" />
<path d="M95.3600 20.5700
L95.4000 20.6200
" />
<path d="M95.3600 21.8900
L95.3300 21.9300
" />
<path d="M95.4000 20.6200
L95.4200 20.6600
" />
<path d="M95.4000 21.8500
L95.3600 21.8900
" />
<path d="M95.4200 20.6600
L95.4500 20.7100
" />
<path d="M95.4200 21.8000
L95.4000 21.8500
" />
<path d="M95.4500 20.7100
L95.4700 20.7500
" />
<path d="M95.4500 21.7600
L95.4200 21.8000
" />
<path d="M95.4700 20.7500
L95.5000 20.8000
" />
<path d="M95.4700 21.7100
L95.4500 21.7600
" />
<path d="M95.5000 20.8000
L95.5200 20.8500
" />
<path d="M95.5000 21.6600
L95.4700 21.7100
" />
<path d="M95.5200 20.8500
L95.5300 20.9000
" />
<path d="M95.5200 21.6100
L95.5000 21.6600
" />
<path d="M95.5300 20.9000
L95.5500 20.9600
" />
<path d="M95.5300 21.5600
L95.5200 21.6100
" />
<path d="M95.5500 20.9600
L95.5600 21.0100
" />
<path d="M95.5500 21.5100
L95.5300 21.5600
" />
<path d="M95.5600 21.0100
L95.5700 21.0600
" />
<path d="M95.5600 21.4500
L95.5500 21.5100
" />
<path d="M95.5700 21.0600
L95.5800 21.1200
" />
<path d="M95.5700 21.4000
L95.5600 21.4500
" />
<path d="M95.5800 21.1200
L95.5800 21.1700
" />
<path d="M95.5800 21.3400
L95.5700 21.4000
" />
<path d="M95.5800 21.1700
L95.5800 21.2300
" />
<path d="M95.5800 21.2900
L95.5800 21.3400
" />
<path d="M95.5800 21.2300
L95.5800 21.2900
" />
</g>
<g style="fill:none; 
stroke:#000000; stroke-width:0.2000; stroke-opacity:1; 
stroke-linecap:round; stroke-linejoin:round;">
<path d="M104.0700,82.9000 C103.8600,82.8400 103.6400,82.7900 103.4200,82.7700" />
<path d="M104.0700 82.9000
L118.3700 91.1600
" />
</g>
<g style="fill:none; 
stroke:#000000; stroke-width:0.2646; stroke-opacity:1; 
stroke-linecap:round; stroke-linejoin:round;">
<path d="M107.1300 69.7300
L107.1300 69.6700
" />
<path d="M107.1300 69.6700
L107.1400 69.6200
" />
<path d="M107.1300 69.7900
L107.1300 69.7300
" />
<path d="M107.1400 69.6200
L107.1500 69.5600
" />
<path d="M107.1400 69.8400
L107.1300 69.7900
" />
<path d="M107.1500 69.5600
L107.1600 69.5100
" />
<path d="M107.1500 69.9000
L107.1400 69.8400
" />
<path d="M107.1600 69.5100
L107.1700 69.4600
" />
<path d="M107.1600 69.9500
L107.1500 69.9000
" />
<path d="M107.1700 69.4600
L107.1800 69.4000
" />
<path d="M107.1700 70.0100
L107.1600 69.9500
" />
<path d="M107.1800 69.4000
L107.2000 69.3500
" />
<path d="M107.1800 70.0600
L107.1700 70.0100
" />
<path d="M107.2000 69.3500
L107.2200 69.3000
" />
<path d="M107.2000 70.1100
L107.1800 70.0600
" />
<path d="M107.2200 69.3000
L107.2400 69.2500
" />
<path d="M107.2200 70.1600
L107.2000 70.1100
" />
<path d="M107.2400 69.2500
L107.2700 69.2100
" />
<path d="M107.2400 70.2100
L107.2200 70.1600
" />
<path d="M107.2700 69.2100
L107.2900 69.1600
" />
<path d="M107.2700 70.2600
L107.2400 70.2100
" />
<path d="M107.2900 69.1600
L107.3200 69.1200
" />
<path d="M107.2900 70.3000
L107.2700 70.2600
" />
<path d="M107.3200 69.1200
L107.3500 69.0700
" />
<path d="M107.3200 70.3500
L107.2900 70.3000
" />
<path d="M107.3500 69.0700
L107.3800 69.0300
" />
<path d="M107.3500 70.3900
L107.3200 70.3500
" />
<path d="M107.3800 69.0300
L107.4200 68.9900
" />
<path d="M107.3800 70.4300
L107.3500 70.3900
" />
<path d="M107.4200 68.9900
L107.4600 68.9500
" />
<path d="M107.4200 70.4700
L107.3800 70.4300
" />
<path d="M107.4600 68.9500
L107.4900 68.9200
" />
<path d="M107.4600 70.5100
L107.4200 70.4700
" />
<path d="M107.4900 68.9200
L107.5300 68.8800
" />
<path d="M107.4900 70.5500
L107.4600 70.5100
" />
<path d="M107.5300 68.8800
L107.5800 68.8500
" />
<path d="M107.5300 70.5800
L107.4900 70.5500
" />
<path d="M107.5800 68.8500
L107.6200 68.8200
" />
<path d="M107.5800 70.6100
L107.5300 70.5800
" />
<path d="M107.6200 68.8200
L107.6600 68.7900
" />
<path d="M107.6200 70.6400
L107.5800 70.6100
" />
<path d="M107.6600 68.7900
L107.7100 68.7600
" />
<path d="M107.6600 70.6700
L107.6200 70.6400
" />
<path d="M107.7100 68.7600
L107.7600 68.7400
" />
<path d="M107.7100 70.7000
L107.6600 70.6700
" />
<path d="M107.7600 68.7400
L107.8100 68.7200
" />
<path d="M107.7600 70.7200
L107.7100 70.7000
" />
<path d="M107.8100 68.7200
L107.8600 68.7000
" />
<path d="M107.8100 70.7400
L107.7600 70.7200
" />
<path d="M107.8600 68.7000
L107.9100 68.6800
" />
<path d="M107.8600 70.7600
L107.8100 70.7400
" />
<path d="M107.9100 68.6800
L107.9600 68.6700
" />
<path d="M107.9100 70.7800
L107.8600 70.7600
" />
<path d="M107.9600 68.6700
L108.0100 68.6500
" />
<path d="M107.9600 70.8000
L107.9100 70.7800
" />
<path d="M108.0100 68.6500
L108.0700 68.6400
" />
<path d="M108.0100 70.8100
L107.9600 70.8000
" />
<path d="M108.0700 68.6400
L108.1200 68.6400
" />
<path d="M108.0700 70.8200
L108.0100 70.8100
" />
<path d="M108.1200 68.6400
L108.1800 68.6300
" />
<path d="M108.1200 70.8300
L108.0700 70.8200
" />
<path d="M108.1800 68.6300
L108.2300 68.6300
" />
<path d="M108.1800 70.8300
L108.1200 70.8300
" />
<path d="M108.2300 68.6300
L108.2900 68.6300
" />
<path d="M108.2300 70.8300
L108.1800 70.8300
" />
<path d="M108.2900 68.6300
L108.3500 68.6400
" />
<path d="M108.2900 70.8300
L108.2300 70.8300
" />
<path d="M108.3500 68.6400
L108.4000 68.6400
" />
<path d="M108.3500 70.8300
L108.2900 70.8300
" />
<path d="M108.4000 68.6400
L108.4500 68.6500
" />
<path d="M108.4000 70.8200
L108.3500 70.8300
" />
<path d="M108.4500 68.6500
L108.5100 68.6700
" />
<path d="M108.4500 70.8100
L108.4000 70.8200
" />
<path d="M108.5100 68.6700
L108.5600 68.6800
" />
<path d="M108.5100 70.8000
L108.4500 70.8100
" />
<path d="M108.5600 68.6800
L108.6100 68.7000
" />
<path d="M108.5600 70.7800
L108.5100 70.8000
" />
<path d="M108.6100 68.7000
L108.6600 68.7200
" />
<path d="M108.6100 70.7600
L108.5600 70.7800
" />
<path d="M108.6600 68.7200
L108.7100 68.7400
" />
<path d="M108.6600 70.7400
L108.6100 70.7600
" />
<path d="M108.7100 68.7400
L108.7600 68.7600
" />
<path d="M108.7100 70.7200
L108.6600 70.7400
" />
<path d="M108.7600 68.7600
L108.8000 68.7900
" />
<path d="M108.7600 70.7000
L108.7100 70.7200
" />
<path d="M108.8000 68.7900
L108.8500 68.8200
" />
<path d="M108.8000 70.6700
L108.7600 70.7000
" />
<path d="M108.8500 68.8200
L108.8900 68.8500
" />
<path d="M108.8500 70.6400
L108.8000 70.6700
" />
<path d="M108.8900 68.8500
L108.9300 68.8800
" />
<path d="M108.8900 70.6100
L108.8500 70.6400
" />
<path d="M108.9300 68.8800
L108.9700 68.9200
" />
<path d="M108.9300 70.5800
L108.8900 70.6100
" />
<path d="M108.9700 68.9200
L109.0100 68.9500
" />
<path d="M108.9700 70.5500
L108.9300 70.5800
" />
<path d="M109.0100 68.9500
L109.0500 68.9900
" />
<path d="M109.0100 70.5100
L108.9700 70.5500
" />
<path d="M109.0500 68.9900
L109.0800 69.0300
" />
<path d="M109.0500 70.4700
L109.0100 70.5100
" />
<path d="M109.0800 69.0300
L109.1100 69.0700
" />
<path d="M109.0800 70.4300
L109.0500 70.4700
" />
<path d="M109.1100 69.0700
L109.1500 69.1200
" />
<path d="M109.1100 70.3900
L109.0800 70.4300
" />
<path d="M109.1500 69.1200
L109.1700 69.1600
" />
<path d="M109.1500 70.3500
L109.1100 70.3900
" />
<path d="M109.1700 69.1600
L109.2000 69.2100
" />
<path d="M109.1700 70.3000
L109.1500 70.3500
" />
<path d="M109.2000 69.2100
L109.2200 69.2500
" />
<path d="M109.2000 70.2600
L109.1700 70.3000
" />
<path d="M109.2200 69.2500
L109.2500 69.3000
" />
<path d="M109.2200 70.2100
L109.2000 70.2600
" />
<path d="M109.2500 69.3000
L109.2700 69.3500
" />
<path d="M109.2500 70.1600
L109.2200 70.2100
" />
<path d="M109.2700 69.3500
L109.2800 69.4000
" />
<path d="M109.2700 70.1100
L109.2500 70.1600
" />
<path d="M109.2800 69.4000
L109.3000 69.4600
" />
<path d="M109.2800 70.0600
L109.2700 70.1100
" />
<path d="M109.3000 69.4600
L109.3100 69.5100
" />
<path d="M109.3000 70.0100
L109.2800 70.0600
" />
<path d="M109.3100 69.5100
L109.3200 69.5600
" />
<path d="M109.3100 69.9500
L109.3000 70.0100
" />
<path d="M109.3200 69.5600
L109.3300 69.6200
" />
<path d="M109.3200 69.9000
L109.3100 69.9500
" />
<path d="M109.3300 69.6200
L109.3300 69.6700
" />
<path d="M109.3300 69.8400
L109.3200 69.9000
" />
<path d="M109.3300 69.6700
L109.3300 69.7300
" />
<path d="M109.3300 69.7900
L109.3300 69.8400
" />
<path d="M109.3300 69.7300
L109.3300 69.7900
" />
</g>
<g style="fill:none; 
stroke:#000000; stroke-width:0.2000; stroke-opacity:1; 
stroke-linecap:round; stroke-linejoin:round;">
<path d="M112.5000 4.7500
L94.5000 4.7500
" />
<path d="M113.0000 5.2500
L113.0000 6.5000
" />
<path d="M113.0000,5.2500 C113.0000,4.9800 112.7700,4.7500 112.5000,4.7500" />
<path d="M113.0000,6.5000 C113.0000,6.7800 113.2200,7.0000 113.5000,7.0000" />
<path d="M118.3700,91.1600 C119.0000,91.5900 119.8600,91.4200 120.2900,90.7900" />
<path d="M120.2900,90.7900 C120.2900,90.7900 120.2900,90.7900 120.2900,90.7800" />
<path d="M120.2900 90.7800
L133.5200 67.8500
" />
<path d="M133.2500 7.0000
L113.5000 7.0000
" />
<path d="M133.5200,67.8500 C133.6700,67.5800 133.7500,67.2800 133.7500,66.9800" />
<path d="M133.7500 7.5000
L133.7500 66.9800
" />
<path d="M133.7500,7.5000 C133.7500,7.2300 133.5200,7.0000 133.2500,7.0000" />
</g>
<g style="fill:#000000; fill-opacity:1.0000; stroke:none;">
<circle cx="76.2233" cy="38.7718" r="3.1000" /> 
<circle cx="57.1733" cy="38.7718" r="1.1000" /> 
<circle cx="76.2233" cy="19.7218" r="1.1000" /> 
<circle cx="76.2233" cy="57.8218" r="1.1000" /> 
</g> 
</svg>
